<?xml version="1.0" encoding="UTF-8"?>
<svg xmlns="http://www.w3.org/2000/svg" xmlns:xlink="http://www.w3.org/1999/xlink" width="11" height="10.065904" viewBox="0 0 11 10.065904">
<path fill-rule="nonzero" fill="rgb(30%,30%,30%)" fill-opacity="1" d="M 5.484375 8.664062 L 2.066406 7.449219 L 2.089844 3.121094 L 5.480469 4.257812 Z M 5.484375 8.664062 "/>
<path fill-rule="nonzero" fill="rgb(30%,30%,30%)" fill-opacity="1" d="M 5.761719 8.664062 L 5.75 4.265625 L 9.144531 3.117188 L 9.113281 7.453125 Z M 5.761719 8.664062 "/>
<path fill-rule="nonzero" fill="rgb(30%,30%,30%)" fill-opacity="1" d="M 5.601562 1.664062 L 9.039062 2.855469 L 5.574219 4.027344 L 2.21875 2.890625 Z M 5.601562 1.664062 "/>
<path fill-rule="nonzero" fill="rgb(30%,30%,30%)" fill-opacity="1" d="M 2.519531 10.066406 L 0 10.066406 L 0 0 L 2.535156 0 L 2.535156 0.804688 L 0.804688 0.804688 L 0.804688 9.257812 L 2.519531 9.257812 Z M 2.519531 10.066406 "/>
<path fill-rule="nonzero" fill="rgb(30%,30%,30%)" fill-opacity="1" d="M 11 10.066406 L 8.480469 10.066406 L 8.480469 9.257812 L 10.195312 9.257812 L 10.195312 0.804688 L 8.464844 0.804688 L 8.464844 0 L 11 0 Z M 11 10.066406 "/>
</svg>
