<?xml version="1.0" encoding="UTF-8" standalone="no"?>
<!-- Created with Inkscape (http://www.inkscape.org/) -->

<svg
   xmlns:dc="http://purl.org/dc/elements/1.1/"
   xmlns:cc="http://creativecommons.org/ns#"
   xmlns:rdf="http://www.w3.org/1999/02/22-rdf-syntax-ns#"
   xmlns:svg="http://www.w3.org/2000/svg"
   xmlns="http://www.w3.org/2000/svg"
   xmlns:xlink="http://www.w3.org/1999/xlink"
   xmlns:sodipodi="http://sodipodi.sourceforge.net/DTD/sodipodi-0.dtd"
   xmlns:inkscape="http://www.inkscape.org/namespaces/inkscape"
   width="30px"
   height="30px"
   version="1.1"
   id="svg8"
   inkscape:version="0.92.4 5da689c313, 2019-01-14"
   sodipodi:docname="container.svg">
  <defs
     id="defs2" />
  <sodipodi:namedview
     id="base"
     pagecolor="#ffffff"
     bordercolor="#666666"
     borderopacity="1.0"
     inkscape:pageopacity="0.0"
     inkscape:pageshadow="2"
     inkscape:zoom="13.049334"
     inkscape:cx="18.679046"
     inkscape:cy="12.165829"
     inkscape:document-units="px"
     inkscape:current-layer="layer1"
     showgrid="false"
     inkscape:snap-page="false"
     units="px"
     inkscape:window-width="1884"
     inkscape:window-height="1061"
     inkscape:window-x="0"
     inkscape:window-y="0"
     inkscape:window-maximized="1"
     fit-margin-top="0"
     fit-margin-left="0"
     fit-margin-right="0"
     fit-margin-bottom="0" />
  <metadata
     id="metadata5">
    <rdf:RDF>
      <cc:Work
         rdf:about="">
        <dc:format>image/svg+xml</dc:format>
        <dc:type
           rdf:resource="http://purl.org/dc/dcmitype/StillImage" />
        <dc:title></dc:title>
      </cc:Work>
    </rdf:RDF>
  </metadata>
    <circle
       style="color:#000000;clip-rule:nonzero;display:inline;overflow:visible;visibility:visible;opacity:1;isolation:auto;mix-blend-mode:normal;color-interpolation:sRGB;color-interpolation-filters:linearRGB;solid-color:#000000;solid-opacity:1;vector-effect:none;fill:#00a0a4;fill-opacity:1;fill-rule:evenodd;stroke:#ffffff;stroke-width:1;stroke-linecap:butt;stroke-linejoin:miter;stroke-miterlimit:4;stroke-dasharray:none;stroke-dashoffset:0;stroke-opacity:1;marker:none;color-rendering:auto;image-rendering:auto;shape-rendering:auto;text-rendering:auto;enable-background:accumulate"
       id="path815"
       cx="15"
       cy="15"
       r="14.5" />
<g transform="translate(8,6)"><g id="surface1">
<path style=" stroke:none;fill-rule:nonzero;fill:#FFFFFF;fill-opacity:1;" d="M 13.515625 8.457031 C 13.539062 8.285156 13.492188 8.109375 13.476562 7.929688 C 13.40625 6.847656 12.601562 5.269531 11.597656 4.851562 C 9.886719 4.140625 8.285156 4.605469 8.300781 4.613281 C 7.800781 4.679688 7.277344 4.75 6.765625 4.765625 C 6.25 4.75 5.726562 4.679688 5.21875 4.609375 C 4.347656 4.425781 2.816406 4.363281 1.933594 4.851562 C 0.984375 5.378906 0.125 6.847656 0.0546875 7.929688 C 0.0390625 8.109375 -0.0078125 8.285156 0.015625 8.457031 C -0.0273438 8.847656 0.0390625 9.25 0.0820312 9.648438 C 0.28125 11.464844 1.511719 12.753906 2.652344 14.070312 C 2.976562 14.441406 3.324219 14.78125 3.679688 15.117188 C 3.941406 15.398438 4.203125 15.679688 4.457031 15.964844 C 5.128906 16.710938 5.8125 17.074219 6.765625 16.988281 C 7.71875 17.074219 8.402344 16.710938 9.074219 15.964844 C 9.328125 15.679688 9.589844 15.398438 9.851562 15.117188 C 10.207031 14.78125 10.554688 14.441406 10.878906 14.070312 C 12.019531 12.753906 13.25 11.464844 13.449219 9.648438 C 13.492188 9.25 13.558594 8.847656 13.515625 8.457031 Z M 7.171875 6.25 C 8.164062 6.339844 8.105469 8.1875 7.261719 8.429688 C 6.355469 8.691406 5.878906 6.136719 7.171875 6.25 Z M 1.558594 9.535156 C 0.703125 9.78125 0.253906 7.371094 1.472656 7.476562 C 2.410156 7.5625 2.355469 9.308594 1.558594 9.535156 Z M 3.109375 12.328125 C 2.300781 12.558594 1.878906 10.292969 3.027344 10.390625 C 3.910156 10.46875 3.859375 12.113281 3.109375 12.328125 Z M 3.699219 7.792969 C 2.792969 8.050781 2.316406 5.5 3.609375 5.613281 C 4.601562 5.703125 4.542969 7.550781 3.699219 7.792969 Z M 4.886719 14.429688 C 4.128906 14.648438 3.734375 12.519531 4.808594 12.613281 C 5.636719 12.6875 5.589844 14.230469 4.886719 14.429688 Z M 5.269531 10.515625 C 4.414062 10.757812 3.964844 8.347656 5.1875 8.457031 C 6.125 8.539062 6.070312 10.285156 5.269531 10.515625 Z M 7.035156 15.691406 C 6.351562 15.890625 5.988281 13.957031 6.96875 14.042969 C 7.71875 14.109375 7.675781 15.511719 7.035156 15.691406 Z M 7.5 12.042969 C 6.746094 12.257812 6.347656 10.128906 7.425781 10.226562 C 8.253906 10.296875 8.207031 11.839844 7.5 12.042969 Z M 9.351562 14.144531 C 8.597656 14.359375 8.199219 12.234375 9.277344 12.328125 C 10.105469 12.402344 10.058594 13.945312 9.351562 14.144531 Z M 9.449219 9.785156 C 8.59375 10.03125 8.144531 7.621094 9.367188 7.726562 C 10.304688 7.8125 10.25 9.558594 9.449219 9.785156 Z M 11.398438 11.183594 C 10.59375 11.414062 10.171875 9.144531 11.320312 9.246094 C 12.203125 9.324219 12.152344 10.96875 11.398438 11.183594 Z M 11.371094 7.84375 C 10.515625 8.089844 10.066406 5.679688 11.289062 5.785156 C 12.226562 5.867188 12.171875 7.617188 11.371094 7.84375 Z M 11.371094 7.84375 "/>
<path style=" stroke:none;fill-rule:nonzero;fill:#FFFFFF;fill-opacity:1;" d="M 1.792969 3.523438 C 2.003906 3.496094 2.410156 3.53125 2.613281 3.617188 C 2.886719 3.734375 2.945312 3.898438 3.226562 4.03125 C 3.316406 4.074219 3.40625 4.109375 3.5 4.140625 C 3.5 4.148438 3.5 4.15625 3.496094 4.164062 C 3.613281 4.15625 3.726562 4.15625 3.832031 4.15625 C 4.308594 4.15625 4.824219 4.203125 5.238281 4.292969 C 5.710938 4.355469 6.246094 4.429688 6.765625 4.445312 C 7.28125 4.429688 7.808594 4.359375 8.277344 4.296875 C 8.332031 4.273438 8.4375 4.246094 8.632812 4.214844 C 8.941406 4.160156 9.25 4.136719 9.5625 4.136719 C 9.6875 4.136719 9.8125 4.140625 9.933594 4.148438 C 10.113281 4.085938 10.339844 4.050781 10.449219 4.011719 C 10.933594 3.824219 11.417969 3.570312 11.8125 3.160156 C 11.988281 2.972656 12.574219 2.605469 12.800781 2.902344 C 12.769531 2.859375 12.730469 2.816406 12.691406 2.777344 C 12.695312 2.78125 12.703125 2.785156 12.707031 2.789062 C 12.339844 2.503906 10.949219 1.859375 8.949219 3.613281 C 8.878906 3.5625 9.046875 3.285156 9.070312 3.222656 C 9.191406 2.898438 9.394531 2.300781 9.386719 1.9375 C 9.378906 1.472656 9.226562 1.046875 9.191406 0.582031 C 9.179688 0.421875 9.132812 0.273438 9.167969 0.128906 C 9.179688 0.105469 9.191406 0.0820312 9.203125 0.0625 C 9.195312 0.078125 9.183594 0.0898438 9.175781 0.105469 C 9.1875 0.0664062 9.203125 0.03125 9.222656 0 C 8.800781 0.65625 8.113281 0.804688 7.574219 1.246094 C 7.433594 1.359375 7.160156 1.742188 7.042969 1.902344 C 6.976562 1.992188 6.917969 2.082031 6.863281 2.179688 C 6.761719 2.367188 6.707031 2.605469 6.640625 2.820312 C 6.523438 2.582031 6.371094 2.367188 6.183594 2.175781 C 5.792969 1.769531 5.382812 1.613281 4.925781 1.371094 C 3.554688 0.648438 1.851562 0.902344 1.636719 1.085938 C 1.550781 1.132812 1.476562 1.207031 1.425781 1.292969 C 1.445312 1.257812 1.480469 1.234375 1.515625 1.226562 C 1.515625 1.230469 1.511719 1.230469 1.511719 1.234375 C 1.511719 1.230469 1.515625 1.230469 1.515625 1.226562 C 1.828125 1.15625 2.71875 1.730469 2.867188 1.84375 C 3.242188 2.140625 3.546875 2.589844 3.871094 2.980469 C 3.742188 2.964844 2.109375 2.371094 1.199219 3.578125 C 1.164062 3.625 1.742188 3.53125 1.792969 3.523438 Z M 1.792969 3.523438 "/>
</g>
</g>
</svg>
