<?xml version="1.0" encoding="UTF-8"?>
<svg xmlns="http://www.w3.org/2000/svg" xmlns:xlink="http://www.w3.org/1999/xlink" width="11" height="8.624094" viewBox="0 0 11 8.624094" version="1.1">
<g id="surface1">
<path style=" stroke:none;fill-rule:nonzero;fill:rgb(30%,30%,30%);fill-opacity:1;" d="M 8.882812 3.097656 L 8.882812 5.679688 L 2.117188 5.679688 L 2.117188 3.097656 L 1.238281 3.097656 L 1.238281 8.625 L 9.707031 8.625 L 9.707031 3.097656 Z M 8.882812 3.097656 "/>
<path style=" stroke:none;fill-rule:nonzero;fill:rgb(30%,30%,30%);fill-opacity:1;" d="M 9.554688 0 L 1.445312 0 L 0.00390625 1.703125 C 0 1.738281 0 1.773438 0 1.808594 C 0 2.378906 0.472656 2.839844 1.058594 2.839844 C 1.644531 2.839844 2.144531 2.378906 2.144531 1.808594 C 2.144531 2.378906 2.644531 2.839844 3.226562 2.839844 C 3.8125 2.839844 4.335938 2.378906 4.335938 1.808594 C 4.335938 2.378906 4.863281 2.839844 5.449219 2.839844 C 6.03125 2.839844 6.558594 2.378906 6.558594 1.808594 C 6.558594 2.378906 7.085938 2.839844 7.667969 2.839844 C 8.253906 2.839844 8.804688 2.378906 8.804688 1.808594 C 8.804688 2.378906 9.355469 2.839844 9.941406 2.839844 C 10.527344 2.839844 11 2.273438 11 1.703125 C 11 1.6875 11 1.722656 11 1.703125 Z M 9.554688 0 "/>
</g>
</svg>
