<?xml version="1.0" encoding="UTF-8"?>
<svg xmlns="http://www.w3.org/2000/svg" xmlns:xlink="http://www.w3.org/1999/xlink" width="8.755515" height="11" viewBox="0 0 8.755515 11" version="1.1">
<g id="surface1">
<path style=" stroke:none;fill-rule:nonzero;fill:rgb(30%,30%,30%);fill-opacity:1;" d="M 8.746094 5.472656 C 8.761719 5.359375 8.730469 5.246094 8.722656 5.132812 C 8.671875 4.429688 8.152344 3.410156 7.503906 3.140625 C 6.394531 2.679688 5.363281 2.980469 5.371094 2.984375 C 5.046875 3.027344 4.710938 3.074219 4.378906 3.085938 C 4.042969 3.074219 3.703125 3.027344 3.378906 2.984375 C 2.8125 2.863281 1.820312 2.824219 1.253906 3.140625 C 0.636719 3.480469 0.0820312 4.429688 0.0351562 5.132812 C 0.0273438 5.246094 -0.00390625 5.359375 0.0078125 5.472656 C -0.0195312 5.726562 0.0234375 5.984375 0.0546875 6.242188 C 0.183594 7.417969 0.976562 8.253906 1.714844 9.101562 C 1.925781 9.34375 2.152344 9.566406 2.382812 9.78125 C 2.550781 9.964844 2.71875 10.144531 2.882812 10.328125 C 3.320312 10.8125 3.761719 11.046875 4.378906 10.992188 C 4.996094 11.046875 5.4375 10.8125 5.871094 10.328125 C 6.035156 10.144531 6.207031 9.964844 6.375 9.78125 C 6.605469 9.566406 6.832031 9.34375 7.039062 9.101562 C 7.777344 8.253906 8.574219 7.417969 8.703125 6.242188 C 8.730469 5.984375 8.773438 5.726562 8.746094 5.472656 Z M 4.640625 4.046875 C 5.28125 4.101562 5.246094 5.300781 4.699219 5.457031 C 4.113281 5.621094 3.804688 3.972656 4.640625 4.046875 Z M 1.007812 6.171875 C 0.453125 6.328125 0.164062 4.769531 0.953125 4.839844 C 1.558594 4.890625 1.523438 6.023438 1.007812 6.171875 Z M 2.011719 7.976562 C 1.488281 8.125 1.214844 6.660156 1.960938 6.722656 C 2.53125 6.773438 2.496094 7.839844 2.011719 7.976562 Z M 2.394531 5.042969 C 1.804688 5.210938 1.5 3.558594 2.335938 3.632812 C 2.976562 3.6875 2.941406 4.886719 2.394531 5.042969 Z M 3.160156 9.335938 C 2.671875 9.476562 2.414062 8.101562 3.113281 8.164062 C 3.648438 8.210938 3.617188 9.207031 3.160156 9.335938 Z M 3.410156 6.804688 C 2.855469 6.960938 2.566406 5.402344 3.355469 5.472656 C 3.960938 5.523438 3.925781 6.65625 3.410156 6.804688 Z M 4.554688 10.152344 C 4.109375 10.28125 3.875 9.03125 4.507812 9.085938 C 4.996094 9.128906 4.96875 10.035156 4.554688 10.152344 Z M 4.855469 7.792969 C 4.363281 7.929688 4.109375 6.554688 4.804688 6.617188 C 5.339844 6.664062 5.308594 7.660156 4.855469 7.792969 Z M 6.050781 9.152344 C 5.5625 9.292969 5.304688 7.917969 6.003906 7.976562 C 6.539062 8.023438 6.507812 9.023438 6.050781 9.152344 Z M 6.117188 6.332031 C 5.5625 6.492188 5.269531 4.929688 6.058594 5 C 6.667969 5.054688 6.632812 6.183594 6.117188 6.332031 Z M 7.375 7.238281 C 6.855469 7.386719 6.582031 5.917969 7.324219 5.984375 C 7.894531 6.035156 7.863281 7.097656 7.375 7.238281 Z M 7.359375 5.074219 C 6.804688 5.234375 6.515625 3.675781 7.304688 3.742188 C 7.910156 3.796875 7.875 4.929688 7.359375 5.074219 Z M 7.359375 5.074219 "/>
<path style=" stroke:none;fill-rule:nonzero;fill:rgb(30%,30%,30%);fill-opacity:1;" d="M 1.160156 2.28125 C 1.296875 2.261719 1.558594 2.285156 1.691406 2.339844 C 1.867188 2.414062 1.90625 2.523438 2.085938 2.609375 C 2.144531 2.636719 2.203125 2.660156 2.265625 2.679688 C 2.265625 2.683594 2.265625 2.6875 2.261719 2.695312 C 2.339844 2.691406 2.410156 2.6875 2.480469 2.6875 C 2.789062 2.6875 3.121094 2.71875 3.390625 2.777344 C 3.695312 2.820312 4.042969 2.863281 4.378906 2.878906 C 4.710938 2.867188 5.054688 2.820312 5.355469 2.777344 C 5.390625 2.765625 5.457031 2.75 5.585938 2.726562 C 5.785156 2.691406 5.984375 2.675781 6.1875 2.675781 C 6.269531 2.675781 6.347656 2.679688 6.429688 2.683594 C 6.542969 2.644531 6.691406 2.621094 6.761719 2.59375 C 7.074219 2.472656 7.390625 2.3125 7.644531 2.042969 C 7.757812 1.921875 8.136719 1.6875 8.28125 1.878906 C 8.261719 1.847656 8.238281 1.824219 8.210938 1.796875 C 8.214844 1.800781 8.21875 1.800781 8.222656 1.804688 C 7.984375 1.621094 7.085938 1.203125 5.789062 2.335938 C 5.746094 2.304688 5.855469 2.125 5.871094 2.085938 C 5.949219 1.875 6.078125 1.488281 6.074219 1.253906 C 6.066406 0.953125 5.96875 0.675781 5.945312 0.378906 C 5.9375 0.273438 5.910156 0.175781 5.933594 0.0820312 C 5.9375 0.0664062 5.945312 0.0546875 5.957031 0.0390625 C 5.949219 0.0507812 5.941406 0.0585938 5.9375 0.0664062 C 5.945312 0.0429688 5.953125 0.0195312 5.96875 0 C 5.695312 0.425781 5.25 0.519531 4.902344 0.804688 C 4.8125 0.878906 4.632812 1.125 4.558594 1.230469 C 4.515625 1.289062 4.476562 1.347656 4.441406 1.410156 C 4.375 1.53125 4.339844 1.683594 4.296875 1.824219 C 4.222656 1.671875 4.121094 1.53125 4 1.410156 C 3.75 1.144531 3.484375 1.042969 3.1875 0.886719 C 2.300781 0.417969 1.199219 0.585938 1.058594 0.703125 C 1.003906 0.734375 0.957031 0.78125 0.921875 0.835938 C 0.9375 0.8125 0.957031 0.800781 0.980469 0.792969 C 0.980469 0.796875 0.980469 0.796875 0.976562 0.800781 C 0.980469 0.796875 0.980469 0.796875 0.980469 0.792969 C 1.183594 0.75 1.757812 1.117188 1.855469 1.195312 C 2.097656 1.382812 2.296875 1.675781 2.503906 1.929688 C 2.421875 1.917969 1.363281 1.535156 0.773438 2.316406 C 0.753906 2.34375 1.128906 2.285156 1.160156 2.28125 Z M 1.160156 2.28125 "/>
</g>
</svg>
