<?xml version="1.0" encoding="UTF-8"?>
<svg xmlns="http://www.w3.org/2000/svg" xmlns:xlink="http://www.w3.org/1999/xlink" width="11" height="8.715048" viewBox="0 0 11 8.715048">
<path fill-rule="nonzero" fill="rgb(30%,30%,30%)" fill-opacity="1" d="M 3.890625 5.121094 L 4.367188 6.164062 C 4.6875 5.945312 5.054688 5.8125 5.441406 5.800781 L 5.441406 4.597656 C 4.878906 4.609375 4.351562 4.800781 3.890625 5.121094 Z M 3.890625 5.121094 "/>
<path fill-rule="nonzero" fill="rgb(30%,30%,30%)" fill-opacity="1" d="M 5.550781 4.597656 L 5.550781 5.800781 C 5.9375 5.8125 6.304688 5.9375 6.628906 6.160156 L 7.105469 5.117188 C 6.640625 4.796875 6.113281 4.609375 5.550781 4.597656 Z M 5.550781 4.597656 "/>
<path fill-rule="nonzero" fill="rgb(30%,30%,30%)" fill-opacity="1" d="M 8.820312 8.707031 C 8.800781 7.96875 8.648438 7.296875 8.394531 6.730469 L 7.570312 7.332031 C 7.742188 7.722656 7.847656 8.1875 7.863281 8.707031 Z M 8.820312 8.707031 "/>
<path fill-rule="nonzero" fill="rgb(30%,30%,30%)" fill-opacity="1" d="M 2.65625 6.625 L 3.484375 7.226562 C 3.679688 6.820312 3.953125 6.476562 4.277344 6.230469 L 3.800781 5.191406 C 3.332031 5.542969 2.9375 6.035156 2.65625 6.625 Z M 2.65625 6.625 "/>
<path fill-rule="nonzero" fill="rgb(30%,30%,30%)" fill-opacity="1" d="M 2.183594 8.707031 L 3.136719 8.707031 C 3.15625 8.191406 3.261719 7.726562 3.429688 7.339844 L 2.605469 6.738281 C 2.355469 7.304688 2.203125 7.972656 2.183594 8.707031 Z M 2.183594 8.707031 "/>
<path fill-rule="nonzero" fill="rgb(30%,30%,30%)" fill-opacity="1" d="M 7.195312 5.183594 L 6.71875 6.226562 C 7.042969 6.472656 7.316406 6.8125 7.515625 7.21875 L 8.34375 6.617188 C 8.058594 6.027344 7.664062 5.535156 7.195312 5.183594 Z M 7.195312 5.183594 "/>
<path fill-rule="nonzero" fill="rgb(30%,30%,30%)" fill-opacity="1" d="M 11 8.707031 C 10.652344 6.03125 10.511719 5.324219 7.582031 0.253906 C 7.582031 0.253906 7.46875 -0.0429688 7.019531 0.00390625 C 6.660156 0.0429688 6.167969 0.152344 5.609375 0.152344 C 5.074219 0.152344 4.589844 0.101562 4.238281 0.015625 C 4.210938 0.0078125 4.175781 0.00390625 4.136719 0.0078125 C 4.136719 0.0078125 4.132812 0.0078125 4.132812 0.0078125 C 3.6875 -0.0546875 3.5625 0.242188 3.5625 0.242188 C 0.601562 5.023438 0.226562 7.050781 0 8.671875 C -0.0078125 8.738281 0.0546875 8.707031 0.28125 8.707031 L 1.875 8.707031 C 2.019531 7.140625 2.828125 4.359375 5.484375 4.328125 C 8.144531 4.292969 9.046875 7.097656 9.195312 8.707031 Z M 11 8.707031 "/>
</svg>
