<?xml version="1.0" encoding="UTF-8"?>
<svg xmlns="http://www.w3.org/2000/svg" xmlns:xlink="http://www.w3.org/1999/xlink" width="10.884902" height="11" viewBox="0 0 10.884902 11" version="1.1">
<g id="surface1">
<path style=" stroke:none;fill-rule:nonzero;fill:rgb(30%,30%,30%);fill-opacity:1;" d="M 10.878906 5.140625 C 10.664062 8.789062 6.875 7.402344 6.113281 8.058594 C 5.695312 8.421875 5.695312 8.945312 6.113281 9.347656 C 6.6875 9.898438 6.460938 10.90625 5.660156 10.976562 C 2.546875 11.257812 0 8.789062 0 5.660156 C 0 2.535156 2.535156 0 5.660156 0 C 8.789062 0 11.035156 2.484375 10.878906 5.140625 Z M 8.730469 3.519531 C 8.144531 3.519531 7.667969 3.996094 7.667969 4.582031 C 7.667969 5.171875 8.144531 5.648438 8.730469 5.648438 C 9.320312 5.648438 9.796875 5.171875 9.796875 4.582031 C 9.796875 3.996094 9.320312 3.519531 8.730469 3.519531 Z M 6.984375 1.089844 C 6.394531 1.089844 5.917969 1.566406 5.917969 2.15625 C 5.917969 2.746094 6.394531 3.222656 6.984375 3.222656 C 7.574219 3.222656 8.050781 2.746094 8.050781 2.15625 C 8.050781 1.566406 7.574219 1.089844 6.984375 1.089844 Z M 3.972656 1.121094 C 3.382812 1.121094 2.90625 1.597656 2.90625 2.1875 C 2.90625 2.773438 3.382812 3.253906 3.972656 3.253906 C 4.558594 3.253906 5.035156 2.773438 5.035156 2.1875 C 5.035156 1.597656 4.558594 1.121094 3.972656 1.121094 Z M 2.15625 3.546875 C 1.566406 3.546875 1.089844 4.023438 1.089844 4.609375 C 1.089844 5.199219 1.566406 5.675781 2.15625 5.675781 C 2.742188 5.675781 3.21875 5.199219 3.21875 4.609375 C 3.21875 4.023438 2.742188 3.546875 2.15625 3.546875 Z M 2.15625 3.546875 "/>
</g>
</svg>
