<?xml version="1.0" encoding="UTF-8" standalone="no"?>
<!-- Created with Inkscape (http://www.inkscape.org/) -->

<svg
   xmlns:dc="http://purl.org/dc/elements/1.1/"
   xmlns:cc="http://creativecommons.org/ns#"
   xmlns:rdf="http://www.w3.org/1999/02/22-rdf-syntax-ns#"
   xmlns:svg="http://www.w3.org/2000/svg"
   xmlns="http://www.w3.org/2000/svg"
   xmlns:xlink="http://www.w3.org/1999/xlink"
   xmlns:sodipodi="http://sodipodi.sourceforge.net/DTD/sodipodi-0.dtd"
   xmlns:inkscape="http://www.inkscape.org/namespaces/inkscape"
   width="30px"
   height="30px"
   version="1.1"
   id="svg8"
   inkscape:version="0.92.4 5da689c313, 2019-01-14"
   sodipodi:docname="container.svg">
  <defs
     id="defs2" />
  <sodipodi:namedview
     id="base"
     pagecolor="#ffffff"
     bordercolor="#666666"
     borderopacity="1.0"
     inkscape:pageopacity="0.0"
     inkscape:pageshadow="2"
     inkscape:zoom="13.049334"
     inkscape:cx="18.679046"
     inkscape:cy="12.165829"
     inkscape:document-units="px"
     inkscape:current-layer="layer1"
     showgrid="false"
     inkscape:snap-page="false"
     units="px"
     inkscape:window-width="1884"
     inkscape:window-height="1061"
     inkscape:window-x="0"
     inkscape:window-y="0"
     inkscape:window-maximized="1"
     fit-margin-top="0"
     fit-margin-left="0"
     fit-margin-right="0"
     fit-margin-bottom="0" />
  <metadata
     id="metadata5">
    <rdf:RDF>
      <cc:Work
         rdf:about="">
        <dc:format>image/svg+xml</dc:format>
        <dc:type
           rdf:resource="http://purl.org/dc/dcmitype/StillImage" />
        <dc:title></dc:title>
      </cc:Work>
    </rdf:RDF>
  </metadata>
    <circle
       style="color:#000000;clip-rule:nonzero;display:inline;overflow:visible;visibility:visible;opacity:1;isolation:auto;mix-blend-mode:normal;color-interpolation:sRGB;color-interpolation-filters:linearRGB;solid-color:#000000;solid-opacity:1;vector-effect:none;fill:#ffffff;fill-opacity:1;fill-rule:evenodd;stroke:#76009e;stroke-width:1;stroke-linecap:butt;stroke-linejoin:miter;stroke-miterlimit:4;stroke-dasharray:none;stroke-dashoffset:0;stroke-opacity:1;marker:none;color-rendering:auto;image-rendering:auto;shape-rendering:auto;text-rendering:auto;enable-background:accumulate"
       id="path815"
       cx="15"
       cy="15"
       r="14.5" />
<g transform="translate(6,6)"><g id="surface1">
<path style=" stroke:none;fill-rule:nonzero;fill:rgb(30%,30%,30%);fill-opacity:1;" d="M 16.808594 7.945312 C 16.480469 13.585938 10.625 11.441406 9.445312 12.457031 C 8.800781 13.015625 8.800781 13.824219 9.445312 14.445312 C 10.335938 15.300781 9.984375 16.855469 8.75 16.964844 C 3.9375 17.398438 0 13.582031 0 8.75 C 0 3.917969 3.917969 0 8.75 0 C 13.582031 0 17.050781 3.839844 16.808594 7.945312 Z M 13.492188 5.4375 C 12.585938 5.4375 11.847656 6.171875 11.847656 7.082031 C 11.847656 7.992188 12.585938 8.726562 13.492188 8.726562 C 14.402344 8.726562 15.140625 7.992188 15.140625 7.082031 C 15.140625 6.171875 14.402344 5.4375 13.492188 5.4375 Z M 10.792969 1.6875 C 9.886719 1.6875 9.148438 2.421875 9.148438 3.332031 C 9.148438 4.242188 9.886719 4.976562 10.792969 4.976562 C 11.703125 4.976562 12.4375 4.242188 12.4375 3.332031 C 12.4375 2.421875 11.703125 1.6875 10.792969 1.6875 Z M 6.136719 1.734375 C 5.230469 1.734375 4.492188 2.472656 4.492188 3.378906 C 4.492188 4.289062 5.230469 5.027344 6.136719 5.027344 C 7.046875 5.027344 7.785156 4.289062 7.785156 3.378906 C 7.785156 2.472656 7.046875 1.734375 6.136719 1.734375 Z M 3.332031 5.480469 C 2.421875 5.480469 1.683594 6.21875 1.683594 7.125 C 1.683594 8.035156 2.421875 8.769531 3.332031 8.769531 C 4.238281 8.769531 4.976562 8.035156 4.976562 7.125 C 4.976562 6.21875 4.238281 5.480469 3.332031 5.480469 Z M 3.332031 5.480469 "/>
</g>
</g>
</svg>
