<?xml version="1.0" encoding="UTF-8" standalone="no"?>
<!-- Created with Inkscape (http://www.inkscape.org/) -->

<svg
   xmlns:dc="http://purl.org/dc/elements/1.1/"
   xmlns:cc="http://creativecommons.org/ns#"
   xmlns:rdf="http://www.w3.org/1999/02/22-rdf-syntax-ns#"
   xmlns:svg="http://www.w3.org/2000/svg"
   xmlns="http://www.w3.org/2000/svg"
   xmlns:xlink="http://www.w3.org/1999/xlink"
   xmlns:sodipodi="http://sodipodi.sourceforge.net/DTD/sodipodi-0.dtd"
   xmlns:inkscape="http://www.inkscape.org/namespaces/inkscape"
   width="30px"
   height="30px"
   version="1.1"
   id="svg8"
   inkscape:version="0.92.4 5da689c313, 2019-01-14"
   sodipodi:docname="container.svg">
  <defs
     id="defs2" />
  <sodipodi:namedview
     id="base"
     pagecolor="#ffffff"
     bordercolor="#666666"
     borderopacity="1.0"
     inkscape:pageopacity="0.0"
     inkscape:pageshadow="2"
     inkscape:zoom="13.049334"
     inkscape:cx="18.679046"
     inkscape:cy="12.165829"
     inkscape:document-units="px"
     inkscape:current-layer="layer1"
     showgrid="false"
     inkscape:snap-page="false"
     units="px"
     inkscape:window-width="1884"
     inkscape:window-height="1061"
     inkscape:window-x="0"
     inkscape:window-y="0"
     inkscape:window-maximized="1"
     fit-margin-top="0"
     fit-margin-left="0"
     fit-margin-right="0"
     fit-margin-bottom="0" />
  <metadata
     id="metadata5">
    <rdf:RDF>
      <cc:Work
         rdf:about="">
        <dc:format>image/svg+xml</dc:format>
        <dc:type
           rdf:resource="http://purl.org/dc/dcmitype/StillImage" />
        <dc:title></dc:title>
      </cc:Work>
    </rdf:RDF>
  </metadata>
    <circle
       style="color:#000000;clip-rule:nonzero;display:inline;overflow:visible;visibility:visible;opacity:1;isolation:auto;mix-blend-mode:normal;color-interpolation:sRGB;color-interpolation-filters:linearRGB;solid-color:#000000;solid-opacity:1;vector-effect:none;fill:#ffffff;fill-opacity:1;fill-rule:evenodd;stroke:#76009e;stroke-width:1;stroke-linecap:butt;stroke-linejoin:miter;stroke-miterlimit:4;stroke-dasharray:none;stroke-dashoffset:0;stroke-opacity:1;marker:none;color-rendering:auto;image-rendering:auto;shape-rendering:auto;text-rendering:auto;enable-background:accumulate"
       id="path815"
       cx="15"
       cy="15"
       r="14.5" />
<g transform="translate(6.5,8.5)"><path fill-rule="nonzero" fill="rgb(30%,30%,30%)" fill-opacity="1" d="M 6.015625 7.917969 L 6.75 9.527344 C 7.246094 9.183594 7.8125 8.984375 8.410156 8.964844 L 8.410156 7.105469 C 7.542969 7.125 6.726562 7.417969 6.015625 7.917969 Z M 6.015625 7.917969 "/>
<path fill-rule="nonzero" fill="rgb(30%,30%,30%)" fill-opacity="1" d="M 8.574219 7.105469 L 8.574219 8.964844 C 9.179688 8.980469 9.746094 9.179688 10.242188 9.519531 L 10.980469 7.910156 C 10.265625 7.410156 9.445312 7.121094 8.574219 7.105469 Z M 8.574219 7.105469 "/>
<path fill-rule="nonzero" fill="rgb(30%,30%,30%)" fill-opacity="1" d="M 13.628906 13.457031 C 13.601562 12.3125 13.367188 11.277344 12.976562 10.40625 L 11.699219 11.332031 C 11.964844 11.933594 12.125 12.652344 12.15625 13.457031 Z M 13.628906 13.457031 "/>
<path fill-rule="nonzero" fill="rgb(30%,30%,30%)" fill-opacity="1" d="M 4.105469 10.238281 L 5.382812 11.164062 C 5.6875 10.539062 6.109375 10.011719 6.609375 9.628906 L 5.871094 8.019531 C 5.148438 8.566406 4.542969 9.328125 4.105469 10.238281 Z M 4.105469 10.238281 "/>
<path fill-rule="nonzero" fill="rgb(30%,30%,30%)" fill-opacity="1" d="M 3.375 13.457031 L 4.851562 13.457031 C 4.878906 12.65625 5.039062 11.941406 5.300781 11.34375 L 4.023438 10.417969 C 3.636719 11.289062 3.40625 12.320312 3.375 13.457031 Z M 3.375 13.457031 "/>
<path fill-rule="nonzero" fill="rgb(30%,30%,30%)" fill-opacity="1" d="M 11.121094 8.011719 L 10.386719 9.621094 C 10.886719 10 11.308594 10.527344 11.617188 11.152344 L 12.890625 10.226562 C 12.457031 9.316406 11.847656 8.554688 11.121094 8.011719 Z M 11.121094 8.011719 "/>
<path fill-rule="nonzero" fill="rgb(30%,30%,30%)" fill-opacity="1" d="M 17 13.457031 C 16.460938 9.320312 16.242188 8.230469 11.714844 0.394531 C 11.714844 0.394531 11.542969 -0.0664062 10.847656 0.0078125 C 10.292969 0.0664062 9.53125 0.234375 8.671875 0.234375 C 7.839844 0.234375 7.089844 0.15625 6.550781 0.0234375 C 6.507812 0.0117188 6.453125 0.0078125 6.394531 0.015625 C 6.390625 0.015625 6.390625 0.0117188 6.386719 0.0117188 C 5.695312 -0.0820312 5.507812 0.371094 5.507812 0.371094 C 0.925781 7.765625 0.351562 10.894531 0 13.402344 C -0.0117188 13.507812 0.0859375 13.457031 0.4375 13.457031 L 2.894531 13.457031 C 3.125 11.039062 4.367188 6.738281 8.476562 6.6875 C 12.589844 6.632812 13.980469 10.972656 14.207031 13.457031 Z M 17 13.457031 "/>
</g>
</svg>
