<?xml version="1.0" encoding="UTF-8"?>
<svg xmlns="http://www.w3.org/2000/svg" xmlns:xlink="http://www.w3.org/1999/xlink" width="11" height="10.931722" viewBox="0 0 11 10.931722" version="1.1">
<g id="surface1">
<path style=" stroke:none;fill-rule:nonzero;fill:rgb(30%,30%,30%);fill-opacity:1;" d="M 1.867188 9.425781 C 2.210938 9.769531 2.210938 10.328125 1.867188 10.671875 C 1.519531 11.019531 0.960938 11.019531 0.617188 10.671875 C 0.273438 10.328125 0.273438 9.769531 0.617188 9.425781 C 0.960938 9.082031 1.519531 9.082031 1.867188 9.425781 Z M 1.867188 9.425781 "/>
<path style=" stroke:none;fill-rule:nonzero;fill:rgb(30%,30%,30%);fill-opacity:1;" d="M 11 0 L 0 0.0234375 C 0.148438 0.0234375 0.0898438 0.851562 0.0898438 0.851562 L 6.476562 0.871094 C 6.4375 0.957031 6.367188 1.019531 6.257812 1.070312 C 6.070312 1.15625 5.796875 1.199219 5.507812 1.238281 C 4.960938 1.320312 4.339844 1.410156 3.9375 1.863281 C 3.570312 2.273438 3.453125 2.804688 3.601562 3.398438 C 3.710938 3.84375 3.960938 4.296875 4.316406 4.6875 C 4.113281 5.230469 3.863281 5.863281 3.6875 6.21875 C 3.339844 6.933594 3.144531 7.367188 2.976562 7.542969 C 2.78125 7.742188 2.410156 8.0625 2.226562 8.21875 L 2.195312 6.226562 C 2.199219 6.0625 2.101562 5.964844 1.9375 5.960938 C 1.777344 5.957031 1.652344 6.058594 1.636719 6.246094 C 1.519531 7.730469 1.628906 8.757812 1.628906 8.757812 C 1.570312 8.960938 2.554688 9.921875 2.730469 9.890625 L 5.3125 9.238281 C 5.449219 9.207031 5.535156 9.066406 5.503906 8.929688 C 5.472656 8.792969 5.335938 8.707031 5.195312 8.738281 L 3.484375 9.121094 L 3.550781 9.066406 C 3.550781 9.066406 3.691406 8.996094 4.222656 8.226562 C 4.636719 7.628906 5.953125 5.558594 6.375 4.570312 C 6.695312 3.828125 5.972656 3.851562 5.871094 4.078125 L 4.574219 6.410156 L 4.453125 6.359375 L 4.898438 5.183594 C 4.902344 5.175781 4.90625 5.164062 4.910156 5.15625 L 5.367188 3.957031 C 5.441406 3.765625 5.34375 3.550781 5.15625 3.480469 C 4.964844 3.40625 4.75 3.503906 4.675781 3.691406 C 4.675781 3.691406 4.609375 3.882812 4.507812 4.164062 C 4.296875 3.882812 4.140625 3.574219 4.070312 3.285156 C 3.960938 2.847656 4.039062 2.476562 4.300781 2.183594 C 4.582031 1.863281 5.089844 1.789062 5.578125 1.71875 C 5.902344 1.667969 6.207031 1.625 6.457031 1.507812 C 6.75 1.375 6.921875 1.160156 6.976562 0.871094 L 10.964844 0.886719 Z M 11 0 "/>
</g>
</svg>
