<?xml version="1.0" encoding="UTF-8" standalone="no"?>
<!-- Created with Inkscape (http://www.inkscape.org/) -->

<svg
   xmlns:dc="http://purl.org/dc/elements/1.1/"
   xmlns:cc="http://creativecommons.org/ns#"
   xmlns:rdf="http://www.w3.org/1999/02/22-rdf-syntax-ns#"
   xmlns:svg="http://www.w3.org/2000/svg"
   xmlns="http://www.w3.org/2000/svg"
   xmlns:xlink="http://www.w3.org/1999/xlink"
   xmlns:sodipodi="http://sodipodi.sourceforge.net/DTD/sodipodi-0.dtd"
   xmlns:inkscape="http://www.inkscape.org/namespaces/inkscape"
   width="30px"
   height="30px"
   version="1.1"
   id="svg8"
   inkscape:version="0.92.4 5da689c313, 2019-01-14"
   sodipodi:docname="container.svg">
  <defs
     id="defs2" />
  <sodipodi:namedview
     id="base"
     pagecolor="#ffffff"
     bordercolor="#666666"
     borderopacity="1.0"
     inkscape:pageopacity="0.0"
     inkscape:pageshadow="2"
     inkscape:zoom="13.049334"
     inkscape:cx="18.679046"
     inkscape:cy="12.165829"
     inkscape:document-units="px"
     inkscape:current-layer="layer1"
     showgrid="false"
     inkscape:snap-page="false"
     units="px"
     inkscape:window-width="1884"
     inkscape:window-height="1061"
     inkscape:window-x="0"
     inkscape:window-y="0"
     inkscape:window-maximized="1"
     fit-margin-top="0"
     fit-margin-left="0"
     fit-margin-right="0"
     fit-margin-bottom="0" />
  <metadata
     id="metadata5">
    <rdf:RDF>
      <cc:Work
         rdf:about="">
        <dc:format>image/svg+xml</dc:format>
        <dc:type
           rdf:resource="http://purl.org/dc/dcmitype/StillImage" />
        <dc:title></dc:title>
      </cc:Work>
    </rdf:RDF>
  </metadata>
    <circle
       style="color:#000000;clip-rule:nonzero;display:inline;overflow:visible;visibility:visible;opacity:1;isolation:auto;mix-blend-mode:normal;color-interpolation:sRGB;color-interpolation-filters:linearRGB;solid-color:#000000;solid-opacity:1;vector-effect:none;fill:#ffffff;fill-opacity:1;fill-rule:evenodd;stroke:rgba(255, 255, 255, 1);stroke-width:1;stroke-linecap:butt;stroke-linejoin:miter;stroke-miterlimit:4;stroke-dasharray:none;stroke-dashoffset:0;stroke-opacity:1;marker:none;color-rendering:auto;image-rendering:auto;shape-rendering:auto;text-rendering:auto;enable-background:accumulate"
       id="path815"
       cx="15"
       cy="15"
       r="14.5" />
<g transform="translate(6,7)"><g id="surface1">
<path style=" stroke:none;fill-rule:nonzero;fill:rgb(30%,30%,30%);fill-opacity:1;" d="M 2.46875 3.027344 L 7.542969 4.578125 L 10.550781 1.921875 L 11.96875 6.484375 L 16.789062 9.191406 L 12.589844 10.460938 L 12.5625 14.792969 L 8.550781 11.015625 L 3.714844 10.984375 L 5.433594 7.378906 Z M 2.46875 3.027344 "/>
<path style=" stroke:none;fill-rule:nonzero;fill:rgb(30%,30%,30%);fill-opacity:1;" d="M 17 10.273438 C 16.988281 10.777344 16.910156 11.277344 16.765625 11.761719 C 16.691406 12 16.597656 12.238281 16.488281 12.464844 C 16.375 12.691406 16.246094 12.90625 16.101562 13.113281 C 15.804688 13.527344 15.445312 13.890625 15.035156 14.191406 C 14.828125 14.34375 14.613281 14.480469 14.390625 14.601562 C 14.164062 14.722656 13.929688 14.828125 13.691406 14.917969 C 13.453125 15.007812 13.207031 15.085938 12.960938 15.148438 C 12.710938 15.210938 12.460938 15.261719 12.203125 15.296875 C 11.949219 15.332031 11.695312 15.355469 11.4375 15.371094 C 11.179688 15.382812 10.921875 15.382812 10.664062 15.371094 C 10.40625 15.359375 10.148438 15.339844 9.890625 15.308594 C 9.636719 15.28125 9.378906 15.238281 9.125 15.1875 C 8.617188 15.089844 8.117188 14.953125 7.625 14.785156 C 7.378906 14.703125 7.136719 14.609375 6.894531 14.511719 C 6.65625 14.410156 6.417969 14.304688 6.183594 14.1875 C 5.714844 13.957031 5.261719 13.699219 4.824219 13.410156 C 4.382812 13.121094 3.964844 12.804688 3.566406 12.460938 C 3.515625 12.417969 3.464844 12.375 3.417969 12.332031 C 3.367188 12.289062 3.316406 12.246094 3.269531 12.199219 C 3.222656 12.15625 3.171875 12.109375 3.125 12.066406 L 2.984375 11.925781 C 2.792969 11.742188 2.609375 11.550781 2.433594 11.351562 C 2.390625 11.304688 2.347656 11.253906 2.304688 11.203125 L 2.238281 11.128906 L 2.175781 11.050781 C 2.132812 11 2.089844 10.949219 2.050781 10.894531 C 2.007812 10.84375 1.964844 10.792969 1.925781 10.738281 C 1.84375 10.632812 1.765625 10.527344 1.6875 10.417969 C 1.648438 10.363281 1.609375 10.308594 1.570312 10.253906 L 1.351562 9.917969 L 1.246094 9.746094 C 1.210938 9.6875 1.175781 9.628906 1.144531 9.570312 C 1.109375 9.511719 1.078125 9.453125 1.042969 9.394531 C 0.914062 9.160156 0.792969 8.917969 0.683594 8.667969 C 0.460938 8.167969 0.289062 7.644531 0.167969 7.109375 C 0.046875 6.5625 -0.0078125 6.003906 0 5.445312 C 0.0117188 4.871094 0.105469 4.304688 0.28125 3.757812 C 0.367188 3.484375 0.480469 3.214844 0.613281 2.957031 C 0.648438 2.890625 0.683594 2.828125 0.71875 2.765625 C 0.734375 2.734375 0.753906 2.703125 0.773438 2.671875 C 0.792969 2.640625 0.8125 2.609375 0.832031 2.578125 L 0.890625 2.488281 L 0.921875 2.441406 L 0.953125 2.398438 L 1.015625 2.308594 C 1.035156 2.277344 1.058594 2.25 1.078125 2.222656 C 1.167969 2.105469 1.261719 1.992188 1.355469 1.886719 C 1.453125 1.777344 1.554688 1.671875 1.660156 1.574219 C 1.871094 1.378906 2.097656 1.199219 2.335938 1.039062 C 2.570312 0.882812 2.816406 0.742188 3.074219 0.621094 C 3.328125 0.5 3.589844 0.398438 3.855469 0.316406 C 4.382812 0.152344 4.925781 0.0507812 5.472656 0.0195312 C 5.742188 0 6.015625 -0.00390625 6.285156 0.00390625 C 6.550781 0.015625 6.820312 0.0351562 7.082031 0.0703125 C 7.609375 0.136719 8.125 0.246094 8.632812 0.398438 C 9.132812 0.546875 9.625 0.730469 10.097656 0.945312 C 10.335938 1.050781 10.566406 1.164062 10.796875 1.289062 C 11.023438 1.410156 11.25 1.539062 11.46875 1.671875 C 11.6875 1.808594 11.902344 1.949219 12.113281 2.097656 C 12.324219 2.246094 12.53125 2.398438 12.730469 2.558594 C 12.933594 2.714844 13.128906 2.882812 13.320312 3.050781 C 13.507812 3.222656 13.695312 3.398438 13.875 3.578125 C 14.054688 3.757812 14.230469 3.941406 14.398438 4.132812 C 14.566406 4.324219 14.730469 4.519531 14.886719 4.71875 C 15.042969 4.917969 15.191406 5.125 15.335938 5.332031 C 15.480469 5.542969 15.617188 5.753906 15.746094 5.972656 L 15.933594 6.300781 C 15.960938 6.355469 15.992188 6.414062 16.023438 6.46875 C 16.050781 6.523438 16.078125 6.582031 16.109375 6.636719 C 16.164062 6.75 16.21875 6.867188 16.269531 6.980469 C 16.320312 7.09375 16.371094 7.210938 16.417969 7.328125 C 16.511719 7.5625 16.597656 7.800781 16.671875 8.042969 C 16.746094 8.28125 16.808594 8.527344 16.859375 8.773438 C 16.960938 9.265625 17.007812 9.769531 17 10.273438 Z M 17 10.273438 C 17.007812 9.769531 16.957031 9.265625 16.847656 8.777344 C 16.792969 8.53125 16.722656 8.289062 16.644531 8.050781 C 16.566406 7.8125 16.472656 7.578125 16.371094 7.347656 C 16.324219 7.234375 16.269531 7.121094 16.214844 7.007812 C 16.15625 6.894531 16.097656 6.785156 16.039062 6.671875 C 15.917969 6.453125 15.789062 6.238281 15.652344 6.03125 C 15.511719 5.820312 15.367188 5.617188 15.214844 5.421875 C 15.0625 5.222656 14.902344 5.03125 14.734375 4.84375 C 14.402344 4.472656 14.046875 4.125 13.667969 3.800781 C 13.289062 3.480469 12.890625 3.179688 12.476562 2.910156 C 12.0625 2.640625 11.632812 2.394531 11.191406 2.179688 C 10.96875 2.070312 10.746094 1.96875 10.519531 1.875 C 10.292969 1.785156 10.0625 1.699219 9.832031 1.621094 C 9.601562 1.542969 9.367188 1.472656 9.132812 1.410156 C 8.898438 1.347656 8.660156 1.292969 8.425781 1.25 C 8.1875 1.203125 7.949219 1.164062 7.710938 1.136719 C 7.472656 1.109375 7.234375 1.09375 7 1.085938 C 6.761719 1.074219 6.523438 1.078125 6.289062 1.089844 C 6.054688 1.101562 5.824219 1.125 5.59375 1.15625 C 5.363281 1.191406 5.140625 1.234375 4.914062 1.292969 C 4.695312 1.347656 4.480469 1.417969 4.265625 1.5 C 4.058594 1.582031 3.855469 1.675781 3.660156 1.78125 C 3.464844 1.886719 3.28125 2.003906 3.105469 2.136719 C 2.929688 2.265625 2.769531 2.40625 2.617188 2.558594 C 2.578125 2.597656 2.542969 2.636719 2.507812 2.675781 C 2.488281 2.695312 2.472656 2.714844 2.453125 2.738281 L 2.402344 2.796875 C 2.332031 2.878906 2.265625 2.960938 2.207031 3.050781 C 2.082031 3.222656 1.976562 3.40625 1.882812 3.597656 L 1.847656 3.667969 C 1.835938 3.695312 1.824219 3.71875 1.816406 3.742188 C 1.792969 3.789062 1.773438 3.839844 1.753906 3.890625 C 1.75 3.902344 1.742188 3.914062 1.738281 3.925781 L 1.726562 3.964844 L 1.699219 4.039062 C 1.679688 4.089844 1.664062 4.140625 1.648438 4.191406 C 1.523438 4.609375 1.457031 5.042969 1.445312 5.476562 C 1.4375 5.925781 1.480469 6.371094 1.570312 6.8125 C 1.664062 7.261719 1.796875 7.699219 1.96875 8.125 C 2.054688 8.339844 2.152344 8.550781 2.253906 8.761719 C 2.28125 8.8125 2.308594 8.867188 2.332031 8.917969 C 2.363281 8.96875 2.386719 9.023438 2.417969 9.074219 L 2.5 9.226562 L 2.679688 9.53125 L 2.773438 9.679688 C 2.839844 9.78125 2.902344 9.878906 2.96875 9.976562 C 3.003906 10.027344 3.039062 10.074219 3.070312 10.125 C 3.105469 10.171875 3.140625 10.21875 3.175781 10.269531 L 3.226562 10.339844 L 3.28125 10.410156 C 3.316406 10.457031 3.351562 10.507812 3.390625 10.550781 C 3.464844 10.648438 3.539062 10.738281 3.613281 10.832031 L 3.847656 11.105469 L 3.96875 11.238281 C 4.007812 11.28125 4.046875 11.324219 4.089844 11.367188 C 4.128906 11.414062 4.171875 11.457031 4.214844 11.5 C 4.253906 11.542969 4.296875 11.585938 4.339844 11.628906 C 4.507812 11.796875 4.683594 11.964844 4.863281 12.125 C 5.042969 12.285156 5.226562 12.441406 5.414062 12.59375 C 5.605469 12.742188 5.796875 12.886719 5.996094 13.027344 C 6.191406 13.167969 6.394531 13.300781 6.601562 13.429688 C 6.808594 13.554688 7.019531 13.679688 7.234375 13.792969 C 7.449219 13.90625 7.667969 14.015625 7.890625 14.117188 C 8.335938 14.320312 8.792969 14.492188 9.261719 14.632812 C 9.734375 14.777344 10.214844 14.878906 10.699219 14.945312 C 10.945312 14.976562 11.1875 14.996094 11.433594 15.003906 C 11.679688 15.015625 11.925781 15.011719 12.171875 14.996094 C 12.667969 14.96875 13.15625 14.878906 13.628906 14.734375 C 13.867188 14.660156 14.097656 14.570312 14.324219 14.46875 C 14.546875 14.363281 14.765625 14.238281 14.972656 14.101562 C 15.179688 13.964844 15.375 13.808594 15.558594 13.640625 C 15.648438 13.554688 15.734375 13.464844 15.820312 13.375 C 15.902344 13.28125 15.984375 13.183594 16.058594 13.085938 C 16.078125 13.058594 16.097656 13.035156 16.117188 13.007812 L 16.171875 12.933594 L 16.199219 12.894531 L 16.222656 12.855469 L 16.273438 12.777344 C 16.292969 12.75 16.308594 12.722656 16.324219 12.695312 C 16.339844 12.667969 16.355469 12.644531 16.371094 12.617188 C 16.402344 12.5625 16.433594 12.507812 16.460938 12.449219 C 16.578125 12.226562 16.675781 11.996094 16.753906 11.757812 C 16.90625 11.277344 16.988281 10.777344 17 10.273438 Z M 17 10.273438 "/>
</g>
</g>
</svg>
