<?xml version="1.0" encoding="UTF-8"?>
<svg xmlns="http://www.w3.org/2000/svg" xmlns:xlink="http://www.w3.org/1999/xlink" width="11" height="9.775872" viewBox="0 0 11 9.775872" version="1.1">
<g id="surface1">
<path style=" stroke:none;fill-rule:nonzero;fill:rgb(30%,30%,30%);fill-opacity:1;" d="M 7.730469 5.207031 C 7.308594 5.097656 6.863281 5.027344 6.402344 5.03125 C 4.875 5.042969 3.515625 5.792969 2.613281 6.453125 C 2.421875 6.589844 2.179688 6.59375 1.988281 6.457031 C 1.472656 6.089844 0.804688 5.695312 0.0429688 5.425781 C 0.015625 5.414062 -0.0117188 5.453125 0.00390625 5.484375 C 0.195312 5.855469 0.359375 6.242188 0.488281 6.574219 C 0.703125 7.132812 0.707031 7.753906 0.5 8.316406 C 0.378906 8.648438 0.21875 9.039062 0.03125 9.414062 C 0.015625 9.445312 0.0429688 9.480469 0.0703125 9.472656 C 0.832031 9.1875 1.496094 8.78125 2.011719 8.40625 C 2.195312 8.273438 2.429688 8.269531 2.617188 8.402344 C 3.53125 9.050781 4.902344 9.785156 6.4375 9.777344 C 6.898438 9.773438 7.339844 9.699219 7.761719 9.582031 C 7.332031 8.15625 7.320312 6.636719 7.730469 5.207031 Z M 7.730469 5.207031 "/>
<path style=" stroke:none;fill-rule:nonzero;fill:rgb(30%,30%,30%);fill-opacity:1;" d="M 10.742188 6.804688 C 10.148438 6.320312 9.175781 5.644531 8.015625 5.285156 C 7.609375 6.664062 7.621094 8.128906 8.042969 9.5 C 9.199219 9.125 10.164062 8.4375 10.75 7.945312 C 11.085938 7.660156 11.082031 7.082031 10.742188 6.804688 Z M 9.527344 7.652344 C 9.304688 7.652344 9.125 7.476562 9.125 7.253906 C 9.125 7.03125 9.304688 6.851562 9.527344 6.851562 C 9.746094 6.851562 9.925781 7.03125 9.925781 7.253906 C 9.925781 7.476562 9.746094 7.652344 9.527344 7.652344 Z M 9.527344 7.652344 "/>
<path style=" stroke:none;fill-rule:nonzero;fill:rgb(30%,30%,30%);fill-opacity:1;" d="M 0.269531 2.941406 C 0.859375 3.429688 1.824219 4.113281 2.984375 4.480469 C 3.191406 3.796875 3.292969 3.085938 3.292969 2.371094 C 3.292969 1.65625 3.191406 0.949219 2.984375 0.265625 C 1.824219 0.632812 0.859375 1.3125 0.269531 1.800781 C -0.0703125 2.082031 -0.0703125 2.660156 0.269531 2.941406 Z M 1.832031 1.574219 C 2.050781 1.574219 2.230469 1.753906 2.230469 1.972656 C 2.230469 2.195312 2.050781 2.375 1.832031 2.375 C 1.609375 2.375 1.429688 2.195312 1.429688 1.972656 C 1.429688 1.753906 1.609375 1.574219 1.832031 1.574219 Z M 1.832031 1.574219 "/>
<path style=" stroke:none;fill-rule:nonzero;fill:rgb(30%,30%,30%);fill-opacity:1;" d="M 10.519531 3.246094 C 10.308594 2.683594 10.308594 2.0625 10.519531 1.5 C 10.644531 1.167969 10.804688 0.78125 10.996094 0.40625 C 11.011719 0.375 10.984375 0.339844 10.957031 0.347656 C 10.199219 0.625 9.535156 1.023438 9.015625 1.394531 C 8.828125 1.53125 8.585938 1.53125 8.394531 1.394531 C 7.488281 0.742188 6.121094 0 4.59375 0 C 4.132812 0 3.6875 0.0703125 3.265625 0.183594 C 3.476562 0.894531 3.582031 1.632812 3.582031 2.371094 C 3.582031 3.113281 3.476562 3.851562 3.265625 4.558594 C 3.6875 4.671875 4.132812 4.742188 4.59375 4.742188 C 6.125 4.742188 7.496094 3.996094 8.402344 3.34375 C 8.589844 3.210938 8.824219 3.210938 9.007812 3.34375 C 9.527344 3.714844 10.191406 4.117188 10.957031 4.394531 C 10.984375 4.40625 11.011719 4.367188 10.996094 4.335938 C 10.804688 3.964844 10.644531 3.574219 10.519531 3.246094 Z M 10.519531 3.246094 "/>
</g>
</svg>
