<?xml version="1.0" encoding="UTF-8"?>
<svg xmlns="http://www.w3.org/2000/svg" xmlns:xlink="http://www.w3.org/1999/xlink" width="9.131327" height="11" viewBox="0 0 9.131327 11" version="1.1">
<g id="surface1">
<path style=" stroke:none;fill-rule:nonzero;fill:rgb(30%,30%,30%);fill-opacity:1;" d="M 5.527344 5.726562 C 5.527344 6.558594 4.855469 7.230469 4.023438 7.230469 C 3.191406 7.230469 2.519531 6.558594 2.519531 5.726562 C 2.519531 4.898438 3.191406 4.222656 4.023438 4.222656 C 4.855469 4.222656 5.527344 4.898438 5.527344 5.726562 Z M 5.527344 5.726562 "/>
<path style=" stroke:none;fill-rule:nonzero;fill:rgb(30%,30%,30%);fill-opacity:1;" d="M 9.128906 2.542969 L 8.824219 0.339844 C 8.808594 0.238281 8.753906 0.144531 8.671875 0.078125 C 8.585938 0.015625 8.480469 -0.0117188 8.378906 0.00390625 L 3.808594 0.644531 C 3.589844 0.675781 3.441406 0.875 3.472656 1.089844 L 3.773438 3.289062 C 3.789062 3.394531 3.84375 3.488281 3.929688 3.550781 C 4.011719 3.613281 4.117188 3.640625 4.222656 3.628906 L 6.507812 3.308594 L 6.808594 5.425781 L 5.957031 7.304688 C 5.917969 7.390625 5.832031 7.449219 5.738281 7.453125 L 5.183594 7.472656 C 5.136719 7.472656 5.089844 7.484375 5.046875 7.507812 C 4.832031 7.867188 4.445312 8.085938 4.027344 8.078125 C 3.609375 8.074219 3.226562 7.851562 3.019531 7.488281 C 2.070312 7.492188 1.847656 7.707031 1.828125 7.71875 C 1.347656 8.066406 0 11 0 11 L 1.316406 11 L 1.605469 10.507812 C 1.605469 10.507812 1.609375 10.507812 1.609375 10.507812 C 1.609375 10.507812 1.609375 10.507812 1.609375 10.511719 L 1.671875 11 L 5.996094 11 L 6.058594 8.933594 L 6.921875 8.679688 C 7.039062 8.644531 7.125 8.546875 7.148438 8.429688 L 7.199219 8.171875 L 7.347656 9.226562 C 7.363281 9.324219 7.445312 9.398438 7.542969 9.398438 C 7.554688 9.398438 7.5625 9.398438 7.574219 9.394531 C 7.679688 9.378906 7.753906 9.28125 7.742188 9.171875 L 7.429688 6.984375 L 7.671875 5.738281 C 7.695312 5.628906 7.632812 5.523438 7.527344 5.484375 L 7.199219 5.371094 L 6.898438 3.253906 L 8.789062 2.988281 C 9.007812 2.957031 9.15625 2.757812 9.128906 2.542969 Z M 9.128906 2.542969 "/>
</g>
</svg>
