<?xml version="1.0" encoding="UTF-8"?>
<svg xmlns="http://www.w3.org/2000/svg" xmlns:xlink="http://www.w3.org/1999/xlink" width="11" height="10.958696" viewBox="0 0 11 10.958696" version="1.1">
<g id="surface1">
<path style=" stroke:none;fill-rule:nonzero;fill:rgb(30%,30%,30%);fill-opacity:1;" d="M 10.566406 3.359375 C 9.707031 1.320312 7.710938 0 5.5 0 C 4.742188 0 4.023438 0.140625 3.359375 0.421875 C 2.714844 0.695312 2.128906 1.09375 1.609375 1.609375 C 0.578125 2.640625 0 4.039062 0 5.5 C 0 6.816406 0.496094 8.101562 1.398438 9.109375 C 2.28125 10.097656 3.476562 10.753906 4.765625 10.953125 C 4.921875 10.976562 5.085938 10.929688 5.207031 10.828125 C 5.328125 10.722656 5.402344 10.570312 5.402344 10.410156 L 5.429688 7.949219 C 5.433594 7.792969 5.371094 7.644531 5.257812 7.539062 L 3.082031 5.484375 L 5.515625 3.050781 L 7.84375 5.5 L 5.84375 7.523438 C 5.738281 7.632812 5.679688 7.777344 5.683594 7.925781 L 5.742188 10.394531 C 5.742188 10.554688 5.816406 10.707031 5.941406 10.808594 C 6.0625 10.910156 6.222656 10.953125 6.382812 10.929688 C 8.046875 10.65625 9.496094 9.636719 10.3125 8.160156 C 11.128906 6.683594 11.222656 4.914062 10.566406 3.359375 Z M 9.007812 5.898438 C 9.082031 5.824219 9.242188 5.644531 9.25 5.636719 L 9.367188 5.507812 L 9.25 5.378906 C 9.242188 5.371094 9.082031 5.195312 9.015625 5.125 L 5.925781 1.886719 C 5.855469 1.808594 5.648438 1.632812 5.625 1.613281 L 5.480469 1.488281 L 5.355469 1.632812 C 5.292969 1.703125 5.1875 1.820312 5.144531 1.855469 L 1.886719 5.113281 C 1.835938 5.175781 1.703125 5.304688 1.65625 5.351562 L 1.53125 5.476562 L 1.644531 5.609375 C 1.660156 5.632812 1.832031 5.835938 1.910156 5.910156 L 4.320312 8.179688 L 4.304688 9.714844 C 3.945312 9.601562 3.601562 9.449219 3.285156 9.253906 C 2.890625 9.015625 2.53125 8.71875 2.226562 8.375 C 1.503906 7.566406 1.105469 6.546875 1.105469 5.5 C 1.105469 4.335938 1.566406 3.214844 2.394531 2.394531 C 3.246094 1.539062 4.292969 1.105469 5.5 1.105469 C 7.664062 1.109375 9.507812 2.6875 9.839844 4.828125 C 10.171875 6.96875 8.894531 9.03125 6.832031 9.6875 L 6.792969 8.136719 Z M 9.007812 5.898438 "/>
</g>
</svg>
