<?xml version="1.0" encoding="UTF-8"?>
<svg xmlns="http://www.w3.org/2000/svg" xmlns:xlink="http://www.w3.org/1999/xlink" width="11" height="10.950938" viewBox="0 0 11 10.950938" version="1.1">
<g id="surface1">
<path style=" stroke:none;fill-rule:nonzero;fill:rgb(30%,30%,30%);fill-opacity:1;" d="M 7.089844 10.898438 C 6.09375 10.898438 5.277344 10.09375 5.265625 9.097656 C 5.257812 8.09375 6.066406 7.273438 7.074219 7.261719 C 7.078125 7.261719 7.085938 7.261719 7.09375 7.261719 C 8.089844 7.261719 8.902344 8.066406 8.917969 9.0625 C 8.925781 10.066406 8.117188 10.886719 7.109375 10.898438 C 7.101562 10.898438 7.097656 10.898438 7.089844 10.898438 Z M 7.09375 7.582031 C 7.085938 7.582031 7.082031 7.582031 7.078125 7.582031 C 6.246094 7.589844 5.582031 8.265625 5.585938 9.097656 C 5.59375 9.917969 6.269531 10.578125 7.089844 10.578125 C 7.097656 10.578125 7.101562 10.578125 7.105469 10.578125 C 7.9375 10.570312 8.605469 9.890625 8.597656 9.066406 C 8.585938 8.242188 7.914062 7.582031 7.09375 7.582031 Z M 7.09375 7.582031 "/>
<path style=" stroke:none;fill-rule:nonzero;fill:rgb(30%,30%,30%);fill-opacity:1;" d="M 1.824219 10.949219 C 0.820312 10.953125 0.0078125 10.144531 0.00390625 9.140625 C -0.00390625 8.140625 0.804688 7.324219 1.804688 7.316406 C 1.8125 7.316406 1.820312 7.316406 1.824219 7.316406 C 2.824219 7.316406 3.640625 8.117188 3.648438 9.113281 C 3.65625 10.121094 2.847656 10.941406 1.84375 10.949219 C 1.835938 10.949219 1.828125 10.949219 1.824219 10.949219 Z M 1.824219 7.636719 C 1.820312 7.636719 1.816406 7.636719 1.808594 7.636719 C 0.984375 7.640625 0.316406 8.3125 0.320312 9.140625 C 0.324219 9.964844 0.996094 10.632812 1.824219 10.632812 C 1.828125 10.632812 1.835938 10.632812 1.839844 10.632812 C 2.667969 10.625 3.335938 9.949219 3.328125 9.117188 C 3.320312 8.296875 2.648438 7.636719 1.824219 7.636719 Z M 1.824219 7.636719 "/>
<path style="fill-rule:nonzero;fill:rgb(30%,30%,30%);fill-opacity:1;stroke-width:4.6417;stroke-linecap:butt;stroke-linejoin:miter;stroke:rgb(7.058824%,6.27451%,5.490196%);stroke-opacity:1;stroke-miterlimit:10;" d="M 548.689507 375.843641 C 548.392127 405.778109 523.993762 430.370179 494.059294 430.072798 C 463.781282 430.112203 439.525997 406.057382 439.486593 375.77937 C 439.443809 345.841522 463.838794 321.589617 494.116806 321.550212 C 524.054654 321.507429 548.646724 345.905793 548.689507 375.843641 Z M 548.689507 375.843641 " transform="matrix(0.0114823,-0.00011407,0.00011407,0.0114823,-0.425112,-0.155299)"/>
<path style=" stroke:none;fill-rule:nonzero;fill:rgb(30%,30%,30%);fill-opacity:1;" d="M 6.664062 5.882812 L 5.507812 5.894531 C 5.503906 5.890625 5.503906 5.890625 5.503906 5.890625 L 4.792969 4.90625 C 4.765625 4.824219 4.71875 4.746094 4.65625 4.6875 L 4.609375 4.640625 C 4.382812 4.421875 4.023438 4.425781 3.804688 4.648438 L 2.476562 6 C 2.417969 6.058594 2.375 6.128906 2.347656 6.207031 C 2.234375 6.441406 2.316406 6.722656 2.539062 6.859375 L 2.566406 6.878906 C 2.605469 6.910156 2.652344 6.9375 2.699219 6.960938 L 4.042969 7.78125 C 4.042969 7.78125 4.042969 7.78125 4.042969 7.785156 L 4.058594 9.199219 C 4.0625 9.417969 4.242188 9.597656 4.460938 9.59375 C 4.683594 9.589844 4.859375 9.410156 4.859375 9.191406 L 4.839844 7.328125 C 4.839844 7.21875 4.792969 7.113281 4.710938 7.039062 C 4.675781 6.992188 4.628906 6.949219 4.578125 6.917969 L 3.753906 6.414062 L 4.550781 5.601562 L 5.003906 6.230469 C 5.042969 6.304688 5.121094 6.351562 5.207031 6.351562 L 5.21875 6.351562 C 5.230469 6.351562 5.242188 6.351562 5.253906 6.351562 L 6.667969 6.335938 C 6.75 6.335938 6.824219 6.292969 6.867188 6.222656 C 6.90625 6.152344 6.90625 6.0625 6.863281 5.992188 C 6.820312 5.921875 6.746094 5.878906 6.664062 5.882812 Z M 6.664062 5.882812 "/>
<path style=" stroke:none;fill-rule:nonzero;fill:rgb(30%,30%,30%);fill-opacity:1;" d="M 2.558594 3.472656 L 5.59375 0 L 7.222656 2.621094 L 8.628906 1.191406 L 11 4.277344 L 10.472656 4.113281 C 10.234375 4.039062 9.980469 4.027344 9.738281 4.078125 C 9.484375 4.132812 9.226562 4.164062 8.96875 4.167969 C 8.347656 4.175781 8.175781 3.214844 6.707031 3.53125 C 5.910156 3.703125 5.414062 2.5 4.742188 2.421875 C 4.066406 2.339844 2.558594 3.472656 2.558594 3.472656 Z M 8.132812 1.949219 L 8.429688 1.9375 L 8.609375 2.1875 L 8.789062 1.949219 L 9.015625 2.019531 L 8.613281 1.445312 Z M 4.875 1.039062 L 5.304688 1.019531 L 5.566406 1.378906 L 5.824219 1.035156 L 6.152344 1.136719 L 5.570312 0.304688 Z M 4.875 1.039062 "/>
</g>
</svg>
