<?xml version="1.0" encoding="UTF-8"?>
<svg xmlns="http://www.w3.org/2000/svg" xmlns:xlink="http://www.w3.org/1999/xlink" width="11" height="9.561614" viewBox="0 0 11 9.561614" version="1.1">
<g id="surface1">
<path style=" stroke:none;fill-rule:nonzero;fill:rgb(30%,30%,30%);fill-opacity:1;" d="M 7.734375 7.625 L 5.964844 7.292969 L 4.640625 8.511719 L 4.464844 6.785156 L 2.878906 5.980469 L 4.542969 5.246094 L 4.890625 3.53125 L 6.089844 4.804688 L 7.890625 4.546875 L 6.972656 6.070312 Z M 7.734375 7.625 "/>
<path style=" stroke:none;fill-rule:nonzero;fill:rgb(30%,30%,30%);fill-opacity:1;" d="M 9.058594 3.757812 L 9.058594 8.738281 L 1.890625 8.738281 L 1.890625 3.757812 L 0.957031 3.757812 L 0.957031 9.5625 L 9.9375 9.5625 L 9.9375 3.757812 Z M 9.058594 3.757812 "/>
<path style=" stroke:none;fill-rule:nonzero;fill:rgb(30%,30%,30%);fill-opacity:1;" d="M 11 2.257812 C 11 2.246094 10.996094 2.230469 10.992188 2.21875 C 10.988281 2.210938 10.984375 2.203125 10.976562 2.195312 L 8.726562 0.046875 C 8.703125 0.0195312 8.667969 0 8.628906 0 L 2.195312 0 C 2.15625 0 2.125 0.015625 2.101562 0.046875 L 0.0234375 2.191406 C 0.0078125 2.210938 0 2.234375 0 2.257812 C 0 2.257812 0 2.261719 0 2.261719 C 0 2.875 0.523438 3.375 1.167969 3.375 C 1.632812 3.375 2.035156 3.109375 2.222656 2.734375 C 2.410156 3.109375 2.8125 3.375 3.28125 3.375 C 3.796875 3.375 4.234375 3.050781 4.386719 2.609375 C 4.542969 3.050781 4.980469 3.375 5.496094 3.375 C 6.015625 3.375 6.457031 3.046875 6.609375 2.601562 C 6.757812 3.046875 7.199219 3.375 7.71875 3.375 C 8.1875 3.375 8.589844 3.109375 8.777344 2.734375 C 8.964844 3.109375 9.367188 3.375 9.832031 3.375 C 10.476562 3.375 11 2.875 11 2.261719 C 11 2.261719 11 2.261719 11 2.257812 Z M 11 2.257812 "/>
</g>
</svg>
