<?xml version="1.0" encoding="UTF-8" standalone="no"?>
<!-- Created with Inkscape (http://www.inkscape.org/) -->

<svg
   xmlns:dc="http://purl.org/dc/elements/1.1/"
   xmlns:cc="http://creativecommons.org/ns#"
   xmlns:rdf="http://www.w3.org/1999/02/22-rdf-syntax-ns#"
   xmlns:svg="http://www.w3.org/2000/svg"
   xmlns="http://www.w3.org/2000/svg"
   xmlns:xlink="http://www.w3.org/1999/xlink"
   xmlns:sodipodi="http://sodipodi.sourceforge.net/DTD/sodipodi-0.dtd"
   xmlns:inkscape="http://www.inkscape.org/namespaces/inkscape"
   width="30px"
   height="30px"
   version="1.1"
   id="svg8"
   inkscape:version="0.92.4 5da689c313, 2019-01-14"
   sodipodi:docname="container.svg">
  <defs
     id="defs2" />
  <sodipodi:namedview
     id="base"
     pagecolor="#ffffff"
     bordercolor="#666666"
     borderopacity="1.0"
     inkscape:pageopacity="0.0"
     inkscape:pageshadow="2"
     inkscape:zoom="13.049334"
     inkscape:cx="18.679046"
     inkscape:cy="12.165829"
     inkscape:document-units="px"
     inkscape:current-layer="layer1"
     showgrid="false"
     inkscape:snap-page="false"
     units="px"
     inkscape:window-width="1884"
     inkscape:window-height="1061"
     inkscape:window-x="0"
     inkscape:window-y="0"
     inkscape:window-maximized="1"
     fit-margin-top="0"
     fit-margin-left="0"
     fit-margin-right="0"
     fit-margin-bottom="0" />
  <metadata
     id="metadata5">
    <rdf:RDF>
      <cc:Work
         rdf:about="">
        <dc:format>image/svg+xml</dc:format>
        <dc:type
           rdf:resource="http://purl.org/dc/dcmitype/StillImage" />
        <dc:title></dc:title>
      </cc:Work>
    </rdf:RDF>
  </metadata>
    <circle
       style="color:#000000;clip-rule:nonzero;display:inline;overflow:visible;visibility:visible;opacity:1;isolation:auto;mix-blend-mode:normal;color-interpolation:sRGB;color-interpolation-filters:linearRGB;solid-color:#000000;solid-opacity:1;vector-effect:none;fill:rgba(255, 255, 255, 1);fill-opacity:1;fill-rule:evenodd;stroke:#ffffff;stroke-width:1;stroke-linecap:butt;stroke-linejoin:miter;stroke-miterlimit:4;stroke-dasharray:none;stroke-dashoffset:0;stroke-opacity:1;marker:none;color-rendering:auto;image-rendering:auto;shape-rendering:auto;text-rendering:auto;enable-background:accumulate"
       id="path815"
       cx="15"
       cy="15"
       r="14.5" />
<g transform="translate(8,6)"><g id="surface1">
<path style=" stroke:none;fill-rule:nonzero;fill:#FFFFFF;fill-opacity:1;" d="M 0.046875 4.039062 C 0.046875 4.039062 1.40625 6.558594 3.675781 7.511719 L 5.5625 5.492188 C 5.5625 5.492188 5.46875 4.449219 5.46875 3.628906 C 5.46875 2.8125 5.996094 1.339844 5.996094 1.339844 C 5.996094 1.339844 4.246094 4.765625 0.046875 4.039062 "/>
<path style=" stroke:none;fill-rule:nonzero;fill:#FFFFFF;fill-opacity:1;" d="M 7.175781 0 C 7.175781 0 5.902344 1.859375 6.105469 5.242188 L 8.964844 5.902344 C 8.964844 5.902344 10.214844 4.625 12.464844 4.175781 C 12.464844 4.175781 8.171875 3.675781 7.175781 0 "/>
<path style=" stroke:none;fill-rule:nonzero;fill:#FFFFFF;fill-opacity:1;" d="M 9.375 6.285156 L 10.214844 8.941406 C 10.214844 8.941406 12.167969 9.757812 13.4375 11.347656 C 13.4375 11.347656 12.894531 9.554688 12.894531 8.03125 C 12.894531 6.511719 14.050781 4.675781 14.050781 4.675781 C 14.050781 4.675781 12.078125 4.378906 9.375 6.285156 "/>
<path style=" stroke:none;fill-rule:nonzero;fill:#FFFFFF;fill-opacity:1;" d="M 10.167969 9.554688 C 10.167969 9.554688 12.984375 10.78125 13.894531 13.117188 C 13.894531 13.117188 9.988281 12.664062 8.082031 15.796875 C 8.082031 15.796875 8.648438 14.230469 8.46875 11.621094 C 8.46875 11.621094 9.671875 10.28125 10.167969 9.554688 "/>
<path style=" stroke:none;fill-rule:nonzero;fill:#FFFFFF;fill-opacity:1;" d="M 4.96875 11.347656 L 7.898438 11.871094 C 7.898438 11.871094 8.308594 14.9375 6.832031 17 C 6.832031 17 5.289062 13.507812 1.589844 13.09375 C 1.589844 13.09375 3.746094 12.554688 4.96875 11.347656 "/>
<path style=" stroke:none;fill-rule:nonzero;fill:#FFFFFF;fill-opacity:1;" d="M 3.722656 8.171875 L 4.585938 10.941406 C 4.585938 10.941406 2.949219 12.554688 0 12.554688 C 0 12.554688 2.3125 10.054688 0.546875 5.765625 C 0.546875 5.765625 2.179688 7.714844 3.722656 8.171875 "/>
<path style=" stroke:none;fill-rule:nonzero;fill:#FFFFFF;fill-opacity:1;" d="M 4.222656 7.785156 C 4.253906 7.644531 5.652344 5.878906 6.085938 5.832031 C 6.511719 5.785156 8.492188 6.238281 8.785156 6.445312 C 9.078125 6.648438 9.671875 8.535156 9.714844 8.921875 C 9.761719 9.304688 8.375 11.074219 8.125 11.191406 C 7.875 11.304688 5.539062 10.917969 5.175781 10.757812 C 4.8125 10.601562 4.15625 8.078125 4.222656 7.785156 "/>
</g>
</g>
</svg>
