<?xml version="1.0" encoding="UTF-8" standalone="no"?>
<!-- Created with Inkscape (http://www.inkscape.org/) -->

<svg
   xmlns:dc="http://purl.org/dc/elements/1.1/"
   xmlns:cc="http://creativecommons.org/ns#"
   xmlns:rdf="http://www.w3.org/1999/02/22-rdf-syntax-ns#"
   xmlns:svg="http://www.w3.org/2000/svg"
   xmlns="http://www.w3.org/2000/svg"
   xmlns:xlink="http://www.w3.org/1999/xlink"
   xmlns:sodipodi="http://sodipodi.sourceforge.net/DTD/sodipodi-0.dtd"
   xmlns:inkscape="http://www.inkscape.org/namespaces/inkscape"
   width="30px"
   height="30px"
   version="1.1"
   id="svg8"
   inkscape:version="0.92.4 5da689c313, 2019-01-14"
   sodipodi:docname="container.svg">
  <defs
     id="defs2" />
  <sodipodi:namedview
     id="base"
     pagecolor="#ffffff"
     bordercolor="#666666"
     borderopacity="1.0"
     inkscape:pageopacity="0.0"
     inkscape:pageshadow="2"
     inkscape:zoom="13.049334"
     inkscape:cx="18.679046"
     inkscape:cy="12.165829"
     inkscape:document-units="px"
     inkscape:current-layer="layer1"
     showgrid="false"
     inkscape:snap-page="false"
     units="px"
     inkscape:window-width="1884"
     inkscape:window-height="1061"
     inkscape:window-x="0"
     inkscape:window-y="0"
     inkscape:window-maximized="1"
     fit-margin-top="0"
     fit-margin-left="0"
     fit-margin-right="0"
     fit-margin-bottom="0" />
  <metadata
     id="metadata5">
    <rdf:RDF>
      <cc:Work
         rdf:about="">
        <dc:format>image/svg+xml</dc:format>
        <dc:type
           rdf:resource="http://purl.org/dc/dcmitype/StillImage" />
        <dc:title></dc:title>
      </cc:Work>
    </rdf:RDF>
  </metadata>
    <circle
       style="color:#000000;clip-rule:nonzero;display:inline;overflow:visible;visibility:visible;opacity:1;isolation:auto;mix-blend-mode:normal;color-interpolation:sRGB;color-interpolation-filters:linearRGB;solid-color:#000000;solid-opacity:1;vector-effect:none;fill:#ffffff;fill-opacity:1;fill-rule:evenodd;stroke:rgba(255, 255, 255, 1);stroke-width:1;stroke-linecap:butt;stroke-linejoin:miter;stroke-miterlimit:4;stroke-dasharray:none;stroke-dashoffset:0;stroke-opacity:1;marker:none;color-rendering:auto;image-rendering:auto;shape-rendering:auto;text-rendering:auto;enable-background:accumulate"
       id="path815"
       cx="15"
       cy="15"
       r="14.5" />
<g transform="translate(7,6)"><g id="surface1">
<path style=" stroke:none;fill-rule:nonzero;fill:rgb(30%,30%,30%);fill-opacity:1;" d="M 14.171875 6.542969 L 14.960938 4.679688 C 15.121094 4.285156 14.929688 3.835938 14.539062 3.675781 L 11.964844 2.628906 C 11.570312 2.46875 11.121094 2.660156 10.960938 3.050781 L 9.832031 5.933594 L 9.613281 6.519531 L 8.640625 6.511719 L 8.015625 2.613281 L 5.90625 3.550781 C 5.832031 3.378906 5.761719 3.210938 5.695312 3.046875 C 5.140625 1.726562 4.621094 0.484375 3.445312 0.117188 C 2.75 -0.0976562 1.964844 -0.0117188 1.351562 0.347656 C 0.851562 0.640625 0.464844 1.105469 0.234375 1.683594 C 0.0078125 2.246094 -0.0546875 2.882812 0.0507812 3.527344 C 0.0976562 3.828125 0.382812 4.035156 0.6875 3.988281 C 0.992188 3.9375 1.199219 3.652344 1.148438 3.347656 C 1.007812 2.480469 1.316406 1.660156 1.917969 1.308594 C 2.328125 1.066406 2.804688 1.085938 3.113281 1.179688 C 3.792969 1.390625 4.195312 2.359375 4.664062 3.476562 C 4.738281 3.648438 4.8125 3.824219 4.886719 4 L 4.546875 4.152344 L 2.652344 5.046875 L 4.296875 6.402344 L 1.332031 6.402344 L 1.332031 16.105469 C 1.332031 16.601562 1.730469 17 2.226562 17 L 14.914062 17 C 15.40625 17 15.804688 16.601562 15.804688 16.105469 L 15.804688 6.550781 Z M 12.265625 3.621094 C 12.214844 3.601562 12.191406 3.542969 12.210938 3.496094 L 12.222656 3.464844 C 12.242188 3.414062 12.300781 3.390625 12.347656 3.410156 L 13.847656 4.019531 C 13.898438 4.039062 13.921875 4.09375 13.902344 4.144531 L 13.890625 4.175781 C 13.871094 4.222656 13.8125 4.246094 13.761719 4.226562 M 11.378906 3.78125 L 14.121094 4.851562 L 13.425781 6.539062 L 10.292969 6.523438 Z M 7.988281 16.148438 C 7.234375 16.148438 6.738281 15.945312 6.738281 15.125 C 6.738281 14.28125 7.25 14.078125 7.988281 14.078125 C 8.726562 14.078125 9.238281 14.28125 9.238281 15.125 C 9.238281 15.933594 8.726562 16.148438 7.988281 16.148438 Z M 9.171875 12.761719 L 9.035156 12.761719 L 8.753906 13.394531 L 7.167969 13.394531 L 7.167969 11.339844 L 8.351562 11.339844 C 9.828125 11.339844 10.230469 10.816406 10.230469 10.144531 C 10.230469 9.511719 9.855469 8.949219 8.902344 8.949219 C 7.855469 8.949219 7.371094 9.445312 7.371094 10.371094 L 5.53125 10.371094 C 5.53125 8.652344 6.445312 7.335938 8.847656 7.335938 C 11.171875 7.335938 12.113281 8.597656 12.113281 10.144531 C 12.113281 12.199219 10.230469 12.761719 9.171875 12.761719 Z M 9.171875 12.761719 "/>
</g>
</g>
</svg>
