<?xml version="1.0" encoding="UTF-8"?>
<svg xmlns="http://www.w3.org/2000/svg" xmlns:xlink="http://www.w3.org/1999/xlink" width="9.601071" height="11" viewBox="0 0 9.601071 11" version="1.1">
<g id="surface1">
<path style=" stroke:none;fill-rule:evenodd;fill:rgb(30%,30%,30%);fill-opacity:1;" d="M 0.03125 2.769531 L 1.265625 2.0625 L 3.609375 6.140625 Z M 0.03125 2.769531 "/>
<path style=" stroke:none;fill-rule:evenodd;fill:rgb(30%,30%,30%);fill-opacity:1;" d="M 2.386719 1.414062 L 3.621094 0.707031 L 3.621094 6.15625 Z M 2.386719 1.414062 "/>
<path style=" stroke:none;fill-rule:evenodd;fill:rgb(30%,30%,30%);fill-opacity:1;" d="M 4.769531 0 L 6.023438 0.734375 L 3.679688 4.742188 Z M 4.769531 0 "/>
<path style=" stroke:none;fill-rule:evenodd;fill:rgb(30%,30%,30%);fill-opacity:1;" d="M 7.199219 1.382812 L 8.4375 2.078125 L 3.742188 4.742188 Z M 7.199219 1.382812 "/>
<path style=" stroke:none;fill-rule:evenodd;fill:rgb(30%,30%,30%);fill-opacity:1;" d="M 9.570312 2.753906 L 9.601562 4.167969 L 4.949219 4.152344 Z M 9.570312 2.753906 "/>
<path style=" stroke:none;fill-rule:evenodd;fill:rgb(30%,30%,30%);fill-opacity:1;" d="M 9.558594 5.476562 L 9.585938 6.949219 L 4.917969 4.210938 Z M 9.558594 5.476562 "/>
<path style=" stroke:none;fill-rule:evenodd;fill:rgb(30%,30%,30%);fill-opacity:1;" d="M 8.347656 8.984375 L 6.039062 4.917969 L 9.570312 8.277344 Z M 8.347656 8.984375 "/>
<path style=" stroke:none;fill-rule:evenodd;fill:rgb(30%,30%,30%);fill-opacity:1;" d="M 7.214844 9.628906 L 5.949219 10.335938 L 5.992188 4.976562 Z M 7.214844 9.628906 "/>
<path style=" stroke:none;fill-rule:evenodd;fill:rgb(30%,30%,30%);fill-opacity:1;" d="M 3.5625 10.277344 L 5.917969 6.273438 L 4.816406 11 Z M 3.5625 10.277344 "/>
<path style=" stroke:none;fill-rule:evenodd;fill:rgb(30%,30%,30%);fill-opacity:1;" d="M 1.164062 8.910156 L 5.890625 6.242188 L 2.414062 9.628906 Z M 1.164062 8.910156 "/>
<path style=" stroke:none;fill-rule:evenodd;fill:rgb(30%,30%,30%);fill-opacity:1;" d="M 0.015625 8.304688 L 0 6.804688 L 4.785156 6.847656 Z M 0.015625 8.304688 "/>
<path style=" stroke:none;fill-rule:evenodd;fill:rgb(30%,30%,30%);fill-opacity:1;" d="M 0.015625 5.507812 L 0.03125 4.078125 L 4.726562 6.832031 Z M 0.015625 5.507812 "/>
</g>
</svg>
