<?xml version="1.0" encoding="UTF-8" standalone="no"?>
<!-- Created with Inkscape (http://www.inkscape.org/) -->

<svg
   xmlns:dc="http://purl.org/dc/elements/1.1/"
   xmlns:cc="http://creativecommons.org/ns#"
   xmlns:rdf="http://www.w3.org/1999/02/22-rdf-syntax-ns#"
   xmlns:svg="http://www.w3.org/2000/svg"
   xmlns="http://www.w3.org/2000/svg"
   xmlns:xlink="http://www.w3.org/1999/xlink"
   xmlns:sodipodi="http://sodipodi.sourceforge.net/DTD/sodipodi-0.dtd"
   xmlns:inkscape="http://www.inkscape.org/namespaces/inkscape"
   width="30px"
   height="30px"
   version="1.1"
   id="svg8"
   inkscape:version="0.92.4 5da689c313, 2019-01-14"
   sodipodi:docname="container.svg">
  <defs
     id="defs2" />
  <sodipodi:namedview
     id="base"
     pagecolor="#ffffff"
     bordercolor="#666666"
     borderopacity="1.0"
     inkscape:pageopacity="0.0"
     inkscape:pageshadow="2"
     inkscape:zoom="13.049334"
     inkscape:cx="18.679046"
     inkscape:cy="12.165829"
     inkscape:document-units="px"
     inkscape:current-layer="layer1"
     showgrid="false"
     inkscape:snap-page="false"
     units="px"
     inkscape:window-width="1884"
     inkscape:window-height="1061"
     inkscape:window-x="0"
     inkscape:window-y="0"
     inkscape:window-maximized="1"
     fit-margin-top="0"
     fit-margin-left="0"
     fit-margin-right="0"
     fit-margin-bottom="0" />
  <metadata
     id="metadata5">
    <rdf:RDF>
      <cc:Work
         rdf:about="">
        <dc:format>image/svg+xml</dc:format>
        <dc:type
           rdf:resource="http://purl.org/dc/dcmitype/StillImage" />
        <dc:title></dc:title>
      </cc:Work>
    </rdf:RDF>
  </metadata>
    <circle
       style="color:#000000;clip-rule:nonzero;display:inline;overflow:visible;visibility:visible;opacity:1;isolation:auto;mix-blend-mode:normal;color-interpolation:sRGB;color-interpolation-filters:linearRGB;solid-color:#000000;solid-opacity:1;vector-effect:none;fill:#ffffff;fill-opacity:1;fill-rule:evenodd;stroke:rgba(255, 255, 255, 1);stroke-width:1;stroke-linecap:butt;stroke-linejoin:miter;stroke-miterlimit:4;stroke-dasharray:none;stroke-dashoffset:0;stroke-opacity:1;marker:none;color-rendering:auto;image-rendering:auto;shape-rendering:auto;text-rendering:auto;enable-background:accumulate"
       id="path815"
       cx="15"
       cy="15"
       r="14.5" />
<g transform="translate(7,6)"><g id="surface1">
<path style=" stroke:none;fill-rule:nonzero;fill:rgb(30%,30%,30%);fill-opacity:1;" d="M 3.21875 7.910156 C 3.21875 8.800781 2.5 9.519531 1.609375 9.519531 C 0.722656 9.519531 0 8.800781 0 7.910156 C 0 7.023438 0.722656 6.300781 1.609375 6.300781 C 2.5 6.300781 3.21875 7.023438 3.21875 7.910156 Z M 3.21875 7.910156 "/>
<path style=" stroke:none;fill-rule:nonzero;fill:rgb(30%,30%,30%);fill-opacity:1;" d="M 4.042969 11.652344 C 4.042969 12.539062 3.320312 13.261719 2.433594 13.261719 C 1.542969 13.261719 0.824219 12.539062 0.824219 11.652344 C 0.824219 10.761719 1.542969 10.042969 2.433594 10.042969 C 3.320312 10.042969 4.042969 10.761719 4.042969 11.652344 Z M 4.042969 11.652344 "/>
<path style=" stroke:none;fill-rule:nonzero;fill:rgb(30%,30%,30%);fill-opacity:1;" d="M 7.730469 12.925781 C 7.730469 13.8125 7.007812 14.535156 6.121094 14.535156 C 5.230469 14.535156 4.511719 13.8125 4.511719 12.925781 C 4.511719 12.035156 5.230469 11.316406 6.121094 11.316406 C 7.007812 11.316406 7.730469 12.035156 7.730469 12.925781 Z M 7.730469 12.925781 "/>
<path style=" stroke:none;fill-rule:nonzero;fill:rgb(30%,30%,30%);fill-opacity:1;" d="M 4.710938 15.390625 C 4.710938 16.277344 3.992188 17 3.101562 17 C 2.214844 17 1.492188 16.277344 1.492188 15.390625 C 1.492188 14.5 2.214844 13.78125 3.101562 13.78125 C 3.992188 13.78125 4.710938 14.5 4.710938 15.390625 Z M 4.710938 15.390625 "/>
<path style=" stroke:none;fill-rule:nonzero;fill:rgb(30%,30%,30%);fill-opacity:1;" d="M 7.078125 9.246094 C 7.078125 10.132812 6.359375 10.855469 5.46875 10.855469 C 4.582031 10.855469 3.859375 10.132812 3.859375 9.246094 C 3.859375 8.355469 4.582031 7.636719 5.46875 7.636719 C 6.359375 7.636719 7.078125 8.355469 7.078125 9.246094 Z M 7.078125 9.246094 "/>
<path style=" stroke:none;fill-rule:nonzero;fill:rgb(30%,30%,30%);fill-opacity:1;" d="M 10.941406 10.578125 C 10.941406 11.464844 10.21875 12.1875 9.332031 12.1875 C 8.441406 12.1875 7.722656 11.464844 7.722656 10.578125 C 7.722656 9.6875 8.441406 8.96875 9.332031 8.96875 C 10.21875 8.96875 10.941406 9.6875 10.941406 10.578125 Z M 10.941406 10.578125 "/>
<path style=" stroke:none;fill-rule:nonzero;fill:rgb(30%,30%,30%);fill-opacity:1;" d="M 14.207031 5.203125 C 12.121094 5.796875 10.097656 5.679688 8.117188 5.207031 C 9.105469 4 9.726562 1.984375 9.464844 0.519531 C 9.316406 -0.328125 8.007812 -0.0664062 8.15625 0.78125 C 8.351562 1.871094 7.761719 3.71875 6.972656 4.507812 C 6.878906 4.597656 6.816406 4.714844 6.785156 4.839844 C 4.800781 4.214844 2.859375 3.3125 0.953125 2.492188 C 0.164062 2.152344 -0.265625 3.414062 0.519531 3.753906 C 4.945312 5.65625 9.554688 7.90625 14.46875 6.511719 C 15.285156 6.28125 15.035156 4.96875 14.207031 5.203125 Z M 14.207031 5.203125 "/>
</g>
</g>
</svg>
