<?xml version="1.0" encoding="UTF-8" standalone="no"?>
<!-- Created with Inkscape (http://www.inkscape.org/) -->

<svg
   xmlns:dc="http://purl.org/dc/elements/1.1/"
   xmlns:cc="http://creativecommons.org/ns#"
   xmlns:rdf="http://www.w3.org/1999/02/22-rdf-syntax-ns#"
   xmlns:svg="http://www.w3.org/2000/svg"
   xmlns="http://www.w3.org/2000/svg"
   xmlns:xlink="http://www.w3.org/1999/xlink"
   xmlns:sodipodi="http://sodipodi.sourceforge.net/DTD/sodipodi-0.dtd"
   xmlns:inkscape="http://www.inkscape.org/namespaces/inkscape"
   width="30px"
   height="30px"
   version="1.1"
   id="svg8"
   inkscape:version="0.92.4 5da689c313, 2019-01-14"
   sodipodi:docname="container.svg">
  <defs
     id="defs2" />
  <sodipodi:namedview
     id="base"
     pagecolor="#ffffff"
     bordercolor="#666666"
     borderopacity="1.0"
     inkscape:pageopacity="0.0"
     inkscape:pageshadow="2"
     inkscape:zoom="13.049334"
     inkscape:cx="18.679046"
     inkscape:cy="12.165829"
     inkscape:document-units="px"
     inkscape:current-layer="layer1"
     showgrid="false"
     inkscape:snap-page="false"
     units="px"
     inkscape:window-width="1884"
     inkscape:window-height="1061"
     inkscape:window-x="0"
     inkscape:window-y="0"
     inkscape:window-maximized="1"
     fit-margin-top="0"
     fit-margin-left="0"
     fit-margin-right="0"
     fit-margin-bottom="0" />
  <metadata
     id="metadata5">
    <rdf:RDF>
      <cc:Work
         rdf:about="">
        <dc:format>image/svg+xml</dc:format>
        <dc:type
           rdf:resource="http://purl.org/dc/dcmitype/StillImage" />
        <dc:title></dc:title>
      </cc:Work>
    </rdf:RDF>
  </metadata>
    <circle
       style="color:#000000;clip-rule:nonzero;display:inline;overflow:visible;visibility:visible;opacity:1;isolation:auto;mix-blend-mode:normal;color-interpolation:sRGB;color-interpolation-filters:linearRGB;solid-color:#000000;solid-opacity:1;vector-effect:none;fill:#ffffff;fill-opacity:1;fill-rule:evenodd;stroke:rgba(255, 255, 255, 1);stroke-width:1;stroke-linecap:butt;stroke-linejoin:miter;stroke-miterlimit:4;stroke-dasharray:none;stroke-dashoffset:0;stroke-opacity:1;marker:none;color-rendering:auto;image-rendering:auto;shape-rendering:auto;text-rendering:auto;enable-background:accumulate"
       id="path815"
       cx="15"
       cy="15"
       r="14.5" />
<g transform="translate(6,6)"><g id="surface1">
<path style=" stroke:none;fill-rule:nonzero;fill:rgb(30%,30%,30%);fill-opacity:1;" d="M 8.5 0 C 3.804688 0 0 3.804688 0 8.5 C 0 13.195312 3.804688 17 8.5 17 C 13.195312 17 17 13.195312 17 8.5 C 17 3.804688 13.195312 0 8.5 0 Z M 11.140625 14.75 C 8.265625 15.964844 4.933594 15.066406 3.066406 12.566406 C 1.195312 10.070312 1.273438 6.617188 3.25 4.207031 L 7.0625 8.175781 C 6.730469 8.722656 6.347656 9.132812 6.097656 9.074219 C 5.519531 8.9375 5.472656 7.679688 5.160156 6.910156 C 4.835938 6.113281 3.957031 5.78125 3.835938 6.140625 C 3.742188 6.421875 3.933594 7.085938 4.140625 8.820312 C 4.351562 10.628906 4.773438 12.628906 6.667969 13.621094 C 8.566406 14.617188 9.972656 12.847656 10.421875 12.308594 C 10.519531 12.191406 10.609375 12.074219 10.699219 11.960938 L 12.578125 13.917969 C 12.136719 14.253906 11.652344 14.535156 11.140625 14.75 Z M 13.808594 12.71875 L 11.820312 10.648438 C 11.996094 10.496094 12.179688 10.355469 12.371094 10.222656 C 13.578125 9.402344 14.257812 8.40625 14.148438 8.261719 C 13.488281 7.378906 11.5 10.046875 10.914062 9.703125 L 10.835938 9.625 C 10.652344 9.125 13.59375 5.445312 13 5.019531 C 12.375 4.570312 10.238281 8.585938 9.96875 8.410156 C 9.640625 8.199219 12.265625 3.285156 11.546875 2.988281 C 10.652344 2.617188 9.347656 7.054688 8.894531 7.601562 L 8.714844 7.414062 C 8.746094 6.453125 10.433594 2.996094 9.800781 2.769531 C 9.058594 2.503906 8.289062 4.953125 7.792969 6.457031 L 4.496094 3.023438 C 7.238281 1.015625 11.042969 1.347656 13.394531 3.796875 C 15.75 6.25 15.925781 10.0625 13.808594 12.71875 Z M 13.808594 12.71875 "/>
</g>
</g>
</svg>
