<?xml version="1.0" encoding="UTF-8"?>
<svg xmlns="http://www.w3.org/2000/svg" xmlns:xlink="http://www.w3.org/1999/xlink" width="11" height="11" viewBox="0 0 11 11" version="1.1">
<g id="surface1">
<path style=" stroke:none;fill-rule:nonzero;fill:rgb(30%,30%,30%);fill-opacity:1;" d="M 2.894531 4.46875 C 2.894531 4.984375 2.472656 5.40625 1.957031 5.40625 C 1.4375 5.40625 1.019531 4.984375 1.019531 4.46875 C 1.019531 3.949219 1.4375 3.53125 1.957031 3.53125 C 2.472656 3.53125 2.894531 3.953125 2.894531 4.46875 Z M 6.601562 9.285156 L 5.757812 8.5625 L 4.679688 8.898438 L 5.980469 10.011719 C 6.167969 10.171875 6.457031 10.152344 6.621094 9.960938 L 6.648438 9.925781 C 6.8125 9.734375 6.789062 9.449219 6.601562 9.285156 Z M 10.5625 4.058594 C 10.527344 4.15625 10.433594 4.21875 10.335938 4.21875 C 10.3125 4.21875 10.285156 4.214844 10.257812 4.203125 L 5.109375 2.371094 L 5.109375 4.363281 C 5.207031 4.371094 5.300781 4.414062 5.371094 4.5 L 5.398438 4.53125 C 5.542969 4.707031 5.519531 4.964844 5.339844 5.109375 C 5.339844 5.109375 5.253906 5.179688 5.109375 5.296875 L 5.109375 7.46875 C 5.46875 7.351562 6.015625 7.148438 6.015625 7.148438 C 6.140625 7.132812 6.265625 7.167969 6.367188 7.253906 L 7.789062 8.464844 C 7.976562 8.628906 8 8.917969 7.839844 9.105469 L 7.808594 9.140625 C 7.644531 9.332031 7.359375 9.355469 7.167969 9.191406 L 6.125 8.296875 C 5.648438 8.476562 4.539062 8.882812 4.332031 8.902344 C 4.207031 8.917969 4.066406 8.917969 3.953125 8.921875 C 3.925781 8.921875 3.898438 8.921875 3.871094 8.921875 C 3.796875 8.917969 3.757812 8.898438 3.757812 8.898438 C 3.675781 8.867188 3.597656 8.816406 3.542969 8.742188 L 1.988281 6.765625 C 1.753906 6.46875 1.804688 6.042969 2.101562 5.808594 C 2.101562 5.808594 2.351562 5.601562 4.09375 5.15625 L 4.808594 4.46875 C 4.820312 4.457031 4.832031 4.449219 4.847656 4.441406 L 4.847656 2.277344 L 1.441406 1.0625 C 1.316406 1.019531 1.25 0.882812 1.296875 0.757812 C 1.339844 0.636719 1.476562 0.570312 1.597656 0.613281 L 10.417969 3.757812 C 10.542969 3.800781 10.605469 3.9375 10.5625 4.058594 Z M 4.847656 5.511719 C 4.835938 5.523438 4.824219 5.53125 4.808594 5.542969 C 4.496094 5.800781 3.589844 6.222656 3.589844 6.222656 L 4.648438 7.546875 C 4.710938 7.554688 4.777344 7.558594 4.847656 7.542969 Z M 4.847656 5.511719 "/>
</g>
</svg>
