<?xml version="1.0" encoding="UTF-8" standalone="no"?>
<!-- Created with Inkscape (http://www.inkscape.org/) -->

<svg
   xmlns:dc="http://purl.org/dc/elements/1.1/"
   xmlns:cc="http://creativecommons.org/ns#"
   xmlns:rdf="http://www.w3.org/1999/02/22-rdf-syntax-ns#"
   xmlns:svg="http://www.w3.org/2000/svg"
   xmlns="http://www.w3.org/2000/svg"
   xmlns:xlink="http://www.w3.org/1999/xlink"
   xmlns:sodipodi="http://sodipodi.sourceforge.net/DTD/sodipodi-0.dtd"
   xmlns:inkscape="http://www.inkscape.org/namespaces/inkscape"
   width="30px"
   height="30px"
   version="1.1"
   id="svg8"
   inkscape:version="0.92.4 5da689c313, 2019-01-14"
   sodipodi:docname="container.svg">
  <defs
     id="defs2" />
  <sodipodi:namedview
     id="base"
     pagecolor="#ffffff"
     bordercolor="#666666"
     borderopacity="1.0"
     inkscape:pageopacity="0.0"
     inkscape:pageshadow="2"
     inkscape:zoom="13.049334"
     inkscape:cx="18.679046"
     inkscape:cy="12.165829"
     inkscape:document-units="px"
     inkscape:current-layer="layer1"
     showgrid="false"
     inkscape:snap-page="false"
     units="px"
     inkscape:window-width="1884"
     inkscape:window-height="1061"
     inkscape:window-x="0"
     inkscape:window-y="0"
     inkscape:window-maximized="1"
     fit-margin-top="0"
     fit-margin-left="0"
     fit-margin-right="0"
     fit-margin-bottom="0" />
  <metadata
     id="metadata5">
    <rdf:RDF>
      <cc:Work
         rdf:about="">
        <dc:format>image/svg+xml</dc:format>
        <dc:type
           rdf:resource="http://purl.org/dc/dcmitype/StillImage" />
        <dc:title></dc:title>
      </cc:Work>
    </rdf:RDF>
  </metadata>
    <circle
       style="color:#000000;clip-rule:nonzero;display:inline;overflow:visible;visibility:visible;opacity:1;isolation:auto;mix-blend-mode:normal;color-interpolation:sRGB;color-interpolation-filters:linearRGB;solid-color:#000000;solid-opacity:1;vector-effect:none;fill:rgba(255, 255, 255, 1);fill-opacity:1;fill-rule:evenodd;stroke:#ffffff;stroke-width:1;stroke-linecap:butt;stroke-linejoin:miter;stroke-miterlimit:4;stroke-dasharray:none;stroke-dashoffset:0;stroke-opacity:1;marker:none;color-rendering:auto;image-rendering:auto;shape-rendering:auto;text-rendering:auto;enable-background:accumulate"
       id="path815"
       cx="15"
       cy="15"
       r="14.5" />
<g transform="translate(6,7)"><g id="surface1">
<path style=" stroke:none;fill-rule:nonzero;fill:#FFFFFF;fill-opacity:1;" d="M 14.964844 10.414062 L 1.929688 10.414062 C 2.945312 11.996094 4.503906 13.15625 6.308594 13.675781 C 5.242188 13.992188 4.257812 14.535156 3.421875 15.265625 L 13.597656 15.265625 C 12.742188 14.519531 11.734375 13.972656 10.648438 13.65625 C 12.425781 13.128906 13.960938 11.976562 14.964844 10.414062 Z M 14.964844 10.414062 "/>
<path style=" stroke:none;fill-rule:nonzero;fill:#FFFFFF;fill-opacity:1;" d="M 9.199219 3.425781 C 9.199219 3.808594 8.886719 4.117188 8.503906 4.117188 C 8.121094 4.117188 7.808594 3.808594 7.808594 3.425781 C 7.808594 3.039062 8.121094 2.730469 8.503906 2.730469 C 8.886719 2.730469 9.199219 3.039062 9.199219 3.425781 Z M 9.199219 3.425781 "/>
<path style=" stroke:none;fill-rule:nonzero;fill:#FFFFFF;fill-opacity:1;" d="M 9.199219 5.324219 C 9.199219 5.710938 8.886719 6.019531 8.503906 6.019531 C 8.121094 6.019531 7.808594 5.710938 7.808594 5.324219 C 7.808594 4.941406 8.121094 4.632812 8.503906 4.632812 C 8.886719 4.632812 9.199219 4.941406 9.199219 5.324219 Z M 9.199219 5.324219 "/>
<path style=" stroke:none;fill-rule:nonzero;fill:#FFFFFF;fill-opacity:1;" d="M 9.199219 7.445312 C 9.199219 7.828125 8.886719 8.140625 8.503906 8.140625 C 8.121094 8.140625 7.808594 7.828125 7.808594 7.445312 C 7.808594 7.0625 8.121094 6.75 8.503906 6.75 C 8.886719 6.75 9.199219 7.0625 9.199219 7.445312 Z M 9.199219 7.445312 "/>
<path style=" stroke:none;fill-rule:nonzero;fill:#FFFFFF;fill-opacity:1;" d="M 10.75 9 C 10.75 9.382812 10.441406 9.695312 10.058594 9.695312 C 9.671875 9.695312 9.363281 9.382812 9.363281 9 C 9.363281 8.617188 9.671875 8.304688 10.058594 8.304688 C 10.441406 8.304688 10.75 8.617188 10.75 9 Z M 10.75 9 "/>
<path style=" stroke:none;fill-rule:nonzero;fill:#FFFFFF;fill-opacity:1;" d="M 7.625 9 C 7.625 9.382812 7.3125 9.695312 6.929688 9.695312 C 6.546875 9.695312 6.234375 9.382812 6.234375 9 C 6.234375 8.617188 6.546875 8.304688 6.929688 8.304688 C 7.3125 8.304688 7.625 8.617188 7.625 9 Z M 7.625 9 "/>
<path style=" stroke:none;fill-rule:nonzero;fill:#FFFFFF;fill-opacity:1;" d="M 3.914062 7.191406 C 3.914062 7.574219 3.601562 7.886719 3.21875 7.886719 C 2.832031 7.886719 2.523438 7.574219 2.523438 7.191406 C 2.523438 6.804688 2.832031 6.496094 3.21875 6.496094 C 3.601562 6.496094 3.914062 6.804688 3.914062 7.191406 Z M 3.914062 7.191406 "/>
<path style=" stroke:none;fill-rule:nonzero;fill:#FFFFFF;fill-opacity:1;" d="M 14.628906 7.191406 C 14.628906 7.574219 14.316406 7.886719 13.933594 7.886719 C 13.546875 7.886719 13.238281 7.574219 13.238281 7.191406 C 13.238281 6.804688 13.546875 6.496094 13.933594 6.496094 C 14.316406 6.496094 14.628906 6.804688 14.628906 7.191406 Z M 14.628906 7.191406 "/>
<path style=" stroke:none;fill-rule:nonzero;fill:#FFFFFF;fill-opacity:1;" d="M 11.628906 7.191406 C 11.628906 7.574219 11.316406 7.886719 10.933594 7.886719 C 10.550781 7.886719 10.238281 7.574219 10.238281 7.191406 C 10.238281 6.804688 10.550781 6.496094 10.933594 6.496094 C 11.316406 6.496094 11.628906 6.804688 11.628906 7.191406 Z M 11.628906 7.191406 "/>
<path style=" stroke:none;fill-rule:nonzero;fill:#FFFFFF;fill-opacity:1;" d="M 6.765625 7.191406 C 6.765625 7.574219 6.457031 7.886719 6.070312 7.886719 C 5.6875 7.886719 5.375 7.574219 5.375 7.191406 C 5.375 6.804688 5.6875 6.496094 6.070312 6.496094 C 6.457031 6.496094 6.765625 6.804688 6.765625 7.191406 Z M 6.765625 7.191406 "/>
<path style=" stroke:none;fill-rule:nonzero;fill:#FFFFFF;fill-opacity:1;" d="M 5.304688 6.167969 C 5.304688 6.550781 4.992188 6.859375 4.609375 6.859375 C 4.226562 6.859375 3.914062 6.550781 3.914062 6.167969 C 3.914062 5.78125 4.226562 5.472656 4.609375 5.472656 C 4.992188 5.472656 5.304688 5.78125 5.304688 6.167969 Z M 5.304688 6.167969 "/>
<path style=" stroke:none;fill-rule:nonzero;fill:#FFFFFF;fill-opacity:1;" d="M 13.074219 6.167969 C 13.074219 6.550781 12.761719 6.859375 12.378906 6.859375 C 11.996094 6.859375 11.683594 6.550781 11.683594 6.167969 C 11.683594 5.78125 11.996094 5.472656 12.378906 5.472656 C 12.761719 5.472656 13.074219 5.78125 13.074219 6.167969 Z M 13.074219 6.167969 "/>
<path style=" stroke:none;fill-rule:nonzero;fill:#FFFFFF;fill-opacity:1;" d="M 9.09375 1.835938 L 8.476562 1.542969 L 7.886719 1.882812 L 7.976562 1.203125 L 7.46875 0.746094 L 8.140625 0.621094 L 8.421875 0 L 8.746094 0.601562 L 9.425781 0.675781 L 8.953125 1.167969 Z M 9.09375 1.835938 "/>
<path style=" stroke:none;fill-rule:nonzero;fill:#FFFFFF;fill-opacity:1;" d="M 1.625 7.15625 L 1.007812 6.859375 L 0.414062 7.199219 L 0.507812 6.523438 L 0 6.066406 L 0.671875 5.941406 L 0.953125 5.320312 L 1.277344 5.921875 L 1.953125 5.996094 L 1.484375 6.488281 Z M 1.625 7.15625 "/>
<path style=" stroke:none;fill-rule:nonzero;fill:#FFFFFF;fill-opacity:1;" d="M 16.667969 6.792969 L 16.054688 6.496094 L 15.460938 6.835938 L 15.550781 6.160156 L 15.046875 5.699219 L 15.71875 5.578125 L 15.996094 4.953125 L 16.320312 5.554688 L 17 5.628906 L 16.527344 6.121094 Z M 16.667969 6.792969 "/>
</g>
</g>
</svg>
