<?xml version="1.0" encoding="UTF-8"?>
<svg xmlns="http://www.w3.org/2000/svg" xmlns:xlink="http://www.w3.org/1999/xlink" width="11" height="8.612167" viewBox="0 0 11 8.612167" version="1.1">
<g id="surface1">
<path style=" stroke:none;fill-rule:nonzero;fill:rgb(30%,30%,30%);fill-opacity:1;" d="M 8.953125 7.53125 C 8.691406 7.816406 8.488281 8.039062 8.019531 8.039062 C 7.570312 8.039062 7.378906 7.820312 7.132812 7.539062 C 6.863281 7.230469 6.527344 6.84375 5.828125 6.851562 C 5.226562 6.859375 4.882812 7.148438 4.613281 7.421875 L 4.328125 7.765625 C 4.167969 7.902344 3.925781 8.03125 3.5625 8.039062 C 3.160156 8.050781 2.941406 7.820312 2.664062 7.53125 C 2.363281 7.214844 2.019531 6.859375 1.414062 6.851562 C 0.722656 6.839844 0.375 7.226562 0.0976562 7.53125 C 0.0664062 7.566406 0.03125 7.601562 0 7.636719 L 0 8.382812 C 0.21875 8.246094 0.378906 8.070312 0.519531 7.914062 C 0.78125 7.625 0.96875 7.414062 1.40625 7.425781 C 1.757812 7.429688 1.957031 7.617188 2.25 7.925781 C 2.546875 8.234375 2.910156 8.613281 3.539062 8.613281 C 3.550781 8.613281 3.5625 8.613281 3.578125 8.613281 C 4.410156 8.589844 4.792969 8.125 5.007812 7.835938 C 5.214844 7.601562 5.445312 7.429688 5.832031 7.425781 C 5.839844 7.425781 5.84375 7.425781 5.847656 7.425781 C 6.273438 7.425781 6.453125 7.628906 6.703125 7.914062 C 6.972656 8.226562 7.3125 8.613281 8.019531 8.613281 C 8.738281 8.613281 9.09375 8.226562 9.375 7.914062 C 9.636719 7.625 9.824219 7.414062 10.261719 7.425781 C 10.566406 7.425781 10.757812 7.574219 11 7.816406 L 11 7.070312 C 10.78125 6.929688 10.527344 6.855469 10.269531 6.851562 C 9.578125 6.839844 9.230469 7.226562 8.953125 7.53125 Z M 8.953125 7.53125 "/>
<path style=" stroke:none;fill-rule:nonzero;fill:rgb(30%,30%,30%);fill-opacity:1;" d="M 10.21875 5.492188 C 9.527344 5.480469 9.179688 5.867188 8.902344 6.167969 C 8.644531 6.457031 8.4375 6.679688 7.96875 6.679688 C 7.519531 6.679688 7.328125 6.460938 7.082031 6.179688 C 7.027344 6.113281 6.964844 6.042969 6.898438 5.976562 L 7.386719 5.671875 C 7.386719 5.671875 8.03125 5.285156 7.453125 4.835938 C 6.875 4.386719 4.820312 4.515625 4.304688 4.644531 C 3.792969 4.773438 3.597656 5.15625 3.597656 5.15625 C 3.429688 5.613281 4.371094 5.96875 4.585938 6.042969 C 4.578125 6.046875 4.570312 6.054688 4.5625 6.0625 L 4.277344 6.40625 C 4.121094 6.542969 3.875 6.671875 3.515625 6.679688 C 3.109375 6.691406 2.894531 6.460938 2.613281 6.171875 C 2.3125 5.855469 1.972656 5.5 1.363281 5.492188 C 0.671875 5.480469 0.328125 5.867188 0.0507812 6.167969 C 0.03125 6.1875 0.015625 6.207031 0 6.222656 L 0 6.992188 C 0.191406 6.859375 0.339844 6.699219 0.472656 6.554688 C 0.734375 6.265625 0.921875 6.054688 1.359375 6.066406 C 1.707031 6.066406 1.90625 6.257812 2.203125 6.566406 C 2.496094 6.871094 2.859375 7.253906 3.488281 7.253906 C 3.503906 7.253906 3.515625 7.253906 3.527344 7.253906 C 4.359375 7.230469 4.683594 6.800781 4.957031 6.476562 C 5.183594 6.257812 5.394531 6.070312 5.785156 6.066406 C 5.789062 6.0625 5.792969 6.0625 5.800781 6.0625 C 6.226562 6.0625 6.40625 6.269531 6.652344 6.554688 C 6.925781 6.867188 7.261719 7.253906 7.96875 7.253906 C 8.691406 7.253906 9.042969 6.867188 9.328125 6.554688 C 9.585938 6.265625 9.773438 6.054688 10.214844 6.066406 C 10.539062 6.066406 10.734375 6.234375 11 6.507812 L 11 5.746094 C 10.792969 5.601562 10.542969 5.496094 10.21875 5.492188 Z M 10.21875 5.492188 "/>
<path style=" stroke:none;fill-rule:nonzero;fill:rgb(30%,30%,30%);fill-opacity:1;" d="M 6.289062 0.324219 C 6.5625 0.601562 6.5625 1.046875 6.289062 1.324219 C 6.011719 1.597656 5.566406 1.597656 5.289062 1.324219 C 5.011719 1.046875 5.011719 0.601562 5.289062 0.324219 C 5.566406 0.046875 6.011719 0.046875 6.289062 0.324219 Z M 6.289062 0.324219 "/>
<path style=" stroke:none;fill-rule:nonzero;fill:rgb(30%,30%,30%);fill-opacity:1;" d="M 10.542969 0.257812 C 10.289062 -0.160156 10.019531 0.0351562 9.835938 0.128906 C 9.457031 0.316406 9.339844 0.78125 9.085938 0.941406 L 8.984375 0.984375 C 8.96875 0.988281 8.957031 0.992188 8.941406 0.992188 L 8.949219 1 L 7.730469 1.523438 C 7.710938 1.507812 7.683594 1.496094 7.65625 1.488281 L 7.511719 1.457031 C 7.414062 1.4375 7.316406 1.5 7.296875 1.601562 L 7.269531 1.722656 L 6.722656 1.957031 L 6.554688 1.769531 C 6.53125 1.738281 6.511719 1.71875 6.484375 1.6875 C 6.453125 1.652344 6.410156 1.636719 6.363281 1.636719 C 6.34375 1.640625 6.316406 1.640625 6.285156 1.644531 C 6.050781 1.851562 5.703125 1.878906 5.441406 1.707031 C 5.402344 1.703125 5.371094 1.699219 5.34375 1.699219 C 5.300781 1.699219 5.214844 1.761719 5.175781 1.789062 L 3.308594 3.132812 C 3.207031 3.199219 3.175781 3.339844 3.242188 3.445312 L 3.210938 3.40625 C 3.21875 3.421875 3.234375 3.4375 3.246094 3.449219 L 2.46875 3.785156 C 2.117188 3.769531 1.910156 3.523438 1.261719 3.839844 C 1.042969 3.949219 0.882812 4.21875 1.136719 4.640625 C 1.386719 5.058594 1.660156 4.863281 1.839844 4.773438 C 2.199219 4.59375 2.328125 4.164062 2.550781 3.988281 L 2.734375 3.910156 C 2.734375 3.90625 2.738281 3.90625 2.738281 3.90625 L 4.875 2.984375 L 4.703125 4.398438 L 6.5625 4.398438 L 6.5625 2.519531 C 6.5625 2.519531 7.074219 3.164062 7.152344 3.179688 C 7.152344 3.179688 7.234375 3.273438 7.335938 3.242188 C 7.433594 3.207031 7.464844 3.175781 7.515625 3.066406 L 7.816406 1.699219 L 9.175781 1.113281 C 9.589844 1.085938 10.015625 1.226562 10.546875 0.929688 C 10.699219 0.84375 10.796875 0.675781 10.542969 0.257812 Z M 4.90625 2.738281 L 4.167969 3.054688 L 4.925781 2.5625 Z M 7.125 2.414062 L 6.867188 2.121094 L 7.21875 1.96875 Z M 7.125 2.414062 "/>
</g>
</svg>
