<?xml version="1.0" encoding="UTF-8" standalone="no"?>
<!-- Created with Inkscape (http://www.inkscape.org/) -->

<svg
   xmlns:dc="http://purl.org/dc/elements/1.1/"
   xmlns:cc="http://creativecommons.org/ns#"
   xmlns:rdf="http://www.w3.org/1999/02/22-rdf-syntax-ns#"
   xmlns:svg="http://www.w3.org/2000/svg"
   xmlns="http://www.w3.org/2000/svg"
   xmlns:xlink="http://www.w3.org/1999/xlink"
   xmlns:sodipodi="http://sodipodi.sourceforge.net/DTD/sodipodi-0.dtd"
   xmlns:inkscape="http://www.inkscape.org/namespaces/inkscape"
   width="30px"
   height="30px"
   version="1.1"
   id="svg8"
   inkscape:version="0.92.4 5da689c313, 2019-01-14"
   sodipodi:docname="container.svg">
  <defs
     id="defs2" />
  <sodipodi:namedview
     id="base"
     pagecolor="#ffffff"
     bordercolor="#666666"
     borderopacity="1.0"
     inkscape:pageopacity="0.0"
     inkscape:pageshadow="2"
     inkscape:zoom="13.049334"
     inkscape:cx="18.679046"
     inkscape:cy="12.165829"
     inkscape:document-units="px"
     inkscape:current-layer="layer1"
     showgrid="false"
     inkscape:snap-page="false"
     units="px"
     inkscape:window-width="1884"
     inkscape:window-height="1061"
     inkscape:window-x="0"
     inkscape:window-y="0"
     inkscape:window-maximized="1"
     fit-margin-top="0"
     fit-margin-left="0"
     fit-margin-right="0"
     fit-margin-bottom="0" />
  <metadata
     id="metadata5">
    <rdf:RDF>
      <cc:Work
         rdf:about="">
        <dc:format>image/svg+xml</dc:format>
        <dc:type
           rdf:resource="http://purl.org/dc/dcmitype/StillImage" />
        <dc:title></dc:title>
      </cc:Work>
    </rdf:RDF>
  </metadata>
    <circle
       style="color:#000000;clip-rule:nonzero;display:inline;overflow:visible;visibility:visible;opacity:1;isolation:auto;mix-blend-mode:normal;color-interpolation:sRGB;color-interpolation-filters:linearRGB;solid-color:#000000;solid-opacity:1;vector-effect:none;fill:#ffffff;fill-opacity:1;fill-rule:evenodd;stroke:rgba(255, 255, 255, 1);stroke-width:1;stroke-linecap:butt;stroke-linejoin:miter;stroke-miterlimit:4;stroke-dasharray:none;stroke-dashoffset:0;stroke-opacity:1;marker:none;color-rendering:auto;image-rendering:auto;shape-rendering:auto;text-rendering:auto;enable-background:accumulate"
       id="path815"
       cx="15"
       cy="15"
       r="14.5" />
<g transform="translate(6,8)"><g id="surface1">
<path style=" stroke:none;fill-rule:nonzero;fill:rgb(30%,30%,30%);fill-opacity:1;" d="M 13.652344 6.382812 C 13 6.382812 12.363281 6.574219 11.816406 6.929688 L 10.445312 5.273438 L 10.917969 3.871094 C 10.917969 3.867188 10.917969 3.867188 10.917969 3.867188 L 11.644531 3.867188 C 11.804688 3.867188 11.933594 3.738281 11.933594 3.578125 C 11.933594 3.417969 11.804688 3.289062 11.644531 3.289062 L 9.339844 3.28125 L 9.335938 3.28125 C 9.179688 3.28125 9.046875 3.410156 9.046875 3.570312 C 9.046875 3.730469 9.175781 3.859375 9.335938 3.863281 L 10.222656 3.863281 L 9.917969 4.765625 L 5.433594 4.746094 L 5.417969 4.726562 C 5.410156 4.714844 5.398438 4.699219 5.382812 4.6875 L 5.648438 3.910156 L 6.65625 3.910156 C 6.839844 3.910156 6.988281 3.761719 6.988281 3.578125 C 6.988281 3.394531 6.839844 3.246094 6.65625 3.246094 L 5.171875 3.246094 L 4.503906 5.226562 L 4.085938 6.460938 C 2.277344 6.058594 0.484375 7.195312 0.0820312 9.003906 C -0.324219 10.808594 0.816406 12.601562 2.621094 13.007812 C 4.429688 13.410156 6.222656 12.273438 6.625 10.464844 C 6.972656 8.90625 6.171875 7.316406 4.710938 6.667969 L 5.128906 5.449219 L 8.363281 9.828125 C 8.425781 9.914062 8.523438 9.960938 8.628906 9.960938 C 8.636719 9.960938 8.644531 9.960938 8.652344 9.960938 C 8.660156 9.960938 8.667969 9.960938 8.671875 9.960938 L 10.3125 9.960938 C 10.441406 11.808594 12.039062 13.199219 13.882812 13.070312 C 15.726562 12.941406 17.121094 11.34375 16.992188 9.5 C 16.871094 7.742188 15.410156 6.382812 13.652344 6.382812 Z M 6.042969 9.730469 C 6.042969 10.867188 5.332031 11.878906 4.265625 12.261719 C 3.195312 12.648438 2.003906 12.320312 1.28125 11.441406 C 0.558594 10.566406 0.464844 9.332031 1.042969 8.355469 C 1.625 7.382812 2.753906 6.875 3.871094 7.09375 L 3.039062 9.539062 C 2.980469 9.710938 3.070312 9.898438 3.246094 9.957031 C 3.417969 10.015625 3.605469 9.925781 3.664062 9.75 L 4.5 7.296875 C 5.441406 7.742188 6.042969 8.6875 6.042969 9.730469 Z M 12.921875 9.300781 L 11 9.300781 C 11.085938 8.757812 11.339844 8.253906 11.726562 7.859375 Z M 11.300781 7.347656 C 10.769531 7.871094 10.425781 8.558594 10.332031 9.300781 L 9.089844 9.300781 L 10.195312 6.011719 Z M 9.695312 5.425781 L 8.519531 8.925781 L 5.925781 5.410156 Z M 13.652344 12.417969 C 12.257812 12.417969 11.097656 11.351562 10.972656 9.960938 L 13.605469 9.960938 C 13.734375 9.957031 13.851562 9.878906 13.90625 9.761719 C 13.960938 9.640625 13.941406 9.503906 13.863281 9.402344 L 12.242188 7.445312 C 13.210938 6.847656 14.453125 6.925781 15.339844 7.640625 C 16.226562 8.355469 16.5625 9.550781 16.183594 10.625 C 15.804688 11.699219 14.789062 12.417969 13.652344 12.417969 Z M 13.652344 12.417969 "/>
<path style=" stroke:none;fill-rule:nonzero;fill:rgb(30%,30%,30%);fill-opacity:1;" d="M 11.941406 0.00390625 C 11.378906 0 10.878906 0.355469 10.6875 0.882812 L 6.425781 0.882812 C 6.265625 0.414062 5.851562 0.078125 5.359375 0.0117188 C 4.867188 -0.0546875 4.382812 0.164062 4.105469 0.574219 C 4.0625 0.632812 4.058594 0.710938 4.09375 0.773438 C 4.125 0.835938 4.191406 0.875 4.261719 0.875 L 5.128906 0.875 C 5.316406 0.875 5.464844 1.023438 5.464844 1.207031 L 5.464844 1.398438 C 5.464844 1.625 5.277344 1.8125 5.050781 1.8125 L 4.308594 1.8125 C 4.234375 1.8125 4.167969 1.851562 4.136719 1.917969 C 4.105469 1.984375 4.113281 2.0625 4.15625 2.117188 C 4.445312 2.488281 4.914062 2.675781 5.378906 2.605469 C 5.84375 2.539062 6.234375 2.226562 6.40625 1.789062 L 10.695312 1.789062 C 10.929688 2.425781 11.597656 2.785156 12.253906 2.628906 C 12.910156 2.46875 13.347656 1.847656 13.265625 1.175781 C 13.1875 0.507812 12.617188 0 11.941406 0.00390625 Z M 11.941406 1.847656 C 11.652344 1.84375 11.417969 1.609375 11.421875 1.316406 C 11.425781 1.027344 11.660156 0.792969 11.949219 0.792969 C 12.242188 0.796875 12.476562 1.03125 12.476562 1.320312 C 12.476562 1.460938 12.417969 1.597656 12.320312 1.695312 C 12.21875 1.796875 12.082031 1.851562 11.941406 1.847656 Z M 11.941406 1.847656 "/>
</g>
</g>
</svg>
