<?xml version="1.0" encoding="UTF-8"?>
<svg xmlns="http://www.w3.org/2000/svg" xmlns:xlink="http://www.w3.org/1999/xlink" width="11" height="7.767911" viewBox="0 0 11 7.767911" version="1.1">
<g id="surface1">
<path style=" stroke:none;fill-rule:nonzero;fill:rgb(30%,30%,30%);fill-opacity:1;" d="M 11 3.765625 L 9.472656 3.097656 L 8.09375 0 L 0 0.0195312 L 0 6.582031 L 1.363281 6.582031 C 1.359375 6.625 1.355469 6.667969 1.355469 6.710938 C 1.355469 7.296875 1.804688 7.769531 2.359375 7.769531 C 2.910156 7.769531 3.359375 7.296875 3.359375 6.710938 C 3.359375 6.667969 3.355469 6.625 3.351562 6.582031 L 8.257812 6.582031 C 8.25 6.621094 8.246094 6.65625 8.246094 6.695312 C 8.246094 7.277344 8.695312 7.75 9.25 7.75 C 9.800781 7.75 10.25 7.277344 10.25 6.695312 C 10.25 6.65625 10.246094 6.621094 10.242188 6.582031 L 11 6.582031 Z M 2.738281 6.011719 L 2.527344 6.015625 C 2.414062 6.015625 2.316406 5.914062 2.316406 5.789062 L 2.277344 3.285156 L 1.894531 2.480469 C 1.867188 2.425781 1.839844 2.277344 1.84375 2.265625 L 1.839844 2.039062 L 1.824219 0.832031 C 1.824219 0.800781 1.828125 0.769531 1.839844 0.742188 L 1.90625 0.597656 C 1.914062 0.574219 1.933594 0.574219 1.941406 0.59375 L 2.011719 0.742188 C 2.023438 0.769531 2.03125 0.796875 2.03125 0.828125 L 2.046875 1.921875 L 2.257812 1.917969 L 2.242188 0.824219 C 2.242188 0.792969 2.25 0.765625 2.261719 0.738281 L 2.324219 0.589844 C 2.335938 0.566406 2.351562 0.566406 2.363281 0.589844 L 2.433594 0.734375 C 2.445312 0.761719 2.453125 0.789062 2.453125 0.820312 L 2.46875 1.914062 L 2.679688 1.910156 L 2.664062 0.816406 C 2.664062 0.789062 2.667969 0.757812 2.679688 0.730469 L 2.746094 0.582031 C 2.757812 0.558594 2.773438 0.558594 2.785156 0.582031 L 2.851562 0.726562 C 2.863281 0.753906 2.871094 0.785156 2.871094 0.8125 L 2.890625 1.90625 L 3.097656 1.90625 L 3.082031 0.808594 C 3.082031 0.78125 3.089844 0.75 3.101562 0.722656 L 3.167969 0.574219 C 3.175781 0.554688 3.191406 0.554688 3.203125 0.574219 L 3.273438 0.71875 C 3.285156 0.746094 3.292969 0.777344 3.292969 0.804688 L 3.3125 2.015625 L 3.3125 2.242188 C 3.3125 2.316406 3.296875 2.390625 3.269531 2.457031 L 2.910156 3.273438 L 2.945312 5.78125 C 2.945312 5.90625 2.855469 6.011719 2.738281 6.011719 Z M 5.046875 5.972656 L 4.835938 5.976562 C 4.722656 5.980469 4.625 5.878906 4.625 5.753906 L 4.597656 3.929688 C 4.597656 3.929688 3.964844 3.734375 3.957031 3.253906 C 3.953125 2.777344 3.933594 1.617188 3.933594 1.617188 C 3.933594 1.429688 4.046875 1.1875 4.1875 1.082031 L 4.917969 0.539062 C 5.058594 0.433594 5.179688 0.5 5.179688 0.6875 L 5.253906 5.742188 C 5.257812 5.867188 5.164062 5.972656 5.046875 5.972656 Z M 6.722656 3.058594 L 6.730469 1.296875 L 8.292969 1.296875 L 9.117188 3.058594 Z M 6.722656 3.058594 "/>
</g>
</svg>
