<?xml version="1.0" encoding="UTF-8"?>
<svg xmlns="http://www.w3.org/2000/svg" xmlns:xlink="http://www.w3.org/1999/xlink" width="11" height="9.216665" viewBox="0 0 11 9.216665" version="1.1">
<g id="surface1">
<path style=" stroke:none;fill-rule:nonzero;fill:rgb(30%,30%,30%);fill-opacity:1;" d="M 8.550781 0.0664062 C 8.203125 -0.0429688 7.859375 -0.0195312 7.539062 0.144531 C 7.035156 0.398438 6.605469 0.984375 6.300781 1.816406 L 5.417969 1.5625 C 5.238281 1.511719 5.046875 1.609375 4.984375 1.785156 L 3.152344 7.035156 C 3.117188 7.160156 3.195312 7.296875 3.328125 7.335938 L 9.523438 9.207031 C 9.660156 9.246094 9.792969 9.171875 9.820312 9.042969 L 10.992188 3.578125 C 11.03125 3.398438 10.925781 3.21875 10.75 3.164062 L 9.65625 2.832031 C 9.914062 1.351562 9.53125 0.378906 8.550781 0.0664062 M 6.644531 1.917969 C 6.917969 1.183594 7.292969 0.660156 7.714844 0.445312 C 7.953125 0.324219 8.207031 0.304688 8.460938 0.386719 C 9.027344 0.566406 9.601562 1.125 9.320312 2.730469 Z M 6.644531 1.917969 "/>
<path style=" stroke:none;fill-rule:nonzero;fill:rgb(30%,30%,30%);fill-opacity:1;" d="M 1.394531 2.386719 L 4.183594 2.386719 C 4.289062 2.386719 4.394531 2.289062 4.386719 2.179688 C 4.382812 2.066406 4.296875 1.972656 4.183594 1.972656 L 1.394531 1.972656 C 1.285156 1.972656 1.183594 2.066406 1.1875 2.179688 C 1.195312 2.289062 1.277344 2.386719 1.394531 2.386719 Z M 1.394531 2.386719 "/>
<path style=" stroke:none;fill-rule:nonzero;fill:rgb(30%,30%,30%);fill-opacity:1;" d="M 0.207031 3.871094 L 3.816406 3.871094 C 3.925781 3.871094 4.027344 3.773438 4.023438 3.664062 C 4.019531 3.550781 3.933594 3.457031 3.816406 3.457031 L 0.207031 3.457031 C 0.0976562 3.457031 -0.00390625 3.550781 0 3.664062 C 0.00390625 3.777344 0.0898438 3.871094 0.207031 3.871094 Z M 0.207031 3.871094 "/>
<path style=" stroke:none;fill-rule:nonzero;fill:rgb(30%,30%,30%);fill-opacity:1;" d="M 0.480469 5.402344 L 3.222656 5.402344 C 3.332031 5.402344 3.433594 5.304688 3.429688 5.195312 C 3.421875 5.082031 3.339844 4.988281 3.222656 4.988281 L 0.480469 4.988281 C 0.371094 4.988281 0.269531 5.082031 0.273438 5.195312 C 0.28125 5.308594 0.363281 5.402344 0.480469 5.402344 Z M 0.480469 5.402344 "/>
</g>
</svg>
