<?xml version="1.0" encoding="UTF-8"?>
<svg xmlns="http://www.w3.org/2000/svg" xmlns:xlink="http://www.w3.org/1999/xlink" width="11" height="9.951034" viewBox="0 0 11 9.951034" version="1.1">
<g id="surface1">
<path style=" stroke:none;fill-rule:nonzero;fill:rgb(30%,30%,30%);fill-opacity:1;" d="M 1.597656 1.960938 L 4.882812 2.960938 L 6.824219 1.242188 L 7.742188 4.195312 L 10.863281 5.949219 L 8.148438 6.769531 L 8.128906 9.570312 L 5.53125 7.128906 L 2.402344 7.105469 L 3.515625 4.773438 Z M 1.597656 1.960938 "/>
<path style=" stroke:none;fill-rule:nonzero;fill:rgb(30%,30%,30%);fill-opacity:1;" d="M 11 6.648438 C 10.992188 6.972656 10.941406 7.296875 10.847656 7.609375 C 10.800781 7.765625 10.738281 7.917969 10.667969 8.0625 C 10.597656 8.210938 10.511719 8.351562 10.417969 8.484375 C 10.226562 8.753906 9.992188 8.988281 9.726562 9.183594 C 9.59375 9.28125 9.457031 9.371094 9.3125 9.449219 C 9.164062 9.527344 9.015625 9.59375 8.859375 9.652344 C 8.703125 9.710938 8.546875 9.761719 8.386719 9.800781 C 8.226562 9.84375 8.0625 9.875 7.898438 9.898438 C 7.734375 9.921875 7.566406 9.9375 7.398438 9.945312 C 7.234375 9.953125 7.066406 9.953125 6.898438 9.945312 C 6.734375 9.941406 6.566406 9.925781 6.402344 9.90625 C 6.234375 9.886719 6.070312 9.859375 5.90625 9.828125 C 5.574219 9.761719 5.25 9.675781 4.933594 9.566406 C 4.773438 9.511719 4.617188 9.453125 4.460938 9.390625 C 4.304688 9.324219 4.152344 9.253906 4 9.179688 C 3.699219 9.03125 3.402344 8.863281 3.121094 8.675781 C 2.835938 8.492188 2.566406 8.285156 2.308594 8.0625 C 2.273438 8.035156 2.242188 8.007812 2.210938 7.980469 C 2.179688 7.949219 2.148438 7.921875 2.117188 7.894531 C 2.085938 7.863281 2.054688 7.835938 2.023438 7.804688 L 1.929688 7.71875 C 1.808594 7.597656 1.6875 7.472656 1.574219 7.34375 C 1.546875 7.3125 1.519531 7.28125 1.492188 7.25 L 1.40625 7.148438 C 1.378906 7.117188 1.351562 7.082031 1.324219 7.050781 C 1.300781 7.015625 1.273438 6.984375 1.246094 6.949219 C 1.191406 6.878906 1.140625 6.8125 1.089844 6.742188 C 1.066406 6.707031 1.042969 6.667969 1.015625 6.632812 L 0.945312 6.527344 L 0.875 6.417969 L 0.804688 6.304688 C 0.78125 6.269531 0.761719 6.230469 0.738281 6.195312 C 0.71875 6.15625 0.695312 6.117188 0.675781 6.078125 C 0.589844 5.925781 0.511719 5.769531 0.441406 5.609375 C 0.300781 5.285156 0.1875 4.945312 0.109375 4.601562 C 0.03125 4.246094 -0.00390625 3.886719 0 3.523438 C 0.0078125 3.152344 0.0703125 2.785156 0.179688 2.433594 C 0.238281 2.253906 0.3125 2.082031 0.398438 1.914062 C 0.417969 1.871094 0.441406 1.832031 0.464844 1.789062 C 0.476562 1.769531 0.488281 1.75 0.5 1.730469 C 0.511719 1.707031 0.523438 1.6875 0.539062 1.667969 L 0.574219 1.609375 L 0.59375 1.578125 L 0.617188 1.550781 L 0.65625 1.492188 C 0.671875 1.472656 0.683594 1.457031 0.699219 1.4375 C 0.753906 1.363281 0.816406 1.289062 0.878906 1.21875 C 0.941406 1.148438 1.007812 1.082031 1.074219 1.019531 C 1.210938 0.890625 1.355469 0.777344 1.511719 0.671875 C 1.664062 0.570312 1.824219 0.480469 1.988281 0.402344 C 2.152344 0.324219 2.324219 0.257812 2.496094 0.203125 C 2.835938 0.0976562 3.1875 0.0351562 3.542969 0.0117188 C 3.714844 0 3.890625 -0.00390625 4.066406 0.00390625 C 4.238281 0.0078125 4.414062 0.0234375 4.582031 0.046875 C 4.921875 0.0898438 5.257812 0.160156 5.585938 0.257812 C 5.910156 0.351562 6.226562 0.472656 6.535156 0.609375 C 6.6875 0.679688 6.839844 0.753906 6.984375 0.832031 C 7.132812 0.910156 7.277344 0.996094 7.421875 1.082031 C 7.5625 1.167969 7.703125 1.261719 7.839844 1.355469 C 7.976562 1.453125 8.109375 1.550781 8.238281 1.65625 C 8.367188 1.757812 8.496094 1.863281 8.617188 1.972656 C 8.742188 2.085938 8.859375 2.199219 8.976562 2.316406 C 9.09375 2.429688 9.207031 2.550781 9.316406 2.675781 C 9.425781 2.796875 9.53125 2.925781 9.632812 3.054688 C 9.734375 3.183594 9.832031 3.316406 9.921875 3.449219 C 10.015625 3.585938 10.105469 3.722656 10.1875 3.863281 L 10.25 3.96875 L 10.308594 4.078125 C 10.328125 4.113281 10.347656 4.148438 10.367188 4.1875 C 10.386719 4.222656 10.402344 4.257812 10.421875 4.296875 C 10.457031 4.367188 10.492188 4.441406 10.527344 4.515625 C 10.5625 4.589844 10.59375 4.667969 10.625 4.742188 C 10.683594 4.894531 10.738281 5.046875 10.789062 5.203125 C 10.835938 5.359375 10.875 5.515625 10.910156 5.675781 C 10.972656 5.996094 11.003906 6.320312 11 6.648438 Z M 11 6.648438 C 11.003906 6.320312 10.972656 5.996094 10.902344 5.679688 C 10.867188 5.519531 10.820312 5.363281 10.769531 5.207031 C 10.71875 5.054688 10.660156 4.902344 10.59375 4.753906 C 10.5625 4.679688 10.527344 4.605469 10.492188 4.535156 C 10.457031 4.460938 10.417969 4.390625 10.378906 4.316406 C 10.300781 4.175781 10.214844 4.039062 10.128906 3.902344 C 10.039062 3.765625 9.945312 3.636719 9.84375 3.507812 C 9.746094 3.378906 9.640625 3.253906 9.535156 3.136719 C 9.320312 2.894531 9.089844 2.667969 8.84375 2.460938 C 8.597656 2.25 8.339844 2.058594 8.074219 1.882812 C 7.804688 1.707031 7.527344 1.550781 7.242188 1.410156 C 7.097656 1.339844 6.953125 1.273438 6.804688 1.214844 C 6.660156 1.15625 6.511719 1.097656 6.363281 1.046875 C 6.210938 1 6.0625 0.953125 5.910156 0.914062 C 5.757812 0.871094 5.605469 0.835938 5.449219 0.808594 C 5.296875 0.777344 5.144531 0.753906 4.988281 0.738281 C 4.835938 0.71875 4.683594 0.707031 4.527344 0.703125 C 4.375 0.695312 4.222656 0.695312 4.070312 0.703125 C 3.917969 0.710938 3.769531 0.726562 3.617188 0.75 C 3.472656 0.769531 3.324219 0.800781 3.179688 0.835938 C 3.039062 0.875 2.898438 0.917969 2.761719 0.972656 C 2.625 1.023438 2.496094 1.082031 2.367188 1.152344 C 2.242188 1.21875 2.121094 1.296875 2.007812 1.382812 C 1.898438 1.464844 1.792969 1.558594 1.691406 1.65625 C 1.667969 1.679688 1.644531 1.707031 1.621094 1.730469 C 1.609375 1.746094 1.597656 1.757812 1.585938 1.769531 L 1.554688 1.808594 C 1.507812 1.863281 1.464844 1.917969 1.425781 1.972656 C 1.347656 2.085938 1.277344 2.203125 1.21875 2.328125 L 1.195312 2.375 C 1.1875 2.390625 1.179688 2.40625 1.175781 2.421875 C 1.160156 2.453125 1.148438 2.484375 1.132812 2.515625 C 1.132812 2.523438 1.128906 2.53125 1.125 2.542969 L 1.117188 2.566406 L 1.097656 2.613281 C 1.085938 2.648438 1.078125 2.679688 1.066406 2.710938 C 0.984375 2.984375 0.941406 3.261719 0.9375 3.542969 C 0.929688 3.832031 0.957031 4.125 1.015625 4.40625 C 1.078125 4.699219 1.164062 4.980469 1.273438 5.257812 C 1.332031 5.394531 1.390625 5.535156 1.457031 5.667969 C 1.476562 5.703125 1.492188 5.738281 1.511719 5.769531 C 1.527344 5.804688 1.546875 5.835938 1.5625 5.871094 L 1.617188 5.96875 L 1.675781 6.070312 L 1.734375 6.167969 L 1.796875 6.265625 C 1.835938 6.328125 1.878906 6.394531 1.921875 6.457031 C 1.941406 6.488281 1.964844 6.519531 1.988281 6.550781 C 2.007812 6.582031 2.03125 6.613281 2.054688 6.644531 L 2.125 6.738281 C 2.148438 6.765625 2.167969 6.796875 2.195312 6.828125 C 2.242188 6.890625 2.289062 6.949219 2.339844 7.007812 L 2.414062 7.097656 L 2.488281 7.183594 L 2.566406 7.269531 C 2.59375 7.300781 2.621094 7.328125 2.644531 7.355469 C 2.671875 7.386719 2.699219 7.414062 2.726562 7.441406 C 2.753906 7.46875 2.78125 7.496094 2.808594 7.523438 C 2.917969 7.632812 3.03125 7.742188 3.144531 7.84375 C 3.261719 7.949219 3.382812 8.050781 3.503906 8.148438 C 3.625 8.246094 3.75 8.339844 3.878906 8.429688 C 4.007812 8.519531 4.136719 8.605469 4.273438 8.6875 C 4.40625 8.773438 4.542969 8.851562 4.679688 8.925781 C 4.820312 9 4.960938 9.070312 5.105469 9.132812 C 5.394531 9.265625 5.691406 9.378906 5.992188 9.46875 C 6.296875 9.5625 6.609375 9.628906 6.921875 9.667969 C 7.082031 9.691406 7.238281 9.703125 7.398438 9.710938 C 7.558594 9.714844 7.71875 9.714844 7.875 9.703125 C 8.195312 9.683594 8.511719 9.628906 8.820312 9.535156 C 8.972656 9.488281 9.121094 9.429688 9.265625 9.359375 C 9.414062 9.292969 9.554688 9.214844 9.6875 9.125 C 9.820312 9.035156 9.949219 8.9375 10.066406 8.824219 C 10.125 8.769531 10.183594 8.710938 10.238281 8.652344 C 10.289062 8.59375 10.34375 8.53125 10.390625 8.464844 C 10.402344 8.449219 10.417969 8.433594 10.429688 8.417969 L 10.464844 8.367188 L 10.480469 8.34375 L 10.496094 8.316406 L 10.53125 8.265625 C 10.542969 8.25 10.550781 8.234375 10.5625 8.214844 C 10.574219 8.199219 10.585938 8.179688 10.59375 8.164062 C 10.613281 8.128906 10.632812 8.09375 10.652344 8.054688 C 10.726562 7.910156 10.789062 7.761719 10.839844 7.605469 C 10.9375 7.296875 10.992188 6.972656 11 6.648438 Z M 11 6.648438 "/>
</g>
</svg>
