<?xml version="1.0" encoding="UTF-8"?>
<svg xmlns="http://www.w3.org/2000/svg" xmlns:xlink="http://www.w3.org/1999/xlink" width="10.543976" height="11" viewBox="0 0 10.543976 11" version="1.1">
<g id="surface1">
<path style=" stroke:none;fill-rule:nonzero;fill:rgb(30%,30%,30%);fill-opacity:1;" d="M 10.355469 3.785156 L 8.835938 3.777344 C 8.746094 3.789062 8.675781 3.859375 8.671875 3.941406 L 8.671875 4.367188 L 10.542969 4.378906 L 10.542969 3.953125 C 10.542969 3.863281 10.460938 3.785156 10.355469 3.785156 Z M 10.355469 3.785156 "/>
<path style=" stroke:none;fill-rule:nonzero;fill:rgb(30%,30%,30%);fill-opacity:1;" d="M 10.457031 5.609375 C 10.398438 5.554688 10.34375 5.507812 10.289062 5.460938 C 10.253906 5.433594 10.234375 5.386719 10.234375 5.34375 L 10.242188 5.015625 C 10.242188 4.988281 10.246094 4.960938 10.257812 4.933594 C 10.289062 4.859375 10.390625 4.808594 10.472656 4.730469 C 10.496094 4.714844 10.511719 4.6875 10.511719 4.65625 L 10.519531 4.496094 L 8.65625 4.484375 L 8.65625 4.644531 C 8.65625 4.667969 8.667969 4.691406 8.683594 4.710938 C 8.734375 4.769531 8.789062 4.824219 8.847656 4.878906 C 8.898438 4.921875 8.925781 4.988281 8.925781 5.054688 L 8.921875 5.347656 C 8.921875 5.394531 8.898438 5.4375 8.863281 5.464844 C 8.816406 5.507812 8.765625 5.550781 8.710938 5.597656 C 8.675781 5.628906 8.652344 5.671875 8.652344 5.71875 L 8.632812 8.464844 C 8.617188 8.785156 8.847656 8.722656 9.207031 8.742188 L 9.863281 8.746094 C 10.328125 8.734375 10.480469 8.796875 10.496094 8.429688 L 10.515625 5.730469 C 10.515625 5.683594 10.492188 5.640625 10.457031 5.609375 Z M 10.457031 5.609375 "/>
<path style=" stroke:none;fill-rule:nonzero;fill:rgb(30%,30%,30%);fill-opacity:1;" d="M 10.078125 3.664062 C 10.074219 3.65625 10.074219 3.546875 10.074219 3.539062 C 10.046875 3.414062 9.957031 3.378906 9.875 3.375 L 9.3125 3.367188 C 9.304688 3.367188 9.300781 3.371094 9.292969 3.371094 C 9.242188 3.375 9.203125 3.386719 9.195312 3.394531 C 9.132812 3.4375 9.09375 3.507812 9.09375 3.585938 L 9.089844 3.679688 L 10.074219 3.6875 Z M 10.078125 3.664062 "/>
<path style=" stroke:none;fill-rule:nonzero;fill:rgb(30%,30%,30%);fill-opacity:1;" d="M 9.21875 3.0625 L 9.398438 3.0625 L 9.398438 3.242188 L 9.777344 3.246094 L 9.78125 3.066406 L 9.933594 3.066406 C 9.996094 3.066406 10.046875 3.023438 10.046875 2.96875 C 10.046875 2.914062 9.996094 2.867188 9.933594 2.867188 L 9.222656 2.863281 C 9.160156 2.863281 9.109375 2.90625 9.105469 2.960938 C 9.105469 3.015625 9.15625 3.0625 9.21875 3.0625 Z M 9.21875 3.0625 "/>
<path style=" stroke:none;fill-rule:nonzero;fill:rgb(30%,30%,30%);fill-opacity:1;" d="M 2.476562 8.480469 C 2.769531 8.074219 3.269531 7.765625 3.753906 7.691406 C 3.9375 7.664062 4.109375 7.671875 4.265625 7.710938 L 1.535156 6.238281 C -0.632812 6.472656 0.222656 8.488281 0.222656 8.488281 L 2.496094 10.660156 C 2.320312 10.382812 2.207031 10.070312 2.167969 9.746094 C 2.113281 9.277344 2.222656 8.828125 2.476562 8.480469 Z M 2.476562 8.480469 "/>
<path style=" stroke:none;fill-rule:nonzero;fill:rgb(30%,30%,30%);fill-opacity:1;" d="M 5.050781 9.121094 C 4.972656 9.503906 4.710938 9.863281 4.363281 10.066406 C 4.117188 10.210938 3.863281 10.25 3.640625 10.179688 C 3.339844 10.082031 3.105469 9.78125 3.074219 9.445312 C 3.03125 9.007812 3.335938 8.582031 3.800781 8.429688 C 3.910156 8.394531 4.027344 8.453125 4.066406 8.5625 C 4.101562 8.671875 4.039062 8.792969 3.929688 8.828125 C 3.652344 8.917969 3.46875 9.160156 3.492188 9.402344 C 3.507812 9.566406 3.632812 9.734375 3.769531 9.777344 C 3.875 9.8125 4.011719 9.785156 4.152344 9.703125 C 4.394531 9.5625 4.585938 9.300781 4.640625 9.035156 C 4.695312 8.765625 4.621094 8.398438 4.375 8.214844 C 4.199219 8.082031 3.972656 8.085938 3.816406 8.109375 C 3.445312 8.164062 3.042969 8.414062 2.816406 8.726562 C 2.574219 9.066406 2.554688 9.441406 2.585938 9.695312 C 2.625 10.027344 2.761719 10.351562 2.964844 10.582031 C 3.074219 10.707031 3.261719 10.878906 3.648438 11 L 10.042969 9.714844 L 6.839844 8.152344 L 4.996094 8.390625 C 5.003906 8.410156 5.011719 8.429688 5.015625 8.449219 C 5.082031 8.667969 5.09375 8.898438 5.050781 9.121094 Z M 5.050781 9.121094 "/>
<path style=" stroke:none;fill-rule:nonzero;fill:rgb(30%,30%,30%);fill-opacity:1;" d="M 3.015625 1.570312 C 3.824219 1.570312 4.476562 2.222656 4.476562 3.027344 C 4.476562 3.832031 3.824219 4.484375 3.015625 4.484375 C 2.207031 4.484375 1.554688 3.832031 1.554688 3.027344 C 1.554688 2.222656 2.207031 1.570312 3.015625 1.570312 Z M 1.625 1.847656 L 0 1.765625 L 1.199219 2.847656 C 1.234375 2.476562 1.382812 2.128906 1.625 1.847656 Z M 2.859375 1.210938 L 1.765625 0 L 1.847656 1.625 C 2.136719 1.386719 2.488281 1.242188 2.859375 1.210938 Z M 4.832031 2.84375 L 6.027344 1.765625 L 4.40625 1.847656 C 4.648438 2.128906 4.796875 2.476562 4.832031 2.84375 Z M 4.179688 1.621094 L 4.261719 0 L 3.167969 1.210938 C 3.539062 1.242188 3.890625 1.386719 4.179688 1.621094 Z M 1.847656 4.425781 L 1.765625 6.027344 L 2.835938 4.839844 C 2.472656 4.804688 2.128906 4.660156 1.847656 4.425781 Z M 4.429688 4.179688 L 6.027344 4.261719 L 4.835938 3.183594 C 4.804688 3.550781 4.660156 3.898438 4.429688 4.179688 Z M 3.191406 4.839844 L 4.261719 6.027344 L 4.179688 4.429688 C 3.898438 4.664062 3.554688 4.804688 3.191406 4.839844 Z M 1.195312 3.179688 L 0 4.261719 L 1.601562 4.179688 C 1.367188 3.894531 1.226562 3.546875 1.195312 3.179688 Z M 1.195312 3.179688 "/>
</g>
</svg>
