<?xml version="1.0" encoding="UTF-8"?>
<svg xmlns="http://www.w3.org/2000/svg" xmlns:xlink="http://www.w3.org/1999/xlink" width="9.067703" height="11" viewBox="0 0 9.067703 11" version="1.1">
<g id="surface1">
<path style=" stroke:none;fill-rule:nonzero;fill:rgb(30%,30%,30%);fill-opacity:1;" d="M 7.15625 0 L 9.066406 0 L 9.066406 2.175781 L 7.15625 2.175781 Z M 7.15625 0 "/>
<path style=" stroke:none;fill-rule:nonzero;fill:rgb(30%,30%,30%);fill-opacity:1;" d="M 6.332031 5.707031 L 2.746094 5.707031 L 2.746094 2.648438 L 4.246094 2.648438 L 4.152344 2.789062 C 4.058594 2.933594 3.820312 3.324219 4.015625 3.59375 C 4.265625 3.933594 4.699219 3.671875 4.863281 3.554688 L 6.140625 2.648438 L 6.332031 2.648438 Z M 6.332031 5.707031 "/>
<path style=" stroke:none;fill-rule:nonzero;fill:rgb(30%,30%,30%);fill-opacity:1;" d="M 8.050781 4.558594 L 6.550781 4.570312 L 6.550781 5.324219 L 7.003906 5.324219 L 7.1875 5.988281 L 1.871094 5.988281 L 2.074219 5.324219 L 2.515625 5.324219 L 2.515625 4.570312 L 0.976562 4.570312 L 0 6.761719 L 0 7.609375 L 0.464844 7.609375 L 0.464844 11 L 8.605469 11 L 8.605469 7.609375 L 9.066406 7.609375 L 9.066406 6.761719 Z M 8.050781 4.558594 "/>
<path style=" stroke:none;fill-rule:nonzero;fill:rgb(30%,30%,30%);fill-opacity:1;" d="M 6.925781 0.273438 L 5.75 0.261719 C 5.6875 0.261719 5.628906 0.277344 5.578125 0.308594 L 4.226562 1.144531 C 4.132812 1.203125 4.0625 1.292969 4.019531 1.394531 L 3.632812 2.414062 L 4.386719 2.414062 L 4.582031 1.90625 C 4.609375 1.839844 4.660156 1.789062 4.726562 1.765625 C 4.851562 1.71875 5.070312 1.667969 5.238281 1.777344 C 5.421875 1.894531 4.738281 2.511719 4.265625 3.0625 C 4.253906 3.074219 4.253906 3.09375 4.242188 3.105469 C 4.136719 3.261719 4.179688 3.660156 4.386719 3.582031 C 4.605469 3.5 6.09375 2.425781 6.398438 2.203125 C 6.433594 2.175781 6.457031 2.140625 6.472656 2.101562 L 6.558594 1.832031 C 6.574219 1.785156 6.601562 1.742188 6.636719 1.710938 L 6.953125 1.429688 Z M 6.925781 0.273438 "/>
</g>
</svg>
