<?xml version="1.0" encoding="UTF-8"?>
<svg xmlns="http://www.w3.org/2000/svg" xmlns:xlink="http://www.w3.org/1999/xlink" width="11" height="11" viewBox="0 0 11 11" version="1.1">
<g id="surface1">
<path style=" stroke:none;fill-rule:nonzero;fill:rgb(30%,30%,30%);fill-opacity:1;" d="M 8.828125 5.144531 L 7.257812 4.347656 C 7.25 4.339844 7.242188 4.335938 7.238281 4.324219 C 7.226562 4.304688 7.21875 4.285156 7.207031 4.269531 L 6.355469 2.898438 C 6.191406 2.636719 6.027344 2.535156 5.796875 2.535156 L 5.230469 2.535156 C 5.050781 2.535156 4.890625 2.644531 4.816406 2.800781 L 4.175781 2.800781 C 4.15625 2.800781 4.140625 2.8125 4.132812 2.828125 L 3.6875 3.78125 C 3.683594 3.789062 3.683594 3.792969 3.683594 3.800781 L 3.683594 5.523438 C 3.683594 5.550781 3.703125 5.574219 3.730469 5.574219 L 4.722656 5.574219 C 4.75 5.574219 4.773438 5.59375 4.773438 5.621094 L 4.773438 5.652344 C 4.773438 5.660156 4.769531 5.664062 4.765625 5.671875 L 2.777344 10.089844 C 2.667969 10.328125 2.777344 10.613281 3.015625 10.71875 C 3.257812 10.828125 3.542969 10.71875 3.648438 10.480469 L 5.386719 6.625 C 5.394531 6.605469 5.410156 6.59375 5.429688 6.59375 L 5.6875 6.59375 C 5.707031 6.59375 5.726562 6.605469 5.734375 6.625 L 6.785156 8.996094 L 6.003906 10.753906 C 5.96875 10.835938 6.003906 10.933594 6.089844 10.96875 C 6.109375 10.980469 6.132812 10.984375 6.15625 10.984375 C 6.21875 10.984375 6.277344 10.949219 6.304688 10.886719 L 6.964844 9.402344 L 7.429688 10.449219 C 7.539062 10.691406 7.820312 10.796875 8.0625 10.691406 C 8.304688 10.585938 8.410156 10.300781 8.304688 10.0625 L 7.496094 8.238281 C 7.492188 8.230469 7.492188 8.21875 7.496094 8.210938 L 8.621094 5.6875 C 8.785156 5.757812 8.976562 5.683594 9.050781 5.519531 C 9.09375 5.339844 8.996094 5.21875 8.828125 5.144531 Z M 7.3125 7.820312 L 6.257812 5.453125 C 6.257812 5.445312 6.253906 5.441406 6.253906 5.433594 L 6.253906 4.21875 C 6.253906 4.171875 6.3125 4.152344 6.339844 4.191406 L 6.585938 4.515625 C 6.714844 4.679688 6.765625 4.828125 6.882812 4.878906 L 8.320312 5.550781 Z M 6.375 1.429688 C 6.375 1.90625 5.988281 2.292969 5.511719 2.292969 C 5.035156 2.292969 4.648438 1.90625 4.648438 1.429688 C 4.648438 0.953125 5.035156 0.570312 5.511719 0.570312 C 5.988281 0.570312 6.375 0.953125 6.375 1.429688 Z M 6.375 1.429688 "/>
</g>
</svg>
