<?xml version="1.0" encoding="UTF-8" standalone="no"?>
<!-- Created with Inkscape (http://www.inkscape.org/) -->

<svg
   xmlns:dc="http://purl.org/dc/elements/1.1/"
   xmlns:cc="http://creativecommons.org/ns#"
   xmlns:rdf="http://www.w3.org/1999/02/22-rdf-syntax-ns#"
   xmlns:svg="http://www.w3.org/2000/svg"
   xmlns="http://www.w3.org/2000/svg"
   xmlns:xlink="http://www.w3.org/1999/xlink"
   xmlns:sodipodi="http://sodipodi.sourceforge.net/DTD/sodipodi-0.dtd"
   xmlns:inkscape="http://www.inkscape.org/namespaces/inkscape"
   width="30px"
   height="30px"
   version="1.1"
   id="svg8"
   inkscape:version="0.92.4 5da689c313, 2019-01-14"
   sodipodi:docname="container.svg">
  <defs
     id="defs2" />
  <sodipodi:namedview
     id="base"
     pagecolor="#ffffff"
     bordercolor="#666666"
     borderopacity="1.0"
     inkscape:pageopacity="0.0"
     inkscape:pageshadow="2"
     inkscape:zoom="13.049334"
     inkscape:cx="18.679046"
     inkscape:cy="12.165829"
     inkscape:document-units="px"
     inkscape:current-layer="layer1"
     showgrid="false"
     inkscape:snap-page="false"
     units="px"
     inkscape:window-width="1884"
     inkscape:window-height="1061"
     inkscape:window-x="0"
     inkscape:window-y="0"
     inkscape:window-maximized="1"
     fit-margin-top="0"
     fit-margin-left="0"
     fit-margin-right="0"
     fit-margin-bottom="0" />
  <metadata
     id="metadata5">
    <rdf:RDF>
      <cc:Work
         rdf:about="">
        <dc:format>image/svg+xml</dc:format>
        <dc:type
           rdf:resource="http://purl.org/dc/dcmitype/StillImage" />
        <dc:title></dc:title>
      </cc:Work>
    </rdf:RDF>
  </metadata>
    <circle
       style="color:#000000;clip-rule:nonzero;display:inline;overflow:visible;visibility:visible;opacity:1;isolation:auto;mix-blend-mode:normal;color-interpolation:sRGB;color-interpolation-filters:linearRGB;solid-color:#000000;solid-opacity:1;vector-effect:none;fill:#ffffff;fill-opacity:1;fill-rule:evenodd;stroke:rgba(255, 255, 255, 1);stroke-width:1;stroke-linecap:butt;stroke-linejoin:miter;stroke-miterlimit:4;stroke-dasharray:none;stroke-dashoffset:0;stroke-opacity:1;marker:none;color-rendering:auto;image-rendering:auto;shape-rendering:auto;text-rendering:auto;enable-background:accumulate"
       id="path815"
       cx="15"
       cy="15"
       r="14.5" />
<g transform="translate(7,6)"><g id="surface1">
<path style=" stroke:none;fill-rule:nonzero;fill:rgb(30%,30%,30%);fill-opacity:1;" d="M 16 5.851562 L 13.65625 5.839844 C 13.515625 5.855469 13.40625 5.960938 13.402344 6.09375 L 13.398438 6.75 L 16.289062 6.769531 L 16.296875 6.113281 C 16.296875 5.96875 16.164062 5.851562 16 5.851562 Z M 16 5.851562 "/>
<path style=" stroke:none;fill-rule:nonzero;fill:rgb(30%,30%,30%);fill-opacity:1;" d="M 16.164062 8.671875 C 16.066406 8.585938 15.984375 8.511719 15.902344 8.441406 C 15.851562 8.394531 15.820312 8.328125 15.820312 8.257812 L 15.828125 7.753906 C 15.828125 7.710938 15.835938 7.667969 15.855469 7.628906 C 15.902344 7.511719 16.054688 7.429688 16.1875 7.3125 C 16.222656 7.285156 16.242188 7.242188 16.246094 7.199219 L 16.257812 6.949219 L 13.378906 6.929688 L 13.378906 7.179688 C 13.378906 7.214844 13.394531 7.253906 13.417969 7.28125 C 13.5 7.371094 13.585938 7.457031 13.675781 7.539062 C 13.753906 7.605469 13.796875 7.707031 13.796875 7.808594 L 13.789062 8.265625 C 13.785156 8.335938 13.753906 8.402344 13.699219 8.445312 C 13.625 8.511719 13.546875 8.578125 13.460938 8.652344 C 13.40625 8.699219 13.371094 8.765625 13.371094 8.839844 L 13.34375 13.082031 C 13.320312 13.578125 13.675781 13.480469 14.226562 13.507812 L 15.246094 13.515625 C 15.964844 13.496094 16.199219 13.597656 16.222656 13.027344 L 16.25 8.855469 C 16.25 8.785156 16.21875 8.71875 16.164062 8.671875 Z M 16.164062 8.671875 "/>
<path style=" stroke:none;fill-rule:nonzero;fill:rgb(30%,30%,30%);fill-opacity:1;" d="M 15.574219 5.664062 C 15.570312 5.652344 15.570312 5.480469 15.566406 5.46875 C 15.527344 5.277344 15.386719 5.21875 15.257812 5.21875 L 14.394531 5.203125 C 14.382812 5.207031 14.371094 5.207031 14.359375 5.210938 C 14.285156 5.21875 14.226562 5.234375 14.210938 5.246094 C 14.113281 5.3125 14.054688 5.421875 14.050781 5.542969 L 14.050781 5.6875 L 15.570312 5.695312 Z M 15.574219 5.664062 "/>
<path style=" stroke:none;fill-rule:nonzero;fill:rgb(30%,30%,30%);fill-opacity:1;" d="M 14.25 4.730469 L 14.523438 4.734375 L 14.523438 5.011719 L 15.113281 5.015625 L 15.113281 4.738281 L 15.347656 4.738281 C 15.445312 4.738281 15.527344 4.671875 15.527344 4.585938 C 15.527344 4.503906 15.449219 4.433594 15.351562 4.433594 L 14.253906 4.425781 C 14.15625 4.425781 14.074219 4.492188 14.074219 4.578125 C 14.074219 4.660156 14.152344 4.730469 14.25 4.730469 Z M 14.25 4.730469 "/>
<path style=" stroke:none;fill-rule:nonzero;fill:rgb(30%,30%,30%);fill-opacity:1;" d="M 3.828125 13.105469 C 4.277344 12.480469 5.050781 12.003906 5.800781 11.886719 C 6.082031 11.84375 6.351562 11.855469 6.59375 11.914062 L 2.371094 9.640625 C -0.976562 10 0.347656 13.121094 0.347656 13.121094 L 3.859375 16.472656 C 3.582031 16.046875 3.410156 15.5625 3.351562 15.0625 C 3.269531 14.339844 3.4375 13.644531 3.828125 13.105469 Z M 3.828125 13.105469 "/>
<path style=" stroke:none;fill-rule:nonzero;fill:rgb(30%,30%,30%);fill-opacity:1;" d="M 7.804688 14.097656 C 7.683594 14.683594 7.277344 15.246094 6.746094 15.554688 C 6.363281 15.777344 5.96875 15.839844 5.628906 15.730469 C 5.164062 15.582031 4.800781 15.113281 4.75 14.59375 C 4.683594 13.921875 5.15625 13.261719 5.871094 13.027344 C 6.042969 12.96875 6.226562 13.0625 6.28125 13.234375 C 6.339844 13.40625 6.246094 13.589844 6.074219 13.644531 C 5.644531 13.785156 5.359375 14.15625 5.398438 14.53125 C 5.421875 14.785156 5.613281 15.042969 5.828125 15.113281 C 5.988281 15.164062 6.199219 15.121094 6.417969 14.996094 C 6.789062 14.777344 7.085938 14.375 7.167969 13.964844 C 7.253906 13.546875 7.140625 12.980469 6.761719 12.695312 C 6.488281 12.492188 6.140625 12.492188 5.898438 12.53125 C 5.324219 12.621094 4.703125 13.003906 4.355469 13.484375 C 3.976562 14.007812 3.949219 14.589844 3.996094 14.988281 C 4.054688 15.5 4.269531 15.996094 4.582031 16.351562 C 4.75 16.542969 5.039062 16.808594 5.640625 17 L 15.519531 15.015625 L 10.570312 12.597656 L 7.722656 12.96875 C 7.730469 13 7.742188 13.03125 7.753906 13.058594 C 7.855469 13.394531 7.875 13.75 7.804688 14.097656 Z M 7.804688 14.097656 "/>
<path style=" stroke:none;fill-rule:nonzero;fill:rgb(30%,30%,30%);fill-opacity:1;" d="M 4.660156 2.425781 C 5.90625 2.425781 6.917969 3.433594 6.917969 4.675781 C 6.917969 5.921875 5.90625 6.929688 4.660156 6.929688 C 3.414062 6.929688 2.402344 5.921875 2.402344 4.675781 C 2.402344 3.433594 3.414062 2.425781 4.660156 2.425781 Z M 2.507812 2.855469 L 0 2.726562 L 1.851562 4.398438 C 1.90625 3.828125 2.136719 3.292969 2.507812 2.855469 Z M 4.417969 1.875 L 2.726562 0 L 2.855469 2.511719 C 3.300781 2.144531 3.84375 1.921875 4.417969 1.875 Z M 7.46875 4.394531 L 9.3125 2.726562 L 6.8125 2.855469 C 7.183594 3.289062 7.410156 3.824219 7.46875 4.394531 Z M 6.457031 2.507812 L 6.585938 0 L 4.894531 1.871094 C 5.46875 1.917969 6.015625 2.140625 6.457031 2.507812 Z M 2.855469 6.839844 L 2.726562 9.3125 L 4.382812 7.480469 C 3.820312 7.425781 3.289062 7.203125 2.855469 6.839844 Z M 6.84375 6.460938 L 9.3125 6.585938 L 7.472656 4.921875 C 7.421875 5.488281 7.203125 6.023438 6.84375 6.460938 Z M 4.929688 7.480469 L 6.585938 9.3125 L 6.460938 6.847656 C 6.023438 7.207031 5.492188 7.425781 4.929688 7.480469 Z M 1.847656 4.917969 L 0 6.585938 L 2.476562 6.460938 C 2.113281 6.019531 1.894531 5.480469 1.847656 4.917969 Z M 1.847656 4.917969 "/>
</g>
</g>
</svg>
