<?xml version="1.0" encoding="UTF-8" standalone="no"?>
<!-- Created with Inkscape (http://www.inkscape.org/) -->

<svg
   xmlns:dc="http://purl.org/dc/elements/1.1/"
   xmlns:cc="http://creativecommons.org/ns#"
   xmlns:rdf="http://www.w3.org/1999/02/22-rdf-syntax-ns#"
   xmlns:svg="http://www.w3.org/2000/svg"
   xmlns="http://www.w3.org/2000/svg"
   xmlns:xlink="http://www.w3.org/1999/xlink"
   xmlns:sodipodi="http://sodipodi.sourceforge.net/DTD/sodipodi-0.dtd"
   xmlns:inkscape="http://www.inkscape.org/namespaces/inkscape"
   width="30px"
   height="30px"
   version="1.1"
   id="svg8"
   inkscape:version="0.92.4 5da689c313, 2019-01-14"
   sodipodi:docname="container.svg">
  <defs
     id="defs2" />
  <sodipodi:namedview
     id="base"
     pagecolor="#ffffff"
     bordercolor="#666666"
     borderopacity="1.0"
     inkscape:pageopacity="0.0"
     inkscape:pageshadow="2"
     inkscape:zoom="13.049334"
     inkscape:cx="18.679046"
     inkscape:cy="12.165829"
     inkscape:document-units="px"
     inkscape:current-layer="layer1"
     showgrid="false"
     inkscape:snap-page="false"
     units="px"
     inkscape:window-width="1884"
     inkscape:window-height="1061"
     inkscape:window-x="0"
     inkscape:window-y="0"
     inkscape:window-maximized="1"
     fit-margin-top="0"
     fit-margin-left="0"
     fit-margin-right="0"
     fit-margin-bottom="0" />
  <metadata
     id="metadata5">
    <rdf:RDF>
      <cc:Work
         rdf:about="">
        <dc:format>image/svg+xml</dc:format>
        <dc:type
           rdf:resource="http://purl.org/dc/dcmitype/StillImage" />
        <dc:title></dc:title>
      </cc:Work>
    </rdf:RDF>
  </metadata>
    <circle
       style="color:#000000;clip-rule:nonzero;display:inline;overflow:visible;visibility:visible;opacity:1;isolation:auto;mix-blend-mode:normal;color-interpolation:sRGB;color-interpolation-filters:linearRGB;solid-color:#000000;solid-opacity:1;vector-effect:none;fill:#ffffff;fill-opacity:1;fill-rule:evenodd;stroke:rgba(255, 255, 255, 1);stroke-width:1;stroke-linecap:butt;stroke-linejoin:miter;stroke-miterlimit:4;stroke-dasharray:none;stroke-dashoffset:0;stroke-opacity:1;marker:none;color-rendering:auto;image-rendering:auto;shape-rendering:auto;text-rendering:auto;enable-background:accumulate"
       id="path815"
       cx="15"
       cy="15"
       r="14.5" />
<g transform="translate(9,6)"><g id="surface1">
<path style=" stroke:none;fill-rule:nonzero;fill:rgb(30%,30%,30%);fill-opacity:1;" d="M 1.394531 5.867188 L 9.632812 5.867188 C 9.691406 5.867188 9.746094 5.832031 9.773438 5.777344 C 9.796875 5.722656 9.785156 5.65625 9.746094 5.613281 L 8.289062 4.042969 C 8.261719 4.015625 8.25 3.980469 8.25 3.941406 L 8.25 0.152344 C 8.25 0.0664062 8.179688 0 8.097656 0 L 2.898438 0 C 2.8125 0 2.746094 0.0664062 2.746094 0.152344 L 2.746094 4 C 2.746094 4.039062 2.730469 4.074219 2.703125 4.105469 L 1.28125 5.613281 C 1.242188 5.65625 1.230469 5.71875 1.253906 5.777344 C 1.277344 5.832031 1.332031 5.867188 1.394531 5.867188 Z M 1.394531 5.867188 "/>
<path style=" stroke:none;fill-rule:nonzero;fill:rgb(30%,30%,30%);fill-opacity:1;" d="M 5.496094 9.371094 L 0 9.371094 L 0 17 L 11.199219 17 L 11.199219 9.371094 Z M 7.195312 10.242188 C 7.359375 10.242188 7.488281 10.371094 7.488281 10.535156 C 7.488281 10.695312 7.359375 10.824219 7.195312 10.824219 C 7.035156 10.824219 6.90625 10.695312 6.90625 10.535156 C 6.90625 10.371094 7.035156 10.242188 7.195312 10.242188 Z M 6.144531 10.214844 C 6.308594 10.214844 6.4375 10.347656 6.4375 10.507812 C 6.4375 10.667969 6.308594 10.796875 6.144531 10.796875 C 5.984375 10.796875 5.855469 10.667969 5.855469 10.507812 C 5.855469 10.347656 5.984375 10.214844 6.144531 10.214844 Z M 4.792969 10.242188 C 4.953125 10.242188 5.085938 10.371094 5.085938 10.535156 C 5.085938 10.695312 4.953125 10.824219 4.792969 10.824219 C 4.632812 10.824219 4.503906 10.695312 4.503906 10.535156 C 4.503906 10.371094 4.632812 10.242188 4.792969 10.242188 Z M 3.742188 10.214844 C 3.90625 10.214844 4.035156 10.347656 4.035156 10.507812 C 4.035156 10.667969 3.90625 10.796875 3.742188 10.796875 C 3.582031 10.796875 3.453125 10.667969 3.453125 10.507812 C 3.453125 10.347656 3.582031 10.214844 3.742188 10.214844 Z M 8.226562 15.3125 L 2.835938 15.3125 L 2.835938 11.992188 L 8.226562 11.992188 Z M 8.226562 15.3125 "/>
</g>
</g>
</svg>
