<?xml version="1.0" encoding="UTF-8"?>
<svg xmlns="http://www.w3.org/2000/svg" xmlns:xlink="http://www.w3.org/1999/xlink" width="11" height="8.40825" viewBox="0 0 11 8.40825" version="1.1">
<g id="surface1">
<path style=" stroke:none;fill-rule:nonzero;fill:rgb(30%,30%,30%);fill-opacity:1;" d="M 10.527344 3.636719 L 10.203125 3.636719 C 10.835938 2.835938 11.148438 2.203125 10.933594 2.023438 C 10.785156 1.902344 10.398438 1.941406 9.910156 2.253906 C 10.160156 2.253906 10.351562 2.308594 10.480469 2.421875 C 10.503906 2.441406 10.507812 2.476562 10.488281 2.5 C 10.46875 2.523438 10.433594 2.523438 10.410156 2.503906 C 10.246094 2.363281 9.980469 2.347656 9.734375 2.375 C 9.585938 2.484375 9.445312 2.601562 9.316406 2.734375 C 9.535156 2.703125 9.710938 2.742188 9.828125 2.789062 C 10 2.859375 10.09375 2.957031 10.09375 2.960938 C 10.113281 2.980469 10.113281 3.011719 10.097656 3.035156 C 10.097656 3.035156 10.09375 3.039062 10.09375 3.039062 C 10.070312 3.058594 10.035156 3.058594 10.015625 3.035156 C 10.011719 3.035156 9.933594 2.949219 9.78125 2.890625 C 9.597656 2.816406 9.394531 2.8125 9.175781 2.875 C 9.117188 2.941406 9.054688 3.011719 8.992188 3.085938 C 8.953125 3.132812 8.914062 3.175781 8.878906 3.222656 C 9.117188 3.179688 9.304688 3.222656 9.425781 3.273438 C 9.601562 3.34375 9.691406 3.441406 9.695312 3.445312 C 9.714844 3.46875 9.714844 3.503906 9.691406 3.523438 C 9.667969 3.542969 9.636719 3.542969 9.613281 3.519531 C 9.613281 3.519531 9.53125 3.433594 9.382812 3.375 C 9.195312 3.300781 8.992188 3.296875 8.773438 3.359375 C 8.714844 3.4375 8.660156 3.515625 8.609375 3.59375 L 8.472656 3.589844 C 8.460938 3.570312 8.445312 3.550781 8.425781 3.53125 L 8.160156 3.269531 C 8.121094 3.234375 8.101562 3.183594 8.101562 3.132812 L 8.089844 2.136719 C 8.09375 2.128906 8.097656 2.121094 8.105469 2.121094 C 8.113281 2.125 8.121094 2.117188 8.121094 2.109375 L 8.121094 1.898438 C 8.121094 1.847656 8.074219 1.808594 8.015625 1.808594 L 7.714844 1.808594 C 7.660156 1.808594 7.613281 1.851562 7.613281 1.902344 L 7.613281 2.113281 C 7.617188 2.121094 7.621094 2.128906 7.628906 2.125 C 7.636719 2.125 7.644531 2.132812 7.644531 2.140625 L 7.652344 3.136719 C 7.652344 3.1875 7.632812 3.238281 7.597656 3.273438 L 7.332031 3.542969 C 7.308594 3.570312 7.285156 3.601562 7.269531 3.636719 L 5.632812 3.636719 L 8.84375 0.453125 C 8.894531 0.402344 8.898438 0.316406 8.847656 0.261719 L 8.746094 0.140625 C 8.71875 0.113281 8.683594 0.09375 8.644531 0.09375 C 8.605469 0.09375 8.570312 0.109375 8.542969 0.136719 L 5.339844 3.308594 L 5.339844 0.460938 C 5.339844 0.207031 5.132812 0 4.878906 0 L 4.421875 0 C 4.167969 0 3.960938 0.207031 3.960938 0.460938 L 3.960938 3.472656 L 0.140625 3.472656 C 0.0625 3.472656 0 3.535156 0 3.613281 L 0 3.855469 C 0 3.933594 0.0625 3.996094 0.140625 3.996094 L 0.265625 3.996094 C 0.332031 3.996094 0.390625 4.046875 0.402344 4.113281 L 0.992188 7.722656 C 0.996094 7.765625 0.984375 7.804688 0.957031 7.835938 C 0.933594 7.867188 0.894531 7.886719 0.851562 7.886719 C 0.773438 7.886719 0.710938 7.949219 0.710938 8.027344 L 0.710938 8.269531 C 0.710938 8.34375 0.773438 8.410156 0.851562 8.410156 L 8.320312 8.410156 C 8.398438 8.410156 8.460938 8.34375 8.460938 8.269531 L 8.460938 7.976562 C 8.460938 7.925781 8.421875 7.886719 8.371094 7.886719 C 8.347656 7.886719 8.320312 7.875 8.304688 7.855469 C 8.289062 7.835938 8.28125 7.808594 8.285156 7.785156 L 8.527344 6.15625 C 8.511719 6.171875 7.960938 6.171875 7.960938 6.171875 L 7.960938 6.777344 L 7.398438 6.777344 C 7.402344 6.589844 7.398438 6.363281 7.398438 6.171875 C 7.582031 6.171875 7.769531 6.171875 7.960938 6.171875 C 7.960938 5.960938 7.960938 5.75 7.960938 5.542969 C 8.148438 5.542969 8.332031 5.542969 8.523438 5.542969 C 8.523438 5.546875 8.523438 5.550781 8.519531 5.546875 L 8.527344 6.15625 C 8.714844 5.949219 8.898438 5.746094 9.085938 5.539062 C 8.898438 5.539062 8.710938 5.539062 8.527344 5.539062 C 8.523438 5.328125 8.523438 5.121094 8.523438 4.917969 C 8.710938 4.914062 8.898438 4.914062 9.085938 4.914062 C 9.085938 4.917969 9.085938 4.925781 9.085938 4.929688 C 9.085938 5.125 9.085938 5.324219 9.085938 5.519531 C 9.089844 5.523438 9.089844 5.527344 9.089844 5.53125 C 9.273438 5.324219 9.460938 5.117188 9.648438 4.910156 C 9.46875 4.910156 9.285156 4.910156 9.105469 4.910156 C 9.101562 4.910156 9.09375 4.910156 9.089844 4.910156 C 9.089844 4.703125 9.085938 4.496094 9.085938 4.289062 C 9.273438 4.289062 9.460938 4.289062 9.648438 4.285156 C 9.648438 4.289062 9.648438 4.296875 9.648438 4.304688 C 9.648438 4.5 9.652344 4.695312 9.652344 4.890625 C 9.652344 4.894531 9.652344 4.898438 9.652344 4.90625 C 9.839844 4.695312 10.023438 4.488281 10.210938 4.28125 C 10.03125 4.28125 9.851562 4.28125 9.667969 4.28125 C 9.664062 4.28125 9.65625 4.28125 9.652344 4.28125 C 9.652344 4.132812 9.652344 3.984375 9.652344 3.832031 L 10.214844 3.832031 C 10.214844 3.933594 10.214844 4.035156 10.214844 4.136719 L 10.527344 4.136719 C 10.601562 4.136719 10.625 4.015625 10.625 3.9375 L 10.625 3.734375 C 10.625 3.679688 10.582031 3.636719 10.527344 3.636719 Z M 4.566406 4.277344 L 4.089844 3.824219 L 4.566406 3.824219 C 4.566406 3.980469 4.566406 4.207031 4.566406 4.277344 Z M 4.589844 4.300781 C 4.769531 4.300781 4.949219 4.300781 5.128906 4.300781 C 5.128906 4.46875 5.128906 4.640625 5.128906 4.816406 Z M 5.132812 3.824219 L 5.699219 3.824219 C 5.699219 4.003906 5.695312 4.277344 5.695312 4.292969 C 5.507812 4.292969 5.320312 4.292969 5.136719 4.292969 C 5.132812 4.136719 5.132812 3.980469 5.132812 3.824219 Z M 5.246094 4.925781 C 5.394531 4.925781 5.546875 4.925781 5.695312 4.921875 C 5.695312 5.066406 5.695312 5.210938 5.695312 5.355469 Z M 5.902344 5.550781 C 6.019531 5.550781 6.140625 5.550781 6.261719 5.550781 C 6.261719 5.664062 6.261719 5.777344 6.261719 5.894531 Z M 6.261719 4.917969 C 6.074219 4.917969 5.886719 4.917969 5.699219 4.917969 C 5.699219 4.710938 5.699219 4.503906 5.699219 4.300781 C 5.882812 4.296875 6.070312 4.296875 6.257812 4.296875 C 6.261719 4.304688 6.265625 4.894531 6.261719 4.917969 Z M 6.261719 3.832031 L 6.824219 3.832031 C 6.824219 3.984375 6.824219 4.136719 6.824219 4.289062 C 6.8125 4.292969 6.285156 4.292969 6.265625 4.292969 C 6.261719 4.136719 6.261719 3.984375 6.261719 3.832031 Z M 6.265625 4.921875 C 6.449219 4.921875 6.640625 4.921875 6.824219 4.921875 C 6.824219 5.125 6.824219 5.335938 6.828125 5.539062 C 6.640625 5.542969 6.453125 5.542969 6.265625 5.542969 C 6.265625 5.335938 6.265625 5.128906 6.265625 4.921875 Z M 6.554688 6.175781 C 6.648438 6.175781 6.738281 6.175781 6.828125 6.175781 C 6.828125 6.261719 6.828125 6.347656 6.828125 6.433594 Z M 6.828125 4.292969 C 7.015625 4.292969 7.203125 4.292969 7.386719 4.292969 C 7.386719 4.5 7.386719 4.707031 7.390625 4.914062 C 7.203125 4.914062 7.015625 4.914062 6.832031 4.914062 C 6.828125 4.707031 6.828125 4.5 6.828125 4.292969 Z M 6.835938 6.167969 C 6.832031 5.960938 6.832031 5.753906 6.832031 5.550781 C 7.015625 5.546875 7.203125 5.546875 7.390625 5.546875 C 7.390625 5.75 7.390625 5.960938 7.390625 6.167969 C 7.207031 6.167969 7.019531 6.167969 6.835938 6.167969 Z M 7.949219 3.832031 C 7.953125 3.984375 7.953125 4.132812 7.953125 4.285156 C 7.765625 4.285156 7.578125 4.285156 7.394531 4.285156 C 7.394531 4.136719 7.394531 3.984375 7.390625 3.832031 Z M 7.394531 5.539062 C 7.394531 5.332031 7.394531 5.125 7.394531 4.921875 C 7.582031 4.921875 7.769531 4.917969 7.953125 4.917969 C 7.953125 5.125 7.953125 5.332031 7.957031 5.535156 C 7.769531 5.539062 7.582031 5.539062 7.394531 5.539062 Z M 7.960938 4.914062 C 7.960938 4.707031 7.957031 4.496094 7.957031 4.289062 C 8.144531 4.289062 8.332031 4.289062 8.515625 4.289062 C 8.515625 4.496094 8.515625 4.703125 8.515625 4.910156 C 8.511719 4.914062 7.976562 4.914062 7.960938 4.914062 Z M 8.523438 4.28125 C 8.523438 4.132812 8.523438 3.984375 8.523438 3.832031 L 9.082031 3.832031 C 9.082031 3.980469 9.082031 4.132812 9.082031 4.28125 C 8.898438 4.28125 8.710938 4.28125 8.523438 4.28125 Z M 8.523438 4.28125 "/>
</g>
</svg>
