<?xml version="1.0" encoding="UTF-8"?>
<svg xmlns="http://www.w3.org/2000/svg" xmlns:xlink="http://www.w3.org/1999/xlink" width="11" height="11" viewBox="0 0 11 11" version="1.1">
<g id="surface1">
<path style=" stroke:none;fill-rule:nonzero;fill:rgb(30%,30%,30%);fill-opacity:1;" d="M 9.898438 6.875 C 10.105469 6.015625 9.574219 5.152344 8.714844 4.945312 C 8.410156 4.875 8.089844 4.890625 7.796875 4.996094 L 7.339844 4.074219 L 7.71875 3.472656 L 8.054688 3.554688 C 8.066406 3.558594 8.078125 3.558594 8.085938 3.558594 C 8.164062 3.558594 8.226562 3.496094 8.226562 3.417969 C 8.226562 3.355469 8.179688 3.300781 8.117188 3.285156 L 7.046875 3.027344 C 6.972656 3.007812 6.894531 3.050781 6.875 3.121094 C 6.855469 3.195312 6.898438 3.273438 6.96875 3.292969 C 6.972656 3.292969 6.976562 3.296875 6.980469 3.296875 L 7.390625 3.394531 L 7.152344 3.78125 L 5.066406 3.273438 L 5.0625 3.265625 C 5.058594 3.257812 5.054688 3.25 5.050781 3.242188 L 5.257812 2.910156 L 5.726562 3.023438 C 5.8125 3.042969 5.898438 2.992188 5.917969 2.90625 C 5.9375 2.820312 5.886719 2.734375 5.800781 2.714844 L 5.113281 2.550781 L 4.585938 3.390625 L 4.253906 3.921875 C 4.148438 3.871094 4.039062 3.832031 3.925781 3.800781 C 3.066406 3.597656 2.199219 4.128906 1.996094 4.988281 C 1.898438 5.402344 1.96875 5.835938 2.1875 6.199219 C 2.296875 6.375 2.4375 6.53125 2.605469 6.652344 L 2.4375 6.84375 L 1.222656 5.695312 C 1.132812 5.609375 0.988281 5.613281 0.902344 5.703125 C 0.8125 5.796875 0.820312 5.941406 0.910156 6.027344 L 2.292969 7.339844 C 2.386719 7.425781 2.53125 7.421875 2.617188 7.328125 C 2.617188 7.328125 2.621094 7.324219 2.621094 7.324219 L 2.878906 7.027344 C 3.421875 7.039062 3.730469 7.0625 4.019531 7.082031 L 5.109375 8.0625 C 5.164062 8.117188 5.246094 8.136719 5.320312 8.117188 L 6.878906 7.703125 L 9.445312 9.023438 C 9.476562 9.039062 9.511719 9.046875 9.546875 9.046875 C 9.671875 9.046875 9.777344 8.945312 9.777344 8.820312 C 9.777344 8.734375 9.726562 8.65625 9.652344 8.617188 L 8.613281 8.082031 C 9.242188 7.972656 9.75 7.5 9.898438 6.875 Z M 8.046875 6.222656 L 7.152344 6.007812 C 7.253906 5.765625 7.429688 5.558594 7.652344 5.417969 Z M 7.511719 5.132812 C 7.207031 5.316406 6.972656 5.597656 6.84375 5.933594 L 6.265625 5.792969 L 7.148438 4.386719 Z M 6.980469 4.058594 L 6.042969 5.558594 L 5.882812 5.179688 C 5.835938 5.183594 5.785156 5.160156 5.765625 5.113281 L 5.539062 4.597656 C 5.523438 4.570312 5.523438 4.535156 5.539062 4.503906 C 5.535156 4.503906 5.53125 4.5 5.53125 4.496094 L 5.523438 4.476562 C 5.523438 4.472656 5.523438 4.464844 5.523438 4.460938 C 5.496094 4.453125 5.46875 4.433594 5.457031 4.40625 L 5.433594 4.351562 C 5.414062 4.304688 5.433594 4.253906 5.476562 4.234375 L 5.480469 4.230469 L 5.226562 3.632812 Z M 2.746094 6.363281 C 2.359375 6.054688 2.183594 5.546875 2.300781 5.0625 L 2.308594 5.0625 C 2.445312 4.484375 2.960938 4.074219 3.554688 4.074219 C 3.738281 4.074219 3.921875 4.113281 4.089844 4.1875 L 3.425781 5.234375 C 3.378906 5.308594 3.398438 5.410156 3.472656 5.457031 C 3.546875 5.503906 3.644531 5.480469 3.691406 5.40625 L 4.351562 4.359375 C 4.90625 4.804688 4.996094 5.613281 4.554688 6.167969 C 4.109375 6.71875 3.300781 6.808594 2.746094 6.363281 Z M 6.855469 7.238281 L 5.328125 7.644531 L 4.339844 6.75 L 4.390625 6.722656 C 5.144531 6.261719 5.382812 5.273438 4.917969 4.519531 C 4.816406 4.351562 4.679688 4.207031 4.523438 4.085938 L 4.851562 3.5625 L 5.871094 5.960938 C 5.890625 6.007812 5.933594 6.042969 5.984375 6.054688 C 5.988281 6.054688 5.996094 6.054688 6 6.058594 L 6.761719 6.242188 C 6.703125 6.582031 6.757812 6.929688 6.914062 7.234375 C 6.894531 7.234375 6.875 7.234375 6.855469 7.238281 Z M 8.742188 7.726562 C 8.515625 7.800781 8.273438 7.808594 8.039062 7.753906 L 8.046875 7.75 C 7.992188 7.738281 7.9375 7.722656 7.886719 7.699219 L 7.632812 7.574219 C 7.21875 7.296875 7 6.804688 7.074219 6.3125 L 8.292969 6.605469 C 8.304688 6.609375 8.316406 6.609375 8.332031 6.609375 C 8.421875 6.605469 8.496094 6.527344 8.492188 6.4375 C 8.488281 6.414062 8.484375 6.394531 8.476562 6.375 L 7.941406 5.285156 C 8.613281 5.0625 9.339844 5.429688 9.5625 6.101562 C 9.78125 6.777344 9.414062 7.503906 8.742188 7.726562 Z M 6.855469 7.238281 C 6.851562 7.238281 6.851562 7.238281 6.851562 7.238281 Z M 5.871094 4.363281 C 5.871094 4.359375 5.871094 4.355469 5.867188 4.351562 L 5.859375 4.335938 C 5.859375 4.328125 5.855469 4.324219 5.851562 4.320312 C 5.863281 4.296875 5.867188 4.265625 5.855469 4.238281 L 5.828125 4.179688 C 5.808594 4.136719 5.753906 4.113281 5.710938 4.136719 L 5.648438 4.164062 C 5.652344 4.160156 5.652344 4.15625 5.648438 4.152344 L 5.628906 4.109375 L 5.640625 4.101562 C 5.648438 4.101562 5.652344 4.089844 5.652344 4.078125 C 5.644531 4.070312 5.636719 4.066406 5.625 4.070312 L 5.519531 4.117188 C 5.511719 4.121094 5.503906 4.132812 5.507812 4.140625 C 5.511719 4.152344 5.519531 4.15625 5.53125 4.152344 C 5.53125 4.152344 5.53125 4.152344 5.535156 4.152344 L 5.546875 4.144531 L 5.566406 4.1875 C 5.566406 4.191406 5.570312 4.195312 5.574219 4.195312 L 5.511719 4.222656 C 5.46875 4.242188 5.445312 4.296875 5.46875 4.339844 L 5.492188 4.398438 C 5.503906 4.425781 5.53125 4.445312 5.558594 4.449219 C 5.558594 4.457031 5.558594 4.460938 5.558594 4.46875 L 5.566406 4.488281 C 5.566406 4.488281 5.570312 4.496094 5.574219 4.496094 C 5.558594 4.527344 5.558594 4.5625 5.574219 4.589844 L 5.800781 5.105469 C 5.828125 5.160156 5.894531 5.1875 5.953125 5.160156 L 6.113281 5.089844 C 6.167969 5.066406 6.195312 4.996094 6.167969 4.941406 C 6.167969 4.941406 6.167969 4.9375 6.167969 4.9375 L 5.941406 4.425781 C 5.925781 4.394531 5.902344 4.375 5.871094 4.363281 Z M 5.871094 4.363281 "/>
</g>
</svg>
