<?xml version="1.0" encoding="UTF-8"?>
<svg xmlns="http://www.w3.org/2000/svg" xmlns:xlink="http://www.w3.org/1999/xlink" width="11" height="10.105087" viewBox="0 0 11 10.105087" version="1.1">
<g id="surface1">
<path style=" stroke:none;fill-rule:nonzero;fill:rgb(30%,30%,30%);fill-opacity:1;" d="M 6.96875 1.675781 C 6.96875 2.601562 6.222656 3.351562 5.304688 3.351562 C 4.382812 3.351562 3.636719 2.601562 3.636719 1.675781 C 3.636719 0.75 4.382812 0 5.304688 0 C 6.222656 0 6.96875 0.75 6.96875 1.675781 Z M 6.96875 1.675781 "/>
<path style=" stroke:none;fill-rule:nonzero;fill:rgb(30%,30%,30%);fill-opacity:1;" d="M 3.691406 8.1875 C 4.023438 8.1875 4.25 8.03125 4.496094 7.867188 C 4.714844 7.71875 4.941406 7.566406 5.230469 7.539062 C 5.730469 7.496094 6.09375 7.730469 6.414062 7.941406 C 6.632812 8.082031 6.820312 8.203125 7.011719 8.210938 C 7.363281 8.21875 7.582031 8.054688 7.8125 7.875 C 8.023438 7.71875 8.238281 7.550781 8.535156 7.515625 C 8.542969 7.515625 8.546875 7.515625 8.554688 7.515625 C 8.5625 7.457031 8.566406 7.394531 8.566406 7.335938 L 8.566406 5.265625 C 8.566406 4.507812 7.851562 3.886719 6.980469 3.886719 L 3.699219 3.886719 C 2.824219 3.886719 2.109375 4.507812 2.109375 5.265625 L 2.109375 7.335938 C 2.109375 7.402344 2.117188 7.472656 2.125 7.539062 C 2.488281 7.539062 2.792969 7.738281 3.066406 7.910156 C 3.296875 8.058594 3.492188 8.1875 3.691406 8.1875 Z M 3.691406 8.1875 "/>
<path style=" stroke:none;fill-rule:nonzero;fill:rgb(30%,30%,30%);fill-opacity:1;" d="M 10.042969 9.191406 C 9.867188 9.183594 9.691406 9.039062 9.492188 8.875 C 9.191406 8.628906 8.855469 8.355469 8.398438 8.417969 C 8.101562 8.460938 7.886719 8.648438 7.675781 8.835938 C 7.445312 9.039062 7.226562 9.230469 6.875 9.21875 C 6.679688 9.210938 6.492188 9.070312 6.277344 8.910156 C 5.957031 8.667969 5.59375 8.394531 5.089844 8.445312 C 4.804688 8.472656 4.578125 8.652344 4.355469 8.824219 C 4.113281 9.015625 3.882812 9.195312 3.554688 9.195312 C 3.355469 9.195312 3.15625 9.046875 2.929688 8.875 C 2.636719 8.660156 2.308594 8.414062 1.910156 8.445312 C 1.621094 8.46875 1.34375 8.664062 1.078125 8.851562 C 0.824219 9.027344 0.585938 9.195312 0.371094 9.195312 C 0.304688 9.195312 0.242188 9.1875 0.179688 9.167969 C 0.136719 9.160156 0.0898438 9.167969 0.0546875 9.195312 C 0.0195312 9.21875 0 9.261719 0 9.304688 L 0.00390625 9.910156 C 0.00390625 9.972656 0.0429688 10.027344 0.105469 10.042969 C 0.191406 10.066406 0.28125 10.078125 0.371094 10.082031 C 0.671875 10.078125 0.964844 9.875 1.242188 9.679688 C 1.488281 9.507812 1.71875 9.347656 1.929688 9.328125 C 2.226562 9.304688 2.480469 9.496094 2.753906 9.695312 C 3.003906 9.882812 3.265625 10.078125 3.554688 10.078125 C 3.980469 10.078125 4.277344 9.84375 4.539062 9.640625 C 4.738281 9.484375 4.910156 9.351562 5.117188 9.328125 C 5.511719 9.289062 5.8125 9.511719 6.097656 9.730469 C 6.339844 9.910156 6.585938 10.09375 6.863281 10.105469 C 6.878906 10.105469 6.894531 10.105469 6.90625 10.105469 C 7.34375 10.105469 7.628906 9.855469 7.878906 9.632812 C 8.066406 9.46875 8.226562 9.328125 8.433594 9.300781 C 8.773438 9.253906 9.027344 9.460938 9.300781 9.683594 C 9.527344 9.871094 9.761719 10.0625 10.03125 10.078125 C 10.050781 10.078125 10.066406 10.078125 10.085938 10.078125 C 10.417969 10.078125 10.722656 9.921875 10.941406 9.769531 C 10.976562 9.742188 11 9.699219 11 9.652344 L 11 9.050781 C 11 8.9375 10.871094 8.871094 10.78125 8.9375 C 10.59375 9.066406 10.328125 9.207031 10.042969 9.191406 Z M 10.042969 9.191406 "/>
</g>
</svg>
