<?xml version="1.0" encoding="UTF-8"?>
<svg xmlns="http://www.w3.org/2000/svg" xmlns:xlink="http://www.w3.org/1999/xlink" width="11" height="9.779088" viewBox="0 0 11 9.779088" version="1.1">
<g id="surface1">
<path style=" stroke:none;fill-rule:nonzero;fill:rgb(30%,30%,30%);fill-opacity:1;" d="M 8.765625 4.105469 C 8.992188 4.105469 9.175781 3.921875 9.175781 3.695312 C 9.175781 3.46875 8.992188 3.285156 8.765625 3.285156 C 8.539062 3.285156 8.355469 3.46875 8.355469 3.695312 C 8.355469 3.921875 8.539062 4.105469 8.765625 4.105469 Z M 8.765625 4.105469 "/>
<path style=" stroke:none;fill-rule:nonzero;fill:rgb(30%,30%,30%);fill-opacity:1;" d="M 2.453125 4.105469 C 2.679688 4.105469 2.863281 3.921875 2.863281 3.695312 C 2.863281 3.46875 2.679688 3.285156 2.453125 3.285156 C 2.226562 3.285156 2.042969 3.46875 2.042969 3.695312 C 2.042969 3.921875 2.226562 4.105469 2.453125 4.105469 Z M 2.453125 4.105469 "/>
<path style=" stroke:none;fill-rule:nonzero;fill:rgb(30%,30%,30%);fill-opacity:1;" d="M 2.648438 2.804688 C 2.914062 2.394531 3.800781 1.039062 4.066406 0.632812 C 4.132812 0.527344 4.199219 0.421875 4.269531 0.320312 C 4.324219 0.230469 4.378906 0.117188 4.464844 0.0546875 C 4.628906 -0.0585938 4.863281 0.0117188 4.941406 0.195312 C 4.96875 0.253906 4.972656 0.324219 4.957031 0.386719 C 4.9375 0.472656 4.878906 0.542969 4.832031 0.613281 C 4.71875 0.789062 4.609375 0.960938 4.496094 1.132812 C 4.273438 1.472656 3.417969 2.78125 3.199219 3.125 Z M 2.648438 2.804688 "/>
<path style=" stroke:none;fill-rule:nonzero;fill:rgb(30%,30%,30%);fill-opacity:1;" d="M 8.570312 2.816406 C 8.304688 2.40625 7.417969 1.039062 7.152344 0.632812 C 7.085938 0.527344 7.019531 0.421875 6.949219 0.320312 C 6.894531 0.230469 6.839844 0.117188 6.753906 0.0546875 C 6.589844 -0.0585938 6.355469 0.0117188 6.277344 0.195312 C 6.25 0.253906 6.246094 0.324219 6.261719 0.386719 C 6.28125 0.472656 6.339844 0.542969 6.386719 0.613281 C 6.5 0.789062 6.609375 0.960938 6.722656 1.132812 C 6.945312 1.472656 7.800781 2.792969 8.019531 3.132812 Z M 8.570312 2.816406 "/>
<path style=" stroke:none;fill-rule:nonzero;fill:rgb(30%,30%,30%);fill-opacity:1;" d="M 10.953125 3.308594 C 10.90625 3.242188 10.828125 3.207031 10.75 3.207031 L 9.027344 3.207031 C 9.253906 3.324219 9.363281 3.582031 9.304688 3.828125 C 9.242188 4.078125 9.019531 4.25 8.765625 4.25 C 8.511719 4.25 8.289062 4.078125 8.226562 3.828125 C 8.164062 3.582031 8.277344 3.324219 8.5 3.207031 L 2.71875 3.207031 C 2.941406 3.324219 3.054688 3.582031 2.992188 3.828125 C 2.929688 4.078125 2.707031 4.25 2.453125 4.25 C 2.199219 4.25 1.976562 4.078125 1.914062 3.828125 C 1.855469 3.582031 1.964844 3.324219 2.191406 3.207031 L 0.25 3.207031 C 0.171875 3.207031 0.0976562 3.242188 0.046875 3.308594 C 0 3.371094 -0.0117188 3.453125 0.0117188 3.527344 L 0.300781 4.46875 C 0.332031 4.574219 0.429688 4.644531 0.539062 4.644531 L 0.558594 4.644531 C 1.011719 6.113281 1.734375 8.453125 2.019531 9.378906 C 2.09375 9.613281 2.308594 9.773438 2.554688 9.773438 C 8.460938 9.789062 6.679688 9.773438 8.445312 9.773438 C 8.691406 9.773438 8.90625 9.613281 8.980469 9.378906 C 9.277344 8.410156 9.992188 6.09375 10.441406 4.644531 L 10.457031 4.644531 C 10.566406 4.644531 10.664062 4.574219 10.695312 4.46875 L 10.867188 3.921875 L 10.988281 3.527344 C 11.011719 3.453125 11 3.371094 10.953125 3.308594 Z M 3.082031 8.964844 C 3.027344 9.03125 2.941406 9.070312 2.855469 9.066406 L 2.597656 9.066406 C 2.433594 9.066406 2.28125 8.953125 2.234375 8.800781 L 1.203125 5.425781 C 1.175781 5.34375 1.1875 5.253906 1.238281 5.1875 C 1.289062 5.117188 1.371094 5.082031 1.464844 5.082031 L 1.8125 5.082031 C 1.976562 5.082031 2.132812 5.195312 2.175781 5.347656 L 3.128906 8.722656 C 3.152344 8.8125 3.132812 8.898438 3.082031 8.964844 Z M 4.390625 8.949219 C 4.335938 9.011719 4.257812 9.050781 4.175781 9.054688 L 3.835938 9.066406 C 3.683594 9.074219 3.554688 8.960938 3.53125 8.8125 L 3.082031 5.429688 C 3.070312 5.347656 3.09375 5.265625 3.148438 5.199219 C 3.199219 5.136719 3.277344 5.097656 3.363281 5.09375 L 3.699219 5.082031 C 3.851562 5.074219 3.984375 5.1875 4.003906 5.339844 L 4.457031 8.71875 C 4.46875 8.800781 4.445312 8.886719 4.390625 8.949219 Z M 5.835938 8.773438 C 5.835938 8.9375 5.703125 9.066406 5.539062 9.066406 L 5.207031 9.066406 C 5.046875 9.066406 4.914062 8.9375 4.914062 8.773438 L 4.914062 5.375 C 4.914062 5.214844 5.046875 5.082031 5.207031 5.082031 L 5.539062 5.082031 C 5.703125 5.082031 5.835938 5.214844 5.835938 5.375 Z M 6.910156 9.066406 L 6.574219 9.054688 C 6.492188 9.050781 6.414062 9.011719 6.359375 8.949219 C 6.304688 8.886719 6.28125 8.800781 6.292969 8.71875 L 6.746094 5.339844 C 6.765625 5.1875 6.898438 5.074219 7.050781 5.082031 L 7.386719 5.09375 C 7.46875 5.097656 7.546875 5.136719 7.601562 5.199219 C 7.65625 5.265625 7.679688 5.347656 7.667969 5.429688 L 7.214844 8.8125 C 7.195312 8.960938 7.0625 9.074219 6.910156 9.066406 Z M 9.546875 5.429688 L 8.515625 8.800781 C 8.46875 8.953125 8.3125 9.066406 8.152344 9.066406 L 7.894531 9.066406 C 7.800781 9.066406 7.71875 9.03125 7.667969 8.964844 C 7.613281 8.894531 7.597656 8.804688 7.621094 8.722656 L 8.574219 5.347656 C 8.617188 5.199219 8.773438 5.082031 8.933594 5.082031 L 9.285156 5.082031 C 9.375 5.082031 9.460938 5.121094 9.511719 5.1875 C 9.5625 5.257812 9.574219 5.347656 9.546875 5.429688 Z M 9.546875 5.429688 "/>
</g>
</svg>
