<?xml version="1.0" encoding="UTF-8" standalone="no"?>
<!-- Created with Inkscape (http://www.inkscape.org/) -->

<svg
   xmlns:dc="http://purl.org/dc/elements/1.1/"
   xmlns:cc="http://creativecommons.org/ns#"
   xmlns:rdf="http://www.w3.org/1999/02/22-rdf-syntax-ns#"
   xmlns:svg="http://www.w3.org/2000/svg"
   xmlns="http://www.w3.org/2000/svg"
   xmlns:xlink="http://www.w3.org/1999/xlink"
   xmlns:sodipodi="http://sodipodi.sourceforge.net/DTD/sodipodi-0.dtd"
   xmlns:inkscape="http://www.inkscape.org/namespaces/inkscape"
   width="30px"
   height="30px"
   version="1.1"
   id="svg8"
   inkscape:version="0.92.4 5da689c313, 2019-01-14"
   sodipodi:docname="container.svg">
  <defs
     id="defs2" />
  <sodipodi:namedview
     id="base"
     pagecolor="#ffffff"
     bordercolor="#666666"
     borderopacity="1.0"
     inkscape:pageopacity="0.0"
     inkscape:pageshadow="2"
     inkscape:zoom="13.049334"
     inkscape:cx="18.679046"
     inkscape:cy="12.165829"
     inkscape:document-units="px"
     inkscape:current-layer="layer1"
     showgrid="false"
     inkscape:snap-page="false"
     units="px"
     inkscape:window-width="1884"
     inkscape:window-height="1061"
     inkscape:window-x="0"
     inkscape:window-y="0"
     inkscape:window-maximized="1"
     fit-margin-top="0"
     fit-margin-left="0"
     fit-margin-right="0"
     fit-margin-bottom="0" />
  <metadata
     id="metadata5">
    <rdf:RDF>
      <cc:Work
         rdf:about="">
        <dc:format>image/svg+xml</dc:format>
        <dc:type
           rdf:resource="http://purl.org/dc/dcmitype/StillImage" />
        <dc:title></dc:title>
      </cc:Work>
    </rdf:RDF>
  </metadata>
    <circle
       style="color:#000000;clip-rule:nonzero;display:inline;overflow:visible;visibility:visible;opacity:1;isolation:auto;mix-blend-mode:normal;color-interpolation:sRGB;color-interpolation-filters:linearRGB;solid-color:#000000;solid-opacity:1;vector-effect:none;fill:#ffffff;fill-opacity:1;fill-rule:evenodd;stroke:rgba(255, 255, 255, 1);stroke-width:1;stroke-linecap:butt;stroke-linejoin:miter;stroke-miterlimit:4;stroke-dasharray:none;stroke-dashoffset:0;stroke-opacity:1;marker:none;color-rendering:auto;image-rendering:auto;shape-rendering:auto;text-rendering:auto;enable-background:accumulate"
       id="path815"
       cx="15"
       cy="15"
       r="14.5" />
<g transform="translate(6,6)"><g id="surface1">
<path style=" stroke:none;fill-rule:nonzero;fill:rgb(30%,30%,30%);fill-opacity:1;" d="M 15.296875 10.625 C 15.617188 9.296875 14.796875 7.960938 13.464844 7.644531 C 12.996094 7.53125 12.503906 7.558594 12.050781 7.722656 L 11.347656 6.296875 L 11.925781 5.367188 L 12.449219 5.496094 C 12.464844 5.496094 12.480469 5.5 12.5 5.5 C 12.617188 5.5 12.710938 5.40625 12.710938 5.285156 C 12.710938 5.1875 12.644531 5.101562 12.546875 5.078125 L 10.890625 4.679688 C 10.777344 4.644531 10.65625 4.710938 10.625 4.824219 C 10.59375 4.9375 10.660156 5.058594 10.769531 5.089844 C 10.777344 5.089844 10.78125 5.09375 10.789062 5.09375 L 11.425781 5.246094 L 11.050781 5.84375 L 7.832031 5.0625 L 7.824219 5.042969 C 7.816406 5.03125 7.8125 5.023438 7.804688 5.011719 L 8.128906 4.496094 L 8.851562 4.671875 C 8.984375 4.703125 9.117188 4.621094 9.144531 4.492188 C 9.175781 4.359375 9.097656 4.226562 8.964844 4.199219 L 7.898438 3.941406 L 7.089844 5.242188 L 6.574219 6.058594 C 6.414062 5.980469 6.242188 5.917969 6.066406 5.875 C 4.734375 5.5625 3.398438 6.382812 3.082031 7.710938 C 2.933594 8.347656 3.039062 9.019531 3.382812 9.578125 C 3.550781 9.851562 3.769531 10.089844 4.027344 10.285156 L 3.769531 10.578125 L 1.890625 8.800781 C 1.75 8.667969 1.527344 8.675781 1.390625 8.816406 C 1.257812 8.957031 1.265625 9.179688 1.40625 9.3125 L 3.546875 11.339844 C 3.6875 11.476562 3.910156 11.46875 4.042969 11.328125 C 4.046875 11.324219 4.050781 11.320312 4.054688 11.316406 L 4.449219 10.863281 C 5.285156 10.878906 5.761719 10.914062 6.210938 10.941406 L 7.894531 12.460938 C 7.984375 12.542969 8.105469 12.574219 8.222656 12.542969 L 10.628906 11.90625 L 14.59375 13.945312 C 14.644531 13.96875 14.699219 13.984375 14.753906 13.984375 C 14.949219 13.984375 15.109375 13.824219 15.109375 13.628906 C 15.109375 13.496094 15.035156 13.375 14.914062 13.316406 L 13.3125 12.488281 C 14.285156 12.320312 15.066406 11.589844 15.296875 10.625 Z M 12.4375 9.617188 L 11.054688 9.285156 C 11.214844 8.910156 11.484375 8.59375 11.828125 8.375 Z M 11.609375 7.933594 C 11.136719 8.21875 10.773438 8.652344 10.578125 9.167969 L 9.683594 8.957031 L 11.046875 6.78125 Z M 10.789062 6.273438 L 9.339844 8.589844 L 9.09375 8.003906 C 9.019531 8.015625 8.945312 7.976562 8.910156 7.902344 L 8.558594 7.109375 C 8.539062 7.0625 8.539062 7.007812 8.558594 6.964844 C 8.554688 6.957031 8.550781 6.953125 8.550781 6.949219 L 8.535156 6.917969 C 8.535156 6.910156 8.535156 6.898438 8.535156 6.890625 C 8.492188 6.882812 8.453125 6.851562 8.433594 6.8125 L 8.394531 6.722656 C 8.367188 6.652344 8.394531 6.570312 8.464844 6.542969 L 8.46875 6.539062 L 8.074219 5.617188 Z M 4.246094 9.835938 C 3.644531 9.355469 3.375 8.574219 3.554688 7.828125 L 3.566406 7.820312 C 3.777344 6.929688 4.574219 6.296875 5.492188 6.296875 C 5.777344 6.296875 6.058594 6.355469 6.320312 6.472656 L 5.292969 8.09375 C 5.21875 8.207031 5.253906 8.359375 5.367188 8.433594 C 5.480469 8.503906 5.632812 8.472656 5.707031 8.355469 L 6.726562 6.738281 C 7.582031 7.425781 7.722656 8.671875 7.035156 9.53125 C 6.347656 10.382812 5.101562 10.519531 4.246094 9.835938 Z M 10.59375 11.1875 L 8.234375 11.8125 L 6.710938 10.433594 L 6.789062 10.390625 C 7.953125 9.675781 8.316406 8.152344 7.601562 6.988281 C 7.441406 6.726562 7.234375 6.5 6.992188 6.3125 L 7.5 5.507812 L 9.074219 9.214844 C 9.105469 9.285156 9.171875 9.339844 9.25 9.355469 C 9.257812 9.359375 9.265625 9.359375 9.273438 9.363281 L 10.449219 9.644531 C 10.363281 10.167969 10.445312 10.707031 10.6875 11.179688 C 10.65625 11.175781 10.625 11.179688 10.59375 11.1875 Z M 13.507812 11.9375 C 13.160156 12.054688 12.785156 12.070312 12.425781 11.984375 L 12.433594 11.980469 C 12.351562 11.960938 12.265625 11.933594 12.1875 11.902344 L 11.796875 11.703125 C 11.15625 11.277344 10.820312 10.519531 10.933594 9.757812 L 12.816406 10.210938 C 12.835938 10.214844 12.855469 10.21875 12.875 10.21875 C 13.015625 10.210938 13.128906 10.089844 13.121094 9.945312 C 13.121094 9.914062 13.113281 9.878906 13.101562 9.851562 L 12.269531 8.164062 C 13.3125 7.824219 14.433594 8.390625 14.777344 9.429688 C 15.117188 10.476562 14.550781 11.597656 13.507812 11.9375 Z M 10.59375 11.1875 C 10.589844 11.1875 10.589844 11.1875 10.585938 11.1875 Z M 9.074219 6.742188 C 9.074219 6.738281 9.074219 6.730469 9.070312 6.726562 L 9.058594 6.699219 C 9.054688 6.691406 9.046875 6.683594 9.039062 6.675781 C 9.0625 6.636719 9.066406 6.589844 9.046875 6.550781 L 9.007812 6.460938 C 8.976562 6.390625 8.894531 6.359375 8.824219 6.390625 L 8.730469 6.433594 C 8.734375 6.429688 8.734375 6.421875 8.730469 6.414062 L 8.699219 6.347656 L 8.71875 6.339844 C 8.730469 6.335938 8.738281 6.320312 8.734375 6.304688 C 8.726562 6.289062 8.710938 6.28125 8.695312 6.289062 L 8.53125 6.363281 C 8.515625 6.371094 8.507812 6.386719 8.511719 6.402344 C 8.515625 6.414062 8.53125 6.425781 8.546875 6.417969 C 8.550781 6.417969 8.550781 6.417969 8.554688 6.414062 L 8.570312 6.40625 L 8.601562 6.472656 C 8.605469 6.480469 8.609375 6.484375 8.613281 6.484375 L 8.519531 6.527344 C 8.449219 6.558594 8.417969 6.640625 8.449219 6.710938 L 8.488281 6.796875 C 8.507812 6.839844 8.546875 6.867188 8.589844 6.878906 C 8.589844 6.886719 8.589844 6.898438 8.589844 6.90625 L 8.605469 6.933594 C 8.605469 6.9375 8.609375 6.945312 8.613281 6.949219 C 8.59375 6.996094 8.59375 7.046875 8.613281 7.09375 L 8.964844 7.886719 C 9.003906 7.976562 9.109375 8.015625 9.199219 7.976562 L 9.445312 7.867188 C 9.535156 7.828125 9.574219 7.722656 9.535156 7.632812 L 9.183594 6.839844 C 9.15625 6.792969 9.121094 6.757812 9.074219 6.742188 Z M 9.074219 6.742188 "/>
</g>
</g>
</svg>
