<?xml version="1.0" encoding="UTF-8" standalone="no"?>
<!-- Created with Inkscape (http://www.inkscape.org/) -->

<svg
   xmlns:dc="http://purl.org/dc/elements/1.1/"
   xmlns:cc="http://creativecommons.org/ns#"
   xmlns:rdf="http://www.w3.org/1999/02/22-rdf-syntax-ns#"
   xmlns:svg="http://www.w3.org/2000/svg"
   xmlns="http://www.w3.org/2000/svg"
   xmlns:xlink="http://www.w3.org/1999/xlink"
   xmlns:sodipodi="http://sodipodi.sourceforge.net/DTD/sodipodi-0.dtd"
   xmlns:inkscape="http://www.inkscape.org/namespaces/inkscape"
   width="30px"
   height="30px"
   version="1.1"
   id="svg8"
   inkscape:version="0.92.4 5da689c313, 2019-01-14"
   sodipodi:docname="container.svg">
  <defs
     id="defs2" />
  <sodipodi:namedview
     id="base"
     pagecolor="#ffffff"
     bordercolor="#666666"
     borderopacity="1.0"
     inkscape:pageopacity="0.0"
     inkscape:pageshadow="2"
     inkscape:zoom="13.049334"
     inkscape:cx="18.679046"
     inkscape:cy="12.165829"
     inkscape:document-units="px"
     inkscape:current-layer="layer1"
     showgrid="false"
     inkscape:snap-page="false"
     units="px"
     inkscape:window-width="1884"
     inkscape:window-height="1061"
     inkscape:window-x="0"
     inkscape:window-y="0"
     inkscape:window-maximized="1"
     fit-margin-top="0"
     fit-margin-left="0"
     fit-margin-right="0"
     fit-margin-bottom="0" />
  <metadata
     id="metadata5">
    <rdf:RDF>
      <cc:Work
         rdf:about="">
        <dc:format>image/svg+xml</dc:format>
        <dc:type
           rdf:resource="http://purl.org/dc/dcmitype/StillImage" />
        <dc:title></dc:title>
      </cc:Work>
    </rdf:RDF>
  </metadata>
    <circle
       style="color:#000000;clip-rule:nonzero;display:inline;overflow:visible;visibility:visible;opacity:1;isolation:auto;mix-blend-mode:normal;color-interpolation:sRGB;color-interpolation-filters:linearRGB;solid-color:#000000;solid-opacity:1;vector-effect:none;fill:rgba(255, 255, 255, 1);fill-opacity:1;fill-rule:evenodd;stroke:#ffffff;stroke-width:1;stroke-linecap:butt;stroke-linejoin:miter;stroke-miterlimit:4;stroke-dasharray:none;stroke-dashoffset:0;stroke-opacity:1;marker:none;color-rendering:auto;image-rendering:auto;shape-rendering:auto;text-rendering:auto;enable-background:accumulate"
       id="path815"
       cx="15"
       cy="15"
       r="14.5" />
<g transform="translate(6,7)"><g id="surface1">
<path style=" stroke:none;fill-rule:nonzero;fill:#FFFFFF;fill-opacity:1;" d="M 15.871094 10.25 C 14.800781 10.230469 14.265625 10.824219 13.835938 11.292969 C 13.433594 11.734375 13.117188 12.082031 12.394531 12.082031 C 11.699219 12.082031 11.402344 11.742188 11.023438 11.308594 C 10.605469 10.832031 10.085938 10.234375 9.003906 10.25 C 8.078125 10.257812 7.542969 10.707031 7.128906 11.128906 L 6.6875 11.65625 C 6.441406 11.871094 6.066406 12.070312 5.507812 12.082031 C 4.882812 12.097656 4.546875 11.746094 4.117188 11.296875 C 3.652344 10.808594 3.121094 10.257812 2.1875 10.25 C 1.117188 10.230469 0.582031 10.824219 0.152344 11.292969 C 0.101562 11.351562 0.0507812 11.40625 0 11.460938 L 0 12.613281 C 0.335938 12.402344 0.585938 12.128906 0.804688 11.886719 C 1.210938 11.445312 1.5 11.117188 2.175781 11.128906 C 2.714844 11.136719 3.023438 11.429688 3.480469 11.90625 C 3.933594 12.378906 4.496094 12.964844 5.46875 12.964844 C 5.488281 12.964844 5.507812 12.964844 5.527344 12.964844 C 6.816406 12.933594 7.460938 12.214844 7.738281 11.765625 C 8.089844 11.40625 8.414062 11.136719 9.015625 11.128906 C 9.023438 11.128906 9.03125 11.128906 9.039062 11.128906 C 9.695312 11.128906 9.976562 11.449219 10.359375 11.886719 C 10.777344 12.367188 11.296875 12.964844 12.394531 12.964844 C 13.507812 12.964844 14.050781 12.367188 14.488281 11.886719 C 14.894531 11.445312 15.183594 11.117188 15.859375 11.128906 C 16.332031 11.136719 16.628906 11.359375 17 11.738281 L 17 10.585938 C 16.664062 10.367188 16.269531 10.25 15.871094 10.25 Z M 15.871094 10.25 "/>
<path style=" stroke:none;fill-rule:nonzero;fill:#FFFFFF;fill-opacity:1;" d="M 15.925781 12.480469 C 14.859375 12.460938 14.324219 13.054688 13.894531 13.527344 C 13.492188 13.96875 13.175781 14.316406 12.449219 14.316406 C 11.757812 14.316406 11.457031 13.972656 11.078125 13.539062 C 10.664062 13.0625 10.144531 12.46875 9.0625 12.480469 C 8.136719 12.492188 7.601562 12.9375 7.1875 13.359375 L 6.742188 13.890625 C 6.5 14.105469 6.125 14.304688 5.5625 14.316406 C 4.9375 14.332031 4.605469 13.976562 4.175781 13.527344 C 3.707031 13.042969 3.179688 12.492188 2.242188 12.480469 C 1.175781 12.460938 0.636719 13.054688 0.210938 13.527344 C 0.136719 13.605469 0.0703125 13.679688 0 13.75 L 0 14.882812 C 0.363281 14.667969 0.628906 14.375 0.863281 14.121094 C 1.265625 13.675781 1.554688 13.347656 2.234375 13.363281 C 2.773438 13.367188 3.078125 13.660156 3.535156 14.140625 C 3.992188 14.613281 4.550781 15.199219 5.527344 15.199219 C 5.546875 15.199219 5.566406 15.199219 5.585938 15.199219 C 6.871094 15.167969 7.515625 14.449219 7.796875 14 C 8.148438 13.636719 8.46875 13.371094 9.074219 13.363281 C 9.082031 13.363281 9.085938 13.363281 9.09375 13.363281 C 9.753906 13.363281 10.03125 13.679688 10.414062 14.121094 C 10.835938 14.601562 11.355469 15.199219 12.449219 15.199219 C 13.5625 15.199219 14.109375 14.601562 14.546875 14.121094 C 14.949219 13.675781 15.238281 13.347656 15.917969 13.363281 C 16.363281 13.367188 16.652344 13.570312 17 13.914062 L 17 12.78125 C 16.675781 12.585938 16.304688 12.480469 15.925781 12.480469 Z M 15.925781 12.480469 "/>
<path style=" stroke:none;fill-rule:nonzero;fill:#FFFFFF;fill-opacity:1;" d="M 12.085938 2.371094 C 13.308594 2.371094 14.296875 3.359375 14.296875 4.574219 C 14.296875 5.789062 13.308594 6.777344 12.085938 6.777344 C 10.867188 6.777344 9.878906 5.789062 9.878906 4.574219 C 9.878906 3.359375 10.867188 2.371094 12.085938 2.371094 Z M 9.984375 2.792969 L 7.53125 2.667969 L 9.339844 4.300781 C 9.394531 3.746094 9.621094 3.21875 9.984375 2.792969 Z M 11.851562 1.832031 L 10.199219 0 L 10.324219 2.457031 C 10.757812 2.097656 11.289062 1.878906 11.851562 1.832031 Z M 14.835938 4.296875 L 16.636719 2.667969 L 14.191406 2.792969 C 14.554688 3.214844 14.777344 3.742188 14.835938 4.296875 Z M 13.84375 2.449219 L 13.96875 0 L 12.316406 1.832031 C 12.878906 1.875 13.410156 2.09375 13.84375 2.449219 Z M 10.320312 6.6875 L 10.199219 9.109375 L 11.816406 7.3125 C 11.265625 7.261719 10.746094 7.042969 10.320312 6.6875 Z M 14.222656 6.316406 L 16.636719 6.441406 L 14.835938 4.8125 C 14.789062 5.367188 14.574219 5.890625 14.222656 6.316406 Z M 12.351562 7.3125 L 13.96875 9.109375 L 13.847656 6.695312 C 13.421875 7.046875 12.898438 7.261719 12.351562 7.3125 Z M 9.339844 4.808594 L 7.53125 6.441406 L 9.949219 6.316406 C 9.597656 5.886719 9.382812 5.359375 9.339844 4.808594 Z M 9.339844 4.808594 "/>
</g>
</g>
</svg>
