<?xml version="1.0" encoding="UTF-8" standalone="no"?>
<!-- Created with Inkscape (http://www.inkscape.org/) -->

<svg
   xmlns:dc="http://purl.org/dc/elements/1.1/"
   xmlns:cc="http://creativecommons.org/ns#"
   xmlns:rdf="http://www.w3.org/1999/02/22-rdf-syntax-ns#"
   xmlns:svg="http://www.w3.org/2000/svg"
   xmlns="http://www.w3.org/2000/svg"
   xmlns:xlink="http://www.w3.org/1999/xlink"
   xmlns:sodipodi="http://sodipodi.sourceforge.net/DTD/sodipodi-0.dtd"
   xmlns:inkscape="http://www.inkscape.org/namespaces/inkscape"
   width="30px"
   height="30px"
   version="1.1"
   id="svg8"
   inkscape:version="0.92.4 5da689c313, 2019-01-14"
   sodipodi:docname="container.svg">
  <defs
     id="defs2" />
  <sodipodi:namedview
     id="base"
     pagecolor="#ffffff"
     bordercolor="#666666"
     borderopacity="1.0"
     inkscape:pageopacity="0.0"
     inkscape:pageshadow="2"
     inkscape:zoom="13.049334"
     inkscape:cx="18.679046"
     inkscape:cy="12.165829"
     inkscape:document-units="px"
     inkscape:current-layer="layer1"
     showgrid="false"
     inkscape:snap-page="false"
     units="px"
     inkscape:window-width="1884"
     inkscape:window-height="1061"
     inkscape:window-x="0"
     inkscape:window-y="0"
     inkscape:window-maximized="1"
     fit-margin-top="0"
     fit-margin-left="0"
     fit-margin-right="0"
     fit-margin-bottom="0" />
  <metadata
     id="metadata5">
    <rdf:RDF>
      <cc:Work
         rdf:about="">
        <dc:format>image/svg+xml</dc:format>
        <dc:type
           rdf:resource="http://purl.org/dc/dcmitype/StillImage" />
        <dc:title></dc:title>
      </cc:Work>
    </rdf:RDF>
  </metadata>
    <circle
       style="color:#000000;clip-rule:nonzero;display:inline;overflow:visible;visibility:visible;opacity:1;isolation:auto;mix-blend-mode:normal;color-interpolation:sRGB;color-interpolation-filters:linearRGB;solid-color:#000000;solid-opacity:1;vector-effect:none;fill:rgba(255, 255, 255, 1);fill-opacity:1;fill-rule:evenodd;stroke:#ffffff;stroke-width:1;stroke-linecap:butt;stroke-linejoin:miter;stroke-miterlimit:4;stroke-dasharray:none;stroke-dashoffset:0;stroke-opacity:1;marker:none;color-rendering:auto;image-rendering:auto;shape-rendering:auto;text-rendering:auto;enable-background:accumulate"
       id="path815"
       cx="15"
       cy="15"
       r="14.5" />
<g transform="translate(6,8)"><g id="surface1">
<path style=" stroke:none;fill-rule:nonzero;fill:#FFFFFF;fill-opacity:1;" d="M 13.214844 0.105469 C 12.675781 -0.0664062 12.148438 -0.0273438 11.652344 0.222656 C 10.871094 0.617188 10.207031 1.519531 9.738281 2.804688 L 8.371094 2.414062 C 8.09375 2.335938 7.800781 2.484375 7.707031 2.761719 L 4.875 10.871094 C 4.816406 11.066406 4.9375 11.277344 5.144531 11.339844 L 14.722656 14.226562 C 14.925781 14.289062 15.132812 14.175781 15.175781 13.976562 L 16.988281 5.527344 C 17.046875 5.25 16.882812 4.972656 16.613281 4.890625 L 14.925781 4.378906 C 15.324219 2.089844 14.730469 0.585938 13.214844 0.105469 M 10.265625 2.964844 C 10.6875 1.828125 11.273438 1.019531 11.925781 0.6875 C 12.292969 0.5 12.683594 0.472656 13.078125 0.597656 C 13.953125 0.875 14.835938 1.742188 14.402344 4.222656 Z M 10.265625 2.964844 "/>
<path style=" stroke:none;fill-rule:nonzero;fill:#FFFFFF;fill-opacity:1;" d="M 2.15625 3.6875 L 6.464844 3.6875 C 6.628906 3.6875 6.789062 3.539062 6.78125 3.367188 C 6.773438 3.195312 6.640625 3.046875 6.464844 3.046875 L 2.15625 3.046875 C 1.988281 3.046875 1.828125 3.195312 1.835938 3.367188 C 1.84375 3.539062 1.976562 3.6875 2.15625 3.6875 Z M 2.15625 3.6875 "/>
<path style=" stroke:none;fill-rule:nonzero;fill:#FFFFFF;fill-opacity:1;" d="M 0.320312 5.980469 L 5.898438 5.980469 C 6.066406 5.980469 6.226562 5.835938 6.21875 5.664062 C 6.210938 5.488281 6.078125 5.34375 5.898438 5.34375 L 0.320312 5.34375 C 0.152344 5.34375 -0.0078125 5.492188 0 5.664062 C 0.0078125 5.835938 0.140625 5.980469 0.320312 5.980469 Z M 0.320312 5.980469 "/>
<path style=" stroke:none;fill-rule:nonzero;fill:#FFFFFF;fill-opacity:1;" d="M 0.742188 8.347656 L 4.980469 8.347656 C 5.148438 8.347656 5.304688 8.199219 5.300781 8.027344 C 5.292969 7.855469 5.160156 7.710938 4.980469 7.710938 L 0.742188 7.710938 C 0.574219 7.710938 0.417969 7.855469 0.425781 8.027344 C 0.433594 8.203125 0.5625 8.347656 0.742188 8.347656 Z M 0.742188 8.347656 "/>
</g>
</g>
</svg>
