<?xml version="1.0" encoding="UTF-8" standalone="no"?>
<!-- Created with Inkscape (http://www.inkscape.org/) -->

<svg
   xmlns:dc="http://purl.org/dc/elements/1.1/"
   xmlns:cc="http://creativecommons.org/ns#"
   xmlns:rdf="http://www.w3.org/1999/02/22-rdf-syntax-ns#"
   xmlns:svg="http://www.w3.org/2000/svg"
   xmlns="http://www.w3.org/2000/svg"
   xmlns:xlink="http://www.w3.org/1999/xlink"
   xmlns:sodipodi="http://sodipodi.sourceforge.net/DTD/sodipodi-0.dtd"
   xmlns:inkscape="http://www.inkscape.org/namespaces/inkscape"
   width="30px"
   height="30px"
   version="1.1"
   id="svg8"
   inkscape:version="0.92.4 5da689c313, 2019-01-14"
   sodipodi:docname="container.svg">
  <defs
     id="defs2" />
  <sodipodi:namedview
     id="base"
     pagecolor="#ffffff"
     bordercolor="#666666"
     borderopacity="1.0"
     inkscape:pageopacity="0.0"
     inkscape:pageshadow="2"
     inkscape:zoom="13.049334"
     inkscape:cx="18.679046"
     inkscape:cy="12.165829"
     inkscape:document-units="px"
     inkscape:current-layer="layer1"
     showgrid="false"
     inkscape:snap-page="false"
     units="px"
     inkscape:window-width="1884"
     inkscape:window-height="1061"
     inkscape:window-x="0"
     inkscape:window-y="0"
     inkscape:window-maximized="1"
     fit-margin-top="0"
     fit-margin-left="0"
     fit-margin-right="0"
     fit-margin-bottom="0" />
  <metadata
     id="metadata5">
    <rdf:RDF>
      <cc:Work
         rdf:about="">
        <dc:format>image/svg+xml</dc:format>
        <dc:type
           rdf:resource="http://purl.org/dc/dcmitype/StillImage" />
        <dc:title></dc:title>
      </cc:Work>
    </rdf:RDF>
  </metadata>
    <circle
       style="color:#000000;clip-rule:nonzero;display:inline;overflow:visible;visibility:visible;opacity:1;isolation:auto;mix-blend-mode:normal;color-interpolation:sRGB;color-interpolation-filters:linearRGB;solid-color:#000000;solid-opacity:1;vector-effect:none;fill:rgba(255, 255, 255, 1);fill-opacity:1;fill-rule:evenodd;stroke:#ffffff;stroke-width:1;stroke-linecap:butt;stroke-linejoin:miter;stroke-miterlimit:4;stroke-dasharray:none;stroke-dashoffset:0;stroke-opacity:1;marker:none;color-rendering:auto;image-rendering:auto;shape-rendering:auto;text-rendering:auto;enable-background:accumulate"
       id="path815"
       cx="15"
       cy="15"
       r="14.5" />
<g transform="translate(8,6)"><g id="surface1">
<path style=" stroke:none;fill-rule:nonzero;fill:#FFFFFF;fill-opacity:1;" d="M 9.863281 1.15625 C 9.863281 1.289062 8.550781 1.390625 6.933594 1.390625 C 5.316406 1.390625 4.007812 1.289062 4.007812 1.15625 C 4.007812 1.027344 5.316406 0.921875 6.933594 0.921875 C 8.550781 0.921875 9.863281 1.027344 9.863281 1.15625 Z M 9.863281 1.15625 "/>
<path style=" stroke:none;fill-rule:nonzero;fill:#FFFFFF;fill-opacity:1;" d="M 13.707031 15.433594 L 13.707031 15.386719 L 13.625 15.386719 L 13.625 1.566406 C 13.761719 1.472656 13.945312 1.339844 13.945312 1.15625 C 13.945312 0.742188 13.414062 0.585938 13.1875 0.519531 C 12.835938 0.417969 12.339844 0.324219 11.710938 0.246094 C 10.441406 0.0859375 8.757812 0 6.972656 0 C 5.183594 0 3.5 0.0859375 2.234375 0.246094 C 1.605469 0.324219 1.109375 0.417969 0.757812 0.519531 C 0.53125 0.585938 0 0.742188 0 1.15625 C 0 1.335938 0.179688 1.46875 0.3125 1.5625 L 0.3125 15.4375 C 0.179688 15.53125 0 15.664062 0 15.84375 C 0 16.257812 0.53125 16.414062 0.757812 16.480469 C 1.109375 16.582031 1.605469 16.675781 2.234375 16.753906 C 3.5 16.914062 5.183594 17 6.972656 17 C 8.757812 17 10.441406 16.914062 11.710938 16.753906 C 12.339844 16.675781 12.835938 16.582031 13.1875 16.480469 C 13.414062 16.414062 13.945312 16.257812 13.945312 15.84375 C 13.945312 15.664062 13.839844 15.53125 13.707031 15.433594 Z M 6.972656 6.257812 C 9.234375 6.257812 11.230469 6.117188 12.429688 5.898438 L 12.429688 12.015625 C 11.230469 12.230469 9.234375 12.371094 6.972656 12.371094 C 4.710938 12.371094 2.714844 12.230469 1.515625 12.015625 L 1.515625 5.898438 C 2.714844 6.117188 4.710938 6.257812 6.972656 6.257812 Z M 6.597656 2.3125 C 6.722656 2.3125 6.847656 2.3125 6.972656 2.3125 C 7.050781 2.3125 7.132812 2.3125 7.214844 2.3125 C 7.066406 2.324219 6.960938 2.328125 6.902344 2.328125 C 6.835938 2.328125 6.734375 2.320312 6.597656 2.3125 Z M 2.621094 0.859375 C 3.820312 0.726562 5.367188 0.65625 6.972656 0.65625 C 8.578125 0.65625 10.121094 0.726562 11.324219 0.859375 C 12.25 0.960938 12.757812 1.074219 13.03125 1.15625 C 12.757812 1.238281 12.25 1.351562 11.324219 1.453125 C 10.121094 1.585938 8.578125 1.660156 6.972656 1.660156 C 5.367188 1.660156 3.820312 1.585938 2.621094 1.453125 C 1.691406 1.351562 1.183594 1.238281 0.910156 1.15625 C 1.183594 1.074219 1.691406 0.960938 2.621094 0.859375 Z M 2.621094 0.859375 "/>
</g>
</g>
</svg>
