<?xml version="1.0" encoding="UTF-8" standalone="no"?>
<!-- Created with Inkscape (http://www.inkscape.org/) -->

<svg
   xmlns:dc="http://purl.org/dc/elements/1.1/"
   xmlns:cc="http://creativecommons.org/ns#"
   xmlns:rdf="http://www.w3.org/1999/02/22-rdf-syntax-ns#"
   xmlns:svg="http://www.w3.org/2000/svg"
   xmlns="http://www.w3.org/2000/svg"
   xmlns:xlink="http://www.w3.org/1999/xlink"
   xmlns:sodipodi="http://sodipodi.sourceforge.net/DTD/sodipodi-0.dtd"
   xmlns:inkscape="http://www.inkscape.org/namespaces/inkscape"
   width="30px"
   height="30px"
   version="1.1"
   id="svg8"
   inkscape:version="0.92.4 5da689c313, 2019-01-14"
   sodipodi:docname="container.svg">
  <defs
     id="defs2" />
  <sodipodi:namedview
     id="base"
     pagecolor="#ffffff"
     bordercolor="#666666"
     borderopacity="1.0"
     inkscape:pageopacity="0.0"
     inkscape:pageshadow="2"
     inkscape:zoom="13.049334"
     inkscape:cx="18.679046"
     inkscape:cy="12.165829"
     inkscape:document-units="px"
     inkscape:current-layer="layer1"
     showgrid="false"
     inkscape:snap-page="false"
     units="px"
     inkscape:window-width="1884"
     inkscape:window-height="1061"
     inkscape:window-x="0"
     inkscape:window-y="0"
     inkscape:window-maximized="1"
     fit-margin-top="0"
     fit-margin-left="0"
     fit-margin-right="0"
     fit-margin-bottom="0" />
  <metadata
     id="metadata5">
    <rdf:RDF>
      <cc:Work
         rdf:about="">
        <dc:format>image/svg+xml</dc:format>
        <dc:type
           rdf:resource="http://purl.org/dc/dcmitype/StillImage" />
        <dc:title></dc:title>
      </cc:Work>
    </rdf:RDF>
  </metadata>
    <circle
       style="color:#000000;clip-rule:nonzero;display:inline;overflow:visible;visibility:visible;opacity:1;isolation:auto;mix-blend-mode:normal;color-interpolation:sRGB;color-interpolation-filters:linearRGB;solid-color:#000000;solid-opacity:1;vector-effect:none;fill:rgba(255, 255, 255, 1);fill-opacity:1;fill-rule:evenodd;stroke:#ffffff;stroke-width:1;stroke-linecap:butt;stroke-linejoin:miter;stroke-miterlimit:4;stroke-dasharray:none;stroke-dashoffset:0;stroke-opacity:1;marker:none;color-rendering:auto;image-rendering:auto;shape-rendering:auto;text-rendering:auto;enable-background:accumulate"
       id="path815"
       cx="15"
       cy="15"
       r="14.5" />
<g transform="translate(8,6)"><g id="surface1">
<path style=" stroke:none;fill-rule:nonzero;fill:#FFFFFF;fill-opacity:1;" d="M 11.058594 0 L 14.015625 0 L 14.015625 3.359375 L 11.058594 3.359375 Z M 11.058594 0 "/>
<path style=" stroke:none;fill-rule:nonzero;fill:#FFFFFF;fill-opacity:1;" d="M 9.78125 8.820312 L 4.246094 8.820312 L 4.246094 4.089844 L 6.5625 4.089844 L 6.417969 4.3125 C 6.273438 4.53125 5.902344 5.140625 6.207031 5.550781 C 6.59375 6.082031 7.261719 5.675781 7.515625 5.496094 L 9.488281 4.089844 L 9.78125 4.089844 Z M 9.78125 8.820312 "/>
<path style=" stroke:none;fill-rule:nonzero;fill:#FFFFFF;fill-opacity:1;" d="M 12.441406 7.046875 L 10.125 7.0625 L 10.125 8.226562 L 10.824219 8.226562 L 11.105469 9.253906 L 2.894531 9.253906 L 3.203125 8.226562 L 3.886719 8.226562 L 3.886719 7.0625 L 1.507812 7.0625 L 0 10.453125 L 0 11.757812 L 0.71875 11.757812 L 0.71875 17 L 13.296875 17 L 13.296875 11.757812 L 14.015625 11.757812 L 14.015625 10.453125 Z M 12.441406 7.046875 "/>
<path style=" stroke:none;fill-rule:nonzero;fill:#FFFFFF;fill-opacity:1;" d="M 10.699219 0.421875 L 8.882812 0.40625 C 8.789062 0.40625 8.699219 0.429688 8.621094 0.480469 L 6.535156 1.769531 C 6.390625 1.863281 6.277344 1.996094 6.214844 2.152344 L 5.613281 3.734375 L 6.78125 3.734375 L 7.082031 2.945312 C 7.121094 2.84375 7.203125 2.765625 7.304688 2.730469 C 7.5 2.65625 7.835938 2.578125 8.09375 2.746094 C 8.378906 2.925781 7.324219 3.878906 6.59375 4.730469 C 6.574219 4.75 6.574219 4.777344 6.558594 4.800781 C 6.390625 5.039062 6.457031 5.660156 6.78125 5.535156 C 7.117188 5.410156 9.414062 3.746094 9.886719 3.40625 C 9.941406 3.367188 9.980469 3.308594 10 3.246094 L 10.136719 2.832031 C 10.160156 2.761719 10.203125 2.695312 10.257812 2.644531 L 10.746094 2.207031 Z M 10.699219 0.421875 "/>
</g>
</g>
</svg>
