<?xml version="1.0" encoding="UTF-8" standalone="no"?>
<!-- Created with Inkscape (http://www.inkscape.org/) -->

<svg
   xmlns:dc="http://purl.org/dc/elements/1.1/"
   xmlns:cc="http://creativecommons.org/ns#"
   xmlns:rdf="http://www.w3.org/1999/02/22-rdf-syntax-ns#"
   xmlns:svg="http://www.w3.org/2000/svg"
   xmlns="http://www.w3.org/2000/svg"
   xmlns:xlink="http://www.w3.org/1999/xlink"
   xmlns:sodipodi="http://sodipodi.sourceforge.net/DTD/sodipodi-0.dtd"
   xmlns:inkscape="http://www.inkscape.org/namespaces/inkscape"
   width="30px"
   height="30px"
   version="1.1"
   id="svg8"
   inkscape:version="0.92.4 5da689c313, 2019-01-14"
   sodipodi:docname="container.svg">
  <defs
     id="defs2" />
  <sodipodi:namedview
     id="base"
     pagecolor="#ffffff"
     bordercolor="#666666"
     borderopacity="1.0"
     inkscape:pageopacity="0.0"
     inkscape:pageshadow="2"
     inkscape:zoom="13.049334"
     inkscape:cx="18.679046"
     inkscape:cy="12.165829"
     inkscape:document-units="px"
     inkscape:current-layer="layer1"
     showgrid="false"
     inkscape:snap-page="false"
     units="px"
     inkscape:window-width="1884"
     inkscape:window-height="1061"
     inkscape:window-x="0"
     inkscape:window-y="0"
     inkscape:window-maximized="1"
     fit-margin-top="0"
     fit-margin-left="0"
     fit-margin-right="0"
     fit-margin-bottom="0" />
  <metadata
     id="metadata5">
    <rdf:RDF>
      <cc:Work
         rdf:about="">
        <dc:format>image/svg+xml</dc:format>
        <dc:type
           rdf:resource="http://purl.org/dc/dcmitype/StillImage" />
        <dc:title></dc:title>
      </cc:Work>
    </rdf:RDF>
  </metadata>
    <circle
       style="color:#000000;clip-rule:nonzero;display:inline;overflow:visible;visibility:visible;opacity:1;isolation:auto;mix-blend-mode:normal;color-interpolation:sRGB;color-interpolation-filters:linearRGB;solid-color:#000000;solid-opacity:1;vector-effect:none;fill:rgba(255, 255, 255, 1);fill-opacity:1;fill-rule:evenodd;stroke:#ffffff;stroke-width:1;stroke-linecap:butt;stroke-linejoin:miter;stroke-miterlimit:4;stroke-dasharray:none;stroke-dashoffset:0;stroke-opacity:1;marker:none;color-rendering:auto;image-rendering:auto;shape-rendering:auto;text-rendering:auto;enable-background:accumulate"
       id="path815"
       cx="15"
       cy="15"
       r="14.5" />
<g transform="translate(8,6)"><g id="surface1">
<path style=" stroke:none;fill-rule:nonzero;fill:#FFFFFF;fill-opacity:1;" d="M 2.753906 3.386719 C 2.984375 3.855469 3.484375 4.179688 4.0625 4.179688 C 4.703125 4.179688 5.246094 3.78125 5.4375 3.230469 C 5.628906 3.78125 6.171875 4.179688 6.8125 4.179688 C 7.453125 4.179688 8 3.777344 8.1875 3.222656 C 8.375 3.777344 8.921875 4.179688 9.5625 4.179688 C 10.140625 4.179688 10.640625 3.855469 10.871094 3.386719 C 11.101562 3.851562 11.601562 4.179688 12.179688 4.179688 C 12.976562 4.179688 13.625 3.558594 13.625 2.800781 C 13.625 2.800781 13.625 2.800781 13.625 2.796875 C 13.621094 2.78125 13.621094 2.765625 13.613281 2.746094 C 13.609375 2.738281 13.605469 2.726562 13.597656 2.71875 L 10.808594 0.0585938 C 10.78125 0.0234375 10.738281 0 10.691406 0 L 2.71875 0 C 2.671875 0 2.628906 0.0195312 2.605469 0.0585938 L 0.03125 2.714844 C 0.0117188 2.738281 0.00390625 2.769531 0 2.796875 C 0 2.800781 0 2.800781 0 2.804688 C 0 3.5625 0.648438 4.179688 1.445312 4.179688 C 2.023438 4.179688 2.523438 3.855469 2.753906 3.386719 Z M 2.753906 3.386719 "/>
<path style=" stroke:none;fill-rule:nonzero;fill:#FFFFFF;fill-opacity:1;" d="M 8.53125 9.183594 C 8.5 9.15625 8.476562 9.167969 8.480469 9.207031 L 8.617188 16.59375 C 8.617188 16.632812 8.640625 16.640625 8.664062 16.609375 L 10.425781 14.738281 C 10.4375 14.722656 10.453125 14.714844 10.46875 14.71875 C 10.484375 14.722656 10.5 14.730469 10.503906 14.746094 L 11.648438 16.960938 C 11.664062 16.996094 11.707031 17.011719 11.742188 16.992188 L 12.644531 16.523438 C 12.679688 16.503906 12.691406 16.464844 12.675781 16.429688 L 11.585938 14.316406 C 11.570312 14.28125 11.585938 14.25 11.625 14.25 L 14.0625 14.097656 C 14.101562 14.097656 14.109375 14.074219 14.082031 14.046875 Z M 8.53125 9.183594 "/>
<path style=" stroke:none;fill-rule:nonzero;fill:#FFFFFF;fill-opacity:1;" d="M 12.957031 12.273438 C 12.96875 12.230469 12.964844 4.839844 12.964844 4.839844 C 12.964844 4.542969 12.722656 4.304688 12.425781 4.304688 L 12.296875 4.304688 C 12 4.304688 11.757812 4.542969 11.757812 4.839844 L 11.757812 7.53125 C 11.757812 7.828125 11.519531 8.070312 11.21875 8.070312 L 2.429688 8.070312 C 2.132812 8.070312 1.890625 7.828125 1.890625 7.53125 L 1.890625 4.839844 C 1.890625 4.542969 1.648438 4.304688 1.351562 4.304688 L 1.148438 4.304688 C 0.851562 4.304688 0.609375 4.542969 0.609375 4.839844 L 0.609375 11.75 C 0.609375 12.046875 0.851562 12.289062 1.148438 12.289062 L 8.105469 12.324219 L 8.105469 8.277344 Z M 12.957031 12.273438 "/>
</g>
</g>
</svg>
