<?xml version="1.0" encoding="UTF-8"?>
<svg xmlns="http://www.w3.org/2000/svg" xmlns:xlink="http://www.w3.org/1999/xlink" width="9.122417" height="11" viewBox="0 0 9.122417 11" version="1.1">
<g id="surface1">
<path style=" stroke:none;fill-rule:nonzero;fill:rgb(30%,30%,30%);fill-opacity:1;" d="M 1.78125 2.191406 C 1.933594 2.492188 2.253906 2.703125 2.628906 2.703125 C 3.042969 2.703125 3.394531 2.445312 3.519531 2.089844 C 3.640625 2.445312 3.992188 2.703125 4.40625 2.703125 C 4.824219 2.703125 5.175781 2.445312 5.296875 2.085938 C 5.417969 2.445312 5.773438 2.703125 6.1875 2.703125 C 6.5625 2.703125 6.886719 2.492188 7.035156 2.191406 C 7.183594 2.492188 7.507812 2.703125 7.878906 2.703125 C 8.394531 2.703125 8.816406 2.304688 8.816406 1.8125 C 8.816406 1.8125 8.816406 1.8125 8.816406 1.808594 C 8.816406 1.800781 8.8125 1.789062 8.808594 1.777344 C 8.804688 1.769531 8.800781 1.765625 8.796875 1.757812 L 6.992188 0.0390625 C 6.976562 0.015625 6.945312 0 6.917969 0 L 1.757812 0 C 1.730469 0 1.703125 0.0117188 1.683594 0.0351562 L 0.0195312 1.757812 C 0.0078125 1.773438 0 1.789062 0 1.808594 C 0 1.8125 0 1.8125 0 1.8125 C 0 2.304688 0.417969 2.703125 0.9375 2.703125 C 1.308594 2.703125 1.632812 2.492188 1.78125 2.191406 Z M 1.78125 2.191406 "/>
<path style=" stroke:none;fill-rule:nonzero;fill:rgb(30%,30%,30%);fill-opacity:1;" d="M 5.519531 5.941406 C 5.5 5.925781 5.484375 5.933594 5.488281 5.957031 L 5.574219 10.734375 C 5.574219 10.761719 5.589844 10.765625 5.605469 10.75 L 6.746094 9.535156 C 6.753906 9.527344 6.761719 9.523438 6.773438 9.523438 C 6.785156 9.527344 6.792969 9.53125 6.796875 9.542969 L 7.535156 10.976562 C 7.546875 10.996094 7.574219 11.007812 7.597656 10.996094 L 8.183594 10.691406 C 8.203125 10.679688 8.210938 10.652344 8.203125 10.628906 L 7.496094 9.261719 C 7.484375 9.242188 7.496094 9.222656 7.519531 9.21875 L 9.101562 9.121094 C 9.125 9.121094 9.128906 9.105469 9.109375 9.089844 Z M 5.519531 5.941406 "/>
<path style=" stroke:none;fill-rule:nonzero;fill:rgb(30%,30%,30%);fill-opacity:1;" d="M 8.386719 7.941406 C 8.390625 7.914062 8.386719 3.132812 8.386719 3.132812 C 8.386719 2.941406 8.230469 2.785156 8.039062 2.785156 L 7.957031 2.785156 C 7.765625 2.785156 7.609375 2.941406 7.609375 3.132812 L 7.609375 4.875 C 7.609375 5.066406 7.453125 5.222656 7.261719 5.222656 L 1.570312 5.222656 C 1.378906 5.222656 1.222656 5.066406 1.222656 4.875 L 1.222656 3.132812 C 1.222656 2.941406 1.066406 2.785156 0.875 2.785156 L 0.742188 2.785156 C 0.550781 2.785156 0.394531 2.941406 0.394531 3.132812 L 0.394531 7.601562 C 0.394531 7.796875 0.550781 7.953125 0.742188 7.953125 L 5.242188 7.972656 L 5.242188 5.355469 Z M 8.386719 7.941406 "/>
</g>
</svg>
