<?xml version="1.0" encoding="UTF-8" standalone="no"?>
<!-- Created with Inkscape (http://www.inkscape.org/) -->

<svg
   xmlns:dc="http://purl.org/dc/elements/1.1/"
   xmlns:cc="http://creativecommons.org/ns#"
   xmlns:rdf="http://www.w3.org/1999/02/22-rdf-syntax-ns#"
   xmlns:svg="http://www.w3.org/2000/svg"
   xmlns="http://www.w3.org/2000/svg"
   xmlns:xlink="http://www.w3.org/1999/xlink"
   xmlns:sodipodi="http://sodipodi.sourceforge.net/DTD/sodipodi-0.dtd"
   xmlns:inkscape="http://www.inkscape.org/namespaces/inkscape"
   width="30px"
   height="30px"
   version="1.1"
   id="svg8"
   inkscape:version="0.92.4 5da689c313, 2019-01-14"
   sodipodi:docname="container.svg">
  <defs
     id="defs2" />
  <sodipodi:namedview
     id="base"
     pagecolor="#ffffff"
     bordercolor="#666666"
     borderopacity="1.0"
     inkscape:pageopacity="0.0"
     inkscape:pageshadow="2"
     inkscape:zoom="13.049334"
     inkscape:cx="18.679046"
     inkscape:cy="12.165829"
     inkscape:document-units="px"
     inkscape:current-layer="layer1"
     showgrid="false"
     inkscape:snap-page="false"
     units="px"
     inkscape:window-width="1884"
     inkscape:window-height="1061"
     inkscape:window-x="0"
     inkscape:window-y="0"
     inkscape:window-maximized="1"
     fit-margin-top="0"
     fit-margin-left="0"
     fit-margin-right="0"
     fit-margin-bottom="0" />
  <metadata
     id="metadata5">
    <rdf:RDF>
      <cc:Work
         rdf:about="">
        <dc:format>image/svg+xml</dc:format>
        <dc:type
           rdf:resource="http://purl.org/dc/dcmitype/StillImage" />
        <dc:title></dc:title>
      </cc:Work>
    </rdf:RDF>
  </metadata>
    <circle
       style="color:#000000;clip-rule:nonzero;display:inline;overflow:visible;visibility:visible;opacity:1;isolation:auto;mix-blend-mode:normal;color-interpolation:sRGB;color-interpolation-filters:linearRGB;solid-color:#000000;solid-opacity:1;vector-effect:none;fill:#ffffff;fill-opacity:1;fill-rule:evenodd;stroke:rgba(255, 255, 255, 1);stroke-width:1;stroke-linecap:butt;stroke-linejoin:miter;stroke-miterlimit:4;stroke-dasharray:none;stroke-dashoffset:0;stroke-opacity:1;marker:none;color-rendering:auto;image-rendering:auto;shape-rendering:auto;text-rendering:auto;enable-background:accumulate"
       id="path815"
       cx="15"
       cy="15"
       r="14.5" />
<g transform="translate(7,6)"><g id="surface1">
<path style=" stroke:none;fill-rule:nonzero;fill:rgb(30%,30%,30%);fill-opacity:1;" d="M 3.953125 7.707031 C 3.953125 7.707031 4.542969 7.246094 5.113281 7.351562 C 5.679688 7.457031 6.007812 7.636719 5.898438 8.566406 C 5.792969 9.492188 5.773438 10.242188 5.773438 10.242188 C 5.773438 10.242188 6.648438 8.527344 7.398438 8.492188 C 8.046875 8.460938 8.789062 8.601562 8.84375 9.6875 C 8.84375 9.6875 9.628906 9.886719 9.574219 10.6875 C 9.519531 11.492188 8.523438 12.113281 7.203125 12.257812 C 7.203125 12.257812 7.085938 12.324219 8.09375 12.648438 C 9.253906 13.023438 9.949219 13.558594 9.554688 14.257812 C 9.144531 14.988281 8.628906 15.023438 8.628906 15.023438 C 8.628906 15.023438 8.574219 16.214844 7.539062 16.253906 C 6.183594 16.308594 5.558594 14.21875 5.488281 14.09375 C 5.488281 14.09375 5.488281 15.378906 5.238281 15.863281 C 4.96875 16.386719 4.632812 17.109375 3.597656 16.984375 C 3.167969 16.933594 3.042969 16.378906 3.042969 16.378906 C 3.042969 16.378906 1.921875 16.484375 1.867188 15.59375 C 1.804688 14.542969 3.042969 13.363281 3.042969 13.363281 C 3.042969 13.363281 1.980469 13.734375 1.242188 13.703125 C 0.421875 13.667969 -0.542969 12.9375 0.367188 11.9375 C 0.519531 11.769531 -0.398438 11.117188 0.796875 10.277344 C 1.445312 9.824219 3.042969 10.582031 3.042969 10.582031 C 3.042969 10.582031 1.972656 9.277344 2.207031 8.527344 C 2.4375 7.78125 3.222656 7.457031 3.953125 7.707031 Z M 4.578125 10.40625 C 3.730469 10.40625 3.042969 11.09375 3.042969 11.941406 C 3.042969 12.789062 3.730469 13.476562 4.578125 13.476562 C 5.425781 13.476562 6.113281 12.789062 6.113281 11.941406 C 6.113281 11.09375 5.425781 10.40625 4.578125 10.40625 Z M 4.578125 10.40625 "/>
<path style=" stroke:none;fill-rule:nonzero;fill:rgb(30%,30%,30%);fill-opacity:1;" d="M 11.882812 5.472656 C 11.882812 5.472656 12.179688 5.242188 12.464844 5.292969 C 12.746094 5.347656 12.910156 5.4375 12.855469 5.902344 C 12.804688 6.363281 12.792969 6.738281 12.792969 6.738281 C 12.792969 6.738281 13.230469 5.882812 13.605469 5.863281 C 13.929688 5.851562 14.300781 5.917969 14.328125 6.460938 C 14.328125 6.460938 14.722656 6.5625 14.695312 6.960938 C 14.667969 7.363281 14.167969 7.675781 13.507812 7.746094 C 13.507812 7.746094 13.453125 7.78125 13.953125 7.945312 C 14.535156 8.132812 14.882812 8.398438 14.6875 8.746094 C 14.480469 9.113281 14.222656 9.128906 14.222656 9.128906 C 14.222656 9.128906 14.195312 9.726562 13.675781 9.746094 C 13 9.773438 12.6875 8.730469 12.652344 8.667969 C 12.652344 8.667969 12.652344 9.308594 12.527344 9.550781 C 12.390625 9.8125 12.222656 10.175781 11.707031 10.113281 C 11.492188 10.085938 11.429688 9.808594 11.429688 9.808594 C 11.429688 9.808594 10.867188 9.863281 10.839844 9.414062 C 10.808594 8.890625 11.429688 8.300781 11.429688 8.300781 C 11.429688 8.300781 10.898438 8.484375 10.527344 8.46875 C 10.117188 8.453125 9.636719 8.085938 10.089844 7.585938 C 10.167969 7.503906 9.707031 7.175781 10.304688 6.757812 C 10.628906 6.53125 11.429688 6.910156 11.429688 6.910156 C 11.429688 6.910156 10.894531 6.257812 11.011719 5.882812 C 11.125 5.507812 11.519531 5.347656 11.882812 5.472656 Z M 12.195312 6.824219 C 11.773438 6.824219 11.429688 7.167969 11.429688 7.589844 C 11.429688 8.011719 11.773438 8.355469 12.195312 8.355469 C 12.621094 8.355469 12.964844 8.011719 12.964844 7.589844 C 12.964844 7.167969 12.621094 6.824219 12.195312 6.824219 Z M 12.195312 6.824219 "/>
<path style=" stroke:none;fill-rule:nonzero;fill:rgb(30%,30%,30%);fill-opacity:1;" d="M 6.199219 0.269531 C 6.199219 0.269531 6.625 -0.0664062 7.035156 0.0117188 C 7.441406 0.0898438 7.675781 0.21875 7.601562 0.886719 C 7.523438 1.554688 7.511719 2.09375 7.511719 2.09375 C 7.511719 2.09375 8.140625 0.859375 8.679688 0.832031 C 9.144531 0.8125 9.679688 0.910156 9.71875 1.695312 C 9.71875 1.695312 10.285156 1.835938 10.246094 2.414062 C 10.207031 2.992188 9.488281 3.441406 8.539062 3.542969 C 8.539062 3.542969 8.457031 3.59375 9.179688 3.828125 C 10.015625 4.097656 10.515625 4.480469 10.234375 4.984375 C 9.9375 5.507812 9.566406 5.535156 9.566406 5.535156 C 9.566406 5.535156 9.527344 6.390625 8.78125 6.421875 C 7.804688 6.460938 7.355469 4.957031 7.304688 4.867188 C 7.304688 4.867188 7.304688 5.792969 7.125 6.140625 C 6.929688 6.515625 6.6875 7.039062 5.941406 6.949219 C 5.632812 6.910156 5.546875 6.511719 5.546875 6.511719 C 5.546875 6.511719 4.734375 6.589844 4.695312 5.945312 C 4.652344 5.1875 5.546875 4.339844 5.546875 4.339844 C 5.546875 4.339844 4.78125 4.609375 4.246094 4.585938 C 3.65625 4.558594 2.964844 4.03125 3.617188 3.3125 C 3.726562 3.191406 3.066406 2.722656 3.925781 2.117188 C 4.394531 1.789062 5.546875 2.335938 5.546875 2.335938 C 5.546875 2.335938 4.773438 1.398438 4.941406 0.859375 C 5.109375 0.320312 5.671875 0.0898438 6.199219 0.269531 Z M 6.648438 2.210938 C 6.039062 2.210938 5.546875 2.707031 5.546875 3.316406 C 5.546875 3.925781 6.039062 4.421875 6.648438 4.421875 C 7.261719 4.421875 7.753906 3.925781 7.753906 3.316406 C 7.753906 2.707031 7.261719 2.210938 6.648438 2.210938 Z M 6.648438 2.210938 "/>
</g>
</g>
</svg>
