<?xml version="1.0" encoding="UTF-8" standalone="no"?>
<!-- Created with Inkscape (http://www.inkscape.org/) -->

<svg
   xmlns:dc="http://purl.org/dc/elements/1.1/"
   xmlns:cc="http://creativecommons.org/ns#"
   xmlns:rdf="http://www.w3.org/1999/02/22-rdf-syntax-ns#"
   xmlns:svg="http://www.w3.org/2000/svg"
   xmlns="http://www.w3.org/2000/svg"
   xmlns:xlink="http://www.w3.org/1999/xlink"
   xmlns:sodipodi="http://sodipodi.sourceforge.net/DTD/sodipodi-0.dtd"
   xmlns:inkscape="http://www.inkscape.org/namespaces/inkscape"
   width="30px"
   height="30px"
   version="1.1"
   id="svg8"
   inkscape:version="0.92.4 5da689c313, 2019-01-14"
   sodipodi:docname="container.svg">
  <defs
     id="defs2" />
  <sodipodi:namedview
     id="base"
     pagecolor="#ffffff"
     bordercolor="#666666"
     borderopacity="1.0"
     inkscape:pageopacity="0.0"
     inkscape:pageshadow="2"
     inkscape:zoom="13.049334"
     inkscape:cx="18.679046"
     inkscape:cy="12.165829"
     inkscape:document-units="px"
     inkscape:current-layer="layer1"
     showgrid="false"
     inkscape:snap-page="false"
     units="px"
     inkscape:window-width="1884"
     inkscape:window-height="1061"
     inkscape:window-x="0"
     inkscape:window-y="0"
     inkscape:window-maximized="1"
     fit-margin-top="0"
     fit-margin-left="0"
     fit-margin-right="0"
     fit-margin-bottom="0" />
  <metadata
     id="metadata5">
    <rdf:RDF>
      <cc:Work
         rdf:about="">
        <dc:format>image/svg+xml</dc:format>
        <dc:type
           rdf:resource="http://purl.org/dc/dcmitype/StillImage" />
        <dc:title></dc:title>
      </cc:Work>
    </rdf:RDF>
  </metadata>
    <circle
       style="color:#000000;clip-rule:nonzero;display:inline;overflow:visible;visibility:visible;opacity:1;isolation:auto;mix-blend-mode:normal;color-interpolation:sRGB;color-interpolation-filters:linearRGB;solid-color:#000000;solid-opacity:1;vector-effect:none;fill:#ffffff;fill-opacity:1;fill-rule:evenodd;stroke:rgba(255, 255, 255, 1);stroke-width:1;stroke-linecap:butt;stroke-linejoin:miter;stroke-miterlimit:4;stroke-dasharray:none;stroke-dashoffset:0;stroke-opacity:1;marker:none;color-rendering:auto;image-rendering:auto;shape-rendering:auto;text-rendering:auto;enable-background:accumulate"
       id="path815"
       cx="15"
       cy="15"
       r="14.5" />
<g transform="translate(6,6)"><g id="surface1">
<path style=" stroke:none;fill-rule:nonzero;fill:rgb(30%,30%,30%);fill-opacity:1;" d="M 2.882812 14.566406 C 3.414062 15.097656 3.414062 15.960938 2.882812 16.496094 C 2.351562 17.027344 1.488281 17.027344 0.953125 16.496094 C 0.421875 15.960938 0.421875 15.097656 0.953125 14.566406 C 1.488281 14.035156 2.351562 14.035156 2.882812 14.566406 Z M 2.882812 14.566406 "/>
<path style=" stroke:none;fill-rule:nonzero;fill:rgb(30%,30%,30%);fill-opacity:1;" d="M 17 0 L 0 0.0351562 C 0.230469 0.0351562 0.136719 1.316406 0.136719 1.316406 L 10.007812 1.347656 C 9.949219 1.480469 9.839844 1.574219 9.667969 1.65625 C 9.378906 1.789062 8.957031 1.851562 8.511719 1.917969 C 7.664062 2.039062 6.707031 2.179688 6.085938 2.878906 C 5.519531 3.515625 5.339844 4.335938 5.5625 5.253906 C 5.734375 5.941406 6.121094 6.640625 6.671875 7.242188 C 6.355469 8.082031 5.972656 9.058594 5.703125 9.613281 C 5.160156 10.71875 4.859375 11.386719 4.597656 11.65625 C 4.300781 11.964844 3.722656 12.460938 3.441406 12.699219 L 3.394531 9.621094 C 3.398438 9.371094 3.246094 9.21875 2.996094 9.214844 C 2.746094 9.207031 2.550781 9.363281 2.53125 9.65625 C 2.351562 11.945312 2.519531 13.539062 2.519531 13.539062 C 2.429688 13.847656 3.949219 15.335938 4.21875 15.285156 L 8.210938 14.277344 C 8.421875 14.226562 8.554688 14.015625 8.507812 13.800781 C 8.457031 13.589844 8.242188 13.457031 8.03125 13.503906 L 5.386719 14.097656 L 5.488281 14.015625 C 5.488281 14.015625 5.703125 13.902344 6.527344 12.710938 C 7.164062 11.792969 9.199219 8.589844 9.855469 7.066406 C 10.347656 5.914062 9.226562 5.953125 9.074219 6.300781 L 7.070312 9.90625 L 6.886719 9.832031 L 7.570312 8.011719 C 7.578125 7.996094 7.585938 7.984375 7.589844 7.96875 L 8.296875 6.113281 C 8.410156 5.820312 8.261719 5.488281 7.964844 5.375 C 7.671875 5.265625 7.339844 5.414062 7.226562 5.707031 C 7.226562 5.707031 7.125 6 6.96875 6.433594 C 6.640625 6 6.398438 5.527344 6.289062 5.074219 C 6.121094 4.398438 6.242188 3.824219 6.644531 3.371094 C 7.082031 2.878906 7.863281 2.765625 8.621094 2.652344 C 9.121094 2.582031 9.59375 2.511719 9.980469 2.332031 C 10.429688 2.125 10.699219 1.796875 10.78125 1.347656 L 16.949219 1.367188 Z M 17 0 "/>
</g>
</g>
</svg>
