<?xml version="1.0" encoding="UTF-8" standalone="no"?>
<!-- Created with Inkscape (http://www.inkscape.org/) -->

<svg
   xmlns:dc="http://purl.org/dc/elements/1.1/"
   xmlns:cc="http://creativecommons.org/ns#"
   xmlns:rdf="http://www.w3.org/1999/02/22-rdf-syntax-ns#"
   xmlns:svg="http://www.w3.org/2000/svg"
   xmlns="http://www.w3.org/2000/svg"
   xmlns:xlink="http://www.w3.org/1999/xlink"
   xmlns:sodipodi="http://sodipodi.sourceforge.net/DTD/sodipodi-0.dtd"
   xmlns:inkscape="http://www.inkscape.org/namespaces/inkscape"
   width="30px"
   height="30px"
   version="1.1"
   id="svg8"
   inkscape:version="0.92.4 5da689c313, 2019-01-14"
   sodipodi:docname="container.svg">
  <defs
     id="defs2" />
  <sodipodi:namedview
     id="base"
     pagecolor="#ffffff"
     bordercolor="#666666"
     borderopacity="1.0"
     inkscape:pageopacity="0.0"
     inkscape:pageshadow="2"
     inkscape:zoom="13.049334"
     inkscape:cx="18.679046"
     inkscape:cy="12.165829"
     inkscape:document-units="px"
     inkscape:current-layer="layer1"
     showgrid="false"
     inkscape:snap-page="false"
     units="px"
     inkscape:window-width="1884"
     inkscape:window-height="1061"
     inkscape:window-x="0"
     inkscape:window-y="0"
     inkscape:window-maximized="1"
     fit-margin-top="0"
     fit-margin-left="0"
     fit-margin-right="0"
     fit-margin-bottom="0" />
  <metadata
     id="metadata5">
    <rdf:RDF>
      <cc:Work
         rdf:about="">
        <dc:format>image/svg+xml</dc:format>
        <dc:type
           rdf:resource="http://purl.org/dc/dcmitype/StillImage" />
        <dc:title></dc:title>
      </cc:Work>
    </rdf:RDF>
  </metadata>
    <circle
       style="color:#000000;clip-rule:nonzero;display:inline;overflow:visible;visibility:visible;opacity:1;isolation:auto;mix-blend-mode:normal;color-interpolation:sRGB;color-interpolation-filters:linearRGB;solid-color:#000000;solid-opacity:1;vector-effect:none;fill:#ffffff;fill-opacity:1;fill-rule:evenodd;stroke:rgba(255, 255, 255, 1);stroke-width:1;stroke-linecap:butt;stroke-linejoin:miter;stroke-miterlimit:4;stroke-dasharray:none;stroke-dashoffset:0;stroke-opacity:1;marker:none;color-rendering:auto;image-rendering:auto;shape-rendering:auto;text-rendering:auto;enable-background:accumulate"
       id="path815"
       cx="15"
       cy="15"
       r="14.5" />
<g transform="translate(6,6)"><g id="surface1">
<path style=" stroke:none;fill-rule:nonzero;fill:rgb(30%,30%,30%);fill-opacity:1;" d="M 10.394531 6.652344 L 8.753906 7.554688 C 8.417969 7.460938 8.054688 7.558594 7.8125 7.8125 C 7.570312 8.066406 7.492188 8.433594 7.601562 8.765625 L 6.65625 10.335938 L 8.285156 9.382812 C 8.597656 9.457031 8.925781 9.363281 9.15625 9.140625 C 9.386719 8.914062 9.488281 8.585938 9.421875 8.273438 Z M 10.394531 6.652344 "/>
<path style=" stroke:none;fill-rule:nonzero;fill:rgb(30%,30%,30%);fill-opacity:1;" d="M 8.546875 14.023438 C 7.199219 14.023438 5.925781 13.578125 4.898438 12.757812 L 3.253906 13.328125 C 4.585938 14.703125 6.464844 15.558594 8.546875 15.558594 C 9.296875 15.558594 10.042969 15.445312 10.757812 15.222656 L 9.703125 13.910156 C 9.324219 13.988281 8.933594 14.023438 8.546875 14.023438 Z M 8.546875 14.023438 "/>
<path style=" stroke:none;fill-rule:nonzero;fill:rgb(30%,30%,30%);fill-opacity:1;" d="M 15.851562 8.378906 C 15.851562 7.683594 15.75 6.992188 15.546875 6.328125 L 14.234375 7.367188 C 14.296875 7.703125 14.328125 8.042969 14.328125 8.378906 C 14.328125 9.761719 13.824219 11.066406 12.898438 12.097656 L 13.523438 13.632812 C 14.957031 12.324219 15.851562 10.453125 15.851562 8.378906 Z M 15.851562 8.378906 "/>
<path style=" stroke:none;fill-rule:nonzero;fill:rgb(30%,30%,30%);fill-opacity:1;" d="M 8.546875 1.203125 C 7.789062 1.203125 7.039062 1.316406 6.320312 1.542969 L 7.433594 2.839844 C 7.800781 2.773438 8.171875 2.738281 8.546875 2.738281 C 9.988281 2.738281 11.351562 3.25 12.414062 4.183594 L 14.027344 3.636719 C 12.6875 2.144531 10.730469 1.203125 8.546875 1.203125 Z M 8.546875 1.203125 "/>
<path style=" stroke:none;fill-rule:nonzero;fill:rgb(30%,30%,30%);fill-opacity:1;" d="M 2.765625 8.378906 C 2.765625 6.976562 3.285156 5.652344 4.238281 4.613281 L 3.6875 3.019531 C 2.1875 4.335938 1.242188 6.25 1.242188 8.378906 C 1.242188 9.1875 1.378906 9.988281 1.648438 10.75 L 2.898438 9.605469 C 2.808594 9.203125 2.765625 8.792969 2.765625 8.378906 Z M 2.765625 8.378906 "/>
<path style=" stroke:none;fill-rule:nonzero;fill:rgb(30%,30%,30%);fill-opacity:1;" d="M 11.761719 11.40625 C 12.527344 10.621094 13 9.554688 13 8.378906 C 13 8.066406 12.964844 7.757812 12.898438 7.453125 L 17 3.726562 L 11.746094 5.339844 C 10.902344 4.484375 9.75 4.003906 8.546875 4.003906 C 8.199219 4.003906 7.851562 4.046875 7.511719 4.125 L 3.664062 0 L 5.375 5.3125 C 4.582031 6.101562 4.09375 7.183594 4.09375 8.378906 C 4.09375 8.734375 4.136719 9.085938 4.222656 9.429688 L 0 13.457031 L 5.539062 11.605469 C 6.363281 12.347656 7.4375 12.757812 8.546875 12.757812 C 8.898438 12.757812 9.246094 12.714844 9.585938 12.636719 L 13.535156 16.828125 Z M 6.273438 10.585938 C 5.671875 9.996094 5.34375 9.210938 5.34375 8.378906 C 5.34375 7.550781 5.671875 6.765625 6.273438 6.175781 C 6.878906 5.582031 7.6875 5.253906 8.546875 5.253906 C 9.40625 5.253906 10.214844 5.582031 10.820312 6.175781 C 11.417969 6.765625 11.75 7.550781 11.75 8.378906 C 11.75 9.210938 11.417969 9.996094 10.820312 10.585938 C 10.214844 11.179688 9.40625 11.507812 8.546875 11.507812 C 7.6875 11.507812 6.878906 11.179688 6.273438 10.585938 Z M 6.273438 10.585938 "/>
</g>
</g>
</svg>
