<?xml version="1.0" encoding="UTF-8"?>
<svg xmlns="http://www.w3.org/2000/svg" xmlns:xlink="http://www.w3.org/1999/xlink" width="10.22725" height="11" viewBox="0 0 10.22725 11" version="1.1">
<g id="surface1">
<path style=" stroke:none;fill-rule:nonzero;fill:rgb(30%,30%,30%);fill-opacity:1;" d="M 9.171875 4.234375 L 9.679688 3.027344 C 9.785156 2.773438 9.660156 2.484375 9.40625 2.378906 L 7.742188 1.699219 C 7.488281 1.597656 7.195312 1.71875 7.089844 1.976562 L 6.359375 3.839844 L 6.222656 4.21875 L 5.589844 4.210938 L 5.1875 1.691406 L 3.820312 2.296875 C 3.773438 2.1875 3.730469 2.078125 3.683594 1.972656 C 3.328125 1.117188 2.988281 0.3125 2.230469 0.0742188 C 1.777344 -0.0625 1.273438 -0.0078125 0.875 0.226562 C 0.550781 0.414062 0.300781 0.714844 0.152344 1.089844 C 0.00390625 1.453125 -0.0351562 1.867188 0.03125 2.28125 C 0.0625 2.476562 0.25 2.613281 0.445312 2.578125 C 0.640625 2.546875 0.773438 2.363281 0.742188 2.167969 C 0.652344 1.605469 0.851562 1.074219 1.242188 0.847656 C 1.503906 0.691406 1.8125 0.703125 2.015625 0.765625 C 2.453125 0.902344 2.714844 1.527344 3.019531 2.25 C 3.066406 2.359375 3.113281 2.472656 3.164062 2.589844 L 2.941406 2.6875 L 1.71875 3.265625 L 2.78125 4.144531 L 0.863281 4.144531 L 0.863281 10.421875 C 0.863281 10.742188 1.121094 11 1.441406 11 L 9.648438 11 C 9.96875 11 10.226562 10.742188 10.226562 10.421875 L 10.226562 4.238281 Z M 7.933594 2.34375 C 7.902344 2.332031 7.886719 2.292969 7.902344 2.261719 L 7.910156 2.242188 C 7.921875 2.210938 7.957031 2.195312 7.992188 2.207031 L 8.960938 2.601562 C 8.992188 2.613281 9.007812 2.648438 8.996094 2.683594 L 8.988281 2.699219 C 8.972656 2.734375 8.9375 2.75 8.90625 2.734375 M 7.363281 2.449219 L 9.136719 3.140625 L 8.6875 4.230469 L 6.660156 4.21875 Z M 5.167969 10.449219 C 4.683594 10.449219 4.359375 10.316406 4.359375 9.789062 C 4.359375 9.238281 4.691406 9.109375 5.167969 9.109375 C 5.648438 9.109375 5.976562 9.238281 5.976562 9.789062 C 5.976562 10.308594 5.648438 10.449219 5.167969 10.449219 Z M 5.933594 8.257812 L 5.847656 8.257812 L 5.664062 8.667969 L 4.640625 8.667969 L 4.640625 7.335938 L 5.402344 7.335938 C 6.359375 7.335938 6.621094 6.996094 6.621094 6.5625 C 6.621094 6.15625 6.378906 5.789062 5.761719 5.789062 C 5.082031 5.789062 4.769531 6.113281 4.769531 6.710938 L 3.578125 6.710938 C 3.578125 5.597656 4.167969 4.746094 5.726562 4.746094 C 7.230469 4.746094 7.835938 5.5625 7.835938 6.5625 C 7.835938 7.894531 6.621094 8.257812 5.933594 8.257812 Z M 5.933594 8.257812 "/>
</g>
</svg>
