<?xml version="1.0" encoding="UTF-8" standalone="no"?>
<!-- Created with Inkscape (http://www.inkscape.org/) -->

<svg
   xmlns:dc="http://purl.org/dc/elements/1.1/"
   xmlns:cc="http://creativecommons.org/ns#"
   xmlns:rdf="http://www.w3.org/1999/02/22-rdf-syntax-ns#"
   xmlns:svg="http://www.w3.org/2000/svg"
   xmlns="http://www.w3.org/2000/svg"
   xmlns:xlink="http://www.w3.org/1999/xlink"
   xmlns:sodipodi="http://sodipodi.sourceforge.net/DTD/sodipodi-0.dtd"
   xmlns:inkscape="http://www.inkscape.org/namespaces/inkscape"
   width="30px"
   height="30px"
   version="1.1"
   id="svg8"
   inkscape:version="0.92.4 5da689c313, 2019-01-14"
   sodipodi:docname="container.svg">
  <defs
     id="defs2" />
  <sodipodi:namedview
     id="base"
     pagecolor="#ffffff"
     bordercolor="#666666"
     borderopacity="1.0"
     inkscape:pageopacity="0.0"
     inkscape:pageshadow="2"
     inkscape:zoom="13.049334"
     inkscape:cx="18.679046"
     inkscape:cy="12.165829"
     inkscape:document-units="px"
     inkscape:current-layer="layer1"
     showgrid="false"
     inkscape:snap-page="false"
     units="px"
     inkscape:window-width="1884"
     inkscape:window-height="1061"
     inkscape:window-x="0"
     inkscape:window-y="0"
     inkscape:window-maximized="1"
     fit-margin-top="0"
     fit-margin-left="0"
     fit-margin-right="0"
     fit-margin-bottom="0" />
  <metadata
     id="metadata5">
    <rdf:RDF>
      <cc:Work
         rdf:about="">
        <dc:format>image/svg+xml</dc:format>
        <dc:type
           rdf:resource="http://purl.org/dc/dcmitype/StillImage" />
        <dc:title></dc:title>
      </cc:Work>
    </rdf:RDF>
  </metadata>
    <circle
       style="color:#000000;clip-rule:nonzero;display:inline;overflow:visible;visibility:visible;opacity:1;isolation:auto;mix-blend-mode:normal;color-interpolation:sRGB;color-interpolation-filters:linearRGB;solid-color:#000000;solid-opacity:1;vector-effect:none;fill:rgba(255, 255, 255, 1);fill-opacity:1;fill-rule:evenodd;stroke:#ffffff;stroke-width:1;stroke-linecap:butt;stroke-linejoin:miter;stroke-miterlimit:4;stroke-dasharray:none;stroke-dashoffset:0;stroke-opacity:1;marker:none;color-rendering:auto;image-rendering:auto;shape-rendering:auto;text-rendering:auto;enable-background:accumulate"
       id="path815"
       cx="15"
       cy="15"
       r="14.5" />
<g transform="translate(6,8)"><g id="surface1">
<path style=" stroke:none;fill-rule:nonzero;fill:#FFFFFF;fill-opacity:1;" d="M 13.507812 3.769531 C 13.539062 3.769531 13.75 4.335938 14.050781 4.328125 C 14.574219 4.308594 14.574219 3.910156 14.511719 3.625 C 14.40625 3.152344 13.351562 2.882812 12.835938 2.921875 C 11.578125 3.019531 10.488281 3.832031 9.792969 5.15625 C 9.105469 6.460938 10.144531 8.804688 11.148438 8.820312 C 12.074219 8.835938 12.695312 7.402344 13.363281 6.84375 C 13.933594 6.371094 14.449219 6 15.371094 6.128906 C 15.460938 6.140625 16.042969 6.207031 16.394531 6.765625 C 16.746094 7.328125 16.539062 8.226562 16.058594 8.40625 C 15.574219 8.585938 15.09375 8.292969 14.957031 7.847656 C 14.90625 7.683594 14.929688 7.394531 14.988281 7.371094 C 15.097656 7.332031 15.15625 7.824219 15.5 7.847656 C 15.664062 7.859375 15.816406 7.714844 15.867188 7.578125 C 15.96875 7.296875 15.707031 7.003906 15.46875 6.972656 C 14.207031 6.8125 14.023438 7.964844 14.367188 8.742188 C 15.164062 10.535156 17 11.214844 17 11.214844 L 16.980469 12.832031 L 0.00390625 12.832031 C 0.00390625 12.832031 -0.00390625 11.496094 0.00390625 11.492188 C 2.078125 10.550781 2.683594 7.578125 3.082031 6.828125 C 4.441406 4.265625 5.84375 1.105469 9.953125 0.132812 C 11.457031 -0.222656 13.644531 0.132812 14.878906 1.203125 C 15.535156 1.773438 16.214844 2.730469 16.042969 3.785156 C 16.007812 3.984375 15.851562 4.96875 15.085938 5.234375 C 14.445312 5.457031 13.703125 5.230469 13.507812 4.675781 C 13.386719 4.332031 13.332031 3.769531 13.507812 3.769531 Z M 13.507812 3.769531 "/>
</g>
</g>
</svg>
