<?xml version="1.0" encoding="UTF-8"?>
<svg xmlns="http://www.w3.org/2000/svg" xmlns:xlink="http://www.w3.org/1999/xlink" width="11" height="6.817999" viewBox="0 0 11 6.817999" version="1.1">
<g id="surface1">
<path style=" stroke:none;fill-rule:nonzero;fill:rgb(30%,30%,30%);fill-opacity:1;" d="M 5.5625 0 C 5.542969 0 5.519531 0 5.5 0 C 5.488281 0 5.472656 0 5.460938 0 C 2.441406 0.00390625 0 0.492188 0 1.089844 L 0 5.730469 C 0 6.328125 2.441406 6.8125 5.460938 6.816406 L 5.5625 6.816406 C 8.570312 6.8125 11 6.328125 11 5.730469 L 11 1.089844 C 11 0.492188 8.570312 0.0078125 5.5625 0 M 10.128906 2.101562 C 10.222656 2.078125 10.273438 2.066406 10.367188 2.039062 L 10.367188 2.375 C 10.273438 2.398438 10.222656 2.410156 10.128906 2.433594 Z M 0.589844 2.019531 C 0.6875 2.042969 0.734375 2.058594 0.832031 2.082031 L 0.832031 2.414062 C 0.734375 2.390625 0.6875 2.378906 0.589844 2.351562 Z M 0.957031 5.824219 C 0.761719 5.777344 0.664062 5.75 0.460938 5.695312 L 0.460938 4.707031 C 0.460938 4.707031 0.492188 4.421875 0.710938 4.480469 C 0.925781 4.535156 0.957031 4.835938 0.957031 4.835938 Z M 0.957031 4.070312 C 0.761719 4.019531 0.664062 3.992188 0.460938 3.941406 L 0.460938 2.949219 C 0.460938 2.949219 0.492188 2.664062 0.710938 2.722656 C 0.925781 2.78125 0.957031 3.078125 0.957031 3.078125 Z M 2.28125 6.097656 C 2.082031 6.066406 1.984375 6.050781 1.792969 6.011719 L 1.792969 5.019531 C 1.792969 5.019531 1.816406 4.734375 2.03125 4.773438 C 2.246094 4.808594 2.28125 5.109375 2.28125 5.109375 Z M 2.28125 4.34375 C 2.082031 4.308594 1.984375 4.292969 1.792969 4.257812 L 1.792969 3.265625 C 1.792969 3.265625 1.816406 2.980469 2.03125 3.019531 C 2.246094 3.054688 2.28125 3.351562 2.28125 3.351562 Z M 1.917969 2.65625 L 1.917969 2.324219 C 2.007812 2.339844 2.054688 2.347656 2.152344 2.363281 L 2.152344 2.699219 C 2.054688 2.683594 2.007812 2.675781 1.917969 2.65625 M 3.828125 6.253906 C 3.5625 6.242188 3.433594 6.230469 3.207031 6.210938 L 3.207031 5.21875 C 3.207031 5.21875 3.230469 4.933594 3.503906 4.953125 C 3.777344 4.96875 3.828125 5.265625 3.828125 5.265625 Z M 3.828125 4.5 C 3.5625 4.484375 3.4375 4.476562 3.207031 4.457031 L 3.207031 3.464844 C 3.207031 3.464844 3.230469 3.175781 3.503906 3.195312 C 3.777344 3.214844 3.828125 3.507812 3.828125 3.507812 Z M 3.355469 2.847656 L 3.355469 2.511719 C 3.472656 2.519531 3.535156 2.527344 3.660156 2.535156 L 3.660156 2.867188 C 3.535156 2.859375 3.472656 2.855469 3.355469 2.847656 M 5.835938 6.292969 C 5.730469 6.296875 5.644531 6.296875 5.5625 6.296875 L 5.460938 6.296875 C 5.347656 6.296875 5.230469 6.296875 5.082031 6.292969 L 5.082031 5.304688 C 5.082031 5.304688 5.125 5.011719 5.457031 5.011719 L 5.460938 5.011719 C 5.496094 5.015625 5.527344 5.019531 5.5625 5.023438 C 5.796875 5.078125 5.835938 5.304688 5.835938 5.304688 Z M 5.835938 4.539062 L 5.460938 4.539062 C 5.347656 4.539062 5.230469 4.539062 5.082031 4.539062 L 5.082031 3.546875 C 5.082031 3.546875 5.125 3.257812 5.457031 3.257812 C 5.457031 3.257812 5.457031 3.257812 5.460938 3.257812 C 5.496094 3.257812 5.527344 3.261719 5.5625 3.269531 C 5.796875 3.324219 5.835938 3.546875 5.835938 3.546875 Z M 5.273438 2.917969 L 5.273438 2.585938 L 5.640625 2.585938 L 5.640625 2.917969 L 5.5625 2.917969 C 5.527344 2.917969 5.492188 2.917969 5.460938 2.917969 L 5.273438 2.917969 M 7.738281 6.21875 C 7.503906 6.238281 7.375 6.246094 7.105469 6.261719 L 7.105469 5.269531 C 7.105469 5.269531 7.148438 4.976562 7.429688 4.957031 C 7.710938 4.941406 7.738281 5.226562 7.738281 5.226562 Z M 7.738281 4.464844 C 7.503906 4.480469 7.375 4.492188 7.105469 4.503906 L 7.105469 3.515625 C 7.105469 3.515625 7.148438 3.222656 7.429688 3.203125 C 7.710938 3.183594 7.738281 3.472656 7.738281 3.472656 Z M 7.273438 2.875 L 7.273438 2.539062 C 7.402344 2.53125 7.464844 2.527344 7.582031 2.519531 L 7.582031 2.855469 C 7.464844 2.859375 7.402344 2.867188 7.273438 2.875 M 8.679688 6.109375 L 8.679688 5.121094 C 8.679688 5.121094 8.707031 4.824219 8.921875 4.789062 C 9.140625 4.75 9.167969 5.035156 9.167969 5.035156 L 9.167969 6.023438 C 8.976562 6.0625 8.878906 6.082031 8.679688 6.109375 M 8.679688 4.351562 L 8.679688 3.363281 C 8.679688 3.363281 8.707031 3.070312 8.921875 3.03125 C 9.140625 2.996094 9.167969 3.28125 9.167969 3.28125 L 9.167969 4.273438 C 8.976562 4.308594 8.878906 4.324219 8.679688 4.351562 M 8.808594 2.710938 L 8.808594 2.378906 C 8.902344 2.363281 8.949219 2.355469 9.046875 2.335938 L 9.046875 2.671875 C 8.949219 2.6875 8.902344 2.695312 8.808594 2.710938 M 5.5625 1.992188 L 5.460938 1.992188 C 2.960938 1.988281 0.9375 1.585938 0.9375 1.089844 C 0.9375 0.59375 2.960938 0.191406 5.460938 0.1875 L 5.5625 0.1875 C 8.054688 0.191406 10.058594 0.597656 10.058594 1.089844 C 10.058594 1.585938 8.050781 1.984375 5.5625 1.992188 M 10.5 5.71875 C 10.296875 5.773438 10.199219 5.796875 10.003906 5.84375 L 10.003906 4.855469 C 10.003906 4.855469 10.03125 4.554688 10.246094 4.5 C 10.460938 4.445312 10.5 4.726562 10.5 4.726562 Z M 10.5 3.960938 C 10.296875 4.015625 10.199219 4.039062 10.003906 4.089844 L 10.003906 3.097656 C 10.003906 3.097656 10.03125 2.800781 10.246094 2.742188 C 10.460938 2.6875 10.5 2.972656 10.5 2.972656 Z M 10.5 3.960938 "/>
</g>
</svg>
