<?xml version="1.0" encoding="UTF-8"?>
<svg xmlns="http://www.w3.org/2000/svg" xmlns:xlink="http://www.w3.org/1999/xlink" width="11" height="9.143465" viewBox="0 0 11 9.143465" version="1.1">
<g id="surface1">
<path style=" stroke:none;fill-rule:nonzero;fill:rgb(30%,30%,30%);fill-opacity:1;" d="M 0 8.226562 L 1.550781 9.144531 C 1.550781 9.144531 3.261719 7.941406 3.578125 7.84375 C 3.894531 7.75 7.441406 7.527344 7.789062 7.402344 C 8.136719 7.273438 10.894531 4.996094 10.988281 4.582031 C 11.082031 4.171875 10.554688 3.949219 10.195312 4.140625 C 9.824219 4.339844 7.917969 5.722656 7.535156 5.785156 C 6.648438 5.933594 5.644531 5.820312 5.699219 5.753906 C 5.84375 5.582031 7.070312 4.632812 7.15625 4.519531 C 7.304688 4.324219 7.316406 3.632812 6.714844 3.792969 C 6.203125 3.925781 5.023438 4.726562 4.683594 4.960938 C 4.625 5.003906 4.554688 5.03125 4.484375 5.042969 C 4.144531 5.101562 3.09375 5.3125 2.566406 5.785156 C 1.933594 6.355469 0 8.226562 0 8.226562 Z M 0 8.226562 "/>
<path style=" stroke:none;fill-rule:nonzero;fill:rgb(30%,30%,30%);fill-opacity:1;" d="M 6.910156 3.367188 L 5.453125 3.09375 L 4.363281 4.097656 L 4.21875 2.675781 L 2.914062 2.015625 L 4.28125 1.410156 L 4.570312 0 L 5.554688 1.046875 L 7.035156 0.835938 L 6.28125 2.085938 Z M 6.910156 3.367188 "/>
</g>
</svg>
