<?xml version="1.0" encoding="UTF-8" standalone="no"?>
<!-- Created with Inkscape (http://www.inkscape.org/) -->

<svg
   xmlns:dc="http://purl.org/dc/elements/1.1/"
   xmlns:cc="http://creativecommons.org/ns#"
   xmlns:rdf="http://www.w3.org/1999/02/22-rdf-syntax-ns#"
   xmlns:svg="http://www.w3.org/2000/svg"
   xmlns="http://www.w3.org/2000/svg"
   xmlns:xlink="http://www.w3.org/1999/xlink"
   xmlns:sodipodi="http://sodipodi.sourceforge.net/DTD/sodipodi-0.dtd"
   xmlns:inkscape="http://www.inkscape.org/namespaces/inkscape"
   width="30px"
   height="30px"
   version="1.1"
   id="svg8"
   inkscape:version="0.92.4 5da689c313, 2019-01-14"
   sodipodi:docname="container.svg">
  <defs
     id="defs2" />
  <sodipodi:namedview
     id="base"
     pagecolor="#ffffff"
     bordercolor="#666666"
     borderopacity="1.0"
     inkscape:pageopacity="0.0"
     inkscape:pageshadow="2"
     inkscape:zoom="13.049334"
     inkscape:cx="18.679046"
     inkscape:cy="12.165829"
     inkscape:document-units="px"
     inkscape:current-layer="layer1"
     showgrid="false"
     inkscape:snap-page="false"
     units="px"
     inkscape:window-width="1884"
     inkscape:window-height="1061"
     inkscape:window-x="0"
     inkscape:window-y="0"
     inkscape:window-maximized="1"
     fit-margin-top="0"
     fit-margin-left="0"
     fit-margin-right="0"
     fit-margin-bottom="0" />
  <metadata
     id="metadata5">
    <rdf:RDF>
      <cc:Work
         rdf:about="">
        <dc:format>image/svg+xml</dc:format>
        <dc:type
           rdf:resource="http://purl.org/dc/dcmitype/StillImage" />
        <dc:title></dc:title>
      </cc:Work>
    </rdf:RDF>
  </metadata>
    <circle
       style="color:#000000;clip-rule:nonzero;display:inline;overflow:visible;visibility:visible;opacity:1;isolation:auto;mix-blend-mode:normal;color-interpolation:sRGB;color-interpolation-filters:linearRGB;solid-color:#000000;solid-opacity:1;vector-effect:none;fill:rgba(255, 255, 255, 1);fill-opacity:1;fill-rule:evenodd;stroke:#ffffff;stroke-width:1;stroke-linecap:butt;stroke-linejoin:miter;stroke-miterlimit:4;stroke-dasharray:none;stroke-dashoffset:0;stroke-opacity:1;marker:none;color-rendering:auto;image-rendering:auto;shape-rendering:auto;text-rendering:auto;enable-background:accumulate"
       id="path815"
       cx="15"
       cy="15"
       r="14.5" />
<g transform="translate(6,7)"><g id="surface1">
<path style=" stroke:none;fill-rule:nonzero;fill:#FFFFFF;fill-opacity:1;" d="M 5.355469 6.402344 C 5.421875 6.316406 5.535156 6.273438 5.644531 6.296875 C 5.753906 6.316406 5.84375 6.398438 5.871094 6.507812 L 6.839844 10.019531 L 8.269531 4.035156 C 8.304688 3.898438 8.425781 3.804688 8.566406 3.808594 C 8.703125 3.8125 8.824219 3.910156 8.847656 4.046875 L 9.894531 9.488281 L 10.914062 7.460938 C 10.964844 7.363281 11.066406 7.300781 11.179688 7.300781 L 15.714844 7.3125 C 16.472656 6.496094 17 5.609375 17 4.382812 C 17 1.960938 15.039062 0 12.617188 0 C 10.726562 0 9.113281 1.203125 8.5 2.886719 C 7.886719 1.203125 6.273438 0 4.382812 0 C 1.960938 0 0 1.960938 0 4.382812 C 0 5.539062 0.515625 6.464844 1.207031 7.273438 L 4.667969 7.277344 Z M 5.355469 6.402344 "/>
<path style=" stroke:none;fill-rule:nonzero;fill:#FFFFFF;fill-opacity:1;" d="M 10.066406 10.285156 C 10.007812 10.398438 9.886719 10.460938 9.761719 10.445312 C 9.636719 10.425781 9.535156 10.332031 9.511719 10.207031 L 8.535156 5.125 L 7.140625 10.953125 C 7.109375 11.082031 6.992188 11.175781 6.859375 11.179688 C 6.855469 11.179688 6.855469 11.179688 6.851562 11.179688 C 6.71875 11.179688 6.601562 11.089844 6.566406 10.960938 L 5.492188 7.054688 L 5.003906 7.675781 C 4.949219 7.746094 4.863281 7.789062 4.773438 7.789062 L 1.675781 7.785156 C 2.332031 8.449219 3.066406 9.042969 3.640625 9.636719 C 4.949219 10.980469 5.152344 11.539062 8.429688 15.257812 C 11.144531 11.941406 11.304688 11.660156 13.164062 9.742188 C 13.851562 9.027344 14.578125 8.429688 15.210938 7.824219 L 11.3125 7.8125 Z M 10.066406 10.285156 "/>
</g>
</g>
</svg>
