<?xml version="1.0" encoding="UTF-8" standalone="no"?>
<!-- Created with Inkscape (http://www.inkscape.org/) -->

<svg
   xmlns:dc="http://purl.org/dc/elements/1.1/"
   xmlns:cc="http://creativecommons.org/ns#"
   xmlns:rdf="http://www.w3.org/1999/02/22-rdf-syntax-ns#"
   xmlns:svg="http://www.w3.org/2000/svg"
   xmlns="http://www.w3.org/2000/svg"
   xmlns:xlink="http://www.w3.org/1999/xlink"
   xmlns:sodipodi="http://sodipodi.sourceforge.net/DTD/sodipodi-0.dtd"
   xmlns:inkscape="http://www.inkscape.org/namespaces/inkscape"
   width="30px"
   height="30px"
   version="1.1"
   id="svg8"
   inkscape:version="0.92.4 5da689c313, 2019-01-14"
   sodipodi:docname="container.svg">
  <defs
     id="defs2" />
  <sodipodi:namedview
     id="base"
     pagecolor="#ffffff"
     bordercolor="#666666"
     borderopacity="1.0"
     inkscape:pageopacity="0.0"
     inkscape:pageshadow="2"
     inkscape:zoom="13.049334"
     inkscape:cx="18.679046"
     inkscape:cy="12.165829"
     inkscape:document-units="px"
     inkscape:current-layer="layer1"
     showgrid="false"
     inkscape:snap-page="false"
     units="px"
     inkscape:window-width="1884"
     inkscape:window-height="1061"
     inkscape:window-x="0"
     inkscape:window-y="0"
     inkscape:window-maximized="1"
     fit-margin-top="0"
     fit-margin-left="0"
     fit-margin-right="0"
     fit-margin-bottom="0" />
  <metadata
     id="metadata5">
    <rdf:RDF>
      <cc:Work
         rdf:about="">
        <dc:format>image/svg+xml</dc:format>
        <dc:type
           rdf:resource="http://purl.org/dc/dcmitype/StillImage" />
        <dc:title></dc:title>
      </cc:Work>
    </rdf:RDF>
  </metadata>
    <circle
       style="color:#000000;clip-rule:nonzero;display:inline;overflow:visible;visibility:visible;opacity:1;isolation:auto;mix-blend-mode:normal;color-interpolation:sRGB;color-interpolation-filters:linearRGB;solid-color:#000000;solid-opacity:1;vector-effect:none;fill:rgba(255, 255, 255, 1);fill-opacity:1;fill-rule:evenodd;stroke:#ffffff;stroke-width:1;stroke-linecap:butt;stroke-linejoin:miter;stroke-miterlimit:4;stroke-dasharray:none;stroke-dashoffset:0;stroke-opacity:1;marker:none;color-rendering:auto;image-rendering:auto;shape-rendering:auto;text-rendering:auto;enable-background:accumulate"
       id="path815"
       cx="15"
       cy="15"
       r="14.5" />
<g transform="translate(6,6)"><g id="surface1">
<path style=" stroke:none;fill-rule:nonzero;fill:#FFFFFF;fill-opacity:1;" d="M 5.847656 10.164062 L 4.726562 9.609375 C 4.445312 10.113281 4.171875 10.605469 3.898438 11.09375 C 3.667969 11.5 3.402344 11.890625 3.214844 12.316406 C 2.863281 13.128906 2.761719 13.972656 3.046875 14.839844 L 2.984375 14.875 C 2.769531 14.570312 2.535156 14.28125 2.351562 13.960938 C 1.628906 12.6875 0.925781 11.402344 0.207031 10.125 C -0.0429688 9.6875 -0.0117188 9.28125 0.257812 8.863281 C 0.5625 8.394531 0.84375 7.90625 1.144531 7.402344 C 0.757812 7.164062 0.378906 6.933594 0 6.699219 L 0.00390625 6.65625 C 0.203125 6.632812 0.402344 6.605469 0.601562 6.589844 C 1.667969 6.492188 2.734375 6.402344 3.800781 6.304688 C 3.960938 6.289062 4.046875 6.328125 4.117188 6.484375 C 4.664062 7.652344 5.21875 8.816406 5.773438 9.980469 C 5.792969 10.027344 5.8125 10.078125 5.847656 10.164062 Z M 11.703125 15.265625 L 11.703125 16.664062 L 11.648438 16.722656 C 11.621094 16.667969 11.605469 16.609375 11.566406 16.5625 C 10.8125 15.582031 10.058594 14.601562 9.300781 13.625 C 9.230469 13.535156 9.210938 13.46875 9.277344 13.359375 C 9.992188 12.230469 10.703125 11.097656 11.410156 9.960938 C 11.421875 9.941406 11.441406 9.921875 11.480469 9.875 L 11.617188 11.109375 C 12.050781 11.082031 12.472656 11.058594 12.890625 11.035156 C 13.464844 11.003906 14.046875 11.015625 14.613281 10.9375 C 15.515625 10.8125 16.3125 10.4375 16.917969 9.722656 L 16.976562 9.75 C 16.867188 10.035156 16.78125 10.332031 16.640625 10.601562 C 15.984375 11.855469 15.308594 13.101562 14.636719 14.351562 C 14.582031 14.457031 14.523438 14.5625 14.46875 14.667969 C 14.253906 15.085938 13.90625 15.273438 13.441406 15.269531 C 12.867188 15.261719 12.292969 15.265625 11.703125 15.265625 Z M 12.949219 2.429688 L 14.203125 1.804688 C 14.160156 1.910156 14.140625 1.96875 14.113281 2.027344 C 13.558594 3.125 13.003906 4.222656 12.453125 5.324219 C 12.398438 5.433594 12.335938 5.464844 12.21875 5.449219 C 10.929688 5.300781 9.640625 5.152344 8.351562 5.003906 C 8.285156 4.996094 8.21875 4.984375 8.125 4.96875 L 9.1875 4.3125 C 9.121094 4.191406 9.058594 4.078125 9 3.96875 C 8.703125 3.40625 8.40625 2.84375 8.109375 2.285156 C 7.570312 1.257812 6.828125 0.460938 5.671875 0.078125 C 5.867188 0.0507812 6.066406 -0.00390625 6.261719 0 C 6.75 0.0078125 7.238281 0.046875 7.722656 0.0664062 C 8.855469 0.109375 9.984375 0.15625 11.117188 0.195312 C 11.621094 0.214844 11.964844 0.445312 12.179688 0.910156 C 12.414062 1.417969 12.683594 1.910156 12.949219 2.429688 Z M 12.949219 2.429688 "/>
<path style=" stroke:none;fill-rule:nonzero;fill:#FFFFFF;fill-opacity:1;" d="M 7.910156 15.335938 C 7.445312 15.335938 7.019531 15.339844 6.589844 15.332031 C 5.695312 15.324219 4.796875 15.316406 3.902344 15.300781 C 3.503906 15.292969 3.375 15.191406 3.246094 14.816406 C 2.960938 13.992188 3.066406 13.1875 3.386719 12.40625 C 3.515625 12.085938 3.703125 11.789062 3.878906 11.492188 C 3.914062 11.429688 4.015625 11.375 4.085938 11.375 C 5.34375 11.382812 6.601562 11.398438 7.859375 11.410156 C 7.875 11.414062 7.894531 11.417969 7.910156 11.425781 Z M 2.644531 3.980469 C 3.378906 2.824219 4.09375 1.6875 4.820312 0.558594 C 4.972656 0.316406 5.1875 0.222656 5.488281 0.289062 C 6.457031 0.503906 7.128906 1.101562 7.65625 1.894531 C 8.15625 2.640625 8.148438 2.644531 7.671875 3.394531 C 7.144531 4.226562 6.617188 5.054688 6.089844 5.882812 C 6.050781 5.945312 6.007812 6.003906 5.957031 6.082031 Z M 11.410156 7.429688 L 14.714844 5.359375 C 15.015625 5.820312 15.3125 6.265625 15.597656 6.714844 C 16.023438 7.382812 16.445312 8.046875 16.851562 8.722656 C 17.074219 9.085938 17.046875 9.261719 16.773438 9.589844 C 16.1875 10.292969 15.410156 10.628906 14.53125 10.753906 C 14.238281 10.796875 13.941406 10.796875 13.648438 10.800781 C 13.585938 10.804688 13.492188 10.757812 13.457031 10.703125 C 12.777344 9.625 12.101562 8.539062 11.410156 7.429688 Z M 11.410156 7.429688 "/>
</g>
</g>
</svg>
