<?xml version="1.0" encoding="UTF-8"?>
<svg xmlns="http://www.w3.org/2000/svg" xmlns:xlink="http://www.w3.org/1999/xlink" width="9.686289" height="11" viewBox="0 0 9.686289 11" version="1.1">
<g id="surface1">
<path style=" stroke:none;fill-rule:nonzero;fill:rgb(30%,30%,30%);fill-opacity:1;" d="M 2.082031 5.121094 C 2.082031 5.695312 1.617188 6.160156 1.042969 6.160156 C 0.464844 6.160156 0 5.695312 0 5.121094 C 0 4.542969 0.464844 4.078125 1.042969 4.078125 C 1.617188 4.078125 2.082031 4.542969 2.082031 5.121094 Z M 2.082031 5.121094 "/>
<path style=" stroke:none;fill-rule:nonzero;fill:rgb(30%,30%,30%);fill-opacity:1;" d="M 2.617188 7.539062 C 2.617188 8.113281 2.148438 8.582031 1.574219 8.582031 C 1 8.582031 0.53125 8.113281 0.53125 7.539062 C 0.53125 6.964844 1 6.5 1.574219 6.5 C 2.148438 6.5 2.617188 6.964844 2.617188 7.539062 Z M 2.617188 7.539062 "/>
<path style=" stroke:none;fill-rule:nonzero;fill:rgb(30%,30%,30%);fill-opacity:1;" d="M 5 8.363281 C 5 8.9375 4.535156 9.40625 3.960938 9.40625 C 3.386719 9.40625 2.917969 8.9375 2.917969 8.363281 C 2.917969 7.789062 3.386719 7.320312 3.960938 7.320312 C 4.535156 7.320312 5 7.789062 5 8.363281 Z M 5 8.363281 "/>
<path style=" stroke:none;fill-rule:nonzero;fill:rgb(30%,30%,30%);fill-opacity:1;" d="M 3.046875 9.957031 C 3.046875 10.535156 2.582031 11 2.007812 11 C 1.433594 11 0.964844 10.535156 0.964844 9.957031 C 0.964844 9.382812 1.433594 8.917969 2.007812 8.917969 C 2.582031 8.917969 3.046875 9.382812 3.046875 9.957031 Z M 3.046875 9.957031 "/>
<path style=" stroke:none;fill-rule:nonzero;fill:rgb(30%,30%,30%);fill-opacity:1;" d="M 4.582031 5.980469 C 4.582031 6.558594 4.113281 7.023438 3.539062 7.023438 C 2.964844 7.023438 2.5 6.558594 2.5 5.980469 C 2.5 5.40625 2.964844 4.941406 3.539062 4.941406 C 4.113281 4.941406 4.582031 5.40625 4.582031 5.980469 Z M 4.582031 5.980469 "/>
<path style=" stroke:none;fill-rule:nonzero;fill:rgb(30%,30%,30%);fill-opacity:1;" d="M 7.078125 6.84375 C 7.078125 7.417969 6.613281 7.886719 6.039062 7.886719 C 5.460938 7.886719 4.996094 7.417969 4.996094 6.84375 C 4.996094 6.269531 5.460938 5.804688 6.039062 5.804688 C 6.613281 5.804688 7.078125 6.269531 7.078125 6.84375 Z M 7.078125 6.84375 "/>
<path style=" stroke:none;fill-rule:nonzero;fill:rgb(30%,30%,30%);fill-opacity:1;" d="M 9.191406 3.367188 C 7.84375 3.75 6.53125 3.675781 5.253906 3.371094 C 5.890625 2.589844 6.292969 1.285156 6.125 0.335938 C 6.027344 -0.210938 5.179688 -0.0429688 5.277344 0.503906 C 5.402344 1.210938 5.023438 2.40625 4.511719 2.917969 C 4.453125 2.976562 4.410156 3.050781 4.390625 3.132812 C 3.105469 2.726562 1.847656 2.140625 0.617188 1.613281 C 0.105469 1.394531 -0.171875 2.210938 0.335938 2.429688 C 3.199219 3.660156 6.183594 5.117188 9.359375 4.214844 C 9.890625 4.0625 9.730469 3.214844 9.191406 3.367188 Z M 9.191406 3.367188 "/>
</g>
</svg>
