<?xml version="1.0" encoding="UTF-8" standalone="no"?>
<!-- Created with Inkscape (http://www.inkscape.org/) -->

<svg
   xmlns:dc="http://purl.org/dc/elements/1.1/"
   xmlns:cc="http://creativecommons.org/ns#"
   xmlns:rdf="http://www.w3.org/1999/02/22-rdf-syntax-ns#"
   xmlns:svg="http://www.w3.org/2000/svg"
   xmlns="http://www.w3.org/2000/svg"
   xmlns:xlink="http://www.w3.org/1999/xlink"
   xmlns:sodipodi="http://sodipodi.sourceforge.net/DTD/sodipodi-0.dtd"
   xmlns:inkscape="http://www.inkscape.org/namespaces/inkscape"
   width="30px"
   height="30px"
   version="1.1"
   id="svg8"
   inkscape:version="0.92.4 5da689c313, 2019-01-14"
   sodipodi:docname="container.svg">
  <defs
     id="defs2" />
  <sodipodi:namedview
     id="base"
     pagecolor="#ffffff"
     bordercolor="#666666"
     borderopacity="1.0"
     inkscape:pageopacity="0.0"
     inkscape:pageshadow="2"
     inkscape:zoom="13.049334"
     inkscape:cx="18.679046"
     inkscape:cy="12.165829"
     inkscape:document-units="px"
     inkscape:current-layer="layer1"
     showgrid="false"
     inkscape:snap-page="false"
     units="px"
     inkscape:window-width="1884"
     inkscape:window-height="1061"
     inkscape:window-x="0"
     inkscape:window-y="0"
     inkscape:window-maximized="1"
     fit-margin-top="0"
     fit-margin-left="0"
     fit-margin-right="0"
     fit-margin-bottom="0" />
  <metadata
     id="metadata5">
    <rdf:RDF>
      <cc:Work
         rdf:about="">
        <dc:format>image/svg+xml</dc:format>
        <dc:type
           rdf:resource="http://purl.org/dc/dcmitype/StillImage" />
        <dc:title></dc:title>
      </cc:Work>
    </rdf:RDF>
  </metadata>
    <circle
       style="color:#000000;clip-rule:nonzero;display:inline;overflow:visible;visibility:visible;opacity:1;isolation:auto;mix-blend-mode:normal;color-interpolation:sRGB;color-interpolation-filters:linearRGB;solid-color:#000000;solid-opacity:1;vector-effect:none;fill:rgba(255, 255, 255, 1);fill-opacity:1;fill-rule:evenodd;stroke:#ffffff;stroke-width:1;stroke-linecap:butt;stroke-linejoin:miter;stroke-miterlimit:4;stroke-dasharray:none;stroke-dashoffset:0;stroke-opacity:1;marker:none;color-rendering:auto;image-rendering:auto;shape-rendering:auto;text-rendering:auto;enable-background:accumulate"
       id="path815"
       cx="15"
       cy="15"
       r="14.5" />
<g transform="translate(7,6)"><g id="surface1">
<path style=" stroke:none;fill-rule:nonzero;fill:#FFFFFF;fill-opacity:1;" d="M 7.003906 3.667969 C 7.003906 4.902344 6.007812 5.902344 4.78125 5.902344 C 3.550781 5.902344 2.558594 4.902344 2.558594 3.667969 C 2.558594 2.429688 3.550781 1.429688 4.78125 1.429688 C 6.007812 1.429688 7.003906 2.429688 7.003906 3.667969 Z M 7.003906 3.667969 "/>
<path style=" stroke:none;fill-rule:nonzero;fill:#FFFFFF;fill-opacity:1;" d="M 11.203125 15.25 L 0.722656 15.25 C 0.324219 15.25 0 14.925781 0 14.527344 C 0 14.125 0.324219 13.800781 0.722656 13.800781 L 11.203125 13.800781 C 11.601562 13.800781 11.925781 14.125 11.925781 14.527344 C 11.925781 14.925781 11.601562 15.25 11.203125 15.25 Z M 11.203125 15.25 "/>
<path style=" stroke:none;fill-rule:nonzero;fill:#FFFFFF;fill-opacity:1;" d="M 11.835938 8.769531 C 11.738281 8.769531 11.652344 8.726562 11.59375 8.65625 C 10.363281 7.121094 10.90625 5.417969 11.476562 3.613281 L 11.539062 3.417969 C 12.050781 1.800781 10.808594 0.6875 10.757812 0.640625 C 10.628906 0.527344 10.613281 0.332031 10.726562 0.203125 C 10.839844 0.0742188 11.035156 0.0625 11.164062 0.171875 C 11.230469 0.230469 12.765625 1.589844 12.128906 3.605469 L 12.066406 3.800781 C 11.523438 5.511719 11.054688 6.992188 12.078125 8.265625 C 12.152344 8.359375 12.164062 8.488281 12.113281 8.59375 C 12.0625 8.703125 11.953125 8.769531 11.835938 8.769531 Z M 11.835938 8.769531 "/>
<path style=" stroke:none;fill-rule:nonzero;fill:#FFFFFF;fill-opacity:1;" d="M 14.550781 8.675781 C 14.457031 8.675781 14.367188 8.632812 14.308594 8.558594 C 13.082031 7.023438 13.621094 5.320312 14.195312 3.515625 L 14.253906 3.320312 C 14.769531 1.691406 13.488281 0.554688 13.472656 0.542969 C 13.34375 0.433594 13.332031 0.238281 13.445312 0.105469 C 13.554688 -0.0234375 13.75 -0.0351562 13.882812 0.0742188 C 13.945312 0.132812 15.484375 1.492188 14.847656 3.507812 L 14.785156 3.703125 C 14.242188 5.417969 13.773438 6.894531 14.792969 8.171875 C 14.867188 8.261719 14.882812 8.390625 14.832031 8.5 C 14.777344 8.605469 14.671875 8.675781 14.550781 8.675781 Z M 14.550781 8.675781 "/>
<path style=" stroke:none;fill-rule:nonzero;fill:#FFFFFF;fill-opacity:1;" d="M 12.847656 11.550781 C 12.761719 11.328125 12.546875 11.175781 12.308594 11.175781 L 8.996094 11.164062 L 8.945312 11.195312 C 8.65625 10.5 7.296875 7.234375 6.691406 6.457031 C 6.011719 5.582031 3.878906 7.230469 3.878906 7.230469 L 3.878906 7.242188 C 3.78125 7.296875 3.703125 7.378906 3.65625 7.480469 L 1.265625 12.859375 L 2.28125 13.117188 C 2.558594 13.183594 2.84375 13.050781 2.964844 12.792969 L 4.378906 10.03125 L 4.570312 12.878906 C 4.570312 12.878906 4.570312 12.882812 4.570312 12.886719 C 4.597656 13.25 4.921875 13.527344 5.289062 13.519531 L 11.183594 12.957031 C 11.484375 12.929688 11.773438 13.085938 11.910156 13.355469 L 13.773438 17 L 14.84375 16.804688 Z M 12.847656 11.550781 "/>
</g>
</g>
</svg>
