<?xml version="1.0" encoding="UTF-8"?>
<svg xmlns="http://www.w3.org/2000/svg" xmlns:xlink="http://www.w3.org/1999/xlink" width="8.456943" height="11" viewBox="0 0 8.456943 11" version="1.1">
<g id="surface1">
<path style=" stroke:none;fill-rule:nonzero;fill:rgb(30%,30%,30%);fill-opacity:1;" d="M 8.457031 10.671875 L 8.128906 3.019531 L 6.351562 3.019531 C 6.195312 1.082031 5.445312 0.0195312 4.195312 0 C 3.753906 -0.0078125 3.359375 0.15625 3.03125 0.476562 C 2.515625 0.984375 2.191406 1.871094 2.089844 3.019531 L 0.308594 3.019531 L 0 10.691406 C -0.00390625 10.769531 0.0273438 10.851562 0.0820312 10.910156 C 0.140625 10.96875 0.21875 11 0.296875 11 L 8.160156 10.984375 C 8.242188 10.984375 8.316406 10.949219 8.375 10.890625 C 8.429688 10.832031 8.460938 10.753906 8.457031 10.671875 Z M 3.332031 0.785156 C 3.574219 0.542969 3.867188 0.425781 4.191406 0.429688 C 4.910156 0.441406 5.757812 0.921875 5.921875 3.019531 L 2.523438 3.019531 C 2.617188 2.003906 2.902344 1.207031 3.332031 0.785156 Z M 3.914062 5.472656 L 3.914062 5.753906 C 3.914062 5.832031 3.886719 5.953125 3.851562 6.023438 L 3.367188 7.023438 L 3.367188 10.128906 C 3.367188 10.28125 3.242188 10.410156 3.089844 10.410156 L 2.816406 10.410156 C 2.667969 10.410156 2.542969 10.28125 2.542969 10.128906 L 2.542969 7.027344 L 2.054688 6.023438 C 2.023438 5.957031 1.996094 5.835938 1.996094 5.757812 L 1.996094 3.980469 C 1.996094 3.941406 2.003906 3.90625 2.019531 3.871094 L 2.109375 3.691406 C 2.121094 3.664062 2.144531 3.664062 2.15625 3.691406 L 2.246094 3.871094 C 2.257812 3.90625 2.269531 3.941406 2.269531 3.980469 L 2.269531 5.332031 L 2.542969 5.332031 L 2.542969 3.980469 C 2.542969 3.941406 2.554688 3.90625 2.566406 3.871094 L 2.65625 3.691406 C 2.667969 3.664062 2.691406 3.664062 2.703125 3.691406 L 2.792969 3.871094 C 2.808594 3.90625 2.816406 3.941406 2.816406 3.980469 L 2.816406 5.332031 L 3.089844 5.332031 L 3.089844 3.980469 C 3.09375 3.941406 3.101562 3.90625 3.117188 3.871094 L 3.203125 3.691406 C 3.21875 3.664062 3.238281 3.664062 3.253906 3.691406 L 3.339844 3.871094 C 3.355469 3.90625 3.363281 3.941406 3.367188 3.980469 L 3.367188 5.332031 L 3.640625 5.332031 L 3.640625 3.980469 C 3.640625 3.941406 3.648438 3.90625 3.664062 3.871094 L 3.753906 3.691406 C 3.765625 3.664062 3.789062 3.664062 3.800781 3.691406 L 3.890625 3.871094 C 3.90625 3.90625 3.914062 3.941406 3.914062 3.976562 Z M 6.378906 10.128906 C 6.378906 10.28125 6.253906 10.410156 6.105469 10.410156 L 5.832031 10.410156 C 5.679688 10.410156 5.554688 10.28125 5.554688 10.128906 L 5.554688 7.871094 C 5.554688 7.871094 4.734375 7.613281 4.734375 7.023438 L 4.734375 4.996094 C 4.734375 4.761719 4.886719 4.464844 5.078125 4.335938 L 6.035156 3.679688 C 6.226562 3.550781 6.378906 3.636719 6.378906 3.871094 Z M 6.378906 10.128906 "/>
</g>
</svg>
