<?xml version="1.0" encoding="UTF-8" standalone="no"?>
<!-- Created with Inkscape (http://www.inkscape.org/) -->

<svg
   xmlns:dc="http://purl.org/dc/elements/1.1/"
   xmlns:cc="http://creativecommons.org/ns#"
   xmlns:rdf="http://www.w3.org/1999/02/22-rdf-syntax-ns#"
   xmlns:svg="http://www.w3.org/2000/svg"
   xmlns="http://www.w3.org/2000/svg"
   xmlns:xlink="http://www.w3.org/1999/xlink"
   xmlns:sodipodi="http://sodipodi.sourceforge.net/DTD/sodipodi-0.dtd"
   xmlns:inkscape="http://www.inkscape.org/namespaces/inkscape"
   width="30px"
   height="30px"
   version="1.1"
   id="svg8"
   inkscape:version="0.92.4 5da689c313, 2019-01-14"
   sodipodi:docname="container.svg">
  <defs
     id="defs2" />
  <sodipodi:namedview
     id="base"
     pagecolor="#ffffff"
     bordercolor="#666666"
     borderopacity="1.0"
     inkscape:pageopacity="0.0"
     inkscape:pageshadow="2"
     inkscape:zoom="13.049334"
     inkscape:cx="18.679046"
     inkscape:cy="12.165829"
     inkscape:document-units="px"
     inkscape:current-layer="layer1"
     showgrid="false"
     inkscape:snap-page="false"
     units="px"
     inkscape:window-width="1884"
     inkscape:window-height="1061"
     inkscape:window-x="0"
     inkscape:window-y="0"
     inkscape:window-maximized="1"
     fit-margin-top="0"
     fit-margin-left="0"
     fit-margin-right="0"
     fit-margin-bottom="0" />
  <metadata
     id="metadata5">
    <rdf:RDF>
      <cc:Work
         rdf:about="">
        <dc:format>image/svg+xml</dc:format>
        <dc:type
           rdf:resource="http://purl.org/dc/dcmitype/StillImage" />
        <dc:title></dc:title>
      </cc:Work>
    </rdf:RDF>
  </metadata>
    <circle
       style="color:#000000;clip-rule:nonzero;display:inline;overflow:visible;visibility:visible;opacity:1;isolation:auto;mix-blend-mode:normal;color-interpolation:sRGB;color-interpolation-filters:linearRGB;solid-color:#000000;solid-opacity:1;vector-effect:none;fill:#ffffff;fill-opacity:1;fill-rule:evenodd;stroke:rgba(255, 255, 255, 1);stroke-width:1;stroke-linecap:butt;stroke-linejoin:miter;stroke-miterlimit:4;stroke-dasharray:none;stroke-dashoffset:0;stroke-opacity:1;marker:none;color-rendering:auto;image-rendering:auto;shape-rendering:auto;text-rendering:auto;enable-background:accumulate"
       id="path815"
       cx="15"
       cy="15"
       r="14.5" />
<g transform="translate(7,6)"><g id="surface1">
<path style=" stroke:none;fill-rule:nonzero;fill:rgb(30%,30%,30%);fill-opacity:1;" d="M 9.972656 7.464844 L 7.402344 6.164062 C 7.386719 6.15625 7.371094 6.144531 7.363281 6.128906 C 7.351562 6.09375 7.332031 6.066406 7.3125 6.039062 L 5.921875 3.804688 C 5.652344 3.375 5.386719 3.210938 5.007812 3.210938 L 4.082031 3.210938 C 3.792969 3.210938 3.527344 3.378906 3.402344 3.640625 L 2.355469 3.640625 C 2.324219 3.640625 2.296875 3.660156 2.285156 3.6875 L 1.554688 5.242188 C 1.550781 5.253906 1.550781 5.265625 1.550781 5.277344 L 1.550781 8.089844 C 1.550781 8.132812 1.585938 8.167969 1.628906 8.167969 L 3.253906 8.167969 C 3.296875 8.167969 3.332031 8.203125 3.332031 8.246094 L 3.332031 8.292969 C 3.332031 8.304688 3.328125 8.316406 3.324219 8.324219 L 0.0703125 15.535156 C -0.105469 15.929688 0.0664062 16.390625 0.460938 16.566406 L 0.460938 16.570312 C 0.855469 16.746094 1.316406 16.570312 1.496094 16.175781 L 4.476562 9.882812 C 4.488281 9.855469 4.535156 9.835938 4.566406 9.835938 C 4.597656 9.835938 4.675781 9.824219 4.6875 9.855469 L 6.628906 13.757812 L 5.351562 16.621094 C 5.292969 16.757812 5.351562 16.917969 5.488281 16.976562 C 5.625 17.039062 5.785156 16.976562 5.84375 16.839844 L 6.925781 14.421875 L 7.683594 16.125 C 7.859375 16.519531 8.324219 16.699219 8.71875 16.523438 C 9.113281 16.347656 9.289062 15.886719 9.113281 15.492188 L 7.792969 12.519531 C 7.785156 12.507812 7.785156 12.492188 7.792969 12.476562 L 9.632812 8.355469 C 9.902344 8.46875 10.214844 8.347656 10.335938 8.082031 C 10.402344 7.789062 10.242188 7.589844 9.972656 7.464844 Z M 7.488281 11.835938 L 5.765625 7.972656 C 5.761719 7.960938 5.761719 7.953125 5.761719 7.941406 L 5.761719 5.957031 C 5.761719 5.925781 5.78125 5.894531 5.816406 5.882812 C 5.847656 5.871094 5.882812 5.882812 5.902344 5.910156 L 6.300781 6.441406 C 6.515625 6.710938 6.597656 6.949219 6.785156 7.035156 L 9.140625 8.132812 Z M 5.957031 1.40625 C 5.957031 2.1875 5.328125 2.820312 4.546875 2.820312 C 3.769531 2.824219 3.136719 2.191406 3.136719 1.410156 C 3.132812 0.632812 3.765625 0 4.546875 0 C 5.324219 0 5.957031 0.628906 5.957031 1.40625 Z M 5.957031 1.40625 "/>
<path style=" stroke:none;fill-rule:nonzero;fill:rgb(30%,30%,30%);fill-opacity:1;" d="M 11 2.5625 L 12.867188 0.015625 L 14.769531 2.5625 L 13.855469 2.292969 L 15.449219 4.871094 L 14.566406 4.601562 L 15.6875 6.910156 L 13.324219 6.34375 L 13.308594 7.871094 L 12.511719 7.871094 L 12.53125 6.378906 L 10.085938 6.945312 L 11.238281 4.636719 L 10.355469 4.804688 L 11.75 2.460938 Z M 11 2.5625 "/>
</g>
</g>
</svg>
