<?xml version="1.0" encoding="UTF-8"?>
<svg xmlns="http://www.w3.org/2000/svg" xmlns:xlink="http://www.w3.org/1999/xlink" width="9.022329" height="11" viewBox="0 0 9.022329 11" version="1.1">
<g id="surface1">
<path style=" stroke:none;fill-rule:nonzero;fill:rgb(30%,30%,30%);fill-opacity:1;" d="M 6.382812 0.75 C 6.382812 0.832031 5.535156 0.902344 4.488281 0.902344 C 3.441406 0.902344 2.59375 0.832031 2.59375 0.75 C 2.59375 0.664062 3.441406 0.597656 4.488281 0.597656 C 5.535156 0.597656 6.382812 0.664062 6.382812 0.75 Z M 6.382812 0.75 "/>
<path style=" stroke:none;fill-rule:nonzero;fill:rgb(30%,30%,30%);fill-opacity:1;" d="M 8.871094 9.988281 L 8.871094 9.957031 L 8.816406 9.957031 L 8.816406 1.015625 C 8.90625 0.953125 9.023438 0.867188 9.023438 0.75 C 9.023438 0.480469 8.679688 0.378906 8.53125 0.335938 C 8.304688 0.269531 7.984375 0.210938 7.578125 0.160156 C 6.757812 0.0546875 5.667969 0 4.511719 0 C 3.355469 0 2.265625 0.0546875 1.445312 0.160156 C 1.039062 0.210938 0.71875 0.269531 0.488281 0.335938 C 0.34375 0.378906 0 0.480469 0 0.75 C 0 0.863281 0.117188 0.949219 0.203125 1.011719 L 0.203125 9.988281 C 0.117188 10.050781 0 10.136719 0 10.25 C 0 10.519531 0.34375 10.621094 0.488281 10.664062 C 0.71875 10.730469 1.039062 10.789062 1.445312 10.839844 C 2.265625 10.945312 3.355469 11 4.511719 11 C 5.667969 11 6.757812 10.945312 7.578125 10.839844 C 7.984375 10.789062 8.304688 10.730469 8.53125 10.664062 C 8.679688 10.621094 9.023438 10.519531 9.023438 10.25 C 9.023438 10.132812 8.957031 10.050781 8.871094 9.988281 Z M 4.511719 4.046875 C 5.976562 4.046875 7.265625 3.957031 8.042969 3.816406 L 8.042969 7.773438 C 7.265625 7.914062 5.976562 8.003906 4.511719 8.003906 C 3.046875 8.003906 1.757812 7.914062 0.980469 7.773438 L 0.980469 3.816406 C 1.757812 3.957031 3.046875 4.046875 4.511719 4.046875 Z M 4.269531 1.496094 C 4.351562 1.496094 4.429688 1.496094 4.511719 1.496094 C 4.5625 1.496094 4.617188 1.496094 4.667969 1.496094 C 4.574219 1.503906 4.503906 1.507812 4.46875 1.507812 C 4.421875 1.503906 4.355469 1.5 4.269531 1.496094 Z M 1.695312 0.554688 C 2.472656 0.46875 3.472656 0.421875 4.511719 0.421875 C 5.550781 0.421875 6.550781 0.46875 7.328125 0.554688 C 7.925781 0.621094 8.257812 0.695312 8.433594 0.75 C 8.257812 0.800781 7.925781 0.875 7.328125 0.941406 C 6.550781 1.027344 5.550781 1.074219 4.511719 1.074219 C 3.472656 1.074219 2.472656 1.027344 1.695312 0.941406 C 1.09375 0.875 0.765625 0.800781 0.589844 0.75 C 0.765625 0.695312 1.09375 0.621094 1.695312 0.554688 Z M 1.695312 0.554688 "/>
</g>
</svg>
