<?xml version="1.0" encoding="UTF-8" standalone="no"?>
<!-- Created with Inkscape (http://www.inkscape.org/) -->

<svg
   xmlns:dc="http://purl.org/dc/elements/1.1/"
   xmlns:cc="http://creativecommons.org/ns#"
   xmlns:rdf="http://www.w3.org/1999/02/22-rdf-syntax-ns#"
   xmlns:svg="http://www.w3.org/2000/svg"
   xmlns="http://www.w3.org/2000/svg"
   xmlns:xlink="http://www.w3.org/1999/xlink"
   xmlns:sodipodi="http://sodipodi.sourceforge.net/DTD/sodipodi-0.dtd"
   xmlns:inkscape="http://www.inkscape.org/namespaces/inkscape"
   width="30px"
   height="30px"
   version="1.1"
   id="svg8"
   inkscape:version="0.92.4 5da689c313, 2019-01-14"
   sodipodi:docname="container.svg">
  <defs
     id="defs2" />
  <sodipodi:namedview
     id="base"
     pagecolor="#ffffff"
     bordercolor="#666666"
     borderopacity="1.0"
     inkscape:pageopacity="0.0"
     inkscape:pageshadow="2"
     inkscape:zoom="13.049334"
     inkscape:cx="18.679046"
     inkscape:cy="12.165829"
     inkscape:document-units="px"
     inkscape:current-layer="layer1"
     showgrid="false"
     inkscape:snap-page="false"
     units="px"
     inkscape:window-width="1884"
     inkscape:window-height="1061"
     inkscape:window-x="0"
     inkscape:window-y="0"
     inkscape:window-maximized="1"
     fit-margin-top="0"
     fit-margin-left="0"
     fit-margin-right="0"
     fit-margin-bottom="0" />
  <metadata
     id="metadata5">
    <rdf:RDF>
      <cc:Work
         rdf:about="">
        <dc:format>image/svg+xml</dc:format>
        <dc:type
           rdf:resource="http://purl.org/dc/dcmitype/StillImage" />
        <dc:title></dc:title>
      </cc:Work>
    </rdf:RDF>
  </metadata>
    <circle
       style="color:#000000;clip-rule:nonzero;display:inline;overflow:visible;visibility:visible;opacity:1;isolation:auto;mix-blend-mode:normal;color-interpolation:sRGB;color-interpolation-filters:linearRGB;solid-color:#000000;solid-opacity:1;vector-effect:none;fill:#ffffff;fill-opacity:1;fill-rule:evenodd;stroke:rgba(255, 255, 255, 1);stroke-width:1;stroke-linecap:butt;stroke-linejoin:miter;stroke-miterlimit:4;stroke-dasharray:none;stroke-dashoffset:0;stroke-opacity:1;marker:none;color-rendering:auto;image-rendering:auto;shape-rendering:auto;text-rendering:auto;enable-background:accumulate"
       id="path815"
       cx="15"
       cy="15"
       r="14.5" />
<g transform="translate(6,6)"><g id="surface1">
<path style=" stroke:none;fill-rule:nonzero;fill:rgb(30%,30%,30%);fill-opacity:1;" d="M 16.332031 5.191406 C 15.003906 2.042969 11.917969 -0.00390625 8.5 0 C 7.328125 0 6.214844 0.21875 5.191406 0.652344 C 4.195312 1.074219 3.289062 1.691406 2.488281 2.488281 C 0.894531 4.082031 -0.00390625 6.246094 0 8.5 C 0 10.535156 0.769531 12.519531 2.164062 14.082031 C 3.527344 15.609375 5.371094 16.617188 7.363281 16.925781 C 7.609375 16.964844 7.859375 16.894531 8.046875 16.734375 C 8.234375 16.574219 8.347656 16.339844 8.347656 16.089844 L 8.394531 12.285156 C 8.394531 12.046875 8.296875 11.816406 8.125 11.652344 L 4.761719 8.476562 L 8.527344 4.714844 L 12.121094 8.5 L 9.027344 11.628906 C 8.867188 11.792969 8.777344 12.019531 8.78125 12.25 L 8.871094 16.066406 C 8.878906 16.3125 8.988281 16.546875 9.179688 16.703125 C 9.371094 16.863281 9.617188 16.929688 9.863281 16.890625 C 12.4375 16.472656 14.675781 14.894531 15.9375 12.613281 C 17.199219 10.328125 17.34375 7.59375 16.332031 5.191406 Z M 13.921875 9.113281 C 14.035156 9 14.285156 8.722656 14.292969 8.710938 L 14.476562 8.511719 L 14.292969 8.3125 C 14.28125 8.300781 14.035156 8.027344 13.933594 7.921875 L 9.160156 2.914062 C 9.050781 2.796875 8.730469 2.523438 8.691406 2.492188 L 8.46875 2.300781 L 8.277344 2.523438 C 8.179688 2.632812 8.015625 2.816406 7.953125 2.867188 L 2.917969 7.902344 C 2.835938 7.996094 2.632812 8.199219 2.558594 8.269531 L 2.363281 8.460938 L 2.539062 8.671875 C 2.570312 8.707031 2.828125 9.019531 2.949219 9.132812 L 6.679688 12.640625 L 6.652344 15.011719 C 6.097656 14.839844 5.570312 14.601562 5.074219 14.300781 C 4.464844 13.933594 3.914062 13.472656 3.4375 12.941406 C 2.324219 11.691406 1.710938 10.113281 1.710938 8.5 C 1.707031 6.699219 2.421875 4.96875 3.699219 3.699219 C 5.019531 2.378906 6.632812 1.710938 8.5 1.710938 C 11.847656 1.714844 14.691406 4.152344 15.207031 7.460938 C 15.71875 10.769531 13.746094 13.957031 10.558594 14.972656 L 10.5 12.574219 Z M 13.921875 9.113281 "/>
</g>
</g>
</svg>
