<?xml version="1.0" encoding="UTF-8" standalone="no"?>
<!-- Created with Inkscape (http://www.inkscape.org/) -->

<svg
   xmlns:dc="http://purl.org/dc/elements/1.1/"
   xmlns:cc="http://creativecommons.org/ns#"
   xmlns:rdf="http://www.w3.org/1999/02/22-rdf-syntax-ns#"
   xmlns:svg="http://www.w3.org/2000/svg"
   xmlns="http://www.w3.org/2000/svg"
   xmlns:xlink="http://www.w3.org/1999/xlink"
   xmlns:sodipodi="http://sodipodi.sourceforge.net/DTD/sodipodi-0.dtd"
   xmlns:inkscape="http://www.inkscape.org/namespaces/inkscape"
   width="30px"
   height="30px"
   version="1.1"
   id="svg8"
   inkscape:version="0.92.4 5da689c313, 2019-01-14"
   sodipodi:docname="container.svg">
  <defs
     id="defs2" />
  <sodipodi:namedview
     id="base"
     pagecolor="#ffffff"
     bordercolor="#666666"
     borderopacity="1.0"
     inkscape:pageopacity="0.0"
     inkscape:pageshadow="2"
     inkscape:zoom="13.049334"
     inkscape:cx="18.679046"
     inkscape:cy="12.165829"
     inkscape:document-units="px"
     inkscape:current-layer="layer1"
     showgrid="false"
     inkscape:snap-page="false"
     units="px"
     inkscape:window-width="1884"
     inkscape:window-height="1061"
     inkscape:window-x="0"
     inkscape:window-y="0"
     inkscape:window-maximized="1"
     fit-margin-top="0"
     fit-margin-left="0"
     fit-margin-right="0"
     fit-margin-bottom="0" />
  <metadata
     id="metadata5">
    <rdf:RDF>
      <cc:Work
         rdf:about="">
        <dc:format>image/svg+xml</dc:format>
        <dc:type
           rdf:resource="http://purl.org/dc/dcmitype/StillImage" />
        <dc:title></dc:title>
      </cc:Work>
    </rdf:RDF>
  </metadata>
    <circle
       style="color:#000000;clip-rule:nonzero;display:inline;overflow:visible;visibility:visible;opacity:1;isolation:auto;mix-blend-mode:normal;color-interpolation:sRGB;color-interpolation-filters:linearRGB;solid-color:#000000;solid-opacity:1;vector-effect:none;fill:rgba(255, 255, 255, 1);fill-opacity:1;fill-rule:evenodd;stroke:#ffffff;stroke-width:1;stroke-linecap:butt;stroke-linejoin:miter;stroke-miterlimit:4;stroke-dasharray:none;stroke-dashoffset:0;stroke-opacity:1;marker:none;color-rendering:auto;image-rendering:auto;shape-rendering:auto;text-rendering:auto;enable-background:accumulate"
       id="path815"
       cx="15"
       cy="15"
       r="14.5" />
<g transform="translate(7,6)"><g id="surface1">
<path style=" stroke:none;fill-rule:nonzero;fill:#FFFFFF;fill-opacity:1;" d="M 13.605469 6.753906 C 13.542969 6.625 13.429688 6.527344 13.296875 6.480469 C 13.160156 6.4375 13.011719 6.445312 12.882812 6.511719 L 11.441406 7.183594 L 9.597656 5.917969 C 9.566406 5.898438 9.53125 5.878906 9.492188 5.863281 C 9.351562 5.773438 9.191406 5.710938 9.027344 5.679688 L 8.949219 5.667969 C 8.394531 5.550781 5.910156 6.363281 5.910156 6.363281 C 5.726562 6.421875 5.589844 6.574219 5.542969 6.761719 L 5.355469 7.625 C 2.847656 7.558594 0.742188 7.984375 0.539062 8.117188 L 1.074219 8.832031 L 1.070312 8.832031 L 0.351562 9.355469 C 0.53125 9.589844 3.0625 11.082031 6.1875 11.640625 L 5.761719 12.660156 L 4.214844 14.367188 C 4.109375 14.484375 4.054688 14.636719 4.0625 14.796875 C 4.070312 14.953125 4.140625 15.101562 4.261719 15.207031 C 4.511719 15.425781 4.890625 15.402344 5.113281 15.15625 L 6.730469 13.371094 C 6.773438 13.320312 6.8125 13.265625 6.839844 13.203125 L 7.421875 11.804688 C 7.679688 11.828125 7.9375 11.84375 8.195312 11.847656 L 8.332031 13.179688 L 7.972656 16.335938 C 7.9375 16.664062 8.175781 16.957031 8.503906 16.996094 C 8.832031 17.03125 9.128906 16.800781 9.167969 16.472656 L 9.535156 13.253906 C 9.539062 13.214844 9.539062 13.171875 9.535156 13.132812 L 9.402344 11.8125 C 10.601562 11.707031 11.976562 11.371094 13.101562 10.730469 C 13.113281 10.726562 13.121094 10.714844 13.121094 10.703125 C 13.125 10.691406 13.121094 10.679688 13.109375 10.671875 C 13.109375 10.671875 11.664062 9.070312 9.828125 8.386719 L 9.992188 7.492188 L 11.082031 8.238281 C 11.242188 8.351562 11.449219 8.367188 11.625 8.28125 L 13.347656 7.472656 C 13.617188 7.347656 13.730469 7.023438 13.605469 6.753906 Z M 7.261719 7.773438 C 6.992188 7.734375 6.71875 7.707031 6.449219 7.683594 L 6.535156 7.292969 L 7.398438 7.023438 Z M 7.261719 7.773438 "/>
<path style=" stroke:none;fill-rule:nonzero;fill:#FFFFFF;fill-opacity:1;" d="M 6.515625 5.386719 C 6.515625 5.386719 6.945312 5.855469 7.15625 5.386719 C 7.371094 4.90625 6.996094 3.746094 7.476562 3.804688 C 7.625 3.820312 7.765625 3.898438 7.894531 3.996094 C 7.863281 4.097656 7.847656 4.207031 7.847656 4.316406 C 7.851562 4.9375 8.367188 5.441406 8.996094 5.4375 C 9.621094 5.433594 10.128906 4.921875 10.125 4.300781 C 10.121094 3.679688 9.605469 3.175781 8.976562 3.179688 C 8.671875 3.183594 8.378906 3.308594 8.167969 3.527344 C 7.808594 3.148438 7.25 2.761719 6.730469 3.28125 C 5.878906 4.121094 7.15625 4.859375 6.515625 5.386719 Z M 6.515625 5.386719 "/>
<path style=" stroke:none;fill-rule:nonzero;fill:#FFFFFF;fill-opacity:1;" d="M 7.632812 0 C 7.441406 0 0 3.472656 0 3.472656 L 0 4.734375 L 7.632812 1.234375 L 15.265625 4.738281 L 15.265625 3.476562 C 15.265625 3.476562 7.824219 0 7.632812 0 "/>
</g>
</g>
</svg>
