<?xml version="1.0" encoding="UTF-8"?>
<svg xmlns="http://www.w3.org/2000/svg" xmlns:xlink="http://www.w3.org/1999/xlink" width="11" height="8.468318" viewBox="0 0 11 8.468318" version="1.1">
<g id="surface1">
<path style=" stroke:none;fill-rule:nonzero;fill:rgb(30%,30%,30%);fill-opacity:1;" d="M 8.832031 4.128906 C 8.410156 4.128906 8 4.253906 7.644531 4.484375 L 6.757812 3.414062 L 7.0625 2.503906 C 7.066406 2.503906 7.066406 2.503906 7.066406 2.5 L 7.535156 2.503906 C 7.636719 2.503906 7.722656 2.417969 7.722656 2.316406 C 7.722656 2.210938 7.636719 2.128906 7.535156 2.128906 L 6.042969 2.125 C 5.9375 2.125 5.855469 2.207031 5.855469 2.3125 C 5.855469 2.414062 5.9375 2.5 6.042969 2.5 L 6.613281 2.5 L 6.417969 3.082031 L 3.515625 3.070312 L 3.507812 3.058594 C 3.5 3.050781 3.492188 3.042969 3.484375 3.035156 L 3.65625 2.527344 L 4.304688 2.527344 C 4.425781 2.53125 4.519531 2.433594 4.519531 2.316406 C 4.519531 2.199219 4.425781 2.101562 4.308594 2.101562 C 4.308594 2.101562 4.308594 2.101562 4.304688 2.101562 L 3.347656 2.101562 L 2.914062 3.382812 L 2.644531 4.183594 C 1.472656 3.921875 0.3125 4.65625 0.0507812 5.824219 C -0.207031 6.996094 0.527344 8.15625 1.695312 8.414062 C 2.867188 8.675781 4.027344 7.941406 4.285156 6.773438 C 4.511719 5.761719 3.996094 4.734375 3.050781 4.316406 L 3.320312 3.523438 L 5.410156 6.359375 C 5.453125 6.414062 5.515625 6.445312 5.582031 6.445312 C 5.589844 6.445312 5.59375 6.445312 5.597656 6.445312 C 5.605469 6.445312 5.609375 6.445312 5.613281 6.445312 L 6.671875 6.445312 C 6.753906 7.640625 7.789062 8.539062 8.984375 8.457031 C 10.175781 8.375 11.078125 7.339844 10.996094 6.144531 C 10.914062 5.011719 9.972656 4.128906 8.832031 4.128906 Z M 3.910156 6.296875 C 3.910156 7.03125 3.449219 7.6875 2.757812 7.933594 C 2.066406 8.183594 1.296875 7.972656 0.828125 7.402344 C 0.363281 6.835938 0.300781 6.039062 0.675781 5.40625 C 1.050781 4.777344 1.78125 4.449219 2.503906 4.589844 L 1.964844 6.171875 C 1.925781 6.285156 1.988281 6.40625 2.097656 6.441406 C 2.210938 6.480469 2.332031 6.421875 2.371094 6.308594 L 2.910156 4.722656 C 3.519531 5.007812 3.910156 5.621094 3.910156 6.296875 Z M 8.359375 6.019531 L 7.117188 6.019531 C 7.175781 5.667969 7.339844 5.339844 7.585938 5.085938 Z M 7.3125 4.753906 C 6.96875 5.09375 6.746094 5.539062 6.683594 6.019531 L 5.882812 6.019531 L 6.597656 3.890625 Z M 6.273438 3.511719 L 5.511719 5.773438 L 3.832031 3.5 Z M 8.832031 8.035156 C 7.929688 8.035156 7.179688 7.34375 7.101562 6.445312 L 8.804688 6.445312 C 8.886719 6.441406 8.960938 6.390625 8.996094 6.316406 C 9.03125 6.238281 9.023438 6.148438 8.96875 6.082031 L 7.921875 4.816406 C 8.546875 4.429688 9.351562 4.480469 9.925781 4.945312 C 10.5 5.40625 10.71875 6.179688 10.472656 6.875 C 10.226562 7.570312 9.570312 8.035156 8.832031 8.035156 Z M 8.832031 8.035156 "/>
<path style=" stroke:none;fill-rule:nonzero;fill:rgb(30%,30%,30%);fill-opacity:1;" d="M 7.726562 0.00390625 C 7.363281 0 7.039062 0.230469 6.914062 0.570312 L 4.160156 0.570312 C 4.054688 0.269531 3.785156 0.0507812 3.46875 0.0078125 C 3.148438 -0.0351562 2.835938 0.105469 2.65625 0.371094 C 2.628906 0.410156 2.625 0.460938 2.648438 0.5 C 2.667969 0.539062 2.710938 0.566406 2.757812 0.566406 L 3.320312 0.566406 C 3.4375 0.566406 3.535156 0.664062 3.535156 0.78125 L 3.535156 0.902344 C 3.535156 1.050781 3.414062 1.171875 3.265625 1.171875 L 2.789062 1.171875 C 2.738281 1.171875 2.699219 1.199219 2.675781 1.242188 C 2.65625 1.285156 2.660156 1.332031 2.691406 1.371094 C 2.878906 1.609375 3.179688 1.730469 3.480469 1.6875 C 3.78125 1.644531 4.035156 1.441406 4.144531 1.160156 L 6.921875 1.160156 C 7.070312 1.570312 7.503906 1.800781 7.929688 1.699219 C 8.355469 1.597656 8.636719 1.195312 8.585938 0.761719 C 8.53125 0.328125 8.164062 0 7.726562 0.00390625 Z M 7.726562 1.195312 C 7.539062 1.195312 7.390625 1.039062 7.390625 0.851562 C 7.390625 0.664062 7.546875 0.511719 7.734375 0.515625 C 7.921875 0.515625 8.074219 0.667969 8.074219 0.855469 C 8.074219 0.945312 8.035156 1.035156 7.972656 1.097656 C 7.90625 1.160156 7.820312 1.195312 7.726562 1.195312 Z M 7.726562 1.195312 "/>
</g>
</svg>
