<?xml version="1.0" encoding="UTF-8" standalone="no"?>
<!-- Created with Inkscape (http://www.inkscape.org/) -->

<svg
   xmlns:dc="http://purl.org/dc/elements/1.1/"
   xmlns:cc="http://creativecommons.org/ns#"
   xmlns:rdf="http://www.w3.org/1999/02/22-rdf-syntax-ns#"
   xmlns:svg="http://www.w3.org/2000/svg"
   xmlns="http://www.w3.org/2000/svg"
   xmlns:xlink="http://www.w3.org/1999/xlink"
   xmlns:sodipodi="http://sodipodi.sourceforge.net/DTD/sodipodi-0.dtd"
   xmlns:inkscape="http://www.inkscape.org/namespaces/inkscape"
   width="30px"
   height="30px"
   version="1.1"
   id="svg8"
   inkscape:version="0.92.4 5da689c313, 2019-01-14"
   sodipodi:docname="container.svg">
  <defs
     id="defs2" />
  <sodipodi:namedview
     id="base"
     pagecolor="#ffffff"
     bordercolor="#666666"
     borderopacity="1.0"
     inkscape:pageopacity="0.0"
     inkscape:pageshadow="2"
     inkscape:zoom="13.049334"
     inkscape:cx="18.679046"
     inkscape:cy="12.165829"
     inkscape:document-units="px"
     inkscape:current-layer="layer1"
     showgrid="false"
     inkscape:snap-page="false"
     units="px"
     inkscape:window-width="1884"
     inkscape:window-height="1061"
     inkscape:window-x="0"
     inkscape:window-y="0"
     inkscape:window-maximized="1"
     fit-margin-top="0"
     fit-margin-left="0"
     fit-margin-right="0"
     fit-margin-bottom="0" />
  <metadata
     id="metadata5">
    <rdf:RDF>
      <cc:Work
         rdf:about="">
        <dc:format>image/svg+xml</dc:format>
        <dc:type
           rdf:resource="http://purl.org/dc/dcmitype/StillImage" />
        <dc:title></dc:title>
      </cc:Work>
    </rdf:RDF>
  </metadata>
    <circle
       style="color:#000000;clip-rule:nonzero;display:inline;overflow:visible;visibility:visible;opacity:1;isolation:auto;mix-blend-mode:normal;color-interpolation:sRGB;color-interpolation-filters:linearRGB;solid-color:#000000;solid-opacity:1;vector-effect:none;fill:#ffffff;fill-opacity:1;fill-rule:evenodd;stroke:rgba(255, 255, 255, 1);stroke-width:1;stroke-linecap:butt;stroke-linejoin:miter;stroke-miterlimit:4;stroke-dasharray:none;stroke-dashoffset:0;stroke-opacity:1;marker:none;color-rendering:auto;image-rendering:auto;shape-rendering:auto;text-rendering:auto;enable-background:accumulate"
       id="path815"
       cx="15"
       cy="15"
       r="14.5" />
<g transform="translate(8,6)"><g id="surface1">
<path style=" stroke:none;fill-rule:nonzero;fill:rgb(30%,30%,30%);fill-opacity:1;" d="M 13.070312 16.492188 L 12.566406 4.664062 L 9.816406 4.664062 C 9.574219 1.671875 8.414062 0.0273438 6.484375 0 C 5.796875 -0.0078125 5.191406 0.238281 4.683594 0.738281 C 3.886719 1.523438 3.386719 2.894531 3.234375 4.664062 L 0.476562 4.664062 L 0 16.519531 C -0.00390625 16.648438 0.0429688 16.769531 0.128906 16.859375 C 0.214844 16.949219 0.335938 17 0.460938 17 L 12.609375 16.972656 C 12.734375 16.972656 12.855469 16.921875 12.941406 16.832031 C 13.027344 16.742188 13.074219 16.621094 13.070312 16.492188 Z M 5.148438 1.210938 C 5.527344 0.839844 5.972656 0.65625 6.476562 0.664062 C 7.589844 0.679688 8.894531 1.421875 9.152344 4.664062 L 3.898438 4.664062 C 4.046875 3.09375 4.484375 1.867188 5.148438 1.210938 Z M 6.050781 8.457031 L 6.050781 8.894531 C 6.050781 9.015625 6.007812 9.203125 5.953125 9.308594 L 5.203125 10.855469 L 5.203125 15.652344 C 5.203125 15.890625 5.011719 16.089844 4.777344 16.089844 L 4.355469 16.089844 C 4.121094 16.089844 3.929688 15.890625 3.929688 15.652344 L 3.929688 10.859375 L 3.179688 9.308594 C 3.125 9.203125 3.082031 9.015625 3.082031 8.898438 L 3.082031 6.148438 C 3.085938 6.09375 3.097656 6.035156 3.121094 5.984375 L 3.257812 5.703125 C 3.277344 5.660156 3.3125 5.660156 3.332031 5.703125 L 3.46875 5.984375 C 3.492188 6.035156 3.503906 6.09375 3.507812 6.148438 L 3.507812 8.242188 L 3.929688 8.242188 L 3.929688 6.148438 C 3.933594 6.09375 3.945312 6.035156 3.96875 5.984375 L 4.105469 5.703125 C 4.125 5.660156 4.160156 5.660156 4.179688 5.703125 L 4.316406 5.984375 C 4.339844 6.035156 4.351562 6.09375 4.355469 6.148438 L 4.355469 8.242188 L 4.777344 8.242188 L 4.777344 6.148438 C 4.78125 6.09375 4.792969 6.035156 4.816406 5.984375 L 4.953125 5.703125 C 4.972656 5.660156 5.007812 5.660156 5.027344 5.703125 L 5.164062 5.984375 C 5.1875 6.035156 5.199219 6.09375 5.203125 6.148438 L 5.203125 8.242188 L 5.625 8.242188 L 5.625 6.148438 C 5.628906 6.09375 5.640625 6.035156 5.664062 5.984375 L 5.800781 5.703125 C 5.820312 5.660156 5.855469 5.660156 5.875 5.703125 L 6.011719 5.980469 C 6.035156 6.035156 6.046875 6.089844 6.050781 6.148438 Z M 9.859375 15.652344 C 9.859375 15.890625 9.667969 16.089844 9.433594 16.089844 L 9.011719 16.089844 C 8.777344 16.089844 8.585938 15.890625 8.585938 15.652344 L 8.585938 12.164062 C 8.585938 12.164062 7.316406 11.769531 7.316406 10.855469 L 7.316406 7.71875 C 7.316406 7.359375 7.554688 6.902344 7.847656 6.703125 L 9.328125 5.683594 C 9.621094 5.488281 9.859375 5.617188 9.859375 5.980469 Z M 9.859375 15.652344 "/>
</g>
</g>
</svg>
