<?xml version="1.0" encoding="UTF-8"?>
<svg xmlns="http://www.w3.org/2000/svg" xmlns:xlink="http://www.w3.org/1999/xlink" width="11" height="11.000001" viewBox="0 0 11 11.000001" version="1.1">
<g id="surface1">
<path style=" stroke:none;fill-rule:nonzero;fill:rgb(30%,30%,30%);fill-opacity:1;" d="M 5.5 0 C 2.460938 0 0 2.460938 0 5.5 C 0 8.539062 2.460938 11 5.5 11 C 8.539062 11 11 8.539062 11 5.5 C 11 2.460938 8.539062 0 5.5 0 Z M 7.207031 9.542969 C 5.347656 10.332031 3.191406 9.75 1.984375 8.132812 C 0.773438 6.515625 0.824219 4.28125 2.101562 2.722656 L 4.570312 5.289062 C 4.355469 5.644531 4.109375 5.910156 3.945312 5.871094 C 3.570312 5.78125 3.542969 4.96875 3.339844 4.472656 C 3.128906 3.957031 2.5625 3.742188 2.480469 3.972656 C 2.421875 4.152344 2.546875 4.582031 2.679688 5.707031 C 2.816406 6.878906 3.089844 8.171875 4.316406 8.8125 C 5.542969 9.457031 6.453125 8.3125 6.742188 7.964844 C 6.804688 7.890625 6.863281 7.8125 6.921875 7.738281 L 8.140625 9.007812 C 7.851562 9.222656 7.539062 9.402344 7.207031 9.542969 Z M 8.9375 8.230469 L 7.648438 6.890625 C 7.761719 6.792969 7.878906 6.699219 8.003906 6.617188 C 8.785156 6.085938 9.226562 5.441406 9.15625 5.347656 C 8.726562 4.773438 7.441406 6.5 7.0625 6.277344 L 7.011719 6.226562 C 6.894531 5.90625 8.796875 3.523438 8.414062 3.25 C 8.007812 2.957031 6.625 5.554688 6.453125 5.441406 C 6.238281 5.304688 7.9375 2.125 7.472656 1.933594 C 6.890625 1.695312 6.046875 4.566406 5.753906 4.917969 L 5.640625 4.796875 C 5.660156 4.175781 6.75 1.9375 6.339844 1.792969 C 5.863281 1.617188 5.363281 3.203125 5.042969 4.175781 L 2.910156 1.957031 C 4.683594 0.65625 7.144531 0.871094 8.667969 2.457031 C 10.191406 4.042969 10.304688 6.511719 8.9375 8.230469 Z M 8.9375 8.230469 "/>
</g>
</svg>
