<?xml version="1.0" encoding="UTF-8"?>
<svg xmlns="http://www.w3.org/2000/svg" xmlns:xlink="http://www.w3.org/1999/xlink" width="9.550854" height="11" viewBox="0 0 9.550854 11" version="1.1">
<g id="surface1">
<path style=" stroke:none;fill-rule:nonzero;fill:rgb(30%,30%,30%);fill-opacity:1;" d="M 4.113281 3.46875 L 2.613281 3.1875 L 1.488281 4.21875 L 1.34375 2.753906 L 0 2.074219 L 1.40625 1.453125 L 1.703125 0 L 2.71875 1.078125 L 4.242188 0.863281 L 3.464844 2.148438 Z M 4.113281 3.46875 "/>
<path style=" stroke:none;fill-rule:nonzero;fill:rgb(30%,30%,30%);fill-opacity:1;" d="M 9.542969 5.351562 C 9.519531 5.078125 9.429688 4.816406 9.28125 4.585938 C 9.171875 4.414062 9.023438 4.257812 8.824219 4.117188 C 8.621094 3.972656 8.367188 3.878906 8.09375 3.847656 C 7.882812 3.824219 7.667969 3.84375 7.433594 3.910156 C 7.335938 3.933594 7.238281 3.964844 7.144531 4 C 6.921875 3.746094 6.640625 3.550781 6.328125 3.425781 C 5.824219 3.230469 5.253906 3.226562 4.753906 3.414062 C 4.410156 3.542969 4.109375 3.757812 3.871094 4.039062 C 3.78125 4.003906 3.6875 3.976562 3.59375 3.953125 L 3.59375 3.949219 C 3.582031 3.945312 3.570312 3.941406 3.5625 3.9375 C 3.542969 3.933594 3.527344 3.929688 3.511719 3.921875 C 3.027344 3.789062 2.464844 3.914062 2.082031 4.246094 C 1.894531 4.402344 1.742188 4.601562 1.636719 4.824219 L 1.628906 4.832031 L 1.625 4.847656 C 1.527344 5.066406 1.476562 5.300781 1.484375 5.542969 C 1.496094 6.0625 1.753906 6.554688 2.171875 6.855469 C 2.394531 7.015625 2.644531 7.117188 2.902344 7.144531 C 2.96875 7.152344 3.035156 7.15625 3.097656 7.15625 C 3.113281 7.15625 3.125 7.15625 3.136719 7.15625 L 3.4375 9.113281 L 3.4375 11 L 7.492188 11 L 7.492188 9.363281 L 7.824219 7.144531 C 7.832031 7.144531 7.835938 7.144531 7.84375 7.144531 C 7.867188 7.144531 7.890625 7.144531 7.914062 7.144531 C 8.304688 7.144531 8.695312 7 8.984375 6.738281 C 9.382812 6.378906 9.589844 5.859375 9.542969 5.351562 Z M 9.132812 5.875 C 8.996094 6.339844 8.644531 6.6875 8.160156 6.855469 C 8.140625 6.859375 8.117188 6.863281 8.097656 6.867188 C 7.894531 6.90625 7.6875 6.90625 7.488281 6.871094 L 7.441406 7.070312 C 7.449219 7.074219 7.457031 7.074219 7.464844 7.078125 C 7.484375 7.082031 7.503906 7.089844 7.527344 7.09375 C 7.558594 7.101562 7.589844 7.109375 7.621094 7.117188 L 7.324219 9.0625 L 6.542969 9.0625 C 7.164062 8.691406 6.863281 7.792969 6.875 7.683594 C 6.605469 9.058594 6.542969 8.488281 6.414062 9.0625 L 5.574219 9.0625 C 5.785156 8.527344 5.546875 8.238281 5.539062 7.953125 C 5.535156 7.917969 5.445312 7.703125 5.445312 7.671875 C 5.4375 7.875 5.410156 8.570312 5.386719 9.0625 L 4.511719 9.0625 C 4.464844 9.042969 4.753906 8.632812 3.992188 7.785156 C 3.96875 7.761719 3.980469 7.71875 3.972656 7.683594 C 4.101562 8.734375 4.292969 8.460938 4.382812 9.0625 L 3.640625 9.0625 L 3.339844 7.140625 C 3.421875 7.128906 3.5 7.109375 3.582031 7.089844 L 3.535156 6.890625 C 3.460938 6.902344 3.386719 6.910156 3.3125 6.914062 L 3.3125 6.910156 L 3.21875 6.914062 C 3.214844 6.914062 3.210938 6.914062 3.207031 6.914062 C 2.894531 6.910156 2.601562 6.8125 2.371094 6.632812 C 2.015625 6.359375 1.8125 5.949219 1.808594 5.511719 C 1.8125 5.085938 2.007812 4.6875 2.339844 4.425781 C 2.519531 4.28125 2.730469 4.1875 2.957031 4.140625 C 3.125 4.109375 3.296875 4.109375 3.464844 4.132812 C 3.558594 4.152344 3.652344 4.179688 3.742188 4.210938 C 3.609375 4.40625 3.507812 4.625 3.445312 4.855469 C 3.410156 4.984375 3.394531 5.117188 3.382812 5.230469 C 3.378906 5.3125 3.378906 5.390625 3.382812 5.46875 C 3.382812 5.488281 3.382812 5.503906 3.382812 5.519531 L 3.585938 5.53125 C 3.601562 5.398438 3.625 5.269531 3.652344 5.144531 C 3.691406 4.992188 3.75 4.847656 3.824219 4.710938 C 4.050781 4.300781 4.402344 3.980469 4.820312 3.816406 C 4.960938 3.761719 5.109375 3.722656 5.257812 3.703125 C 5.316406 3.695312 5.371094 3.6875 5.429688 3.6875 C 5.441406 3.6875 5.453125 3.683594 5.460938 3.683594 C 5.472656 3.683594 5.484375 3.683594 5.496094 3.683594 C 5.503906 3.683594 5.511719 3.683594 5.519531 3.683594 C 5.519531 3.683594 5.523438 3.683594 5.523438 3.683594 C 5.539062 3.683594 5.550781 3.683594 5.5625 3.683594 C 5.679688 3.6875 5.800781 3.695312 5.910156 3.71875 C 6.171875 3.785156 6.367188 3.863281 6.53125 3.96875 L 6.535156 3.972656 C 6.695312 4.066406 6.839844 4.191406 6.960938 4.332031 C 7.109375 4.5 7.226562 4.691406 7.320312 4.917969 C 7.40625 5.117188 7.4375 5.328125 7.464844 5.53125 L 7.667969 5.519531 C 7.667969 5.503906 7.667969 5.488281 7.667969 5.472656 C 7.671875 5.390625 7.671875 5.308594 7.667969 5.230469 C 7.65625 5.117188 7.640625 4.984375 7.605469 4.855469 C 7.542969 4.621094 7.4375 4.402344 7.300781 4.199219 C 7.292969 4.191406 7.289062 4.179688 7.28125 4.167969 C 7.347656 4.144531 7.417969 4.125 7.488281 4.109375 C 7.699219 4.074219 7.878906 4.070312 8.042969 4.101562 C 8.277344 4.148438 8.476562 4.230469 8.636719 4.351562 C 8.757812 4.441406 8.863281 4.546875 8.953125 4.667969 C 9.027344 4.785156 9.089844 4.914062 9.128906 5.046875 C 9.210938 5.316406 9.210938 5.605469 9.132812 5.875 Z M 9.132812 5.875 "/>
</g>
</svg>
