<?xml version="1.0" encoding="UTF-8" standalone="no"?>
<!-- Created with Inkscape (http://www.inkscape.org/) -->

<svg
   xmlns:dc="http://purl.org/dc/elements/1.1/"
   xmlns:cc="http://creativecommons.org/ns#"
   xmlns:rdf="http://www.w3.org/1999/02/22-rdf-syntax-ns#"
   xmlns:svg="http://www.w3.org/2000/svg"
   xmlns="http://www.w3.org/2000/svg"
   xmlns:xlink="http://www.w3.org/1999/xlink"
   xmlns:sodipodi="http://sodipodi.sourceforge.net/DTD/sodipodi-0.dtd"
   xmlns:inkscape="http://www.inkscape.org/namespaces/inkscape"
   width="30px"
   height="30px"
   version="1.1"
   id="svg8"
   inkscape:version="0.92.4 5da689c313, 2019-01-14"
   sodipodi:docname="container.svg">
  <defs
     id="defs2" />
  <sodipodi:namedview
     id="base"
     pagecolor="#ffffff"
     bordercolor="#666666"
     borderopacity="1.0"
     inkscape:pageopacity="0.0"
     inkscape:pageshadow="2"
     inkscape:zoom="13.049334"
     inkscape:cx="18.679046"
     inkscape:cy="12.165829"
     inkscape:document-units="px"
     inkscape:current-layer="layer1"
     showgrid="false"
     inkscape:snap-page="false"
     units="px"
     inkscape:window-width="1884"
     inkscape:window-height="1061"
     inkscape:window-x="0"
     inkscape:window-y="0"
     inkscape:window-maximized="1"
     fit-margin-top="0"
     fit-margin-left="0"
     fit-margin-right="0"
     fit-margin-bottom="0" />
  <metadata
     id="metadata5">
    <rdf:RDF>
      <cc:Work
         rdf:about="">
        <dc:format>image/svg+xml</dc:format>
        <dc:type
           rdf:resource="http://purl.org/dc/dcmitype/StillImage" />
        <dc:title></dc:title>
      </cc:Work>
    </rdf:RDF>
  </metadata>
    <circle
       style="color:#000000;clip-rule:nonzero;display:inline;overflow:visible;visibility:visible;opacity:1;isolation:auto;mix-blend-mode:normal;color-interpolation:sRGB;color-interpolation-filters:linearRGB;solid-color:#000000;solid-opacity:1;vector-effect:none;fill:rgba(255, 255, 255, 1);fill-opacity:1;fill-rule:evenodd;stroke:#ffffff;stroke-width:1;stroke-linecap:butt;stroke-linejoin:miter;stroke-miterlimit:4;stroke-dasharray:none;stroke-dashoffset:0;stroke-opacity:1;marker:none;color-rendering:auto;image-rendering:auto;shape-rendering:auto;text-rendering:auto;enable-background:accumulate"
       id="path815"
       cx="15"
       cy="15"
       r="14.5" />
<g transform="translate(6,6)"><g id="surface1">
<path style=" stroke:none;fill-rule:nonzero;fill:#FFFFFF;fill-opacity:1;" d="M 4.472656 6.90625 C 4.472656 7.707031 3.824219 8.355469 3.023438 8.355469 C 2.222656 8.355469 1.574219 7.707031 1.574219 6.90625 C 1.574219 6.105469 2.222656 5.457031 3.023438 5.457031 C 3.824219 5.457031 4.472656 6.105469 4.472656 6.90625 Z M 10.199219 14.351562 L 8.894531 13.234375 L 7.230469 13.75 L 9.242188 15.46875 C 9.535156 15.722656 9.980469 15.6875 10.230469 15.390625 L 10.277344 15.339844 C 10.53125 15.046875 10.492188 14.601562 10.199219 14.351562 Z M 16.320312 6.273438 C 16.269531 6.425781 16.125 6.519531 15.976562 6.519531 C 15.9375 6.519531 15.894531 6.511719 15.855469 6.496094 L 7.898438 3.664062 L 7.898438 6.746094 C 8.050781 6.753906 8.195312 6.820312 8.300781 6.953125 L 8.34375 7.003906 C 8.566406 7.273438 8.527344 7.671875 8.253906 7.894531 C 8.253906 7.894531 8.121094 8.003906 7.898438 8.1875 L 7.898438 11.542969 C 8.449219 11.363281 9.300781 11.046875 9.300781 11.046875 C 9.488281 11.023438 9.683594 11.074219 9.839844 11.207031 L 12.035156 13.085938 C 12.332031 13.335938 12.367188 13.78125 12.113281 14.074219 L 12.066406 14.128906 C 11.816406 14.421875 11.371094 14.457031 11.078125 14.207031 L 9.464844 12.824219 C 8.730469 13.097656 7.015625 13.730469 6.695312 13.761719 C 6.5 13.78125 6.28125 13.785156 6.109375 13.785156 C 6.066406 13.789062 6.023438 13.789062 5.980469 13.785156 C 5.867188 13.785156 5.804688 13.75 5.804688 13.75 C 5.679688 13.707031 5.5625 13.628906 5.472656 13.511719 L 3.070312 10.457031 C 2.714844 10 2.792969 9.339844 3.25 8.980469 C 3.25 8.980469 3.632812 8.660156 6.328125 7.964844 L 7.429688 6.90625 C 7.449219 6.886719 7.46875 6.875 7.488281 6.859375 L 7.488281 3.515625 L 2.226562 1.640625 C 2.035156 1.574219 1.933594 1.363281 2.003906 1.171875 C 2.070312 0.984375 2.28125 0.882812 2.472656 0.949219 L 16.097656 5.804688 C 16.292969 5.875 16.390625 6.082031 16.320312 6.273438 Z M 7.488281 8.519531 C 7.472656 8.535156 7.453125 8.550781 7.433594 8.566406 C 6.949219 8.960938 5.546875 9.617188 5.546875 9.617188 L 7.1875 11.660156 C 7.277344 11.675781 7.382812 11.679688 7.488281 11.660156 Z M 7.488281 8.519531 "/>
</g>
</g>
</svg>
