<?xml version="1.0" encoding="UTF-8" standalone="no"?>
<!-- Created with Inkscape (http://www.inkscape.org/) -->

<svg
   xmlns:dc="http://purl.org/dc/elements/1.1/"
   xmlns:cc="http://creativecommons.org/ns#"
   xmlns:rdf="http://www.w3.org/1999/02/22-rdf-syntax-ns#"
   xmlns:svg="http://www.w3.org/2000/svg"
   xmlns="http://www.w3.org/2000/svg"
   xmlns:xlink="http://www.w3.org/1999/xlink"
   xmlns:sodipodi="http://sodipodi.sourceforge.net/DTD/sodipodi-0.dtd"
   xmlns:inkscape="http://www.inkscape.org/namespaces/inkscape"
   width="30px"
   height="30px"
   version="1.1"
   id="svg8"
   inkscape:version="0.92.4 5da689c313, 2019-01-14"
   sodipodi:docname="container.svg">
  <defs
     id="defs2" />
  <sodipodi:namedview
     id="base"
     pagecolor="#ffffff"
     bordercolor="#666666"
     borderopacity="1.0"
     inkscape:pageopacity="0.0"
     inkscape:pageshadow="2"
     inkscape:zoom="13.049334"
     inkscape:cx="18.679046"
     inkscape:cy="12.165829"
     inkscape:document-units="px"
     inkscape:current-layer="layer1"
     showgrid="false"
     inkscape:snap-page="false"
     units="px"
     inkscape:window-width="1884"
     inkscape:window-height="1061"
     inkscape:window-x="0"
     inkscape:window-y="0"
     inkscape:window-maximized="1"
     fit-margin-top="0"
     fit-margin-left="0"
     fit-margin-right="0"
     fit-margin-bottom="0" />
  <metadata
     id="metadata5">
    <rdf:RDF>
      <cc:Work
         rdf:about="">
        <dc:format>image/svg+xml</dc:format>
        <dc:type
           rdf:resource="http://purl.org/dc/dcmitype/StillImage" />
        <dc:title></dc:title>
      </cc:Work>
    </rdf:RDF>
  </metadata>
    <circle
       style="color:#000000;clip-rule:nonzero;display:inline;overflow:visible;visibility:visible;opacity:1;isolation:auto;mix-blend-mode:normal;color-interpolation:sRGB;color-interpolation-filters:linearRGB;solid-color:#000000;solid-opacity:1;vector-effect:none;fill:#ffffff;fill-opacity:1;fill-rule:evenodd;stroke:rgba(255, 255, 255, 1);stroke-width:1;stroke-linecap:butt;stroke-linejoin:miter;stroke-miterlimit:4;stroke-dasharray:none;stroke-dashoffset:0;stroke-opacity:1;marker:none;color-rendering:auto;image-rendering:auto;shape-rendering:auto;text-rendering:auto;enable-background:accumulate"
       id="path815"
       cx="15"
       cy="15"
       r="14.5" />
<g transform="translate(6,6)"><g id="surface1">
<path style=" stroke:none;fill-rule:nonzero;fill:rgb(30%,30%,30%);fill-opacity:1;" d="M 7.625 1.640625 C 7.625 2.390625 7.230469 2.996094 6.746094 2.996094 C 6.261719 2.996094 5.871094 2.390625 5.871094 1.640625 C 5.871094 0.890625 6.261719 0.285156 6.746094 0.285156 C 7.230469 0.285156 7.625 0.890625 7.625 1.640625 Z M 4.761719 0.859375 C 4.449219 0.894531 4.246094 1.324219 4.304688 1.824219 C 4.363281 2.320312 4.65625 2.695312 4.964844 2.664062 C 5.273438 2.625 5.480469 2.195312 5.421875 1.695312 C 5.363281 1.199219 5.066406 0.824219 4.761719 0.859375 Z M 3.480469 1.515625 C 3.214844 1.574219 3.070312 1.953125 3.160156 2.371094 C 3.25 2.785156 3.535156 3.078125 3.800781 3.019531 C 4.066406 2.964844 4.210938 2.582031 4.121094 2.164062 C 4.035156 1.75 3.746094 1.460938 3.480469 1.515625 Z M 2.503906 2.402344 C 2.265625 2.453125 2.136719 2.808594 2.222656 3.199219 C 2.304688 3.585938 2.5625 3.859375 2.800781 3.8125 C 3.039062 3.761719 3.164062 3.40625 3.082031 3.015625 C 3 2.625 2.742188 2.351562 2.503906 2.402344 Z M 1.71875 3.625 C 1.527344 3.699219 1.472656 4.015625 1.597656 4.332031 C 1.71875 4.648438 1.972656 4.84375 2.164062 4.773438 C 2.359375 4.699219 2.414062 4.382812 2.289062 4.066406 C 2.167969 3.75 1.914062 3.550781 1.71875 3.625 Z M 9.46875 2.519531 C 9.46875 3.265625 9.859375 3.875 10.34375 3.875 C 10.828125 3.875 11.222656 3.265625 11.222656 2.519531 C 11.222656 1.769531 10.828125 1.160156 10.34375 1.160156 C 9.859375 1.160156 9.46875 1.769531 9.46875 2.519531 Z M 11.667969 2.574219 C 11.613281 3.070312 11.816406 3.503906 12.125 3.539062 C 12.433594 3.574219 12.730469 3.199219 12.785156 2.703125 C 12.84375 2.203125 12.636719 1.769531 12.332031 1.734375 C 12.023438 1.699219 11.726562 2.074219 11.667969 2.574219 Z M 12.96875 3.042969 C 12.878906 3.457031 13.023438 3.839844 13.289062 3.898438 C 13.554688 3.957031 13.839844 3.664062 13.929688 3.25 C 14.019531 2.832031 13.875 2.453125 13.609375 2.394531 C 13.34375 2.335938 13.054688 2.628906 12.96875 3.042969 Z M 14.007812 3.890625 C 13.925781 4.28125 14.050781 4.636719 14.289062 4.6875 C 14.527344 4.738281 14.785156 4.460938 14.867188 4.074219 C 14.949219 3.683594 14.824219 3.328125 14.585938 3.277344 C 14.351562 3.226562 14.089844 3.503906 14.007812 3.890625 Z M 14.800781 4.941406 C 14.679688 5.257812 14.730469 5.574219 14.925781 5.648438 C 15.117188 5.722656 15.371094 5.527344 15.492188 5.210938 C 15.617188 4.894531 15.5625 4.578125 15.371094 4.503906 C 15.175781 4.429688 14.925781 4.625 14.800781 4.941406 Z M 6.339844 15.460938 C 5.445312 15.460938 4.535156 14.511719 4.382812 13.261719 C 4.382812 13.261719 4.382812 13.261719 4.382812 13.257812 C 4.269531 13.046875 3.941406 10.390625 3.441406 9.445312 C 2.789062 8.199219 2.332031 6.664062 2.351562 6.667969 C 2.292969 6.429688 2.257812 6.171875 2.257812 5.902344 C 2.257812 4.367188 3.554688 3.015625 5.09375 3.015625 C 6.632812 3.015625 7.929688 3.949219 7.890625 5.484375 C 7.871094 6.261719 6.503906 7.320312 6.136719 8.300781 C 6.109375 8.367188 6.082031 8.421875 6.054688 8.46875 C 5.929688 8.96875 5.941406 9.640625 6.074219 10.097656 C 6.203125 10.539062 6.726562 11.105469 6.953125 11.332031 C 7.59375 11.832031 8.046875 12.9375 8.074219 13.644531 C 8.113281 14.726562 7.320312 15.460938 6.339844 15.460938 Z M 7.277344 12.375 C 7.285156 12.464844 7.363281 12.53125 7.453125 12.523438 C 7.542969 12.515625 7.609375 12.4375 7.601562 12.347656 C 7.59375 12.257812 7.515625 12.191406 7.425781 12.199219 C 7.335938 12.207031 7.269531 12.285156 7.277344 12.375 Z M 7.0625 12.605469 C 6.898438 12.605469 6.769531 12.742188 6.769531 12.910156 C 6.769531 13.078125 6.898438 13.21875 7.0625 13.21875 C 7.226562 13.21875 7.359375 13.078125 7.359375 12.910156 C 7.359375 12.742188 7.226562 12.605469 7.0625 12.605469 Z M 5.992188 12.015625 C 5.992188 12.304688 6.230469 12.542969 6.523438 12.542969 C 6.816406 12.542969 7.054688 12.304688 7.054688 12.015625 C 7.054688 11.722656 6.816406 11.484375 6.523438 11.484375 C 6.230469 11.484375 5.992188 11.722656 5.992188 12.015625 Z M 6.296875 12.910156 C 6.195312 12.910156 6.113281 12.992188 6.113281 13.09375 C 6.113281 13.195312 6.195312 13.277344 6.296875 13.277344 C 6.402344 13.277344 6.480469 13.195312 6.480469 13.09375 C 6.480469 12.992188 6.398438 12.910156 6.296875 12.910156 Z M 6.890625 6.792969 C 6.890625 6.703125 6.816406 6.628906 6.726562 6.628906 C 6.636719 6.628906 6.5625 6.703125 6.5625 6.792969 C 6.5625 6.882812 6.636719 6.953125 6.726562 6.953125 C 6.816406 6.953125 6.890625 6.882812 6.890625 6.792969 Z M 7.03125 5.535156 C 7.03125 5.046875 6.636719 4.648438 6.144531 4.648438 C 5.65625 4.648438 5.257812 5.046875 5.257812 5.535156 C 5.257812 6.027344 5.65625 6.425781 6.144531 6.425781 C 6.636719 6.425781 7.03125 6.027344 7.03125 5.535156 Z M 5.890625 12.484375 C 5.890625 12.277344 5.730469 12.113281 5.535156 12.113281 C 5.335938 12.113281 5.175781 12.277344 5.175781 12.484375 C 5.175781 12.6875 5.335938 12.851562 5.535156 12.851562 C 5.730469 12.851562 5.890625 12.6875 5.890625 12.484375 Z M 5.746094 13.15625 C 5.679688 13.15625 5.625 13.207031 5.625 13.269531 C 5.625 13.328125 5.679688 13.378906 5.746094 13.378906 C 5.816406 13.378906 5.871094 13.328125 5.871094 13.269531 C 5.871094 13.207031 5.8125 13.15625 5.746094 13.15625 Z M 5.695312 11.832031 C 5.792969 11.832031 5.871094 11.753906 5.871094 11.65625 C 5.871094 11.5625 5.792969 11.484375 5.695312 11.484375 C 5.601562 11.484375 5.523438 11.5625 5.523438 11.65625 C 5.523438 11.753906 5.601562 11.832031 5.695312 11.832031 Z M 7.582031 5.851562 C 7.582031 5.742188 7.492188 5.648438 7.378906 5.648438 C 7.265625 5.648438 7.175781 5.742188 7.175781 5.851562 C 7.175781 5.964844 7.265625 6.058594 7.378906 6.058594 C 7.492188 6.058594 7.582031 5.964844 7.582031 5.851562 Z M 7.441406 5.160156 C 7.441406 5.25 7.515625 5.324219 7.605469 5.324219 C 7.695312 5.324219 7.765625 5.25 7.765625 5.160156 C 7.765625 5.070312 7.695312 4.996094 7.605469 4.996094 C 7.515625 4.996094 7.441406 5.070312 7.441406 5.160156 Z M 6.871094 4.445312 C 6.871094 4.613281 7.003906 4.75 7.164062 4.75 C 7.328125 4.75 7.460938 4.613281 7.460938 4.445312 C 7.460938 4.277344 7.328125 4.140625 7.164062 4.140625 C 7.003906 4.140625 6.871094 4.277344 6.871094 4.445312 Z M 6.605469 3.875 C 6.605469 3.964844 6.675781 4.039062 6.769531 4.039062 C 6.859375 4.039062 6.929688 3.964844 6.929688 3.875 C 6.929688 3.785156 6.859375 3.710938 6.769531 3.710938 C 6.675781 3.710938 6.605469 3.785156 6.605469 3.875 Z M 5.117188 3.894531 C 5.117188 4.242188 5.398438 4.527344 5.746094 4.527344 C 6.097656 4.527344 6.378906 4.242188 6.378906 3.894531 C 6.378906 3.546875 6.097656 3.261719 5.746094 3.261719 C 5.398438 3.261719 5.117188 3.546875 5.117188 3.894531 Z M 4.890625 6.585938 C 4.890625 6.753906 5.023438 6.894531 5.1875 6.894531 C 5.351562 6.894531 5.484375 6.753906 5.484375 6.585938 C 5.484375 6.417969 5.351562 6.28125 5.1875 6.28125 C 5.023438 6.28125 4.890625 6.417969 4.890625 6.585938 Z M 4.523438 6.445312 C 4.523438 6.355469 4.449219 6.28125 4.359375 6.28125 C 4.269531 6.28125 4.199219 6.355469 4.199219 6.445312 C 4.199219 6.535156 4.269531 6.609375 4.359375 6.609375 C 4.449219 6.609375 4.523438 6.535156 4.523438 6.445312 Z M 4.359375 6.8125 C 4.269531 6.8125 4.199219 6.886719 4.199219 6.976562 C 4.199219 7.066406 4.269531 7.136719 4.359375 7.136719 C 4.449219 7.136719 4.523438 7.066406 4.523438 6.976562 C 4.523438 6.886719 4.449219 6.8125 4.359375 6.8125 Z M 4.585938 6.035156 C 4.820312 6.035156 5.011719 5.84375 5.011719 5.609375 C 5.011719 5.371094 4.820312 5.179688 4.585938 5.179688 C 4.347656 5.179688 4.15625 5.371094 4.15625 5.609375 C 4.15625 5.84375 4.347656 6.035156 4.585938 6.035156 Z M 4.339844 3.546875 C 4.339844 3.714844 4.472656 3.855469 4.636719 3.855469 C 4.800781 3.855469 4.933594 3.714844 4.933594 3.546875 C 4.933594 3.378906 4.800781 3.242188 4.636719 3.242188 C 4.472656 3.242188 4.339844 3.378906 4.339844 3.546875 Z M 4.003906 4.515625 C 4.003906 4.789062 4.222656 5.007812 4.492188 5.007812 C 4.535156 5.007812 4.578125 5 4.617188 4.992188 C 4.851562 4.957031 5.035156 4.753906 5.035156 4.507812 C 5.035156 4.238281 4.8125 4.015625 4.542969 4.015625 C 4.5 4.015625 4.460938 4.023438 4.421875 4.03125 C 4.183594 4.066406 4.003906 4.269531 4.003906 4.515625 Z M 3.769531 3.894531 C 3.769531 3.984375 3.84375 4.058594 3.933594 4.058594 C 4.023438 4.058594 4.09375 3.984375 4.09375 3.894531 C 4.09375 3.804688 4.023438 3.730469 3.933594 3.730469 C 3.84375 3.730469 3.769531 3.804688 3.769531 3.894531 Z M 2.9375 4.527344 C 2.9375 4.753906 3.113281 4.933594 3.332031 4.933594 C 3.546875 4.933594 3.726562 4.753906 3.726562 4.527344 C 3.726562 4.300781 3.546875 4.117188 3.332031 4.117188 C 3.113281 4.117188 2.9375 4.300781 2.9375 4.527344 Z M 2.503906 5.824219 C 2.503906 6.234375 2.835938 6.566406 3.25 6.566406 C 3.660156 6.566406 3.992188 6.234375 3.992188 5.824219 C 3.992188 5.410156 3.660156 5.078125 3.25 5.078125 C 2.835938 5.078125 2.503906 5.410156 2.503906 5.824219 Z M 2.953125 7.078125 C 2.953125 6.988281 2.878906 6.914062 2.789062 6.914062 C 2.699219 6.914062 2.625 6.988281 2.625 7.078125 C 2.625 7.167969 2.699219 7.242188 2.789062 7.242188 C 2.878906 7.242188 2.953125 7.167969 2.953125 7.078125 Z M 3.136719 7.261719 C 3.136719 7.496094 3.332031 7.6875 3.574219 7.6875 C 3.816406 7.6875 4.015625 7.496094 4.015625 7.261719 C 4.015625 7.023438 3.816406 6.835938 3.574219 6.835938 C 3.332031 6.835938 3.136719 7.023438 3.136719 7.261719 Z M 3.574219 8.691406 C 3.761719 8.691406 3.910156 8.535156 3.910156 8.34375 C 3.910156 8.148438 3.761719 7.992188 3.574219 7.992188 C 3.390625 7.992188 3.238281 8.148438 3.238281 8.34375 C 3.238281 8.535156 3.386719 8.691406 3.574219 8.691406 Z M 3.726562 9.261719 C 3.816406 9.261719 3.890625 9.1875 3.890625 9.097656 C 3.890625 9.007812 3.816406 8.933594 3.726562 8.933594 C 3.636719 8.933594 3.566406 9.007812 3.566406 9.097656 C 3.566406 9.1875 3.636719 9.261719 3.726562 9.261719 Z M 3.890625 9.871094 C 3.960938 9.871094 4.015625 9.816406 4.015625 9.75 C 4.015625 9.679688 3.960938 9.628906 3.890625 9.628906 C 3.824219 9.628906 3.769531 9.679688 3.769531 9.75 C 3.769531 9.816406 3.824219 9.871094 3.890625 9.871094 Z M 4.238281 10.808594 C 4.40625 10.808594 4.542969 10.667969 4.542969 10.492188 C 4.542969 10.320312 4.40625 10.179688 4.238281 10.179688 C 4.070312 10.179688 3.933594 10.320312 3.933594 10.492188 C 3.933594 10.667969 4.070312 10.808594 4.238281 10.808594 Z M 4.675781 12.023438 C 4.914062 12.023438 5.105469 11.832031 5.105469 11.59375 C 5.105469 11.359375 4.914062 11.167969 4.675781 11.167969 C 4.441406 11.167969 4.25 11.359375 4.25 11.59375 C 4.25 11.832031 4.4375 12.023438 4.675781 12.023438 Z M 4.769531 12.605469 C 4.859375 12.605469 4.933594 12.53125 4.933594 12.441406 C 4.933594 12.351562 4.859375 12.277344 4.769531 12.277344 C 4.679688 12.277344 4.605469 12.351562 4.605469 12.441406 C 4.605469 12.53125 4.679688 12.605469 4.769531 12.605469 Z M 5.175781 13.992188 C 5.175781 13.890625 5.09375 13.808594 4.992188 13.808594 C 4.890625 13.808594 4.808594 13.890625 4.808594 13.992188 C 4.808594 14.09375 4.890625 14.175781 4.992188 14.175781 C 5.09375 14.175781 5.175781 14.09375 5.175781 13.992188 Z M 5.300781 13.175781 C 5.300781 13.007812 5.167969 12.871094 5.003906 12.871094 C 4.839844 12.871094 4.707031 13.007812 4.707031 13.175781 C 4.707031 13.34375 4.839844 13.484375 5.003906 13.484375 C 5.167969 13.484375 5.300781 13.34375 5.300781 13.175781 Z M 6.871094 14.308594 C 6.871094 13.875 6.519531 13.523438 6.085938 13.523438 C 5.652344 13.523438 5.300781 13.875 5.300781 14.308594 C 5.300781 14.742188 5.652344 15.09375 6.085938 15.09375 C 6.519531 15.09375 6.871094 14.742188 6.871094 14.308594 Z M 7.175781 14.980469 C 7.175781 14.921875 7.125 14.871094 7.0625 14.871094 C 7.003906 14.871094 6.953125 14.921875 6.953125 14.980469 C 6.953125 15.042969 7.003906 15.09375 7.0625 15.09375 C 7.125 15.09375 7.175781 15.042969 7.175781 14.980469 Z M 7.328125 14.035156 C 7.492188 14.035156 7.625 13.894531 7.625 13.726562 C 7.625 13.558594 7.492188 13.421875 7.328125 13.421875 C 7.164062 13.421875 7.03125 13.558594 7.03125 13.726562 C 7.03125 13.894531 7.164062 14.035156 7.328125 14.035156 Z M 7.746094 14.363281 C 7.738281 14.273438 7.660156 14.207031 7.570312 14.21875 C 7.476562 14.226562 7.410156 14.304688 7.421875 14.394531 C 7.429688 14.484375 7.507812 14.550781 7.597656 14.542969 C 7.6875 14.535156 7.753906 14.457031 7.746094 14.363281 Z M 8.871094 14.542969 C 8.898438 13.835938 9.351562 12.730469 9.992188 12.230469 C 10.21875 12.003906 10.742188 11.4375 10.871094 10.992188 C 11 10.539062 11.011719 9.863281 10.890625 9.367188 C 10.859375 9.320312 10.835938 9.265625 10.808594 9.199219 C 10.441406 8.21875 9.074219 7.160156 9.054688 6.382812 C 9.011719 4.847656 10.308594 3.914062 11.847656 3.914062 C 13.386719 3.914062 14.683594 5.261719 14.683594 6.800781 C 14.683594 7.070312 14.652344 7.324219 14.59375 7.566406 C 14.613281 7.5625 14.152344 9.097656 13.5 10.339844 C 13.003906 11.289062 12.671875 13.945312 12.5625 14.15625 C 12.5625 14.15625 12.5625 14.15625 12.5625 14.160156 C 12.410156 15.410156 11.5 16.359375 10.605469 16.359375 C 9.625 16.359375 8.828125 15.625 8.871094 14.542969 Z M 9.332031 13.585938 C 9.242188 13.578125 9.164062 13.640625 9.15625 13.734375 C 9.148438 13.824219 9.214844 13.902344 9.304688 13.910156 C 9.394531 13.917969 9.472656 13.851562 9.480469 13.761719 C 9.488281 13.671875 9.421875 13.59375 9.332031 13.585938 Z M 9.625 13.871094 C 9.625 14.039062 9.757812 14.175781 9.921875 14.175781 C 10.085938 14.175781 10.21875 14.039062 10.21875 13.871094 C 10.21875 13.703125 10.085938 13.5625 9.921875 13.5625 C 9.757812 13.5625 9.625 13.703125 9.625 13.871094 Z M 9.15625 14.664062 C 9.15625 14.835938 9.289062 14.972656 9.453125 14.972656 C 9.613281 14.972656 9.746094 14.835938 9.746094 14.664062 C 9.746094 14.496094 9.613281 14.359375 9.453125 14.359375 C 9.289062 14.359375 9.15625 14.496094 9.15625 14.664062 Z M 10.320312 12.277344 C 10.027344 12.277344 9.789062 12.515625 9.789062 12.808594 C 9.789062 13.101562 10.027344 13.339844 10.320312 13.339844 C 10.613281 13.339844 10.847656 13.101562 10.847656 12.808594 C 10.847656 12.515625 10.613281 12.277344 10.320312 12.277344 Z M 10.664062 13.953125 C 10.664062 14.054688 10.746094 14.136719 10.847656 14.136719 C 10.953125 14.136719 11.03125 14.054688 11.03125 13.953125 C 11.03125 13.851562 10.953125 13.769531 10.847656 13.769531 C 10.746094 13.769531 10.664062 13.851562 10.664062 13.953125 Z M 10.21875 7.851562 C 10.308594 7.851562 10.378906 7.777344 10.378906 7.6875 C 10.378906 7.597656 10.308594 7.527344 10.21875 7.527344 C 10.125 7.527344 10.054688 7.597656 10.054688 7.6875 C 10.054688 7.777344 10.125 7.851562 10.21875 7.851562 Z M 10.980469 7.21875 C 11.472656 7.21875 11.871094 6.820312 11.871094 6.332031 C 11.871094 5.84375 11.472656 5.445312 10.980469 5.445312 C 10.492188 5.445312 10.09375 5.84375 10.09375 6.332031 C 10.09375 6.820312 10.492188 7.21875 10.980469 7.21875 Z M 11.429688 13.707031 C 11.628906 13.707031 11.789062 13.542969 11.789062 13.339844 C 11.789062 13.136719 11.628906 12.972656 11.429688 12.972656 C 11.234375 12.972656 11.074219 13.136719 11.074219 13.339844 C 11.074219 13.542969 11.234375 13.707031 11.429688 13.707031 Z M 11.421875 12.554688 C 11.421875 12.460938 11.34375 12.382812 11.246094 12.382812 C 11.152344 12.382812 11.074219 12.460938 11.074219 12.554688 C 11.074219 12.648438 11.152344 12.726562 11.246094 12.726562 C 11.34375 12.726562 11.421875 12.648438 11.421875 12.554688 Z M 9.5625 6.953125 C 9.675781 6.953125 9.769531 6.863281 9.769531 6.75 C 9.769531 6.636719 9.675781 6.546875 9.5625 6.546875 C 9.453125 6.546875 9.359375 6.636719 9.359375 6.75 C 9.359375 6.863281 9.449219 6.953125 9.5625 6.953125 Z M 9.339844 5.894531 C 9.25 5.894531 9.175781 5.96875 9.175781 6.058594 C 9.175781 6.148438 9.25 6.21875 9.339844 6.21875 C 9.429688 6.21875 9.503906 6.148438 9.503906 6.058594 C 9.503906 5.96875 9.429688 5.894531 9.339844 5.894531 Z M 9.777344 5.035156 C 9.613281 5.035156 9.484375 5.175781 9.484375 5.34375 C 9.484375 5.511719 9.613281 5.648438 9.777344 5.648438 C 9.941406 5.648438 10.074219 5.511719 10.074219 5.34375 C 10.074219 5.175781 9.941406 5.035156 9.777344 5.035156 Z M 10.175781 4.609375 C 10.085938 4.609375 10.011719 4.683594 10.011719 4.773438 C 10.011719 4.863281 10.085938 4.933594 10.175781 4.933594 C 10.265625 4.933594 10.339844 4.863281 10.339844 4.773438 C 10.339844 4.683594 10.265625 4.609375 10.175781 4.609375 Z M 11.421875 4.078125 C 11.070312 4.078125 10.789062 4.363281 10.789062 4.710938 C 10.789062 5.058594 11.070312 5.34375 11.421875 5.34375 C 11.769531 5.34375 12.054688 5.058594 12.054688 4.710938 C 12.054688 4.363281 11.769531 4.078125 11.421875 4.078125 Z M 11.859375 7.117188 C 11.695312 7.117188 11.5625 7.253906 11.5625 7.425781 C 11.5625 7.59375 11.695312 7.730469 11.859375 7.730469 C 12.023438 7.730469 12.15625 7.59375 12.15625 7.425781 C 12.15625 7.253906 12.023438 7.117188 11.859375 7.117188 Z M 12.582031 7.503906 C 12.671875 7.503906 12.746094 7.433594 12.746094 7.34375 C 12.746094 7.253906 12.671875 7.179688 12.582031 7.179688 C 12.492188 7.179688 12.421875 7.253906 12.421875 7.34375 C 12.421875 7.433594 12.492188 7.503906 12.582031 7.503906 Z M 12.929688 6.730469 C 12.929688 6.492188 12.738281 6.300781 12.5 6.300781 C 12.265625 6.300781 12.074219 6.492188 12.074219 6.730469 C 12.074219 6.964844 12.265625 7.160156 12.5 7.160156 C 12.738281 7.160156 12.929688 6.964844 12.929688 6.730469 Z M 12.410156 4.097656 C 12.246094 4.097656 12.113281 4.238281 12.113281 4.40625 C 12.113281 4.574219 12.246094 4.710938 12.410156 4.710938 C 12.574219 4.710938 12.707031 4.574219 12.707031 4.40625 C 12.707031 4.238281 12.574219 4.097656 12.410156 4.097656 Z M 12.683594 5.113281 C 12.644531 5.101562 12.605469 5.097656 12.5625 5.097656 C 12.292969 5.097656 12.074219 5.316406 12.074219 5.589844 C 12.074219 5.835938 12.253906 6.039062 12.492188 6.074219 C 12.53125 6.082031 12.570312 6.085938 12.613281 6.085938 C 12.882812 6.085938 13.105469 5.867188 13.105469 5.597656 C 13.105469 5.351562 12.921875 5.148438 12.683594 5.113281 Z M 13.011719 4.484375 C 12.921875 4.484375 12.847656 4.558594 12.847656 4.648438 C 12.847656 4.738281 12.921875 4.8125 13.011719 4.8125 C 13.101562 4.8125 13.175781 4.738281 13.175781 4.648438 C 13.175781 4.558594 13.101562 4.484375 13.011719 4.484375 Z M 13.675781 4.832031 C 13.457031 4.832031 13.28125 5.015625 13.28125 5.242188 C 13.28125 5.46875 13.457031 5.648438 13.675781 5.648438 C 13.890625 5.648438 14.070312 5.46875 14.070312 5.242188 C 14.070312 5.015625 13.890625 4.832031 13.675781 4.832031 Z M 13.796875 6.097656 C 13.386719 6.097656 13.050781 6.429688 13.050781 6.84375 C 13.050781 7.253906 13.386719 7.585938 13.796875 7.585938 C 14.207031 7.585938 14.542969 7.253906 14.542969 6.84375 C 14.542969 6.429688 14.207031 6.097656 13.796875 6.097656 Z M 14.132812 8.238281 C 14.222656 8.238281 14.296875 8.167969 14.296875 8.078125 C 14.296875 7.988281 14.222656 7.914062 14.132812 7.914062 C 14.042969 7.914062 13.96875 7.988281 13.96875 8.078125 C 13.96875 8.167969 14.042969 8.238281 14.132812 8.238281 Z M 12.972656 7.527344 C 12.773438 7.527344 12.613281 7.6875 12.613281 7.882812 C 12.613281 8.078125 12.777344 8.234375 12.972656 8.234375 C 13.175781 8.234375 13.335938 8.078125 13.335938 7.882812 C 13.339844 7.6875 13.175781 7.527344 12.972656 7.527344 Z M 13.910156 8.648438 C 13.910156 8.457031 13.757812 8.300781 13.574219 8.300781 C 13.386719 8.300781 13.234375 8.457031 13.234375 8.648438 C 13.234375 8.839844 13.386719 8.996094 13.574219 8.996094 C 13.757812 8.996094 13.910156 8.839844 13.910156 8.648438 Z M 13.378906 9.996094 C 13.378906 9.902344 13.304688 9.832031 13.214844 9.832031 C 13.125 9.832031 13.050781 9.902344 13.050781 9.996094 C 13.050781 10.085938 13.125 10.15625 13.214844 10.15625 C 13.304688 10.15625 13.378906 10.085938 13.378906 9.996094 Z M 12.992188 11.320312 C 12.992188 11.230469 12.917969 11.15625 12.828125 11.15625 C 12.738281 11.15625 12.664062 11.230469 12.664062 11.320312 C 12.664062 11.410156 12.738281 11.484375 12.828125 11.484375 C 12.917969 11.484375 12.992188 11.410156 12.992188 11.320312 Z M 13.175781 10.648438 C 13.175781 10.578125 13.121094 10.523438 13.050781 10.523438 C 12.984375 10.523438 12.929688 10.578125 12.929688 10.648438 C 12.929688 10.714844 12.984375 10.769531 13.050781 10.769531 C 13.121094 10.769531 13.175781 10.714844 13.175781 10.648438 Z M 12.472656 12.65625 C 12.472656 12.488281 12.335938 12.347656 12.164062 12.347656 C 11.992188 12.347656 11.855469 12.484375 11.855469 12.65625 C 11.855469 12.828125 11.992188 12.964844 12.164062 12.964844 C 12.335938 12.964844 12.472656 12.828125 12.472656 12.65625 Z M 12.441406 13.320312 C 12.441406 13.230469 12.367188 13.15625 12.277344 13.15625 C 12.1875 13.15625 12.113281 13.230469 12.113281 13.320312 C 12.113281 13.410156 12.1875 13.484375 12.277344 13.484375 C 12.367188 13.484375 12.441406 13.410156 12.441406 13.320312 Z M 11.949219 15.074219 C 12.054688 15.074219 12.132812 14.992188 12.132812 14.890625 C 12.132812 14.789062 12.054688 14.707031 11.949219 14.707031 C 11.847656 14.707031 11.765625 14.789062 11.765625 14.890625 C 11.765625 14.992188 11.847656 15.074219 11.949219 15.074219 Z M 12.125 14.320312 C 12.289062 14.320312 12.421875 14.179688 12.421875 14.011719 C 12.421875 13.84375 12.289062 13.707031 12.125 13.707031 C 11.960938 13.707031 11.828125 13.84375 11.828125 14.011719 C 11.828125 14.179688 11.960938 14.320312 12.125 14.320312 Z M 10.839844 16.054688 C 11.273438 16.054688 11.625 15.703125 11.625 15.269531 C 11.625 14.835938 11.273438 14.480469 10.839844 14.480469 C 10.40625 14.480469 10.054688 14.835938 10.054688 15.269531 C 10.054688 15.703125 10.402344 16.054688 10.839844 16.054688 Z M 9.878906 15.992188 C 9.941406 15.992188 9.992188 15.941406 9.992188 15.878906 C 9.992188 15.820312 9.941406 15.765625 9.878906 15.765625 C 9.820312 15.765625 9.769531 15.820312 9.769531 15.878906 C 9.769531 15.941406 9.816406 15.992188 9.878906 15.992188 Z M 9.34375 15.441406 C 9.433594 15.449219 9.511719 15.382812 9.523438 15.292969 C 9.53125 15.203125 9.464844 15.125 9.375 15.117188 C 9.285156 15.109375 9.207031 15.175781 9.195312 15.265625 C 9.1875 15.351562 9.253906 15.433594 9.34375 15.441406 Z M 9.34375 15.441406 "/>
</g>
</g>
</svg>
