<?xml version="1.0" encoding="UTF-8"?>
<svg xmlns="http://www.w3.org/2000/svg" xmlns:xlink="http://www.w3.org/1999/xlink" width="10.944552" height="11" viewBox="0 0 10.944552 11" version="1.1">
<g id="surface1">
<path style=" stroke:none;fill-rule:nonzero;fill:rgb(30%,30%,30%);fill-opacity:1;" d="M 3.0625 0.554688 C 3.417969 0.910156 3.417969 1.492188 3.0625 1.847656 C 2.703125 2.203125 2.125 2.203125 1.769531 1.847656 C 1.410156 1.492188 1.410156 0.910156 1.769531 0.554688 C 2.125 0.199219 2.703125 0.199219 3.0625 0.554688 Z M 3.0625 0.554688 "/>
<path style=" stroke:none;fill-rule:nonzero;fill:rgb(30%,30%,30%);fill-opacity:1;" d="M 1.34375 2.996094 L 1.742188 5.175781 L 1.078125 6.328125 C 1.003906 6.453125 1.003906 6.609375 1.074219 6.738281 C 1.089844 6.808594 1.121094 6.875 1.167969 6.925781 L 2.277344 8.152344 C 2.433594 8.324219 2.695312 8.335938 2.867188 8.179688 C 3.039062 8.027344 3.054688 7.761719 2.898438 7.589844 L 1.933594 6.519531 L 2.628906 5.316406 C 2.660156 5.257812 2.679688 5.191406 2.679688 5.121094 L 2.925781 5.070312 L 3.148438 6.375 C 3.160156 6.449219 3.195312 6.519531 3.242188 6.574219 C 3.300781 6.691406 3.40625 6.773438 3.53125 6.796875 L 5.148438 7.125 C 5.375 7.167969 5.597656 7.023438 5.644531 6.796875 C 5.6875 6.570312 5.542969 6.347656 5.316406 6.300781 L 3.9375 6.023438 L 3.699219 4.609375 C 3.691406 4.570312 3.679688 4.53125 3.660156 4.492188 L 3.441406 2.972656 C 4.171875 2.621094 4.679688 1.921875 4.679688 1.144531 C 4.679688 0.808594 4.640625 0.496094 4.566406 0.21875 C 4.519531 0.0585938 4.355469 -0.0351562 4.195312 0.0117188 C 4.035156 0.0546875 3.941406 0.222656 3.984375 0.382812 C 4.046875 0.605469 4.078125 0.863281 4.078125 1.144531 C 4.078125 1.945312 3.292969 2.621094 2.363281 2.621094 C 1.449219 2.621094 0.703125 1.957031 0.703125 1.144531 C 0.703125 0.84375 0.726562 0.605469 0.785156 0.394531 C 0.828125 0.234375 0.734375 0.0664062 0.574219 0.0234375 C 0.414062 -0.0195312 0.246094 0.078125 0.203125 0.238281 C 0.132812 0.5 0.101562 0.789062 0.101562 1.144531 C 0.101562 1.953125 0.605469 2.652344 1.34375 2.996094 Z M 1.34375 2.996094 "/>
<path style=" stroke:none;fill-rule:nonzero;fill:rgb(30%,30%,30%);fill-opacity:1;" d="M 10.808594 9.261719 C 10.667969 9.214844 10.515625 9.1875 10.363281 9.1875 C 9.8125 9.179688 9.472656 9.417969 9.21875 9.671875 C 9.175781 9.707031 9.136719 9.746094 9.101562 9.785156 L 9.03125 9.871094 C 9.027344 9.871094 9.023438 9.875 9.019531 9.878906 C 8.753906 10.171875 8.546875 10.402344 8.066406 10.402344 C 7.609375 10.402344 7.410156 10.175781 7.160156 9.890625 C 6.886719 9.574219 6.542969 9.179688 5.828125 9.1875 C 5.214844 9.195312 4.859375 9.492188 4.585938 9.769531 L 4.292969 10.121094 C 4.132812 10.261719 3.882812 10.394531 3.515625 10.402344 C 3.101562 10.410156 2.878906 10.175781 2.59375 9.882812 C 2.378906 9.65625 2.148438 9.414062 1.816406 9.28125 C 1.652344 9.214844 1.476562 9.179688 1.296875 9.179688 C 0.628906 9.167969 0.277344 9.519531 0 9.820312 L 0 10.664062 C 0.160156 10.539062 0.289062 10.398438 0.40625 10.273438 C 0.671875 9.980469 0.863281 9.761719 1.3125 9.773438 C 1.410156 9.773438 1.507812 9.789062 1.597656 9.824219 C 1.769531 9.898438 1.917969 10.03125 2.09375 10.214844 L 2.09375 10.203125 C 2.121094 10.230469 2.148438 10.257812 2.171875 10.285156 C 2.472656 10.597656 2.84375 10.984375 3.488281 10.984375 C 3.5 10.984375 3.515625 10.984375 3.527344 10.984375 C 4.316406 10.964844 4.742188 10.554688 4.945312 10.257812 C 5.199219 9.980469 5.394531 9.777344 5.828125 9.785156 C 6.183594 9.789062 6.386719 9.984375 6.6875 10.300781 C 6.988281 10.613281 7.359375 11 8.003906 11 C 8.015625 11 8.03125 11 8.042969 11 C 8.867188 10.980469 9.292969 10.535156 9.488281 10.234375 C 9.53125 10.1875 9.570312 10.140625 9.613281 10.097656 C 9.808594 9.917969 10.011719 9.789062 10.347656 9.785156 C 10.351562 9.785156 10.359375 9.785156 10.363281 9.785156 C 10.449219 9.785156 10.539062 9.796875 10.625 9.816406 C 10.738281 9.859375 10.839844 9.925781 10.945312 10.015625 L 10.945312 9.3125 C 10.902344 9.292969 10.855469 9.277344 10.808594 9.261719 Z M 10.808594 9.261719 "/>
<path style=" stroke:none;fill-rule:nonzero;fill:rgb(30%,30%,30%);fill-opacity:1;" d="M 5.34375 0.695312 C 5.1875 0.695312 5.058594 0.816406 5.050781 0.976562 L 5.035156 1.28125 C 5.027344 1.433594 5.140625 1.566406 5.289062 1.582031 C 5.703125 1.636719 6.484375 1.800781 6.835938 2.296875 C 7.234375 2.851562 7.582031 3.4375 7.699219 3.644531 C 7.730469 3.695312 7.773438 3.738281 7.828125 3.761719 L 9.539062 4.5625 C 9.628906 4.605469 9.691406 4.691406 9.707031 4.789062 L 9.792969 5.472656 C 9.804688 5.542969 9.785156 5.613281 9.75 5.671875 C 9.582031 5.925781 9.117188 6.683594 8.984375 7.53125 C 8.957031 7.6875 8.9375 7.867188 8.917969 8.0625 C 8.921875 8.0625 8.921875 8.0625 8.925781 8.0625 C 8.898438 8.171875 8.882812 8.285156 8.878906 8.398438 C 8.878906 8.476562 8.847656 8.550781 8.792969 8.605469 C 8.597656 8.792969 8.390625 8.925781 8.027344 8.925781 C 7.570312 8.925781 7.371094 8.699219 7.121094 8.414062 C 6.847656 8.097656 6.503906 7.703125 5.789062 7.710938 C 5.183594 7.71875 4.832031 8.007812 4.558594 8.285156 C 4.550781 8.289062 4.546875 8.296875 4.539062 8.304688 L 4.4375 8.425781 C 4.421875 8.441406 4.40625 8.457031 4.394531 8.476562 L 4.394531 8.480469 L 4.273438 8.625 C 4.261719 8.636719 4.25 8.648438 4.238281 8.660156 C 4.074219 8.792969 3.832031 8.917969 3.476562 8.925781 C 3.0625 8.9375 2.839844 8.703125 2.558594 8.40625 C 2.417969 8.261719 2.269531 8.105469 2.09375 7.980469 L 2.09375 7.960938 C 1.882812 7.816406 1.628906 7.710938 1.296875 7.707031 C 1.117188 7.699219 0.941406 7.726562 0.769531 7.785156 C 0.421875 7.898438 0.191406 8.125 0 8.332031 L 0 9.164062 C 0.152344 9.046875 0.273438 8.914062 0.386719 8.789062 C 0.574219 8.582031 0.722656 8.414062 0.953125 8.335938 C 1.054688 8.304688 1.164062 8.292969 1.273438 8.296875 C 1.628906 8.300781 1.832031 8.492188 2.136719 8.808594 C 2.433594 9.121094 2.808594 9.507812 3.449219 9.507812 C 3.464844 9.507812 3.476562 9.507812 3.492188 9.507812 C 4.285156 9.488281 4.710938 9.074219 4.914062 8.777344 C 4.921875 8.765625 4.929688 8.753906 4.9375 8.742188 C 5.035156 8.636719 5.128906 8.542969 5.230469 8.46875 C 5.242188 8.460938 5.25 8.453125 5.261719 8.449219 C 5.261719 8.445312 5.261719 8.445312 5.261719 8.445312 C 5.277344 8.4375 5.292969 8.425781 5.308594 8.417969 C 5.3125 8.417969 5.3125 8.417969 5.3125 8.417969 C 5.324219 8.410156 5.332031 8.40625 5.34375 8.398438 C 5.464844 8.339844 5.601562 8.308594 5.78125 8.3125 C 6.136719 8.316406 6.339844 8.507812 6.644531 8.824219 C 6.941406 9.136719 7.316406 9.527344 7.957031 9.527344 C 7.972656 9.527344 7.984375 9.527344 7.996094 9.527344 C 8.785156 9.507812 9.210938 9.097656 9.414062 8.800781 C 9.421875 8.789062 9.429688 8.777344 9.441406 8.769531 C 9.503906 8.695312 9.566406 8.628906 9.632812 8.566406 C 9.808594 8.417969 10.003906 8.316406 10.304688 8.3125 C 10.308594 8.3125 10.3125 8.3125 10.316406 8.3125 C 10.421875 8.308594 10.523438 8.324219 10.621094 8.355469 C 10.628906 8.359375 10.640625 8.363281 10.652344 8.367188 C 10.753906 8.414062 10.847656 8.484375 10.945312 8.570312 L 10.945312 0.75 Z M 5.34375 0.695312 "/>
</g>
</svg>
