<?xml version="1.0" encoding="UTF-8"?>
<svg xmlns="http://www.w3.org/2000/svg" xmlns:xlink="http://www.w3.org/1999/xlink" width="11" height="11" viewBox="0 0 11 11" version="1.1">
<g id="surface1">
<path style=" stroke:none;fill-rule:nonzero;fill:rgb(30%,30%,30%);fill-opacity:1;" d="M 4.933594 1.0625 C 4.933594 1.546875 4.679688 1.9375 4.367188 1.9375 C 4.050781 1.9375 3.796875 1.546875 3.796875 1.0625 C 3.796875 0.578125 4.050781 0.183594 4.367188 0.183594 C 4.679688 0.183594 4.933594 0.578125 4.933594 1.0625 Z M 3.078125 0.554688 C 2.878906 0.578125 2.746094 0.859375 2.785156 1.179688 C 2.824219 1.503906 3.015625 1.746094 3.214844 1.722656 C 3.414062 1.699219 3.546875 1.421875 3.507812 1.097656 C 3.46875 0.777344 3.277344 0.53125 3.078125 0.554688 Z M 2.253906 0.980469 C 2.082031 1.015625 1.988281 1.265625 2.042969 1.535156 C 2.101562 1.804688 2.289062 1.992188 2.460938 1.953125 C 2.632812 1.917969 2.726562 1.671875 2.667969 1.402344 C 2.609375 1.132812 2.425781 0.945312 2.253906 0.980469 Z M 1.621094 1.554688 C 1.464844 1.585938 1.382812 1.816406 1.4375 2.070312 C 1.492188 2.320312 1.660156 2.5 1.8125 2.464844 C 1.96875 2.433594 2.046875 2.203125 1.996094 1.953125 C 1.941406 1.699219 1.773438 1.519531 1.621094 1.554688 Z M 1.113281 2.347656 C 0.988281 2.394531 0.953125 2.597656 1.03125 2.804688 C 1.113281 3.007812 1.277344 3.136719 1.402344 3.085938 C 1.527344 3.039062 1.5625 2.835938 1.480469 2.628906 C 1.402344 2.425781 1.238281 2.296875 1.113281 2.347656 Z M 6.125 1.628906 C 6.125 2.113281 6.378906 2.507812 6.695312 2.507812 C 7.007812 2.507812 7.261719 2.113281 7.261719 1.628906 C 7.261719 1.144531 7.007812 0.75 6.695312 0.75 C 6.378906 0.75 6.125 1.144531 6.125 1.628906 Z M 7.550781 1.664062 C 7.515625 1.988281 7.644531 2.265625 7.84375 2.289062 C 8.046875 2.3125 8.238281 2.070312 8.273438 1.746094 C 8.308594 1.425781 8.175781 1.144531 7.976562 1.125 C 7.777344 1.101562 7.585938 1.34375 7.550781 1.664062 Z M 8.390625 1.96875 C 8.332031 2.238281 8.425781 2.484375 8.597656 2.523438 C 8.769531 2.558594 8.957031 2.371094 9.011719 2.101562 C 9.070312 1.832031 8.976562 1.585938 8.804688 1.546875 C 8.632812 1.511719 8.449219 1.699219 8.390625 1.96875 Z M 9.0625 2.519531 C 9.011719 2.769531 9.09375 3 9.246094 3.03125 C 9.398438 3.066406 9.566406 2.886719 9.621094 2.636719 C 9.671875 2.382812 9.59375 2.152344 9.4375 2.121094 C 9.285156 2.089844 9.117188 2.265625 9.0625 2.519531 Z M 9.578125 3.199219 C 9.496094 3.402344 9.53125 3.609375 9.65625 3.65625 C 9.78125 3.703125 9.945312 3.574219 10.027344 3.371094 C 10.105469 3.167969 10.070312 2.960938 9.945312 2.914062 C 9.820312 2.867188 9.65625 2.992188 9.578125 3.199219 Z M 4.101562 10.003906 C 3.523438 10.003906 2.933594 9.390625 2.835938 8.582031 C 2.835938 8.578125 2.835938 8.578125 2.835938 8.578125 C 2.761719 8.441406 2.550781 6.722656 2.226562 6.109375 C 1.804688 5.304688 1.507812 4.3125 1.519531 4.316406 C 1.484375 4.160156 1.460938 3.992188 1.460938 3.820312 C 1.460938 2.824219 2.300781 1.953125 3.296875 1.953125 C 4.292969 1.953125 5.132812 2.554688 5.105469 3.550781 C 5.09375 4.050781 4.207031 4.738281 3.96875 5.371094 C 3.953125 5.414062 3.9375 5.449219 3.917969 5.480469 C 3.839844 5.800781 3.84375 6.238281 3.929688 6.53125 C 4.011719 6.820312 4.351562 7.183594 4.5 7.332031 C 4.914062 7.65625 5.207031 8.371094 5.222656 8.828125 C 5.25 9.53125 4.734375 10.003906 4.101562 10.003906 Z M 4.710938 8.007812 C 4.714844 8.066406 4.765625 8.109375 4.824219 8.105469 C 4.882812 8.097656 4.925781 8.046875 4.917969 7.988281 C 4.914062 7.929688 4.863281 7.886719 4.804688 7.894531 C 4.746094 7.898438 4.703125 7.949219 4.710938 8.007812 Z M 4.570312 8.15625 C 4.464844 8.15625 4.378906 8.246094 4.378906 8.355469 C 4.378906 8.464844 4.464844 8.550781 4.570312 8.550781 C 4.675781 8.550781 4.761719 8.464844 4.761719 8.355469 C 4.761719 8.246094 4.675781 8.15625 4.570312 8.15625 Z M 3.878906 7.773438 C 3.878906 7.964844 4.03125 8.117188 4.21875 8.117188 C 4.410156 8.117188 4.5625 7.964844 4.5625 7.773438 C 4.5625 7.585938 4.410156 7.429688 4.21875 7.429688 C 4.03125 7.429688 3.878906 7.585938 3.878906 7.773438 Z M 4.074219 8.355469 C 4.007812 8.355469 3.957031 8.40625 3.957031 8.472656 C 3.957031 8.539062 4.007812 8.59375 4.074219 8.59375 C 4.140625 8.59375 4.195312 8.539062 4.195312 8.472656 C 4.195312 8.40625 4.140625 8.355469 4.074219 8.355469 Z M 4.457031 4.394531 C 4.457031 4.335938 4.410156 4.289062 4.351562 4.289062 C 4.292969 4.289062 4.246094 4.335938 4.246094 4.394531 C 4.246094 4.453125 4.292969 4.5 4.351562 4.5 C 4.410156 4.5 4.457031 4.453125 4.457031 4.394531 Z M 4.550781 3.582031 C 4.550781 3.265625 4.292969 3.007812 3.976562 3.007812 C 3.660156 3.007812 3.402344 3.265625 3.402344 3.582031 C 3.402344 3.898438 3.660156 4.15625 3.976562 4.15625 C 4.292969 4.15625 4.550781 3.898438 4.550781 3.582031 Z M 3.8125 8.078125 C 3.8125 7.945312 3.707031 7.839844 3.582031 7.839844 C 3.453125 7.839844 3.347656 7.945312 3.347656 8.078125 C 3.347656 8.210938 3.453125 8.316406 3.582031 8.316406 C 3.707031 8.316406 3.8125 8.210938 3.8125 8.078125 Z M 3.71875 8.511719 C 3.675781 8.511719 3.640625 8.546875 3.640625 8.585938 C 3.640625 8.625 3.675781 8.65625 3.71875 8.65625 C 3.761719 8.65625 3.796875 8.625 3.796875 8.585938 C 3.796875 8.546875 3.761719 8.511719 3.71875 8.511719 Z M 3.6875 7.65625 C 3.746094 7.65625 3.796875 7.605469 3.796875 7.542969 C 3.796875 7.480469 3.746094 7.429688 3.6875 7.429688 C 3.625 7.429688 3.574219 7.480469 3.574219 7.542969 C 3.574219 7.605469 3.625 7.65625 3.6875 7.65625 Z M 4.90625 3.789062 C 4.90625 3.714844 4.847656 3.65625 4.773438 3.65625 C 4.703125 3.65625 4.644531 3.714844 4.644531 3.789062 C 4.644531 3.859375 4.703125 3.917969 4.773438 3.917969 C 4.847656 3.917969 4.90625 3.859375 4.90625 3.789062 Z M 4.816406 3.339844 C 4.816406 3.398438 4.863281 3.445312 4.921875 3.445312 C 4.980469 3.445312 5.027344 3.398438 5.027344 3.339844 C 5.027344 3.28125 4.980469 3.234375 4.921875 3.234375 C 4.863281 3.234375 4.816406 3.28125 4.816406 3.339844 Z M 4.445312 2.875 C 4.445312 2.984375 4.53125 3.074219 4.636719 3.074219 C 4.742188 3.074219 4.828125 2.984375 4.828125 2.875 C 4.828125 2.769531 4.742188 2.679688 4.636719 2.679688 C 4.53125 2.679688 4.445312 2.769531 4.445312 2.875 Z M 4.273438 2.507812 C 4.273438 2.566406 4.320312 2.613281 4.378906 2.613281 C 4.4375 2.613281 4.484375 2.566406 4.484375 2.507812 C 4.484375 2.449219 4.4375 2.402344 4.378906 2.402344 C 4.320312 2.402344 4.273438 2.449219 4.273438 2.507812 Z M 3.308594 2.519531 C 3.308594 2.746094 3.492188 2.929688 3.71875 2.929688 C 3.945312 2.929688 4.128906 2.746094 4.128906 2.519531 C 4.128906 2.292969 3.945312 2.109375 3.71875 2.109375 C 3.492188 2.109375 3.308594 2.292969 3.308594 2.519531 Z M 3.164062 4.261719 C 3.164062 4.371094 3.25 4.460938 3.355469 4.460938 C 3.460938 4.460938 3.546875 4.371094 3.546875 4.261719 C 3.546875 4.152344 3.460938 4.066406 3.355469 4.066406 C 3.25 4.066406 3.164062 4.152344 3.164062 4.261719 Z M 2.925781 4.171875 C 2.925781 4.113281 2.878906 4.066406 2.820312 4.066406 C 2.761719 4.066406 2.714844 4.113281 2.714844 4.171875 C 2.714844 4.226562 2.761719 4.277344 2.820312 4.277344 C 2.878906 4.277344 2.925781 4.226562 2.925781 4.171875 Z M 2.820312 4.40625 C 2.761719 4.40625 2.714844 4.453125 2.714844 4.511719 C 2.714844 4.570312 2.761719 4.617188 2.820312 4.617188 C 2.878906 4.617188 2.925781 4.570312 2.925781 4.511719 C 2.925781 4.453125 2.878906 4.40625 2.820312 4.40625 Z M 2.964844 3.90625 C 3.121094 3.90625 3.242188 3.78125 3.242188 3.628906 C 3.242188 3.476562 3.121094 3.351562 2.964844 3.351562 C 2.8125 3.351562 2.691406 3.476562 2.691406 3.628906 C 2.691406 3.78125 2.8125 3.90625 2.964844 3.90625 Z M 2.808594 2.296875 C 2.808594 2.40625 2.894531 2.492188 3 2.492188 C 3.105469 2.492188 3.191406 2.40625 3.191406 2.296875 C 3.191406 2.1875 3.105469 2.097656 3 2.097656 C 2.894531 2.097656 2.808594 2.1875 2.808594 2.296875 Z M 2.589844 2.921875 C 2.589844 3.097656 2.730469 3.238281 2.90625 3.238281 C 2.933594 3.238281 2.960938 3.234375 2.988281 3.230469 C 3.140625 3.207031 3.257812 3.074219 3.257812 2.917969 C 3.257812 2.742188 3.113281 2.597656 2.941406 2.597656 C 2.914062 2.597656 2.886719 2.601562 2.859375 2.609375 C 2.707031 2.632812 2.589844 2.761719 2.589844 2.921875 Z M 2.4375 2.519531 C 2.4375 2.578125 2.484375 2.625 2.542969 2.625 C 2.601562 2.625 2.648438 2.578125 2.648438 2.519531 C 2.648438 2.460938 2.601562 2.414062 2.542969 2.414062 C 2.484375 2.414062 2.4375 2.460938 2.4375 2.519531 Z M 1.898438 2.929688 C 1.898438 3.074219 2.015625 3.191406 2.15625 3.191406 C 2.296875 3.191406 2.410156 3.074219 2.410156 2.929688 C 2.410156 2.78125 2.296875 2.664062 2.15625 2.664062 C 2.015625 2.664062 1.898438 2.78125 1.898438 2.929688 Z M 1.621094 3.765625 C 1.621094 4.035156 1.835938 4.25 2.101562 4.25 C 2.367188 4.25 2.582031 4.035156 2.582031 3.765625 C 2.582031 3.5 2.367188 3.285156 2.101562 3.285156 C 1.835938 3.285156 1.621094 3.5 1.621094 3.765625 Z M 1.910156 4.578125 C 1.910156 4.519531 1.863281 4.472656 1.804688 4.472656 C 1.746094 4.472656 1.699219 4.519531 1.699219 4.578125 C 1.699219 4.636719 1.746094 4.683594 1.804688 4.683594 C 1.863281 4.683594 1.910156 4.636719 1.910156 4.578125 Z M 2.03125 4.699219 C 2.03125 4.851562 2.15625 4.972656 2.3125 4.972656 C 2.46875 4.972656 2.597656 4.851562 2.597656 4.699219 C 2.597656 4.546875 2.46875 4.421875 2.3125 4.421875 C 2.15625 4.421875 2.03125 4.546875 2.03125 4.699219 Z M 2.3125 5.625 C 2.433594 5.625 2.53125 5.523438 2.53125 5.398438 C 2.53125 5.273438 2.433594 5.171875 2.3125 5.171875 C 2.195312 5.171875 2.09375 5.273438 2.09375 5.398438 C 2.09375 5.523438 2.191406 5.625 2.3125 5.625 Z M 2.414062 5.992188 C 2.46875 5.992188 2.519531 5.945312 2.519531 5.886719 C 2.519531 5.828125 2.46875 5.78125 2.414062 5.78125 C 2.355469 5.78125 2.308594 5.828125 2.308594 5.886719 C 2.308594 5.945312 2.355469 5.992188 2.414062 5.992188 Z M 2.519531 6.386719 C 2.5625 6.386719 2.597656 6.351562 2.597656 6.308594 C 2.597656 6.265625 2.5625 6.230469 2.519531 6.230469 C 2.472656 6.230469 2.4375 6.265625 2.4375 6.308594 C 2.4375 6.351562 2.472656 6.386719 2.519531 6.386719 Z M 2.742188 6.996094 C 2.851562 6.996094 2.941406 6.902344 2.941406 6.789062 C 2.941406 6.675781 2.851562 6.585938 2.742188 6.585938 C 2.632812 6.585938 2.542969 6.675781 2.542969 6.789062 C 2.542969 6.902344 2.632812 6.996094 2.742188 6.996094 Z M 3.027344 7.78125 C 3.179688 7.78125 3.304688 7.65625 3.304688 7.503906 C 3.304688 7.351562 3.179688 7.226562 3.027344 7.226562 C 2.875 7.226562 2.75 7.351562 2.75 7.503906 C 2.75 7.65625 2.871094 7.78125 3.027344 7.78125 Z M 3.085938 8.15625 C 3.144531 8.15625 3.191406 8.109375 3.191406 8.050781 C 3.191406 7.992188 3.144531 7.945312 3.085938 7.945312 C 3.027344 7.945312 2.980469 7.992188 2.980469 8.050781 C 2.980469 8.109375 3.027344 8.15625 3.085938 8.15625 Z M 3.347656 9.054688 C 3.347656 8.988281 3.296875 8.933594 3.230469 8.933594 C 3.164062 8.933594 3.113281 8.988281 3.113281 9.054688 C 3.113281 9.121094 3.164062 9.171875 3.230469 9.171875 C 3.296875 9.171875 3.347656 9.121094 3.347656 9.054688 Z M 3.429688 8.527344 C 3.429688 8.417969 3.34375 8.328125 3.238281 8.328125 C 3.132812 8.328125 3.046875 8.417969 3.046875 8.527344 C 3.046875 8.636719 3.132812 8.722656 3.238281 8.722656 C 3.34375 8.722656 3.429688 8.636719 3.429688 8.527344 Z M 4.445312 9.257812 C 4.445312 8.976562 4.21875 8.75 3.9375 8.75 C 3.65625 8.75 3.429688 8.976562 3.429688 9.257812 C 3.429688 9.539062 3.65625 9.765625 3.9375 9.765625 C 4.21875 9.765625 4.445312 9.539062 4.445312 9.257812 Z M 4.644531 9.695312 C 4.644531 9.65625 4.609375 9.621094 4.570312 9.621094 C 4.53125 9.621094 4.496094 9.65625 4.496094 9.695312 C 4.496094 9.734375 4.53125 9.765625 4.570312 9.765625 C 4.609375 9.765625 4.644531 9.734375 4.644531 9.695312 Z M 4.742188 9.082031 C 4.847656 9.082031 4.933594 8.992188 4.933594 8.882812 C 4.933594 8.773438 4.847656 8.683594 4.742188 8.683594 C 4.636719 8.683594 4.550781 8.773438 4.550781 8.882812 C 4.550781 8.992188 4.636719 9.082031 4.742188 9.082031 Z M 5.011719 9.296875 C 5.007812 9.238281 4.957031 9.195312 4.898438 9.199219 C 4.839844 9.203125 4.796875 9.253906 4.800781 9.3125 C 4.808594 9.371094 4.859375 9.414062 4.914062 9.410156 C 4.972656 9.40625 5.015625 9.351562 5.011719 9.296875 Z M 5.738281 9.410156 C 5.757812 8.953125 6.050781 8.238281 6.464844 7.914062 C 6.613281 7.765625 6.949219 7.402344 7.035156 7.113281 C 7.117188 6.820312 7.125 6.382812 7.046875 6.0625 C 7.027344 6.03125 7.011719 5.996094 6.992188 5.953125 C 6.757812 5.320312 5.871094 4.632812 5.859375 4.128906 C 5.832031 3.136719 6.671875 2.535156 7.667969 2.535156 C 8.664062 2.535156 9.5 3.40625 9.5 4.402344 C 9.5 4.574219 9.480469 4.738281 9.441406 4.894531 C 9.453125 4.894531 9.160156 5.886719 8.734375 6.691406 C 8.414062 7.304688 8.199219 9.023438 8.128906 9.160156 C 8.027344 9.96875 7.441406 10.585938 6.863281 10.585938 C 6.226562 10.585938 5.714844 10.109375 5.738281 9.410156 Z M 6.039062 8.789062 C 5.980469 8.785156 5.929688 8.828125 5.925781 8.886719 C 5.917969 8.945312 5.960938 8.996094 6.019531 9 C 6.078125 9.003906 6.128906 8.960938 6.132812 8.90625 C 6.140625 8.847656 6.097656 8.796875 6.039062 8.789062 Z M 6.226562 8.976562 C 6.226562 9.082031 6.3125 9.171875 6.417969 9.171875 C 6.523438 9.171875 6.609375 9.082031 6.609375 8.976562 C 6.609375 8.867188 6.523438 8.777344 6.417969 8.777344 C 6.3125 8.777344 6.226562 8.867188 6.226562 8.976562 Z M 5.925781 9.488281 C 5.925781 9.597656 6.011719 9.6875 6.117188 9.6875 C 6.222656 9.6875 6.308594 9.597656 6.308594 9.488281 C 6.308594 9.378906 6.222656 9.292969 6.117188 9.292969 C 6.011719 9.292969 5.925781 9.378906 5.925781 9.488281 Z M 6.675781 7.945312 C 6.488281 7.945312 6.332031 8.097656 6.332031 8.289062 C 6.332031 8.476562 6.488281 8.632812 6.675781 8.632812 C 6.867188 8.632812 7.019531 8.476562 7.019531 8.289062 C 7.019531 8.097656 6.867188 7.945312 6.675781 7.945312 Z M 6.902344 9.027344 C 6.902344 9.09375 6.953125 9.148438 7.019531 9.148438 C 7.085938 9.148438 7.140625 9.09375 7.140625 9.027344 C 7.140625 8.960938 7.085938 8.910156 7.019531 8.910156 C 6.953125 8.910156 6.902344 8.960938 6.902344 9.027344 Z M 6.609375 5.082031 C 6.667969 5.082031 6.714844 5.035156 6.714844 4.976562 C 6.714844 4.917969 6.667969 4.871094 6.609375 4.871094 C 6.550781 4.871094 6.503906 4.917969 6.503906 4.976562 C 6.503906 5.035156 6.550781 5.082031 6.609375 5.082031 Z M 7.105469 4.671875 C 7.421875 4.671875 7.679688 4.414062 7.679688 4.097656 C 7.679688 3.78125 7.421875 3.523438 7.105469 3.523438 C 6.789062 3.523438 6.53125 3.78125 6.53125 4.097656 C 6.53125 4.414062 6.789062 4.671875 7.105469 4.671875 Z M 7.394531 8.871094 C 7.523438 8.871094 7.628906 8.765625 7.628906 8.632812 C 7.628906 8.5 7.523438 8.394531 7.394531 8.394531 C 7.269531 8.394531 7.164062 8.5 7.164062 8.632812 C 7.164062 8.765625 7.269531 8.871094 7.394531 8.871094 Z M 7.390625 8.125 C 7.390625 8.0625 7.339844 8.011719 7.277344 8.011719 C 7.214844 8.011719 7.164062 8.0625 7.164062 8.125 C 7.164062 8.183594 7.214844 8.234375 7.277344 8.234375 C 7.339844 8.234375 7.390625 8.183594 7.390625 8.125 Z M 6.1875 4.5 C 6.261719 4.5 6.320312 4.441406 6.320312 4.367188 C 6.320312 4.296875 6.261719 4.234375 6.1875 4.234375 C 6.117188 4.234375 6.054688 4.296875 6.054688 4.367188 C 6.054688 4.441406 6.113281 4.5 6.1875 4.5 Z M 6.042969 3.8125 C 5.984375 3.8125 5.9375 3.859375 5.9375 3.917969 C 5.9375 3.976562 5.984375 4.023438 6.042969 4.023438 C 6.101562 4.023438 6.148438 3.976562 6.148438 3.917969 C 6.148438 3.859375 6.101562 3.8125 6.042969 3.8125 Z M 6.328125 3.257812 C 6.222656 3.257812 6.136719 3.347656 6.136719 3.457031 C 6.136719 3.566406 6.222656 3.65625 6.328125 3.65625 C 6.433594 3.65625 6.519531 3.566406 6.519531 3.457031 C 6.519531 3.347656 6.433594 3.257812 6.328125 3.257812 Z M 6.585938 2.980469 C 6.527344 2.980469 6.480469 3.03125 6.480469 3.085938 C 6.480469 3.144531 6.527344 3.191406 6.585938 3.191406 C 6.644531 3.191406 6.691406 3.144531 6.691406 3.085938 C 6.691406 3.03125 6.644531 2.980469 6.585938 2.980469 Z M 7.390625 2.640625 C 7.164062 2.640625 6.980469 2.824219 6.980469 3.046875 C 6.980469 3.273438 7.164062 3.457031 7.390625 3.457031 C 7.617188 3.457031 7.800781 3.273438 7.800781 3.046875 C 7.800781 2.824219 7.617188 2.640625 7.390625 2.640625 Z M 7.671875 4.605469 C 7.566406 4.605469 7.480469 4.695312 7.480469 4.804688 C 7.480469 4.914062 7.566406 5 7.671875 5 C 7.777344 5 7.863281 4.914062 7.863281 4.804688 C 7.863281 4.695312 7.777344 4.605469 7.671875 4.605469 Z M 8.140625 4.855469 C 8.199219 4.855469 8.246094 4.808594 8.246094 4.75 C 8.246094 4.691406 8.199219 4.644531 8.140625 4.644531 C 8.082031 4.644531 8.035156 4.691406 8.035156 4.75 C 8.035156 4.808594 8.082031 4.855469 8.140625 4.855469 Z M 8.367188 4.355469 C 8.367188 4.203125 8.242188 4.078125 8.089844 4.078125 C 7.9375 4.078125 7.8125 4.203125 7.8125 4.355469 C 7.8125 4.507812 7.9375 4.632812 8.089844 4.632812 C 8.242188 4.632812 8.367188 4.507812 8.367188 4.355469 Z M 8.03125 2.652344 C 7.925781 2.652344 7.839844 2.742188 7.839844 2.851562 C 7.839844 2.960938 7.925781 3.046875 8.03125 3.046875 C 8.136719 3.046875 8.222656 2.960938 8.222656 2.851562 C 8.222656 2.742188 8.136719 2.652344 8.03125 2.652344 Z M 8.207031 3.308594 C 8.183594 3.300781 8.15625 3.300781 8.128906 3.300781 C 7.953125 3.300781 7.8125 3.441406 7.8125 3.617188 C 7.8125 3.773438 7.929688 3.90625 8.082031 3.929688 C 8.109375 3.9375 8.132812 3.9375 8.160156 3.9375 C 8.335938 3.9375 8.480469 3.796875 8.480469 3.621094 C 8.480469 3.460938 8.359375 3.332031 8.207031 3.308594 Z M 8.417969 2.902344 C 8.359375 2.902344 8.3125 2.949219 8.3125 3.007812 C 8.3125 3.066406 8.359375 3.113281 8.417969 3.113281 C 8.476562 3.113281 8.523438 3.066406 8.523438 3.007812 C 8.523438 2.949219 8.476562 2.902344 8.417969 2.902344 Z M 8.847656 3.128906 C 8.707031 3.128906 8.59375 3.246094 8.59375 3.390625 C 8.59375 3.539062 8.707031 3.65625 8.847656 3.65625 C 8.988281 3.65625 9.105469 3.539062 9.105469 3.390625 C 9.105469 3.246094 8.988281 3.128906 8.847656 3.128906 Z M 8.925781 3.945312 C 8.660156 3.945312 8.445312 4.160156 8.445312 4.425781 C 8.445312 4.695312 8.660156 4.910156 8.925781 4.910156 C 9.195312 4.910156 9.410156 4.695312 9.410156 4.425781 C 9.410156 4.160156 9.191406 3.945312 8.925781 3.945312 Z M 9.144531 5.332031 C 9.203125 5.332031 9.25 5.285156 9.25 5.226562 C 9.25 5.167969 9.203125 5.121094 9.144531 5.121094 C 9.085938 5.121094 9.039062 5.167969 9.039062 5.226562 C 9.039062 5.285156 9.085938 5.332031 9.144531 5.332031 Z M 8.394531 4.871094 C 8.265625 4.871094 8.160156 4.972656 8.160156 5.097656 C 8.160156 5.226562 8.265625 5.328125 8.394531 5.328125 C 8.523438 5.328125 8.628906 5.226562 8.628906 5.097656 C 8.628906 4.972656 8.523438 4.871094 8.394531 4.871094 Z M 9 5.59375 C 9 5.472656 8.902344 5.371094 8.78125 5.371094 C 8.664062 5.371094 8.566406 5.472656 8.566406 5.59375 C 8.566406 5.71875 8.664062 5.820312 8.78125 5.820312 C 8.902344 5.820312 9 5.71875 9 5.59375 Z M 8.65625 6.46875 C 8.65625 6.410156 8.609375 6.359375 8.550781 6.359375 C 8.492188 6.359375 8.445312 6.410156 8.445312 6.46875 C 8.445312 6.523438 8.492188 6.574219 8.550781 6.574219 C 8.609375 6.574219 8.65625 6.523438 8.65625 6.46875 Z M 8.40625 7.324219 C 8.40625 7.265625 8.359375 7.21875 8.300781 7.21875 C 8.242188 7.21875 8.195312 7.265625 8.195312 7.324219 C 8.195312 7.382812 8.242188 7.429688 8.300781 7.429688 C 8.359375 7.429688 8.40625 7.382812 8.40625 7.324219 Z M 8.523438 6.890625 C 8.523438 6.84375 8.488281 6.808594 8.445312 6.808594 C 8.402344 6.808594 8.367188 6.84375 8.367188 6.890625 C 8.367188 6.933594 8.402344 6.96875 8.445312 6.96875 C 8.488281 6.96875 8.523438 6.933594 8.523438 6.890625 Z M 8.070312 8.191406 C 8.070312 8.078125 7.980469 7.988281 7.871094 7.988281 C 7.761719 7.988281 7.671875 8.078125 7.671875 8.191406 C 7.671875 8.300781 7.757812 8.390625 7.871094 8.390625 C 7.980469 8.390625 8.070312 8.300781 8.070312 8.191406 Z M 8.050781 8.617188 C 8.050781 8.558594 8.003906 8.511719 7.945312 8.511719 C 7.886719 8.511719 7.839844 8.558594 7.839844 8.617188 C 7.839844 8.675781 7.886719 8.722656 7.945312 8.722656 C 8.003906 8.722656 8.050781 8.675781 8.050781 8.617188 Z M 7.734375 9.753906 C 7.800781 9.753906 7.851562 9.699219 7.851562 9.636719 C 7.851562 9.570312 7.800781 9.515625 7.734375 9.515625 C 7.667969 9.515625 7.613281 9.570312 7.613281 9.636719 C 7.613281 9.699219 7.667969 9.753906 7.734375 9.753906 Z M 7.84375 9.265625 C 7.949219 9.265625 8.035156 9.175781 8.035156 9.066406 C 8.035156 8.957031 7.949219 8.871094 7.84375 8.871094 C 7.738281 8.871094 7.652344 8.957031 7.652344 9.066406 C 7.652344 9.175781 7.738281 9.265625 7.84375 9.265625 Z M 7.011719 10.386719 C 7.292969 10.386719 7.523438 10.160156 7.523438 9.878906 C 7.523438 9.597656 7.292969 9.371094 7.011719 9.371094 C 6.734375 9.371094 6.503906 9.597656 6.503906 9.878906 C 6.503906 10.160156 6.730469 10.386719 7.011719 10.386719 Z M 6.394531 10.347656 C 6.433594 10.347656 6.464844 10.316406 6.464844 10.273438 C 6.464844 10.234375 6.433594 10.203125 6.394531 10.203125 C 6.355469 10.203125 6.320312 10.234375 6.320312 10.273438 C 6.320312 10.316406 6.351562 10.347656 6.394531 10.347656 Z M 6.046875 9.992188 C 6.105469 9.996094 6.15625 9.953125 6.160156 9.894531 C 6.167969 9.835938 6.125 9.785156 6.066406 9.78125 C 6.007812 9.777344 5.957031 9.820312 5.949219 9.875 C 5.945312 9.933594 5.988281 9.984375 6.046875 9.992188 Z M 6.046875 9.992188 "/>
</g>
</svg>
