<?xml version="1.0" encoding="UTF-8" standalone="no"?>
<!-- Created with Inkscape (http://www.inkscape.org/) -->

<svg
   xmlns:dc="http://purl.org/dc/elements/1.1/"
   xmlns:cc="http://creativecommons.org/ns#"
   xmlns:rdf="http://www.w3.org/1999/02/22-rdf-syntax-ns#"
   xmlns:svg="http://www.w3.org/2000/svg"
   xmlns="http://www.w3.org/2000/svg"
   xmlns:xlink="http://www.w3.org/1999/xlink"
   xmlns:sodipodi="http://sodipodi.sourceforge.net/DTD/sodipodi-0.dtd"
   xmlns:inkscape="http://www.inkscape.org/namespaces/inkscape"
   width="30px"
   height="30px"
   version="1.1"
   id="svg8"
   inkscape:version="0.92.4 5da689c313, 2019-01-14"
   sodipodi:docname="container.svg">
  <defs
     id="defs2" />
  <sodipodi:namedview
     id="base"
     pagecolor="#ffffff"
     bordercolor="#666666"
     borderopacity="1.0"
     inkscape:pageopacity="0.0"
     inkscape:pageshadow="2"
     inkscape:zoom="13.049334"
     inkscape:cx="18.679046"
     inkscape:cy="12.165829"
     inkscape:document-units="px"
     inkscape:current-layer="layer1"
     showgrid="false"
     inkscape:snap-page="false"
     units="px"
     inkscape:window-width="1884"
     inkscape:window-height="1061"
     inkscape:window-x="0"
     inkscape:window-y="0"
     inkscape:window-maximized="1"
     fit-margin-top="0"
     fit-margin-left="0"
     fit-margin-right="0"
     fit-margin-bottom="0" />
  <metadata
     id="metadata5">
    <rdf:RDF>
      <cc:Work
         rdf:about="">
        <dc:format>image/svg+xml</dc:format>
        <dc:type
           rdf:resource="http://purl.org/dc/dcmitype/StillImage" />
        <dc:title></dc:title>
      </cc:Work>
    </rdf:RDF>
  </metadata>
    <circle
       style="color:#000000;clip-rule:nonzero;display:inline;overflow:visible;visibility:visible;opacity:1;isolation:auto;mix-blend-mode:normal;color-interpolation:sRGB;color-interpolation-filters:linearRGB;solid-color:#000000;solid-opacity:1;vector-effect:none;fill:#ffffff;fill-opacity:1;fill-rule:evenodd;stroke:rgba(255, 255, 255, 1);stroke-width:1;stroke-linecap:butt;stroke-linejoin:miter;stroke-miterlimit:4;stroke-dasharray:none;stroke-dashoffset:0;stroke-opacity:1;marker:none;color-rendering:auto;image-rendering:auto;shape-rendering:auto;text-rendering:auto;enable-background:accumulate"
       id="path815"
       cx="15"
       cy="15"
       r="14.5" />
<g transform="translate(6,6)"><g id="surface1">
<path style=" stroke:none;fill-rule:nonzero;fill:rgb(30%,30%,30%);fill-opacity:1;" d="M 14.714844 13.214844 C 14.699219 13.828125 14.269531 14.003906 12.347656 15.175781 C 10.960938 16.023438 9.246094 17.214844 6.589844 16.964844 C 3.933594 16.714844 1.710938 15.136719 0.742188 13.695312 C -0.046875 12.519531 0.804688 12.507812 0.722656 11.941406 C 0.605469 11.152344 -0.203125 11.078125 0.046875 9.804688 C 0.265625 8.707031 0.914062 8.84375 1.183594 8.402344 C 1.453125 7.957031 1.414062 7.203125 2.144531 6.902344 C 4.648438 5.859375 6.859375 7.449219 7.863281 8.691406 C 8.265625 9.191406 9.890625 8.984375 10.34375 10.402344 C 10.632812 11.308594 14.734375 12.347656 14.714844 13.214844 Z M 4.628906 7.554688 C 3.339844 7.496094 2.78125 8.144531 2.261719 9.035156 C 1.765625 9.890625 1.839844 10.835938 2.011719 11.808594 C 2.175781 12.753906 3.105469 14.011719 3.878906 14.578125 C 4.480469 15.023438 5.5 15.238281 6.246094 15.292969 C 7.882812 15.40625 8.707031 15.351562 10.304688 14.984375 C 10.804688 14.867188 11.0625 14.683594 11.402344 14.445312 C 11.789062 14.175781 12 13.480469 12.019531 13.347656 C 12.027344 13.28125 11.890625 12.832031 11.863281 12.769531 C 11.515625 11.945312 11.578125 11.652344 10.574219 10.960938 C 9.894531 10.488281 8.683594 10.332031 8.113281 9.652344 C 6.917969 8.226562 5.476562 7.667969 5.28125 7.652344 Z M 4.628906 7.554688 "/>
<path style=" stroke:none;fill-rule:nonzero;fill:rgb(30%,30%,30%);fill-opacity:1;" d="M 10.441406 13.199219 C 10.4375 13.523438 10.609375 13.777344 9.601562 14.390625 C 8.878906 14.832031 7.984375 15.082031 6.59375 14.949219 C 5.203125 14.820312 4.179688 14.53125 3.5 13.582031 C 3.070312 12.980469 3.53125 12.960938 3.488281 12.667969 C 3.429688 12.253906 3.003906 12.214844 3.136719 11.550781 C 3.25 10.976562 3.589844 11.050781 3.730469 10.816406 C 3.871094 10.585938 3.851562 10.191406 4.234375 10.035156 C 5.542969 9.492188 6.703125 10.320312 7.226562 10.96875 C 7.4375 11.230469 8.707031 10.917969 9.21875 11.503906 C 9.585938 11.921875 10.453125 12.75 10.441406 13.199219 Z M 10.441406 13.199219 "/>
<path style=" stroke:none;fill-rule:nonzero;fill:rgb(30%,30%,30%);fill-opacity:1;" d="M 10.347656 0.875 C 10.488281 0.964844 9.53125 2.222656 9.863281 3.308594 C 10.085938 4.046875 10.496094 4.171875 10.757812 4.351562 C 10.914062 4.457031 13.722656 6.507812 14.347656 7.089844 C 15.613281 8.269531 16.460938 9.652344 16.667969 10.089844 C 16.855469 10.488281 16.367188 11.433594 16.230469 11.695312 C 16.210938 11.738281 16.164062 11.738281 16.121094 11.730469 C 15.382812 11.59375 12.9375 10.019531 11.164062 7.917969 C 9.21875 5.605469 9.1875 5.511719 9.070312 5.441406 C 8.957031 5.367188 8.261719 5.082031 7.652344 5.234375 C 6.519531 5.515625 6.039062 6.171875 5.910156 6.066406 C 5.71875 5.910156 6.882812 3.917969 7.726562 2.988281 C 8.554688 2.074219 10.148438 0.746094 10.347656 0.875 Z M 10.347656 0.875 "/>
<path style=" stroke:none;fill-rule:nonzero;fill:rgb(30%,30%,30%);fill-opacity:1;" d="M 5.144531 0.167969 C 6.183594 0.488281 8.660156 1.808594 8.429688 1.898438 C 7.800781 2.144531 6.714844 3.683594 6.488281 4.136719 C 6.398438 4.316406 4.777344 2.054688 4.371094 1.257812 C 3.925781 0.378906 4.050781 0.046875 4.050781 0.046875 C 4.195312 -0.0625 4.746094 0.0429688 5.144531 0.167969 Z M 4.324219 0.28125 C 4.324219 0.28125 4.820312 0.683594 5.273438 0.742188 C 5.78125 0.804688 6.628906 1.082031 6.574219 1.050781 C 6.464844 0.992188 5.40625 0.429688 4.875 0.304688 C 4.671875 0.257812 4.394531 0.222656 4.324219 0.28125 Z M 4.324219 0.28125 "/>
</g>
</g>
</svg>
