<?xml version="1.0" encoding="UTF-8"?>
<svg xmlns="http://www.w3.org/2000/svg" xmlns:xlink="http://www.w3.org/1999/xlink" width="10.150519" height="11" viewBox="0 0 10.150519 11" version="1.1">
<g id="surface1">
<path style=" stroke:none;fill-rule:nonzero;fill:rgb(30%,30%,30%);fill-opacity:1;" d="M 6.453125 4.832031 L 4.789062 3.988281 C 4.777344 3.984375 4.769531 3.976562 4.765625 3.964844 C 4.757812 3.945312 4.746094 3.925781 4.730469 3.90625 L 3.832031 2.460938 C 3.65625 2.183594 3.484375 2.078125 3.242188 2.078125 L 2.640625 2.078125 C 2.453125 2.078125 2.28125 2.1875 2.203125 2.355469 L 1.523438 2.355469 C 1.503906 2.355469 1.484375 2.367188 1.476562 2.386719 L 1.007812 3.390625 C 1.003906 3.398438 1.003906 3.40625 1.003906 3.414062 L 1.003906 5.234375 C 1.003906 5.261719 1.023438 5.285156 1.054688 5.285156 L 2.105469 5.285156 C 2.132812 5.285156 2.15625 5.308594 2.15625 5.335938 L 2.15625 5.367188 C 2.15625 5.375 2.152344 5.382812 2.152344 5.386719 L 0.0429688 10.054688 C -0.0703125 10.308594 0.0429688 10.605469 0.296875 10.71875 L 0.300781 10.722656 C 0.554688 10.835938 0.851562 10.722656 0.96875 10.46875 L 2.898438 6.394531 C 2.90625 6.375 2.933594 6.363281 2.953125 6.363281 C 2.972656 6.363281 3.023438 6.359375 3.03125 6.375 L 4.289062 8.902344 L 3.464844 10.753906 C 3.425781 10.84375 3.464844 10.945312 3.550781 10.984375 C 3.640625 11.023438 3.742188 10.984375 3.78125 10.898438 L 4.480469 9.332031 L 4.972656 10.433594 C 5.085938 10.691406 5.386719 10.804688 5.640625 10.691406 C 5.894531 10.578125 6.011719 10.28125 5.898438 10.023438 L 5.042969 8.101562 C 5.039062 8.09375 5.039062 8.082031 5.042969 8.074219 L 6.230469 5.40625 C 6.40625 5.480469 6.609375 5.402344 6.6875 5.230469 C 6.730469 5.039062 6.628906 4.910156 6.453125 4.832031 Z M 4.84375 7.660156 L 3.730469 5.160156 C 3.730469 5.152344 3.726562 5.144531 3.726562 5.136719 L 3.726562 3.855469 C 3.726562 3.832031 3.742188 3.8125 3.761719 3.808594 C 3.78125 3.800781 3.804688 3.808594 3.820312 3.824219 L 4.078125 4.167969 C 4.214844 4.34375 4.269531 4.496094 4.390625 4.550781 L 5.914062 5.261719 Z M 3.855469 0.910156 C 3.855469 1.414062 3.445312 1.824219 2.941406 1.824219 C 2.4375 1.828125 2.027344 1.417969 2.027344 0.914062 C 2.027344 0.410156 2.4375 0 2.941406 0 C 3.445312 0 3.851562 0.40625 3.855469 0.910156 Z M 3.855469 0.910156 "/>
<path style=" stroke:none;fill-rule:nonzero;fill:rgb(30%,30%,30%);fill-opacity:1;" d="M 7.117188 1.660156 L 8.328125 0.0117188 L 9.558594 1.660156 L 8.964844 1.484375 L 9.996094 3.152344 L 9.425781 2.976562 L 10.152344 4.472656 L 8.621094 4.105469 L 8.609375 5.09375 L 8.097656 5.09375 L 8.105469 4.128906 L 6.523438 4.492188 L 7.273438 3 L 6.699219 3.109375 L 7.601562 1.59375 Z M 7.117188 1.660156 "/>
</g>
</svg>
