<?xml version="1.0" encoding="UTF-8"?>
<svg xmlns="http://www.w3.org/2000/svg" xmlns:xlink="http://www.w3.org/1999/xlink" width="9.538167" height="11" viewBox="0 0 9.538167 11" version="1.1">
<g id="surface1">
<path style=" stroke:none;fill-rule:nonzero;fill:rgb(30%,30%,30%);fill-opacity:1;" d="M 2.558594 4.988281 C 2.558594 4.988281 2.941406 4.6875 3.308594 4.757812 C 3.675781 4.824219 3.886719 4.941406 3.816406 5.542969 C 3.746094 6.140625 3.734375 6.628906 3.734375 6.628906 C 3.734375 6.628906 4.300781 5.519531 4.785156 5.496094 C 5.207031 5.476562 5.6875 5.566406 5.722656 6.269531 C 5.722656 6.269531 6.230469 6.394531 6.195312 6.914062 C 6.160156 7.433594 5.515625 7.839844 4.660156 7.929688 C 4.660156 7.929688 4.585938 7.976562 5.238281 8.183594 C 5.988281 8.429688 6.4375 8.773438 6.183594 9.222656 C 5.917969 9.695312 5.582031 9.722656 5.582031 9.722656 C 5.582031 9.722656 5.550781 10.492188 4.878906 10.515625 C 4 10.550781 3.597656 9.203125 3.550781 9.121094 C 3.550781 9.121094 3.550781 9.953125 3.390625 10.261719 C 3.214844 10.601562 2.996094 11.070312 2.328125 10.992188 C 2.050781 10.957031 1.96875 10.597656 1.96875 10.597656 C 1.96875 10.597656 1.242188 10.667969 1.207031 10.089844 C 1.167969 9.410156 1.96875 8.648438 1.96875 8.648438 C 1.96875 8.648438 1.28125 8.886719 0.804688 8.867188 C 0.273438 8.84375 -0.351562 8.371094 0.238281 7.722656 C 0.335938 7.613281 -0.257812 7.191406 0.515625 6.648438 C 0.933594 6.355469 1.96875 6.847656 1.96875 6.847656 C 1.96875 6.847656 1.277344 6.003906 1.425781 5.519531 C 1.578125 5.035156 2.085938 4.824219 2.558594 4.988281 Z M 2.960938 6.734375 C 2.414062 6.734375 1.96875 7.179688 1.96875 7.726562 C 1.96875 8.277344 2.414062 8.71875 2.960938 8.71875 C 3.511719 8.71875 3.957031 8.277344 3.957031 7.726562 C 3.957031 7.179688 3.511719 6.734375 2.960938 6.734375 Z M 2.960938 6.734375 "/>
<path style=" stroke:none;fill-rule:nonzero;fill:rgb(30%,30%,30%);fill-opacity:1;" d="M 7.691406 3.542969 C 7.691406 3.542969 7.878906 3.390625 8.066406 3.425781 C 8.25 3.460938 8.355469 3.519531 8.320312 3.816406 C 8.285156 4.117188 8.277344 4.359375 8.277344 4.359375 C 8.277344 4.359375 8.5625 3.808594 8.804688 3.796875 C 9.015625 3.785156 9.253906 3.828125 9.273438 4.183594 C 9.273438 4.183594 9.527344 4.246094 9.507812 4.503906 C 9.492188 4.765625 9.167969 4.96875 8.742188 5.011719 C 8.742188 5.011719 8.703125 5.035156 9.027344 5.140625 C 9.40625 5.261719 9.628906 5.433594 9.503906 5.660156 C 9.371094 5.894531 9.203125 5.90625 9.203125 5.90625 C 9.203125 5.90625 9.183594 6.292969 8.851562 6.304688 C 8.410156 6.324219 8.210938 5.648438 8.1875 5.609375 C 8.1875 5.609375 8.1875 6.023438 8.105469 6.179688 C 8.019531 6.347656 7.910156 6.582031 7.574219 6.542969 C 7.4375 6.527344 7.394531 6.347656 7.394531 6.347656 C 7.394531 6.347656 7.03125 6.382812 7.015625 6.09375 C 6.996094 5.753906 7.394531 5.371094 7.394531 5.371094 C 7.394531 5.371094 7.050781 5.492188 6.8125 5.480469 C 6.546875 5.46875 6.234375 5.230469 6.53125 4.910156 C 6.578125 4.855469 6.28125 4.644531 6.667969 4.371094 C 6.878906 4.226562 7.394531 4.46875 7.394531 4.46875 C 7.394531 4.46875 7.050781 4.050781 7.125 3.808594 C 7.199219 3.5625 7.453125 3.460938 7.691406 3.542969 Z M 7.890625 4.414062 C 7.617188 4.414062 7.394531 4.636719 7.394531 4.910156 C 7.394531 5.183594 7.617188 5.40625 7.890625 5.40625 C 8.167969 5.40625 8.386719 5.183594 8.386719 4.910156 C 8.386719 4.636719 8.167969 4.414062 7.890625 4.414062 Z M 7.890625 4.414062 "/>
<path style=" stroke:none;fill-rule:nonzero;fill:rgb(30%,30%,30%);fill-opacity:1;" d="M 4.011719 0.171875 C 4.011719 0.171875 4.285156 -0.0429688 4.550781 0.0078125 C 4.816406 0.0585938 4.96875 0.140625 4.917969 0.574219 C 4.867188 1.003906 4.859375 1.355469 4.859375 1.355469 C 4.859375 1.355469 5.265625 0.554688 5.617188 0.539062 C 5.917969 0.523438 6.265625 0.589844 6.289062 1.097656 C 6.289062 1.097656 6.65625 1.1875 6.628906 1.5625 C 6.605469 1.9375 6.140625 2.226562 5.523438 2.292969 C 5.523438 2.292969 5.472656 2.324219 5.941406 2.476562 C 6.480469 2.652344 6.804688 2.898438 6.621094 3.222656 C 6.429688 3.566406 6.191406 3.582031 6.191406 3.582031 C 6.191406 3.582031 6.164062 4.136719 5.683594 4.15625 C 5.050781 4.179688 4.761719 3.207031 4.726562 3.148438 C 4.726562 3.148438 4.726562 3.746094 4.609375 3.972656 C 4.484375 4.214844 4.328125 4.554688 3.84375 4.496094 C 3.644531 4.472656 3.589844 4.214844 3.589844 4.214844 C 3.589844 4.214844 3.0625 4.261719 3.039062 3.847656 C 3.011719 3.359375 3.589844 2.808594 3.589844 2.808594 C 3.589844 2.808594 3.09375 2.980469 2.75 2.964844 C 2.367188 2.949219 1.917969 2.609375 2.339844 2.144531 C 2.414062 2.066406 1.984375 1.761719 2.539062 1.371094 C 2.84375 1.160156 3.589844 1.511719 3.589844 1.511719 C 3.589844 1.511719 3.089844 0.90625 3.195312 0.554688 C 3.304688 0.207031 3.671875 0.0585938 4.011719 0.171875 Z M 4.304688 1.429688 C 3.90625 1.429688 3.589844 1.75 3.589844 2.144531 C 3.589844 2.542969 3.90625 2.859375 4.304688 2.859375 C 4.699219 2.859375 5.019531 2.542969 5.019531 2.144531 C 5.019531 1.75 4.699219 1.429688 4.304688 1.429688 Z M 4.304688 1.429688 "/>
</g>
</svg>
