<?xml version="1.0" encoding="UTF-8"?>
<svg xmlns="http://www.w3.org/2000/svg" xmlns:xlink="http://www.w3.org/1999/xlink" width="9.61509" height="11" viewBox="0 0 9.61509 11" version="1.1">
<g id="surface1">
<path style=" stroke:none;fill-rule:nonzero;fill:rgb(30%,30%,30%);fill-opacity:1;" d="M 4.769531 0 C 4.265625 -0.0078125 3.820312 0.15625 3.445312 0.476562 C 2.859375 0.984375 2.492188 1.871094 2.378906 3.019531 L 0.351562 3.019531 L 0 10.691406 C -0.0078125 10.859375 0.148438 11 0.339844 11 L 7.082031 10.988281 L 6.851562 10.234375 L 5.816406 10.585938 L 5.902344 5.351562 L 8.976562 9.503906 L 7.765625 9.917969 L 8.089844 10.984375 L 9.277344 10.984375 C 9.46875 10.984375 9.621094 10.839844 9.613281 10.671875 L 9.242188 3.019531 L 7.21875 3.019531 C 7.042969 1.082031 6.191406 0.0195312 4.769531 0 M 2.871094 3.019531 C 2.976562 2.003906 3.300781 1.207031 3.789062 0.785156 C 4.066406 0.542969 4.394531 0.425781 4.765625 0.429688 C 5.582031 0.441406 6.542969 0.921875 6.734375 3.019531 Z M 2.871094 3.019531 "/>
</g>
</svg>
