<?xml version="1.0" encoding="UTF-8"?>
<svg xmlns="http://www.w3.org/2000/svg" xmlns:xlink="http://www.w3.org/1999/xlink" width="10.812235" height="11" viewBox="0 0 10.812235 11" version="1.1">
<g id="surface1">
<path style=" stroke:none;fill-rule:nonzero;fill:rgb(30%,30%,30%);fill-opacity:1;" d="M 9.519531 8.550781 C 9.511719 8.949219 9.234375 9.058594 7.988281 9.820312 C 7.089844 10.367188 5.984375 11.140625 4.265625 10.976562 C 2.546875 10.816406 1.105469 9.792969 0.480469 8.859375 C -0.03125 8.101562 0.519531 8.09375 0.464844 7.726562 C 0.390625 7.21875 -0.132812 7.167969 0.03125 6.34375 C 0.171875 5.632812 0.589844 5.722656 0.765625 5.4375 C 0.941406 5.148438 0.914062 4.660156 1.386719 4.464844 C 3.007812 3.792969 4.4375 4.820312 5.085938 5.625 C 5.347656 5.945312 6.398438 5.8125 6.695312 6.730469 C 6.878906 7.316406 9.53125 7.988281 9.519531 8.550781 Z M 2.996094 4.886719 C 2.160156 4.851562 1.800781 5.269531 1.464844 5.847656 C 1.140625 6.398438 1.191406 7.011719 1.300781 7.640625 C 1.410156 8.253906 2.007812 9.066406 2.507812 9.433594 C 2.898438 9.71875 3.558594 9.859375 4.039062 9.894531 C 5.101562 9.96875 5.632812 9.933594 6.667969 9.695312 C 6.992188 9.621094 7.160156 9.5 7.378906 9.347656 C 7.628906 9.171875 7.765625 8.722656 7.777344 8.636719 C 7.78125 8.59375 7.695312 8.304688 7.675781 8.261719 C 7.453125 7.730469 7.492188 7.539062 6.84375 7.09375 C 6.402344 6.789062 5.617188 6.6875 5.25 6.246094 C 4.476562 5.324219 3.542969 4.960938 3.417969 4.949219 Z M 2.996094 4.886719 "/>
<path style=" stroke:none;fill-rule:nonzero;fill:rgb(30%,30%,30%);fill-opacity:1;" d="M 6.757812 8.542969 C 6.753906 8.75 6.867188 8.914062 6.214844 9.3125 C 5.746094 9.597656 5.164062 9.757812 4.265625 9.671875 C 3.367188 9.589844 2.703125 9.402344 2.265625 8.789062 C 1.984375 8.398438 2.285156 8.386719 2.257812 8.195312 C 2.21875 7.929688 1.945312 7.902344 2.03125 7.472656 C 2.101562 7.101562 2.324219 7.148438 2.414062 7 C 2.503906 6.851562 2.492188 6.59375 2.738281 6.492188 C 3.585938 6.140625 4.335938 6.679688 4.675781 7.097656 C 4.8125 7.265625 5.632812 7.0625 5.964844 7.445312 C 6.203125 7.714844 6.761719 8.25 6.757812 8.542969 Z M 6.757812 8.542969 "/>
<path style=" stroke:none;fill-rule:nonzero;fill:rgb(30%,30%,30%);fill-opacity:1;" d="M 6.695312 0.566406 C 6.785156 0.625 6.167969 1.4375 6.382812 2.140625 C 6.527344 2.617188 6.789062 2.699219 6.960938 2.816406 C 7.0625 2.882812 8.878906 4.210938 9.285156 4.585938 C 10.101562 5.351562 10.652344 6.246094 10.785156 6.527344 C 10.90625 6.789062 10.589844 7.398438 10.5 7.570312 C 10.488281 7.59375 10.460938 7.597656 10.429688 7.589844 C 9.953125 7.5 8.371094 6.484375 7.222656 5.121094 C 5.964844 3.625 5.945312 3.566406 5.871094 3.519531 C 5.792969 3.472656 5.34375 3.289062 4.953125 3.386719 C 4.21875 3.570312 3.910156 3.992188 3.824219 3.925781 C 3.699219 3.824219 4.453125 2.535156 5 1.933594 C 5.535156 1.339844 6.566406 0.480469 6.695312 0.566406 Z M 6.695312 0.566406 "/>
<path style=" stroke:none;fill-rule:nonzero;fill:rgb(30%,30%,30%);fill-opacity:1;" d="M 3.328125 0.109375 C 4.003906 0.316406 5.605469 1.171875 5.457031 1.226562 C 5.046875 1.386719 4.34375 2.382812 4.199219 2.675781 C 4.140625 2.792969 3.089844 1.328125 2.828125 0.8125 C 2.542969 0.246094 2.621094 0.03125 2.621094 0.03125 C 2.714844 -0.0429688 3.070312 0.0273438 3.328125 0.109375 Z M 2.796875 0.183594 C 2.796875 0.183594 3.121094 0.441406 3.410156 0.480469 C 3.742188 0.519531 4.289062 0.699219 4.253906 0.679688 C 4.183594 0.640625 3.496094 0.277344 3.15625 0.195312 C 3.023438 0.164062 2.84375 0.144531 2.796875 0.183594 Z M 2.796875 0.183594 "/>
</g>
</svg>
