<?xml version="1.0" encoding="UTF-8"?>
<svg xmlns="http://www.w3.org/2000/svg" xmlns:xlink="http://www.w3.org/1999/xlink" width="11" height="10.889343" viewBox="0 0 11 10.889343" version="1.1">
<g id="surface1">
<path style=" stroke:none;fill-rule:nonzero;fill:rgb(30%,30%,30%);fill-opacity:1;" d="M 6.726562 4.304688 L 5.664062 4.890625 C 5.445312 4.828125 5.210938 4.890625 5.054688 5.054688 C 4.898438 5.21875 4.847656 5.457031 4.917969 5.671875 L 4.308594 6.6875 L 5.359375 6.070312 C 5.5625 6.121094 5.777344 6.058594 5.925781 5.914062 C 6.074219 5.769531 6.140625 5.558594 6.097656 5.351562 Z M 6.726562 4.304688 "/>
<path style=" stroke:none;fill-rule:nonzero;fill:rgb(30%,30%,30%);fill-opacity:1;" d="M 5.53125 9.074219 C 4.660156 9.074219 3.835938 8.785156 3.167969 8.257812 L 2.105469 8.625 C 2.964844 9.511719 4.183594 10.066406 5.53125 10.066406 C 6.015625 10.066406 6.496094 9.996094 6.960938 9.851562 L 6.277344 9 C 6.03125 9.050781 5.78125 9.074219 5.53125 9.074219 Z M 5.53125 9.074219 "/>
<path style=" stroke:none;fill-rule:nonzero;fill:rgb(30%,30%,30%);fill-opacity:1;" d="M 10.257812 5.421875 C 10.257812 4.972656 10.191406 4.523438 10.058594 4.09375 L 9.210938 4.769531 C 9.25 4.984375 9.273438 5.203125 9.273438 5.421875 C 9.273438 6.316406 8.945312 7.160156 8.347656 7.828125 L 8.75 8.820312 C 9.675781 7.972656 10.257812 6.765625 10.257812 5.421875 Z M 10.257812 5.421875 "/>
<path style=" stroke:none;fill-rule:nonzero;fill:rgb(30%,30%,30%);fill-opacity:1;" d="M 5.53125 0.777344 C 5.042969 0.777344 4.554688 0.851562 4.089844 1 L 4.808594 1.839844 C 5.046875 1.792969 5.289062 1.769531 5.53125 1.769531 C 6.464844 1.769531 7.34375 2.101562 8.03125 2.707031 L 9.078125 2.351562 C 8.210938 1.386719 6.941406 0.777344 5.53125 0.777344 Z M 5.53125 0.777344 "/>
<path style=" stroke:none;fill-rule:nonzero;fill:rgb(30%,30%,30%);fill-opacity:1;" d="M 1.789062 5.421875 C 1.789062 4.515625 2.125 3.65625 2.742188 2.984375 L 2.386719 1.953125 C 1.414062 2.804688 0.804688 4.042969 0.804688 5.421875 C 0.804688 5.945312 0.890625 6.464844 1.066406 6.957031 L 1.875 6.214844 C 1.816406 5.953125 1.789062 5.6875 1.789062 5.421875 Z M 1.789062 5.421875 "/>
<path style=" stroke:none;fill-rule:nonzero;fill:rgb(30%,30%,30%);fill-opacity:1;" d="M 7.613281 7.378906 C 8.105469 6.871094 8.410156 6.183594 8.410156 5.421875 C 8.410156 5.21875 8.390625 5.019531 8.34375 4.820312 L 11 2.410156 L 7.601562 3.453125 C 7.054688 2.902344 6.308594 2.589844 5.53125 2.59375 C 5.304688 2.589844 5.082031 2.617188 4.863281 2.667969 L 2.371094 0 L 3.476562 3.4375 C 2.964844 3.949219 2.648438 4.648438 2.648438 5.421875 C 2.648438 5.652344 2.675781 5.878906 2.734375 6.101562 L 0 8.707031 L 3.585938 7.511719 C 4.117188 7.992188 4.8125 8.253906 5.53125 8.253906 C 5.757812 8.253906 5.984375 8.226562 6.203125 8.175781 L 8.757812 10.890625 Z M 4.058594 6.847656 C 3.671875 6.46875 3.457031 5.960938 3.457031 5.421875 C 3.457031 4.886719 3.671875 4.378906 4.058594 3.996094 C 4.453125 3.613281 4.972656 3.398438 5.53125 3.398438 C 6.085938 3.398438 6.609375 3.613281 7 3.996094 C 7.390625 4.378906 7.601562 4.886719 7.601562 5.421875 C 7.601562 5.960938 7.390625 6.46875 7 6.847656 C 6.609375 7.234375 6.085938 7.445312 5.53125 7.445312 C 4.972656 7.445312 4.453125 7.234375 4.058594 6.847656 Z M 4.058594 6.847656 "/>
</g>
</svg>
