<?xml version="1.0" encoding="UTF-8" standalone="no"?>
<!-- Created with Inkscape (http://www.inkscape.org/) -->

<svg
   xmlns:dc="http://purl.org/dc/elements/1.1/"
   xmlns:cc="http://creativecommons.org/ns#"
   xmlns:rdf="http://www.w3.org/1999/02/22-rdf-syntax-ns#"
   xmlns:svg="http://www.w3.org/2000/svg"
   xmlns="http://www.w3.org/2000/svg"
   xmlns:xlink="http://www.w3.org/1999/xlink"
   xmlns:sodipodi="http://sodipodi.sourceforge.net/DTD/sodipodi-0.dtd"
   xmlns:inkscape="http://www.inkscape.org/namespaces/inkscape"
   width="30px"
   height="30px"
   version="1.1"
   id="svg8"
   inkscape:version="0.92.4 5da689c313, 2019-01-14"
   sodipodi:docname="container.svg">
  <defs
     id="defs2" />
  <sodipodi:namedview
     id="base"
     pagecolor="#ffffff"
     bordercolor="#666666"
     borderopacity="1.0"
     inkscape:pageopacity="0.0"
     inkscape:pageshadow="2"
     inkscape:zoom="13.049334"
     inkscape:cx="18.679046"
     inkscape:cy="12.165829"
     inkscape:document-units="px"
     inkscape:current-layer="layer1"
     showgrid="false"
     inkscape:snap-page="false"
     units="px"
     inkscape:window-width="1884"
     inkscape:window-height="1061"
     inkscape:window-x="0"
     inkscape:window-y="0"
     inkscape:window-maximized="1"
     fit-margin-top="0"
     fit-margin-left="0"
     fit-margin-right="0"
     fit-margin-bottom="0" />
  <metadata
     id="metadata5">
    <rdf:RDF>
      <cc:Work
         rdf:about="">
        <dc:format>image/svg+xml</dc:format>
        <dc:type
           rdf:resource="http://purl.org/dc/dcmitype/StillImage" />
        <dc:title></dc:title>
      </cc:Work>
    </rdf:RDF>
  </metadata>
    <circle
       style="color:#000000;clip-rule:nonzero;display:inline;overflow:visible;visibility:visible;opacity:1;isolation:auto;mix-blend-mode:normal;color-interpolation:sRGB;color-interpolation-filters:linearRGB;solid-color:#000000;solid-opacity:1;vector-effect:none;fill:rgba(255, 255, 255, 1);fill-opacity:1;fill-rule:evenodd;stroke:#ffffff;stroke-width:1;stroke-linecap:butt;stroke-linejoin:miter;stroke-miterlimit:4;stroke-dasharray:none;stroke-dashoffset:0;stroke-opacity:1;marker:none;color-rendering:auto;image-rendering:auto;shape-rendering:auto;text-rendering:auto;enable-background:accumulate"
       id="path815"
       cx="15"
       cy="15"
       r="14.5" />
<g transform="translate(6,6)"><g id="surface1">
<path style=" stroke:none;fill-rule:nonzero;fill:#FFFFFF;fill-opacity:1;" d="M 4.730469 0.859375 C 5.285156 1.410156 5.285156 2.304688 4.730469 2.855469 C 4.179688 3.40625 3.285156 3.40625 2.734375 2.855469 C 2.183594 2.304688 2.183594 1.410156 2.734375 0.859375 C 3.285156 0.304688 4.179688 0.304688 4.730469 0.859375 Z M 4.730469 0.859375 "/>
<path style=" stroke:none;fill-rule:nonzero;fill:#FFFFFF;fill-opacity:1;" d="M 2.074219 4.632812 L 2.691406 7.996094 L 1.664062 9.777344 C 1.550781 9.972656 1.550781 10.214844 1.660156 10.414062 C 1.683594 10.523438 1.734375 10.621094 1.808594 10.703125 L 3.519531 12.597656 C 3.757812 12.863281 4.167969 12.882812 4.433594 12.644531 C 4.699219 12.402344 4.71875 11.996094 4.480469 11.730469 L 2.988281 10.078125 L 4.0625 8.214844 C 4.113281 8.125 4.140625 8.019531 4.144531 7.914062 L 4.523438 7.839844 L 4.867188 9.855469 C 4.886719 9.96875 4.9375 10.074219 5.011719 10.164062 C 5.101562 10.339844 5.265625 10.464844 5.457031 10.503906 L 7.957031 11.011719 C 8.308594 11.082031 8.652344 10.855469 8.722656 10.503906 C 8.792969 10.152344 8.566406 9.8125 8.214844 9.738281 L 6.085938 9.3125 L 5.714844 7.121094 C 5.703125 7.0625 5.683594 7 5.65625 6.945312 L 5.320312 4.597656 C 6.449219 4.050781 7.234375 2.972656 7.234375 1.765625 C 7.234375 1.25 7.175781 0.769531 7.054688 0.339844 C 6.988281 0.09375 6.730469 -0.0507812 6.484375 0.015625 C 6.234375 0.0859375 6.089844 0.339844 6.160156 0.589844 C 6.257812 0.9375 6.304688 1.332031 6.304688 1.765625 C 6.304688 3.003906 5.089844 4.050781 3.652344 4.050781 C 2.238281 4.050781 1.085938 3.027344 1.085938 1.765625 C 1.085938 1.300781 1.125 0.933594 1.214844 0.605469 C 1.28125 0.359375 1.132812 0.105469 0.886719 0.0390625 C 0.636719 -0.0273438 0.382812 0.117188 0.316406 0.367188 C 0.207031 0.773438 0.15625 1.21875 0.15625 1.765625 C 0.15625 3.015625 0.9375 4.101562 2.074219 4.632812 Z M 2.074219 4.632812 "/>
<path style=" stroke:none;fill-rule:nonzero;fill:#FFFFFF;fill-opacity:1;" d="M 16.707031 14.316406 C 16.484375 14.238281 16.253906 14.199219 16.019531 14.199219 C 15.164062 14.183594 14.640625 14.554688 14.246094 14.945312 C 14.183594 15.003906 14.121094 15.0625 14.066406 15.121094 L 13.957031 15.253906 C 13.949219 15.257812 13.945312 15.261719 13.941406 15.269531 C 13.53125 15.71875 13.207031 16.074219 12.464844 16.074219 C 11.757812 16.074219 11.453125 15.726562 11.066406 15.28125 C 10.640625 14.792969 10.109375 14.1875 9.003906 14.199219 C 8.058594 14.210938 7.511719 14.667969 7.085938 15.097656 L 6.636719 15.640625 C 6.386719 15.859375 6.003906 16.0625 5.429688 16.074219 C 4.792969 16.089844 4.449219 15.730469 4.011719 15.269531 C 3.679688 14.925781 3.316406 14.546875 2.804688 14.347656 C 2.550781 14.242188 2.28125 14.1875 2.003906 14.1875 C 0.972656 14.167969 0.425781 14.710938 0 15.175781 L 0 16.480469 C 0.246094 16.289062 0.445312 16.074219 0.625 15.875 C 1.039062 15.421875 1.335938 15.085938 2.027344 15.101562 C 2.179688 15.101562 2.328125 15.128906 2.46875 15.183594 C 2.738281 15.296875 2.964844 15.503906 3.238281 15.789062 L 3.238281 15.769531 C 3.277344 15.808594 3.316406 15.851562 3.359375 15.894531 C 3.820312 16.378906 4.398438 16.976562 5.390625 16.976562 C 5.410156 16.976562 5.433594 16.976562 5.453125 16.976562 C 6.671875 16.945312 7.328125 16.3125 7.644531 15.851562 C 8.035156 15.421875 8.335938 15.109375 9.003906 15.125 C 9.554688 15.128906 9.871094 15.429688 10.335938 15.917969 C 10.800781 16.402344 11.375 17 12.367188 17 C 12.390625 17 12.410156 17 12.429688 17 C 13.703125 16.96875 14.363281 16.277344 14.660156 15.816406 C 14.726562 15.742188 14.792969 15.671875 14.859375 15.605469 C 15.160156 15.324219 15.472656 15.128906 15.992188 15.125 C 16 15.125 16.007812 15.125 16.015625 15.125 C 16.152344 15.121094 16.285156 15.136719 16.417969 15.171875 C 16.59375 15.234375 16.753906 15.339844 16.914062 15.476562 L 16.914062 14.390625 C 16.847656 14.359375 16.777344 14.335938 16.707031 14.316406 Z M 16.707031 14.316406 "/>
<path style=" stroke:none;fill-rule:nonzero;fill:#FFFFFF;fill-opacity:1;" d="M 8.257812 1.078125 C 8.015625 1.074219 7.816406 1.265625 7.804688 1.507812 L 7.78125 1.980469 C 7.769531 2.214844 7.941406 2.417969 8.175781 2.449219 C 8.8125 2.527344 10.019531 2.78125 10.566406 3.546875 C 11.183594 4.40625 11.714844 5.308594 11.898438 5.632812 C 11.945312 5.710938 12.015625 5.773438 12.097656 5.816406 L 14.742188 7.054688 C 14.882812 7.117188 14.980469 7.25 15 7.402344 L 15.136719 8.457031 C 15.152344 8.566406 15.125 8.675781 15.066406 8.765625 C 14.808594 9.15625 14.089844 10.332031 13.882812 11.636719 C 13.84375 11.878906 13.8125 12.160156 13.785156 12.460938 C 13.789062 12.460938 13.789062 12.460938 13.792969 12.460938 C 13.75 12.632812 13.726562 12.804688 13.726562 12.980469 C 13.722656 13.097656 13.675781 13.214844 13.589844 13.296875 C 13.289062 13.589844 12.96875 13.792969 12.40625 13.792969 C 11.699219 13.792969 11.394531 13.445312 11.007812 13 C 10.582031 12.511719 10.050781 11.90625 8.945312 11.917969 C 8.011719 11.929688 7.464844 12.375 7.042969 12.804688 C 7.035156 12.8125 7.023438 12.824219 7.015625 12.832031 L 6.859375 13.019531 C 6.835938 13.046875 6.8125 13.074219 6.789062 13.097656 L 6.789062 13.105469 L 6.601562 13.328125 C 6.585938 13.347656 6.566406 13.367188 6.546875 13.382812 C 6.296875 13.59375 5.921875 13.78125 5.371094 13.792969 C 4.734375 13.808594 4.390625 13.449219 3.953125 12.988281 C 3.738281 12.765625 3.511719 12.527344 3.238281 12.335938 L 3.238281 12.304688 C 2.910156 12.078125 2.519531 11.914062 2.003906 11.910156 C 1.730469 11.902344 1.453125 11.941406 1.1875 12.03125 C 0.652344 12.207031 0.296875 12.554688 0 12.878906 L 0 14.164062 C 0.234375 13.980469 0.421875 13.773438 0.59375 13.585938 C 0.886719 13.265625 1.117188 13.003906 1.472656 12.882812 C 1.632812 12.835938 1.800781 12.8125 1.96875 12.820312 C 2.519531 12.828125 2.832031 13.125 3.300781 13.613281 C 3.765625 14.097656 4.339844 14.695312 5.332031 14.695312 C 5.351562 14.695312 5.375 14.695312 5.394531 14.695312 C 6.621094 14.664062 7.277344 14.023438 7.589844 13.5625 C 7.605469 13.542969 7.617188 13.527344 7.632812 13.511719 C 7.785156 13.347656 7.925781 13.199219 8.082031 13.089844 C 8.097656 13.078125 8.117188 13.066406 8.132812 13.054688 C 8.160156 13.039062 8.183594 13.023438 8.207031 13.011719 C 8.207031 13.011719 8.207031 13.007812 8.210938 13.007812 C 8.226562 13 8.242188 12.992188 8.257812 12.980469 C 8.441406 12.890625 8.65625 12.839844 8.933594 12.847656 C 9.484375 12.851562 9.800781 13.152344 10.265625 13.640625 C 10.730469 14.121094 11.304688 14.722656 12.296875 14.722656 C 12.320312 14.722656 12.339844 14.722656 12.359375 14.722656 C 13.578125 14.691406 14.234375 14.058594 14.550781 13.601562 C 14.5625 13.582031 14.574219 13.566406 14.589844 13.550781 C 14.691406 13.4375 14.785156 13.335938 14.882812 13.242188 C 15.160156 13.007812 15.460938 12.851562 15.921875 12.847656 C 15.929688 12.847656 15.9375 12.847656 15.945312 12.847656 C 16.105469 12.84375 16.261719 12.867188 16.410156 12.910156 C 16.429688 12.917969 16.445312 12.925781 16.460938 12.929688 C 16.621094 13.003906 16.765625 13.109375 16.914062 13.246094 L 16.914062 1.15625 Z M 8.257812 1.078125 "/>
</g>
</g>
</svg>
