<?xml version="1.0" encoding="UTF-8" standalone="no"?>
<!-- Created with Inkscape (http://www.inkscape.org/) -->

<svg
   xmlns:dc="http://purl.org/dc/elements/1.1/"
   xmlns:cc="http://creativecommons.org/ns#"
   xmlns:rdf="http://www.w3.org/1999/02/22-rdf-syntax-ns#"
   xmlns:svg="http://www.w3.org/2000/svg"
   xmlns="http://www.w3.org/2000/svg"
   xmlns:xlink="http://www.w3.org/1999/xlink"
   xmlns:sodipodi="http://sodipodi.sourceforge.net/DTD/sodipodi-0.dtd"
   xmlns:inkscape="http://www.inkscape.org/namespaces/inkscape"
   width="30px"
   height="30px"
   version="1.1"
   id="svg8"
   inkscape:version="0.92.4 5da689c313, 2019-01-14"
   sodipodi:docname="container.svg">
  <defs
     id="defs2" />
  <sodipodi:namedview
     id="base"
     pagecolor="#ffffff"
     bordercolor="#666666"
     borderopacity="1.0"
     inkscape:pageopacity="0.0"
     inkscape:pageshadow="2"
     inkscape:zoom="13.049334"
     inkscape:cx="18.679046"
     inkscape:cy="12.165829"
     inkscape:document-units="px"
     inkscape:current-layer="layer1"
     showgrid="false"
     inkscape:snap-page="false"
     units="px"
     inkscape:window-width="1884"
     inkscape:window-height="1061"
     inkscape:window-x="0"
     inkscape:window-y="0"
     inkscape:window-maximized="1"
     fit-margin-top="0"
     fit-margin-left="0"
     fit-margin-right="0"
     fit-margin-bottom="0" />
  <metadata
     id="metadata5">
    <rdf:RDF>
      <cc:Work
         rdf:about="">
        <dc:format>image/svg+xml</dc:format>
        <dc:type
           rdf:resource="http://purl.org/dc/dcmitype/StillImage" />
        <dc:title></dc:title>
      </cc:Work>
    </rdf:RDF>
  </metadata>
    <circle
       style="color:#000000;clip-rule:nonzero;display:inline;overflow:visible;visibility:visible;opacity:1;isolation:auto;mix-blend-mode:normal;color-interpolation:sRGB;color-interpolation-filters:linearRGB;solid-color:#000000;solid-opacity:1;vector-effect:none;fill:#ffffff;fill-opacity:1;fill-rule:evenodd;stroke:rgba(255, 255, 255, 1);stroke-width:1;stroke-linecap:butt;stroke-linejoin:miter;stroke-miterlimit:4;stroke-dasharray:none;stroke-dashoffset:0;stroke-opacity:1;marker:none;color-rendering:auto;image-rendering:auto;shape-rendering:auto;text-rendering:auto;enable-background:accumulate"
       id="path815"
       cx="15"
       cy="15"
       r="14.5" />
<g transform="translate(6,7)"><g id="surface1">
<path style=" stroke:none;fill-rule:nonzero;fill:rgb(30%,30%,30%);fill-opacity:1;" d="M 10.773438 2.589844 C 10.773438 4.019531 9.621094 5.179688 8.195312 5.179688 C 6.773438 5.179688 5.621094 4.019531 5.621094 2.589844 C 5.621094 1.160156 6.773438 0 8.195312 0 C 9.621094 0 10.773438 1.160156 10.773438 2.589844 Z M 10.773438 2.589844 "/>
<path style=" stroke:none;fill-rule:nonzero;fill:rgb(30%,30%,30%);fill-opacity:1;" d="M 5.707031 12.652344 C 6.214844 12.652344 6.570312 12.414062 6.945312 12.160156 C 7.285156 11.929688 7.636719 11.691406 8.082031 11.652344 C 8.855469 11.582031 9.417969 11.949219 9.914062 12.273438 C 10.25 12.488281 10.539062 12.679688 10.835938 12.6875 C 11.378906 12.703125 11.71875 12.445312 12.074219 12.171875 C 12.398438 11.925781 12.734375 11.671875 13.191406 11.617188 C 13.203125 11.613281 13.210938 11.613281 13.21875 11.613281 C 13.234375 11.523438 13.242188 11.429688 13.242188 11.339844 L 13.242188 8.140625 C 13.242188 6.964844 12.136719 6.007812 10.789062 6.007812 L 5.714844 6.007812 C 4.363281 6.007812 3.261719 6.964844 3.261719 8.140625 L 3.261719 11.339844 C 3.261719 11.441406 3.269531 11.546875 3.285156 11.648438 C 3.847656 11.652344 4.320312 11.957031 4.738281 12.226562 C 5.09375 12.457031 5.398438 12.652344 5.707031 12.652344 Z M 5.707031 12.652344 "/>
<path style=" stroke:none;fill-rule:nonzero;fill:rgb(30%,30%,30%);fill-opacity:1;" d="M 15.523438 14.207031 C 15.25 14.191406 14.980469 13.972656 14.667969 13.714844 C 14.207031 13.339844 13.683594 12.910156 12.980469 13.007812 C 12.519531 13.074219 12.1875 13.367188 11.863281 13.652344 C 11.503906 13.96875 11.164062 14.265625 10.621094 14.25 C 10.324219 14.238281 10.035156 14.019531 9.699219 13.769531 C 9.203125 13.394531 8.640625 12.972656 7.867188 13.050781 C 7.421875 13.097656 7.074219 13.371094 6.734375 13.636719 C 6.359375 13.929688 6.003906 14.207031 5.496094 14.207031 C 5.1875 14.210938 4.878906 13.980469 4.523438 13.714844 C 4.074219 13.382812 3.566406 13 2.953125 13.054688 C 2.503906 13.089844 2.078125 13.390625 1.664062 13.679688 C 1.273438 13.953125 0.90625 14.210938 0.574219 14.210938 C 0.472656 14.210938 0.371094 14.195312 0.273438 14.171875 C 0.210938 14.152344 0.140625 14.167969 0.0859375 14.207031 C 0.03125 14.25 0 14.3125 0 14.382812 L 0.00390625 15.316406 C 0.00390625 15.414062 0.0703125 15.496094 0.164062 15.523438 C 0.296875 15.558594 0.4375 15.578125 0.574219 15.578125 C 1.039062 15.578125 1.488281 15.261719 1.921875 14.960938 C 2.300781 14.695312 2.65625 14.445312 2.984375 14.417969 C 3.441406 14.382812 3.835938 14.675781 4.253906 14.984375 C 4.644531 15.277344 5.046875 15.578125 5.496094 15.578125 C 6.152344 15.578125 6.613281 15.214844 7.019531 14.898438 C 7.324219 14.65625 7.589844 14.449219 7.910156 14.417969 C 8.519531 14.355469 8.980469 14.699219 9.425781 15.035156 C 9.796875 15.3125 10.175781 15.601562 10.609375 15.617188 C 10.628906 15.617188 10.652344 15.617188 10.675781 15.617188 C 11.351562 15.617188 11.789062 15.230469 12.175781 14.890625 C 12.464844 14.636719 12.710938 14.417969 13.035156 14.371094 C 13.558594 14.300781 13.953125 14.625 14.371094 14.96875 C 14.722656 15.253906 15.085938 15.550781 15.503906 15.574219 C 15.53125 15.574219 15.558594 15.574219 15.585938 15.574219 C 16.101562 15.574219 16.570312 15.332031 16.90625 15.097656 C 16.964844 15.054688 17 14.988281 17 14.917969 L 17 13.988281 C 17 13.8125 16.800781 13.710938 16.660156 13.8125 C 16.375 14.011719 15.964844 14.226562 15.523438 14.207031 Z M 15.523438 14.207031 "/>
</g>
</g>
</svg>
