<?xml version="1.0" encoding="UTF-8" standalone="no"?>
<!-- Created with Inkscape (http://www.inkscape.org/) -->

<svg
   xmlns:dc="http://purl.org/dc/elements/1.1/"
   xmlns:cc="http://creativecommons.org/ns#"
   xmlns:rdf="http://www.w3.org/1999/02/22-rdf-syntax-ns#"
   xmlns:svg="http://www.w3.org/2000/svg"
   xmlns="http://www.w3.org/2000/svg"
   xmlns:xlink="http://www.w3.org/1999/xlink"
   xmlns:sodipodi="http://sodipodi.sourceforge.net/DTD/sodipodi-0.dtd"
   xmlns:inkscape="http://www.inkscape.org/namespaces/inkscape"
   width="30px"
   height="30px"
   version="1.1"
   id="svg8"
   inkscape:version="0.92.4 5da689c313, 2019-01-14"
   sodipodi:docname="container.svg">
  <defs
     id="defs2" />
  <sodipodi:namedview
     id="base"
     pagecolor="#ffffff"
     bordercolor="#666666"
     borderopacity="1.0"
     inkscape:pageopacity="0.0"
     inkscape:pageshadow="2"
     inkscape:zoom="13.049334"
     inkscape:cx="18.679046"
     inkscape:cy="12.165829"
     inkscape:document-units="px"
     inkscape:current-layer="layer1"
     showgrid="false"
     inkscape:snap-page="false"
     units="px"
     inkscape:window-width="1884"
     inkscape:window-height="1061"
     inkscape:window-x="0"
     inkscape:window-y="0"
     inkscape:window-maximized="1"
     fit-margin-top="0"
     fit-margin-left="0"
     fit-margin-right="0"
     fit-margin-bottom="0" />
  <metadata
     id="metadata5">
    <rdf:RDF>
      <cc:Work
         rdf:about="">
        <dc:format>image/svg+xml</dc:format>
        <dc:type
           rdf:resource="http://purl.org/dc/dcmitype/StillImage" />
        <dc:title></dc:title>
      </cc:Work>
    </rdf:RDF>
  </metadata>
    <circle
       style="color:#000000;clip-rule:nonzero;display:inline;overflow:visible;visibility:visible;opacity:1;isolation:auto;mix-blend-mode:normal;color-interpolation:sRGB;color-interpolation-filters:linearRGB;solid-color:#000000;solid-opacity:1;vector-effect:none;fill:rgba(255, 255, 255, 1);fill-opacity:1;fill-rule:evenodd;stroke:#ffffff;stroke-width:1;stroke-linecap:butt;stroke-linejoin:miter;stroke-miterlimit:4;stroke-dasharray:none;stroke-dashoffset:0;stroke-opacity:1;marker:none;color-rendering:auto;image-rendering:auto;shape-rendering:auto;text-rendering:auto;enable-background:accumulate"
       id="path815"
       cx="15"
       cy="15"
       r="14.5" />
<g transform="translate(6,8)"><g id="surface1">
<path style=" stroke:none;fill-rule:nonzero;fill:#FFFFFF;fill-opacity:1;" d="M 13.835938 11.636719 C 13.433594 12.078125 13.117188 12.425781 12.394531 12.425781 C 11.699219 12.425781 11.402344 12.085938 11.023438 11.652344 C 10.605469 11.171875 10.085938 10.578125 9.003906 10.589844 C 8.078125 10.601562 7.542969 11.050781 7.128906 11.472656 L 6.6875 12 C 6.441406 12.214844 6.066406 12.414062 5.507812 12.425781 C 4.882812 12.441406 4.546875 12.089844 4.117188 11.640625 C 3.652344 11.152344 3.121094 10.601562 2.1875 10.589844 C 1.117188 10.574219 0.582031 11.164062 0.152344 11.636719 C 0.101562 11.695312 0.0507812 11.75 0 11.800781 L 0 12.957031 C 0.335938 12.746094 0.585938 12.472656 0.804688 12.230469 C 1.210938 11.785156 1.5 11.460938 2.175781 11.472656 C 2.714844 11.480469 3.023438 11.773438 3.480469 12.25 C 3.933594 12.722656 4.496094 13.308594 5.46875 13.308594 C 5.488281 13.308594 5.507812 13.308594 5.527344 13.308594 C 6.816406 13.277344 7.410156 12.554688 7.738281 12.109375 C 8.0625 11.75 8.414062 11.480469 9.015625 11.472656 C 9.023438 11.472656 9.03125 11.472656 9.039062 11.472656 C 9.695312 11.472656 9.976562 11.792969 10.359375 12.230469 C 10.777344 12.710938 11.296875 13.308594 12.394531 13.308594 C 13.507812 13.308594 14.050781 12.710938 14.488281 12.230469 C 14.894531 11.785156 15.183594 11.460938 15.859375 11.472656 C 16.332031 11.480469 16.628906 11.703125 17 12.082031 L 17 10.929688 C 16.664062 10.710938 16.269531 10.59375 15.871094 10.589844 C 14.800781 10.574219 14.265625 11.164062 13.835938 11.636719 Z M 13.835938 11.636719 "/>
<path style=" stroke:none;fill-rule:nonzero;fill:#FFFFFF;fill-opacity:1;" d="M 15.792969 8.488281 C 14.726562 8.472656 14.1875 9.066406 13.761719 9.535156 C 13.359375 9.976562 13.042969 10.324219 12.316406 10.324219 C 11.625 10.324219 11.324219 9.984375 10.945312 9.550781 C 10.859375 9.449219 10.765625 9.339844 10.660156 9.234375 L 11.417969 8.761719 C 11.417969 8.761719 12.410156 8.167969 11.515625 7.472656 C 10.625 6.777344 7.449219 6.976562 6.652344 7.175781 C 5.859375 7.375 5.5625 7.96875 5.5625 7.96875 C 5.296875 8.675781 6.757812 9.222656 7.085938 9.335938 C 7.074219 9.347656 7.0625 9.359375 7.054688 9.371094 L 6.609375 9.898438 C 6.367188 10.113281 5.992188 10.3125 5.429688 10.324219 C 4.804688 10.339844 4.472656 9.988281 4.042969 9.539062 C 3.574219 9.050781 3.046875 8.5 2.109375 8.488281 C 1.042969 8.472656 0.503906 9.066406 0.078125 9.535156 C 0.0507812 9.5625 0.0234375 9.589844 0 9.621094 L 0 10.804688 C 0.296875 10.601562 0.523438 10.351562 0.730469 10.128906 C 1.132812 9.6875 1.421875 9.359375 2.101562 9.371094 C 2.640625 9.378906 2.945312 9.671875 3.402344 10.148438 C 3.855469 10.621094 4.417969 11.207031 5.390625 11.207031 C 5.414062 11.207031 5.433594 11.207031 5.453125 11.207031 C 6.738281 11.175781 7.238281 10.511719 7.664062 10.007812 C 8.011719 9.667969 8.335938 9.378906 8.941406 9.371094 C 8.945312 9.371094 8.953125 9.371094 8.960938 9.371094 C 9.621094 9.371094 9.898438 9.691406 10.28125 10.128906 C 10.699219 10.609375 11.222656 11.207031 12.316406 11.207031 C 13.429688 11.207031 13.976562 10.609375 14.414062 10.128906 C 14.816406 9.6875 15.105469 9.359375 15.785156 9.371094 C 16.289062 9.378906 16.589844 9.632812 17 10.058594 L 17 8.878906 C 16.679688 8.65625 16.296875 8.496094 15.792969 8.488281 Z M 15.792969 8.488281 "/>
<path style=" stroke:none;fill-rule:nonzero;fill:#FFFFFF;fill-opacity:1;" d="M 9.71875 0.5 C 10.144531 0.925781 10.144531 1.617188 9.71875 2.042969 C 9.292969 2.472656 8.601562 2.472656 8.175781 2.042969 C 7.746094 1.617188 7.746094 0.925781 8.175781 0.5 C 8.601562 0.0742188 9.292969 0.0742188 9.71875 0.5 Z M 9.71875 0.5 "/>
<path style=" stroke:none;fill-rule:nonzero;fill:#FFFFFF;fill-opacity:1;" d="M 16.292969 0.398438 C 15.902344 -0.25 15.480469 0.0546875 15.199219 0.199219 C 14.613281 0.492188 14.433594 1.210938 14.042969 1.453125 L 13.886719 1.523438 C 13.863281 1.527344 13.839844 1.53125 13.816406 1.535156 L 13.828125 1.546875 L 11.949219 2.355469 C 11.914062 2.328125 11.875 2.308594 11.832031 2.300781 L 11.609375 2.253906 C 11.457031 2.222656 11.308594 2.320312 11.273438 2.472656 L 11.234375 2.660156 L 10.390625 3.023438 L 10.132812 2.734375 C 10.089844 2.6875 10.066406 2.65625 10.023438 2.605469 C 9.972656 2.554688 9.902344 2.527344 9.832031 2.53125 C 9.800781 2.535156 9.765625 2.535156 9.714844 2.542969 C 9.351562 2.863281 8.816406 2.902344 8.40625 2.636719 C 8.351562 2.632812 8.300781 2.628906 8.257812 2.628906 C 8.191406 2.625 8.058594 2.722656 7.996094 2.761719 L 5.117188 4.839844 C 4.953125 4.945312 4.90625 5.164062 5.011719 5.324219 L 4.960938 5.265625 C 4.976562 5.289062 4.996094 5.3125 5.019531 5.332031 L 3.816406 5.851562 C 3.269531 5.828125 2.949219 5.441406 1.949219 5.933594 C 1.609375 6.101562 1.363281 6.519531 1.753906 7.171875 C 2.144531 7.820312 2.5625 7.515625 2.847656 7.375 C 3.402344 7.097656 3.59375 6.4375 3.945312 6.160156 L 4.226562 6.039062 C 4.230469 6.039062 4.230469 6.039062 4.234375 6.039062 L 4.230469 6.039062 L 7.535156 4.609375 L 7.265625 6.796875 L 10.144531 6.796875 L 10.144531 3.890625 C 10.144531 3.890625 10.933594 4.886719 11.054688 4.914062 C 11.054688 4.914062 11.179688 5.058594 11.335938 5.007812 C 11.492188 4.960938 11.535156 4.910156 11.613281 4.742188 L 12.082031 2.625 L 14.183594 1.71875 C 14.824219 1.679688 15.476562 1.894531 16.296875 1.4375 C 16.53125 1.304688 16.683594 1.046875 16.292969 0.398438 Z M 7.578125 4.234375 L 6.441406 4.722656 L 7.613281 3.960938 Z M 11.011719 3.726562 L 10.617188 3.277344 L 11.15625 3.046875 Z M 11.011719 3.726562 "/>
</g>
</g>
</svg>
