<?xml version="1.0" encoding="UTF-8"?>
<svg xmlns="http://www.w3.org/2000/svg" xmlns:xlink="http://www.w3.org/1999/xlink" width="11" height="10.569742" viewBox="0 0 11 10.569742" version="1.1">
<g id="surface1">
<path style=" stroke:none;fill-rule:nonzero;fill:rgb(30%,30%,30%);fill-opacity:1;" d="M 7.691406 0.0195312 L 7.667969 0 L 7.664062 0.00390625 L 7.660156 0 L 7.632812 0.0195312 L 4.203125 2.15625 L 4.554688 2.4375 L 7.664062 0.5 L 10.644531 2.382812 L 11 2.101562 Z M 7.691406 0.0195312 "/>
<path style=" stroke:none;fill-rule:nonzero;fill:rgb(30%,30%,30%);fill-opacity:1;" d="M 9.058594 6.820312 C 9.425781 6.320312 9.71875 5.722656 9.855469 5.429688 L 10.773438 5.429688 L 10.773438 4.886719 L 10.253906 4.886719 L 10.253906 2.519531 L 7.660156 0.925781 L 5.003906 2.519531 L 5.003906 4.886719 L 4.640625 4.886719 L 4.640625 5.429688 L 5.535156 5.429688 C 5.621094 5.628906 5.695312 5.832031 5.757812 6.039062 C 6.035156 7 6.371094 8.476562 6.152344 8.273438 C 6.035156 8.171875 5.671875 7.867188 5.351562 7.597656 C 5.589844 7.484375 5.746094 7.289062 5.746094 7.066406 C 5.746094 6.789062 5.496094 6.546875 5.175781 6.453125 C 5.242188 6.367188 5.28125 6.257812 5.28125 6.148438 C 5.28125 5.789062 4.886719 5.507812 4.402344 5.507812 C 4.25 5.507812 4.101562 5.535156 3.964844 5.59375 C 3.847656 5.332031 3.511719 5.132812 3.109375 5.132812 C 2.714844 5.132812 2.382812 5.316406 2.265625 5.570312 C 2.09375 5.464844 1.894531 5.414062 1.691406 5.417969 C 1.257812 5.417969 0.894531 5.640625 0.820312 5.933594 L 0.800781 5.933594 C 0.316406 5.933594 0 6.234375 0 6.59375 C 0 6.804688 0.0742188 6.984375 0.304688 7.101562 C 0.257812 7.175781 0.234375 7.261719 0.234375 7.347656 C 0.234375 7.707031 0.628906 7.988281 1.113281 7.988281 C 1.253906 7.988281 1.394531 7.964844 1.527344 7.914062 C 1.5625 8.246094 1.945312 8.5 2.40625 8.5 C 2.636719 8.507812 2.859375 8.4375 3.046875 8.304688 C 3.234375 8.4375 3.457031 8.503906 3.6875 8.5 C 4.160156 8.5 4.550781 8.230469 4.566406 7.882812 C 4.847656 8.132812 5.210938 8.476562 5.394531 8.722656 C 5.71875 9.167969 6.199219 9.859375 6.246094 10.359375 C 6.253906 10.429688 6.257812 10.5 6.261719 10.570312 L 7.6875 10.570312 C 7.652344 9.96875 7.578125 9.203125 7.515625 8.734375 C 7.453125 8.210938 8.578125 7.460938 9.058594 6.820312 Z M 6.835938 3.648438 C 6.835938 3.523438 6.980469 2.925781 7.675781 2.902344 C 8.304688 2.925781 8.484375 3.523438 8.484375 3.648438 L 8.484375 4.886719 L 6.835938 4.886719 Z M 7.128906 7.28125 C 7.128906 7.28125 6.957031 6.664062 6.707031 5.960938 C 6.636719 5.777344 6.558594 5.601562 6.46875 5.429688 L 8.910156 5.429688 C 8.722656 5.765625 8.390625 6.320312 8.1875 6.507812 C 7.441406 7.214844 7.128906 7.28125 7.128906 7.28125 Z M 7.128906 7.28125 "/>
</g>
</svg>
