<?xml version="1.0" encoding="UTF-8"?>
<svg xmlns="http://www.w3.org/2000/svg" xmlns:xlink="http://www.w3.org/1999/xlink" width="11" height="11" viewBox="0 0 11 11" version="1.1">
<g id="surface1">
<path style=" stroke:none;fill-rule:nonzero;fill:rgb(30%,30%,30%);fill-opacity:1;" d="M 1.910156 1.992188 C 1.910156 1.585938 2.234375 1.257812 2.640625 1.257812 C 3.046875 1.257812 3.375 1.585938 3.375 1.992188 C 3.375 2.398438 3.046875 2.726562 2.640625 2.726562 C 2.234375 2.726562 1.910156 2.398438 1.910156 1.992188 Z M 4.957031 4.933594 L 4.042969 4.480469 C 4.03125 4.476562 4.027344 4.46875 4.023438 4.460938 C 4.015625 4.445312 4.007812 4.429688 3.996094 4.414062 L 3.273438 3.253906 C 3.132812 3.027344 2.996094 2.945312 2.796875 2.945312 L 2.316406 2.945312 C 2.164062 2.945312 2.027344 3.035156 1.964844 3.167969 L 1.421875 3.167969 C 1.40625 3.167969 1.390625 3.175781 1.382812 3.191406 L 1.003906 4 C 1.003906 4.007812 1.003906 4.011719 1.003906 4.019531 L 1.003906 5.484375 C 1.003906 5.507812 1.019531 5.523438 1.042969 5.523438 L 1.886719 5.523438 C 1.910156 5.523438 1.925781 5.542969 1.925781 5.566406 L 1.925781 5.589844 C 1.925781 5.59375 1.925781 5.601562 1.925781 5.605469 L 0.230469 9.359375 C 0.140625 9.566406 0.230469 9.804688 0.4375 9.898438 C 0.640625 9.988281 0.882812 9.898438 0.972656 9.695312 L 2.449219 6.417969 C 2.457031 6.402344 2.472656 6.394531 2.488281 6.394531 L 2.707031 6.394531 C 2.726562 6.394531 2.738281 6.402344 2.746094 6.417969 L 4.1875 9.667969 C 4.28125 9.875 4.519531 9.964844 4.726562 9.875 C 4.929688 9.785156 5.023438 9.542969 4.933594 9.339844 L 3.191406 5.421875 C 3.191406 5.417969 3.1875 5.410156 3.1875 5.40625 L 3.1875 4.371094 C 3.1875 4.332031 3.238281 4.316406 3.261719 4.347656 L 3.46875 4.625 C 3.582031 4.765625 3.625 4.890625 3.722656 4.933594 L 4.523438 5.28125 L 4.777344 5.398438 C 4.917969 5.457031 5.082031 5.394531 5.144531 5.253906 C 5.179688 5.101562 5.097656 5 4.957031 4.933594 Z M 8.546875 1.699219 L 7.984375 1.699219 C 7.941406 1.476562 7.785156 1.015625 7.273438 1.023438 C 6.539062 1.03125 6.503906 1.820312 6.503906 1.820312 L 6.535156 1.820312 C 6.523438 1.871094 6.519531 1.925781 6.519531 1.980469 C 6.519531 2.386719 6.847656 2.710938 7.25 2.710938 C 7.65625 2.710938 7.984375 2.386719 7.984375 1.980469 C 7.984375 1.921875 7.976562 1.867188 7.964844 1.8125 L 8.546875 1.8125 C 8.578125 1.8125 8.601562 1.785156 8.601562 1.753906 C 8.601562 1.722656 8.578125 1.699219 8.546875 1.699219 Z M 10.105469 5.121094 L 10.109375 4.71875 C 10.109375 4.652344 10.054688 4.597656 9.988281 4.597656 C 9.921875 4.597656 9.867188 4.652344 9.867188 4.71875 L 9.867188 5 L 8.761719 4.4375 C 8.753906 4.433594 8.746094 4.425781 8.742188 4.417969 C 8.734375 4.402344 8.726562 4.386719 8.714844 4.371094 L 7.992188 3.210938 C 7.851562 2.984375 7.714844 2.902344 7.519531 2.902344 L 7.039062 2.902344 C 6.882812 2.902344 6.746094 2.996094 6.683594 3.125 L 6.140625 3.125 C 6.125 3.125 6.109375 3.136719 6.101562 3.148438 L 5.726562 3.957031 C 5.722656 3.964844 5.722656 3.96875 5.722656 3.976562 L 5.722656 5.441406 C 5.722656 5.464844 5.742188 5.480469 5.761719 5.480469 L 6.605469 5.480469 C 6.628906 5.480469 6.648438 5.5 6.648438 5.523438 L 6.648438 5.546875 C 6.648438 5.554688 6.644531 5.558594 6.644531 5.566406 L 4.953125 9.316406 C 4.859375 9.519531 4.953125 9.761719 5.15625 9.855469 C 5.359375 9.945312 5.601562 9.855469 5.695312 9.652344 L 7.171875 6.375 C 7.175781 6.359375 7.191406 6.347656 7.207031 6.347656 L 7.429688 6.347656 C 7.445312 6.347656 7.460938 6.359375 7.464844 6.375 L 8.910156 9.625 C 9 9.828125 9.242188 9.921875 9.445312 9.832031 C 9.648438 9.742188 9.742188 9.5 9.652344 9.296875 L 7.914062 5.378906 C 7.910156 5.371094 7.910156 5.367188 7.910156 5.363281 L 7.910156 4.328125 C 7.910156 4.289062 7.960938 4.273438 7.984375 4.304688 L 8.191406 4.582031 C 8.300781 4.722656 8.34375 4.84375 8.441406 4.890625 L 9.664062 5.460938 L 9.863281 5.550781 L 9.84375 9.789062 C 9.84375 9.855469 9.898438 9.910156 9.964844 9.910156 C 10.03125 9.910156 10.085938 9.855469 10.085938 9.789062 L 10.105469 5.589844 C 10.183594 5.566406 10.25 5.511719 10.289062 5.433594 C 10.320312 5.285156 10.242188 5.183594 10.105469 5.121094 Z M 10.105469 5.121094 "/>
</g>
</svg>
