<?xml version="1.0" encoding="UTF-8"?>
<svg xmlns="http://www.w3.org/2000/svg" xmlns:xlink="http://www.w3.org/1999/xlink" width="11" height="10.648719" viewBox="0 0 11 10.648719" version="1.1">
<g id="surface1">
<path style=" stroke:none;fill-rule:nonzero;fill:rgb(30%,30%,30%);fill-opacity:1;" d="M 10.042969 9.734375 C 9.867188 9.726562 9.691406 9.582031 9.492188 9.417969 C 9.191406 9.175781 8.855469 8.898438 8.398438 8.960938 C 8.101562 9.003906 7.886719 9.195312 7.675781 9.378906 C 7.445312 9.582031 7.226562 9.777344 6.875 9.761719 C 6.679688 9.757812 6.492188 9.617188 6.277344 9.453125 C 5.957031 9.210938 5.59375 8.9375 5.089844 8.988281 C 4.804688 9.019531 4.578125 9.195312 4.355469 9.367188 C 4.113281 9.558594 3.882812 9.738281 3.554688 9.738281 C 3.355469 9.738281 3.15625 9.589844 2.929688 9.417969 C 2.636719 9.203125 2.308594 8.957031 1.910156 8.988281 C 1.621094 9.015625 1.34375 9.207031 1.078125 9.394531 C 0.824219 9.570312 0.585938 9.738281 0.371094 9.738281 C 0.304688 9.738281 0.242188 9.730469 0.179688 9.714844 C 0.136719 9.703125 0.0898438 9.710938 0.0546875 9.738281 C 0.0195312 9.765625 0 9.804688 0 9.847656 L 0.00390625 10.453125 C 0.00390625 10.515625 0.0429688 10.570312 0.105469 10.589844 C 0.191406 10.609375 0.28125 10.625 0.371094 10.625 C 0.671875 10.625 0.964844 10.421875 1.242188 10.222656 C 1.488281 10.050781 1.71875 9.890625 1.929688 9.875 C 2.226562 9.847656 2.480469 10.039062 2.753906 10.242188 C 3.003906 10.429688 3.265625 10.621094 3.554688 10.621094 C 3.980469 10.621094 4.277344 10.390625 4.539062 10.183594 C 4.738281 10.027344 4.910156 9.894531 5.117188 9.871094 C 5.511719 9.832031 5.8125 10.054688 6.097656 10.273438 C 6.339844 10.453125 6.585938 10.636719 6.863281 10.648438 C 6.878906 10.648438 6.894531 10.648438 6.90625 10.648438 C 7.34375 10.648438 7.628906 10.398438 7.878906 10.179688 C 8.066406 10.015625 8.226562 9.875 8.433594 9.84375 C 8.773438 9.796875 9.027344 10.007812 9.300781 10.226562 C 9.527344 10.414062 9.761719 10.605469 10.03125 10.621094 C 10.050781 10.621094 10.066406 10.621094 10.085938 10.621094 C 10.417969 10.621094 10.722656 10.464844 10.941406 10.3125 C 10.976562 10.285156 11 10.242188 11 10.199219 L 11 9.59375 C 11 9.480469 10.871094 9.414062 10.78125 9.480469 C 10.59375 9.609375 10.328125 9.75 10.042969 9.734375 Z M 10.042969 9.734375 "/>
<path style=" stroke:none;fill-rule:nonzero;fill:rgb(30%,30%,30%);fill-opacity:1;" d="M 10.121094 7.054688 L 8.613281 7.054688 L 8.570312 3.367188 C 8.570312 3.332031 8.585938 3.292969 8.613281 3.265625 C 8.636719 3.242188 8.675781 3.226562 8.710938 3.226562 L 9.726562 3.226562 C 9.804688 3.226562 9.867188 3.164062 9.867188 3.085938 L 9.867188 2.566406 C 9.867188 2.519531 9.839844 2.472656 9.796875 2.445312 L 5.480469 0.03125 C 5.445312 0.0117188 5.40625 0 5.367188 0 L 5.332031 0 C 5.292969 0 5.257812 0.0078125 5.226562 0.0273438 L 0.90625 2.445312 C 0.863281 2.472656 0.835938 2.519531 0.835938 2.566406 L 0.835938 3.066406 C 0.835938 3.144531 0.898438 3.226562 0.972656 3.226562 L 1.953125 3.226562 C 1.992188 3.226562 2.027344 3.242188 2.054688 3.265625 C 2.082031 3.292969 2.09375 3.328125 2.09375 3.367188 L 2.082031 7.054688 L 0.414062 7.054688 C 0.222656 7.054688 0.0703125 7.199219 0.0703125 7.378906 L 0.0703125 7.941406 C 0.0703125 8.117188 0.222656 8.261719 0.414062 8.261719 L 10.121094 8.261719 C 10.308594 8.261719 10.460938 8.117188 10.460938 7.941406 L 10.460938 7.378906 C 10.460938 7.199219 10.308594 7.054688 10.121094 7.054688 Z M 4.558594 3.828125 L 4.558594 7.054688 L 3.234375 7.054688 L 3.234375 3.828125 C 3.234375 3.570312 3.503906 3.363281 3.835938 3.363281 L 3.957031 3.363281 C 4.289062 3.363281 4.558594 3.570312 4.558594 3.828125 Z M 7.449219 3.828125 L 7.449219 7.054688 L 6.125 7.054688 L 6.125 3.828125 C 6.125 3.570312 6.394531 3.363281 6.726562 3.363281 L 6.847656 3.363281 C 7.179688 3.363281 7.449219 3.570312 7.449219 3.828125 Z M 7.449219 3.828125 "/>
</g>
</svg>
