<?xml version="1.0" encoding="UTF-8" standalone="no"?>
<!-- Created with Inkscape (http://www.inkscape.org/) -->

<svg
   xmlns:dc="http://purl.org/dc/elements/1.1/"
   xmlns:cc="http://creativecommons.org/ns#"
   xmlns:rdf="http://www.w3.org/1999/02/22-rdf-syntax-ns#"
   xmlns:svg="http://www.w3.org/2000/svg"
   xmlns="http://www.w3.org/2000/svg"
   xmlns:xlink="http://www.w3.org/1999/xlink"
   xmlns:sodipodi="http://sodipodi.sourceforge.net/DTD/sodipodi-0.dtd"
   xmlns:inkscape="http://www.inkscape.org/namespaces/inkscape"
   width="30px"
   height="30px"
   version="1.1"
   id="svg8"
   inkscape:version="0.92.4 5da689c313, 2019-01-14"
   sodipodi:docname="container.svg">
  <defs
     id="defs2" />
  <sodipodi:namedview
     id="base"
     pagecolor="#ffffff"
     bordercolor="#666666"
     borderopacity="1.0"
     inkscape:pageopacity="0.0"
     inkscape:pageshadow="2"
     inkscape:zoom="13.049334"
     inkscape:cx="18.679046"
     inkscape:cy="12.165829"
     inkscape:document-units="px"
     inkscape:current-layer="layer1"
     showgrid="false"
     inkscape:snap-page="false"
     units="px"
     inkscape:window-width="1884"
     inkscape:window-height="1061"
     inkscape:window-x="0"
     inkscape:window-y="0"
     inkscape:window-maximized="1"
     fit-margin-top="0"
     fit-margin-left="0"
     fit-margin-right="0"
     fit-margin-bottom="0" />
  <metadata
     id="metadata5">
    <rdf:RDF>
      <cc:Work
         rdf:about="">
        <dc:format>image/svg+xml</dc:format>
        <dc:type
           rdf:resource="http://purl.org/dc/dcmitype/StillImage" />
        <dc:title></dc:title>
      </cc:Work>
    </rdf:RDF>
  </metadata>
    <circle
       style="color:#000000;clip-rule:nonzero;display:inline;overflow:visible;visibility:visible;opacity:1;isolation:auto;mix-blend-mode:normal;color-interpolation:sRGB;color-interpolation-filters:linearRGB;solid-color:#000000;solid-opacity:1;vector-effect:none;fill:#ffffff;fill-opacity:1;fill-rule:evenodd;stroke:rgba(255, 255, 255, 1);stroke-width:1;stroke-linecap:butt;stroke-linejoin:miter;stroke-miterlimit:4;stroke-dasharray:none;stroke-dashoffset:0;stroke-opacity:1;marker:none;color-rendering:auto;image-rendering:auto;shape-rendering:auto;text-rendering:auto;enable-background:accumulate"
       id="path815"
       cx="15"
       cy="15"
       r="14.5" />
<g transform="translate(7,6)"><g id="surface1">
<path style=" stroke:none;fill-rule:nonzero;fill:rgb(30%,30%,30%);fill-opacity:1;" d="M 4.050781 2.101562 C 5.136719 2.101562 6.015625 2.972656 6.015625 4.050781 C 6.015625 5.128906 5.136719 6.003906 4.050781 6.003906 C 2.964844 6.003906 2.085938 5.128906 2.085938 4.050781 C 2.085938 2.972656 2.964844 2.101562 4.050781 2.101562 M 1.609375 3.8125 C 1.65625 3.316406 1.859375 2.851562 2.179688 2.476562 L 0 2.363281 Z M 2.484375 2.175781 C 2.867188 1.859375 3.34375 1.664062 3.839844 1.625 L 2.371094 0 Z M 6.492188 3.804688 L 8.09375 2.363281 L 5.921875 2.472656 C 6.242188 2.847656 6.441406 3.3125 6.492188 3.804688 M 5.613281 2.171875 L 5.726562 0 L 4.253906 1.621094 C 4.753906 1.664062 5.226562 1.855469 5.613281 2.171875 M 2.371094 8.070312 L 3.8125 6.480469 C 3.324219 6.433594 2.859375 6.238281 2.480469 5.925781 Z M 5.949219 5.597656 L 8.09375 5.703125 L 6.496094 4.265625 C 6.453125 4.753906 6.261719 5.21875 5.949219 5.597656 M 4.285156 6.480469 L 5.722656 8.070312 L 5.617188 5.929688 C 5.238281 6.242188 4.773438 6.433594 4.285156 6.480469 M 0 5.707031 L 2.152344 5.59375 C 1.839844 5.214844 1.648438 4.75 1.609375 4.257812 Z M 13.105469 4.199219 C 12.394531 4.195312 11.816406 4.773438 11.8125 5.488281 C 11.8125 6.199219 12.394531 6.773438 13.105469 6.773438 C 13.820312 6.773438 14.402344 6.199219 14.402344 5.488281 C 14.398438 4.773438 13.820312 4.195312 13.105469 4.199219 M 15.5 8 C 15.335938 7.804688 15.050781 7.78125 14.855469 7.941406 L 13.46875 9.089844 L 12.882812 7.488281 C 12.855469 7.414062 12.675781 6.976562 12.300781 6.785156 L 12.160156 6.714844 C 12.007812 6.636719 9.320312 5.941406 9.320312 5.941406 C 9.078125 5.871094 8.824219 6.011719 8.75 6.253906 C 8.75 6.257812 8.75 6.261719 8.746094 6.269531 L 7.871094 8.488281 C 7.777344 8.722656 7.894531 8.988281 8.132812 9.082031 C 8.367188 9.171875 8.632812 9.058594 8.726562 8.824219 L 9.472656 6.9375 L 10.558594 7.25 L 8.902344 10.726562 C 8.882812 10.765625 7.433594 13.109375 7.433594 13.109375 L 4.839844 14.003906 C 4.613281 14.082031 4.445312 14.273438 4.402344 14.507812 C 4.355469 14.742188 4.441406 14.984375 4.621094 15.136719 C 4.800781 15.292969 5.050781 15.339844 5.277344 15.261719 L 8.359375 14.199219 C 8.496094 14.148438 9.628906 12.226562 9.628906 12.226562 C 9.628906 12.230469 9.632812 12.234375 9.636719 12.234375 L 11.382812 13.640625 L 10.722656 14.398438 L 9.378906 15.929688 C 9.179688 16.15625 9.203125 16.5 9.429688 16.703125 L 9.617188 16.863281 C 9.84375 17.0625 10.1875 17.039062 10.386719 16.8125 L 12.574219 14.324219 C 12.601562 14.292969 12.625 14.261719 12.644531 14.226562 L 12.695312 14.164062 C 12.714844 14.144531 12.726562 14.121094 12.738281 14.101562 C 12.789062 14.066406 12.832031 14.023438 12.867188 13.980469 C 12.980469 13.839844 13.03125 13.664062 13.011719 13.488281 C 12.992188 13.316406 12.90625 13.152344 12.769531 13.042969 L 11.203125 11.785156 L 12.492188 9.085938 L 12.851562 10.070312 C 12.9375 10.304688 13.199219 10.429688 13.4375 10.34375 C 13.5625 10.296875 15.441406 8.644531 15.441406 8.644531 C 15.535156 8.566406 15.59375 8.457031 15.605469 8.335938 C 15.617188 8.214844 15.578125 8.09375 15.5 8 Z M 15.5 8 "/>
</g>
</g>
</svg>
