<?xml version="1.0" encoding="UTF-8"?>
<svg xmlns="http://www.w3.org/2000/svg" xmlns:xlink="http://www.w3.org/1999/xlink" width="7.246693" height="11" viewBox="0 0 7.246693 11" version="1.1">
<g id="surface1">
<path style=" stroke:none;fill-rule:nonzero;fill:rgb(30%,30%,30%);fill-opacity:1;" d="M 0.902344 3.796875 L 6.234375 3.796875 C 6.273438 3.796875 6.308594 3.773438 6.324219 3.738281 C 6.339844 3.703125 6.332031 3.660156 6.304688 3.632812 L 5.363281 2.617188 C 5.347656 2.597656 5.335938 2.574219 5.335938 2.550781 L 5.335938 0.0976562 C 5.335938 0.0429688 5.292969 0 5.238281 0 L 1.875 0 C 1.820312 0 1.777344 0.0429688 1.777344 0.0976562 L 1.777344 2.585938 C 1.777344 2.613281 1.765625 2.636719 1.75 2.65625 L 0.828125 3.632812 C 0.804688 3.660156 0.796875 3.703125 0.8125 3.738281 C 0.828125 3.773438 0.863281 3.796875 0.902344 3.796875 Z M 0.902344 3.796875 "/>
<path style=" stroke:none;fill-rule:nonzero;fill:rgb(30%,30%,30%);fill-opacity:1;" d="M 3.554688 6.0625 L 0 6.0625 L 0 11 L 7.246094 11 L 7.246094 6.0625 Z M 4.65625 6.628906 C 4.761719 6.628906 4.84375 6.710938 4.84375 6.816406 C 4.84375 6.917969 4.761719 7.003906 4.65625 7.003906 C 4.550781 7.003906 4.46875 6.917969 4.46875 6.816406 C 4.46875 6.710938 4.550781 6.628906 4.65625 6.628906 Z M 3.976562 6.609375 C 4.082031 6.609375 4.164062 6.695312 4.164062 6.796875 C 4.164062 6.902344 4.082031 6.988281 3.976562 6.988281 C 3.871094 6.988281 3.789062 6.902344 3.789062 6.796875 C 3.789062 6.695312 3.871094 6.609375 3.976562 6.609375 Z M 3.101562 6.628906 C 3.207031 6.628906 3.289062 6.710938 3.289062 6.816406 C 3.289062 6.917969 3.207031 7.003906 3.101562 7.003906 C 2.996094 7.003906 2.914062 6.917969 2.914062 6.816406 C 2.914062 6.710938 2.996094 6.628906 3.101562 6.628906 Z M 2.421875 6.609375 C 2.527344 6.609375 2.609375 6.695312 2.609375 6.796875 C 2.609375 6.902344 2.527344 6.988281 2.421875 6.988281 C 2.320312 6.988281 2.234375 6.902344 2.234375 6.796875 C 2.234375 6.695312 2.320312 6.609375 2.421875 6.609375 Z M 5.324219 9.90625 L 1.835938 9.90625 L 1.835938 7.757812 L 5.324219 7.757812 Z M 5.324219 9.90625 "/>
</g>
</svg>
