<?xml version="1.0" encoding="UTF-8" standalone="no"?>
<!-- Created with Inkscape (http://www.inkscape.org/) -->

<svg
   xmlns:dc="http://purl.org/dc/elements/1.1/"
   xmlns:cc="http://creativecommons.org/ns#"
   xmlns:rdf="http://www.w3.org/1999/02/22-rdf-syntax-ns#"
   xmlns:svg="http://www.w3.org/2000/svg"
   xmlns="http://www.w3.org/2000/svg"
   xmlns:xlink="http://www.w3.org/1999/xlink"
   xmlns:sodipodi="http://sodipodi.sourceforge.net/DTD/sodipodi-0.dtd"
   xmlns:inkscape="http://www.inkscape.org/namespaces/inkscape"
   width="30px"
   height="30px"
   version="1.1"
   id="svg8"
   inkscape:version="0.92.4 5da689c313, 2019-01-14"
   sodipodi:docname="container.svg">
  <defs
     id="defs2" />
  <sodipodi:namedview
     id="base"
     pagecolor="#ffffff"
     bordercolor="#666666"
     borderopacity="1.0"
     inkscape:pageopacity="0.0"
     inkscape:pageshadow="2"
     inkscape:zoom="13.049334"
     inkscape:cx="18.679046"
     inkscape:cy="12.165829"
     inkscape:document-units="px"
     inkscape:current-layer="layer1"
     showgrid="false"
     inkscape:snap-page="false"
     units="px"
     inkscape:window-width="1884"
     inkscape:window-height="1061"
     inkscape:window-x="0"
     inkscape:window-y="0"
     inkscape:window-maximized="1"
     fit-margin-top="0"
     fit-margin-left="0"
     fit-margin-right="0"
     fit-margin-bottom="0" />
  <metadata
     id="metadata5">
    <rdf:RDF>
      <cc:Work
         rdf:about="">
        <dc:format>image/svg+xml</dc:format>
        <dc:type
           rdf:resource="http://purl.org/dc/dcmitype/StillImage" />
        <dc:title></dc:title>
      </cc:Work>
    </rdf:RDF>
  </metadata>
    <circle
       style="color:#000000;clip-rule:nonzero;display:inline;overflow:visible;visibility:visible;opacity:1;isolation:auto;mix-blend-mode:normal;color-interpolation:sRGB;color-interpolation-filters:linearRGB;solid-color:#000000;solid-opacity:1;vector-effect:none;fill:rgba(255, 255, 255, 1);fill-opacity:1;fill-rule:evenodd;stroke:#ffffff;stroke-width:1;stroke-linecap:butt;stroke-linejoin:miter;stroke-miterlimit:4;stroke-dasharray:none;stroke-dashoffset:0;stroke-opacity:1;marker:none;color-rendering:auto;image-rendering:auto;shape-rendering:auto;text-rendering:auto;enable-background:accumulate"
       id="path815"
       cx="15"
       cy="15"
       r="14.5" />
<g transform="translate(6,6)"><g id="surface1">
<path style=" stroke:none;fill-rule:nonzero;fill:#FFFFFF;fill-opacity:1;" d="M 13.644531 7.949219 L 11.21875 6.71875 C 11.203125 6.710938 11.191406 6.699219 11.183594 6.679688 C 11.171875 6.652344 11.15625 6.625 11.136719 6.597656 L 9.824219 4.480469 C 9.566406 4.074219 9.316406 3.921875 8.960938 3.921875 L 8.085938 3.921875 C 7.804688 3.921875 7.558594 4.089844 7.445312 4.328125 L 6.453125 4.328125 C 6.425781 4.328125 6.398438 4.34375 6.386719 4.371094 L 5.699219 5.84375 C 5.691406 5.851562 5.691406 5.863281 5.691406 5.875 L 5.691406 8.539062 C 5.691406 8.578125 5.726562 8.613281 5.765625 8.613281 L 7.300781 8.613281 C 7.339844 8.613281 7.375 8.648438 7.375 8.6875 L 7.375 8.734375 C 7.375 8.746094 7.371094 8.753906 7.367188 8.765625 L 4.289062 15.589844 C 4.125 15.960938 4.289062 16.402344 4.660156 16.566406 L 4.664062 16.566406 C 5.035156 16.734375 5.472656 16.566406 5.640625 16.199219 L 8.324219 10.238281 C 8.335938 10.210938 8.363281 10.191406 8.394531 10.191406 L 8.792969 10.191406 C 8.820312 10.191406 8.847656 10.210938 8.859375 10.238281 L 10.488281 13.90625 L 9.28125 16.617188 C 9.222656 16.746094 9.28125 16.894531 9.410156 16.953125 C 9.445312 16.96875 9.480469 16.976562 9.511719 16.976562 C 9.609375 16.976562 9.703125 16.921875 9.746094 16.824219 L 10.765625 14.535156 L 11.484375 16.148438 C 11.648438 16.519531 12.085938 16.6875 12.460938 16.523438 C 12.832031 16.359375 13 15.921875 12.835938 15.546875 L 11.585938 12.734375 C 11.582031 12.71875 11.582031 12.703125 11.585938 12.691406 L 13.324219 8.789062 C 13.578125 8.898438 13.875 8.785156 13.988281 8.53125 C 14.054688 8.253906 13.902344 8.066406 13.644531 7.949219 Z M 11.296875 12.085938 L 9.671875 8.429688 C 9.667969 8.417969 9.667969 8.40625 9.667969 8.398438 L 9.667969 6.519531 C 9.667969 6.449219 9.757812 6.417969 9.800781 6.476562 L 10.175781 6.980469 C 10.378906 7.234375 10.457031 7.460938 10.636719 7.542969 L 12.855469 8.578125 Z M 9.851562 2.210938 C 9.851562 2.949219 9.253906 3.542969 8.519531 3.542969 C 7.78125 3.542969 7.1875 2.949219 7.1875 2.210938 C 7.1875 1.476562 7.78125 0.878906 8.519531 0.878906 C 9.253906 0.878906 9.851562 1.476562 9.851562 2.210938 Z M 9.851562 2.210938 "/>
</g>
</g>
</svg>
