<?xml version="1.0" encoding="UTF-8"?>
<svg xmlns="http://www.w3.org/2000/svg" xmlns:xlink="http://www.w3.org/1999/xlink" width="11" height="10.085353" viewBox="0 0 11 10.085353" version="1.1">
<g id="surface1">
<path style=" stroke:none;fill-rule:nonzero;fill:rgb(30%,30%,30%);fill-opacity:1;" d="M 9.046875 3.433594 C 8.945312 3.480469 9.132812 3.734375 9.058594 3.988281 C 8.984375 4.242188 9.078125 4.316406 9.332031 4.335938 C 10.394531 4.414062 11.070312 3.773438 10.996094 3.632812 C 10.917969 3.488281 10.023438 3.769531 9.726562 3.679688 C 9.425781 3.582031 9.214844 3.359375 9.046875 3.433594 Z M 9.046875 3.433594 "/>
<path style=" stroke:none;fill-rule:nonzero;fill:rgb(30%,30%,30%);fill-opacity:1;" d="M 8.296875 2.777344 C 7.96875 2.351562 7.5625 1.261719 7.160156 0.792969 C 6.257812 -0.253906 4.550781 -0.136719 3.351562 0.414062 C 2.742188 0.699219 1.894531 1.582031 0.589844 1.46875 C 0.589844 1.46875 0.382812 1.460938 0 1.417969 L 0 6.824219 C 0.0546875 6.871094 0.113281 6.914062 0.175781 6.921875 C 0.410156 6.949219 0.832031 6.71875 1.285156 6.59375 C 2.707031 6.191406 2.878906 6.378906 2.902344 6.507812 C 2.917969 6.621094 2.441406 6.78125 2.289062 6.828125 C 2.140625 6.875 1.941406 7.0625 1.648438 7.070312 C 1.359375 7.082031 1.425781 7.003906 1.339844 6.976562 C 1.253906 6.949219 1.125 7.097656 0.953125 7.136719 C 0.785156 7.175781 0.777344 7.097656 0.71875 7.128906 C 0.605469 7.183594 0.332031 7.699219 0.242188 7.910156 C 0.226562 7.941406 0.226562 7.976562 0.242188 8.011719 C 0.257812 8.042969 0.28125 8.066406 0.316406 8.078125 C 0.40625 8.109375 0.613281 8.039062 0.746094 8.03125 C 0.992188 8.011719 1.09375 7.523438 1.746094 7.523438 C 2.167969 7.523438 3.324219 7.082031 3.390625 7.109375 C 3.457031 7.136719 3.582031 7.277344 3.792969 7.4375 C 4.339844 7.851562 4.441406 8.546875 4.460938 8.859375 C 4.480469 9.167969 4.515625 9.328125 4.628906 9.441406 C 4.742188 9.554688 4.746094 9.625 4.816406 9.855469 C 4.875 10.03125 5.078125 9.902344 5.308594 9.984375 C 5.488281 10.050781 5.625 10.074219 5.710938 10.085938 C 5.742188 10.089844 5.773438 10.078125 5.796875 10.058594 C 5.820312 10.035156 5.832031 10.007812 5.832031 9.976562 C 5.828125 9.855469 5.820312 9.675781 5.816406 9.648438 C 5.804688 9.601562 5.167969 9.261719 4.816406 8.753906 C 4.71875 8.609375 4.375 7.171875 4.28125 6.765625 C 4.273438 6.742188 4.28125 6.71875 4.296875 6.699219 C 4.3125 6.683594 4.339844 6.675781 4.363281 6.679688 L 4.707031 6.722656 C 4.921875 6.714844 5.25 6.460938 5.324219 5.941406 C 5.375 5.617188 5.464844 5.332031 5.570312 5.230469 C 5.777344 5.023438 5.851562 4.664062 5.992188 4.691406 C 6.105469 4.714844 6.078125 5.050781 6.085938 5.238281 C 6.097656 5.425781 6.273438 5.558594 6.3125 5.625 C 6.351562 5.691406 6.304688 5.914062 6.292969 6.300781 C 6.285156 6.6875 6.464844 7.003906 6.625 7.042969 C 6.78125 7.082031 7.574219 7.230469 7.65625 7.117188 C 7.808594 6.921875 7.675781 6.554688 7.769531 6.339844 C 7.820312 6.226562 7.96875 5.734375 8.082031 5.53125 C 8.203125 5.304688 8.363281 5.121094 8.746094 4.476562 C 9.207031 3.707031 8.6875 3.277344 8.296875 2.777344 Z M 7.035156 5.171875 C 6.933594 5.152344 7.019531 4.917969 7.019531 4.917969 C 7.019531 4.917969 7.335938 4.851562 7.382812 5.03125 C 7.414062 5.140625 7.140625 5.191406 7.035156 5.171875 Z M 6.914062 4.28125 C 6.449219 4.101562 6.144531 3.632812 6.292969 3.207031 C 6.445312 2.785156 7.1875 3.039062 7.1875 3.039062 C 7.582031 3.234375 7.382812 3.679688 7.574219 3.855469 C 7.828125 4.089844 8.558594 3.761719 8.617188 3.894531 C 8.683594 4.054688 7.78125 4.609375 6.914062 4.28125 Z M 6.914062 4.28125 "/>
</g>
</svg>
