<?xml version="1.0" encoding="UTF-8"?>
<svg xmlns="http://www.w3.org/2000/svg" xmlns:xlink="http://www.w3.org/1999/xlink" width="10.098521" height="11" viewBox="0 0 10.098521 11" version="1.1">
<g id="surface1">
<path style=" stroke:none;fill-rule:nonzero;fill:rgb(30%,30%,30%);fill-opacity:1;" d="M 2.621094 1.359375 C 3.324219 1.359375 3.890625 1.925781 3.890625 2.621094 C 3.890625 3.320312 3.324219 3.882812 2.621094 3.882812 C 1.917969 3.882812 1.351562 3.320312 1.351562 2.621094 C 1.351562 1.925781 1.917969 1.359375 2.621094 1.359375 M 1.042969 2.464844 C 1.074219 2.148438 1.203125 1.84375 1.410156 1.601562 L 0 1.527344 Z M 1.605469 1.410156 C 1.855469 1.203125 2.164062 1.078125 2.484375 1.050781 L 1.535156 0 Z M 4.199219 2.460938 L 5.238281 1.53125 L 3.832031 1.601562 C 4.039062 1.84375 4.167969 2.144531 4.199219 2.460938 M 3.632812 1.40625 L 3.703125 0 L 2.753906 1.050781 C 3.074219 1.074219 3.382812 1.199219 3.632812 1.40625 M 1.535156 5.222656 L 2.464844 4.191406 C 2.148438 4.160156 1.851562 4.039062 1.605469 3.832031 Z M 3.851562 3.621094 L 5.238281 3.691406 L 4.203125 2.761719 C 4.175781 3.074219 4.050781 3.375 3.851562 3.621094 M 2.773438 4.191406 L 3.703125 5.222656 L 3.632812 3.835938 C 3.390625 4.039062 3.089844 4.164062 2.773438 4.191406 M 0 3.691406 L 1.390625 3.621094 C 1.191406 3.375 1.066406 3.074219 1.039062 2.757812 Z M 8.480469 2.714844 C 8.019531 2.714844 7.644531 3.089844 7.644531 3.550781 C 7.644531 4.011719 8.019531 4.382812 8.480469 4.382812 C 8.941406 4.382812 9.316406 4.011719 9.316406 3.550781 C 9.316406 3.089844 8.941406 2.714844 8.480469 2.714844 M 10.03125 5.175781 C 9.925781 5.050781 9.738281 5.035156 9.613281 5.140625 L 8.714844 5.882812 L 8.335938 4.84375 C 8.320312 4.796875 8.203125 4.511719 7.960938 4.390625 L 7.867188 4.34375 C 7.769531 4.296875 6.03125 3.84375 6.03125 3.84375 C 5.875 3.796875 5.707031 3.890625 5.664062 4.046875 C 5.660156 4.050781 5.660156 4.050781 5.660156 4.054688 L 5.09375 5.492188 C 5.035156 5.644531 5.109375 5.816406 5.261719 5.875 C 5.414062 5.933594 5.585938 5.859375 5.644531 5.707031 L 6.128906 4.488281 L 6.832031 4.691406 L 5.761719 6.941406 C 5.746094 6.964844 4.8125 8.480469 4.8125 8.480469 L 3.128906 9.0625 C 2.984375 9.113281 2.875 9.234375 2.847656 9.386719 C 2.820312 9.539062 2.871094 9.695312 2.988281 9.796875 C 3.105469 9.894531 3.269531 9.925781 3.414062 9.875 L 5.40625 9.1875 C 5.496094 9.15625 6.230469 7.910156 6.230469 7.910156 C 6.230469 7.914062 6.234375 7.914062 6.234375 7.917969 L 7.367188 8.824219 L 6.9375 9.316406 L 6.070312 10.308594 C 5.941406 10.453125 5.957031 10.675781 6.101562 10.808594 L 6.222656 10.914062 C 6.367188 11.039062 6.59375 11.027344 6.722656 10.878906 L 8.136719 9.269531 C 8.152344 9.25 8.167969 9.226562 8.179688 9.203125 L 8.214844 9.164062 C 8.226562 9.152344 8.234375 9.136719 8.242188 9.125 C 8.273438 9.101562 8.300781 9.074219 8.328125 9.046875 C 8.398438 8.957031 8.433594 8.84375 8.417969 8.730469 C 8.40625 8.617188 8.351562 8.511719 8.261719 8.441406 L 7.25 7.625 L 8.082031 5.878906 L 8.316406 6.515625 C 8.371094 6.667969 8.542969 6.746094 8.695312 6.691406 C 8.777344 6.664062 9.992188 5.59375 9.992188 5.59375 C 10.050781 5.542969 10.089844 5.472656 10.097656 5.394531 C 10.105469 5.316406 10.082031 5.238281 10.03125 5.175781 Z M 10.03125 5.175781 "/>
</g>
</svg>
