<?xml version="1.0" encoding="UTF-8" standalone="no"?>
<!-- Created with Inkscape (http://www.inkscape.org/) -->

<svg
   xmlns:dc="http://purl.org/dc/elements/1.1/"
   xmlns:cc="http://creativecommons.org/ns#"
   xmlns:rdf="http://www.w3.org/1999/02/22-rdf-syntax-ns#"
   xmlns:svg="http://www.w3.org/2000/svg"
   xmlns="http://www.w3.org/2000/svg"
   xmlns:xlink="http://www.w3.org/1999/xlink"
   xmlns:sodipodi="http://sodipodi.sourceforge.net/DTD/sodipodi-0.dtd"
   xmlns:inkscape="http://www.inkscape.org/namespaces/inkscape"
   width="30px"
   height="30px"
   version="1.1"
   id="svg8"
   inkscape:version="0.92.4 5da689c313, 2019-01-14"
   sodipodi:docname="container.svg">
  <defs
     id="defs2" />
  <sodipodi:namedview
     id="base"
     pagecolor="#ffffff"
     bordercolor="#666666"
     borderopacity="1.0"
     inkscape:pageopacity="0.0"
     inkscape:pageshadow="2"
     inkscape:zoom="13.049334"
     inkscape:cx="18.679046"
     inkscape:cy="12.165829"
     inkscape:document-units="px"
     inkscape:current-layer="layer1"
     showgrid="false"
     inkscape:snap-page="false"
     units="px"
     inkscape:window-width="1884"
     inkscape:window-height="1061"
     inkscape:window-x="0"
     inkscape:window-y="0"
     inkscape:window-maximized="1"
     fit-margin-top="0"
     fit-margin-left="0"
     fit-margin-right="0"
     fit-margin-bottom="0" />
  <metadata
     id="metadata5">
    <rdf:RDF>
      <cc:Work
         rdf:about="">
        <dc:format>image/svg+xml</dc:format>
        <dc:type
           rdf:resource="http://purl.org/dc/dcmitype/StillImage" />
        <dc:title></dc:title>
      </cc:Work>
    </rdf:RDF>
  </metadata>
    <circle
       style="color:#000000;clip-rule:nonzero;display:inline;overflow:visible;visibility:visible;opacity:1;isolation:auto;mix-blend-mode:normal;color-interpolation:sRGB;color-interpolation-filters:linearRGB;solid-color:#000000;solid-opacity:1;vector-effect:none;fill:#ffffff;fill-opacity:1;fill-rule:evenodd;stroke:rgba(255, 255, 255, 1);stroke-width:1;stroke-linecap:butt;stroke-linejoin:miter;stroke-miterlimit:4;stroke-dasharray:none;stroke-dashoffset:0;stroke-opacity:1;marker:none;color-rendering:auto;image-rendering:auto;shape-rendering:auto;text-rendering:auto;enable-background:accumulate"
       id="path815"
       cx="15"
       cy="15"
       r="14.5" />
<g transform="translate(6,7)"><g id="surface1">
<path style=" stroke:none;fill-rule:nonzero;fill:rgb(30%,30%,30%);fill-opacity:1;" d="M 16.5 4.679688 L 0.898438 0.0273438 C 0.6875 -0.0351562 0.457031 0.0078125 0.28125 0.140625 C 0.105469 0.269531 0 0.480469 0 0.699219 L 0 15.574219 C 0 15.960938 0.3125 16.273438 0.699219 16.273438 C 1.085938 16.273438 1.398438 15.960938 1.398438 15.574219 L 1.398438 5.832031 L 14.109375 5.890625 L 14.109375 10.320312 C 14.109375 10.707031 14.421875 11.019531 14.808594 11.019531 C 15.195312 11.019531 15.507812 10.707031 15.507812 10.320312 L 15.507812 5.839844 L 16.101562 6.019531 C 16.472656 6.128906 16.859375 5.917969 16.96875 5.546875 C 17.082031 5.179688 16.871094 4.789062 16.5 4.679688 Z M 1.398438 1.636719 L 4.203125 2.472656 L 1.398438 4.070312 Z M 3.574219 4.441406 L 6.058594 3.027344 L 10.925781 4.476562 Z M 3.574219 4.441406 "/>
<path style=" stroke:none;fill-rule:nonzero;fill:rgb(30%,30%,30%);fill-opacity:1;" d="M 13.605469 11.476562 C 13.539062 11.4375 11.886719 10.519531 9.738281 10.597656 C 8.605469 10.636719 7.957031 10.875 7.382812 11.085938 C 6.863281 11.277344 6.414062 11.433594 5.601562 11.441406 C 4.304688 11.449219 3.648438 11.007812 3.617188 10.984375 C 3.617188 10.984375 3.25 10.746094 3.25 10.746094 C 2.953125 10.566406 2.570312 10.664062 2.394531 10.960938 C 2.214844 11.257812 2.3125 11.640625 2.609375 11.816406 C 2.777344 11.929688 2.953125 12.027344 3.132812 12.109375 C 3.234375 12.164062 3.347656 12.21875 3.476562 12.273438 C 4.117188 12.546875 4.851562 12.6875 5.601562 12.6875 C 6.636719 12.6875 7.234375 12.46875 7.816406 12.257812 C 8.347656 12.0625 8.851562 11.878906 9.78125 11.84375 C 11.566406 11.78125 12.980469 12.558594 12.992188 12.566406 C 13.292969 12.734375 13.671875 12.628906 13.84375 12.328125 C 14.011719 12.027344 13.90625 11.648438 13.605469 11.476562 Z M 13.605469 11.476562 "/>
<path style=" stroke:none;fill-rule:nonzero;fill:rgb(30%,30%,30%);fill-opacity:1;" d="M 13.457031 13.921875 C 13.390625 13.882812 11.738281 12.964844 9.589844 13.039062 C 8.460938 13.078125 7.808594 13.316406 7.238281 13.527344 C 6.71875 13.71875 6.265625 13.878906 5.457031 13.882812 C 4.15625 13.890625 3.5 13.453125 3.46875 13.429688 C 3.46875 13.429688 3.101562 13.1875 3.101562 13.1875 C 2.804688 13.011719 2.421875 13.109375 2.246094 13.40625 C 2.070312 13.699219 2.167969 14.082031 2.460938 14.261719 C 2.628906 14.371094 2.804688 14.46875 2.988281 14.554688 C 3.085938 14.605469 3.199219 14.660156 3.332031 14.71875 C 3.96875 14.988281 4.703125 15.132812 5.457031 15.132812 C 6.488281 15.132812 7.089844 14.914062 7.667969 14.699219 C 8.199219 14.503906 8.703125 14.320312 9.632812 14.289062 C 11.417969 14.226562 12.832031 15 12.84375 15.007812 C 13.144531 15.179688 13.527344 15.074219 13.695312 14.773438 C 13.863281 14.472656 13.757812 14.089844 13.457031 13.921875 Z M 13.457031 13.921875 "/>
</g>
</g>
</svg>
