<?xml version="1.0" encoding="UTF-8" standalone="no"?>
<!-- Created with Inkscape (http://www.inkscape.org/) -->

<svg
   xmlns:dc="http://purl.org/dc/elements/1.1/"
   xmlns:cc="http://creativecommons.org/ns#"
   xmlns:rdf="http://www.w3.org/1999/02/22-rdf-syntax-ns#"
   xmlns:svg="http://www.w3.org/2000/svg"
   xmlns="http://www.w3.org/2000/svg"
   xmlns:xlink="http://www.w3.org/1999/xlink"
   xmlns:sodipodi="http://sodipodi.sourceforge.net/DTD/sodipodi-0.dtd"
   xmlns:inkscape="http://www.inkscape.org/namespaces/inkscape"
   width="30px"
   height="30px"
   version="1.1"
   id="svg8"
   inkscape:version="0.92.4 5da689c313, 2019-01-14"
   sodipodi:docname="container.svg">
  <defs
     id="defs2" />
  <sodipodi:namedview
     id="base"
     pagecolor="#ffffff"
     bordercolor="#666666"
     borderopacity="1.0"
     inkscape:pageopacity="0.0"
     inkscape:pageshadow="2"
     inkscape:zoom="13.049334"
     inkscape:cx="18.679046"
     inkscape:cy="12.165829"
     inkscape:document-units="px"
     inkscape:current-layer="layer1"
     showgrid="false"
     inkscape:snap-page="false"
     units="px"
     inkscape:window-width="1884"
     inkscape:window-height="1061"
     inkscape:window-x="0"
     inkscape:window-y="0"
     inkscape:window-maximized="1"
     fit-margin-top="0"
     fit-margin-left="0"
     fit-margin-right="0"
     fit-margin-bottom="0" />
  <metadata
     id="metadata5">
    <rdf:RDF>
      <cc:Work
         rdf:about="">
        <dc:format>image/svg+xml</dc:format>
        <dc:type
           rdf:resource="http://purl.org/dc/dcmitype/StillImage" />
        <dc:title></dc:title>
      </cc:Work>
    </rdf:RDF>
  </metadata>
    <circle
       style="color:#000000;clip-rule:nonzero;display:inline;overflow:visible;visibility:visible;opacity:1;isolation:auto;mix-blend-mode:normal;color-interpolation:sRGB;color-interpolation-filters:linearRGB;solid-color:#000000;solid-opacity:1;vector-effect:none;fill:#ffffff;fill-opacity:1;fill-rule:evenodd;stroke:rgba(255, 255, 255, 1);stroke-width:1;stroke-linecap:butt;stroke-linejoin:miter;stroke-miterlimit:4;stroke-dasharray:none;stroke-dashoffset:0;stroke-opacity:1;marker:none;color-rendering:auto;image-rendering:auto;shape-rendering:auto;text-rendering:auto;enable-background:accumulate"
       id="path815"
       cx="15"
       cy="15"
       r="14.5" />
<g transform="translate(6,9)"><g id="surface1">
<path style=" stroke:none;fill-rule:nonzero;fill:rgb(30%,30%,30%);fill-opacity:1;" d="M 8.597656 0 C 8.5625 0 8.53125 0 8.5 0 C 8.480469 0 8.457031 0 8.441406 0 C 3.773438 0.0078125 0 0.757812 0 1.683594 L 0 8.855469 C 0 9.777344 3.773438 10.53125 8.441406 10.535156 L 8.597656 10.535156 C 13.246094 10.527344 17 9.777344 17 8.855469 L 17 1.683594 C 17 0.761719 13.246094 0.0117188 8.597656 0 M 15.65625 3.246094 C 15.800781 3.210938 15.875 3.191406 16.023438 3.152344 L 16.023438 3.667969 C 15.875 3.707031 15.800781 3.726562 15.65625 3.761719 Z M 0.910156 3.117188 C 1.0625 3.15625 1.136719 3.179688 1.285156 3.214844 L 1.285156 3.730469 C 1.136719 3.695312 1.0625 3.675781 0.910156 3.632812 Z M 1.476562 9 C 1.175781 8.925781 1.027344 8.886719 0.710938 8.804688 L 0.710938 7.273438 C 0.710938 7.273438 0.757812 6.835938 1.097656 6.921875 C 1.433594 7.011719 1.476562 7.472656 1.476562 7.472656 Z M 1.476562 6.289062 C 1.175781 6.210938 1.027344 6.171875 0.710938 6.089844 L 0.710938 4.558594 C 0.710938 4.558594 0.757812 4.121094 1.097656 4.207031 C 1.433594 4.296875 1.476562 4.757812 1.476562 4.757812 Z M 3.523438 9.421875 C 3.214844 9.375 3.066406 9.351562 2.769531 9.289062 L 2.769531 7.757812 C 2.769531 7.757812 2.808594 7.316406 3.140625 7.375 C 3.46875 7.433594 3.523438 7.894531 3.523438 7.894531 Z M 3.523438 6.710938 C 3.214844 6.660156 3.066406 6.636719 2.769531 6.578125 L 2.769531 5.046875 C 2.769531 5.046875 2.808594 4.605469 3.140625 4.664062 C 3.46875 4.722656 3.523438 5.179688 3.523438 5.179688 Z M 2.960938 4.105469 L 2.960938 3.589844 C 3.105469 3.617188 3.175781 3.632812 3.328125 3.65625 L 3.328125 4.171875 C 3.175781 4.148438 3.105469 4.136719 2.960938 4.105469 M 5.914062 9.664062 C 5.503906 9.644531 5.308594 9.628906 4.957031 9.597656 L 4.957031 8.066406 C 4.957031 8.066406 4.992188 7.625 5.414062 7.652344 C 5.835938 7.683594 5.914062 8.136719 5.914062 8.136719 Z M 5.914062 6.953125 C 5.503906 6.929688 5.308594 6.917969 4.957031 6.886719 L 4.957031 5.355469 C 4.957031 5.355469 4.992188 4.910156 5.414062 4.9375 C 5.835938 4.96875 5.914062 5.421875 5.914062 5.421875 Z M 5.1875 4.398438 L 5.1875 3.878906 C 5.367188 3.898438 5.460938 3.902344 5.65625 3.917969 L 5.65625 4.429688 C 5.460938 4.417969 5.367188 4.410156 5.1875 4.398438 M 9.019531 9.726562 C 8.859375 9.730469 8.722656 9.730469 8.597656 9.730469 L 8.441406 9.730469 C 8.261719 9.730469 8.085938 9.730469 7.851562 9.726562 L 7.851562 8.195312 C 7.851562 8.195312 7.917969 7.746094 8.433594 7.746094 L 8.441406 7.746094 C 8.492188 7.75 8.546875 7.753906 8.597656 7.765625 C 8.960938 7.847656 9.019531 8.195312 9.019531 8.195312 Z M 9.019531 7.015625 L 8.441406 7.015625 C 8.261719 7.015625 8.085938 7.015625 7.851562 7.015625 L 7.851562 5.484375 C 7.851562 5.484375 7.917969 5.03125 8.433594 5.035156 C 8.433594 5.035156 8.4375 5.035156 8.441406 5.035156 C 8.492188 5.035156 8.546875 5.042969 8.597656 5.054688 C 8.960938 5.136719 9.019531 5.484375 9.019531 5.484375 Z M 8.148438 4.507812 L 8.148438 3.996094 L 8.71875 3.996094 L 8.71875 4.511719 L 8.597656 4.511719 C 8.539062 4.511719 8.492188 4.507812 8.441406 4.507812 L 8.148438 4.507812 M 11.960938 9.609375 L 11.957031 9.609375 C 11.59375 9.640625 11.398438 9.652344 10.980469 9.675781 L 10.980469 8.144531 C 10.980469 8.144531 11.050781 7.691406 11.480469 7.660156 C 11.914062 7.636719 11.960938 8.078125 11.960938 8.078125 Z M 11.960938 6.898438 L 11.957031 6.898438 C 11.59375 6.925781 11.398438 6.941406 10.980469 6.960938 L 10.980469 5.429688 C 10.980469 5.429688 11.050781 4.976562 11.480469 4.949219 C 11.914062 4.917969 11.960938 5.367188 11.960938 5.367188 Z M 11.242188 4.441406 L 11.242188 3.921875 C 11.4375 3.914062 11.539062 3.90625 11.71875 3.894531 L 11.71875 4.410156 C 11.535156 4.421875 11.4375 4.429688 11.242188 4.441406 M 13.414062 9.441406 L 13.414062 7.914062 C 13.414062 7.914062 13.457031 7.457031 13.792969 7.402344 C 14.125 7.339844 14.167969 7.78125 14.167969 7.78125 L 14.167969 9.3125 C 13.871094 9.367188 13.722656 9.398438 13.414062 9.441406 M 13.414062 6.726562 L 13.414062 5.199219 C 13.414062 5.199219 13.457031 4.746094 13.792969 4.6875 C 14.125 4.628906 14.167969 5.070312 14.167969 5.070312 L 14.167969 6.601562 C 13.871094 6.65625 13.722656 6.683594 13.414062 6.726562 M 13.609375 4.191406 L 13.609375 3.675781 C 13.757812 3.652344 13.832031 3.636719 13.980469 3.613281 L 13.980469 4.128906 C 13.832031 4.15625 13.757812 4.167969 13.609375 4.191406 M 8.597656 3.078125 L 8.441406 3.078125 C 4.574219 3.074219 1.453125 2.449219 1.453125 1.683594 C 1.453125 0.917969 4.574219 0.292969 8.441406 0.289062 L 8.597656 0.289062 C 12.445312 0.296875 15.546875 0.921875 15.546875 1.683594 C 15.546875 2.449219 12.445312 3.070312 8.597656 3.078125 M 16.226562 8.839844 C 15.910156 8.921875 15.761719 8.960938 15.460938 9.03125 L 15.460938 7.5 C 15.460938 7.5 15.503906 7.042969 15.835938 6.953125 C 16.167969 6.867188 16.226562 7.304688 16.226562 7.304688 Z M 16.226562 6.125 C 15.910156 6.207031 15.761719 6.246094 15.460938 6.316406 L 15.460938 4.785156 C 15.460938 4.785156 15.503906 4.324219 15.835938 4.242188 C 16.167969 4.15625 16.226562 4.59375 16.226562 4.59375 Z M 16.226562 6.125 "/>
</g>
</g>
</svg>
