<?xml version="1.0" encoding="UTF-8" standalone="no"?>
<!-- Created with Inkscape (http://www.inkscape.org/) -->

<svg
   xmlns:dc="http://purl.org/dc/elements/1.1/"
   xmlns:cc="http://creativecommons.org/ns#"
   xmlns:rdf="http://www.w3.org/1999/02/22-rdf-syntax-ns#"
   xmlns:svg="http://www.w3.org/2000/svg"
   xmlns="http://www.w3.org/2000/svg"
   xmlns:xlink="http://www.w3.org/1999/xlink"
   xmlns:sodipodi="http://sodipodi.sourceforge.net/DTD/sodipodi-0.dtd"
   xmlns:inkscape="http://www.inkscape.org/namespaces/inkscape"
   width="30px"
   height="30px"
   version="1.1"
   id="svg8"
   inkscape:version="0.92.4 5da689c313, 2019-01-14"
   sodipodi:docname="container.svg">
  <defs
     id="defs2" />
  <sodipodi:namedview
     id="base"
     pagecolor="#ffffff"
     bordercolor="#666666"
     borderopacity="1.0"
     inkscape:pageopacity="0.0"
     inkscape:pageshadow="2"
     inkscape:zoom="13.049334"
     inkscape:cx="18.679046"
     inkscape:cy="12.165829"
     inkscape:document-units="px"
     inkscape:current-layer="layer1"
     showgrid="false"
     inkscape:snap-page="false"
     units="px"
     inkscape:window-width="1884"
     inkscape:window-height="1061"
     inkscape:window-x="0"
     inkscape:window-y="0"
     inkscape:window-maximized="1"
     fit-margin-top="0"
     fit-margin-left="0"
     fit-margin-right="0"
     fit-margin-bottom="0" />
  <metadata
     id="metadata5">
    <rdf:RDF>
      <cc:Work
         rdf:about="">
        <dc:format>image/svg+xml</dc:format>
        <dc:type
           rdf:resource="http://purl.org/dc/dcmitype/StillImage" />
        <dc:title></dc:title>
      </cc:Work>
    </rdf:RDF>
  </metadata>
    <circle
       style="color:#000000;clip-rule:nonzero;display:inline;overflow:visible;visibility:visible;opacity:1;isolation:auto;mix-blend-mode:normal;color-interpolation:sRGB;color-interpolation-filters:linearRGB;solid-color:#000000;solid-opacity:1;vector-effect:none;fill:rgba(255, 255, 255, 1);fill-opacity:1;fill-rule:evenodd;stroke:#ffffff;stroke-width:1;stroke-linecap:butt;stroke-linejoin:miter;stroke-miterlimit:4;stroke-dasharray:none;stroke-dashoffset:0;stroke-opacity:1;marker:none;color-rendering:auto;image-rendering:auto;shape-rendering:auto;text-rendering:auto;enable-background:accumulate"
       id="path815"
       cx="15"
       cy="15"
       r="14.5" />
<g transform="translate(9,6)"><g id="surface1">
<path style=" stroke:none;fill-rule:nonzero;fill:#FFFFFF;fill-opacity:1;" d="M 11.570312 16.363281 L 11.570312 2.355469 L 10.101562 0.0195312 L 8.710938 2.40625 L 8.710938 5.363281 L 7.675781 5.363281 L 6.203125 3.75 L 6.203125 2.71875 L 6.722656 2.71875 L 6.722656 2.5625 L 6.203125 2.5625 L 6.203125 1.984375 L 6.007812 1.984375 L 6.007812 2.5625 L 5.507812 2.5625 L 5.507812 2.71875 L 6.007812 2.71875 L 6.007812 3.75 L 4.71875 5.3125 L 3.683594 5.3125 L 3.683594 2.363281 L 2.304688 0 L 0.914062 2.375 L 0.867188 16.332031 L 0.0117188 16.328125 L 0 17 L 12.320312 17 L 12.332031 16.367188 Z M 4.523438 16.367188 L 3.289062 16.363281 L 3.289062 13.859375 C 3.289062 13.5625 3.609375 12.605469 3.90625 12.605469 C 4.203125 12.605469 4.523438 13.5625 4.523438 13.859375 Z M 6.984375 16.375 L 5.261719 16.367188 L 5.261719 13.296875 C 5.261719 12.996094 5.824219 11.964844 6.125 11.964844 C 6.421875 11.964844 6.984375 12.996094 6.984375 13.296875 Z M 6.089844 9.929688 C 5.136719 9.929688 4.363281 9.15625 4.363281 8.203125 C 4.363281 7.25 5.136719 6.476562 6.089844 6.476562 C 7.042969 6.476562 7.816406 7.25 7.816406 8.203125 C 7.816406 9.15625 7.042969 9.929688 6.089844 9.929688 Z M 8.929688 16.378906 L 7.695312 16.375 L 7.695312 13.859375 C 7.695312 13.5625 8.011719 12.605469 8.3125 12.605469 C 8.609375 12.605469 8.929688 13.5625 8.929688 13.859375 Z M 8.929688 16.378906 "/>
</g>
</g>
</svg>
