<?xml version="1.0" encoding="UTF-8"?>
<svg xmlns="http://www.w3.org/2000/svg" xmlns:xlink="http://www.w3.org/1999/xlink" width="11" height="8.303857" viewBox="0 0 11 8.303857" version="1.1">
<g id="surface1">
<path style=" stroke:none;fill-rule:nonzero;fill:rgb(30%,30%,30%);fill-opacity:1;" d="M 8.738281 2.4375 C 8.761719 2.4375 8.894531 2.804688 9.089844 2.800781 C 9.429688 2.789062 9.429688 2.527344 9.390625 2.34375 C 9.320312 2.039062 8.636719 1.867188 8.308594 1.890625 C 7.492188 1.953125 6.785156 2.480469 6.335938 3.335938 C 5.894531 4.179688 6.5625 5.699219 7.214844 5.707031 C 7.8125 5.71875 8.214844 4.789062 8.648438 4.429688 C 9.015625 4.121094 9.347656 3.882812 9.945312 3.964844 C 10.003906 3.972656 10.378906 4.015625 10.605469 4.378906 C 10.835938 4.742188 10.703125 5.324219 10.390625 5.441406 C 10.078125 5.554688 9.765625 5.367188 9.679688 5.078125 C 9.644531 4.972656 9.660156 4.785156 9.699219 4.769531 C 9.769531 4.746094 9.808594 5.0625 10.03125 5.078125 C 10.132812 5.085938 10.234375 4.992188 10.265625 4.902344 C 10.332031 4.722656 10.164062 4.53125 10.007812 4.511719 C 9.195312 4.410156 9.074219 5.152344 9.296875 5.65625 C 9.8125 6.816406 11 7.257812 11 7.257812 L 10.988281 8.304688 L 0.00390625 8.304688 C 0.00390625 8.304688 -0.00390625 7.4375 0.00390625 7.4375 C 1.34375 6.828125 1.738281 4.902344 1.992188 4.417969 C 2.875 2.757812 3.78125 0.714844 6.441406 0.0859375 C 7.414062 -0.144531 8.828125 0.0859375 9.628906 0.777344 C 10.054688 1.148438 10.492188 1.765625 10.378906 2.449219 C 10.359375 2.578125 10.253906 3.214844 9.761719 3.386719 C 9.347656 3.53125 8.867188 3.382812 8.738281 3.027344 C 8.660156 2.800781 8.625 2.4375 8.738281 2.4375 Z M 8.738281 2.4375 "/>
</g>
</svg>
