<?xml version="1.0" encoding="UTF-8" standalone="no"?>
<!-- Created with Inkscape (http://www.inkscape.org/) -->

<svg
   xmlns:dc="http://purl.org/dc/elements/1.1/"
   xmlns:cc="http://creativecommons.org/ns#"
   xmlns:rdf="http://www.w3.org/1999/02/22-rdf-syntax-ns#"
   xmlns:svg="http://www.w3.org/2000/svg"
   xmlns="http://www.w3.org/2000/svg"
   xmlns:xlink="http://www.w3.org/1999/xlink"
   xmlns:sodipodi="http://sodipodi.sourceforge.net/DTD/sodipodi-0.dtd"
   xmlns:inkscape="http://www.inkscape.org/namespaces/inkscape"
   width="30px"
   height="30px"
   version="1.1"
   id="svg8"
   inkscape:version="0.92.4 5da689c313, 2019-01-14"
   sodipodi:docname="container.svg">
  <defs
     id="defs2" />
  <sodipodi:namedview
     id="base"
     pagecolor="#ffffff"
     bordercolor="#666666"
     borderopacity="1.0"
     inkscape:pageopacity="0.0"
     inkscape:pageshadow="2"
     inkscape:zoom="13.049334"
     inkscape:cx="18.679046"
     inkscape:cy="12.165829"
     inkscape:document-units="px"
     inkscape:current-layer="layer1"
     showgrid="false"
     inkscape:snap-page="false"
     units="px"
     inkscape:window-width="1884"
     inkscape:window-height="1061"
     inkscape:window-x="0"
     inkscape:window-y="0"
     inkscape:window-maximized="1"
     fit-margin-top="0"
     fit-margin-left="0"
     fit-margin-right="0"
     fit-margin-bottom="0" />
  <metadata
     id="metadata5">
    <rdf:RDF>
      <cc:Work
         rdf:about="">
        <dc:format>image/svg+xml</dc:format>
        <dc:type
           rdf:resource="http://purl.org/dc/dcmitype/StillImage" />
        <dc:title></dc:title>
      </cc:Work>
    </rdf:RDF>
  </metadata>
    <circle
       style="color:#000000;clip-rule:nonzero;display:inline;overflow:visible;visibility:visible;opacity:1;isolation:auto;mix-blend-mode:normal;color-interpolation:sRGB;color-interpolation-filters:linearRGB;solid-color:#000000;solid-opacity:1;vector-effect:none;fill:rgba(255, 255, 255, 1);fill-opacity:1;fill-rule:evenodd;stroke:#ffffff;stroke-width:1;stroke-linecap:butt;stroke-linejoin:miter;stroke-miterlimit:4;stroke-dasharray:none;stroke-dashoffset:0;stroke-opacity:1;marker:none;color-rendering:auto;image-rendering:auto;shape-rendering:auto;text-rendering:auto;enable-background:accumulate"
       id="path815"
       cx="15"
       cy="15"
       r="14.5" />
<g transform="translate(6,7)"><g id="surface1">
<path style=" stroke:none;fill-rule:nonzero;fill:#FFFFFF;fill-opacity:1;" d="M 11.949219 8.046875 C 11.296875 7.878906 10.609375 7.773438 9.898438 7.777344 C 7.535156 7.792969 5.433594 8.953125 4.035156 9.972656 C 3.746094 10.1875 3.371094 10.1875 3.074219 9.980469 C 2.273438 9.414062 1.242188 8.804688 0.0664062 8.386719 C 0.0234375 8.371094 -0.015625 8.425781 0.0078125 8.472656 C 0.304688 9.050781 0.558594 9.648438 0.757812 10.160156 C 1.089844 11.023438 1.09375 11.984375 0.773438 12.855469 C 0.582031 13.367188 0.339844 13.96875 0.0507812 14.550781 C 0.0273438 14.597656 0.0664062 14.652344 0.113281 14.636719 C 1.285156 14.199219 2.3125 13.574219 3.109375 12.992188 C 3.394531 12.785156 3.757812 12.78125 4.042969 12.984375 C 5.453125 13.988281 7.578125 15.125 9.949219 15.109375 C 10.660156 15.101562 11.34375 14.988281 11.996094 14.8125 C 11.328125 12.605469 11.3125 10.257812 11.949219 8.046875 Z M 11.949219 8.046875 "/>
<path style=" stroke:none;fill-rule:nonzero;fill:#FFFFFF;fill-opacity:1;" d="M 16.601562 10.511719 C 15.683594 9.765625 14.183594 8.722656 12.386719 8.167969 C 11.761719 10.296875 11.777344 12.5625 12.429688 14.683594 C 14.21875 14.101562 15.707031 13.039062 16.613281 12.277344 C 17.132812 11.839844 17.128906 10.945312 16.601562 10.511719 Z M 14.722656 11.828125 C 14.378906 11.828125 14.101562 11.550781 14.101562 11.210938 C 14.101562 10.867188 14.378906 10.589844 14.722656 10.589844 C 15.0625 10.589844 15.339844 10.867188 15.339844 11.210938 C 15.339844 11.550781 15.0625 11.828125 14.722656 11.828125 Z M 14.722656 11.828125 "/>
<path style=" stroke:none;fill-rule:nonzero;fill:#FFFFFF;fill-opacity:1;" d="M 0.414062 4.546875 C 1.328125 5.300781 2.820312 6.355469 4.613281 6.921875 C 4.929688 5.867188 5.089844 4.769531 5.089844 3.664062 C 5.089844 2.5625 4.929688 1.464844 4.613281 0.410156 C 2.820312 0.976562 1.328125 2.027344 0.414062 2.785156 C -0.109375 3.21875 -0.109375 4.113281 0.414062 4.546875 Z M 2.828125 2.433594 C 3.171875 2.433594 3.449219 2.710938 3.449219 3.050781 C 3.449219 3.394531 3.171875 3.671875 2.828125 3.671875 C 2.488281 3.671875 2.210938 3.394531 2.210938 3.050781 C 2.210938 2.710938 2.488281 2.433594 2.828125 2.433594 Z M 2.828125 2.433594 "/>
<path style=" stroke:none;fill-rule:nonzero;fill:#FFFFFF;fill-opacity:1;" d="M 16.257812 5.015625 C 15.929688 4.144531 15.929688 3.1875 16.257812 2.316406 C 16.449219 1.804688 16.699219 1.207031 16.992188 0.628906 C 17.015625 0.582031 16.976562 0.523438 16.933594 0.539062 C 15.761719 0.964844 14.734375 1.582031 13.933594 2.15625 C 13.640625 2.367188 13.269531 2.367188 12.972656 2.15625 C 11.570312 1.144531 9.460938 0 7.097656 0 C 6.386719 0 5.699219 0.109375 5.046875 0.28125 C 5.371094 1.382812 5.535156 2.519531 5.535156 3.664062 C 5.535156 4.8125 5.371094 5.949219 5.046875 7.046875 C 5.699219 7.222656 6.386719 7.332031 7.097656 7.332031 C 9.46875 7.332031 11.585938 6.179688 12.988281 5.164062 C 13.273438 4.960938 13.636719 4.960938 13.921875 5.167969 C 14.722656 5.742188 15.753906 6.363281 16.933594 6.792969 C 16.976562 6.808594 17.015625 6.75 16.992188 6.703125 C 16.699219 6.125 16.449219 5.527344 16.257812 5.015625 Z M 16.257812 5.015625 "/>
</g>
</g>
</svg>
