<?xml version="1.0" encoding="UTF-8"?>
<svg xmlns="http://www.w3.org/2000/svg" xmlns:xlink="http://www.w3.org/1999/xlink" width="11" height="9.83483" viewBox="0 0 11 9.83483" version="1.1">
<g id="surface1">
<path style=" stroke:none;fill-rule:nonzero;fill:rgb(30%,30%,30%);fill-opacity:1;" d="M 10.269531 6.632812 C 9.578125 6.621094 9.230469 7.003906 8.953125 7.308594 C 8.691406 7.59375 8.488281 7.820312 8.019531 7.820312 C 7.570312 7.820312 7.378906 7.597656 7.132812 7.316406 C 6.863281 7.007812 6.527344 6.621094 5.828125 6.632812 C 5.226562 6.636719 4.882812 6.925781 4.613281 7.199219 L 4.328125 7.542969 C 4.167969 7.679688 3.925781 7.808594 3.5625 7.820312 C 3.160156 7.828125 2.941406 7.601562 2.664062 7.308594 C 2.363281 6.996094 2.019531 6.636719 1.414062 6.632812 C 0.722656 6.621094 0.375 7.003906 0.0976562 7.308594 C 0.0664062 7.34375 0.03125 7.378906 0 7.414062 L 0 8.160156 C 0.21875 8.027344 0.378906 7.847656 0.519531 7.691406 C 0.78125 7.40625 0.96875 7.191406 1.40625 7.203125 C 1.757812 7.207031 1.957031 7.394531 2.25 7.703125 C 2.546875 8.011719 2.910156 8.390625 3.539062 8.390625 C 3.550781 8.390625 3.5625 8.390625 3.578125 8.390625 C 4.410156 8.371094 4.828125 7.90625 5.007812 7.613281 C 5.234375 7.378906 5.445312 7.207031 5.832031 7.203125 C 5.839844 7.203125 5.84375 7.203125 5.847656 7.203125 C 6.273438 7.203125 6.453125 7.410156 6.703125 7.691406 C 6.972656 8.003906 7.3125 8.390625 8.019531 8.390625 C 8.738281 8.390625 9.09375 8.003906 9.375 7.691406 C 9.636719 7.40625 9.824219 7.191406 10.261719 7.203125 C 10.566406 7.207031 10.757812 7.351562 11 7.59375 L 11 6.851562 C 10.78125 6.707031 10.527344 6.632812 10.269531 6.632812 Z M 10.269531 6.632812 "/>
<path style=" stroke:none;fill-rule:nonzero;fill:rgb(30%,30%,30%);fill-opacity:1;" d="M 10.304688 8.074219 C 9.613281 8.0625 9.265625 8.449219 8.988281 8.753906 C 8.730469 9.039062 8.523438 9.261719 8.054688 9.261719 C 7.605469 9.261719 7.414062 9.042969 7.167969 8.761719 C 6.898438 8.453125 6.5625 8.066406 5.863281 8.074219 C 5.265625 8.082031 4.917969 8.371094 4.648438 8.644531 L 4.363281 8.988281 C 4.207031 9.125 3.964844 9.253906 3.601562 9.261719 C 3.195312 9.273438 2.980469 9.042969 2.699219 8.753906 C 2.398438 8.4375 2.058594 8.082031 1.449219 8.074219 C 0.761719 8.0625 0.414062 8.449219 0.136719 8.753906 C 0.0898438 8.804688 0.0429688 8.851562 0 8.898438 L 0 9.628906 C 0.234375 9.488281 0.40625 9.300781 0.558594 9.136719 C 0.820312 8.847656 1.007812 8.636719 1.445312 8.648438 C 1.792969 8.652344 1.992188 8.839844 2.289062 9.148438 C 2.582031 9.457031 2.945312 9.835938 3.574219 9.835938 C 3.589844 9.835938 3.601562 9.835938 3.613281 9.835938 C 4.445312 9.8125 4.863281 9.347656 5.042969 9.058594 C 5.273438 8.824219 5.480469 8.652344 5.871094 8.648438 C 5.875 8.648438 5.878906 8.648438 5.886719 8.648438 C 6.3125 8.648438 6.492188 8.851562 6.738281 9.136719 C 7.011719 9.449219 7.347656 9.835938 8.054688 9.835938 C 8.777344 9.835938 9.128906 9.449219 9.414062 9.136719 C 9.671875 8.847656 9.859375 8.636719 10.300781 8.648438 C 10.589844 8.648438 10.777344 8.78125 11 9.003906 L 11 8.269531 C 10.789062 8.144531 10.550781 8.074219 10.304688 8.074219 Z M 10.304688 8.074219 "/>
<path style=" stroke:none;fill-rule:nonzero;fill:rgb(30%,30%,30%);fill-opacity:1;" d="M 7.820312 1.535156 C 8.609375 1.535156 9.25 2.171875 9.25 2.960938 C 9.25 3.746094 8.609375 4.382812 7.820312 4.382812 C 7.03125 4.382812 6.394531 3.746094 6.394531 2.960938 C 6.394531 2.171875 7.03125 1.535156 7.820312 1.535156 Z M 6.460938 1.808594 L 4.871094 1.726562 L 6.042969 2.785156 C 6.078125 2.421875 6.226562 2.082031 6.460938 1.808594 Z M 7.667969 1.183594 L 6.597656 0 L 6.679688 1.589844 C 6.960938 1.355469 7.304688 1.214844 7.667969 1.183594 Z M 9.597656 2.78125 L 10.765625 1.726562 L 9.183594 1.808594 C 9.417969 2.082031 9.5625 2.421875 9.597656 2.78125 Z M 8.957031 1.585938 L 9.039062 0 L 7.96875 1.183594 C 8.332031 1.214844 8.675781 1.355469 8.957031 1.585938 Z M 6.679688 4.328125 L 6.597656 5.894531 L 7.648438 4.730469 C 7.289062 4.699219 6.953125 4.558594 6.679688 4.328125 Z M 9.203125 4.085938 L 10.765625 4.167969 L 9.601562 3.113281 C 9.570312 3.472656 9.429688 3.8125 9.203125 4.085938 Z M 7.992188 4.734375 L 9.039062 5.894531 L 8.960938 4.332031 C 8.683594 4.558594 8.347656 4.699219 7.992188 4.734375 Z M 6.042969 3.109375 L 4.871094 4.167969 L 6.4375 4.085938 C 6.210938 3.808594 6.074219 3.46875 6.042969 3.109375 Z M 6.042969 3.109375 "/>
</g>
</svg>
