<?xml version="1.0" encoding="UTF-8"?>
<svg xmlns="http://www.w3.org/2000/svg" xmlns:xlink="http://www.w3.org/1999/xlink" width="11" height="10.528367" viewBox="0 0 11 10.528367" version="1.1">
<g id="surface1">
<path style=" stroke:none;fill-rule:nonzero;fill:rgb(30%,30%,30%);fill-opacity:1;" d="M 3.730469 4.742188 C 3.730469 4.742188 3.726562 4.742188 3.726562 4.742188 L 3.699219 4.742188 C 3.695312 4.742188 3.695312 4.742188 3.691406 4.742188 L 3.675781 4.734375 C 3.675781 4.734375 3.671875 4.734375 3.671875 4.734375 L 3.636719 4.714844 C 3.632812 4.714844 3.632812 4.714844 3.632812 4.710938 L 3.597656 4.675781 L 3.515625 4.625 L 3.503906 4.625 L 3.46875 4.632812 C 3.464844 4.632812 3.460938 4.632812 3.457031 4.632812 L 3.425781 4.613281 C 3.421875 4.613281 3.417969 4.609375 3.417969 4.605469 L 3.410156 4.578125 L 3.394531 4.554688 C 3.394531 4.554688 3.390625 4.550781 3.390625 4.550781 L 3.386719 4.535156 C 3.386719 4.527344 3.390625 4.519531 3.394531 4.519531 L 3.398438 4.515625 C 3.402344 4.511719 3.40625 4.511719 3.410156 4.511719 L 3.429688 4.515625 L 3.445312 4.507812 L 3.457031 4.496094 C 3.460938 4.492188 3.464844 4.492188 3.46875 4.492188 L 3.488281 4.496094 C 3.492188 4.5 3.496094 4.5 3.496094 4.503906 L 3.511719 4.523438 C 3.511719 4.523438 3.515625 4.523438 3.515625 4.527344 L 3.519531 4.546875 C 3.519531 4.546875 3.519531 4.546875 3.519531 4.550781 L 3.523438 4.550781 C 3.523438 4.550781 3.527344 4.550781 3.527344 4.550781 L 3.578125 4.550781 C 3.582031 4.554688 3.585938 4.554688 3.589844 4.558594 C 3.59375 4.5625 3.59375 4.570312 3.589844 4.574219 L 3.585938 4.589844 C 3.585938 4.59375 3.582031 4.59375 3.582031 4.59375 L 3.59375 4.597656 L 3.636719 4.59375 C 3.636719 4.59375 3.640625 4.59375 3.644531 4.597656 L 3.671875 4.609375 C 3.671875 4.613281 3.671875 4.613281 3.675781 4.613281 L 3.695312 4.632812 L 3.703125 4.628906 C 3.707031 4.628906 3.710938 4.628906 3.710938 4.632812 L 3.722656 4.636719 C 3.726562 4.636719 3.730469 4.640625 3.730469 4.644531 L 3.746094 4.667969 C 3.746094 4.671875 3.746094 4.671875 3.746094 4.671875 L 3.75 4.683594 L 3.761719 4.683594 C 3.765625 4.683594 3.773438 4.683594 3.773438 4.691406 C 3.777344 4.695312 3.777344 4.703125 3.773438 4.707031 L 3.742188 4.738281 C 3.742188 4.742188 3.738281 4.742188 3.730469 4.742188 Z M 3.519531 4.59375 L 3.523438 4.597656 C 3.523438 4.597656 3.527344 4.597656 3.527344 4.597656 C 3.527344 4.597656 3.53125 4.59375 3.53125 4.59375 C 3.527344 4.589844 3.527344 4.589844 3.527344 4.589844 C 3.523438 4.59375 3.523438 4.59375 3.523438 4.59375 Z M 3.484375 4.578125 L 3.492188 4.574219 C 3.492188 4.574219 3.488281 4.574219 3.488281 4.574219 C 3.484375 4.574219 3.484375 4.574219 3.484375 4.578125 Z M 3.839844 4.988281 C 3.84375 4.988281 3.847656 4.984375 3.851562 4.980469 L 3.859375 4.972656 L 3.863281 4.972656 C 3.867188 4.972656 3.871094 4.96875 3.875 4.964844 C 3.878906 4.960938 3.878906 4.957031 3.878906 4.953125 L 3.878906 4.945312 C 3.875 4.941406 3.875 4.9375 3.871094 4.9375 L 3.859375 4.929688 C 3.855469 4.929688 3.851562 4.929688 3.851562 4.929688 L 3.839844 4.929688 C 3.835938 4.929688 3.828125 4.933594 3.828125 4.941406 L 3.820312 4.960938 C 3.820312 4.960938 3.820312 4.964844 3.820312 4.964844 L 3.820312 4.972656 C 3.820312 4.976562 3.824219 4.980469 3.828125 4.984375 C 3.832031 4.988281 3.835938 4.988281 3.839844 4.988281 Z M 3.742188 5.339844 C 3.738281 5.339844 3.734375 5.339844 3.734375 5.339844 L 3.722656 5.332031 C 3.71875 5.332031 3.71875 5.328125 3.714844 5.324219 L 3.710938 5.3125 C 3.710938 5.3125 3.710938 5.308594 3.710938 5.308594 L 3.707031 5.246094 L 3.703125 5.210938 L 3.695312 5.191406 L 3.671875 5.164062 L 3.667969 5.164062 C 3.664062 5.160156 3.664062 5.160156 3.660156 5.160156 L 3.617188 5.121094 C 3.613281 5.121094 3.613281 5.121094 3.613281 5.117188 L 3.5625 5.058594 C 3.5625 5.054688 3.5625 5.050781 3.5625 5.046875 L 3.5625 5.03125 L 3.554688 5.011719 C 3.554688 5.007812 3.554688 5.003906 3.554688 5 L 3.566406 4.972656 L 3.550781 4.9375 C 3.550781 4.9375 3.550781 4.933594 3.550781 4.933594 L 3.542969 4.886719 C 3.542969 4.878906 3.546875 4.875 3.550781 4.871094 C 3.554688 4.867188 3.558594 4.867188 3.566406 4.867188 L 3.609375 4.886719 C 3.613281 4.886719 3.617188 4.890625 3.621094 4.898438 L 3.621094 4.910156 L 3.632812 4.917969 L 3.671875 4.957031 C 3.671875 4.957031 3.671875 4.960938 3.671875 4.960938 L 3.679688 4.972656 L 3.695312 4.976562 L 3.75 4.980469 C 3.753906 4.980469 3.757812 4.984375 3.761719 4.988281 L 3.773438 5 C 3.773438 5.003906 3.777344 5.007812 3.777344 5.011719 L 3.777344 5.03125 C 3.78125 5.039062 3.777344 5.046875 3.773438 5.050781 L 3.769531 5.054688 L 3.777344 5.070312 C 3.78125 5.074219 3.78125 5.078125 3.78125 5.082031 L 3.777344 5.097656 C 3.777344 5.101562 3.777344 5.101562 3.777344 5.105469 L 3.773438 5.105469 L 3.789062 5.132812 L 3.800781 5.144531 C 3.800781 5.144531 3.800781 5.148438 3.804688 5.148438 L 3.820312 5.175781 C 3.820312 5.179688 3.820312 5.183594 3.820312 5.1875 L 3.792969 5.242188 L 3.800781 5.273438 C 3.804688 5.277344 3.800781 5.285156 3.796875 5.289062 L 3.753906 5.335938 C 3.75 5.339844 3.746094 5.339844 3.742188 5.339844 Z M 4.152344 10.527344 C 4.148438 10.527344 4.148438 10.527344 4.148438 10.527344 L 4.132812 10.523438 C 4.125 10.523438 4.121094 10.515625 4.121094 10.511719 L 4.117188 10.492188 C 4.117188 10.488281 4.117188 10.484375 4.121094 10.484375 L 4.121094 10.480469 L 4.113281 10.484375 C 4.109375 10.484375 4.105469 10.484375 4.101562 10.480469 L 4.089844 10.476562 C 4.085938 10.472656 4.082031 10.46875 4.082031 10.460938 L 4.082031 10.429688 L 4.066406 10.417969 C 4.066406 10.417969 4.066406 10.414062 4.0625 10.414062 L 4.050781 10.394531 L 4.03125 10.382812 C 4.027344 10.382812 4.023438 10.378906 4.023438 10.375 L 4.007812 10.34375 L 3.992188 10.347656 C 3.988281 10.347656 3.984375 10.347656 3.980469 10.34375 L 3.957031 10.328125 C 3.957031 10.328125 3.953125 10.328125 3.953125 10.328125 L 3.941406 10.3125 C 3.941406 10.3125 3.941406 10.308594 3.9375 10.304688 L 3.933594 10.277344 C 3.933594 10.273438 3.933594 10.265625 3.9375 10.265625 L 3.941406 10.257812 L 3.941406 10.253906 C 3.9375 10.25 3.9375 10.246094 3.9375 10.246094 L 3.941406 10.230469 L 3.941406 10.226562 L 3.9375 10.226562 C 3.9375 10.222656 3.933594 10.222656 3.933594 10.21875 L 3.921875 10.195312 L 3.917969 10.191406 L 3.902344 10.195312 L 3.867188 10.214844 C 3.863281 10.21875 3.859375 10.21875 3.859375 10.214844 L 3.832031 10.210938 L 3.796875 10.210938 C 3.792969 10.210938 3.792969 10.210938 3.789062 10.210938 L 3.769531 10.203125 L 3.753906 10.203125 C 3.75 10.199219 3.746094 10.195312 3.742188 10.191406 L 3.734375 10.199219 C 3.730469 10.199219 3.726562 10.203125 3.722656 10.199219 L 3.695312 10.199219 C 3.691406 10.195312 3.691406 10.195312 3.6875 10.195312 L 3.664062 10.183594 C 3.660156 10.183594 3.660156 10.179688 3.660156 10.179688 L 3.628906 10.152344 C 3.628906 10.152344 3.625 10.152344 3.625 10.148438 L 3.613281 10.128906 L 3.546875 10.113281 C 3.546875 10.113281 3.542969 10.113281 3.542969 10.109375 L 3.527344 10.101562 C 3.523438 10.097656 3.519531 10.09375 3.519531 10.085938 L 3.515625 10.085938 C 3.515625 10.085938 3.511719 10.085938 3.511719 10.082031 L 3.503906 10.074219 L 3.476562 10.089844 C 3.472656 10.09375 3.460938 10.089844 3.457031 10.082031 L 3.453125 10.074219 C 3.449219 10.070312 3.449219 10.066406 3.449219 10.066406 L 3.449219 10.054688 L 3.433594 10.042969 C 3.433594 10.042969 3.429688 10.042969 3.429688 10.042969 L 3.417969 10.042969 C 3.414062 10.042969 3.410156 10.042969 3.410156 10.039062 L 3.378906 10.011719 L 3.367188 10.007812 L 3.355469 10.019531 C 3.351562 10.023438 3.34375 10.023438 3.339844 10.023438 L 3.324219 10.019531 C 3.320312 10.019531 3.316406 10.015625 3.3125 10.011719 L 3.304688 9.996094 L 3.265625 9.96875 C 3.257812 9.964844 3.257812 9.957031 3.257812 9.949219 L 3.277344 9.910156 C 3.277344 9.910156 3.277344 9.90625 3.277344 9.90625 L 3.285156 9.898438 L 3.269531 9.898438 L 3.257812 9.902344 L 3.246094 9.917969 L 3.25 9.9375 C 3.25 9.9375 3.25 9.9375 3.25 9.941406 L 3.242188 9.980469 C 3.242188 9.980469 3.242188 9.980469 3.242188 9.984375 L 3.230469 10.023438 C 3.226562 10.027344 3.226562 10.03125 3.222656 10.03125 L 3.214844 10.035156 C 3.210938 10.035156 3.207031 10.035156 3.203125 10.035156 L 3.191406 10.03125 L 3.105469 10 C 3.101562 9.996094 3.097656 9.996094 3.097656 9.992188 L 3.078125 9.960938 L 3.0625 9.929688 C 3.0625 9.925781 3.0625 9.925781 3.0625 9.921875 L 3.0625 9.910156 C 3.0625 9.90625 3.0625 9.902344 3.066406 9.902344 L 3.074219 9.886719 C 3.078125 9.886719 3.078125 9.886719 3.078125 9.882812 L 3.121094 9.855469 C 3.121094 9.851562 3.125 9.847656 3.128906 9.847656 L 3.136719 9.839844 L 3.140625 9.828125 L 3.140625 9.816406 C 3.140625 9.808594 3.140625 9.804688 3.144531 9.800781 L 3.152344 9.792969 C 3.15625 9.792969 3.15625 9.792969 3.15625 9.792969 L 3.160156 9.761719 C 3.160156 9.757812 3.164062 9.753906 3.167969 9.75 L 3.179688 9.742188 L 3.1875 9.695312 C 3.1875 9.691406 3.1875 9.6875 3.1875 9.6875 L 3.195312 9.679688 L 3.195312 9.675781 L 3.191406 9.652344 L 3.171875 9.625 L 3.160156 9.632812 C 3.15625 9.632812 3.152344 9.632812 3.148438 9.632812 L 3.128906 9.628906 C 3.128906 9.628906 3.128906 9.625 3.125 9.625 L 3.097656 9.617188 C 3.097656 9.617188 3.097656 9.613281 3.09375 9.613281 L 3.082031 9.601562 L 3.074219 9.601562 C 3.070312 9.601562 3.066406 9.597656 3.0625 9.59375 L 3.054688 9.582031 L 3.035156 9.578125 L 3.011719 9.582031 L 3.011719 9.589844 C 3.011719 9.59375 3.011719 9.597656 3.007812 9.597656 L 2.988281 9.632812 C 2.984375 9.640625 2.980469 9.644531 2.972656 9.640625 L 2.933594 9.636719 C 2.929688 9.636719 2.929688 9.636719 2.925781 9.636719 L 2.921875 9.632812 C 2.917969 9.632812 2.917969 9.628906 2.917969 9.628906 L 2.90625 9.613281 C 2.90625 9.613281 2.90625 9.609375 2.902344 9.609375 L 2.894531 9.574219 C 2.894531 9.570312 2.894531 9.570312 2.898438 9.566406 L 2.902344 9.542969 L 2.898438 9.546875 C 2.894531 9.546875 2.890625 9.546875 2.886719 9.542969 L 2.875 9.535156 L 2.867188 9.53125 L 2.851562 9.535156 C 2.847656 9.539062 2.839844 9.539062 2.835938 9.535156 L 2.832031 9.535156 L 2.824219 9.542969 C 2.820312 9.546875 2.816406 9.546875 2.8125 9.546875 L 2.792969 9.550781 C 2.785156 9.550781 2.777344 9.546875 2.773438 9.539062 L 2.765625 9.511719 C 2.765625 9.507812 2.765625 9.507812 2.765625 9.503906 L 2.769531 9.492188 L 2.761719 9.488281 C 2.757812 9.484375 2.753906 9.480469 2.753906 9.476562 L 2.753906 9.472656 L 2.75 9.472656 C 2.746094 9.472656 2.742188 9.472656 2.738281 9.46875 L 2.71875 9.457031 C 2.71875 9.453125 2.714844 9.449219 2.714844 9.445312 C 2.714844 9.441406 2.714844 9.4375 2.71875 9.433594 L 2.730469 9.421875 L 2.726562 9.417969 C 2.726562 9.414062 2.726562 9.410156 2.726562 9.40625 C 2.726562 9.402344 2.730469 9.398438 2.734375 9.394531 L 2.753906 9.386719 L 2.765625 9.378906 C 2.769531 9.375 2.773438 9.371094 2.78125 9.375 L 2.796875 9.378906 L 2.851562 9.363281 C 2.859375 9.363281 2.867188 9.363281 2.871094 9.355469 L 2.902344 9.347656 L 2.929688 9.328125 L 2.933594 9.320312 C 2.9375 9.320312 2.941406 9.316406 2.945312 9.316406 L 2.984375 9.265625 L 2.996094 9.242188 C 2.996094 9.238281 2.996094 9.234375 3 9.230469 L 3.023438 9.214844 L 3.058594 9.160156 L 3.101562 9.089844 L 3.140625 9.027344 L 3.164062 8.980469 L 3.179688 8.910156 L 3.203125 8.816406 L 3.226562 8.742188 L 3.230469 8.722656 L 3.25 8.65625 L 3.265625 8.625 L 3.277344 8.578125 L 3.332031 8.382812 L 3.375 8.238281 L 3.390625 8.171875 L 3.472656 7.828125 L 3.515625 7.609375 L 3.523438 7.542969 L 3.519531 7.480469 C 3.515625 7.476562 3.519531 7.472656 3.523438 7.46875 L 3.558594 7.429688 L 3.582031 7.386719 L 3.59375 7.363281 L 3.597656 7.320312 C 3.597656 7.320312 3.597656 7.316406 3.597656 7.316406 L 3.613281 7.285156 C 3.617188 7.28125 3.617188 7.28125 3.621094 7.277344 L 3.628906 7.273438 C 3.632812 7.269531 3.636719 7.269531 3.640625 7.269531 L 3.664062 7.269531 C 3.664062 7.269531 3.664062 7.269531 3.667969 7.269531 L 3.691406 7.277344 C 3.695312 7.277344 3.699219 7.28125 3.699219 7.285156 L 3.707031 7.300781 L 3.710938 7.300781 C 3.714844 7.300781 3.714844 7.300781 3.714844 7.300781 L 3.71875 7.304688 C 3.722656 7.304688 3.726562 7.304688 3.726562 7.304688 C 3.726562 7.304688 3.730469 7.304688 3.730469 7.308594 L 3.761719 7.316406 L 3.800781 7.308594 C 3.808594 7.300781 3.816406 7.300781 3.820312 7.304688 L 3.832031 7.3125 L 3.828125 7.304688 C 3.828125 7.304688 3.824219 7.296875 3.828125 7.292969 L 3.824219 7.285156 L 3.800781 7.273438 C 3.796875 7.273438 3.792969 7.273438 3.792969 7.269531 L 3.777344 7.253906 C 3.777344 7.25 3.773438 7.242188 3.777344 7.238281 C 3.777344 7.234375 3.78125 7.230469 3.789062 7.226562 L 3.765625 7.203125 L 3.742188 7.171875 L 3.726562 7.164062 C 3.722656 7.160156 3.71875 7.160156 3.71875 7.15625 L 3.71875 7.152344 C 3.714844 7.152344 3.710938 7.152344 3.710938 7.148438 L 3.683594 7.125 C 3.683594 7.125 3.683594 7.125 3.683594 7.121094 L 3.679688 7.121094 L 3.679688 7.132812 C 3.679688 7.132812 3.679688 7.136719 3.679688 7.140625 L 3.675781 7.152344 C 3.675781 7.152344 3.671875 7.15625 3.671875 7.15625 L 3.617188 7.210938 L 3.605469 7.226562 L 3.59375 7.257812 L 3.582031 7.308594 L 3.582031 7.316406 C 3.582031 7.316406 3.582031 7.320312 3.582031 7.324219 L 3.578125 7.347656 C 3.578125 7.351562 3.574219 7.351562 3.574219 7.355469 L 3.5625 7.363281 C 3.558594 7.367188 3.550781 7.367188 3.546875 7.363281 L 3.539062 7.359375 C 3.539062 7.359375 3.535156 7.355469 3.535156 7.351562 L 3.527344 7.335938 C 3.527344 7.332031 3.527344 7.332031 3.527344 7.328125 L 3.53125 7.285156 L 3.585938 7.027344 L 3.625 6.835938 L 3.667969 6.585938 L 3.6875 6.484375 L 3.734375 6.21875 L 3.75 6.101562 L 3.757812 6.015625 C 3.757812 6.015625 3.757812 6.015625 3.757812 6.011719 L 3.773438 5.953125 L 3.769531 5.914062 C 3.769531 5.910156 3.769531 5.910156 3.769531 5.910156 L 3.773438 5.886719 C 3.773438 5.886719 3.773438 5.882812 3.777344 5.882812 L 3.800781 5.835938 C 3.800781 5.832031 3.800781 5.832031 3.804688 5.832031 L 3.828125 5.808594 L 3.851562 5.78125 L 3.863281 5.75 C 3.867188 5.746094 3.871094 5.742188 3.875 5.738281 L 3.898438 5.734375 L 3.910156 5.726562 C 3.914062 5.722656 3.921875 5.726562 3.925781 5.730469 C 3.929688 5.734375 3.933594 5.738281 3.929688 5.746094 L 3.925781 5.765625 L 3.929688 5.773438 L 3.941406 5.777344 C 3.945312 5.777344 3.945312 5.78125 3.949219 5.785156 L 3.953125 5.804688 C 3.953125 5.8125 3.953125 5.816406 3.949219 5.820312 L 3.945312 5.828125 C 3.941406 5.828125 3.9375 5.832031 3.933594 5.832031 C 3.925781 5.835938 3.921875 5.839844 3.917969 5.835938 L 3.933594 5.855469 L 3.953125 5.867188 C 3.953125 5.871094 3.957031 5.871094 3.957031 5.875 L 3.96875 5.890625 L 4.007812 5.933594 L 4.0625 5.96875 C 4.0625 5.96875 4.066406 5.972656 4.066406 5.972656 L 4.09375 6.027344 L 4.121094 6.042969 C 4.121094 6.046875 4.121094 6.046875 4.125 6.046875 L 4.164062 6.089844 L 4.1875 6.113281 C 4.1875 6.117188 4.1875 6.117188 4.1875 6.117188 L 4.199219 6.140625 L 4.207031 6.148438 C 4.207031 6.148438 4.210938 6.152344 4.210938 6.152344 L 4.246094 6.257812 C 4.246094 6.261719 4.246094 6.261719 4.246094 6.261719 L 4.261719 6.34375 L 4.300781 6.339844 L 4.296875 6.269531 L 4.285156 6.203125 C 4.285156 6.199219 4.285156 6.199219 4.285156 6.195312 C 4.285156 6.195312 4.285156 6.195312 4.285156 6.191406 L 4.277344 6.140625 C 4.277344 6.136719 4.277344 6.136719 4.277344 6.136719 L 4.261719 6.0625 L 4.253906 6.027344 L 4.234375 5.988281 L 4.230469 5.984375 C 4.226562 5.984375 4.226562 5.980469 4.226562 5.980469 L 4.214844 5.960938 L 4.210938 5.949219 C 4.203125 5.949219 4.199219 5.945312 4.195312 5.941406 L 4.1875 5.925781 L 4.175781 5.914062 C 4.171875 5.910156 4.171875 5.902344 4.175781 5.898438 L 4.148438 5.871094 L 4.125 5.859375 C 4.121094 5.855469 4.121094 5.855469 4.117188 5.851562 L 4.113281 5.84375 C 4.109375 5.84375 4.101562 5.84375 4.097656 5.839844 L 4.082031 5.824219 C 4.078125 5.820312 4.074219 5.8125 4.078125 5.808594 L 4.074219 5.796875 L 4.066406 5.792969 L 4.066406 5.789062 L 4.058594 5.792969 C 4.054688 5.796875 4.050781 5.796875 4.046875 5.796875 L 4.035156 5.789062 C 4.03125 5.789062 4.03125 5.789062 4.03125 5.789062 L 4.011719 5.769531 C 4.011719 5.769531 4.011719 5.769531 4.011719 5.765625 L 4 5.75 C 3.996094 5.75 3.992188 5.746094 3.988281 5.738281 L 3.988281 5.734375 C 3.988281 5.730469 3.988281 5.730469 3.988281 5.726562 L 3.988281 5.710938 L 3.980469 5.710938 C 3.972656 5.707031 3.96875 5.707031 3.96875 5.699219 L 3.964844 5.695312 C 3.960938 5.691406 3.960938 5.6875 3.964844 5.683594 L 3.964844 5.671875 L 3.949219 5.671875 C 3.949219 5.675781 3.945312 5.671875 3.941406 5.671875 L 3.929688 5.664062 C 3.925781 5.660156 3.921875 5.65625 3.917969 5.65625 L 3.902344 5.636719 C 3.898438 5.636719 3.894531 5.636719 3.894531 5.636719 L 3.855469 5.617188 C 3.855469 5.617188 3.855469 5.613281 3.855469 5.613281 L 3.816406 5.578125 L 3.773438 5.546875 C 3.777344 5.550781 3.777344 5.554688 3.773438 5.558594 C 3.769531 5.5625 3.765625 5.566406 3.761719 5.566406 L 3.742188 5.566406 C 3.734375 5.570312 3.730469 5.566406 3.726562 5.5625 L 3.714844 5.542969 C 3.714844 5.542969 3.714844 5.539062 3.714844 5.539062 L 3.707031 5.515625 C 3.707031 5.511719 3.707031 5.511719 3.707031 5.511719 L 3.707031 5.386719 L 3.714844 5.347656 C 3.714844 5.34375 3.71875 5.339844 3.722656 5.335938 L 3.730469 5.332031 C 3.734375 5.328125 3.734375 5.328125 3.738281 5.328125 L 3.769531 5.324219 C 3.769531 5.324219 3.773438 5.324219 3.773438 5.324219 L 3.792969 5.332031 L 3.828125 5.316406 C 3.832031 5.3125 3.835938 5.316406 3.839844 5.316406 L 3.847656 5.320312 L 3.84375 5.300781 L 3.832031 5.292969 C 3.832031 5.289062 3.832031 5.285156 3.828125 5.285156 L 3.828125 5.273438 C 3.820312 5.273438 3.8125 5.269531 3.8125 5.261719 L 3.804688 5.238281 C 3.804688 5.234375 3.808594 5.226562 3.8125 5.222656 C 3.816406 5.21875 3.824219 5.21875 3.828125 5.222656 C 3.828125 5.21875 3.832031 5.214844 3.835938 5.210938 C 3.839844 5.210938 3.84375 5.210938 3.847656 5.210938 L 3.882812 5.21875 L 3.890625 5.210938 L 3.898438 5.199219 L 3.898438 5.195312 C 3.898438 5.191406 3.898438 5.191406 3.902344 5.1875 L 3.925781 5.160156 L 3.933594 5.144531 L 3.933594 5.113281 L 3.914062 5.101562 C 3.910156 5.097656 3.90625 5.09375 3.90625 5.089844 C 3.90625 5.082031 3.910156 5.078125 3.914062 5.074219 L 3.925781 5.070312 C 3.925781 5.066406 3.929688 5.066406 3.933594 5.066406 C 3.933594 5.066406 3.933594 5.066406 3.933594 5.0625 L 3.929688 5.039062 L 3.890625 5 C 3.890625 4.996094 3.886719 4.992188 3.890625 4.984375 C 3.890625 4.980469 3.894531 4.976562 3.898438 4.972656 L 3.90625 4.96875 C 3.910156 4.96875 3.917969 4.96875 3.921875 4.972656 L 3.941406 4.992188 L 3.964844 4.988281 L 3.972656 4.980469 L 3.964844 4.960938 C 3.964844 4.957031 3.964844 4.953125 3.964844 4.949219 L 3.96875 4.9375 L 3.964844 4.925781 L 3.960938 4.921875 L 3.949219 4.917969 C 3.949219 4.917969 3.949219 4.917969 3.945312 4.917969 L 3.941406 4.914062 C 3.9375 4.910156 3.933594 4.90625 3.933594 4.902344 L 3.929688 4.859375 L 3.921875 4.835938 L 3.917969 4.832031 L 3.890625 4.824219 C 3.890625 4.820312 3.886719 4.820312 3.882812 4.816406 L 3.878906 4.8125 C 3.878906 4.808594 3.878906 4.800781 3.878906 4.796875 C 3.878906 4.792969 3.882812 4.789062 3.886719 4.789062 L 3.894531 4.785156 L 3.890625 4.785156 C 3.882812 4.785156 3.878906 4.78125 3.878906 4.777344 L 3.875 4.769531 L 3.871094 4.765625 L 3.855469 4.761719 C 3.847656 4.757812 3.84375 4.75 3.847656 4.742188 L 3.847656 4.738281 L 3.824219 4.746094 C 3.820312 4.746094 3.820312 4.746094 3.816406 4.746094 L 3.8125 4.742188 C 3.808594 4.742188 3.808594 4.742188 3.808594 4.742188 L 3.789062 4.734375 L 3.785156 4.730469 C 3.78125 4.730469 3.78125 4.730469 3.78125 4.730469 L 3.773438 4.722656 C 3.769531 4.71875 3.769531 4.71875 3.769531 4.714844 L 3.765625 4.710938 C 3.765625 4.707031 3.765625 4.703125 3.765625 4.699219 L 3.765625 4.695312 C 3.769531 4.691406 3.769531 4.6875 3.773438 4.6875 L 3.777344 4.683594 C 3.78125 4.679688 3.78125 4.679688 3.78125 4.679688 L 3.792969 4.675781 L 3.796875 4.660156 C 3.800781 4.65625 3.804688 4.65625 3.808594 4.652344 L 3.816406 4.652344 L 3.816406 4.644531 C 3.8125 4.636719 3.8125 4.628906 3.8125 4.625 L 3.824219 4.609375 C 3.824219 4.605469 3.828125 4.605469 3.832031 4.601562 L 3.863281 4.585938 L 3.890625 4.5625 L 3.902344 4.542969 C 3.902344 4.539062 3.90625 4.539062 3.910156 4.535156 L 3.933594 4.53125 L 3.925781 4.480469 L 3.921875 4.464844 C 3.917969 4.457031 3.917969 4.453125 3.921875 4.449219 L 3.929688 4.441406 L 3.929688 4.433594 C 3.933594 4.425781 3.9375 4.421875 3.945312 4.421875 L 3.953125 4.421875 C 3.957031 4.421875 3.964844 4.425781 3.964844 4.433594 L 3.976562 4.4375 L 3.980469 4.4375 C 3.980469 4.433594 3.984375 4.429688 3.984375 4.429688 L 3.992188 4.421875 L 4.019531 4.386719 C 4.019531 4.382812 4.027344 4.378906 4.03125 4.378906 C 4.035156 4.378906 4.042969 4.382812 4.042969 4.386719 L 4.070312 4.378906 C 4.070312 4.378906 4.074219 4.378906 4.078125 4.378906 L 4.117188 4.382812 L 4.125 4.367188 C 4.132812 4.363281 4.140625 4.359375 4.148438 4.363281 L 4.15625 4.367188 L 4.179688 4.355469 C 4.183594 4.351562 4.191406 4.355469 4.195312 4.359375 C 4.203125 4.363281 4.203125 4.371094 4.199219 4.378906 L 4.191406 4.394531 L 4.179688 4.429688 C 4.179688 4.429688 4.179688 4.429688 4.175781 4.433594 L 4.164062 4.449219 L 4.175781 4.457031 L 4.191406 4.453125 C 4.195312 4.453125 4.199219 4.453125 4.203125 4.457031 L 4.207031 4.453125 L 4.214844 4.441406 C 4.21875 4.4375 4.226562 4.433594 4.234375 4.4375 L 4.246094 4.441406 C 4.25 4.4375 4.257812 4.433594 4.261719 4.4375 L 4.273438 4.421875 C 4.273438 4.421875 4.277344 4.417969 4.28125 4.417969 L 4.292969 4.414062 C 4.300781 4.414062 4.308594 4.414062 4.308594 4.421875 L 4.3125 4.421875 L 4.332031 4.417969 C 4.335938 4.417969 4.339844 4.417969 4.34375 4.421875 C 4.347656 4.421875 4.351562 4.425781 4.351562 4.429688 L 4.351562 4.4375 C 4.355469 4.441406 4.351562 4.445312 4.347656 4.449219 L 4.347656 4.453125 L 4.367188 4.460938 C 4.371094 4.464844 4.371094 4.464844 4.375 4.46875 L 4.378906 4.472656 L 4.382812 4.472656 C 4.386719 4.472656 4.390625 4.476562 4.390625 4.480469 L 4.398438 4.488281 L 4.410156 4.492188 C 4.410156 4.488281 4.410156 4.484375 4.414062 4.484375 L 4.421875 4.476562 C 4.421875 4.472656 4.425781 4.46875 4.429688 4.46875 L 4.4375 4.46875 L 4.445312 4.460938 C 4.449219 4.457031 4.457031 4.453125 4.464844 4.457031 L 4.488281 4.472656 L 4.515625 4.472656 L 4.515625 4.460938 C 4.515625 4.453125 4.519531 4.449219 4.523438 4.445312 L 4.542969 4.4375 L 4.554688 4.433594 L 4.558594 4.414062 C 4.5625 4.40625 4.570312 4.402344 4.578125 4.40625 L 4.601562 4.410156 L 4.617188 4.40625 L 4.636719 4.378906 L 4.617188 4.375 C 4.609375 4.375 4.605469 4.371094 4.605469 4.367188 L 4.605469 4.363281 L 4.601562 4.363281 C 4.597656 4.359375 4.597656 4.359375 4.59375 4.359375 L 4.582031 4.34375 L 4.570312 4.371094 C 4.570312 4.375 4.566406 4.378906 4.5625 4.378906 C 4.558594 4.378906 4.550781 4.378906 4.546875 4.378906 L 4.527344 4.363281 C 4.523438 4.363281 4.523438 4.359375 4.523438 4.355469 C 4.519531 4.351562 4.523438 4.34375 4.523438 4.339844 L 4.527344 4.335938 L 4.523438 4.332031 C 4.523438 4.328125 4.523438 4.324219 4.523438 4.320312 L 4.527344 4.285156 C 4.527344 4.28125 4.53125 4.277344 4.535156 4.273438 L 4.550781 4.269531 L 4.554688 4.253906 C 4.558594 4.25 4.558594 4.25 4.558594 4.246094 C 4.558594 4.242188 4.558594 4.242188 4.554688 4.238281 L 4.554688 4.226562 L 4.546875 4.21875 C 4.542969 4.214844 4.542969 4.207031 4.542969 4.203125 L 4.550781 4.179688 L 4.542969 4.171875 L 4.535156 4.160156 C 4.527344 4.15625 4.527344 4.148438 4.53125 4.144531 L 4.535156 4.136719 L 4.535156 4.132812 C 4.53125 4.128906 4.53125 4.125 4.535156 4.121094 C 4.539062 4.117188 4.539062 4.113281 4.546875 4.113281 L 4.5625 4.105469 C 4.5625 4.105469 4.566406 4.105469 4.566406 4.105469 L 4.582031 4.109375 L 4.582031 4.078125 C 4.574219 4.078125 4.570312 4.074219 4.566406 4.066406 L 4.5625 4.039062 C 4.5625 4.035156 4.5625 4.03125 4.566406 4.027344 L 4.574219 4.015625 C 4.570312 4.011719 4.570312 4.007812 4.570312 4.003906 L 4.566406 3.996094 C 4.5625 3.992188 4.5625 3.984375 4.566406 3.976562 L 4.578125 3.960938 L 4.566406 3.945312 L 4.5625 3.945312 L 4.550781 3.949219 C 4.546875 3.949219 4.539062 3.949219 4.535156 3.945312 C 4.53125 3.945312 4.53125 3.941406 4.53125 3.9375 L 4.527344 3.925781 C 4.527344 3.917969 4.53125 3.914062 4.535156 3.910156 L 4.542969 3.902344 L 4.542969 3.894531 C 4.542969 3.890625 4.546875 3.886719 4.550781 3.882812 L 4.539062 3.871094 L 4.515625 3.851562 C 4.511719 3.847656 4.511719 3.84375 4.511719 3.839844 C 4.511719 3.835938 4.511719 3.832031 4.515625 3.828125 L 4.535156 3.8125 L 4.523438 3.789062 L 4.519531 3.785156 C 4.515625 3.785156 4.507812 3.785156 4.507812 3.777344 L 4.496094 3.757812 C 4.492188 3.753906 4.492188 3.75 4.496094 3.746094 L 4.496094 3.742188 C 4.492188 3.742188 4.492188 3.742188 4.488281 3.738281 L 4.476562 3.726562 C 4.472656 3.726562 4.472656 3.722656 4.472656 3.71875 L 4.464844 3.695312 C 4.464844 3.695312 4.464844 3.691406 4.464844 3.691406 L 4.46875 3.664062 C 4.46875 3.664062 4.46875 3.660156 4.46875 3.660156 L 4.476562 3.648438 L 4.480469 3.628906 C 4.484375 3.625 4.484375 3.625 4.488281 3.621094 L 4.496094 3.617188 L 4.480469 3.613281 C 4.476562 3.613281 4.472656 3.613281 4.46875 3.609375 L 4.464844 3.597656 L 4.445312 3.59375 C 4.445312 3.59375 4.441406 3.59375 4.4375 3.589844 L 4.421875 3.574219 L 4.414062 3.570312 C 4.414062 3.566406 4.410156 3.566406 4.410156 3.5625 L 4.398438 3.539062 L 4.375 3.503906 L 4.359375 3.492188 C 4.355469 3.488281 4.351562 3.488281 4.351562 3.484375 C 4.351562 3.476562 4.351562 3.472656 4.355469 3.46875 L 4.371094 3.445312 L 4.371094 3.441406 C 4.371094 3.4375 4.375 3.433594 4.375 3.429688 C 4.375 3.425781 4.371094 3.421875 4.367188 3.421875 L 4.363281 3.410156 L 4.34375 3.398438 C 4.339844 3.394531 4.335938 3.390625 4.335938 3.386719 L 4.3125 3.382812 C 4.308594 3.378906 4.304688 3.375 4.300781 3.371094 L 4.300781 3.363281 C 4.300781 3.359375 4.300781 3.351562 4.304688 3.347656 L 4.304688 3.34375 L 4.300781 3.34375 C 4.296875 3.34375 4.289062 3.339844 4.285156 3.335938 L 4.28125 3.332031 C 4.28125 3.328125 4.277344 3.324219 4.28125 3.320312 C 4.28125 3.316406 4.28125 3.3125 4.285156 3.308594 L 4.296875 3.300781 C 4.300781 3.300781 4.304688 3.296875 4.308594 3.296875 L 4.316406 3.296875 C 4.320312 3.296875 4.324219 3.296875 4.324219 3.300781 L 4.335938 3.304688 C 4.339844 3.304688 4.339844 3.304688 4.339844 3.304688 L 4.347656 3.289062 C 4.351562 3.285156 4.355469 3.285156 4.359375 3.285156 L 4.375 3.28125 L 4.386719 3.273438 C 4.386719 3.273438 4.390625 3.273438 4.394531 3.273438 L 4.398438 3.273438 C 4.402344 3.273438 4.40625 3.273438 4.40625 3.277344 L 4.414062 3.273438 L 4.421875 3.261719 C 4.425781 3.257812 4.433594 3.253906 4.4375 3.253906 L 4.457031 3.257812 C 4.460938 3.261719 4.464844 3.261719 4.464844 3.265625 L 4.476562 3.28125 L 4.484375 3.273438 C 4.488281 3.273438 4.492188 3.273438 4.496094 3.273438 L 4.503906 3.273438 C 4.507812 3.273438 4.507812 3.277344 4.511719 3.277344 L 4.523438 3.292969 L 4.53125 3.285156 C 4.539062 3.28125 4.546875 3.28125 4.550781 3.285156 L 4.554688 3.289062 L 4.5625 3.277344 C 4.570312 3.273438 4.578125 3.273438 4.582031 3.273438 L 4.605469 3.285156 L 4.617188 3.285156 C 4.621094 3.285156 4.625 3.285156 4.625 3.285156 L 4.636719 3.289062 L 4.652344 3.289062 C 4.65625 3.285156 4.65625 3.28125 4.660156 3.277344 L 4.664062 3.277344 L 4.671875 3.261719 C 4.675781 3.261719 4.675781 3.257812 4.679688 3.257812 L 4.691406 3.253906 L 4.695312 3.242188 C 4.699219 3.238281 4.703125 3.234375 4.710938 3.230469 L 4.707031 3.230469 C 4.703125 3.226562 4.703125 3.222656 4.703125 3.21875 L 4.707031 3.199219 C 4.703125 3.195312 4.699219 3.191406 4.703125 3.1875 C 4.703125 3.183594 4.707031 3.179688 4.710938 3.175781 L 4.765625 3.152344 C 4.769531 3.152344 4.769531 3.152344 4.769531 3.152344 L 4.796875 3.144531 C 4.800781 3.144531 4.800781 3.144531 4.804688 3.144531 L 4.835938 3.148438 C 4.84375 3.148438 4.847656 3.152344 4.847656 3.15625 C 4.851562 3.15625 4.851562 3.164062 4.851562 3.167969 L 4.851562 3.175781 L 4.855469 3.175781 L 4.875 3.167969 C 4.878906 3.167969 4.882812 3.167969 4.886719 3.171875 L 4.898438 3.175781 L 4.902344 3.152344 C 4.902344 3.144531 4.910156 3.140625 4.914062 3.140625 L 4.925781 3.136719 C 4.929688 3.136719 4.933594 3.136719 4.9375 3.140625 C 4.9375 3.140625 4.941406 3.140625 4.941406 3.140625 L 4.960938 3.136719 C 4.96875 3.132812 4.972656 3.132812 4.980469 3.140625 L 4.988281 3.148438 L 5.011719 3.144531 L 5.023438 3.136719 C 5.023438 3.136719 5.027344 3.132812 5.027344 3.132812 L 5.050781 3.128906 C 5.054688 3.128906 5.0625 3.128906 5.066406 3.132812 L 5.070312 3.128906 C 5.074219 3.125 5.078125 3.125 5.082031 3.125 C 5.085938 3.125 5.089844 3.128906 5.09375 3.132812 L 5.101562 3.128906 C 5.105469 3.125 5.109375 3.128906 5.113281 3.128906 L 5.148438 3.148438 L 5.15625 3.144531 L 5.160156 3.136719 C 5.164062 3.128906 5.171875 3.125 5.179688 3.128906 L 5.210938 3.140625 L 5.222656 3.140625 C 5.226562 3.136719 5.234375 3.140625 5.238281 3.144531 C 5.238281 3.144531 5.242188 3.148438 5.242188 3.15625 L 5.242188 3.167969 C 5.242188 3.171875 5.238281 3.175781 5.234375 3.179688 L 5.210938 3.199219 L 5.222656 3.203125 C 5.222656 3.203125 5.226562 3.203125 5.226562 3.207031 L 5.234375 3.214844 C 5.238281 3.214844 5.238281 3.21875 5.242188 3.222656 L 5.253906 3.214844 L 5.257812 3.191406 C 5.257812 3.1875 5.257812 3.1875 5.257812 3.1875 L 5.261719 3.175781 C 5.261719 3.171875 5.265625 3.171875 5.265625 3.167969 L 5.28125 3.152344 C 5.285156 3.148438 5.289062 3.148438 5.296875 3.148438 L 5.3125 3.152344 C 5.316406 3.15625 5.320312 3.160156 5.324219 3.164062 L 5.339844 3.164062 C 5.339844 3.164062 5.335938 3.164062 5.335938 3.160156 L 5.335938 3.15625 C 5.332031 3.152344 5.332031 3.148438 5.335938 3.144531 L 5.339844 3.128906 L 5.34375 3.121094 C 5.34375 3.117188 5.34375 3.113281 5.34375 3.113281 L 5.375 3.0625 C 5.375 3.0625 5.378906 3.0625 5.378906 3.058594 L 5.417969 3.027344 C 5.421875 3.027344 5.425781 3.023438 5.429688 3.023438 C 5.433594 3.027344 5.4375 3.027344 5.441406 3.03125 L 5.449219 3.046875 C 5.457031 3.042969 5.460938 3.042969 5.46875 3.046875 L 5.476562 3.050781 C 5.480469 3.050781 5.480469 3.054688 5.484375 3.058594 L 5.492188 3.082031 C 5.496094 3.082031 5.5 3.082031 5.503906 3.085938 C 5.507812 3.085938 5.511719 3.09375 5.511719 3.097656 L 5.511719 3.121094 C 5.511719 3.121094 5.511719 3.125 5.511719 3.125 L 5.511719 3.128906 L 5.515625 3.128906 L 5.519531 3.121094 C 5.523438 3.117188 5.53125 3.113281 5.539062 3.117188 L 5.550781 3.117188 C 5.550781 3.121094 5.554688 3.121094 5.558594 3.125 L 5.5625 3.128906 C 5.566406 3.125 5.574219 3.125 5.578125 3.132812 C 5.585938 3.136719 5.585938 3.144531 5.582031 3.148438 L 5.574219 3.160156 L 5.582031 3.164062 C 5.585938 3.164062 5.585938 3.164062 5.585938 3.164062 L 5.605469 3.148438 C 5.613281 3.144531 5.617188 3.144531 5.621094 3.148438 C 5.625 3.148438 5.628906 3.152344 5.632812 3.160156 L 5.636719 3.179688 L 5.648438 3.195312 C 5.652344 3.203125 5.652344 3.210938 5.644531 3.214844 L 5.621094 3.242188 C 5.628906 3.238281 5.632812 3.242188 5.636719 3.246094 L 5.644531 3.253906 L 5.65625 3.246094 L 5.660156 3.242188 C 5.664062 3.238281 5.667969 3.234375 5.671875 3.234375 L 5.683594 3.230469 C 5.683594 3.230469 5.6875 3.230469 5.6875 3.230469 L 5.710938 3.238281 C 5.71875 3.238281 5.722656 3.246094 5.722656 3.253906 L 5.722656 3.277344 L 5.742188 3.265625 C 5.746094 3.261719 5.757812 3.265625 5.761719 3.269531 L 5.769531 3.285156 C 5.773438 3.289062 5.777344 3.292969 5.773438 3.296875 L 5.769531 3.308594 L 5.773438 3.324219 C 5.777344 3.328125 5.773438 3.335938 5.769531 3.339844 L 5.765625 3.34375 L 5.769531 3.371094 L 5.769531 3.375 C 5.773438 3.382812 5.773438 3.390625 5.765625 3.394531 L 5.757812 3.402344 L 5.761719 3.40625 C 5.765625 3.410156 5.765625 3.417969 5.761719 3.425781 L 5.757812 3.429688 L 5.757812 3.433594 C 5.761719 3.4375 5.761719 3.441406 5.761719 3.445312 L 5.757812 3.457031 L 5.761719 3.476562 L 5.765625 3.484375 L 5.773438 3.480469 C 5.777344 3.476562 5.777344 3.476562 5.78125 3.476562 L 5.785156 3.476562 L 5.804688 3.460938 C 5.808594 3.457031 5.816406 3.457031 5.820312 3.457031 L 5.847656 3.46875 C 5.847656 3.46875 5.851562 3.472656 5.851562 3.472656 L 5.867188 3.484375 L 5.882812 3.484375 C 5.882812 3.484375 5.886719 3.484375 5.890625 3.488281 L 5.894531 3.492188 L 5.894531 3.488281 C 5.898438 3.484375 5.902344 3.480469 5.90625 3.480469 L 5.980469 3.453125 C 5.984375 3.449219 5.992188 3.449219 5.996094 3.453125 L 6 3.457031 L 6.023438 3.453125 C 6.027344 3.453125 6.027344 3.453125 6.03125 3.453125 L 6.046875 3.457031 C 6.046875 3.457031 6.050781 3.457031 6.050781 3.457031 L 6.0625 3.464844 L 6.085938 3.464844 L 6.085938 3.457031 L 6.0625 3.445312 C 6.058594 3.441406 6.054688 3.433594 6.054688 3.429688 L 6.058594 3.414062 L 6.050781 3.402344 C 6.050781 3.398438 6.050781 3.394531 6.050781 3.390625 L 6.050781 3.386719 C 6.050781 3.382812 6.054688 3.378906 6.058594 3.375 C 6.0625 3.375 6.066406 3.371094 6.070312 3.375 L 6.089844 3.375 C 6.09375 3.375 6.09375 3.375 6.09375 3.375 L 6.128906 3.375 C 6.132812 3.375 6.136719 3.378906 6.140625 3.382812 L 6.148438 3.394531 C 6.148438 3.398438 6.148438 3.402344 6.148438 3.40625 L 6.148438 3.410156 L 6.152344 3.414062 C 6.15625 3.410156 6.164062 3.414062 6.167969 3.414062 L 6.179688 3.421875 C 6.179688 3.421875 6.183594 3.425781 6.183594 3.429688 L 6.1875 3.433594 L 6.214844 3.441406 C 6.21875 3.441406 6.222656 3.445312 6.222656 3.449219 L 6.230469 3.460938 C 6.230469 3.460938 6.230469 3.464844 6.230469 3.46875 L 6.230469 3.480469 L 6.238281 3.523438 C 6.238281 3.523438 6.238281 3.527344 6.238281 3.53125 L 6.234375 3.542969 L 6.238281 3.554688 C 6.242188 3.558594 6.242188 3.5625 6.238281 3.566406 L 6.234375 3.578125 L 6.257812 3.613281 C 6.257812 3.613281 6.257812 3.613281 6.257812 3.617188 L 6.269531 3.628906 C 6.273438 3.632812 6.273438 3.632812 6.273438 3.636719 L 6.277344 3.644531 L 6.289062 3.644531 C 6.292969 3.640625 6.296875 3.644531 6.300781 3.644531 C 6.304688 3.648438 6.304688 3.652344 6.308594 3.65625 L 6.308594 3.660156 C 6.308594 3.664062 6.308594 3.664062 6.308594 3.667969 L 6.316406 3.667969 C 6.320312 3.664062 6.324219 3.667969 6.328125 3.671875 L 6.335938 3.683594 C 6.335938 3.6875 6.335938 3.691406 6.335938 3.695312 C 6.335938 3.699219 6.332031 3.703125 6.328125 3.703125 L 6.339844 3.710938 C 6.34375 3.710938 6.347656 3.71875 6.347656 3.722656 L 6.347656 3.746094 L 6.355469 3.761719 C 6.355469 3.765625 6.355469 3.769531 6.355469 3.769531 L 6.351562 3.785156 L 6.359375 3.789062 C 6.359375 3.789062 6.363281 3.792969 6.363281 3.796875 L 6.367188 3.8125 L 6.378906 3.832031 L 6.390625 3.839844 C 6.394531 3.839844 6.398438 3.84375 6.398438 3.851562 L 6.402344 3.855469 L 6.40625 3.863281 L 6.417969 3.875 L 6.433594 3.882812 C 6.4375 3.882812 6.441406 3.886719 6.441406 3.890625 L 6.445312 3.894531 L 6.453125 3.898438 C 6.457031 3.902344 6.460938 3.910156 6.457031 3.914062 L 6.457031 3.925781 L 6.46875 3.953125 C 6.472656 3.957031 6.472656 3.957031 6.472656 3.960938 L 6.472656 3.972656 C 6.476562 3.976562 6.472656 3.984375 6.464844 3.988281 L 6.449219 3.996094 C 6.453125 4 6.453125 4.003906 6.453125 4.007812 L 6.445312 4.019531 L 6.453125 4.042969 C 6.457031 4.050781 6.453125 4.058594 6.445312 4.0625 L 6.441406 4.066406 L 6.425781 4.085938 L 6.433594 4.097656 C 6.4375 4.097656 6.4375 4.101562 6.4375 4.101562 L 6.445312 4.128906 L 6.460938 4.132812 C 6.464844 4.136719 6.46875 4.136719 6.472656 4.140625 C 6.472656 4.144531 6.472656 4.148438 6.472656 4.152344 L 6.472656 4.160156 L 6.484375 4.164062 C 6.484375 4.167969 6.488281 4.167969 6.488281 4.171875 L 6.492188 4.175781 L 6.507812 4.175781 C 6.515625 4.175781 6.519531 4.175781 6.523438 4.183594 L 6.527344 4.1875 L 6.546875 4.1875 C 6.554688 4.1875 6.5625 4.191406 6.5625 4.199219 L 6.574219 4.230469 C 6.574219 4.234375 6.574219 4.238281 6.570312 4.238281 L 6.570312 4.242188 L 6.605469 4.242188 C 6.605469 4.242188 6.609375 4.242188 6.609375 4.242188 L 6.625 4.25 L 6.632812 4.246094 C 6.636719 4.246094 6.640625 4.246094 6.640625 4.25 L 6.660156 4.257812 C 6.660156 4.257812 6.660156 4.257812 6.660156 4.261719 L 6.683594 4.28125 C 6.683594 4.28125 6.683594 4.28125 6.6875 4.285156 L 6.714844 4.320312 C 6.714844 4.324219 6.71875 4.328125 6.714844 4.332031 C 6.714844 4.339844 6.710938 4.339844 6.707031 4.34375 L 6.703125 4.347656 L 6.714844 4.375 C 6.71875 4.382812 6.71875 4.386719 6.714844 4.390625 L 6.710938 4.398438 C 6.707031 4.398438 6.707031 4.398438 6.703125 4.402344 L 6.707031 4.410156 L 6.722656 4.414062 C 6.722656 4.417969 6.726562 4.417969 6.726562 4.417969 L 6.746094 4.429688 C 6.746094 4.433594 6.746094 4.4375 6.75 4.441406 C 6.753906 4.441406 6.757812 4.441406 6.761719 4.441406 L 6.773438 4.441406 C 6.777344 4.441406 6.78125 4.445312 6.785156 4.453125 C 6.785156 4.457031 6.785156 4.460938 6.78125 4.464844 L 6.757812 4.5 L 6.757812 4.511719 C 6.757812 4.515625 6.757812 4.519531 6.757812 4.523438 L 6.761719 4.519531 C 6.765625 4.519531 6.769531 4.523438 6.773438 4.527344 C 6.777344 4.527344 6.777344 4.535156 6.777344 4.539062 L 6.777344 4.558594 L 6.785156 4.558594 L 6.796875 4.550781 C 6.796875 4.546875 6.800781 4.546875 6.804688 4.542969 L 6.816406 4.542969 C 6.816406 4.542969 6.820312 4.542969 6.824219 4.542969 L 6.847656 4.546875 C 6.851562 4.550781 6.851562 4.550781 6.855469 4.554688 L 6.867188 4.554688 C 6.875 4.550781 6.875 4.539062 6.871094 4.53125 C 6.871094 4.527344 6.875 4.523438 6.878906 4.519531 L 6.921875 4.507812 C 6.921875 4.507812 6.925781 4.507812 6.929688 4.507812 L 6.941406 4.515625 C 6.945312 4.515625 6.949219 4.515625 6.949219 4.519531 L 6.957031 4.527344 L 6.972656 4.550781 L 6.980469 4.566406 C 6.984375 4.566406 6.992188 4.566406 6.992188 4.570312 C 6.996094 4.574219 7 4.578125 7 4.582031 L 7.003906 4.585938 C 7.007812 4.589844 7.007812 4.589844 7.007812 4.59375 L 7.011719 4.605469 L 7.015625 4.601562 L 7.015625 4.597656 C 7.015625 4.597656 7.015625 4.59375 7.019531 4.589844 L 7.027344 4.578125 C 7.03125 4.574219 7.035156 4.570312 7.039062 4.570312 L 7.054688 4.566406 L 7.074219 4.539062 C 7.074219 4.539062 7.078125 4.535156 7.078125 4.535156 L 7.089844 4.53125 C 7.09375 4.53125 7.09375 4.53125 7.097656 4.53125 L 7.097656 4.527344 C 7.097656 4.523438 7.097656 4.523438 7.101562 4.519531 L 7.109375 4.511719 L 7.113281 4.503906 C 7.113281 4.5 7.113281 4.496094 7.117188 4.496094 L 7.136719 4.484375 C 7.140625 4.480469 7.148438 4.480469 7.152344 4.480469 L 7.164062 4.488281 C 7.164062 4.488281 7.167969 4.492188 7.167969 4.492188 L 7.179688 4.507812 C 7.179688 4.511719 7.179688 4.511719 7.179688 4.515625 L 7.183594 4.53125 L 7.191406 4.523438 L 7.195312 4.523438 C 7.199219 4.519531 7.203125 4.515625 7.207031 4.515625 L 7.214844 4.519531 L 7.222656 4.507812 C 7.222656 4.503906 7.226562 4.503906 7.226562 4.5 L 7.238281 4.496094 C 7.242188 4.492188 7.25 4.492188 7.253906 4.496094 L 7.265625 4.503906 C 7.273438 4.507812 7.277344 4.515625 7.273438 4.523438 L 7.265625 4.542969 L 7.273438 4.558594 L 7.277344 4.5625 L 7.285156 4.554688 L 7.292969 4.539062 C 7.292969 4.539062 7.296875 4.535156 7.296875 4.535156 L 7.324219 4.511719 C 7.328125 4.511719 7.332031 4.507812 7.335938 4.511719 C 7.34375 4.511719 7.347656 4.511719 7.347656 4.515625 L 7.375 4.558594 L 7.378906 4.5625 C 7.378906 4.558594 7.378906 4.558594 7.382812 4.558594 L 7.398438 4.546875 L 7.398438 4.542969 C 7.398438 4.539062 7.398438 4.535156 7.398438 4.535156 L 7.410156 4.511719 L 7.410156 4.5 C 7.40625 4.5 7.410156 4.496094 7.410156 4.492188 L 7.402344 4.484375 C 7.398438 4.480469 7.398438 4.472656 7.402344 4.46875 C 7.40625 4.464844 7.410156 4.460938 7.414062 4.460938 L 7.476562 4.457031 C 7.484375 4.453125 7.492188 4.460938 7.492188 4.464844 L 7.496094 4.476562 L 7.511719 4.492188 C 7.511719 4.492188 7.511719 4.496094 7.515625 4.5 L 7.515625 4.503906 L 7.523438 4.507812 L 7.53125 4.5 C 7.535156 4.5 7.539062 4.496094 7.542969 4.5 L 7.570312 4.5 L 7.570312 4.496094 C 7.574219 4.488281 7.582031 4.484375 7.589844 4.488281 L 7.597656 4.492188 L 7.605469 4.488281 C 7.613281 4.484375 7.617188 4.484375 7.621094 4.488281 L 7.632812 4.496094 C 7.632812 4.496094 7.636719 4.5 7.636719 4.5 L 7.636719 4.503906 L 7.691406 4.496094 C 7.695312 4.496094 7.699219 4.496094 7.703125 4.5 L 7.71875 4.511719 C 7.71875 4.511719 7.722656 4.515625 7.722656 4.515625 L 7.746094 4.519531 C 7.75 4.523438 7.753906 4.523438 7.753906 4.527344 L 7.777344 4.539062 L 7.792969 4.539062 C 7.796875 4.539062 7.796875 4.539062 7.796875 4.539062 L 7.808594 4.542969 C 7.8125 4.542969 7.816406 4.546875 7.816406 4.550781 L 7.824219 4.558594 L 7.832031 4.558594 L 7.84375 4.546875 C 7.847656 4.542969 7.855469 4.542969 7.859375 4.542969 L 7.882812 4.546875 L 7.890625 4.542969 C 7.894531 4.542969 7.894531 4.542969 7.898438 4.542969 L 7.9375 4.542969 L 7.949219 4.539062 C 7.953125 4.535156 7.957031 4.535156 7.960938 4.539062 L 7.984375 4.546875 L 8.023438 4.546875 C 8.027344 4.546875 8.03125 4.546875 8.035156 4.550781 L 8.035156 4.554688 L 8.058594 4.558594 C 8.066406 4.5625 8.070312 4.566406 8.070312 4.574219 L 8.070312 4.585938 C 8.074219 4.59375 8.070312 4.597656 8.070312 4.601562 L 8.070312 4.625 L 8.078125 4.628906 C 8.082031 4.628906 8.085938 4.628906 8.085938 4.632812 L 8.09375 4.636719 L 8.109375 4.636719 C 8.117188 4.636719 8.125 4.640625 8.128906 4.648438 L 8.132812 4.664062 C 8.132812 4.664062 8.132812 4.667969 8.132812 4.667969 L 8.132812 4.671875 C 8.132812 4.679688 8.132812 4.683594 8.128906 4.6875 C 8.125 4.6875 8.121094 4.691406 8.117188 4.691406 L 8.105469 4.691406 L 8.097656 4.695312 L 8.097656 4.707031 C 8.097656 4.707031 8.097656 4.710938 8.097656 4.710938 L 8.101562 4.71875 L 8.117188 4.730469 L 8.140625 4.734375 C 8.144531 4.734375 8.148438 4.738281 8.152344 4.742188 L 8.160156 4.730469 C 8.164062 4.722656 8.171875 4.71875 8.179688 4.722656 C 8.183594 4.722656 8.183594 4.726562 8.1875 4.726562 L 8.222656 4.769531 C 8.226562 4.773438 8.226562 4.777344 8.226562 4.785156 L 8.222656 4.792969 L 8.234375 4.792969 C 8.238281 4.789062 8.242188 4.792969 8.246094 4.792969 L 8.277344 4.808594 C 8.277344 4.8125 8.277344 4.8125 8.28125 4.8125 L 8.292969 4.828125 C 8.292969 4.832031 8.296875 4.835938 8.292969 4.839844 L 8.292969 4.855469 L 8.300781 4.878906 L 8.328125 4.894531 C 8.332031 4.898438 8.335938 4.90625 8.332031 4.914062 L 8.335938 4.96875 L 8.339844 4.980469 C 8.34375 4.984375 8.34375 4.988281 8.34375 4.988281 L 8.34375 5 L 8.347656 5.007812 L 8.367188 5.011719 C 8.371094 5.011719 8.378906 5.015625 8.378906 5.023438 L 8.382812 5.078125 C 8.382812 5.082031 8.382812 5.085938 8.378906 5.085938 L 8.375 5.09375 C 8.375 5.097656 8.371094 5.097656 8.371094 5.101562 L 8.367188 5.117188 C 8.367188 5.121094 8.367188 5.121094 8.363281 5.125 L 8.359375 5.128906 L 8.359375 5.164062 C 8.359375 5.164062 8.359375 5.167969 8.359375 5.167969 L 8.355469 5.179688 L 8.375 5.238281 L 8.40625 5.261719 C 8.410156 5.265625 8.414062 5.273438 8.414062 5.277344 L 8.398438 5.339844 L 8.398438 5.347656 L 8.410156 5.363281 C 8.414062 5.367188 8.414062 5.375 8.414062 5.378906 L 8.410156 5.394531 C 8.40625 5.398438 8.402344 5.402344 8.398438 5.40625 L 8.359375 5.414062 C 8.363281 5.421875 8.359375 5.429688 8.351562 5.433594 L 8.339844 5.4375 L 8.339844 5.441406 C 8.339844 5.445312 8.335938 5.449219 8.332031 5.453125 L 8.328125 5.457031 L 8.328125 5.460938 L 8.335938 5.464844 C 8.339844 5.46875 8.34375 5.472656 8.34375 5.480469 C 8.34375 5.484375 8.339844 5.492188 8.335938 5.492188 L 8.332031 5.496094 L 8.28125 5.53125 C 8.277344 5.535156 8.273438 5.535156 8.273438 5.535156 L 8.273438 5.539062 C 8.273438 5.542969 8.269531 5.546875 8.269531 5.546875 L 8.257812 5.566406 C 8.253906 5.570312 8.246094 5.574219 8.242188 5.574219 L 8.230469 5.570312 C 8.226562 5.570312 8.222656 5.570312 8.21875 5.566406 L 8.21875 5.5625 C 8.214844 5.566406 8.210938 5.566406 8.207031 5.566406 L 8.203125 5.566406 C 8.207031 5.570312 8.207031 5.574219 8.207031 5.578125 L 8.203125 5.589844 C 8.203125 5.597656 8.195312 5.601562 8.1875 5.601562 L 8.183594 5.601562 C 8.183594 5.605469 8.179688 5.605469 8.179688 5.609375 L 8.171875 5.617188 C 8.167969 5.621094 8.164062 5.621094 8.15625 5.621094 L 8.136719 5.613281 L 8.132812 5.617188 L 8.171875 5.675781 C 8.175781 5.679688 8.175781 5.679688 8.175781 5.683594 L 8.175781 5.710938 L 8.183594 5.71875 C 8.1875 5.71875 8.191406 5.71875 8.195312 5.722656 L 8.210938 5.730469 C 8.210938 5.734375 8.214844 5.734375 8.214844 5.738281 L 8.214844 5.742188 L 8.226562 5.746094 C 8.230469 5.746094 8.234375 5.75 8.234375 5.753906 L 8.242188 5.769531 L 8.273438 5.816406 C 8.277344 5.816406 8.277344 5.820312 8.277344 5.828125 L 8.273438 5.839844 L 8.277344 5.839844 C 8.28125 5.84375 8.28125 5.851562 8.28125 5.855469 L 8.277344 5.863281 L 8.28125 5.867188 C 8.285156 5.875 8.28125 5.882812 8.273438 5.886719 L 8.265625 5.894531 L 8.261719 5.894531 L 8.261719 5.898438 L 8.273438 5.910156 C 8.277344 5.917969 8.277344 5.921875 8.273438 5.929688 L 8.265625 5.9375 L 8.265625 5.941406 C 8.269531 5.949219 8.265625 5.957031 8.257812 5.957031 L 8.25 5.960938 C 8.246094 5.960938 8.242188 5.960938 8.242188 5.960938 L 8.21875 5.957031 L 8.210938 6 C 8.210938 6.003906 8.207031 6.007812 8.203125 6.011719 L 8.191406 6.019531 L 8.203125 6.039062 L 8.214844 6.054688 C 8.214844 6.058594 8.21875 6.058594 8.21875 6.058594 L 8.222656 6.074219 L 8.238281 6.078125 C 8.246094 6.082031 8.25 6.085938 8.25 6.09375 L 8.253906 6.109375 C 8.253906 6.113281 8.25 6.117188 8.25 6.121094 L 8.25 6.132812 C 8.25 6.132812 8.25 6.136719 8.25 6.140625 L 8.246094 6.144531 L 8.25 6.148438 C 8.25 6.152344 8.25 6.160156 8.246094 6.164062 L 8.238281 6.179688 L 8.234375 6.183594 L 8.238281 6.191406 C 8.242188 6.195312 8.242188 6.199219 8.238281 6.203125 L 8.234375 6.226562 L 8.234375 6.234375 C 8.234375 6.234375 8.230469 6.238281 8.230469 6.238281 L 8.222656 6.257812 C 8.222656 6.257812 8.222656 6.261719 8.21875 6.261719 L 8.222656 6.269531 C 8.222656 6.273438 8.21875 6.277344 8.21875 6.277344 L 8.214844 6.28125 L 8.207031 6.320312 C 8.207031 6.320312 8.207031 6.320312 8.203125 6.320312 L 8.222656 6.339844 C 8.230469 6.339844 8.238281 6.34375 8.238281 6.351562 L 8.242188 6.371094 C 8.246094 6.375 8.246094 6.378906 8.242188 6.382812 L 8.238281 6.398438 C 8.234375 6.402344 8.234375 6.402344 8.226562 6.40625 C 8.222656 6.40625 8.21875 6.40625 8.214844 6.40625 L 8.214844 6.402344 L 8.214844 6.40625 C 8.210938 6.40625 8.207031 6.40625 8.203125 6.40625 L 8.1875 6.40625 L 8.183594 6.414062 C 8.183594 6.417969 8.175781 6.421875 8.171875 6.421875 C 8.164062 6.421875 8.160156 6.421875 8.15625 6.414062 L 8.148438 6.398438 L 8.121094 6.394531 C 8.117188 6.394531 8.113281 6.390625 8.113281 6.386719 L 8.097656 6.371094 L 8.078125 6.367188 C 8.074219 6.367188 8.074219 6.367188 8.070312 6.363281 L 8.0625 6.355469 C 8.058594 6.355469 8.058594 6.351562 8.058594 6.347656 L 8.054688 6.34375 L 8.039062 6.335938 L 8.050781 6.363281 C 8.054688 6.367188 8.050781 6.375 8.050781 6.378906 L 8.046875 6.382812 L 8.046875 6.386719 C 8.046875 6.390625 8.046875 6.390625 8.046875 6.390625 L 8.042969 6.417969 C 8.042969 6.421875 8.042969 6.425781 8.039062 6.429688 L 8.03125 6.4375 L 8.03125 6.441406 C 8.035156 6.449219 8.035156 6.453125 8.03125 6.457031 L 8.023438 6.472656 C 8.023438 6.476562 8.019531 6.480469 8.015625 6.480469 L 8 6.484375 C 8 6.484375 7.996094 6.484375 7.996094 6.488281 L 7.972656 6.488281 L 7.964844 6.503906 L 7.941406 6.539062 C 7.941406 6.542969 7.933594 6.546875 7.929688 6.546875 L 7.90625 6.546875 L 7.902344 6.566406 C 7.902344 6.570312 7.898438 6.574219 7.890625 6.574219 L 7.878906 6.578125 L 7.878906 6.59375 C 7.878906 6.601562 7.875 6.605469 7.871094 6.609375 L 7.855469 6.613281 L 7.847656 6.625 C 7.847656 6.625 7.847656 6.628906 7.84375 6.628906 L 7.832031 6.636719 C 7.832031 6.644531 7.828125 6.648438 7.820312 6.652344 L 7.816406 6.664062 L 7.820312 6.667969 C 7.820312 6.667969 7.824219 6.671875 7.824219 6.675781 L 7.824219 6.699219 L 7.839844 6.710938 L 7.84375 6.714844 C 7.851562 6.714844 7.855469 6.71875 7.859375 6.722656 L 7.859375 6.730469 C 7.859375 6.734375 7.859375 6.738281 7.859375 6.742188 L 7.855469 6.75 C 7.855469 6.753906 7.847656 6.757812 7.84375 6.757812 L 7.832031 6.757812 L 7.832031 6.769531 C 7.832031 6.773438 7.828125 6.777344 7.828125 6.777344 L 7.808594 6.792969 C 7.804688 6.796875 7.800781 6.800781 7.796875 6.796875 L 7.800781 6.8125 C 7.800781 6.816406 7.800781 6.820312 7.796875 6.824219 L 7.789062 6.84375 L 7.785156 6.855469 C 7.785156 6.859375 7.785156 6.859375 7.785156 6.859375 L 7.777344 6.882812 C 7.773438 6.886719 7.769531 6.890625 7.765625 6.890625 C 7.761719 6.894531 7.757812 6.894531 7.753906 6.890625 L 7.742188 6.882812 L 7.730469 6.882812 C 7.726562 6.886719 7.722656 6.890625 7.71875 6.890625 L 7.683594 6.914062 L 7.683594 6.917969 L 7.695312 6.9375 C 7.695312 6.9375 7.695312 6.941406 7.695312 6.941406 L 7.703125 6.96875 L 7.726562 6.996094 C 7.730469 7 7.730469 7.003906 7.730469 7.011719 L 7.71875 7.042969 C 7.714844 7.046875 7.710938 7.050781 7.703125 7.054688 L 7.671875 7.058594 C 7.667969 7.058594 7.664062 7.058594 7.660156 7.054688 L 7.652344 7.050781 L 7.621094 7.0625 C 7.617188 7.0625 7.617188 7.0625 7.613281 7.0625 L 7.605469 7.0625 C 7.601562 7.0625 7.597656 7.058594 7.59375 7.054688 L 7.589844 7.050781 L 7.554688 7.058594 C 7.550781 7.058594 7.550781 7.058594 7.550781 7.058594 L 7.527344 7.0625 L 7.496094 7.082031 L 7.488281 7.085938 C 7.484375 7.09375 7.480469 7.09375 7.472656 7.09375 L 7.460938 7.089844 C 7.457031 7.085938 7.449219 7.082031 7.449219 7.074219 L 7.453125 7.050781 L 7.449219 7.050781 C 7.449219 7.050781 7.445312 7.050781 7.445312 7.050781 L 7.433594 7.046875 L 7.417969 7.0625 L 7.417969 7.070312 C 7.414062 7.074219 7.410156 7.082031 7.40625 7.082031 L 7.367188 7.09375 L 7.355469 7.105469 C 7.351562 7.109375 7.347656 7.113281 7.339844 7.109375 L 7.335938 7.117188 C 7.332031 7.121094 7.328125 7.125 7.324219 7.125 L 7.308594 7.125 L 7.304688 7.128906 C 7.300781 7.132812 7.296875 7.136719 7.292969 7.136719 C 7.289062 7.136719 7.285156 7.136719 7.28125 7.132812 C 7.277344 7.128906 7.277344 7.125 7.277344 7.121094 L 7.269531 7.125 C 7.265625 7.128906 7.261719 7.128906 7.257812 7.128906 C 7.25 7.128906 7.246094 7.125 7.246094 7.117188 L 7.242188 7.109375 L 7.226562 7.097656 C 7.222656 7.097656 7.21875 7.09375 7.21875 7.089844 C 7.21875 7.082031 7.21875 7.078125 7.222656 7.074219 L 7.21875 7.0625 L 7.214844 7.058594 L 7.199219 7.046875 L 7.191406 7.046875 C 7.1875 7.050781 7.179688 7.046875 7.175781 7.039062 L 7.171875 7.035156 C 7.171875 7.035156 7.171875 7.03125 7.171875 7.03125 L 7.167969 7.007812 L 7.160156 7 C 7.15625 7 7.15625 6.996094 7.15625 6.996094 L 7.148438 6.984375 L 7.140625 6.980469 C 7.136719 6.980469 7.136719 6.976562 7.132812 6.976562 L 7.113281 6.949219 C 7.113281 6.945312 7.109375 6.941406 7.109375 6.941406 L 7.109375 6.9375 L 7.097656 6.929688 L 7.085938 6.929688 C 7.082031 6.933594 7.078125 6.933594 7.074219 6.933594 C 7.066406 6.933594 7.058594 6.929688 7.058594 6.921875 L 7.035156 6.914062 L 7.011719 6.925781 C 7.007812 6.929688 7 6.929688 6.996094 6.925781 L 6.988281 6.921875 C 6.984375 6.917969 6.980469 6.914062 6.980469 6.910156 L 6.976562 6.902344 C 6.972656 6.90625 6.96875 6.90625 6.964844 6.90625 L 6.953125 6.90625 L 6.929688 6.921875 C 6.929688 6.929688 6.925781 6.933594 6.917969 6.9375 L 6.902344 6.945312 L 6.894531 6.945312 C 6.890625 6.949219 6.886719 6.945312 6.882812 6.941406 L 6.878906 6.941406 L 6.871094 6.949219 C 6.871094 6.949219 6.867188 6.949219 6.867188 6.949219 L 6.851562 6.953125 L 6.855469 6.960938 C 6.855469 6.960938 6.855469 6.964844 6.855469 6.964844 L 6.851562 6.996094 L 6.855469 7 C 6.855469 7.003906 6.855469 7.007812 6.855469 7.007812 L 6.855469 7.023438 L 6.859375 7.03125 C 6.863281 7.035156 6.871094 7.039062 6.871094 7.042969 L 6.871094 7.054688 C 6.871094 7.058594 6.871094 7.0625 6.871094 7.066406 L 6.875 7.089844 C 6.878906 7.097656 6.875 7.101562 6.875 7.105469 C 6.871094 7.109375 6.867188 7.109375 6.859375 7.109375 L 6.847656 7.109375 L 6.847656 7.121094 L 6.863281 7.132812 C 6.867188 7.136719 6.871094 7.140625 6.871094 7.144531 L 6.871094 7.164062 C 6.871094 7.167969 6.871094 7.171875 6.867188 7.175781 L 6.859375 7.183594 C 6.855469 7.1875 6.855469 7.1875 6.851562 7.1875 L 6.828125 7.191406 C 6.828125 7.195312 6.828125 7.195312 6.824219 7.199219 L 6.820312 7.214844 C 6.816406 7.222656 6.808594 7.226562 6.800781 7.226562 L 6.792969 7.226562 L 6.785156 7.230469 C 6.78125 7.234375 6.777344 7.234375 6.769531 7.234375 L 6.769531 7.273438 C 6.769531 7.28125 6.761719 7.285156 6.757812 7.289062 L 6.746094 7.289062 L 6.726562 7.296875 C 6.726562 7.296875 6.722656 7.296875 6.71875 7.296875 L 6.707031 7.292969 L 6.691406 7.300781 C 6.691406 7.300781 6.691406 7.300781 6.691406 7.304688 L 6.691406 7.308594 C 6.691406 7.3125 6.691406 7.316406 6.691406 7.320312 L 6.6875 7.324219 L 6.691406 7.324219 C 6.691406 7.328125 6.691406 7.328125 6.691406 7.328125 L 6.707031 7.34375 C 6.710938 7.347656 6.710938 7.355469 6.710938 7.359375 L 6.699219 7.394531 C 6.699219 7.398438 6.695312 7.402344 6.691406 7.40625 C 6.6875 7.40625 6.683594 7.40625 6.679688 7.40625 L 6.679688 7.410156 C 6.679688 7.414062 6.675781 7.417969 6.675781 7.417969 L 6.660156 7.441406 C 6.65625 7.445312 6.652344 7.445312 6.648438 7.449219 C 6.644531 7.449219 6.640625 7.449219 6.636719 7.445312 L 6.632812 7.441406 L 6.628906 7.445312 C 6.628906 7.449219 6.625 7.449219 6.621094 7.453125 L 6.609375 7.457031 L 6.605469 7.464844 C 6.605469 7.472656 6.601562 7.476562 6.59375 7.476562 L 6.582031 7.480469 L 6.582031 7.484375 C 6.582031 7.488281 6.574219 7.496094 6.566406 7.496094 L 6.515625 7.492188 L 6.503906 7.496094 L 6.5 7.503906 C 6.496094 7.503906 6.496094 7.507812 6.492188 7.507812 L 6.488281 7.507812 L 6.488281 7.519531 C 6.488281 7.523438 6.488281 7.527344 6.484375 7.53125 L 6.488281 7.546875 C 6.492188 7.546875 6.492188 7.550781 6.488281 7.554688 L 6.484375 7.566406 C 6.484375 7.566406 6.484375 7.570312 6.480469 7.574219 L 6.449219 7.597656 L 6.425781 7.617188 L 6.417969 7.628906 L 6.421875 7.640625 C 6.421875 7.644531 6.421875 7.648438 6.421875 7.652344 C 6.421875 7.652344 6.421875 7.652344 6.417969 7.65625 L 6.421875 7.65625 C 6.421875 7.664062 6.421875 7.667969 6.417969 7.671875 C 6.414062 7.675781 6.410156 7.675781 6.40625 7.675781 L 6.390625 7.675781 C 6.386719 7.675781 6.382812 7.675781 6.382812 7.675781 L 6.378906 7.675781 C 6.378906 7.675781 6.375 7.679688 6.371094 7.679688 L 6.34375 7.6875 C 6.34375 7.6875 6.339844 7.691406 6.339844 7.691406 C 6.339844 7.691406 6.335938 7.691406 6.335938 7.691406 L 6.328125 7.695312 L 6.304688 7.722656 C 6.300781 7.726562 6.296875 7.730469 6.289062 7.726562 L 6.304688 7.761719 C 6.308594 7.765625 6.308594 7.769531 6.308594 7.769531 L 6.304688 7.792969 C 6.304688 7.796875 6.304688 7.796875 6.300781 7.800781 L 6.304688 7.804688 C 6.308594 7.804688 6.3125 7.8125 6.3125 7.816406 L 6.3125 7.832031 C 6.3125 7.835938 6.3125 7.835938 6.3125 7.839844 L 6.308594 7.851562 L 6.308594 7.859375 L 6.3125 7.871094 C 6.316406 7.871094 6.316406 7.871094 6.316406 7.875 C 6.324219 7.875 6.328125 7.878906 6.332031 7.882812 L 6.339844 7.886719 C 6.34375 7.890625 6.347656 7.894531 6.347656 7.902344 L 6.351562 7.945312 C 6.351562 7.949219 6.347656 7.953125 6.347656 7.957031 L 6.34375 7.957031 C 6.34375 7.960938 6.34375 7.960938 6.34375 7.960938 L 6.347656 7.984375 C 6.351562 7.988281 6.347656 7.996094 6.34375 8 L 6.34375 8.007812 C 6.34375 8.015625 6.335938 8.019531 6.332031 8.023438 L 6.316406 8.027344 C 6.3125 8.027344 6.308594 8.027344 6.308594 8.027344 L 6.289062 8.023438 L 6.277344 8.023438 C 6.273438 8.023438 6.273438 8.023438 6.269531 8.023438 L 6.253906 8.015625 L 6.242188 8.023438 C 6.238281 8.027344 6.234375 8.027344 6.230469 8.027344 L 6.199219 8.023438 L 6.195312 8.035156 C 6.195312 8.042969 6.1875 8.050781 6.179688 8.046875 C 6.171875 8.046875 6.164062 8.042969 6.164062 8.035156 L 6.164062 7.996094 L 6.152344 7.984375 C 6.148438 7.984375 6.148438 7.980469 6.148438 7.980469 L 6.144531 7.980469 L 6.140625 7.988281 L 6.132812 7.996094 L 6.136719 8.003906 C 6.136719 8.003906 6.140625 8.007812 6.136719 8.011719 L 6.136719 8.015625 C 6.140625 8.023438 6.140625 8.027344 6.136719 8.035156 L 6.121094 8.0625 C 6.117188 8.066406 6.117188 8.066406 6.113281 8.066406 L 6.109375 8.070312 C 6.109375 8.074219 6.109375 8.074219 6.109375 8.074219 C 6.113281 8.078125 6.117188 8.078125 6.117188 8.082031 L 6.125 8.089844 L 6.140625 8.085938 C 6.148438 8.085938 6.15625 8.089844 6.160156 8.097656 L 6.164062 8.117188 C 6.164062 8.117188 6.164062 8.117188 6.167969 8.117188 L 6.191406 8.140625 C 6.199219 8.144531 6.199219 8.15625 6.195312 8.160156 L 6.179688 8.179688 C 6.179688 8.183594 6.175781 8.183594 6.171875 8.183594 L 6.171875 8.1875 C 6.171875 8.191406 6.171875 8.199219 6.167969 8.199219 L 6.160156 8.210938 L 6.160156 8.214844 C 6.164062 8.222656 6.167969 8.226562 6.164062 8.234375 L 6.125 8.300781 C 6.121094 8.304688 6.117188 8.308594 6.109375 8.308594 L 6.09375 8.304688 L 6.101562 8.3125 C 6.109375 8.316406 6.109375 8.320312 6.109375 8.328125 L 6.109375 8.332031 C 6.109375 8.335938 6.105469 8.335938 6.105469 8.339844 L 6.101562 8.34375 L 6.105469 8.355469 L 6.109375 8.363281 C 6.109375 8.367188 6.109375 8.371094 6.109375 8.375 L 6.105469 8.382812 C 6.097656 8.390625 6.089844 8.394531 6.085938 8.402344 L 6.070312 8.410156 C 6.066406 8.414062 6.0625 8.414062 6.058594 8.414062 L 6.046875 8.410156 C 6.039062 8.410156 6.035156 8.40625 6.035156 8.402344 L 6.035156 8.398438 L 6 8.378906 L 5.988281 8.378906 C 5.992188 8.382812 5.992188 8.386719 5.992188 8.390625 L 5.984375 8.402344 L 5.988281 8.414062 C 5.992188 8.417969 5.988281 8.425781 5.984375 8.429688 C 5.980469 8.433594 5.976562 8.433594 5.96875 8.433594 L 5.949219 8.425781 C 5.949219 8.425781 5.945312 8.425781 5.945312 8.425781 L 5.933594 8.433594 L 5.925781 8.445312 L 5.925781 8.457031 C 5.925781 8.457031 5.921875 8.460938 5.921875 8.460938 L 5.914062 8.476562 L 5.914062 8.488281 C 5.914062 8.496094 5.910156 8.5 5.902344 8.503906 L 5.871094 8.515625 C 5.871094 8.515625 5.867188 8.515625 5.863281 8.515625 L 5.851562 8.53125 C 5.847656 8.53125 5.84375 8.535156 5.84375 8.535156 L 5.835938 8.535156 L 5.832031 8.546875 C 5.832031 8.554688 5.828125 8.558594 5.824219 8.558594 L 5.800781 8.566406 C 5.792969 8.566406 5.785156 8.566406 5.785156 8.558594 L 5.773438 8.542969 C 5.773438 8.542969 5.773438 8.539062 5.773438 8.539062 L 5.773438 8.527344 L 5.753906 8.519531 C 5.75 8.515625 5.75 8.515625 5.746094 8.507812 L 5.742188 8.492188 L 5.714844 8.472656 C 5.714844 8.472656 5.714844 8.46875 5.714844 8.46875 C 5.714844 8.46875 5.714844 8.46875 5.710938 8.46875 L 5.707031 8.472656 L 5.699219 8.488281 C 5.695312 8.492188 5.695312 8.496094 5.691406 8.496094 L 5.679688 8.5 L 5.652344 8.507812 C 5.648438 8.507812 5.644531 8.507812 5.640625 8.503906 L 5.625 8.492188 L 5.621094 8.5 C 5.617188 8.503906 5.613281 8.507812 5.605469 8.507812 C 5.601562 8.507812 5.59375 8.503906 5.59375 8.496094 C 5.589844 8.5 5.582031 8.5 5.578125 8.5 L 5.558594 8.496094 L 5.554688 8.503906 L 5.542969 8.53125 C 5.539062 8.535156 5.535156 8.539062 5.527344 8.539062 L 5.503906 8.539062 L 5.496094 8.542969 C 5.492188 8.546875 5.488281 8.546875 5.484375 8.546875 L 5.476562 8.546875 L 5.464844 8.5625 C 5.460938 8.566406 5.457031 8.566406 5.453125 8.566406 L 5.441406 8.566406 C 5.4375 8.566406 5.433594 8.566406 5.433594 8.5625 L 5.417969 8.554688 L 5.386719 8.5625 C 5.390625 8.570312 5.382812 8.578125 5.378906 8.578125 L 5.367188 8.582031 C 5.363281 8.589844 5.351562 8.589844 5.347656 8.585938 L 5.324219 8.574219 L 5.316406 8.574219 C 5.3125 8.574219 5.308594 8.570312 5.304688 8.566406 L 5.304688 8.5625 L 5.289062 8.5625 C 5.289062 8.5625 5.285156 8.5625 5.285156 8.558594 L 5.265625 8.550781 C 5.257812 8.546875 5.253906 8.542969 5.253906 8.535156 L 5.253906 8.53125 L 5.25 8.53125 L 5.242188 8.535156 C 5.242188 8.539062 5.238281 8.539062 5.234375 8.539062 L 5.226562 8.539062 L 5.21875 8.550781 C 5.21875 8.550781 5.21875 8.554688 5.214844 8.554688 L 5.203125 8.5625 L 5.199219 8.582031 C 5.199219 8.582031 5.199219 8.585938 5.199219 8.585938 L 5.191406 8.597656 C 5.1875 8.601562 5.183594 8.605469 5.179688 8.605469 L 5.167969 8.605469 C 5.167969 8.605469 5.164062 8.605469 5.160156 8.605469 L 5.144531 8.597656 C 5.136719 8.59375 5.132812 8.585938 5.136719 8.578125 L 5.136719 8.566406 L 5.125 8.578125 C 5.121094 8.578125 5.117188 8.582031 5.113281 8.582031 L 5.082031 8.578125 L 5.078125 8.582031 L 5.078125 8.589844 C 5.078125 8.59375 5.074219 8.59375 5.074219 8.597656 L 5.066406 8.605469 L 5.074219 8.636719 C 5.074219 8.636719 5.078125 8.636719 5.078125 8.640625 L 5.078125 8.675781 C 5.082031 8.679688 5.078125 8.679688 5.078125 8.683594 L 5.070312 8.699219 C 5.070312 8.703125 5.066406 8.703125 5.066406 8.703125 L 5.050781 8.714844 C 5.046875 8.71875 5.039062 8.71875 5.035156 8.714844 L 5.023438 8.710938 L 5.019531 8.710938 C 5.011719 8.714844 5.003906 8.710938 5 8.707031 L 4.980469 8.6875 L 4.941406 8.65625 C 4.9375 8.652344 4.933594 8.648438 4.933594 8.640625 C 4.933594 8.636719 4.9375 8.632812 4.941406 8.628906 L 4.96875 8.609375 L 4.96875 8.605469 L 4.964844 8.601562 L 4.945312 8.578125 L 4.941406 8.585938 C 4.941406 8.59375 4.9375 8.59375 4.929688 8.597656 L 4.914062 8.601562 L 4.898438 8.621094 C 4.894531 8.625 4.894531 8.625 4.890625 8.625 L 4.882812 8.628906 C 4.882812 8.628906 4.878906 8.628906 4.875 8.628906 L 4.875 8.632812 C 4.875 8.636719 4.871094 8.644531 4.867188 8.644531 L 4.859375 8.652344 C 4.851562 8.65625 4.84375 8.652344 4.839844 8.648438 L 4.824219 8.628906 L 4.824219 8.632812 C 4.820312 8.636719 4.8125 8.636719 4.808594 8.632812 L 4.800781 8.632812 L 4.796875 8.636719 C 4.792969 8.636719 4.792969 8.640625 4.789062 8.640625 L 4.777344 8.644531 C 4.773438 8.644531 4.765625 8.644531 4.761719 8.640625 L 4.761719 8.636719 L 4.742188 8.660156 C 4.738281 8.660156 4.738281 8.664062 4.734375 8.664062 L 4.71875 8.671875 C 4.714844 8.671875 4.714844 8.675781 4.710938 8.675781 L 4.71875 8.675781 C 4.71875 8.679688 4.71875 8.679688 4.71875 8.679688 L 4.722656 8.683594 L 4.726562 8.683594 C 4.730469 8.683594 4.734375 8.683594 4.734375 8.6875 L 4.742188 8.695312 C 4.746094 8.695312 4.746094 8.699219 4.75 8.699219 L 4.757812 8.726562 C 4.757812 8.734375 4.753906 8.742188 4.75 8.746094 L 4.746094 8.746094 C 4.742188 8.75 4.738281 8.75 4.730469 8.75 L 4.742188 8.769531 L 4.746094 8.78125 C 4.75 8.789062 4.746094 8.792969 4.742188 8.796875 L 4.738281 8.800781 L 4.738281 8.828125 C 4.738281 8.832031 4.738281 8.835938 4.734375 8.839844 C 4.730469 8.84375 4.726562 8.84375 4.722656 8.84375 L 4.707031 8.839844 C 4.707031 8.84375 4.707031 8.847656 4.707031 8.851562 L 4.703125 8.859375 L 4.707031 8.859375 C 4.710938 8.863281 4.710938 8.867188 4.710938 8.871094 L 4.707031 8.886719 L 4.714844 8.90625 C 4.714844 8.90625 4.714844 8.910156 4.714844 8.914062 L 4.714844 8.917969 C 4.722656 8.917969 4.726562 8.925781 4.726562 8.929688 L 4.730469 8.949219 C 4.730469 8.953125 4.726562 8.957031 4.722656 8.960938 L 4.6875 8.988281 C 4.683594 8.988281 4.683594 8.992188 4.683594 8.992188 L 4.664062 9 L 4.664062 9.015625 C 4.667969 9.023438 4.664062 9.027344 4.660156 9.03125 L 4.652344 9.039062 C 4.65625 9.042969 4.660156 9.042969 4.664062 9.046875 C 4.664062 9.054688 4.664062 9.058594 4.664062 9.0625 L 4.660156 9.074219 L 4.652344 9.085938 C 4.652344 9.09375 4.648438 9.097656 4.640625 9.097656 L 4.632812 9.097656 L 4.632812 9.109375 C 4.628906 9.117188 4.628906 9.121094 4.625 9.121094 L 4.617188 9.125 C 4.617188 9.125 4.613281 9.125 4.609375 9.125 L 4.609375 9.128906 L 4.632812 9.132812 C 4.636719 9.132812 4.644531 9.136719 4.644531 9.140625 C 4.648438 9.144531 4.648438 9.148438 4.648438 9.152344 L 4.640625 9.171875 C 4.640625 9.171875 4.640625 9.175781 4.640625 9.175781 L 4.644531 9.179688 C 4.644531 9.179688 4.648438 9.179688 4.648438 9.179688 L 4.671875 9.175781 C 4.679688 9.171875 4.6875 9.175781 4.6875 9.183594 L 4.710938 9.171875 C 4.71875 9.167969 4.726562 9.171875 4.730469 9.179688 L 4.738281 9.195312 C 4.742188 9.191406 4.75 9.191406 4.753906 9.195312 L 4.765625 9.203125 L 4.769531 9.203125 L 4.773438 9.199219 C 4.777344 9.195312 4.78125 9.195312 4.785156 9.195312 L 4.816406 9.203125 C 4.820312 9.207031 4.824219 9.210938 4.828125 9.214844 L 4.832031 9.238281 C 4.832031 9.238281 4.832031 9.242188 4.832031 9.242188 L 4.828125 9.246094 L 4.832031 9.25 C 4.832031 9.253906 4.832031 9.257812 4.832031 9.261719 L 4.828125 9.265625 L 4.835938 9.265625 C 4.84375 9.265625 4.847656 9.265625 4.851562 9.273438 L 4.867188 9.292969 L 4.871094 9.296875 C 4.875 9.300781 4.875 9.300781 4.875 9.304688 L 4.882812 9.316406 C 4.882812 9.320312 4.882812 9.324219 4.882812 9.324219 L 4.882812 9.328125 L 4.886719 9.332031 C 4.886719 9.335938 4.886719 9.34375 4.882812 9.347656 L 4.878906 9.355469 L 4.878906 9.367188 C 4.882812 9.367188 4.886719 9.375 4.886719 9.378906 L 4.886719 9.390625 C 4.890625 9.390625 4.890625 9.390625 4.894531 9.394531 L 4.902344 9.402344 C 4.910156 9.410156 4.910156 9.417969 4.902344 9.421875 L 4.898438 9.429688 C 4.894531 9.433594 4.886719 9.4375 4.882812 9.4375 L 4.875 9.433594 L 4.851562 9.433594 C 4.851562 9.4375 4.851562 9.441406 4.851562 9.441406 L 4.84375 9.457031 L 4.84375 9.464844 L 4.851562 9.476562 L 4.855469 9.46875 C 4.859375 9.460938 4.863281 9.457031 4.867188 9.457031 C 4.867188 9.457031 4.871094 9.457031 4.875 9.457031 L 4.878906 9.449219 C 4.878906 9.445312 4.886719 9.441406 4.890625 9.441406 L 4.90625 9.441406 C 4.914062 9.441406 4.917969 9.441406 4.921875 9.445312 C 4.921875 9.449219 4.925781 9.453125 4.921875 9.460938 L 4.921875 9.472656 L 4.929688 9.484375 C 4.9375 9.488281 4.9375 9.496094 4.933594 9.503906 L 4.917969 9.53125 C 4.917969 9.53125 4.917969 9.535156 4.917969 9.535156 C 4.921875 9.535156 4.921875 9.535156 4.921875 9.539062 C 4.921875 9.542969 4.921875 9.546875 4.921875 9.550781 L 4.921875 9.554688 C 4.921875 9.558594 4.921875 9.5625 4.917969 9.566406 C 4.921875 9.570312 4.921875 9.574219 4.921875 9.578125 L 4.921875 9.589844 L 4.945312 9.613281 C 4.949219 9.617188 4.949219 9.625 4.945312 9.628906 L 4.941406 9.640625 C 4.941406 9.640625 4.941406 9.640625 4.941406 9.644531 L 4.9375 9.644531 L 4.921875 9.664062 C 4.921875 9.664062 4.917969 9.667969 4.917969 9.667969 L 4.910156 9.671875 C 4.90625 9.671875 4.898438 9.671875 4.894531 9.667969 L 4.886719 9.660156 L 4.875 9.660156 L 4.867188 9.683594 C 4.863281 9.6875 4.863281 9.691406 4.859375 9.691406 L 4.855469 9.695312 L 4.851562 9.710938 L 4.867188 9.714844 C 4.871094 9.714844 4.875 9.722656 4.875 9.730469 C 4.878906 9.734375 4.882812 9.738281 4.882812 9.742188 L 4.882812 9.75 C 4.882812 9.75 4.878906 9.753906 4.878906 9.753906 L 4.867188 9.78125 C 4.867188 9.78125 4.867188 9.78125 4.867188 9.785156 L 4.84375 9.8125 L 4.839844 9.824219 C 4.839844 9.824219 4.839844 9.824219 4.839844 9.828125 L 4.835938 9.835938 C 4.835938 9.839844 4.832031 9.84375 4.828125 9.847656 C 4.824219 9.847656 4.816406 9.847656 4.8125 9.84375 L 4.808594 9.839844 L 4.808594 9.894531 C 4.808594 9.902344 4.808594 9.90625 4.804688 9.90625 C 4.800781 9.910156 4.796875 9.914062 4.792969 9.910156 L 4.773438 9.910156 L 4.761719 9.921875 C 4.757812 9.925781 4.753906 9.925781 4.75 9.925781 C 4.742188 9.925781 4.738281 9.921875 4.738281 9.917969 L 4.734375 9.925781 C 4.734375 9.929688 4.734375 9.929688 4.730469 9.933594 L 4.71875 9.945312 L 4.707031 9.976562 C 4.703125 9.980469 4.703125 9.984375 4.695312 9.984375 L 4.675781 9.992188 L 4.664062 10.007812 C 4.660156 10.011719 4.652344 10.011719 4.648438 10.011719 C 4.648438 10.011719 4.648438 10.011719 4.644531 10.015625 L 4.648438 10.015625 C 4.648438 10.019531 4.652344 10.023438 4.652344 10.023438 L 4.652344 10.035156 C 4.652344 10.039062 4.652344 10.042969 4.648438 10.046875 L 4.636719 10.066406 L 4.652344 10.082031 C 4.65625 10.085938 4.65625 10.09375 4.652344 10.097656 C 4.652344 10.105469 4.648438 10.109375 4.640625 10.109375 L 4.636719 10.109375 L 4.625 10.117188 C 4.625 10.117188 4.625 10.121094 4.621094 10.121094 L 4.59375 10.132812 C 4.585938 10.136719 4.582031 10.136719 4.578125 10.132812 L 4.566406 10.125 L 4.558594 10.125 L 4.558594 10.136719 C 4.558594 10.140625 4.558594 10.140625 4.558594 10.144531 L 4.546875 10.164062 C 4.542969 10.167969 4.539062 10.171875 4.535156 10.171875 L 4.515625 10.175781 L 4.511719 10.1875 L 4.511719 10.230469 L 4.515625 10.234375 C 4.515625 10.238281 4.515625 10.238281 4.519531 10.242188 L 4.523438 10.265625 C 4.523438 10.269531 4.523438 10.269531 4.519531 10.273438 L 4.511719 10.292969 C 4.507812 10.300781 4.503906 10.304688 4.496094 10.300781 L 4.488281 10.300781 L 4.472656 10.316406 C 4.46875 10.316406 4.46875 10.320312 4.464844 10.320312 L 4.460938 10.320312 L 4.460938 10.324219 L 4.46875 10.335938 C 4.46875 10.335938 4.472656 10.339844 4.472656 10.34375 L 4.46875 10.359375 L 4.476562 10.382812 C 4.476562 10.386719 4.476562 10.386719 4.476562 10.390625 L 4.46875 10.421875 C 4.464844 10.425781 4.464844 10.425781 4.464844 10.429688 L 4.449219 10.449219 C 4.441406 10.457031 4.433594 10.457031 4.429688 10.457031 L 4.421875 10.453125 L 4.414062 10.453125 L 4.398438 10.476562 C 4.398438 10.476562 4.398438 10.476562 4.394531 10.480469 L 4.363281 10.503906 C 4.359375 10.507812 4.351562 10.507812 4.347656 10.507812 L 4.328125 10.496094 L 4.296875 10.507812 C 4.289062 10.511719 4.285156 10.507812 4.28125 10.507812 L 4.21875 10.464844 C 4.21875 10.464844 4.214844 10.460938 4.214844 10.460938 L 4.207031 10.46875 L 4.203125 10.492188 C 4.199219 10.5 4.195312 10.503906 4.191406 10.503906 L 4.171875 10.507812 L 4.164062 10.523438 C 4.160156 10.527344 4.15625 10.527344 4.152344 10.527344 Z M 5.386719 8.574219 L 5.386719 8.566406 Z M 6.285156 8.300781 C 6.285156 8.300781 6.289062 8.304688 6.289062 8.304688 L 6.292969 8.304688 C 6.296875 8.304688 6.296875 8.304688 6.296875 8.300781 Z M 3.96875 5.53125 L 3.980469 5.535156 L 3.964844 5.523438 Z M 4.988281 9.652344 L 4.992188 9.652344 C 4.996094 9.652344 5 9.652344 5 9.652344 L 5.011719 9.660156 L 5.011719 9.648438 C 5.007812 9.648438 5.003906 9.648438 5.003906 9.648438 L 4.988281 9.644531 Z M 4.050781 7.335938 C 4.054688 7.335938 4.0625 7.335938 4.066406 7.335938 L 4.070312 7.332031 C 4.074219 7.328125 4.078125 7.324219 4.078125 7.320312 C 4.078125 7.316406 4.078125 7.3125 4.074219 7.308594 L 4.0625 7.292969 C 4.058594 7.285156 4.050781 7.285156 4.042969 7.289062 L 4.039062 7.289062 C 4.035156 7.292969 4.03125 7.292969 4.03125 7.296875 L 4.027344 7.3125 C 4.027344 7.316406 4.023438 7.316406 4.027344 7.320312 L 4.027344 7.328125 C 4.027344 7.332031 4.03125 7.335938 4.035156 7.335938 C 4.042969 7.339844 4.046875 7.339844 4.050781 7.335938 Z M 0.835938 4.03125 L 0 4.152344 L 0.605469 4.742188 L 0.460938 5.574219 L 1.210938 5.179688 L 1.957031 5.574219 L 1.8125 4.742188 L 2.417969 4.152344 L 1.582031 4.03125 L 1.210938 3.273438 Z M 2.402344 1.808594 L 1.566406 1.933594 L 2.171875 2.519531 L 2.027344 3.351562 L 2.777344 2.960938 L 3.523438 3.351562 L 3.378906 2.519531 L 3.984375 1.933594 L 3.148438 1.808594 L 2.777344 1.054688 Z M 5.058594 0.757812 L 4.222656 0.878906 L 4.828125 1.46875 L 4.683594 2.300781 L 5.433594 1.90625 L 6.179688 2.300781 L 6.035156 1.46875 L 6.640625 0.878906 L 5.804688 0.757812 L 5.433594 0 Z M 7.785156 1.78125 L 6.953125 1.902344 L 7.554688 2.492188 L 7.414062 3.324219 L 8.160156 2.933594 L 8.90625 3.324219 L 8.765625 2.492188 L 9.371094 1.902344 L 8.535156 1.78125 L 8.160156 1.023438 Z M 9.417969 4.015625 L 8.582031 4.140625 L 9.1875 4.726562 L 9.042969 5.558594 L 9.789062 5.167969 L 10.539062 5.558594 L 10.394531 4.726562 L 11 4.140625 L 10.164062 4.015625 L 9.789062 3.261719 Z M 9.417969 4.015625 "/>
</g>
</svg>
