<?xml version="1.0" encoding="UTF-8" standalone="no"?>
<!-- Created with Inkscape (http://www.inkscape.org/) -->

<svg
   xmlns:dc="http://purl.org/dc/elements/1.1/"
   xmlns:cc="http://creativecommons.org/ns#"
   xmlns:rdf="http://www.w3.org/1999/02/22-rdf-syntax-ns#"
   xmlns:svg="http://www.w3.org/2000/svg"
   xmlns="http://www.w3.org/2000/svg"
   xmlns:xlink="http://www.w3.org/1999/xlink"
   xmlns:sodipodi="http://sodipodi.sourceforge.net/DTD/sodipodi-0.dtd"
   xmlns:inkscape="http://www.inkscape.org/namespaces/inkscape"
   width="30px"
   height="30px"
   version="1.1"
   id="svg8"
   inkscape:version="0.92.4 5da689c313, 2019-01-14"
   sodipodi:docname="container.svg">
  <defs
     id="defs2" />
  <sodipodi:namedview
     id="base"
     pagecolor="#ffffff"
     bordercolor="#666666"
     borderopacity="1.0"
     inkscape:pageopacity="0.0"
     inkscape:pageshadow="2"
     inkscape:zoom="13.049334"
     inkscape:cx="18.679046"
     inkscape:cy="12.165829"
     inkscape:document-units="px"
     inkscape:current-layer="layer1"
     showgrid="false"
     inkscape:snap-page="false"
     units="px"
     inkscape:window-width="1884"
     inkscape:window-height="1061"
     inkscape:window-x="0"
     inkscape:window-y="0"
     inkscape:window-maximized="1"
     fit-margin-top="0"
     fit-margin-left="0"
     fit-margin-right="0"
     fit-margin-bottom="0" />
  <metadata
     id="metadata5">
    <rdf:RDF>
      <cc:Work
         rdf:about="">
        <dc:format>image/svg+xml</dc:format>
        <dc:type
           rdf:resource="http://purl.org/dc/dcmitype/StillImage" />
        <dc:title></dc:title>
      </cc:Work>
    </rdf:RDF>
  </metadata>
    <circle
       style="color:#000000;clip-rule:nonzero;display:inline;overflow:visible;visibility:visible;opacity:1;isolation:auto;mix-blend-mode:normal;color-interpolation:sRGB;color-interpolation-filters:linearRGB;solid-color:#000000;solid-opacity:1;vector-effect:none;fill:#ffffff;fill-opacity:1;fill-rule:evenodd;stroke:rgba(255, 255, 255, 1);stroke-width:1;stroke-linecap:butt;stroke-linejoin:miter;stroke-miterlimit:4;stroke-dasharray:none;stroke-dashoffset:0;stroke-opacity:1;marker:none;color-rendering:auto;image-rendering:auto;shape-rendering:auto;text-rendering:auto;enable-background:accumulate"
       id="path815"
       cx="15"
       cy="15"
       r="14.5" />
<g transform="translate(6,7)"><g id="surface1">
<path style=" stroke:none;fill-rule:nonzero;fill:rgb(30%,30%,30%);fill-opacity:1;" d="M 13.984375 5.304688 C 13.824219 5.378906 14.113281 5.769531 14 6.164062 C 13.882812 6.554688 14.027344 6.671875 14.417969 6.699219 C 16.066406 6.824219 17.105469 5.828125 16.992188 5.613281 C 16.875 5.394531 15.492188 5.828125 15.03125 5.683594 C 14.566406 5.539062 14.238281 5.191406 13.984375 5.304688 Z M 13.984375 5.304688 "/>
<path style=" stroke:none;fill-rule:nonzero;fill:rgb(30%,30%,30%);fill-opacity:1;" d="M 12.820312 4.289062 C 12.3125 3.636719 11.6875 1.949219 11.0625 1.222656 C 9.671875 -0.394531 7.035156 -0.210938 5.179688 0.644531 C 4.234375 1.078125 2.929688 2.445312 0.910156 2.269531 C 0.910156 2.269531 0.59375 2.261719 0 2.191406 L 0 10.546875 C 0.0859375 10.621094 0.171875 10.683594 0.269531 10.695312 C 0.632812 10.738281 1.289062 10.382812 1.984375 10.1875 C 4.183594 9.566406 4.449219 9.855469 4.484375 10.058594 C 4.511719 10.234375 3.769531 10.476562 3.539062 10.550781 C 3.304688 10.625 3 10.914062 2.550781 10.929688 C 2.101562 10.941406 2.203125 10.828125 2.070312 10.785156 C 1.941406 10.738281 1.738281 10.972656 1.476562 11.03125 C 1.214844 11.089844 1.203125 10.96875 1.113281 11.015625 C 0.9375 11.101562 0.515625 11.898438 0.375 12.222656 C 0.351562 12.273438 0.351562 12.328125 0.375 12.378906 C 0.394531 12.429688 0.4375 12.464844 0.488281 12.484375 C 0.628906 12.53125 0.949219 12.425781 1.15625 12.410156 C 1.535156 12.382812 1.6875 11.625 2.695312 11.625 C 3.347656 11.625 5.136719 10.941406 5.238281 10.988281 C 5.339844 11.03125 5.535156 11.246094 5.863281 11.496094 C 6.707031 12.132812 6.867188 13.210938 6.894531 13.6875 C 6.921875 14.167969 6.980469 14.414062 7.15625 14.589844 C 7.332031 14.765625 7.332031 14.871094 7.445312 15.230469 C 7.535156 15.503906 7.847656 15.304688 8.203125 15.433594 C 8.480469 15.53125 8.691406 15.570312 8.828125 15.585938 C 8.875 15.589844 8.921875 15.574219 8.957031 15.542969 C 8.992188 15.511719 9.011719 15.464844 9.011719 15.417969 C 9.003906 15.230469 8.996094 14.957031 8.988281 14.910156 C 8.972656 14.835938 7.984375 14.3125 7.445312 13.527344 C 7.292969 13.304688 6.761719 11.085938 6.613281 10.457031 C 6.605469 10.417969 6.617188 10.378906 6.640625 10.355469 C 6.667969 10.328125 6.707031 10.316406 6.742188 10.320312 L 7.273438 10.390625 C 7.605469 10.375 8.113281 9.984375 8.230469 9.183594 C 8.304688 8.683594 8.449219 8.242188 8.609375 8.082031 C 8.929688 7.761719 9.042969 7.210938 9.261719 7.253906 C 9.433594 7.289062 9.394531 7.804688 9.40625 8.09375 C 9.421875 8.386719 9.699219 8.589844 9.757812 8.691406 C 9.816406 8.792969 9.742188 9.140625 9.726562 9.738281 C 9.710938 10.332031 9.988281 10.828125 10.234375 10.886719 C 10.484375 10.941406 11.703125 11.171875 11.832031 11 C 12.066406 10.695312 11.863281 10.128906 12.007812 9.796875 C 12.082031 9.621094 12.316406 8.863281 12.488281 8.546875 C 12.675781 8.199219 12.921875 7.914062 13.519531 6.917969 C 14.230469 5.726562 13.425781 5.066406 12.820312 4.289062 Z M 10.875 7.992188 C 10.714844 7.964844 10.847656 7.601562 10.847656 7.601562 C 10.847656 7.601562 11.339844 7.5 11.414062 7.777344 C 11.457031 7.945312 11.035156 8.023438 10.875 7.992188 Z M 10.6875 6.613281 C 9.964844 6.339844 9.496094 5.613281 9.726562 4.957031 C 9.960938 4.304688 11.109375 4.695312 11.109375 4.695312 C 11.71875 5 11.410156 5.6875 11.703125 5.960938 C 12.09375 6.324219 13.226562 5.816406 13.316406 6.019531 C 13.421875 6.261719 12.023438 7.121094 10.6875 6.613281 Z M 10.6875 6.613281 "/>
</g>
</g>
</svg>
