<?xml version="1.0" encoding="UTF-8" standalone="no"?>
<!-- Created with Inkscape (http://www.inkscape.org/) -->

<svg
   xmlns:dc="http://purl.org/dc/elements/1.1/"
   xmlns:cc="http://creativecommons.org/ns#"
   xmlns:rdf="http://www.w3.org/1999/02/22-rdf-syntax-ns#"
   xmlns:svg="http://www.w3.org/2000/svg"
   xmlns="http://www.w3.org/2000/svg"
   xmlns:xlink="http://www.w3.org/1999/xlink"
   xmlns:sodipodi="http://sodipodi.sourceforge.net/DTD/sodipodi-0.dtd"
   xmlns:inkscape="http://www.inkscape.org/namespaces/inkscape"
   width="30px"
   height="30px"
   version="1.1"
   id="svg8"
   inkscape:version="0.92.4 5da689c313, 2019-01-14"
   sodipodi:docname="container.svg">
  <defs
     id="defs2" />
  <sodipodi:namedview
     id="base"
     pagecolor="#ffffff"
     bordercolor="#666666"
     borderopacity="1.0"
     inkscape:pageopacity="0.0"
     inkscape:pageshadow="2"
     inkscape:zoom="13.049334"
     inkscape:cx="18.679046"
     inkscape:cy="12.165829"
     inkscape:document-units="px"
     inkscape:current-layer="layer1"
     showgrid="false"
     inkscape:snap-page="false"
     units="px"
     inkscape:window-width="1884"
     inkscape:window-height="1061"
     inkscape:window-x="0"
     inkscape:window-y="0"
     inkscape:window-maximized="1"
     fit-margin-top="0"
     fit-margin-left="0"
     fit-margin-right="0"
     fit-margin-bottom="0" />
  <metadata
     id="metadata5">
    <rdf:RDF>
      <cc:Work
         rdf:about="">
        <dc:format>image/svg+xml</dc:format>
        <dc:type
           rdf:resource="http://purl.org/dc/dcmitype/StillImage" />
        <dc:title></dc:title>
      </cc:Work>
    </rdf:RDF>
  </metadata>
    <circle
       style="color:#000000;clip-rule:nonzero;display:inline;overflow:visible;visibility:visible;opacity:1;isolation:auto;mix-blend-mode:normal;color-interpolation:sRGB;color-interpolation-filters:linearRGB;solid-color:#000000;solid-opacity:1;vector-effect:none;fill:#ffffff;fill-opacity:1;fill-rule:evenodd;stroke:rgba(255, 255, 255, 1);stroke-width:1;stroke-linecap:butt;stroke-linejoin:miter;stroke-miterlimit:4;stroke-dasharray:none;stroke-dashoffset:0;stroke-opacity:1;marker:none;color-rendering:auto;image-rendering:auto;shape-rendering:auto;text-rendering:auto;enable-background:accumulate"
       id="path815"
       cx="15"
       cy="15"
       r="14.5" />
<g transform="translate(8,6)"><g id="surface1">
<path style=" stroke:none;fill-rule:nonzero;fill:rgb(30%,30%,30%);fill-opacity:1;" d="M 8.542969 8.851562 C 8.542969 10.136719 7.503906 11.175781 6.21875 11.175781 C 4.933594 11.175781 3.894531 10.136719 3.894531 8.851562 C 3.894531 7.566406 4.933594 6.527344 6.21875 6.527344 C 7.503906 6.527344 8.542969 7.566406 8.542969 8.851562 Z M 8.542969 8.851562 "/>
<path style=" stroke:none;fill-rule:nonzero;fill:rgb(30%,30%,30%);fill-opacity:1;" d="M 14.105469 3.925781 L 13.636719 0.527344 C 13.613281 0.367188 13.53125 0.222656 13.398438 0.125 C 13.269531 0.0273438 13.105469 -0.015625 12.945312 0.0078125 L 5.886719 0.996094 C 5.550781 1.042969 5.316406 1.351562 5.363281 1.683594 L 5.832031 5.085938 C 5.855469 5.246094 5.941406 5.390625 6.070312 5.488281 C 6.199219 5.585938 6.363281 5.628906 6.523438 5.605469 L 10.058594 5.109375 L 10.523438 8.386719 L 9.210938 11.289062 C 9.148438 11.421875 9.015625 11.511719 8.867188 11.515625 L 8.011719 11.546875 C 7.9375 11.546875 7.863281 11.566406 7.796875 11.601562 C 7.46875 12.15625 6.867188 12.492188 6.226562 12.488281 C 5.582031 12.480469 4.988281 12.132812 4.667969 11.574219 C 3.199219 11.578125 2.855469 11.910156 2.824219 11.929688 C 2.085938 12.46875 0 17 0 17 L 2.03125 17 L 2.484375 16.242188 C 2.484375 16.242188 2.484375 16.238281 2.484375 16.242188 C 2.488281 16.242188 2.488281 16.242188 2.488281 16.242188 L 2.582031 17 L 9.269531 17 L 9.363281 13.804688 L 10.695312 13.414062 C 10.878906 13.359375 11.011719 13.210938 11.046875 13.027344 L 11.125 12.632812 L 11.355469 14.261719 C 11.378906 14.414062 11.507812 14.523438 11.660156 14.523438 C 11.671875 14.523438 11.6875 14.523438 11.703125 14.519531 C 11.871094 14.496094 11.984375 14.34375 11.960938 14.175781 L 11.484375 10.796875 L 11.859375 8.867188 C 11.890625 8.699219 11.796875 8.535156 11.632812 8.476562 L 11.128906 8.300781 L 10.664062 5.027344 L 13.585938 4.617188 C 13.917969 4.570312 14.152344 4.261719 14.105469 3.925781 Z M 14.105469 3.925781 "/>
</g>
</g>
</svg>
