<?xml version="1.0" encoding="UTF-8" standalone="no"?>
<!-- Created with Inkscape (http://www.inkscape.org/) -->

<svg
   xmlns:dc="http://purl.org/dc/elements/1.1/"
   xmlns:cc="http://creativecommons.org/ns#"
   xmlns:rdf="http://www.w3.org/1999/02/22-rdf-syntax-ns#"
   xmlns:svg="http://www.w3.org/2000/svg"
   xmlns="http://www.w3.org/2000/svg"
   xmlns:xlink="http://www.w3.org/1999/xlink"
   xmlns:sodipodi="http://sodipodi.sourceforge.net/DTD/sodipodi-0.dtd"
   xmlns:inkscape="http://www.inkscape.org/namespaces/inkscape"
   width="30px"
   height="30px"
   version="1.1"
   id="svg8"
   inkscape:version="0.92.4 5da689c313, 2019-01-14"
   sodipodi:docname="container.svg">
  <defs
     id="defs2" />
  <sodipodi:namedview
     id="base"
     pagecolor="#ffffff"
     bordercolor="#666666"
     borderopacity="1.0"
     inkscape:pageopacity="0.0"
     inkscape:pageshadow="2"
     inkscape:zoom="13.049334"
     inkscape:cx="18.679046"
     inkscape:cy="12.165829"
     inkscape:document-units="px"
     inkscape:current-layer="layer1"
     showgrid="false"
     inkscape:snap-page="false"
     units="px"
     inkscape:window-width="1884"
     inkscape:window-height="1061"
     inkscape:window-x="0"
     inkscape:window-y="0"
     inkscape:window-maximized="1"
     fit-margin-top="0"
     fit-margin-left="0"
     fit-margin-right="0"
     fit-margin-bottom="0" />
  <metadata
     id="metadata5">
    <rdf:RDF>
      <cc:Work
         rdf:about="">
        <dc:format>image/svg+xml</dc:format>
        <dc:type
           rdf:resource="http://purl.org/dc/dcmitype/StillImage" />
        <dc:title></dc:title>
      </cc:Work>
    </rdf:RDF>
  </metadata>
    <circle
       style="color:#000000;clip-rule:nonzero;display:inline;overflow:visible;visibility:visible;opacity:1;isolation:auto;mix-blend-mode:normal;color-interpolation:sRGB;color-interpolation-filters:linearRGB;solid-color:#000000;solid-opacity:1;vector-effect:none;fill:rgba(255, 255, 255, 1);fill-opacity:1;fill-rule:evenodd;stroke:#ffffff;stroke-width:1;stroke-linecap:butt;stroke-linejoin:miter;stroke-miterlimit:4;stroke-dasharray:none;stroke-dashoffset:0;stroke-opacity:1;marker:none;color-rendering:auto;image-rendering:auto;shape-rendering:auto;text-rendering:auto;enable-background:accumulate"
       id="path815"
       cx="15"
       cy="15"
       r="14.5" />
<g transform="translate(6,6)"><g id="surface1">
<path style=" stroke:none;fill-rule:nonzero;fill:#FFFFFF;fill-opacity:1;" d="M 2.949219 3.078125 C 2.949219 2.453125 3.457031 1.945312 4.082031 1.945312 C 4.707031 1.945312 5.214844 2.453125 5.214844 3.078125 C 5.214844 3.703125 4.707031 4.210938 4.082031 4.210938 C 3.457031 4.210938 2.949219 3.703125 2.949219 3.078125 Z M 7.660156 7.625 L 6.246094 6.925781 C 6.230469 6.917969 6.222656 6.910156 6.21875 6.894531 C 6.203125 6.871094 6.191406 6.847656 6.175781 6.824219 L 5.058594 5.027344 C 4.839844 4.679688 4.628906 4.550781 4.324219 4.550781 L 3.582031 4.550781 C 3.34375 4.550781 3.132812 4.691406 3.035156 4.894531 L 2.195312 4.894531 C 2.171875 4.894531 2.148438 4.910156 2.136719 4.933594 L 1.554688 6.183594 C 1.550781 6.191406 1.546875 6.199219 1.546875 6.210938 L 1.546875 8.472656 C 1.546875 8.511719 1.578125 8.539062 1.613281 8.539062 L 2.914062 8.539062 C 2.953125 8.539062 2.976562 8.566406 2.976562 8.601562 L 2.976562 8.640625 C 2.976562 8.648438 2.976562 8.65625 2.972656 8.664062 L 0.359375 14.46875 C 0.21875 14.78125 0.359375 15.15625 0.671875 15.296875 L 0.675781 15.296875 C 0.988281 15.4375 1.363281 15.296875 1.507812 14.984375 L 3.789062 9.917969 C 3.796875 9.894531 3.820312 9.878906 3.84375 9.878906 L 4.183594 9.878906 C 4.210938 9.878906 4.234375 9.894531 4.242188 9.917969 L 6.472656 14.941406 C 6.613281 15.257812 6.988281 15.402344 7.304688 15.261719 C 7.621094 15.121094 7.761719 14.75 7.621094 14.433594 L 4.933594 8.378906 C 4.929688 8.371094 4.929688 8.363281 4.929688 8.355469 L 4.929688 6.757812 C 4.929688 6.695312 5.007812 6.671875 5.042969 6.71875 L 5.363281 7.148438 C 5.535156 7.367188 5.601562 7.554688 5.75 7.625 L 6.992188 8.164062 L 7.386719 8.34375 C 7.601562 8.433594 7.855469 8.335938 7.949219 8.121094 C 8.007812 7.886719 7.875 7.726562 7.660156 7.625 Z M 13.210938 2.625 L 12.339844 2.625 C 12.269531 2.285156 12.03125 1.574219 11.238281 1.582031 C 10.109375 1.59375 10.046875 2.8125 10.046875 2.8125 L 10.101562 2.8125 C 10.085938 2.890625 10.074219 2.976562 10.074219 3.058594 C 10.074219 3.6875 10.582031 4.191406 11.207031 4.191406 C 11.832031 4.191406 12.339844 3.6875 12.339844 3.058594 C 12.339844 2.96875 12.328125 2.882812 12.308594 2.796875 L 13.210938 2.796875 C 13.257812 2.796875 13.296875 2.757812 13.296875 2.710938 C 13.296875 2.664062 13.257812 2.625 13.210938 2.625 Z M 15.621094 7.910156 L 15.621094 7.292969 C 15.621094 7.1875 15.539062 7.105469 15.4375 7.105469 C 15.332031 7.105469 15.25 7.1875 15.25 7.292969 L 15.246094 7.726562 L 13.539062 6.859375 C 13.527344 6.851562 13.515625 6.84375 13.511719 6.828125 C 13.5 6.804688 13.484375 6.78125 13.472656 6.757812 L 12.355469 4.960938 C 12.136719 4.613281 11.921875 4.484375 11.621094 4.484375 L 10.875 4.484375 C 10.636719 4.484375 10.429688 4.628906 10.332031 4.832031 L 9.488281 4.832031 C 9.464844 4.832031 9.441406 4.84375 9.429688 4.867188 L 8.847656 6.117188 C 8.84375 6.125 8.84375 6.136719 8.84375 6.144531 L 8.84375 8.410156 C 8.84375 8.445312 8.871094 8.472656 8.90625 8.472656 L 10.210938 8.472656 C 10.246094 8.472656 10.273438 8.5 10.273438 8.535156 L 10.273438 8.574219 C 10.273438 8.582031 10.269531 8.59375 10.269531 8.601562 L 7.652344 14.398438 C 7.511719 14.714844 7.652344 15.085938 7.96875 15.230469 C 8.285156 15.371094 8.65625 15.230469 8.800781 14.914062 L 11.082031 9.851562 C 11.09375 9.828125 11.113281 9.8125 11.140625 9.8125 L 11.480469 9.8125 C 11.503906 9.8125 11.527344 9.828125 11.539062 9.851562 L 13.769531 14.875 C 13.910156 15.191406 14.28125 15.335938 14.597656 15.195312 C 14.914062 15.054688 15.058594 14.679688 14.917969 14.363281 L 12.226562 8.3125 C 12.226562 8.304688 12.222656 8.292969 12.222656 8.285156 L 12.222656 6.691406 C 12.222656 6.628906 12.300781 6.601562 12.335938 6.652344 L 12.65625 7.082031 C 12.828125 7.296875 12.894531 7.488281 13.046875 7.554688 L 14.9375 8.441406 L 15.242188 8.578125 L 15.214844 15.128906 C 15.214844 15.234375 15.296875 15.316406 15.402344 15.316406 C 15.503906 15.316406 15.589844 15.234375 15.589844 15.128906 L 15.617188 8.636719 C 15.738281 8.605469 15.84375 8.519531 15.898438 8.398438 C 15.949219 8.171875 15.828125 8.011719 15.621094 7.910156 Z M 15.621094 7.910156 "/>
</g>
</g>
</svg>
