<?xml version="1.0" encoding="UTF-8"?>
<svg xmlns="http://www.w3.org/2000/svg" xmlns:xlink="http://www.w3.org/1999/xlink" width="7.980507" height="11" viewBox="0 0 7.980507 11" version="1.1">
<g id="surface1">
<path style=" stroke:none;fill-rule:nonzero;fill:rgb(30%,30%,30%);fill-opacity:1;" d="M 7.484375 10.589844 L 7.484375 1.523438 L 6.535156 0.0117188 L 5.636719 1.558594 L 5.636719 3.46875 L 4.964844 3.46875 L 4.011719 2.425781 L 4.011719 1.757812 L 4.351562 1.757812 L 4.351562 1.660156 L 4.011719 1.660156 L 4.011719 1.285156 L 3.886719 1.285156 L 3.886719 1.660156 L 3.5625 1.660156 L 3.5625 1.757812 L 3.886719 1.757812 L 3.886719 2.425781 L 3.054688 3.4375 L 2.382812 3.4375 L 2.382812 1.527344 L 1.492188 0 L 0.589844 1.539062 L 0.5625 10.566406 L 0.0078125 10.566406 L 0 11 L 7.972656 11 L 7.980469 10.589844 Z M 2.925781 10.589844 L 2.128906 10.585938 L 2.128906 8.96875 C 2.128906 8.773438 2.335938 8.15625 2.527344 8.15625 C 2.722656 8.15625 2.925781 8.773438 2.925781 8.96875 Z M 4.519531 10.59375 L 3.40625 10.589844 L 3.40625 8.601562 C 3.40625 8.410156 3.769531 7.742188 3.960938 7.742188 C 4.15625 7.742188 4.519531 8.410156 4.519531 8.601562 Z M 3.941406 6.425781 C 3.324219 6.425781 2.824219 5.925781 2.824219 5.308594 C 2.824219 4.691406 3.324219 4.191406 3.941406 4.191406 C 4.558594 4.191406 5.058594 4.691406 5.058594 5.308594 C 5.058594 5.925781 4.558594 6.425781 3.941406 6.425781 Z M 5.777344 10.597656 L 4.980469 10.597656 L 4.980469 8.96875 C 4.980469 8.773438 5.183594 8.15625 5.378906 8.15625 C 5.570312 8.15625 5.777344 8.773438 5.777344 8.96875 Z M 5.777344 10.597656 "/>
</g>
</svg>
