<?xml version="1.0" encoding="UTF-8"?>
<svg xmlns="http://www.w3.org/2000/svg" xmlns:xlink="http://www.w3.org/1999/xlink" width="11" height="11" viewBox="0 0 11 11" version="1.1">
<g id="surface1">
<path style=" stroke:none;fill-rule:nonzero;fill:rgb(30%,30%,30%);fill-opacity:1;" d="M 6.425781 1.546875 C 6.425781 2.046875 6.015625 2.457031 5.511719 2.457031 C 5.011719 2.457031 4.601562 2.046875 4.601562 1.546875 C 4.601562 1.042969 5.011719 0.632812 5.511719 0.632812 C 6.015625 0.632812 6.425781 1.042969 6.425781 1.546875 Z M 10.621094 9.613281 C 10.621094 9.933594 10.402344 10.054688 10.082031 10.089844 C 9.183594 10.195312 8.386719 10.375 6.976562 10.375 C 6.976562 10.375 4.667969 10.375 3.859375 10.34375 C 3.050781 10.3125 1.734375 10.152344 1.734375 10.152344 C 1.589844 10.121094 0.785156 10.148438 0.785156 9.695312 L 0.785156 9.613281 C 0.785156 9.441406 0.925781 9.296875 1.101562 9.296875 L 2.386719 9.296875 C 2.328125 9.199219 2.308594 9.074219 2.347656 8.957031 L 3.238281 6.304688 L 3.957031 7.136719 L 3.242188 9.261719 C 3.238281 9.273438 3.234375 9.285156 3.226562 9.296875 L 4.785156 9.296875 C 4.78125 9.273438 4.777344 9.242188 4.777344 9.214844 L 4.761719 7.382812 C 4.761719 7.382812 3.738281 6.234375 3.722656 6.21875 C 3.421875 5.949219 3.300781 5.683594 3.378906 5.421875 L 4.085938 3.417969 C 4.1875 3.132812 4.167969 2.8125 4.957031 2.90625 C 4.957031 2.90625 5.023438 2.90625 5.226562 2.96875 C 5.261719 2.980469 5.296875 2.996094 5.328125 3.015625 C 5.355469 3.023438 5.378906 3.035156 5.398438 3.050781 L 5.453125 3.09375 C 5.503906 3.128906 5.546875 3.167969 5.574219 3.191406 L 6.761719 4.152344 C 6.777344 4.164062 6.789062 4.179688 6.800781 4.191406 L 7.683594 4.601562 L 8 2.71875 L 6.621094 3.398438 C 6.570312 3.417969 6.515625 3.441406 6.460938 3.464844 L 5.746094 2.824219 C 5.984375 2.707031 6.539062 2.609375 6.671875 2.542969 L 8.277344 1.785156 C 8.457031 1.699219 8.671875 1.773438 8.757812 1.953125 C 8.84375 2.128906 8.769531 2.34375 8.59375 2.429688 L 8.4375 2.503906 L 8.058594 4.777344 L 8.144531 4.816406 C 8.332031 4.902344 8.414062 5.125 8.328125 5.3125 C 8.253906 5.464844 8.089844 5.546875 7.933594 5.523438 L 7.390625 8.75 L 7.59375 9.300781 L 10.304688 9.300781 C 10.480469 9.300781 10.621094 9.441406 10.621094 9.613281 Z M 5.660156 9.25 C 5.660156 9.265625 5.660156 9.28125 5.65625 9.300781 L 6.566406 9.300781 L 7.007812 8.621094 L 7.558594 5.367188 L 6.445312 4.851562 C 6.414062 4.835938 6.300781 4.777344 6.277344 4.753906 L 5.40625 4.050781 L 4.78125 5.882812 L 5.542969 6.835938 C 5.589844 6.894531 5.621094 6.957031 5.636719 7.023438 L 5.640625 7.027344 L 5.640625 7.058594 C 5.644531 7.085938 5.644531 7.109375 5.640625 7.132812 Z M 5.660156 9.25 "/>
</g>
</svg>
