<?xml version="1.0" encoding="UTF-8" standalone="no"?>
<!-- Created with Inkscape (http://www.inkscape.org/) -->

<svg
   xmlns:dc="http://purl.org/dc/elements/1.1/"
   xmlns:cc="http://creativecommons.org/ns#"
   xmlns:rdf="http://www.w3.org/1999/02/22-rdf-syntax-ns#"
   xmlns:svg="http://www.w3.org/2000/svg"
   xmlns="http://www.w3.org/2000/svg"
   xmlns:xlink="http://www.w3.org/1999/xlink"
   xmlns:sodipodi="http://sodipodi.sourceforge.net/DTD/sodipodi-0.dtd"
   xmlns:inkscape="http://www.inkscape.org/namespaces/inkscape"
   width="30px"
   height="30px"
   version="1.1"
   id="svg8"
   inkscape:version="0.92.4 5da689c313, 2019-01-14"
   sodipodi:docname="container.svg">
  <defs
     id="defs2" />
  <sodipodi:namedview
     id="base"
     pagecolor="#ffffff"
     bordercolor="#666666"
     borderopacity="1.0"
     inkscape:pageopacity="0.0"
     inkscape:pageshadow="2"
     inkscape:zoom="13.049334"
     inkscape:cx="18.679046"
     inkscape:cy="12.165829"
     inkscape:document-units="px"
     inkscape:current-layer="layer1"
     showgrid="false"
     inkscape:snap-page="false"
     units="px"
     inkscape:window-width="1884"
     inkscape:window-height="1061"
     inkscape:window-x="0"
     inkscape:window-y="0"
     inkscape:window-maximized="1"
     fit-margin-top="0"
     fit-margin-left="0"
     fit-margin-right="0"
     fit-margin-bottom="0" />
  <metadata
     id="metadata5">
    <rdf:RDF>
      <cc:Work
         rdf:about="">
        <dc:format>image/svg+xml</dc:format>
        <dc:type
           rdf:resource="http://purl.org/dc/dcmitype/StillImage" />
        <dc:title></dc:title>
      </cc:Work>
    </rdf:RDF>
  </metadata>
    <circle
       style="color:#000000;clip-rule:nonzero;display:inline;overflow:visible;visibility:visible;opacity:1;isolation:auto;mix-blend-mode:normal;color-interpolation:sRGB;color-interpolation-filters:linearRGB;solid-color:#000000;solid-opacity:1;vector-effect:none;fill:rgba(255, 255, 255, 1);fill-opacity:1;fill-rule:evenodd;stroke:#ffffff;stroke-width:1;stroke-linecap:butt;stroke-linejoin:miter;stroke-miterlimit:4;stroke-dasharray:none;stroke-dashoffset:0;stroke-opacity:1;marker:none;color-rendering:auto;image-rendering:auto;shape-rendering:auto;text-rendering:auto;enable-background:accumulate"
       id="path815"
       cx="15"
       cy="15"
       r="14.5" />
<g transform="translate(6,8)"><g id="surface1">
<path style=" stroke:none;fill-rule:nonzero;fill:#FFFFFF;fill-opacity:1;" d="M 16.269531 5.621094 L 15.769531 5.621094 C 16.746094 4.386719 17.226562 3.402344 16.894531 3.128906 C 16.667969 2.941406 16.070312 3 15.316406 3.480469 C 15.699219 3.480469 15.996094 3.566406 16.199219 3.742188 C 16.234375 3.773438 16.238281 3.824219 16.207031 3.859375 C 16.207031 3.863281 16.207031 3.863281 16.207031 3.863281 C 16.175781 3.898438 16.121094 3.902344 16.085938 3.871094 C 15.835938 3.65625 15.421875 3.628906 15.042969 3.667969 C 14.816406 3.835938 14.601562 4.023438 14.398438 4.222656 C 14.738281 4.175781 15.007812 4.238281 15.1875 4.3125 C 15.457031 4.417969 15.597656 4.570312 15.601562 4.578125 C 15.632812 4.609375 15.632812 4.65625 15.605469 4.6875 C 15.601562 4.691406 15.601562 4.695312 15.597656 4.699219 C 15.5625 4.730469 15.507812 4.726562 15.476562 4.691406 C 15.476562 4.691406 15.347656 4.558594 15.117188 4.464844 C 14.832031 4.355469 14.519531 4.347656 14.183594 4.445312 C 14.085938 4.546875 13.992188 4.652344 13.894531 4.769531 C 13.835938 4.839844 13.777344 4.910156 13.71875 4.980469 C 14.089844 4.917969 14.378906 4.980469 14.570312 5.058594 C 14.835938 5.167969 14.976562 5.320312 14.984375 5.324219 C 15.015625 5.359375 15.015625 5.414062 14.980469 5.445312 C 14.945312 5.476562 14.890625 5.476562 14.859375 5.441406 C 14.855469 5.4375 14.730469 5.304688 14.5 5.214844 C 14.210938 5.101562 13.894531 5.09375 13.554688 5.195312 C 13.464844 5.316406 13.382812 5.433594 13.304688 5.550781 L 13.09375 5.546875 C 13.074219 5.515625 13.050781 5.488281 13.023438 5.460938 L 12.609375 5.050781 C 12.550781 4.996094 12.519531 4.921875 12.519531 4.84375 L 12.503906 3.300781 C 12.507812 3.289062 12.515625 3.28125 12.527344 3.28125 C 12.542969 3.28125 12.550781 3.273438 12.550781 3.261719 L 12.550781 2.933594 C 12.550781 2.855469 12.476562 2.792969 12.386719 2.792969 L 11.925781 2.796875 C 11.835938 2.796875 11.765625 2.859375 11.765625 2.9375 L 11.769531 3.265625 C 11.769531 3.277344 11.78125 3.289062 11.792969 3.285156 C 11.804688 3.285156 11.816406 3.296875 11.816406 3.308594 L 11.828125 4.847656 C 11.828125 4.925781 11.796875 5.003906 11.738281 5.058594 L 11.335938 5.472656 C 11.292969 5.515625 11.261719 5.566406 11.234375 5.621094 L 8.703125 5.621094 L 13.667969 0.699219 C 13.746094 0.617188 13.753906 0.488281 13.675781 0.402344 L 13.515625 0.21875 C 13.476562 0.175781 13.421875 0.148438 13.359375 0.144531 C 13.300781 0.144531 13.242188 0.167969 13.199219 0.207031 L 8.253906 5.113281 L 8.253906 0.710938 C 8.253906 0.320312 7.933594 0 7.542969 0 L 6.832031 0 C 6.441406 0 6.121094 0.320312 6.121094 0.710938 L 6.121094 5.367188 L 0.21875 5.367188 C 0.0976562 5.367188 0 5.464844 0 5.585938 L 0 5.957031 C 0 6.078125 0.0976562 6.175781 0.21875 6.175781 L 0.410156 6.175781 C 0.515625 6.175781 0.605469 6.253906 0.621094 6.359375 L 1.53125 11.9375 C 1.542969 12 1.523438 12.0625 1.480469 12.113281 C 1.441406 12.160156 1.378906 12.1875 1.316406 12.1875 C 1.195312 12.1875 1.097656 12.285156 1.097656 12.40625 L 1.097656 12.777344 C 1.097656 12.898438 1.195312 12.996094 1.316406 12.996094 L 12.859375 12.996094 C 12.980469 12.996094 13.078125 12.898438 13.078125 12.777344 L 13.078125 12.324219 C 13.078125 12.25 13.015625 12.1875 12.941406 12.1875 C 12.898438 12.1875 12.863281 12.171875 12.835938 12.140625 C 12.808594 12.109375 12.796875 12.070312 12.804688 12.03125 L 13.179688 9.515625 C 13.15625 9.535156 12.300781 9.535156 12.300781 9.535156 L 12.300781 10.476562 L 11.429688 10.476562 C 11.4375 10.183594 11.433594 9.835938 11.433594 9.539062 C 11.71875 9.539062 12.007812 9.539062 12.300781 9.535156 C 12.300781 9.214844 12.304688 8.886719 12.304688 8.570312 C 12.589844 8.566406 12.878906 8.566406 13.171875 8.566406 C 13.171875 8.570312 13.171875 8.582031 13.167969 8.570312 L 13.179688 9.515625 C 13.464844 9.195312 13.753906 8.878906 14.039062 8.558594 C 13.75 8.558594 13.460938 8.558594 13.175781 8.558594 C 13.175781 8.238281 13.175781 7.917969 13.171875 7.597656 C 13.460938 7.597656 13.75 7.597656 14.042969 7.59375 C 14.042969 7.601562 14.042969 7.609375 14.042969 7.621094 C 14.042969 7.921875 14.042969 8.226562 14.042969 8.527344 C 14.046875 8.535156 14.046875 8.542969 14.046875 8.550781 C 14.335938 8.230469 14.621094 7.910156 14.910156 7.585938 C 14.632812 7.589844 14.351562 7.589844 14.074219 7.589844 C 14.0625 7.589844 14.054688 7.589844 14.046875 7.589844 C 14.046875 7.265625 14.042969 6.945312 14.042969 6.628906 C 14.332031 6.625 14.621094 6.625 14.914062 6.625 C 14.914062 6.628906 14.914062 6.640625 14.914062 6.648438 C 14.914062 6.953125 14.914062 7.253906 14.914062 7.558594 C 14.914062 7.566406 14.917969 7.574219 14.917969 7.578125 C 15.203125 7.257812 15.492188 6.9375 15.78125 6.617188 C 15.5 6.617188 15.222656 6.617188 14.945312 6.617188 C 14.933594 6.617188 14.925781 6.617188 14.917969 6.617188 C 14.914062 6.386719 14.914062 6.15625 14.914062 5.921875 L 15.785156 5.921875 C 15.785156 6.078125 15.785156 6.234375 15.785156 6.390625 L 16.265625 6.390625 C 16.386719 6.390625 16.421875 6.207031 16.421875 6.085938 L 16.421875 5.773438 C 16.421875 5.6875 16.351562 5.621094 16.269531 5.621094 Z M 7.058594 6.609375 L 6.320312 5.910156 L 7.054688 5.910156 C 7.058594 6.148438 7.058594 6.503906 7.058594 6.609375 Z M 7.09375 6.648438 C 7.375 6.644531 7.652344 6.644531 7.925781 6.644531 C 7.925781 6.90625 7.925781 7.171875 7.925781 7.441406 Z M 7.933594 5.910156 L 8.804688 5.910156 C 8.808594 6.1875 8.804688 6.613281 8.800781 6.632812 C 8.511719 6.632812 8.222656 6.632812 7.9375 6.636719 C 7.933594 6.394531 7.933594 6.152344 7.933594 5.910156 Z M 8.105469 7.613281 C 8.339844 7.609375 8.570312 7.609375 8.800781 7.609375 C 8.800781 7.828125 8.800781 8.050781 8.800781 8.273438 Z M 9.117188 8.578125 C 9.304688 8.578125 9.492188 8.578125 9.675781 8.574219 C 9.675781 8.753906 9.675781 8.929688 9.679688 9.109375 Z M 9.675781 7.597656 C 9.386719 7.597656 9.097656 7.597656 8.808594 7.601562 C 8.808594 7.28125 8.808594 6.960938 8.804688 6.644531 C 9.09375 6.644531 9.382812 6.640625 9.675781 6.640625 C 9.675781 6.65625 9.679688 7.566406 9.675781 7.597656 Z M 9.679688 5.921875 L 10.542969 5.921875 C 10.542969 6.15625 10.546875 6.394531 10.546875 6.628906 C 10.53125 6.632812 9.714844 6.636719 9.679688 6.632812 C 9.679688 6.394531 9.679688 6.160156 9.679688 5.921875 Z M 9.679688 7.609375 C 9.96875 7.605469 10.261719 7.605469 10.546875 7.605469 C 10.546875 7.921875 10.550781 8.242188 10.550781 8.5625 C 10.261719 8.5625 9.972656 8.566406 9.683594 8.566406 C 9.683594 8.246094 9.683594 7.925781 9.679688 7.609375 Z M 10.132812 9.542969 C 10.273438 9.542969 10.410156 9.542969 10.550781 9.542969 C 10.550781 9.675781 10.550781 9.808594 10.550781 9.945312 Z M 10.554688 6.636719 C 10.839844 6.636719 11.128906 6.636719 11.417969 6.632812 C 11.417969 6.953125 11.417969 7.273438 11.417969 7.589844 C 11.132812 7.59375 10.84375 7.59375 10.554688 7.59375 C 10.554688 7.277344 10.554688 6.957031 10.554688 6.636719 Z M 10.5625 9.53125 C 10.5625 9.214844 10.5625 8.894531 10.558594 8.574219 C 10.84375 8.574219 11.132812 8.574219 11.421875 8.574219 C 11.421875 8.890625 11.421875 9.210938 11.425781 9.53125 C 11.136719 9.53125 10.847656 9.53125 10.5625 9.53125 Z M 12.289062 5.921875 C 12.289062 6.15625 12.289062 6.390625 12.289062 6.621094 C 12.003906 6.621094 11.714844 6.621094 11.425781 6.621094 C 11.425781 6.390625 11.425781 6.15625 11.425781 5.921875 Z M 11.429688 8.558594 C 11.429688 8.242188 11.425781 7.921875 11.425781 7.605469 C 11.714844 7.605469 12.003906 7.601562 12.292969 7.601562 C 12.292969 7.917969 12.292969 8.238281 12.292969 8.554688 C 12.007812 8.558594 11.71875 8.558594 11.429688 8.558594 Z M 12.300781 7.59375 C 12.300781 7.273438 12.300781 6.949219 12.300781 6.628906 C 12.585938 6.628906 12.875 6.628906 13.160156 6.628906 C 13.160156 6.945312 13.160156 7.265625 13.164062 7.589844 C 13.152344 7.59375 12.328125 7.597656 12.300781 7.59375 Z M 13.175781 6.617188 C 13.171875 6.386719 13.171875 6.15625 13.171875 5.921875 L 14.035156 5.921875 C 14.035156 6.15625 14.035156 6.386719 14.035156 6.617188 C 13.75 6.617188 13.460938 6.617188 13.175781 6.617188 Z M 13.175781 6.617188 "/>
</g>
</g>
</svg>
