<?xml version="1.0" encoding="UTF-8" standalone="no"?>
<!-- Created with Inkscape (http://www.inkscape.org/) -->

<svg
   xmlns:dc="http://purl.org/dc/elements/1.1/"
   xmlns:cc="http://creativecommons.org/ns#"
   xmlns:rdf="http://www.w3.org/1999/02/22-rdf-syntax-ns#"
   xmlns:svg="http://www.w3.org/2000/svg"
   xmlns="http://www.w3.org/2000/svg"
   xmlns:xlink="http://www.w3.org/1999/xlink"
   xmlns:sodipodi="http://sodipodi.sourceforge.net/DTD/sodipodi-0.dtd"
   xmlns:inkscape="http://www.inkscape.org/namespaces/inkscape"
   width="30px"
   height="30px"
   version="1.1"
   id="svg8"
   inkscape:version="0.92.4 5da689c313, 2019-01-14"
   sodipodi:docname="container.svg">
  <defs
     id="defs2" />
  <sodipodi:namedview
     id="base"
     pagecolor="#ffffff"
     bordercolor="#666666"
     borderopacity="1.0"
     inkscape:pageopacity="0.0"
     inkscape:pageshadow="2"
     inkscape:zoom="13.049334"
     inkscape:cx="18.679046"
     inkscape:cy="12.165829"
     inkscape:document-units="px"
     inkscape:current-layer="layer1"
     showgrid="false"
     inkscape:snap-page="false"
     units="px"
     inkscape:window-width="1884"
     inkscape:window-height="1061"
     inkscape:window-x="0"
     inkscape:window-y="0"
     inkscape:window-maximized="1"
     fit-margin-top="0"
     fit-margin-left="0"
     fit-margin-right="0"
     fit-margin-bottom="0" />
  <metadata
     id="metadata5">
    <rdf:RDF>
      <cc:Work
         rdf:about="">
        <dc:format>image/svg+xml</dc:format>
        <dc:type
           rdf:resource="http://purl.org/dc/dcmitype/StillImage" />
        <dc:title></dc:title>
      </cc:Work>
    </rdf:RDF>
  </metadata>
    <circle
       style="color:#000000;clip-rule:nonzero;display:inline;overflow:visible;visibility:visible;opacity:1;isolation:auto;mix-blend-mode:normal;color-interpolation:sRGB;color-interpolation-filters:linearRGB;solid-color:#000000;solid-opacity:1;vector-effect:none;fill:rgba(255, 255, 255, 1);fill-opacity:1;fill-rule:evenodd;stroke:#ffffff;stroke-width:1;stroke-linecap:butt;stroke-linejoin:miter;stroke-miterlimit:4;stroke-dasharray:none;stroke-dashoffset:0;stroke-opacity:1;marker:none;color-rendering:auto;image-rendering:auto;shape-rendering:auto;text-rendering:auto;enable-background:accumulate"
       id="path815"
       cx="15"
       cy="15"
       r="14.5" />
<g transform="translate(6,7)"><g id="surface1">
<path style=" stroke:none;fill-rule:nonzero;fill:#FFFFFF;fill-opacity:1;" d="M 13.546875 6.34375 C 13.894531 6.34375 14.179688 6.058594 14.179688 5.707031 C 14.179688 5.359375 13.894531 5.074219 13.546875 5.074219 C 13.195312 5.074219 12.910156 5.359375 12.910156 5.710938 C 12.914062 6.058594 13.195312 6.34375 13.546875 6.34375 Z M 13.546875 6.34375 "/>
<path style=" stroke:none;fill-rule:nonzero;fill:#FFFFFF;fill-opacity:1;" d="M 3.792969 6.34375 C 4.144531 6.34375 4.425781 6.058594 4.425781 5.707031 C 4.425781 5.359375 4.144531 5.074219 3.792969 5.074219 C 3.441406 5.074219 3.160156 5.359375 3.160156 5.710938 C 3.160156 6.058594 3.445312 6.34375 3.792969 6.34375 Z M 3.792969 6.34375 "/>
<path style=" stroke:none;fill-rule:nonzero;fill:#FFFFFF;fill-opacity:1;" d="M 4.09375 4.332031 C 4.503906 3.699219 5.871094 1.609375 6.28125 0.976562 C 6.386719 0.816406 6.492188 0.652344 6.59375 0.492188 C 6.683594 0.355469 6.765625 0.179688 6.902344 0.0820312 C 7.152344 -0.0898438 7.519531 0.0195312 7.636719 0.300781 C 7.675781 0.394531 7.6875 0.5 7.664062 0.597656 C 7.632812 0.730469 7.539062 0.839844 7.46875 0.949219 C 7.296875 1.214844 7.121094 1.484375 6.949219 1.75 C 6.605469 2.277344 5.285156 4.300781 4.941406 4.828125 Z M 4.09375 4.332031 "/>
<path style=" stroke:none;fill-rule:nonzero;fill:#FFFFFF;fill-opacity:1;" d="M 13.246094 4.351562 C 12.835938 3.71875 11.46875 1.609375 11.054688 0.976562 C 10.953125 0.816406 10.847656 0.652344 10.742188 0.492188 C 10.652344 0.355469 10.574219 0.179688 10.433594 0.0820312 C 10.183594 -0.0898438 9.820312 0.0195312 9.699219 0.300781 C 9.660156 0.394531 9.652344 0.5 9.675781 0.597656 C 9.707031 0.730469 9.796875 0.839844 9.871094 0.949219 C 10.042969 1.214844 10.214844 1.484375 10.390625 1.75 C 10.730469 2.277344 12.054688 4.316406 12.398438 4.84375 Z M 13.246094 4.351562 "/>
<path style=" stroke:none;fill-rule:nonzero;fill:#FFFFFF;fill-opacity:1;" d="M 16.925781 5.109375 C 16.851562 5.011719 16.738281 4.953125 16.613281 4.953125 L 13.953125 4.953125 C 14.296875 5.140625 14.472656 5.539062 14.378906 5.917969 C 14.28125 6.300781 13.9375 6.566406 13.546875 6.566406 C 13.152344 6.566406 12.808594 6.300781 12.714844 5.917969 C 12.617188 5.539062 12.792969 5.140625 13.136719 4.953125 L 4.199219 4.953125 C 4.546875 5.140625 4.722656 5.539062 4.625 5.917969 C 4.527344 6.300781 4.1875 6.566406 3.792969 6.566406 C 3.398438 6.566406 3.058594 6.300781 2.960938 5.917969 C 2.863281 5.539062 3.039062 5.140625 3.386719 4.953125 L 0.386719 4.953125 C 0.261719 4.953125 0.148438 5.011719 0.0742188 5.109375 C 0.00390625 5.207031 -0.0195312 5.335938 0.015625 5.453125 L 0.464844 6.90625 C 0.515625 7.070312 0.664062 7.179688 0.832031 7.179688 L 0.859375 7.179688 C 1.5625 9.445312 2.679688 13.0625 3.121094 14.492188 C 3.234375 14.855469 3.570312 15.101562 3.949219 15.101562 C 13.078125 15.125 10.324219 15.101562 13.050781 15.101562 C 13.429688 15.101562 13.765625 14.855469 13.878906 14.492188 C 14.339844 12.996094 15.445312 9.417969 16.136719 7.179688 L 16.164062 7.179688 C 16.332031 7.179688 16.480469 7.070312 16.53125 6.910156 L 16.792969 6.058594 L 16.984375 5.453125 C 17.019531 5.335938 16.996094 5.207031 16.925781 5.109375 Z M 4.761719 13.855469 C 4.675781 13.957031 4.546875 14.015625 4.414062 14.015625 L 4.015625 14.015625 C 3.761719 14.015625 3.523438 13.835938 3.453125 13.601562 L 1.859375 8.386719 C 1.816406 8.261719 1.835938 8.121094 1.914062 8.015625 C 1.996094 7.910156 2.121094 7.851562 2.265625 7.851562 L 2.804688 7.851562 C 3.054688 7.851562 3.296875 8.027344 3.363281 8.261719 L 4.832031 13.480469 C 4.867188 13.617188 4.84375 13.753906 4.761719 13.855469 Z M 6.785156 13.828125 C 6.703125 13.929688 6.582031 13.988281 6.453125 13.992188 L 5.929688 14.011719 C 5.695312 14.023438 5.492188 13.851562 5.460938 13.617188 L 4.761719 8.390625 C 4.742188 8.261719 4.78125 8.136719 4.863281 8.035156 C 4.945312 7.9375 5.066406 7.878906 5.195312 7.875 L 5.71875 7.855469 C 5.953125 7.84375 6.15625 8.015625 6.1875 8.25 L 6.886719 13.476562 C 6.90625 13.601562 6.867188 13.730469 6.785156 13.828125 Z M 9.019531 13.558594 C 9.019531 13.808594 8.816406 14.015625 8.5625 14.015625 L 8.050781 14.015625 C 7.796875 14.015625 7.59375 13.808594 7.59375 13.558594 L 7.59375 8.308594 C 7.59375 8.058594 7.796875 7.851562 8.050781 7.851562 L 8.5625 7.851562 C 8.816406 7.851562 9.019531 8.058594 9.019531 8.308594 Z M 10.679688 14.011719 L 10.160156 13.992188 C 10.03125 13.988281 9.910156 13.929688 9.828125 13.828125 C 9.746094 13.730469 9.707031 13.601562 9.722656 13.476562 L 10.421875 8.25 C 10.453125 8.015625 10.660156 7.84375 10.894531 7.855469 L 11.417969 7.875 C 11.542969 7.878906 11.664062 7.9375 11.746094 8.035156 C 11.832031 8.136719 11.867188 8.265625 11.851562 8.390625 L 11.152344 13.617188 C 11.121094 13.851562 10.917969 14.023438 10.679688 14.011719 Z M 14.753906 8.390625 L 13.160156 13.601562 C 13.089844 13.835938 12.847656 14.015625 12.597656 14.015625 L 12.199219 14.015625 C 12.058594 14.015625 11.929688 13.957031 11.851562 13.855469 C 11.769531 13.75 11.742188 13.609375 11.78125 13.480469 L 13.25 8.265625 C 13.316406 8.03125 13.558594 7.855469 13.808594 7.855469 L 14.347656 7.855469 C 14.492188 7.855469 14.617188 7.914062 14.695312 8.019531 C 14.777344 8.125 14.796875 8.265625 14.753906 8.390625 Z M 14.753906 8.390625 "/>
</g>
</g>
</svg>
