<?xml version="1.0" encoding="UTF-8"?>
<svg xmlns="http://www.w3.org/2000/svg" xmlns:xlink="http://www.w3.org/1999/xlink" width="9.706433" height="11" viewBox="0 0 9.706433 11" version="1.1">
<g id="surface1">
<path style=" stroke:none;fill-rule:nonzero;fill:rgb(30%,30%,30%);fill-opacity:1;" d="M 4.53125 2.371094 C 4.53125 3.171875 3.886719 3.820312 3.09375 3.820312 C 2.296875 3.820312 1.65625 3.171875 1.65625 2.371094 C 1.65625 1.574219 2.296875 0.925781 3.09375 0.925781 C 3.886719 0.925781 4.53125 1.574219 4.53125 2.371094 Z M 4.53125 2.371094 "/>
<path style=" stroke:none;fill-rule:nonzero;fill:rgb(30%,30%,30%);fill-opacity:1;" d="M 7.25 9.867188 L 0.46875 9.867188 C 0.210938 9.867188 0 9.65625 0 9.398438 C 0 9.140625 0.210938 8.929688 0.46875 8.929688 L 7.25 8.929688 C 7.507812 8.929688 7.71875 9.140625 7.71875 9.398438 C 7.71875 9.65625 7.507812 9.867188 7.25 9.867188 Z M 7.25 9.867188 "/>
<path style=" stroke:none;fill-rule:nonzero;fill:rgb(30%,30%,30%);fill-opacity:1;" d="M 7.65625 5.675781 C 7.597656 5.675781 7.539062 5.648438 7.5 5.601562 C 6.707031 4.609375 7.054688 3.503906 7.425781 2.335938 L 7.464844 2.210938 C 7.796875 1.164062 6.996094 0.445312 6.960938 0.414062 C 6.878906 0.34375 6.867188 0.214844 6.941406 0.132812 C 7.011719 0.046875 7.140625 0.0390625 7.222656 0.113281 C 7.265625 0.148438 8.261719 1.03125 7.847656 2.332031 L 7.808594 2.460938 C 7.457031 3.566406 7.152344 4.523438 7.8125 5.347656 C 7.863281 5.410156 7.871094 5.492188 7.839844 5.5625 C 7.804688 5.632812 7.734375 5.675781 7.65625 5.675781 Z M 7.65625 5.675781 "/>
<path style=" stroke:none;fill-rule:nonzero;fill:rgb(30%,30%,30%);fill-opacity:1;" d="M 9.414062 5.613281 C 9.355469 5.613281 9.296875 5.585938 9.257812 5.539062 C 8.464844 4.546875 8.8125 3.441406 9.183594 2.273438 L 9.222656 2.148438 C 9.558594 1.09375 8.726562 0.359375 8.71875 0.351562 C 8.636719 0.28125 8.625 0.152344 8.699219 0.0703125 C 8.769531 -0.015625 8.898438 -0.0234375 8.980469 0.0507812 C 9.023438 0.0859375 10.019531 0.964844 9.605469 2.269531 L 9.566406 2.394531 C 9.214844 3.503906 8.914062 4.460938 9.570312 5.285156 C 9.621094 5.347656 9.628906 5.429688 9.597656 5.5 C 9.5625 5.570312 9.492188 5.613281 9.414062 5.613281 Z M 9.414062 5.613281 "/>
<path style=" stroke:none;fill-rule:nonzero;fill:rgb(30%,30%,30%);fill-opacity:1;" d="M 8.3125 7.472656 C 8.257812 7.328125 8.121094 7.234375 7.964844 7.230469 L 5.820312 7.222656 L 5.789062 7.246094 C 5.601562 6.792969 4.722656 4.679688 4.328125 4.175781 C 3.890625 3.613281 2.507812 4.679688 2.507812 4.679688 L 2.511719 4.6875 C 2.445312 4.722656 2.398438 4.773438 2.367188 4.839844 L 0.820312 8.320312 L 1.476562 8.488281 C 1.65625 8.53125 1.839844 8.445312 1.917969 8.277344 L 2.832031 6.492188 L 2.957031 8.332031 C 2.957031 8.335938 2.957031 8.335938 2.957031 8.339844 C 2.976562 8.574219 3.183594 8.753906 3.421875 8.75 L 7.238281 8.382812 C 7.433594 8.367188 7.617188 8.46875 7.707031 8.640625 L 8.914062 11 L 9.605469 10.875 Z M 8.3125 7.472656 "/>
</g>
</svg>
