<?xml version="1.0" encoding="UTF-8" standalone="no"?>
<!-- Created with Inkscape (http://www.inkscape.org/) -->

<svg
   xmlns:dc="http://purl.org/dc/elements/1.1/"
   xmlns:cc="http://creativecommons.org/ns#"
   xmlns:rdf="http://www.w3.org/1999/02/22-rdf-syntax-ns#"
   xmlns:svg="http://www.w3.org/2000/svg"
   xmlns="http://www.w3.org/2000/svg"
   xmlns:xlink="http://www.w3.org/1999/xlink"
   xmlns:sodipodi="http://sodipodi.sourceforge.net/DTD/sodipodi-0.dtd"
   xmlns:inkscape="http://www.inkscape.org/namespaces/inkscape"
   width="30px"
   height="30px"
   version="1.1"
   id="svg8"
   inkscape:version="0.92.4 5da689c313, 2019-01-14"
   sodipodi:docname="container.svg">
  <defs
     id="defs2" />
  <sodipodi:namedview
     id="base"
     pagecolor="#ffffff"
     bordercolor="#666666"
     borderopacity="1.0"
     inkscape:pageopacity="0.0"
     inkscape:pageshadow="2"
     inkscape:zoom="13.049334"
     inkscape:cx="18.679046"
     inkscape:cy="12.165829"
     inkscape:document-units="px"
     inkscape:current-layer="layer1"
     showgrid="false"
     inkscape:snap-page="false"
     units="px"
     inkscape:window-width="1884"
     inkscape:window-height="1061"
     inkscape:window-x="0"
     inkscape:window-y="0"
     inkscape:window-maximized="1"
     fit-margin-top="0"
     fit-margin-left="0"
     fit-margin-right="0"
     fit-margin-bottom="0" />
  <metadata
     id="metadata5">
    <rdf:RDF>
      <cc:Work
         rdf:about="">
        <dc:format>image/svg+xml</dc:format>
        <dc:type
           rdf:resource="http://purl.org/dc/dcmitype/StillImage" />
        <dc:title></dc:title>
      </cc:Work>
    </rdf:RDF>
  </metadata>
    <circle
       style="color:#000000;clip-rule:nonzero;display:inline;overflow:visible;visibility:visible;opacity:1;isolation:auto;mix-blend-mode:normal;color-interpolation:sRGB;color-interpolation-filters:linearRGB;solid-color:#000000;solid-opacity:1;vector-effect:none;fill:#ffffff;fill-opacity:1;fill-rule:evenodd;stroke:rgba(255, 255, 255, 1);stroke-width:1;stroke-linecap:butt;stroke-linejoin:miter;stroke-miterlimit:4;stroke-dasharray:none;stroke-dashoffset:0;stroke-opacity:1;marker:none;color-rendering:auto;image-rendering:auto;shape-rendering:auto;text-rendering:auto;enable-background:accumulate"
       id="path815"
       cx="15"
       cy="15"
       r="14.5" />
<g transform="translate(6,7)"><g id="surface1">
<path style=" stroke:none;fill-rule:evenodd;fill:rgb(30%,30%,30%);fill-opacity:1;" d="M 16.9375 11.582031 C 16.867188 11.515625 16.777344 11.5625 16.722656 11.625 C 16.40625 11.449219 16.183594 11.257812 15.960938 10.949219 C 15.761719 10.300781 15.792969 9.625 15.421875 8.933594 C 15.710938 8.628906 15.800781 8.128906 16.15625 7.703125 C 15.660156 7.777344 15.414062 7.992188 15.160156 8.113281 C 15.253906 7.886719 15.324219 7.65625 15.375 7.417969 C 15.195312 7.632812 14.902344 7.859375 14.605469 8.019531 C 14.242188 7.753906 13.835938 7.542969 13.398438 7.371094 C 11.9375 6.75 10.238281 6.484375 8.648438 6.359375 C 8.613281 6.289062 8.550781 6.246094 8.453125 6.230469 C 8.304688 6.214844 8.15625 6.210938 8.003906 6.214844 C 8.003906 6.183594 7.992188 6.140625 7.917969 6.117188 C 7.800781 6.085938 7.714844 6.136719 7.605469 6.050781 C 7.519531 5.984375 7.464844 5.816406 7.421875 5.695312 C 7.425781 5.695312 7.425781 5.695312 7.425781 5.691406 C 7.566406 5.636719 7.714844 5.539062 7.808594 5.410156 C 7.820312 5.394531 7.828125 5.375 7.835938 5.359375 C 7.851562 5.347656 7.863281 5.339844 7.875 5.328125 C 8.203125 5.328125 8.632812 5.109375 8.804688 4.828125 C 9.875 4.210938 9.910156 2.707031 9.558594 1.664062 C 9.605469 1.675781 9.652344 1.679688 9.699219 1.679688 C 9.710938 1.679688 9.71875 1.675781 9.722656 1.667969 C 9.738281 1.652344 9.738281 1.628906 9.722656 1.613281 C 9.714844 1.601562 9.703125 1.59375 9.695312 1.585938 C 9.6875 1.578125 9.683594 1.570312 9.675781 1.5625 C 9.660156 1.542969 9.648438 1.527344 9.636719 1.507812 C 9.625 1.484375 9.609375 1.460938 9.597656 1.4375 C 9.617188 1.421875 9.625 1.398438 9.613281 1.378906 C 9.601562 1.351562 9.59375 1.324219 9.585938 1.296875 C 9.785156 1.328125 9.933594 1.152344 9.824219 0.925781 C 9.917969 0.929688 10.011719 0.917969 10.097656 0.886719 C 10.113281 0.882812 10.140625 0.878906 10.152344 0.863281 C 10.167969 0.839844 10.140625 0.796875 10.128906 0.777344 C 10.105469 0.730469 10.042969 0.667969 9.992188 0.652344 C 9.996094 0.640625 10 0.628906 10 0.617188 C 10.015625 0.476562 9.910156 0.410156 9.84375 0.335938 C 9.816406 0.308594 9.820312 0.269531 9.816406 0.226562 C 9.8125 0.222656 9.8125 0.222656 9.808594 0.222656 C 9.804688 0.222656 9.800781 0.222656 9.796875 0.226562 C 9.792969 0.242188 9.789062 0.261719 9.78125 0.277344 C 9.777344 0.28125 9.773438 0.28125 9.769531 0.28125 C 9.769531 0.28125 9.765625 0.277344 9.765625 0.273438 C 9.761719 0.234375 9.757812 0.199219 9.746094 0.160156 C 9.746094 0.15625 9.742188 0.15625 9.738281 0.15625 C 9.738281 0.152344 9.734375 0.15625 9.730469 0.160156 C 9.71875 0.183594 9.699219 0.207031 9.679688 0.230469 C 9.675781 0.230469 9.671875 0.234375 9.667969 0.230469 C 9.664062 0.230469 9.664062 0.226562 9.664062 0.222656 C 9.667969 0.195312 9.652344 0.0390625 9.621094 0.0390625 C 9.617188 0.0390625 9.617188 0.0429688 9.613281 0.046875 C 9.609375 0.0625 9.566406 0.144531 9.554688 0.144531 C 9.550781 0.144531 9.546875 0.144531 9.546875 0.140625 C 9.535156 0.117188 9.527344 0.0820312 9.511719 0.0625 C 9.511719 0.0585938 9.503906 0.078125 9.503906 0.078125 C 9.5 0.078125 9.496094 0.0585938 9.496094 0.0625 C 9.488281 0.0703125 9.480469 0.0859375 9.476562 0.0976562 C 9.476562 0.101562 9.472656 0.101562 9.46875 0.101562 C 9.46875 0.101562 9.464844 0.101562 9.460938 0.0976562 C 9.457031 0.078125 9.449219 0.0585938 9.4375 0.0429688 C 9.4375 0.0390625 9.433594 0.0390625 9.429688 0.0390625 C 9.429688 0.0390625 9.425781 0.0390625 9.425781 0.0429688 C 9.414062 0.0546875 9.40625 0.0703125 9.398438 0.0859375 C 9.398438 0.0898438 9.394531 0.0898438 9.390625 0.0898438 C 9.386719 0.0898438 9.386719 0.0898438 9.382812 0.0859375 C 9.277344 -0.167969 9.109375 0.207031 9.265625 0.390625 C 8.640625 0.550781 8.363281 1.417969 8.023438 1.957031 C 7.753906 2.039062 7.496094 2.152344 7.253906 2.296875 C 7.03125 2.304688 6.730469 2.292969 6.539062 2.167969 C 6.519531 2.15625 6.503906 2.144531 6.484375 2.132812 C 6.472656 2.125 6.457031 2.121094 6.441406 2.125 C 6.425781 2.128906 6.414062 2.136719 6.40625 2.148438 C 6.253906 2.078125 6.121094 1.976562 5.984375 1.878906 C 5.859375 1.585938 5.730469 0.96875 5.804688 0.621094 C 5.8125 0.570312 5.820312 0.519531 5.832031 0.46875 C 5.851562 0.363281 5.859375 0.242188 5.714844 0.222656 C 5.683594 0.21875 5.652344 0.21875 5.621094 0.226562 C 5.441406 0.269531 5.300781 0.414062 5.234375 0.582031 C 5.191406 0.417969 5.0625 0.390625 4.925781 0.480469 C 4.785156 0.570312 4.710938 0.746094 4.710938 0.910156 C 4.703125 0.90625 4.699219 0.90625 4.695312 0.902344 C 4.671875 0.890625 4.648438 0.886719 4.625 0.886719 C 4.382812 0.90625 4.308594 1.296875 4.347656 1.484375 C 4.226562 1.4375 4.148438 1.566406 4.117188 1.664062 C 4.066406 1.851562 4.105469 2.023438 4.195312 2.183594 C 4.183594 2.1875 4.167969 2.1875 4.15625 2.191406 C 4.035156 2.234375 4.003906 2.402344 4.023438 2.507812 C 4.046875 2.652344 4.125 2.769531 4.226562 2.875 C 4.109375 2.902344 4.089844 3.023438 4.101562 3.125 C 4.136719 3.300781 4.265625 3.433594 4.414062 3.519531 C 4.304688 3.578125 4.289062 3.71875 4.335938 3.824219 C 4.394531 3.945312 4.503906 4.027344 4.628906 4.078125 C 4.71875 4.117188 4.8125 4.152344 4.90625 4.179688 C 4.910156 4.183594 4.914062 4.183594 4.914062 4.183594 C 5.175781 4.789062 5.695312 5.179688 6.316406 5.324219 C 6.441406 5.570312 6.710938 5.707031 6.972656 5.742188 C 7.03125 5.867188 7.074219 6 7.09375 6.136719 C 7.070312 6.191406 7.023438 6.230469 6.957031 6.257812 C 6.945312 6.261719 6.9375 6.265625 6.925781 6.269531 C 6.527344 6.261719 6.125 6.265625 5.734375 6.277344 C 5.398438 6.289062 5.09375 6.308594 4.804688 6.332031 C 4.09375 6.402344 3.511719 6.535156 3.019531 6.734375 C 2.253906 7.019531 1.480469 7.632812 1.097656 8.332031 C 1.089844 8.34375 1.082031 8.355469 1.074219 8.371094 C 1.0625 8.335938 1.046875 8.304688 1.027344 8.277344 C 1.027344 8.273438 1.027344 8.273438 1.027344 8.273438 C 1.050781 8.195312 1.0625 8.113281 1.054688 8.03125 C 1.050781 7.945312 1.027344 7.859375 0.992188 7.78125 C 0.933594 7.644531 0.828125 7.53125 0.695312 7.492188 C 0.539062 7.449219 0.613281 7.523438 0.667969 7.574219 C 0.804688 7.679688 0.921875 7.914062 0.890625 8.058594 C 0.777344 7.917969 0.609375 7.8125 0.421875 7.816406 C 0.0859375 7.824219 -0.121094 8.195312 0.0742188 8.511719 C 0.246094 8.789062 0.683594 8.78125 0.890625 8.507812 C 0.90625 8.539062 0.933594 8.605469 0.949219 8.648438 C 0.734375 9.1875 0.691406 9.753906 0.792969 10.332031 C 0.859375 10.695312 0.984375 10.992188 1.085938 11.230469 C 1.167969 11.421875 1.257812 11.644531 1.289062 11.851562 C 1.292969 11.886719 1.296875 11.925781 1.300781 11.960938 C 1.28125 12.003906 1.257812 12.046875 1.230469 12.089844 C 1.089844 12.308594 0.960938 12.472656 0.890625 12.734375 C 0.820312 13.003906 0.84375 13.261719 0.9375 13.546875 C 0.980469 13.664062 1.015625 13.777344 1.027344 13.890625 C 1.058594 14.097656 1.003906 14.335938 1.015625 14.546875 C 1.019531 14.65625 1.046875 14.761719 1.09375 14.859375 C 1.121094 14.917969 1.160156 14.96875 1.210938 14.996094 C 1.242188 15.019531 1.285156 15.019531 1.320312 15 C 1.320312 15 1.320312 15 1.324219 14.996094 C 1.367188 15.121094 1.429688 15.230469 1.539062 15.304688 C 1.675781 15.402344 1.894531 15.4375 2.09375 15.429688 C 2.171875 15.429688 2.253906 15.417969 2.332031 15.402344 C 2.53125 15.351562 2.554688 15.246094 2.460938 15.078125 C 2.445312 15.046875 2.421875 15.015625 2.398438 14.988281 C 2.3125 14.886719 2.203125 14.808594 2.078125 14.757812 C 1.910156 14.246094 1.863281 13.957031 1.910156 13.414062 C 2.035156 13.203125 2.195312 13.03125 2.40625 12.847656 C 2.550781 13.128906 2.664062 13.425781 2.742188 13.734375 C 2.792969 13.921875 2.792969 14.109375 2.820312 14.285156 C 2.839844 14.402344 2.882812 14.480469 2.945312 14.535156 C 3.027344 14.609375 3.121094 14.613281 3.195312 14.695312 C 3.238281 14.75 3.273438 14.8125 3.289062 14.882812 C 3.332031 15.046875 3.511719 15.128906 3.75 15.160156 C 3.878906 15.175781 4.285156 15.21875 4.320312 15.058594 C 4.339844 14.96875 4.265625 14.867188 4.214844 14.804688 C 4.136719 14.714844 4.050781 14.636719 3.949219 14.574219 C 3.710938 14.222656 3.558594 13.761719 3.480469 13.335938 C 3.472656 13.046875 3.515625 12.757812 3.601562 12.484375 C 5.449219 13.015625 7.53125 12.953125 9.371094 12.484375 C 9.507812 12.511719 9.644531 12.523438 9.78125 12.527344 C 9.992188 13.144531 10.179688 13.65625 10.089844 14.304688 C 10.046875 14.601562 10.085938 14.777344 10.222656 14.820312 C 10.320312 15.089844 10.511719 15.195312 10.742188 15.222656 C 11.101562 15.265625 11.1875 15.207031 11.136719 15.046875 C 11.085938 14.898438 10.933594 14.660156 10.832031 14.535156 C 10.816406 14.191406 10.832031 13.796875 10.886719 13.480469 C 10.910156 13.535156 10.9375 13.585938 10.96875 13.640625 C 11.023438 13.734375 11.074219 13.835938 11.113281 13.9375 C 11.160156 14.0625 11.1875 14.195312 11.199219 14.328125 C 11.207031 14.46875 11.191406 14.613281 11.199219 14.757812 C 11.199219 14.828125 11.214844 14.917969 11.273438 14.960938 C 11.304688 14.988281 11.347656 14.996094 11.382812 14.980469 C 11.390625 15.015625 11.40625 15.050781 11.421875 15.082031 C 11.449219 15.132812 11.488281 15.175781 11.535156 15.214844 C 11.683594 15.332031 12.046875 15.371094 12.210938 15.292969 C 12.261719 15.269531 12.296875 15.230469 12.316406 15.179688 C 12.328125 15.132812 12.324219 15.085938 12.3125 15.042969 C 12.269531 14.921875 12.140625 14.773438 12.046875 14.695312 C 12.035156 14.683594 12.019531 14.671875 12.003906 14.660156 L 11.988281 14.542969 C 11.878906 13.871094 11.875 13.164062 12.070312 12.503906 C 12.980469 12.796875 13.941406 12.816406 15.207031 12.503906 C 15.292969 12.539062 15.382812 12.574219 15.472656 12.597656 C 15.59375 12.632812 15.71875 12.644531 15.84375 12.640625 C 15.929688 12.636719 16.011719 12.628906 16.097656 12.617188 C 16.171875 12.609375 16.253906 12.597656 16.332031 12.597656 C 16.375 12.597656 16.421875 12.597656 16.460938 12.59375 C 16.542969 12.578125 16.617188 12.542969 16.675781 12.484375 C 16.828125 12.347656 16.929688 12.121094 16.976562 11.925781 C 17 11.820312 17.027344 11.664062 16.9375 11.582031 Z M 0.546875 8.492188 C 0.441406 8.515625 0.332031 8.472656 0.269531 8.382812 C 0.167969 8.238281 0.230469 8.050781 0.421875 8.050781 C 0.582031 8.050781 0.746094 8.191406 0.796875 8.320312 C 0.75 8.382812 0.65625 8.472656 0.546875 8.492188 Z M 8.417969 6.339844 C 8.4375 6.339844 8.457031 6.332031 8.472656 6.320312 C 8.53125 6.308594 8.589844 6.328125 8.644531 6.359375 C 8.605469 6.355469 8.570312 6.351562 8.535156 6.351562 C 8.496094 6.347656 8.457031 6.34375 8.417969 6.339844 Z M 8.417969 6.339844 "/>
</g>
</g>
</svg>
