<?xml version="1.0" encoding="UTF-8"?>
<svg xmlns="http://www.w3.org/2000/svg" xmlns:xlink="http://www.w3.org/1999/xlink" width="11" height="10.819862" viewBox="0 0 11 10.819862" version="1.1">
<g id="surface1">
<path style=" stroke:none;fill-rule:nonzero;fill:rgb(30%,30%,30%);fill-opacity:1;" d="M 3.78125 6.578125 L 3.058594 6.21875 C 2.875 6.542969 2.699219 6.859375 2.523438 7.175781 C 2.375 7.441406 2.203125 7.695312 2.082031 7.96875 C 1.851562 8.496094 1.785156 9.042969 1.96875 9.601562 L 1.929688 9.625 C 1.792969 9.425781 1.640625 9.238281 1.523438 9.03125 C 1.054688 8.207031 0.597656 7.375 0.132812 6.550781 C -0.0273438 6.265625 -0.0078125 6.007812 0.167969 5.734375 C 0.363281 5.429688 0.546875 5.117188 0.742188 4.789062 C 0.488281 4.636719 0.246094 4.484375 0 4.335938 L 0.00390625 4.308594 C 0.132812 4.292969 0.261719 4.273438 0.390625 4.261719 C 1.078125 4.203125 1.769531 4.144531 2.460938 4.078125 C 2.5625 4.070312 2.617188 4.09375 2.664062 4.195312 C 3.019531 4.953125 3.378906 5.703125 3.734375 6.457031 C 3.75 6.488281 3.761719 6.523438 3.78125 6.578125 Z M 7.574219 9.878906 L 7.574219 10.785156 L 7.535156 10.820312 C 7.519531 10.785156 7.507812 10.746094 7.484375 10.71875 C 6.996094 10.082031 6.507812 9.449219 6.019531 8.816406 C 5.972656 8.757812 5.960938 8.714844 6.003906 8.644531 C 6.464844 7.914062 6.925781 7.179688 7.382812 6.445312 C 7.390625 6.433594 7.402344 6.417969 7.429688 6.390625 L 7.515625 7.1875 C 7.796875 7.171875 8.070312 7.15625 8.34375 7.140625 C 8.714844 7.121094 9.089844 7.128906 9.457031 7.078125 C 10.039062 6.996094 10.554688 6.753906 10.949219 6.289062 L 10.984375 6.308594 C 10.914062 6.492188 10.859375 6.6875 10.769531 6.859375 C 10.34375 7.671875 9.90625 8.476562 9.472656 9.285156 C 9.433594 9.355469 9.398438 9.421875 9.363281 9.492188 C 9.222656 9.761719 9 9.882812 8.699219 9.878906 C 8.324219 9.875 7.953125 9.878906 7.574219 9.878906 Z M 8.378906 1.574219 L 9.191406 1.167969 C 9.164062 1.234375 9.148438 1.273438 9.132812 1.3125 C 8.773438 2.023438 8.414062 2.730469 8.058594 3.445312 C 8.023438 3.515625 7.980469 3.535156 7.90625 3.527344 C 7.074219 3.429688 6.238281 3.332031 5.402344 3.238281 C 5.359375 3.234375 5.320312 3.226562 5.257812 3.214844 L 5.945312 2.789062 C 5.902344 2.710938 5.859375 2.640625 5.824219 2.566406 C 5.628906 2.203125 5.4375 1.839844 5.246094 1.476562 C 4.898438 0.816406 4.417969 0.296875 3.667969 0.0507812 C 3.796875 0.03125 3.925781 -0.00390625 4.050781 0 C 4.367188 0.00390625 4.683594 0.03125 5 0.0429688 C 5.730469 0.0703125 6.460938 0.101562 7.191406 0.125 C 7.519531 0.136719 7.742188 0.289062 7.878906 0.589844 C 8.03125 0.917969 8.207031 1.234375 8.378906 1.574219 Z M 8.378906 1.574219 "/>
<path style=" stroke:none;fill-rule:nonzero;fill:rgb(30%,30%,30%);fill-opacity:1;" d="M 5.117188 9.921875 C 4.816406 9.921875 4.542969 9.925781 4.265625 9.921875 C 3.683594 9.917969 3.105469 9.910156 2.523438 9.898438 C 2.265625 9.894531 2.183594 9.828125 2.101562 9.585938 C 1.914062 9.054688 1.984375 8.535156 2.191406 8.027344 C 2.277344 7.820312 2.394531 7.628906 2.511719 7.433594 C 2.53125 7.394531 2.597656 7.359375 2.644531 7.359375 C 3.457031 7.363281 4.269531 7.375 5.085938 7.382812 C 5.097656 7.386719 5.105469 7.386719 5.117188 7.390625 Z M 1.710938 2.578125 C 2.1875 1.828125 2.648438 1.09375 3.117188 0.359375 C 3.21875 0.207031 3.355469 0.144531 3.550781 0.1875 C 4.175781 0.324219 4.613281 0.710938 4.953125 1.226562 C 5.277344 1.707031 5.273438 1.710938 4.964844 2.195312 C 4.621094 2.734375 4.28125 3.269531 3.9375 3.808594 C 3.914062 3.847656 3.886719 3.886719 3.855469 3.933594 Z M 7.382812 4.808594 L 9.523438 3.46875 C 9.714844 3.765625 9.90625 4.054688 10.09375 4.34375 C 10.367188 4.777344 10.640625 5.207031 10.90625 5.644531 C 11.046875 5.878906 11.027344 5.992188 10.851562 6.207031 C 10.476562 6.660156 9.972656 6.875 9.402344 6.960938 C 9.214844 6.984375 9.023438 6.988281 8.832031 6.988281 C 8.789062 6.988281 8.730469 6.960938 8.707031 6.925781 C 8.265625 6.226562 7.832031 5.523438 7.382812 4.808594 Z M 7.382812 4.808594 "/>
</g>
</svg>
