<?xml version="1.0" encoding="UTF-8" standalone="no"?>
<!-- Created with Inkscape (http://www.inkscape.org/) -->

<svg
   xmlns:dc="http://purl.org/dc/elements/1.1/"
   xmlns:cc="http://creativecommons.org/ns#"
   xmlns:rdf="http://www.w3.org/1999/02/22-rdf-syntax-ns#"
   xmlns:svg="http://www.w3.org/2000/svg"
   xmlns="http://www.w3.org/2000/svg"
   xmlns:xlink="http://www.w3.org/1999/xlink"
   xmlns:sodipodi="http://sodipodi.sourceforge.net/DTD/sodipodi-0.dtd"
   xmlns:inkscape="http://www.inkscape.org/namespaces/inkscape"
   width="30px"
   height="30px"
   version="1.1"
   id="svg8"
   inkscape:version="0.92.4 5da689c313, 2019-01-14"
   sodipodi:docname="container.svg">
  <defs
     id="defs2" />
  <sodipodi:namedview
     id="base"
     pagecolor="#ffffff"
     bordercolor="#666666"
     borderopacity="1.0"
     inkscape:pageopacity="0.0"
     inkscape:pageshadow="2"
     inkscape:zoom="13.049334"
     inkscape:cx="18.679046"
     inkscape:cy="12.165829"
     inkscape:document-units="px"
     inkscape:current-layer="layer1"
     showgrid="false"
     inkscape:snap-page="false"
     units="px"
     inkscape:window-width="1884"
     inkscape:window-height="1061"
     inkscape:window-x="0"
     inkscape:window-y="0"
     inkscape:window-maximized="1"
     fit-margin-top="0"
     fit-margin-left="0"
     fit-margin-right="0"
     fit-margin-bottom="0" />
  <metadata
     id="metadata5">
    <rdf:RDF>
      <cc:Work
         rdf:about="">
        <dc:format>image/svg+xml</dc:format>
        <dc:type
           rdf:resource="http://purl.org/dc/dcmitype/StillImage" />
        <dc:title></dc:title>
      </cc:Work>
    </rdf:RDF>
  </metadata>
    <circle
       style="color:#000000;clip-rule:nonzero;display:inline;overflow:visible;visibility:visible;opacity:1;isolation:auto;mix-blend-mode:normal;color-interpolation:sRGB;color-interpolation-filters:linearRGB;solid-color:#000000;solid-opacity:1;vector-effect:none;fill:#ffffff;fill-opacity:1;fill-rule:evenodd;stroke:rgba(255, 255, 255, 1);stroke-width:1;stroke-linecap:butt;stroke-linejoin:miter;stroke-miterlimit:4;stroke-dasharray:none;stroke-dashoffset:0;stroke-opacity:1;marker:none;color-rendering:auto;image-rendering:auto;shape-rendering:auto;text-rendering:auto;enable-background:accumulate"
       id="path815"
       cx="15"
       cy="15"
       r="14.5" />
<g transform="translate(6,7)"><g id="surface1">
<path style=" stroke:none;fill-rule:nonzero;fill:rgb(30%,30%,30%);fill-opacity:1;" d="M 15.523438 15.046875 C 15.25 15.03125 14.980469 14.8125 14.667969 14.554688 C 14.207031 14.179688 13.683594 13.75 12.980469 13.847656 C 12.519531 13.914062 12.1875 14.207031 11.863281 14.492188 C 11.503906 14.808594 11.164062 15.109375 10.621094 15.089844 C 10.324219 15.078125 10.035156 14.859375 9.699219 14.609375 C 9.203125 14.234375 8.640625 13.8125 7.867188 13.890625 C 7.421875 13.9375 7.074219 14.210938 6.734375 14.476562 C 6.359375 14.769531 6.003906 15.050781 5.496094 15.050781 C 5.1875 15.050781 4.878906 14.820312 4.523438 14.554688 C 4.074219 14.222656 3.566406 13.839844 2.953125 13.894531 C 2.503906 13.929688 2.078125 14.230469 1.664062 14.519531 C 1.273438 14.792969 0.90625 15.050781 0.574219 15.050781 C 0.472656 15.050781 0.371094 15.039062 0.273438 15.011719 C 0.210938 14.992188 0.140625 15.007812 0.0859375 15.050781 C 0.03125 15.089844 0 15.152344 0 15.222656 L 0.00390625 16.15625 C 0.00390625 16.253906 0.0703125 16.335938 0.164062 16.363281 C 0.296875 16.398438 0.4375 16.417969 0.574219 16.417969 C 1.039062 16.417969 1.488281 16.105469 1.921875 15.800781 C 2.300781 15.535156 2.65625 15.285156 2.984375 15.257812 C 3.441406 15.222656 3.835938 15.515625 4.253906 15.824219 C 4.644531 16.117188 5.046875 16.417969 5.496094 16.417969 C 6.152344 16.417969 6.613281 16.054688 7.019531 15.738281 C 7.324219 15.496094 7.589844 15.289062 7.910156 15.257812 C 8.519531 15.195312 8.980469 15.542969 9.425781 15.875 C 9.796875 16.152344 10.175781 16.441406 10.609375 16.457031 C 10.628906 16.457031 10.652344 16.457031 10.675781 16.457031 C 11.351562 16.457031 11.789062 16.070312 12.175781 15.730469 C 12.464844 15.476562 12.710938 15.257812 13.035156 15.214844 C 13.558594 15.140625 13.953125 15.464844 14.371094 15.808594 C 14.722656 16.09375 15.085938 16.390625 15.503906 16.414062 C 15.53125 16.414062 15.558594 16.414062 15.585938 16.414062 C 16.101562 16.414062 16.570312 16.171875 16.90625 15.9375 C 16.964844 15.894531 17 15.832031 17 15.757812 L 17 14.828125 C 17 14.652344 16.800781 14.550781 16.660156 14.652344 C 16.375 14.855469 15.964844 15.066406 15.523438 15.046875 Z M 15.523438 15.046875 "/>
<path style=" stroke:none;fill-rule:nonzero;fill:rgb(30%,30%,30%);fill-opacity:1;" d="M 15.644531 10.902344 L 13.3125 10.902344 L 13.246094 5.203125 C 13.246094 5.148438 13.269531 5.089844 13.308594 5.050781 C 13.351562 5.007812 13.40625 4.984375 13.464844 4.984375 L 15.03125 4.984375 C 15.152344 4.984375 15.25 4.886719 15.25 4.769531 L 15.25 3.96875 C 15.25 3.890625 15.207031 3.820312 15.140625 3.78125 L 8.472656 0.046875 C 8.417969 0.015625 8.355469 0 8.292969 0 L 8.238281 0 C 8.183594 0 8.125 0.015625 8.078125 0.0429688 L 1.402344 3.78125 C 1.332031 3.820312 1.292969 3.890625 1.292969 3.96875 L 1.292969 4.742188 C 1.292969 4.859375 1.386719 4.984375 1.503906 4.984375 L 3.019531 4.984375 C 3.078125 4.984375 3.132812 5.007812 3.175781 5.050781 C 3.214844 5.089844 3.238281 5.144531 3.238281 5.203125 L 3.214844 10.902344 L 0.636719 10.902344 C 0.347656 10.902344 0.113281 11.125 0.113281 11.40625 L 0.113281 12.273438 C 0.113281 12.546875 0.347656 12.769531 0.636719 12.769531 L 15.644531 12.769531 C 15.933594 12.769531 16.167969 12.546875 16.167969 12.273438 L 16.167969 11.40625 C 16.167969 11.125 15.933594 10.902344 15.644531 10.902344 Z M 7.046875 5.917969 L 7.046875 10.898438 L 4.996094 10.898438 L 4.996094 5.917969 C 4.996094 5.519531 5.414062 5.195312 5.929688 5.195312 L 6.113281 5.195312 C 6.628906 5.195312 7.046875 5.519531 7.046875 5.917969 Z M 11.511719 5.917969 L 11.511719 10.898438 L 9.464844 10.898438 L 9.464844 5.917969 C 9.464844 5.519531 9.878906 5.195312 10.394531 5.195312 L 10.582031 5.195312 C 11.097656 5.195312 11.511719 5.519531 11.511719 5.917969 Z M 11.511719 5.917969 "/>
</g>
</g>
</svg>
