<?xml version="1.0" encoding="UTF-8" standalone="no"?>
<!-- Created with Inkscape (http://www.inkscape.org/) -->

<svg
   xmlns:dc="http://purl.org/dc/elements/1.1/"
   xmlns:cc="http://creativecommons.org/ns#"
   xmlns:rdf="http://www.w3.org/1999/02/22-rdf-syntax-ns#"
   xmlns:svg="http://www.w3.org/2000/svg"
   xmlns="http://www.w3.org/2000/svg"
   xmlns:xlink="http://www.w3.org/1999/xlink"
   xmlns:sodipodi="http://sodipodi.sourceforge.net/DTD/sodipodi-0.dtd"
   xmlns:inkscape="http://www.inkscape.org/namespaces/inkscape"
   width="30px"
   height="30px"
   version="1.1"
   id="svg8"
   inkscape:version="0.92.4 5da689c313, 2019-01-14"
   sodipodi:docname="container.svg">
  <defs
     id="defs2" />
  <sodipodi:namedview
     id="base"
     pagecolor="#ffffff"
     bordercolor="#666666"
     borderopacity="1.0"
     inkscape:pageopacity="0.0"
     inkscape:pageshadow="2"
     inkscape:zoom="13.049334"
     inkscape:cx="18.679046"
     inkscape:cy="12.165829"
     inkscape:document-units="px"
     inkscape:current-layer="layer1"
     showgrid="false"
     inkscape:snap-page="false"
     units="px"
     inkscape:window-width="1884"
     inkscape:window-height="1061"
     inkscape:window-x="0"
     inkscape:window-y="0"
     inkscape:window-maximized="1"
     fit-margin-top="0"
     fit-margin-left="0"
     fit-margin-right="0"
     fit-margin-bottom="0" />
  <metadata
     id="metadata5">
    <rdf:RDF>
      <cc:Work
         rdf:about="">
        <dc:format>image/svg+xml</dc:format>
        <dc:type
           rdf:resource="http://purl.org/dc/dcmitype/StillImage" />
        <dc:title></dc:title>
      </cc:Work>
    </rdf:RDF>
  </metadata>
    <circle
       style="color:#000000;clip-rule:nonzero;display:inline;overflow:visible;visibility:visible;opacity:1;isolation:auto;mix-blend-mode:normal;color-interpolation:sRGB;color-interpolation-filters:linearRGB;solid-color:#000000;solid-opacity:1;vector-effect:none;fill:rgba(255, 255, 255, 1);fill-opacity:1;fill-rule:evenodd;stroke:#ffffff;stroke-width:1;stroke-linecap:butt;stroke-linejoin:miter;stroke-miterlimit:4;stroke-dasharray:none;stroke-dashoffset:0;stroke-opacity:1;marker:none;color-rendering:auto;image-rendering:auto;shape-rendering:auto;text-rendering:auto;enable-background:accumulate"
       id="path815"
       cx="15"
       cy="15"
       r="14.5" />
<g transform="translate(7,6)"><g id="surface1">
<path style=" stroke:none;fill-rule:nonzero;fill:#FFFFFF;fill-opacity:1;" d="M 6.355469 5.359375 L 4.039062 4.925781 L 2.300781 6.519531 L 2.074219 4.257812 L 0 3.207031 L 2.175781 2.246094 L 2.628906 0 L 4.203125 1.664062 L 6.558594 1.332031 L 5.351562 3.320312 Z M 6.355469 5.359375 "/>
<path style=" stroke:none;fill-rule:nonzero;fill:#FFFFFF;fill-opacity:1;" d="M 14.75 8.269531 C 14.710938 7.847656 14.574219 7.445312 14.347656 7.089844 C 14.175781 6.820312 13.945312 6.582031 13.636719 6.363281 C 13.320312 6.140625 12.933594 5.996094 12.507812 5.949219 C 12.183594 5.910156 11.847656 5.941406 11.488281 6.046875 C 11.335938 6.078125 11.1875 6.125 11.042969 6.183594 C 10.695312 5.789062 10.261719 5.488281 9.777344 5.292969 C 9.003906 4.992188 8.117188 4.984375 7.347656 5.277344 C 6.820312 5.476562 6.347656 5.808594 5.984375 6.242188 C 5.84375 6.1875 5.699219 6.144531 5.554688 6.109375 L 5.554688 6.101562 C 5.539062 6.097656 5.519531 6.089844 5.503906 6.085938 C 5.476562 6.078125 5.453125 6.070312 5.425781 6.0625 C 4.679688 5.855469 3.808594 6.050781 3.214844 6.558594 C 2.925781 6.804688 2.695312 7.109375 2.53125 7.453125 L 2.519531 7.46875 L 2.515625 7.492188 C 2.359375 7.828125 2.285156 8.195312 2.292969 8.5625 C 2.3125 9.371094 2.707031 10.132812 3.355469 10.597656 C 3.699219 10.84375 4.089844 11 4.484375 11.042969 C 4.585938 11.054688 4.6875 11.0625 4.789062 11.0625 C 4.808594 11.0625 4.828125 11.0625 4.847656 11.0625 L 5.3125 14.085938 L 5.3125 17 L 11.582031 17 L 11.582031 14.46875 L 12.09375 11.042969 C 12.101562 11.042969 12.113281 11.039062 12.121094 11.039062 C 12.15625 11.039062 12.191406 11.042969 12.226562 11.042969 C 12.832031 11.042969 13.441406 10.820312 13.886719 10.414062 C 14.5 9.859375 14.820312 9.054688 14.75 8.269531 Z M 14.113281 9.078125 C 13.898438 9.796875 13.355469 10.335938 12.609375 10.59375 C 12.578125 10.601562 12.546875 10.609375 12.515625 10.613281 C 12.203125 10.675781 11.882812 10.675781 11.570312 10.621094 L 11.5 10.929688 C 11.511719 10.929688 11.523438 10.933594 11.535156 10.9375 C 11.566406 10.949219 11.597656 10.957031 11.628906 10.964844 C 11.679688 10.976562 11.730469 10.988281 11.777344 11 L 11.320312 14.007812 L 10.113281 14.007812 C 11.070312 13.433594 10.605469 12.042969 10.625 11.878906 C 10.625 11.875 10.625 11.875 10.625 11.875 C 10.210938 14.003906 10.109375 13.117188 9.910156 14.007812 L 8.617188 14.007812 C 8.941406 13.179688 8.574219 12.730469 8.558594 12.289062 C 8.554688 12.238281 8.414062 11.90625 8.414062 11.855469 C 8.402344 12.171875 8.359375 13.246094 8.328125 14.007812 L 6.972656 14.007812 C 6.902344 13.976562 7.347656 13.339844 6.171875 12.03125 C 6.136719 11.992188 6.148438 11.925781 6.140625 11.875 C 6.335938 13.5 6.632812 13.074219 6.773438 14.007812 L 5.628906 14.007812 L 5.164062 11.035156 C 5.289062 11.015625 5.410156 10.988281 5.535156 10.957031 L 5.464844 10.648438 C 5.351562 10.667969 5.238281 10.679688 5.121094 10.683594 L 5.121094 10.679688 L 4.976562 10.6875 C 4.96875 10.6875 4.964844 10.6875 4.957031 10.6875 C 4.472656 10.679688 4.023438 10.527344 3.664062 10.25 C 3.117188 9.824219 2.800781 9.191406 2.796875 8.515625 C 2.800781 7.859375 3.101562 7.242188 3.617188 6.839844 C 3.894531 6.617188 4.21875 6.46875 4.566406 6.402344 C 4.828125 6.355469 5.09375 6.347656 5.359375 6.390625 C 5.503906 6.417969 5.644531 6.457031 5.785156 6.503906 C 5.578125 6.8125 5.421875 7.148438 5.324219 7.503906 C 5.269531 7.703125 5.246094 7.910156 5.230469 8.085938 C 5.21875 8.207031 5.21875 8.332031 5.226562 8.453125 C 5.226562 8.480469 5.226562 8.503906 5.226562 8.53125 L 5.542969 8.546875 C 5.566406 8.34375 5.601562 8.144531 5.644531 7.949219 C 5.703125 7.714844 5.792969 7.492188 5.910156 7.285156 C 6.257812 6.644531 6.804688 6.152344 7.453125 5.898438 C 7.667969 5.816406 7.894531 5.753906 8.125 5.722656 C 8.214844 5.707031 8.304688 5.699219 8.394531 5.695312 C 8.410156 5.695312 8.425781 5.695312 8.441406 5.695312 C 8.457031 5.695312 8.472656 5.691406 8.492188 5.691406 C 8.503906 5.691406 8.515625 5.691406 8.527344 5.691406 C 8.53125 5.691406 8.535156 5.691406 8.539062 5.691406 C 8.558594 5.691406 8.578125 5.691406 8.597656 5.691406 C 8.78125 5.699219 8.964844 5.707031 9.132812 5.75 C 9.539062 5.851562 9.84375 5.972656 10.09375 6.132812 L 10.097656 6.136719 C 10.34375 6.289062 10.566406 6.476562 10.757812 6.691406 C 10.984375 6.953125 11.167969 7.25 11.316406 7.601562 C 11.445312 7.90625 11.496094 8.234375 11.535156 8.546875 L 11.847656 8.53125 C 11.851562 8.503906 11.851562 8.480469 11.851562 8.457031 C 11.859375 8.332031 11.855469 8.207031 11.847656 8.082031 C 11.832031 7.90625 11.808594 7.703125 11.753906 7.503906 C 11.65625 7.144531 11.496094 6.800781 11.285156 6.492188 C 11.273438 6.476562 11.261719 6.460938 11.25 6.441406 C 11.355469 6.40625 11.460938 6.375 11.570312 6.351562 C 11.894531 6.296875 12.175781 6.292969 12.429688 6.339844 C 12.792969 6.410156 13.101562 6.539062 13.347656 6.722656 C 13.535156 6.863281 13.695312 7.027344 13.835938 7.214844 C 13.953125 7.394531 14.046875 7.59375 14.109375 7.800781 C 14.234375 8.21875 14.234375 8.664062 14.113281 9.078125 Z M 14.113281 9.078125 "/>
</g>
</g>
</svg>
