<?xml version="1.0" encoding="UTF-8"?>
<svg xmlns="http://www.w3.org/2000/svg" xmlns:xlink="http://www.w3.org/1999/xlink" width="8.680247" height="11" viewBox="0 0 8.680247 11" version="1.1">
<g id="surface1">
<path style=" stroke:none;fill-rule:nonzero;fill:rgb(30%,30%,30%);fill-opacity:1;" d="M 7.585938 4.074219 L 4.238281 4.074219 C 4.078125 4.074219 3.953125 4.203125 3.953125 4.363281 L 3.953125 7.25 C 3.953125 7.410156 4.078125 7.539062 4.238281 7.539062 L 7.585938 7.539062 C 7.597656 7.539062 8.179688 7.539062 8.679688 7.539062 L 8.679688 4.078125 C 8.179688 4.074219 7.597656 4.074219 7.585938 4.074219 Z M 7.585938 4.074219 "/>
<path style=" stroke:none;fill-rule:nonzero;fill:rgb(30%,30%,30%);fill-opacity:1;" d="M 3.679688 8.054688 C 3.539062 8.054688 3.425781 7.910156 3.425781 7.730469 L 3.425781 3.9375 C 3.425781 3.757812 3.539062 3.613281 3.679688 3.613281 L 8.652344 3.613281 C 8.660156 3.613281 8.671875 3.613281 8.679688 3.613281 L 8.679688 2.742188 C 8.679688 1.96875 8.054688 1.34375 7.285156 1.34375 L 1.386719 1.34375 C 0.621094 1.34375 0 1.96875 0 2.734375 L 0 9.226562 C 0 10.207031 0.792969 11 1.773438 11 L 6.90625 11 C 7.886719 11 8.679688 10.207031 8.679688 9.226562 L 8.679688 8.054688 C 8.671875 8.054688 8.660156 8.054688 8.652344 8.054688 Z M 3.679688 8.054688 "/>
<path style=" stroke:none;fill-rule:nonzero;fill:rgb(30%,30%,30%);fill-opacity:1;" d="M 0.382812 0 L 8.167969 0 L 8.167969 1.035156 L 0.382812 1.035156 Z M 0.382812 0 "/>
</g>
</svg>
