<?xml version="1.0" encoding="UTF-8" standalone="no"?>
<!-- Created with Inkscape (http://www.inkscape.org/) -->

<svg
   xmlns:dc="http://purl.org/dc/elements/1.1/"
   xmlns:cc="http://creativecommons.org/ns#"
   xmlns:rdf="http://www.w3.org/1999/02/22-rdf-syntax-ns#"
   xmlns:svg="http://www.w3.org/2000/svg"
   xmlns="http://www.w3.org/2000/svg"
   xmlns:xlink="http://www.w3.org/1999/xlink"
   xmlns:sodipodi="http://sodipodi.sourceforge.net/DTD/sodipodi-0.dtd"
   xmlns:inkscape="http://www.inkscape.org/namespaces/inkscape"
   width="30px"
   height="30px"
   version="1.1"
   id="svg8"
   inkscape:version="0.92.4 5da689c313, 2019-01-14"
   sodipodi:docname="container.svg">
  <defs
     id="defs2" />
  <sodipodi:namedview
     id="base"
     pagecolor="#ffffff"
     bordercolor="#666666"
     borderopacity="1.0"
     inkscape:pageopacity="0.0"
     inkscape:pageshadow="2"
     inkscape:zoom="13.049334"
     inkscape:cx="18.679046"
     inkscape:cy="12.165829"
     inkscape:document-units="px"
     inkscape:current-layer="layer1"
     showgrid="false"
     inkscape:snap-page="false"
     units="px"
     inkscape:window-width="1884"
     inkscape:window-height="1061"
     inkscape:window-x="0"
     inkscape:window-y="0"
     inkscape:window-maximized="1"
     fit-margin-top="0"
     fit-margin-left="0"
     fit-margin-right="0"
     fit-margin-bottom="0" />
  <metadata
     id="metadata5">
    <rdf:RDF>
      <cc:Work
         rdf:about="">
        <dc:format>image/svg+xml</dc:format>
        <dc:type
           rdf:resource="http://purl.org/dc/dcmitype/StillImage" />
        <dc:title></dc:title>
      </cc:Work>
    </rdf:RDF>
  </metadata>
    <circle
       style="color:#000000;clip-rule:nonzero;display:inline;overflow:visible;visibility:visible;opacity:1;isolation:auto;mix-blend-mode:normal;color-interpolation:sRGB;color-interpolation-filters:linearRGB;solid-color:#000000;solid-opacity:1;vector-effect:none;fill:#ffffff;fill-opacity:1;fill-rule:evenodd;stroke:rgba(255, 255, 255, 1);stroke-width:1;stroke-linecap:butt;stroke-linejoin:miter;stroke-miterlimit:4;stroke-dasharray:none;stroke-dashoffset:0;stroke-opacity:1;marker:none;color-rendering:auto;image-rendering:auto;shape-rendering:auto;text-rendering:auto;enable-background:accumulate"
       id="path815"
       cx="15"
       cy="15"
       r="14.5" />
<g transform="translate(6,6)"><g id="surface1">
<path style=" stroke:none;fill-rule:nonzero;fill:rgb(30%,30%,30%);fill-opacity:1;" d="M 10.960938 16.84375 C 9.417969 16.84375 8.15625 15.601562 8.140625 14.0625 C 8.128906 12.507812 9.378906 11.238281 10.933594 11.226562 C 10.941406 11.226562 10.949219 11.226562 10.960938 11.226562 C 12.503906 11.222656 13.761719 12.464844 13.78125 14.007812 C 13.792969 15.554688 12.542969 16.828125 10.988281 16.84375 C 10.976562 16.84375 10.96875 16.84375 10.960938 16.84375 Z M 10.960938 11.71875 C 10.953125 11.71875 10.945312 11.71875 10.9375 11.71875 C 9.65625 11.730469 8.625 12.777344 8.632812 14.058594 C 8.648438 15.324219 9.6875 16.347656 10.960938 16.347656 C 10.96875 16.347656 10.976562 16.347656 10.984375 16.347656 C 12.265625 16.335938 13.296875 15.289062 13.285156 14.011719 C 13.269531 12.738281 12.234375 11.71875 10.960938 11.71875 Z M 10.960938 11.71875 "/>
<path style=" stroke:none;fill-rule:nonzero;fill:rgb(30%,30%,30%);fill-opacity:1;" d="M 2.820312 16.925781 C 1.269531 16.929688 0.0117188 15.675781 0.00390625 14.128906 C -0.00390625 12.578125 1.242188 11.316406 2.792969 11.304688 C 2.800781 11.304688 2.8125 11.304688 2.820312 11.304688 C 4.363281 11.304688 5.625 12.546875 5.640625 14.085938 C 5.652344 15.640625 4.402344 16.910156 2.847656 16.925781 C 2.839844 16.925781 2.828125 16.925781 2.820312 16.925781 Z M 2.820312 11.800781 C 2.8125 11.800781 2.804688 11.800781 2.796875 11.800781 C 1.519531 11.808594 0.492188 12.847656 0.496094 14.125 C 0.503906 15.402344 1.542969 16.433594 2.820312 16.429688 C 2.828125 16.429688 2.835938 16.429688 2.84375 16.429688 C 4.125 16.421875 5.15625 15.375 5.144531 14.09375 C 5.132812 12.824219 4.089844 11.800781 2.820312 11.800781 Z M 2.820312 11.800781 "/>
<path style="fill-rule:nonzero;fill:rgb(30%,30%,30%);fill-opacity:1;stroke-width:4.6417;stroke-linecap:butt;stroke-linejoin:miter;stroke:rgb(7.058824%,6.27451%,5.490196%);stroke-opacity:1;stroke-miterlimit:10;" d="M 548.609866 375.802826 C 548.530405 405.959588 524.075988 430.150868 493.91704 430.291513 C 463.760278 430.212052 439.346705 405.975554 439.426166 375.818793 C 439.50344 345.882138 463.739938 321.468565 493.8967 321.548026 C 524.053461 321.627487 548.467034 345.863985 548.609866 375.802826 Z M 548.609866 375.802826 " transform="matrix(0.0177453,-0.000176289,0.000176289,0.0177453,-0.656992,-0.240007)"/>
<path style=" stroke:none;fill-rule:nonzero;fill:rgb(30%,30%,30%);fill-opacity:1;" d="M 10.300781 9.089844 L 8.507812 9.109375 C 8.507812 9.105469 8.507812 9.105469 8.507812 9.105469 L 7.410156 7.578125 C 7.363281 7.453125 7.292969 7.335938 7.195312 7.242188 L 7.121094 7.171875 C 6.773438 6.835938 6.21875 6.839844 5.878906 7.183594 L 3.824219 9.269531 C 3.734375 9.363281 3.667969 9.472656 3.625 9.59375 C 3.453125 9.957031 3.578125 10.390625 3.921875 10.601562 L 3.964844 10.628906 C 4.027344 10.679688 4.097656 10.722656 4.171875 10.753906 L 6.246094 12.027344 C 6.25 12.027344 6.25 12.027344 6.25 12.027344 L 6.273438 14.214844 C 6.277344 14.558594 6.554688 14.828125 6.898438 14.828125 C 7.238281 14.824219 7.511719 14.546875 7.511719 14.203125 L 7.480469 11.324219 C 7.480469 11.152344 7.40625 10.992188 7.28125 10.878906 C 7.222656 10.804688 7.152344 10.742188 7.074219 10.691406 L 5.800781 9.910156 L 7.035156 8.660156 L 7.730469 9.625 C 7.792969 9.746094 7.914062 9.816406 8.046875 9.816406 L 8.0625 9.816406 C 8.082031 9.816406 8.101562 9.816406 8.121094 9.816406 L 10.304688 9.792969 C 10.433594 9.792969 10.546875 9.726562 10.609375 9.617188 C 10.671875 9.507812 10.671875 9.371094 10.605469 9.261719 C 10.542969 9.152344 10.425781 9.089844 10.300781 9.089844 Z M 10.300781 9.089844 "/>
<path style=" stroke:none;fill-rule:nonzero;fill:rgb(30%,30%,30%);fill-opacity:1;" d="M 3.953125 5.367188 L 8.644531 0 L 11.160156 4.046875 L 13.335938 1.839844 L 17 6.613281 L 16.183594 6.355469 C 15.816406 6.242188 15.425781 6.222656 15.050781 6.304688 C 14.660156 6.386719 14.257812 6.433594 13.859375 6.441406 C 12.902344 6.453125 12.632812 4.96875 10.363281 5.457031 C 9.132812 5.722656 8.371094 3.863281 7.328125 3.742188 C 6.285156 3.617188 3.953125 5.367188 3.953125 5.367188 Z M 12.570312 3.011719 L 13.03125 2.992188 L 13.308594 3.378906 L 13.582031 3.011719 L 13.933594 3.121094 L 13.3125 2.230469 Z M 7.535156 1.601562 L 8.199219 1.574219 L 8.601562 2.132812 L 9 1.597656 L 9.507812 1.757812 L 8.609375 0.472656 Z M 7.535156 1.601562 "/>
</g>
</g>
</svg>
