<?xml version="1.0" encoding="UTF-8"?>
<svg xmlns="http://www.w3.org/2000/svg" xmlns:xlink="http://www.w3.org/1999/xlink" width="9.878078" height="11" viewBox="0 0 9.878078 11" version="1.1">
<g id="surface1">
<path style=" stroke:none;fill-rule:nonzero;fill:rgb(30%,30%,30%);fill-opacity:1;" d="M 8.804688 4.371094 C 8.761719 4.289062 8.691406 4.222656 8.601562 4.195312 C 8.515625 4.164062 8.417969 4.171875 8.335938 4.214844 L 7.402344 4.648438 L 6.210938 3.832031 C 6.1875 3.816406 6.167969 3.804688 6.144531 3.792969 C 6.050781 3.734375 5.949219 3.695312 5.839844 3.675781 L 5.789062 3.667969 C 5.429688 3.589844 3.824219 4.117188 3.824219 4.117188 C 3.707031 4.15625 3.617188 4.253906 3.585938 4.375 L 3.464844 4.933594 C 1.84375 4.890625 0.480469 5.167969 0.347656 5.25 L 0.695312 5.714844 L 0.691406 5.714844 L 0.226562 6.050781 C 0.34375 6.203125 1.980469 7.171875 4.003906 7.53125 L 3.730469 8.191406 L 2.726562 9.296875 C 2.660156 9.371094 2.621094 9.472656 2.628906 9.574219 C 2.632812 9.675781 2.679688 9.769531 2.757812 9.839844 C 2.917969 9.980469 3.164062 9.964844 3.308594 9.808594 L 4.355469 8.652344 C 4.382812 8.621094 4.40625 8.582031 4.425781 8.542969 L 4.804688 7.640625 C 4.96875 7.652344 5.136719 7.664062 5.304688 7.667969 L 5.390625 8.527344 L 5.160156 10.570312 C 5.136719 10.78125 5.289062 10.972656 5.503906 10.996094 C 5.714844 11.019531 5.90625 10.871094 5.933594 10.65625 L 6.167969 8.574219 C 6.171875 8.550781 6.171875 8.523438 6.167969 8.496094 L 6.082031 7.644531 C 6.859375 7.574219 7.75 7.359375 8.476562 6.945312 C 8.484375 6.941406 8.488281 6.933594 8.492188 6.925781 C 8.492188 6.917969 8.488281 6.910156 8.484375 6.902344 C 8.484375 6.902344 7.546875 5.867188 6.359375 5.425781 L 6.464844 4.847656 L 7.171875 5.332031 C 7.273438 5.402344 7.410156 5.414062 7.523438 5.359375 L 8.636719 4.835938 C 8.8125 4.753906 8.886719 4.546875 8.804688 4.371094 Z M 4.699219 5.03125 C 4.523438 5.003906 4.347656 4.988281 4.171875 4.972656 L 4.226562 4.71875 L 4.789062 4.546875 Z M 4.699219 5.03125 "/>
<path style=" stroke:none;fill-rule:nonzero;fill:rgb(30%,30%,30%);fill-opacity:1;" d="M 4.21875 3.484375 C 4.21875 3.484375 4.492188 3.789062 4.632812 3.484375 C 4.769531 3.175781 4.527344 2.425781 4.835938 2.460938 C 4.933594 2.472656 5.023438 2.523438 5.105469 2.585938 C 5.085938 2.652344 5.078125 2.722656 5.078125 2.792969 C 5.078125 3.195312 5.414062 3.519531 5.820312 3.515625 C 6.226562 3.515625 6.554688 3.183594 6.550781 2.785156 C 6.546875 2.378906 6.214844 2.054688 5.808594 2.058594 C 5.613281 2.0625 5.421875 2.140625 5.285156 2.28125 C 5.054688 2.039062 4.691406 1.789062 4.355469 2.121094 C 3.804688 2.667969 4.632812 3.144531 4.21875 3.484375 Z M 4.21875 3.484375 "/>
<path style=" stroke:none;fill-rule:nonzero;fill:rgb(30%,30%,30%);fill-opacity:1;" d="M 4.9375 0 C 4.8125 0 0 2.246094 0 2.246094 L 0 3.0625 L 4.9375 0.796875 L 9.878906 3.066406 L 9.878906 2.25 C 9.878906 2.25 5.0625 0 4.9375 0 "/>
</g>
</svg>
