<?xml version="1.0" encoding="UTF-8" standalone="no"?>
<!-- Created with Inkscape (http://www.inkscape.org/) -->

<svg
   xmlns:dc="http://purl.org/dc/elements/1.1/"
   xmlns:cc="http://creativecommons.org/ns#"
   xmlns:rdf="http://www.w3.org/1999/02/22-rdf-syntax-ns#"
   xmlns:svg="http://www.w3.org/2000/svg"
   xmlns="http://www.w3.org/2000/svg"
   xmlns:xlink="http://www.w3.org/1999/xlink"
   xmlns:sodipodi="http://sodipodi.sourceforge.net/DTD/sodipodi-0.dtd"
   xmlns:inkscape="http://www.inkscape.org/namespaces/inkscape"
   width="30px"
   height="30px"
   version="1.1"
   id="svg8"
   inkscape:version="0.92.4 5da689c313, 2019-01-14"
   sodipodi:docname="container.svg">
  <defs
     id="defs2" />
  <sodipodi:namedview
     id="base"
     pagecolor="#ffffff"
     bordercolor="#666666"
     borderopacity="1.0"
     inkscape:pageopacity="0.0"
     inkscape:pageshadow="2"
     inkscape:zoom="13.049334"
     inkscape:cx="18.679046"
     inkscape:cy="12.165829"
     inkscape:document-units="px"
     inkscape:current-layer="layer1"
     showgrid="false"
     inkscape:snap-page="false"
     units="px"
     inkscape:window-width="1884"
     inkscape:window-height="1061"
     inkscape:window-x="0"
     inkscape:window-y="0"
     inkscape:window-maximized="1"
     fit-margin-top="0"
     fit-margin-left="0"
     fit-margin-right="0"
     fit-margin-bottom="0" />
  <metadata
     id="metadata5">
    <rdf:RDF>
      <cc:Work
         rdf:about="">
        <dc:format>image/svg+xml</dc:format>
        <dc:type
           rdf:resource="http://purl.org/dc/dcmitype/StillImage" />
        <dc:title></dc:title>
      </cc:Work>
    </rdf:RDF>
  </metadata>
    <circle
       style="color:#000000;clip-rule:nonzero;display:inline;overflow:visible;visibility:visible;opacity:1;isolation:auto;mix-blend-mode:normal;color-interpolation:sRGB;color-interpolation-filters:linearRGB;solid-color:#000000;solid-opacity:1;vector-effect:none;fill:#ffffff;fill-opacity:1;fill-rule:evenodd;stroke:rgba(255, 255, 255, 1);stroke-width:1;stroke-linecap:butt;stroke-linejoin:miter;stroke-miterlimit:4;stroke-dasharray:none;stroke-dashoffset:0;stroke-opacity:1;marker:none;color-rendering:auto;image-rendering:auto;shape-rendering:auto;text-rendering:auto;enable-background:accumulate"
       id="path815"
       cx="15"
       cy="15"
       r="14.5" />
<g transform="translate(6,7)"><g id="surface1">
<path style=" stroke:none;fill-rule:nonzero;fill:rgb(30%,30%,30%);fill-opacity:1;" d="M 5.769531 7.332031 C 5.765625 7.332031 5.761719 7.328125 5.757812 7.328125 L 5.714844 7.328125 C 5.710938 7.328125 5.707031 7.328125 5.707031 7.328125 L 5.679688 7.320312 C 5.679688 7.320312 5.675781 7.320312 5.675781 7.316406 L 5.621094 7.289062 C 5.617188 7.285156 5.613281 7.285156 5.613281 7.28125 L 5.597656 7.261719 L 5.558594 7.226562 L 5.433594 7.148438 L 5.417969 7.144531 L 5.359375 7.160156 C 5.351562 7.164062 5.347656 7.160156 5.339844 7.160156 L 5.292969 7.132812 C 5.285156 7.128906 5.28125 7.125 5.28125 7.117188 L 5.269531 7.074219 L 5.246094 7.039062 C 5.242188 7.039062 5.242188 7.035156 5.242188 7.03125 L 5.234375 7.007812 C 5.234375 6.996094 5.238281 6.988281 5.246094 6.980469 L 5.25 6.976562 C 5.257812 6.972656 5.265625 6.96875 5.269531 6.972656 L 5.296875 6.976562 L 5.320312 6.964844 L 5.34375 6.949219 C 5.347656 6.945312 5.355469 6.945312 5.363281 6.945312 L 5.390625 6.949219 C 5.394531 6.953125 5.398438 6.953125 5.402344 6.960938 L 5.425781 6.988281 C 5.429688 6.992188 5.429688 6.992188 5.429688 6.996094 L 5.4375 7.023438 C 5.441406 7.027344 5.441406 7.03125 5.441406 7.03125 L 5.445312 7.03125 C 5.449219 7.03125 5.449219 7.03125 5.453125 7.03125 L 5.53125 7.035156 C 5.539062 7.035156 5.542969 7.039062 5.550781 7.046875 C 5.554688 7.054688 5.554688 7.0625 5.550781 7.070312 L 5.539062 7.09375 C 5.539062 7.097656 5.539062 7.101562 5.535156 7.101562 L 5.554688 7.105469 L 5.617188 7.101562 C 5.621094 7.101562 5.628906 7.101562 5.632812 7.105469 L 5.671875 7.125 C 5.675781 7.128906 5.675781 7.128906 5.679688 7.128906 L 5.707031 7.160156 L 5.722656 7.15625 C 5.726562 7.15625 5.734375 7.15625 5.738281 7.15625 L 5.753906 7.164062 C 5.761719 7.164062 5.765625 7.171875 5.765625 7.175781 L 5.785156 7.214844 C 5.785156 7.21875 5.789062 7.21875 5.789062 7.21875 L 5.792969 7.234375 L 5.8125 7.234375 C 5.820312 7.234375 5.828125 7.242188 5.832031 7.25 C 5.835938 7.257812 5.835938 7.269531 5.828125 7.277344 L 5.785156 7.324219 C 5.78125 7.328125 5.773438 7.332031 5.769531 7.332031 Z M 5.441406 7.101562 L 5.445312 7.101562 C 5.449219 7.105469 5.449219 7.105469 5.453125 7.105469 C 5.453125 7.101562 5.457031 7.101562 5.453125 7.097656 C 5.453125 7.097656 5.453125 7.09375 5.449219 7.09375 C 5.449219 7.097656 5.445312 7.097656 5.445312 7.101562 Z M 5.382812 7.074219 L 5.386719 7.078125 L 5.398438 7.070312 C 5.394531 7.070312 5.390625 7.070312 5.390625 7.070312 C 5.386719 7.070312 5.386719 7.070312 5.382812 7.074219 Z M 5.933594 7.707031 C 5.941406 7.707031 5.945312 7.703125 5.949219 7.699219 L 5.960938 7.683594 C 5.960938 7.683594 5.964844 7.683594 5.964844 7.683594 L 5.96875 7.683594 C 5.976562 7.683594 5.984375 7.679688 5.988281 7.675781 C 5.996094 7.667969 5.996094 7.660156 5.992188 7.652344 L 5.992188 7.644531 C 5.988281 7.636719 5.988281 7.632812 5.980469 7.628906 L 5.964844 7.621094 C 5.960938 7.617188 5.957031 7.617188 5.949219 7.617188 L 5.9375 7.617188 C 5.925781 7.621094 5.917969 7.625 5.914062 7.632812 L 5.90625 7.664062 C 5.902344 7.667969 5.902344 7.671875 5.902344 7.675781 L 5.902344 7.683594 C 5.90625 7.691406 5.90625 7.695312 5.914062 7.699219 L 5.917969 7.703125 C 5.921875 7.707031 5.925781 7.707031 5.933594 7.707031 Z M 5.78125 8.253906 C 5.777344 8.253906 5.773438 8.253906 5.769531 8.25 L 5.753906 8.242188 C 5.75 8.238281 5.746094 8.234375 5.742188 8.230469 L 5.738281 8.210938 C 5.734375 8.207031 5.734375 8.207031 5.734375 8.203125 L 5.730469 8.109375 L 5.722656 8.054688 L 5.710938 8.023438 L 5.675781 7.980469 L 5.667969 7.976562 C 5.664062 7.976562 5.664062 7.976562 5.660156 7.972656 L 5.585938 7.914062 C 5.585938 7.914062 5.585938 7.910156 5.585938 7.910156 L 5.507812 7.816406 C 5.503906 7.8125 5.503906 7.804688 5.503906 7.796875 L 5.503906 7.773438 L 5.492188 7.742188 C 5.492188 7.738281 5.492188 7.734375 5.492188 7.726562 L 5.507812 7.683594 L 5.488281 7.628906 C 5.488281 7.628906 5.488281 7.625 5.488281 7.625 L 5.476562 7.550781 C 5.476562 7.542969 5.480469 7.535156 5.484375 7.527344 C 5.492188 7.523438 5.5 7.523438 5.507812 7.523438 L 5.578125 7.550781 C 5.585938 7.550781 5.59375 7.558594 5.59375 7.570312 L 5.597656 7.585938 L 5.613281 7.597656 C 5.613281 7.597656 5.613281 7.597656 5.613281 7.601562 L 5.671875 7.660156 C 5.675781 7.664062 5.675781 7.664062 5.675781 7.667969 L 5.6875 7.683594 L 5.707031 7.695312 L 5.796875 7.699219 C 5.804688 7.699219 5.808594 7.703125 5.8125 7.707031 L 5.832031 7.730469 C 5.832031 7.734375 5.835938 7.738281 5.835938 7.746094 L 5.835938 7.777344 C 5.84375 7.789062 5.839844 7.800781 5.832031 7.808594 L 5.824219 7.8125 L 5.839844 7.839844 C 5.839844 7.84375 5.84375 7.847656 5.84375 7.851562 L 5.839844 7.878906 C 5.839844 7.882812 5.839844 7.886719 5.835938 7.890625 L 5.835938 7.894531 L 5.855469 7.933594 L 5.875 7.949219 C 5.875 7.953125 5.875 7.953125 5.878906 7.957031 L 5.902344 7.996094 C 5.90625 8.003906 5.90625 8.011719 5.902344 8.019531 L 5.863281 8.101562 L 5.875 8.148438 C 5.878906 8.15625 5.875 8.167969 5.871094 8.171875 L 5.800781 8.246094 C 5.792969 8.25 5.789062 8.253906 5.78125 8.253906 Z M 6.414062 16.269531 C 6.414062 16.269531 6.410156 16.269531 6.410156 16.269531 L 6.382812 16.265625 C 6.375 16.261719 6.367188 16.253906 6.367188 16.242188 L 6.363281 16.21875 C 6.363281 16.210938 6.363281 16.207031 6.367188 16.203125 L 6.367188 16.199219 L 6.355469 16.203125 C 6.347656 16.203125 6.34375 16.203125 6.339844 16.199219 L 6.324219 16.191406 C 6.316406 16.1875 6.308594 16.179688 6.308594 16.167969 L 6.3125 16.121094 L 6.285156 16.101562 C 6.285156 16.097656 6.28125 16.097656 6.28125 16.09375 L 6.257812 16.0625 L 6.230469 16.046875 C 6.222656 16.042969 6.21875 16.039062 6.21875 16.035156 L 6.207031 16.007812 L 6.191406 15.988281 L 6.171875 15.992188 C 6.164062 15.992188 6.15625 15.992188 6.152344 15.988281 L 6.117188 15.964844 C 6.113281 15.960938 6.113281 15.960938 6.109375 15.957031 L 6.09375 15.9375 C 6.089844 15.933594 6.089844 15.929688 6.085938 15.925781 L 6.078125 15.882812 C 6.078125 15.875 6.078125 15.867188 6.085938 15.863281 L 6.09375 15.855469 L 6.089844 15.84375 C 6.085938 15.839844 6.085938 15.835938 6.089844 15.832031 L 6.089844 15.804688 L 6.085938 15.804688 C 6.082031 15.800781 6.078125 15.796875 6.078125 15.792969 L 6.0625 15.753906 L 6.054688 15.753906 L 6.03125 15.757812 L 5.976562 15.785156 C 5.972656 15.789062 5.96875 15.789062 5.960938 15.789062 L 5.917969 15.78125 L 5.867188 15.78125 C 5.863281 15.78125 5.859375 15.78125 5.859375 15.78125 L 5.828125 15.769531 L 5.804688 15.765625 C 5.796875 15.765625 5.789062 15.757812 5.785156 15.75 L 5.773438 15.761719 C 5.765625 15.765625 5.761719 15.765625 5.753906 15.765625 L 5.710938 15.757812 C 5.707031 15.757812 5.703125 15.757812 5.703125 15.757812 L 5.660156 15.738281 C 5.660156 15.734375 5.65625 15.734375 5.65625 15.734375 L 5.609375 15.691406 C 5.605469 15.691406 5.601562 15.6875 5.601562 15.683594 L 5.585938 15.652344 L 5.480469 15.628906 C 5.480469 15.628906 5.476562 15.628906 5.472656 15.625 L 5.453125 15.609375 C 5.445312 15.605469 5.441406 15.597656 5.441406 15.589844 L 5.4375 15.585938 C 5.433594 15.585938 5.429688 15.585938 5.425781 15.582031 L 5.414062 15.570312 L 5.375 15.589844 C 5.363281 15.597656 5.347656 15.59375 5.34375 15.582031 L 5.335938 15.566406 C 5.332031 15.5625 5.332031 15.558594 5.332031 15.554688 L 5.332031 15.539062 L 5.308594 15.523438 C 5.304688 15.523438 5.304688 15.523438 5.300781 15.523438 L 5.285156 15.523438 C 5.277344 15.519531 5.273438 15.519531 5.269531 15.515625 L 5.222656 15.46875 L 5.207031 15.464844 L 5.183594 15.484375 C 5.175781 15.488281 5.171875 15.492188 5.164062 15.492188 L 5.136719 15.484375 C 5.128906 15.484375 5.125 15.480469 5.121094 15.472656 L 5.105469 15.445312 L 5.046875 15.402344 C 5.035156 15.398438 5.03125 15.386719 5.035156 15.375 L 5.0625 15.316406 C 5.0625 15.316406 5.066406 15.3125 5.066406 15.3125 L 5.078125 15.296875 L 5.050781 15.300781 L 5.039062 15.304688 L 5.019531 15.328125 L 5.023438 15.355469 C 5.023438 15.359375 5.023438 15.359375 5.023438 15.363281 L 5.011719 15.425781 C 5.011719 15.425781 5.011719 15.425781 5.011719 15.429688 L 4.992188 15.488281 C 4.988281 15.496094 4.984375 15.5 4.980469 15.503906 L 4.972656 15.507812 C 4.964844 15.511719 4.957031 15.511719 4.953125 15.507812 L 4.933594 15.503906 L 4.800781 15.453125 C 4.792969 15.449219 4.789062 15.445312 4.785156 15.441406 L 4.757812 15.394531 L 4.734375 15.34375 C 4.730469 15.34375 4.730469 15.339844 4.730469 15.335938 L 4.730469 15.316406 C 4.730469 15.3125 4.734375 15.304688 4.734375 15.300781 L 4.753906 15.28125 C 4.753906 15.277344 4.757812 15.277344 4.757812 15.273438 L 4.824219 15.230469 C 4.824219 15.226562 4.828125 15.21875 4.832031 15.214844 L 4.847656 15.207031 L 4.855469 15.1875 L 4.855469 15.167969 C 4.851562 15.160156 4.855469 15.152344 4.859375 15.148438 L 4.875 15.136719 C 4.875 15.132812 4.875 15.132812 4.878906 15.132812 L 4.886719 15.085938 C 4.886719 15.078125 4.890625 15.074219 4.894531 15.070312 L 4.917969 15.058594 L 4.925781 14.980469 C 4.925781 14.976562 4.925781 14.972656 4.929688 14.96875 L 4.9375 14.960938 L 4.9375 14.953125 L 4.933594 14.917969 L 4.902344 14.875 L 4.882812 14.882812 C 4.878906 14.886719 4.875 14.886719 4.867188 14.886719 L 4.835938 14.878906 C 4.835938 14.878906 4.832031 14.878906 4.832031 14.878906 L 4.789062 14.863281 C 4.789062 14.859375 4.785156 14.859375 4.785156 14.859375 L 4.761719 14.839844 L 4.75 14.835938 C 4.742188 14.835938 4.738281 14.832031 4.734375 14.828125 L 4.71875 14.804688 L 4.691406 14.804688 L 4.652344 14.808594 L 4.652344 14.820312 C 4.652344 14.824219 4.652344 14.832031 4.648438 14.832031 L 4.621094 14.890625 C 4.613281 14.898438 4.605469 14.902344 4.597656 14.902344 L 4.53125 14.894531 C 4.53125 14.894531 4.527344 14.894531 4.523438 14.890625 L 4.515625 14.886719 C 4.511719 14.886719 4.511719 14.882812 4.507812 14.878906 L 4.492188 14.859375 C 4.492188 14.855469 4.488281 14.851562 4.488281 14.851562 L 4.476562 14.796875 C 4.476562 14.792969 4.476562 14.789062 4.476562 14.785156 L 4.488281 14.75 L 4.480469 14.75 C 4.472656 14.753906 4.464844 14.75 4.460938 14.746094 L 4.445312 14.734375 L 4.433594 14.730469 L 4.40625 14.738281 C 4.398438 14.742188 4.390625 14.738281 4.386719 14.738281 L 4.378906 14.734375 L 4.363281 14.75 C 4.359375 14.753906 4.355469 14.753906 4.347656 14.753906 L 4.316406 14.757812 C 4.304688 14.761719 4.292969 14.753906 4.289062 14.742188 L 4.277344 14.699219 C 4.273438 14.695312 4.273438 14.691406 4.273438 14.6875 L 4.277344 14.667969 L 4.269531 14.664062 C 4.261719 14.660156 4.257812 14.652344 4.257812 14.644531 L 4.257812 14.640625 L 4.25 14.640625 C 4.242188 14.640625 4.234375 14.640625 4.230469 14.636719 L 4.203125 14.613281 C 4.199219 14.609375 4.195312 14.601562 4.195312 14.597656 C 4.195312 14.589844 4.195312 14.582031 4.203125 14.578125 L 4.21875 14.558594 L 4.214844 14.554688 C 4.210938 14.550781 4.210938 14.542969 4.214844 14.535156 C 4.214844 14.527344 4.222656 14.523438 4.226562 14.519531 L 4.257812 14.507812 L 4.273438 14.492188 C 4.277344 14.488281 4.289062 14.484375 4.296875 14.488281 L 4.324219 14.496094 L 4.40625 14.46875 C 4.417969 14.472656 4.433594 14.46875 4.441406 14.457031 L 4.484375 14.449219 L 4.527344 14.414062 L 4.535156 14.40625 C 4.539062 14.402344 4.546875 14.398438 4.550781 14.398438 L 4.554688 14.398438 L 4.613281 14.320312 L 4.625 14.296875 L 4.628906 14.285156 C 4.628906 14.277344 4.632812 14.269531 4.636719 14.265625 L 4.671875 14.242188 L 4.726562 14.15625 L 4.792969 14.050781 L 4.851562 13.953125 L 4.890625 13.878906 L 4.914062 13.773438 L 4.953125 13.625 L 4.984375 13.511719 L 4.992188 13.480469 L 5.023438 13.378906 C 5.023438 13.378906 5.023438 13.378906 5.023438 13.375 L 5.046875 13.328125 L 5.0625 13.257812 L 5.148438 12.957031 L 5.214844 12.730469 L 5.242188 12.632812 L 5.363281 12.097656 L 5.433594 11.757812 L 5.445312 11.660156 L 5.4375 11.5625 C 5.4375 11.554688 5.4375 11.546875 5.441406 11.542969 L 5.496094 11.484375 L 5.539062 11.414062 L 5.554688 11.375 L 5.558594 11.316406 C 5.5625 11.3125 5.5625 11.308594 5.5625 11.308594 L 5.585938 11.257812 C 5.589844 11.253906 5.589844 11.25 5.59375 11.246094 L 5.609375 11.238281 C 5.613281 11.234375 5.617188 11.234375 5.625 11.234375 L 5.660156 11.234375 C 5.664062 11.234375 5.664062 11.234375 5.667969 11.234375 L 5.703125 11.246094 C 5.710938 11.246094 5.714844 11.253906 5.71875 11.261719 L 5.726562 11.28125 L 5.738281 11.285156 C 5.738281 11.285156 5.738281 11.285156 5.742188 11.285156 L 5.75 11.285156 C 5.753906 11.289062 5.757812 11.289062 5.757812 11.292969 C 5.761719 11.292969 5.761719 11.292969 5.765625 11.292969 L 5.8125 11.304688 L 5.875 11.292969 C 5.886719 11.285156 5.898438 11.285156 5.90625 11.289062 L 5.921875 11.300781 C 5.921875 11.300781 5.921875 11.300781 5.925781 11.300781 L 5.917969 11.292969 C 5.914062 11.285156 5.914062 11.277344 5.914062 11.273438 L 5.914062 11.269531 L 5.910156 11.261719 L 5.871094 11.242188 C 5.867188 11.242188 5.863281 11.238281 5.863281 11.234375 L 5.839844 11.207031 C 5.835938 11.203125 5.832031 11.191406 5.835938 11.183594 C 5.839844 11.175781 5.84375 11.171875 5.851562 11.167969 L 5.820312 11.132812 L 5.785156 11.085938 L 5.757812 11.070312 C 5.753906 11.070312 5.75 11.0625 5.746094 11.058594 L 5.746094 11.054688 C 5.742188 11.054688 5.738281 11.050781 5.734375 11.050781 L 5.695312 11.011719 C 5.695312 11.011719 5.691406 11.007812 5.691406 11.007812 L 5.6875 11.003906 L 5.6875 11.019531 C 5.691406 11.027344 5.6875 11.03125 5.6875 11.035156 L 5.679688 11.050781 C 5.679688 11.054688 5.675781 11.058594 5.675781 11.058594 L 5.589844 11.144531 L 5.570312 11.171875 L 5.550781 11.21875 L 5.535156 11.292969 L 5.539062 11.304688 C 5.539062 11.308594 5.539062 11.3125 5.539062 11.316406 L 5.527344 11.351562 C 5.527344 11.359375 5.523438 11.363281 5.519531 11.367188 L 5.507812 11.378906 C 5.5 11.382812 5.488281 11.386719 5.480469 11.378906 L 5.472656 11.375 C 5.464844 11.371094 5.460938 11.367188 5.460938 11.363281 L 5.453125 11.335938 C 5.453125 11.332031 5.453125 11.328125 5.453125 11.324219 L 5.460938 11.257812 L 5.542969 10.859375 L 5.601562 10.566406 L 5.671875 10.179688 L 5.695312 10.023438 L 5.773438 9.613281 L 5.796875 9.429688 L 5.804688 9.296875 C 5.804688 9.296875 5.804688 9.296875 5.804688 9.292969 L 5.832031 9.199219 L 5.828125 9.136719 C 5.828125 9.136719 5.828125 9.136719 5.828125 9.132812 L 5.832031 9.097656 C 5.832031 9.09375 5.835938 9.09375 5.835938 9.089844 L 5.875 9.015625 C 5.875 9.015625 5.875 9.011719 5.878906 9.011719 L 5.917969 8.972656 L 5.949219 8.933594 L 5.972656 8.882812 C 5.972656 8.878906 5.980469 8.871094 5.988281 8.871094 L 6.023438 8.859375 L 6.039062 8.851562 C 6.050781 8.847656 6.058594 8.847656 6.066406 8.855469 C 6.074219 8.859375 6.078125 8.871094 6.074219 8.878906 L 6.066406 8.910156 L 6.074219 8.921875 L 6.089844 8.925781 C 6.09375 8.929688 6.097656 8.9375 6.101562 8.945312 L 6.109375 8.972656 C 6.109375 8.980469 6.109375 8.988281 6.105469 8.996094 L 6.097656 9.003906 C 6.09375 9.011719 6.085938 9.011719 6.078125 9.011719 C 6.078125 9.015625 6.078125 9.015625 6.078125 9.015625 C 6.070312 9.019531 6.0625 9.023438 6.050781 9.019531 L 6.078125 9.046875 L 6.109375 9.070312 C 6.113281 9.070312 6.113281 9.074219 6.117188 9.078125 L 6.132812 9.105469 L 6.195312 9.167969 L 6.277344 9.222656 C 6.28125 9.226562 6.28125 9.230469 6.285156 9.234375 L 6.328125 9.316406 L 6.367188 9.339844 C 6.371094 9.34375 6.371094 9.34375 6.371094 9.34375 L 6.433594 9.410156 L 6.46875 9.449219 C 6.472656 9.453125 6.472656 9.453125 6.472656 9.453125 L 6.492188 9.488281 L 6.503906 9.5 C 6.503906 9.503906 6.507812 9.503906 6.507812 9.507812 L 6.5625 9.671875 C 6.5625 9.675781 6.5625 9.675781 6.5625 9.675781 L 6.585938 9.804688 L 6.648438 9.796875 L 6.644531 9.691406 L 6.621094 9.585938 C 6.621094 9.582031 6.621094 9.582031 6.621094 9.578125 C 6.621094 9.574219 6.621094 9.570312 6.621094 9.570312 L 6.609375 9.488281 C 6.609375 9.488281 6.609375 9.484375 6.609375 9.484375 L 6.585938 9.367188 L 6.574219 9.316406 L 6.546875 9.253906 L 6.535156 9.25 C 6.535156 9.246094 6.53125 9.242188 6.53125 9.242188 L 6.515625 9.214844 C 6.511719 9.210938 6.511719 9.210938 6.511719 9.210938 L 6.503906 9.191406 C 6.496094 9.191406 6.488281 9.1875 6.484375 9.179688 L 6.472656 9.160156 L 6.453125 9.140625 C 6.445312 9.132812 6.445312 9.121094 6.453125 9.113281 L 6.410156 9.070312 L 6.375 9.054688 C 6.371094 9.050781 6.367188 9.046875 6.363281 9.042969 L 6.355469 9.027344 C 6.347656 9.03125 6.339844 9.03125 6.332031 9.023438 L 6.308594 9.003906 C 6.300781 8.996094 6.300781 8.984375 6.304688 8.972656 L 6.292969 8.957031 L 6.285156 8.949219 L 6.28125 8.949219 L 6.273438 8.953125 C 6.269531 8.957031 6.261719 8.960938 6.253906 8.957031 L 6.234375 8.949219 C 6.234375 8.949219 6.230469 8.945312 6.226562 8.945312 L 6.203125 8.917969 C 6.199219 8.917969 6.199219 8.914062 6.199219 8.914062 L 6.183594 8.886719 C 6.175781 8.886719 6.167969 8.878906 6.164062 8.871094 L 6.164062 8.859375 C 6.164062 8.859375 6.160156 8.855469 6.164062 8.851562 L 6.164062 8.824219 L 6.148438 8.824219 C 6.140625 8.824219 6.132812 8.816406 6.132812 8.808594 L 6.125 8.800781 C 6.125 8.796875 6.125 8.789062 6.125 8.785156 L 6.128906 8.769531 L 6.125 8.765625 L 6.105469 8.769531 C 6.101562 8.769531 6.09375 8.769531 6.089844 8.765625 L 6.074219 8.753906 C 6.066406 8.75 6.0625 8.742188 6.050781 8.738281 L 6.027344 8.710938 C 6.023438 8.710938 6.019531 8.710938 6.015625 8.710938 L 5.960938 8.679688 C 5.960938 8.679688 5.957031 8.675781 5.957031 8.675781 L 5.894531 8.617188 L 5.832031 8.570312 C 5.835938 8.578125 5.835938 8.585938 5.832031 8.589844 C 5.828125 8.597656 5.820312 8.601562 5.8125 8.601562 L 5.78125 8.605469 C 5.773438 8.605469 5.761719 8.601562 5.757812 8.59375 L 5.742188 8.566406 C 5.738281 8.566406 5.738281 8.5625 5.738281 8.558594 L 5.730469 8.523438 C 5.730469 8.519531 5.730469 8.519531 5.730469 8.515625 L 5.730469 8.324219 L 5.738281 8.265625 C 5.738281 8.257812 5.746094 8.253906 5.75 8.25 L 5.765625 8.238281 C 5.769531 8.238281 5.773438 8.234375 5.777344 8.234375 L 5.824219 8.230469 C 5.828125 8.230469 5.832031 8.230469 5.832031 8.230469 L 5.859375 8.238281 L 5.914062 8.214844 C 5.921875 8.210938 5.929688 8.214844 5.933594 8.21875 L 5.945312 8.222656 L 5.9375 8.195312 L 5.925781 8.179688 C 5.921875 8.175781 5.917969 8.171875 5.917969 8.164062 L 5.917969 8.148438 L 5.917969 8.152344 C 5.90625 8.152344 5.894531 8.144531 5.890625 8.132812 L 5.882812 8.097656 C 5.878906 8.089844 5.882812 8.078125 5.890625 8.074219 C 5.898438 8.066406 5.90625 8.066406 5.914062 8.070312 L 5.917969 8.070312 C 5.917969 8.0625 5.921875 8.058594 5.929688 8.054688 C 5.933594 8.050781 5.941406 8.050781 5.949219 8.050781 L 5.996094 8.066406 L 6.011719 8.054688 L 6.023438 8.035156 L 6.023438 8.03125 C 6.023438 8.027344 6.027344 8.019531 6.03125 8.015625 L 6.0625 7.976562 L 6.078125 7.949219 L 6.078125 7.902344 L 6.046875 7.882812 C 6.042969 7.878906 6.039062 7.871094 6.039062 7.863281 C 6.039062 7.855469 6.042969 7.847656 6.050781 7.84375 L 6.066406 7.835938 C 6.070312 7.832031 6.074219 7.832031 6.078125 7.832031 C 6.078125 7.828125 6.078125 7.828125 6.078125 7.824219 L 6.070312 7.785156 L 6.015625 7.726562 C 6.011719 7.71875 6.007812 7.710938 6.011719 7.703125 C 6.011719 7.699219 6.015625 7.691406 6.023438 7.6875 L 6.035156 7.683594 C 6.042969 7.679688 6.054688 7.679688 6.0625 7.683594 L 6.09375 7.710938 L 6.128906 7.710938 L 6.136719 7.703125 L 6.136719 7.699219 L 6.125 7.667969 C 6.125 7.664062 6.125 7.65625 6.128906 7.652344 L 6.132812 7.632812 L 6.128906 7.613281 L 6.117188 7.605469 L 6.105469 7.601562 C 6.105469 7.601562 6.101562 7.601562 6.097656 7.597656 L 6.089844 7.59375 C 6.082031 7.589844 6.078125 7.582031 6.078125 7.574219 L 6.074219 7.511719 L 6.0625 7.476562 L 6.054688 7.464844 L 6.015625 7.453125 C 6.011719 7.453125 6.003906 7.449219 6.003906 7.445312 L 5.996094 7.4375 C 5.992188 7.429688 5.992188 7.421875 5.996094 7.414062 C 5.996094 7.410156 6.003906 7.402344 6.007812 7.402344 L 6.019531 7.398438 L 6.011719 7.394531 C 6.003906 7.394531 5.996094 7.386719 5.992188 7.378906 L 5.988281 7.367188 L 5.980469 7.363281 L 5.960938 7.359375 C 5.949219 7.355469 5.941406 7.34375 5.945312 7.332031 L 5.945312 7.324219 L 5.910156 7.332031 C 5.90625 7.332031 5.902344 7.332031 5.898438 7.332031 L 5.890625 7.332031 C 5.886719 7.332031 5.886719 7.332031 5.886719 7.328125 L 5.859375 7.320312 C 5.859375 7.320312 5.855469 7.320312 5.855469 7.316406 L 5.847656 7.3125 C 5.84375 7.3125 5.84375 7.3125 5.84375 7.308594 L 5.828125 7.296875 C 5.828125 7.292969 5.824219 7.289062 5.824219 7.289062 L 5.820312 7.277344 C 5.816406 7.273438 5.816406 7.269531 5.820312 7.261719 L 5.820312 7.253906 C 5.824219 7.25 5.828125 7.246094 5.832031 7.242188 L 5.839844 7.234375 C 5.839844 7.234375 5.84375 7.234375 5.847656 7.234375 L 5.863281 7.230469 L 5.871094 7.203125 C 5.875 7.199219 5.878906 7.191406 5.886719 7.191406 L 5.894531 7.1875 L 5.898438 7.183594 L 5.898438 7.175781 C 5.890625 7.167969 5.890625 7.15625 5.894531 7.144531 L 5.910156 7.121094 C 5.910156 7.117188 5.914062 7.117188 5.917969 7.113281 L 5.972656 7.089844 L 6.015625 7.050781 L 6.03125 7.023438 C 6.035156 7.015625 6.039062 7.011719 6.046875 7.011719 L 6.078125 7 L 6.070312 6.925781 L 6.058594 6.898438 C 6.054688 6.890625 6.058594 6.878906 6.0625 6.875 L 6.070312 6.867188 L 6.074219 6.851562 C 6.078125 6.839844 6.085938 6.832031 6.097656 6.832031 L 6.105469 6.832031 C 6.117188 6.832031 6.125 6.839844 6.128906 6.851562 L 6.128906 6.855469 L 6.144531 6.859375 L 6.152344 6.855469 C 6.152344 6.851562 6.15625 6.847656 6.160156 6.847656 L 6.171875 6.835938 L 6.210938 6.78125 C 6.214844 6.773438 6.222656 6.769531 6.230469 6.769531 C 6.238281 6.769531 6.246094 6.773438 6.25 6.78125 L 6.289062 6.765625 C 6.292969 6.765625 6.296875 6.765625 6.300781 6.765625 L 6.363281 6.773438 L 6.378906 6.75 C 6.382812 6.742188 6.398438 6.738281 6.410156 6.742188 L 6.421875 6.75 L 6.457031 6.734375 C 6.46875 6.726562 6.480469 6.730469 6.484375 6.738281 C 6.492188 6.746094 6.496094 6.757812 6.488281 6.765625 L 6.476562 6.792969 L 6.457031 6.84375 C 6.457031 6.847656 6.457031 6.847656 6.453125 6.851562 L 6.433594 6.875 L 6.449219 6.886719 L 6.476562 6.882812 C 6.484375 6.882812 6.488281 6.882812 6.496094 6.886719 L 6.503906 6.882812 L 6.515625 6.867188 C 6.523438 6.855469 6.535156 6.851562 6.546875 6.859375 L 6.558594 6.863281 C 6.566406 6.855469 6.578125 6.855469 6.585938 6.859375 L 6.605469 6.835938 C 6.605469 6.832031 6.613281 6.828125 6.617188 6.828125 L 6.636719 6.824219 C 6.644531 6.820312 6.65625 6.824219 6.660156 6.832031 L 6.664062 6.835938 L 6.695312 6.828125 C 6.703125 6.828125 6.710938 6.828125 6.714844 6.832031 C 6.71875 6.835938 6.722656 6.839844 6.726562 6.847656 L 6.726562 6.855469 C 6.726562 6.863281 6.726562 6.871094 6.71875 6.878906 L 6.75 6.894531 C 6.753906 6.898438 6.757812 6.902344 6.761719 6.902344 L 6.765625 6.910156 L 6.773438 6.914062 C 6.777344 6.914062 6.785156 6.917969 6.789062 6.921875 L 6.796875 6.9375 L 6.816406 6.941406 C 6.816406 6.9375 6.816406 6.933594 6.820312 6.929688 L 6.832031 6.914062 C 6.835938 6.910156 6.839844 6.90625 6.847656 6.90625 L 6.855469 6.90625 L 6.871094 6.890625 C 6.878906 6.886719 6.890625 6.882812 6.898438 6.890625 L 6.9375 6.914062 L 6.964844 6.914062 L 6.972656 6.910156 L 6.976562 6.910156 L 6.976562 6.890625 C 6.976562 6.882812 6.984375 6.875 6.992188 6.871094 L 7.023438 6.859375 L 7.039062 6.851562 L 7.046875 6.820312 C 7.050781 6.808594 7.0625 6.804688 7.078125 6.808594 L 7.113281 6.820312 L 7.136719 6.8125 L 7.164062 6.769531 L 7.136719 6.765625 C 7.125 6.761719 7.121094 6.753906 7.117188 6.746094 L 7.117188 6.742188 L 7.109375 6.742188 C 7.105469 6.738281 7.105469 6.738281 7.101562 6.734375 L 7.078125 6.714844 L 7.066406 6.753906 C 7.0625 6.757812 7.058594 6.765625 7.050781 6.765625 C 7.042969 6.769531 7.035156 6.769531 7.03125 6.765625 L 7 6.746094 C 6.992188 6.742188 6.988281 6.734375 6.988281 6.730469 C 6.988281 6.722656 6.988281 6.714844 6.992188 6.710938 L 7 6.703125 L 6.992188 6.695312 C 6.988281 6.691406 6.988281 6.683594 6.988281 6.675781 L 6.996094 6.625 C 7 6.617188 7.003906 6.609375 7.011719 6.605469 L 7.035156 6.59375 L 7.042969 6.570312 C 7.042969 6.566406 7.042969 6.566406 7.046875 6.5625 L 7.042969 6.558594 C 7.042969 6.558594 7.042969 6.554688 7.042969 6.550781 L 7.042969 6.53125 L 7.027344 6.515625 C 7.023438 6.511719 7.019531 6.503906 7.023438 6.496094 L 7.03125 6.460938 L 7.023438 6.449219 L 7.007812 6.429688 C 7 6.425781 6.996094 6.414062 7.003906 6.402344 L 7.007812 6.390625 L 7.007812 6.386719 C 7.003906 6.378906 7.003906 6.371094 7.007812 6.367188 C 7.011719 6.359375 7.015625 6.355469 7.023438 6.355469 L 7.050781 6.347656 C 7.054688 6.347656 7.054688 6.347656 7.058594 6.347656 L 7.082031 6.347656 L 7.082031 6.335938 L 7.078125 6.304688 C 7.070312 6.304688 7.0625 6.296875 7.058594 6.285156 L 7.050781 6.242188 C 7.046875 6.234375 7.050781 6.226562 7.054688 6.222656 L 7.066406 6.207031 C 7.0625 6.203125 7.0625 6.195312 7.066406 6.1875 L 7.058594 6.175781 C 7.050781 6.167969 7.046875 6.15625 7.054688 6.148438 L 7.074219 6.125 L 7.054688 6.097656 L 7.050781 6.097656 L 7.03125 6.101562 C 7.023438 6.105469 7.019531 6.105469 7.011719 6.101562 C 7.003906 6.097656 7 6.089844 7 6.082031 L 7 6.066406 C 7 6.058594 7 6.050781 7.007812 6.042969 L 7.019531 6.035156 L 7.023438 6.015625 C 7.023438 6.011719 7.027344 6.003906 7.03125 6 L 7.015625 5.980469 L 6.980469 5.953125 C 6.972656 5.949219 6.972656 5.941406 6.972656 5.933594 C 6.972656 5.925781 6.976562 5.917969 6.980469 5.914062 L 7.011719 5.894531 L 6.992188 5.855469 L 6.988281 5.851562 C 6.976562 5.851562 6.96875 5.847656 6.964844 5.839844 L 6.949219 5.808594 C 6.945312 5.804688 6.945312 5.796875 6.945312 5.792969 L 6.949219 5.78125 C 6.945312 5.78125 6.941406 5.78125 6.9375 5.777344 L 6.917969 5.761719 C 6.914062 5.757812 6.910156 5.753906 6.910156 5.75 L 6.898438 5.710938 C 6.898438 5.707031 6.898438 5.707031 6.898438 5.703125 L 6.90625 5.664062 C 6.90625 5.660156 6.90625 5.65625 6.90625 5.65625 L 6.917969 5.640625 L 6.925781 5.609375 C 6.929688 5.605469 6.933594 5.597656 6.9375 5.597656 L 6.949219 5.589844 L 6.949219 5.585938 L 6.925781 5.585938 C 6.917969 5.585938 6.914062 5.582031 6.910156 5.578125 L 6.898438 5.5625 L 6.871094 5.554688 C 6.867188 5.554688 6.863281 5.550781 6.859375 5.546875 L 6.835938 5.523438 L 6.824219 5.515625 C 6.820312 5.515625 6.816406 5.511719 6.8125 5.503906 L 6.804688 5.484375 L 6.796875 5.46875 L 6.761719 5.414062 L 6.738281 5.398438 C 6.730469 5.394531 6.726562 5.386719 6.726562 5.382812 C 6.726562 5.375 6.726562 5.367188 6.730469 5.363281 L 6.753906 5.324219 L 6.753906 5.316406 C 6.757812 5.3125 6.761719 5.304688 6.757812 5.300781 C 6.757812 5.292969 6.753906 5.289062 6.75 5.285156 L 6.742188 5.269531 L 6.710938 5.25 C 6.703125 5.246094 6.699219 5.238281 6.699219 5.234375 L 6.667969 5.226562 C 6.65625 5.226562 6.652344 5.21875 6.648438 5.207031 L 6.648438 5.199219 C 6.644531 5.191406 6.648438 5.179688 6.65625 5.175781 C 6.65625 5.175781 6.652344 5.171875 6.652344 5.171875 L 6.652344 5.167969 L 6.644531 5.167969 C 6.636719 5.167969 6.628906 5.164062 6.625 5.15625 L 6.617188 5.152344 C 6.613281 5.144531 6.613281 5.140625 6.613281 5.132812 C 6.613281 5.125 6.617188 5.121094 6.625 5.117188 L 6.640625 5.101562 C 6.644531 5.097656 6.652344 5.097656 6.65625 5.097656 L 6.671875 5.097656 C 6.675781 5.097656 6.679688 5.097656 6.683594 5.097656 L 6.703125 5.109375 C 6.703125 5.105469 6.703125 5.105469 6.703125 5.105469 L 6.71875 5.085938 C 6.722656 5.078125 6.730469 5.074219 6.738281 5.074219 L 6.757812 5.074219 L 6.777344 5.0625 C 6.78125 5.058594 6.785156 5.058594 6.789062 5.058594 L 6.800781 5.058594 C 6.804688 5.058594 6.808594 5.0625 6.8125 5.0625 L 6.824219 5.058594 L 6.835938 5.039062 C 6.84375 5.03125 6.851562 5.03125 6.859375 5.03125 L 6.886719 5.035156 C 6.894531 5.039062 6.898438 5.042969 6.902344 5.046875 L 6.917969 5.070312 L 6.933594 5.0625 C 6.9375 5.058594 6.945312 5.058594 6.949219 5.058594 L 6.960938 5.0625 C 6.964844 5.0625 6.96875 5.0625 6.96875 5.066406 L 6.988281 5.085938 L 7.003906 5.078125 C 7.011719 5.070312 7.023438 5.070312 7.03125 5.074219 L 7.039062 5.082031 L 7.054688 5.066406 C 7.0625 5.058594 7.074219 5.054688 7.082031 5.0625 L 7.117188 5.078125 L 7.136719 5.074219 C 7.140625 5.074219 7.144531 5.074219 7.152344 5.078125 L 7.167969 5.085938 L 7.191406 5.082031 C 7.195312 5.074219 7.199219 5.070312 7.203125 5.066406 L 7.210938 5.0625 L 7.222656 5.042969 C 7.226562 5.039062 7.230469 5.035156 7.234375 5.035156 L 7.25 5.027344 L 7.257812 5.007812 C 7.261719 5 7.269531 4.996094 7.277344 4.996094 L 7.273438 4.988281 C 7.269531 4.984375 7.269531 4.980469 7.269531 4.972656 L 7.273438 4.945312 C 7.265625 4.941406 7.265625 4.933594 7.265625 4.925781 C 7.269531 4.917969 7.273438 4.914062 7.28125 4.910156 L 7.367188 4.871094 C 7.367188 4.871094 7.371094 4.871094 7.371094 4.871094 L 7.414062 4.859375 C 7.417969 4.859375 7.421875 4.859375 7.425781 4.859375 L 7.476562 4.867188 C 7.484375 4.867188 7.488281 4.871094 7.492188 4.875 C 7.496094 4.878906 7.5 4.886719 7.496094 4.894531 L 7.496094 4.90625 L 7.503906 4.90625 L 7.535156 4.898438 C 7.539062 4.894531 7.546875 4.898438 7.550781 4.898438 L 7.566406 4.910156 L 7.578125 4.871094 C 7.578125 4.863281 7.585938 4.855469 7.59375 4.851562 L 7.609375 4.847656 C 7.617188 4.847656 7.625 4.847656 7.632812 4.851562 C 7.632812 4.851562 7.632812 4.855469 7.636719 4.855469 L 7.667969 4.847656 C 7.675781 4.84375 7.6875 4.84375 7.695312 4.851562 L 7.710938 4.867188 L 7.746094 4.859375 L 7.761719 4.847656 C 7.765625 4.84375 7.769531 4.84375 7.773438 4.84375 L 7.808594 4.835938 C 7.8125 4.832031 7.820312 4.835938 7.828125 4.839844 L 7.835938 4.832031 C 7.839844 4.828125 7.847656 4.828125 7.855469 4.828125 C 7.859375 4.828125 7.867188 4.832031 7.871094 4.839844 L 7.886719 4.832031 C 7.890625 4.832031 7.898438 4.832031 7.90625 4.835938 L 7.953125 4.867188 L 7.964844 4.859375 L 7.972656 4.84375 C 7.980469 4.832031 7.992188 4.828125 8.003906 4.832031 L 8.050781 4.855469 L 8.074219 4.851562 C 8.082031 4.851562 8.085938 4.851562 8.09375 4.855469 C 8.097656 4.863281 8.101562 4.867188 8.101562 4.875 L 8.101562 4.894531 C 8.097656 4.902344 8.097656 4.910156 8.089844 4.914062 L 8.050781 4.941406 L 8.054688 4.941406 L 8.070312 4.949219 C 8.074219 4.949219 8.074219 4.953125 8.078125 4.953125 L 8.089844 4.964844 C 8.09375 4.96875 8.097656 4.976562 8.097656 4.980469 L 8.117188 4.972656 L 8.125 4.929688 C 8.125 4.929688 8.125 4.925781 8.125 4.925781 L 8.132812 4.90625 C 8.132812 4.902344 8.136719 4.898438 8.136719 4.898438 L 8.164062 4.875 C 8.167969 4.867188 8.175781 4.867188 8.183594 4.867188 L 8.210938 4.875 C 8.21875 4.875 8.222656 4.882812 8.226562 4.886719 L 8.226562 4.890625 L 8.25 4.894531 C 8.25 4.890625 8.246094 4.886719 8.246094 4.882812 L 8.246094 4.875 C 8.242188 4.871094 8.242188 4.863281 8.246094 4.859375 L 8.253906 4.835938 L 8.257812 4.820312 C 8.257812 4.816406 8.257812 4.8125 8.261719 4.8125 L 8.308594 4.734375 C 8.308594 4.734375 8.3125 4.730469 8.3125 4.730469 L 8.375 4.679688 C 8.378906 4.675781 8.386719 4.675781 8.394531 4.675781 C 8.398438 4.675781 8.40625 4.679688 8.410156 4.6875 L 8.425781 4.707031 C 8.429688 4.703125 8.441406 4.703125 8.449219 4.707031 L 8.460938 4.714844 C 8.46875 4.714844 8.472656 4.722656 8.472656 4.726562 L 8.488281 4.765625 C 8.492188 4.761719 8.5 4.761719 8.507812 4.769531 C 8.511719 4.773438 8.515625 4.777344 8.515625 4.785156 L 8.519531 4.820312 C 8.519531 4.824219 8.519531 4.828125 8.519531 4.832031 L 8.527344 4.835938 L 8.53125 4.824219 C 8.539062 4.816406 8.546875 4.8125 8.558594 4.816406 L 8.578125 4.820312 C 8.582031 4.820312 8.585938 4.824219 8.589844 4.828125 L 8.59375 4.832031 C 8.605469 4.828125 8.617188 4.832031 8.621094 4.839844 C 8.628906 4.847656 8.632812 4.859375 8.625 4.867188 L 8.617188 4.886719 L 8.628906 4.890625 C 8.628906 4.890625 8.632812 4.890625 8.632812 4.886719 L 8.664062 4.867188 C 8.671875 4.863281 8.679688 4.859375 8.6875 4.863281 C 8.695312 4.867188 8.703125 4.875 8.703125 4.882812 L 8.707031 4.914062 L 8.730469 4.9375 C 8.734375 4.949219 8.734375 4.960938 8.726562 4.972656 L 8.6875 5.007812 C 8.695312 5.007812 8.707031 5.007812 8.710938 5.015625 L 8.722656 5.03125 L 8.742188 5.019531 L 8.746094 5.011719 C 8.75 5.003906 8.757812 5 8.765625 4.996094 L 8.78125 4.992188 C 8.785156 4.992188 8.789062 4.992188 8.792969 4.992188 L 8.828125 5.003906 C 8.839844 5.003906 8.847656 5.015625 8.847656 5.027344 L 8.84375 5.0625 L 8.875 5.050781 C 8.882812 5.042969 8.894531 5.046875 8.902344 5.054688 L 8.917969 5.074219 C 8.925781 5.082031 8.925781 5.089844 8.925781 5.09375 L 8.917969 5.117188 L 8.925781 5.136719 C 8.925781 5.144531 8.921875 5.15625 8.917969 5.160156 L 8.90625 5.167969 L 8.914062 5.210938 L 8.917969 5.214844 C 8.921875 5.226562 8.921875 5.238281 8.910156 5.246094 L 8.898438 5.257812 L 8.902344 5.261719 C 8.910156 5.269531 8.910156 5.285156 8.902344 5.292969 L 8.898438 5.300781 L 8.902344 5.304688 C 8.90625 5.3125 8.90625 5.320312 8.902344 5.328125 L 8.898438 5.34375 L 8.90625 5.375 L 8.914062 5.382812 L 8.925781 5.378906 C 8.925781 5.375 8.929688 5.375 8.933594 5.375 L 8.945312 5.375 L 8.96875 5.351562 C 8.976562 5.34375 8.984375 5.34375 8.996094 5.34375 L 9.039062 5.363281 C 9.039062 5.363281 9.039062 5.363281 9.042969 5.363281 L 9.066406 5.382812 L 9.089844 5.386719 C 9.09375 5.386719 9.097656 5.386719 9.101562 5.390625 L 9.109375 5.394531 L 9.113281 5.390625 C 9.113281 5.382812 9.121094 5.378906 9.125 5.375 L 9.242188 5.332031 C 9.25 5.332031 9.257812 5.332031 9.265625 5.339844 L 9.269531 5.34375 L 9.3125 5.335938 C 9.3125 5.335938 9.316406 5.335938 9.320312 5.335938 L 9.347656 5.34375 L 9.371094 5.351562 L 9.402344 5.355469 L 9.402344 5.34375 L 9.371094 5.320312 C 9.363281 5.316406 9.355469 5.308594 9.359375 5.296875 L 9.359375 5.277344 L 9.351562 5.257812 C 9.347656 5.253906 9.347656 5.246094 9.351562 5.242188 L 9.351562 5.234375 C 9.355469 5.226562 9.359375 5.21875 9.363281 5.214844 C 9.371094 5.214844 9.378906 5.210938 9.382812 5.214844 L 9.394531 5.21875 L 9.414062 5.214844 C 9.417969 5.214844 9.417969 5.214844 9.417969 5.214844 L 9.472656 5.21875 C 9.480469 5.21875 9.488281 5.222656 9.492188 5.230469 L 9.5 5.242188 C 9.503906 5.25 9.503906 5.257812 9.5 5.265625 L 9.5 5.269531 L 9.507812 5.277344 L 9.511719 5.277344 C 9.515625 5.273438 9.523438 5.273438 9.53125 5.277344 L 9.546875 5.285156 C 9.550781 5.289062 9.554688 5.292969 9.558594 5.296875 L 9.558594 5.304688 L 9.601562 5.316406 C 9.609375 5.320312 9.617188 5.324219 9.617188 5.328125 L 9.625 5.347656 C 9.628906 5.351562 9.628906 5.355469 9.628906 5.359375 L 9.628906 5.378906 L 9.640625 5.445312 C 9.644531 5.449219 9.644531 5.453125 9.640625 5.457031 L 9.636719 5.476562 L 9.644531 5.492188 C 9.644531 5.496094 9.644531 5.503906 9.640625 5.511719 L 9.632812 5.527344 L 9.632812 5.53125 L 9.671875 5.582031 C 9.671875 5.585938 9.671875 5.585938 9.675781 5.585938 L 9.679688 5.605469 L 9.6875 5.609375 C 9.691406 5.613281 9.695312 5.617188 9.695312 5.621094 L 9.703125 5.632812 L 9.71875 5.628906 C 9.722656 5.628906 9.730469 5.628906 9.738281 5.632812 C 9.742188 5.636719 9.746094 5.640625 9.746094 5.648438 L 9.75 5.65625 C 9.75 5.660156 9.75 5.664062 9.75 5.667969 L 9.757812 5.664062 C 9.765625 5.664062 9.773438 5.667969 9.78125 5.675781 L 9.789062 5.691406 C 9.792969 5.695312 9.792969 5.703125 9.792969 5.710938 C 9.792969 5.714844 9.785156 5.722656 9.78125 5.726562 L 9.796875 5.734375 C 9.804688 5.738281 9.8125 5.746094 9.8125 5.753906 L 9.8125 5.792969 L 9.820312 5.816406 C 9.820312 5.820312 9.820312 5.824219 9.820312 5.828125 L 9.816406 5.847656 L 9.824219 5.855469 C 9.832031 5.859375 9.835938 5.863281 9.835938 5.871094 L 9.839844 5.894531 L 9.859375 5.921875 L 9.878906 5.933594 C 9.886719 5.9375 9.890625 5.941406 9.890625 5.949219 L 9.890625 5.957031 L 9.902344 5.972656 L 9.917969 5.992188 L 9.941406 6 C 9.949219 6 9.953125 6.003906 9.957031 6.011719 L 9.960938 6.019531 L 9.972656 6.027344 C 9.980469 6.03125 9.984375 6.042969 9.980469 6.050781 L 9.980469 6.070312 L 10 6.113281 C 10 6.113281 10 6.117188 10 6.117188 L 10.003906 6.136719 C 10.007812 6.148438 10 6.160156 9.992188 6.164062 L 9.976562 6.167969 L 9.96875 6.175781 C 9.972656 6.183594 9.972656 6.1875 9.96875 6.195312 L 9.964844 6.214844 L 9.972656 6.25 C 9.976562 6.261719 9.972656 6.269531 9.964844 6.277344 L 9.953125 6.285156 L 9.933594 6.3125 L 9.945312 6.332031 C 9.945312 6.335938 9.945312 6.335938 9.949219 6.339844 L 9.960938 6.382812 L 9.984375 6.390625 C 9.992188 6.390625 10 6.394531 10 6.398438 C 10.003906 6.40625 10.007812 6.414062 10.003906 6.417969 L 10 6.425781 L 10.003906 6.429688 L 10.019531 6.4375 C 10.023438 6.441406 10.027344 6.441406 10.03125 6.445312 L 10.035156 6.453125 L 10.058594 6.453125 C 10.066406 6.453125 10.074219 6.457031 10.078125 6.460938 L 10.085938 6.472656 L 10.117188 6.472656 C 10.128906 6.472656 10.140625 6.476562 10.140625 6.488281 L 10.15625 6.539062 C 10.160156 6.542969 10.160156 6.546875 10.15625 6.554688 L 10.207031 6.554688 C 10.210938 6.554688 10.214844 6.554688 10.214844 6.558594 L 10.238281 6.566406 L 10.25 6.5625 C 10.253906 6.5625 10.261719 6.5625 10.265625 6.566406 L 10.289062 6.578125 C 10.292969 6.582031 10.292969 6.582031 10.296875 6.582031 L 10.328125 6.617188 C 10.332031 6.617188 10.332031 6.617188 10.332031 6.621094 L 10.375 6.675781 C 10.378906 6.683594 10.382812 6.691406 10.378906 6.695312 C 10.378906 6.703125 10.375 6.710938 10.367188 6.714844 L 10.359375 6.71875 L 10.378906 6.761719 C 10.382812 6.769531 10.382812 6.78125 10.375 6.789062 L 10.371094 6.792969 C 10.367188 6.796875 10.367188 6.800781 10.363281 6.800781 L 10.367188 6.816406 L 10.390625 6.824219 C 10.390625 6.824219 10.394531 6.824219 10.394531 6.828125 L 10.425781 6.847656 C 10.425781 6.855469 10.429688 6.859375 10.433594 6.863281 C 10.4375 6.863281 10.445312 6.863281 10.449219 6.863281 L 10.464844 6.867188 C 10.472656 6.867188 10.480469 6.871094 10.484375 6.878906 C 10.488281 6.886719 10.484375 6.894531 10.480469 6.902344 L 10.445312 6.957031 L 10.445312 6.976562 C 10.445312 6.980469 10.445312 6.984375 10.445312 6.988281 L 10.449219 6.988281 C 10.457031 6.988281 10.464844 6.988281 10.46875 6.996094 C 10.472656 7 10.476562 7.007812 10.476562 7.011719 L 10.476562 7.046875 L 10.488281 7.046875 L 10.503906 7.03125 C 10.507812 7.027344 10.511719 7.023438 10.515625 7.023438 L 10.535156 7.019531 C 10.539062 7.019531 10.539062 7.019531 10.542969 7.019531 L 10.582031 7.027344 C 10.585938 7.03125 10.589844 7.035156 10.59375 7.039062 L 10.609375 7.039062 C 10.621094 7.03125 10.625 7.015625 10.617188 7.003906 C 10.621094 6.996094 10.625 6.988281 10.632812 6.988281 L 10.695312 6.96875 C 10.699219 6.96875 10.703125 6.96875 10.707031 6.96875 L 10.730469 6.976562 C 10.734375 6.976562 10.738281 6.980469 10.738281 6.984375 L 10.75 6.996094 C 10.75 6.996094 10.753906 6.996094 10.753906 6.996094 L 10.789062 7.054688 C 10.796875 7.054688 10.804688 7.058594 10.808594 7.0625 C 10.8125 7.066406 10.816406 7.074219 10.816406 7.082031 L 10.824219 7.089844 C 10.828125 7.09375 10.832031 7.097656 10.832031 7.101562 L 10.835938 7.117188 L 10.839844 7.113281 L 10.839844 7.109375 C 10.839844 7.105469 10.84375 7.097656 10.847656 7.097656 L 10.863281 7.074219 C 10.867188 7.070312 10.871094 7.066406 10.875 7.0625 L 10.902344 7.058594 L 10.929688 7.019531 C 10.933594 7.015625 10.9375 7.011719 10.941406 7.011719 L 10.957031 7.003906 C 10.960938 7 10.964844 7 10.96875 7 L 10.96875 6.996094 C 10.96875 6.992188 10.972656 6.988281 10.972656 6.988281 L 10.988281 6.972656 L 10.992188 6.960938 C 10.992188 6.957031 10.996094 6.949219 11 6.945312 L 11.03125 6.929688 C 11.035156 6.925781 11.046875 6.925781 11.050781 6.925781 L 11.070312 6.933594 C 11.074219 6.9375 11.078125 6.941406 11.078125 6.945312 L 11.09375 6.964844 C 11.097656 6.96875 11.097656 6.972656 11.097656 6.980469 L 11.097656 7.003906 L 11.113281 6.992188 L 11.117188 6.988281 C 11.125 6.980469 11.132812 6.980469 11.140625 6.980469 L 11.152344 6.984375 L 11.160156 6.964844 C 11.164062 6.960938 11.167969 6.960938 11.171875 6.957031 L 11.1875 6.949219 C 11.195312 6.945312 11.203125 6.945312 11.210938 6.949219 L 11.230469 6.960938 C 11.242188 6.964844 11.246094 6.980469 11.242188 6.992188 L 11.230469 7.023438 L 11.242188 7.046875 L 11.246094 7.046875 L 11.257812 7.039062 L 11.269531 7.015625 C 11.273438 7.015625 11.273438 7.011719 11.277344 7.007812 L 11.320312 6.976562 C 11.328125 6.972656 11.332031 6.96875 11.339844 6.96875 C 11.347656 6.972656 11.351562 6.976562 11.355469 6.980469 L 11.394531 7.046875 L 11.402344 7.046875 C 11.402344 7.046875 11.40625 7.046875 11.40625 7.042969 L 11.433594 7.027344 L 11.433594 7.019531 C 11.433594 7.015625 11.433594 7.011719 11.433594 7.007812 L 11.453125 6.976562 L 11.449219 6.957031 C 11.449219 6.953125 11.449219 6.949219 11.449219 6.945312 L 11.441406 6.929688 C 11.4375 6.921875 11.4375 6.914062 11.441406 6.90625 C 11.445312 6.898438 11.453125 6.894531 11.460938 6.890625 L 11.554688 6.886719 C 11.566406 6.886719 11.578125 6.890625 11.578125 6.902344 L 11.585938 6.917969 L 11.605469 6.941406 C 11.609375 6.945312 11.613281 6.949219 11.613281 6.953125 L 11.613281 6.957031 L 11.628906 6.964844 L 11.640625 6.957031 C 11.648438 6.953125 11.652344 6.949219 11.660156 6.953125 L 11.695312 6.957031 L 11.699219 6.953125 C 11.703125 6.9375 11.71875 6.933594 11.730469 6.9375 L 11.742188 6.941406 L 11.753906 6.9375 C 11.761719 6.933594 11.773438 6.933594 11.78125 6.9375 L 11.792969 6.945312 C 11.796875 6.949219 11.800781 6.953125 11.800781 6.957031 L 11.804688 6.960938 L 11.886719 6.945312 C 11.894531 6.945312 11.902344 6.949219 11.90625 6.953125 L 11.929688 6.972656 C 11.929688 6.972656 11.933594 6.976562 11.933594 6.980469 L 11.972656 6.988281 C 11.976562 6.988281 11.980469 6.992188 11.984375 6.992188 L 11.996094 7.003906 L 12.019531 7.011719 L 12.046875 7.011719 C 12.046875 7.011719 12.050781 7.011719 12.050781 7.015625 L 12.066406 7.019531 C 12.074219 7.019531 12.078125 7.023438 12.082031 7.03125 L 12.089844 7.046875 L 12.105469 7.046875 L 12.125 7.027344 C 12.128906 7.023438 12.136719 7.019531 12.144531 7.019531 L 12.183594 7.023438 L 12.195312 7.019531 C 12.199219 7.019531 12.203125 7.019531 12.207031 7.019531 L 12.238281 7.019531 L 12.265625 7.023438 L 12.285156 7.015625 C 12.289062 7.011719 12.296875 7.011719 12.304688 7.011719 L 12.339844 7.027344 L 12.398438 7.027344 C 12.40625 7.027344 12.414062 7.03125 12.417969 7.035156 L 12.453125 7.046875 C 12.464844 7.046875 12.472656 7.058594 12.472656 7.070312 L 12.472656 7.089844 C 12.476562 7.097656 12.476562 7.105469 12.46875 7.113281 L 12.476562 7.152344 L 12.488281 7.152344 C 12.488281 7.152344 12.492188 7.15625 12.496094 7.160156 L 12.507812 7.167969 L 12.535156 7.164062 C 12.546875 7.164062 12.558594 7.171875 12.558594 7.183594 L 12.566406 7.207031 C 12.570312 7.210938 12.570312 7.210938 12.570312 7.214844 L 12.570312 7.222656 C 12.570312 7.230469 12.566406 7.238281 12.5625 7.242188 C 12.558594 7.246094 12.550781 7.25 12.542969 7.25 L 12.527344 7.246094 L 12.515625 7.257812 L 12.511719 7.273438 C 12.515625 7.273438 12.515625 7.277344 12.515625 7.28125 L 12.519531 7.292969 L 12.542969 7.308594 L 12.582031 7.316406 C 12.585938 7.320312 12.59375 7.324219 12.597656 7.328125 L 12.609375 7.308594 C 12.617188 7.300781 12.628906 7.296875 12.636719 7.300781 L 12.640625 7.300781 C 12.644531 7.300781 12.648438 7.304688 12.652344 7.308594 L 12.707031 7.367188 C 12.714844 7.375 12.714844 7.382812 12.714844 7.394531 L 12.707031 7.40625 L 12.726562 7.40625 C 12.730469 7.402344 12.734375 7.40625 12.742188 7.40625 L 12.789062 7.433594 C 12.792969 7.433594 12.796875 7.4375 12.796875 7.441406 L 12.816406 7.460938 C 12.820312 7.46875 12.820312 7.472656 12.820312 7.480469 L 12.8125 7.503906 L 12.828125 7.539062 L 12.867188 7.566406 C 12.878906 7.574219 12.882812 7.585938 12.878906 7.597656 L 12.882812 7.679688 L 12.890625 7.699219 C 12.894531 7.703125 12.894531 7.707031 12.894531 7.710938 L 12.894531 7.726562 L 12.902344 7.738281 L 12.929688 7.742188 C 12.9375 7.746094 12.945312 7.753906 12.945312 7.765625 L 12.953125 7.851562 C 12.953125 7.855469 12.953125 7.859375 12.949219 7.863281 L 12.945312 7.875 C 12.941406 7.878906 12.941406 7.878906 12.9375 7.882812 L 12.933594 7.90625 C 12.929688 7.910156 12.929688 7.917969 12.925781 7.917969 L 12.921875 7.925781 L 12.917969 7.964844 L 12.917969 7.980469 C 12.921875 7.984375 12.917969 7.988281 12.917969 7.988281 L 12.914062 8.003906 L 12.917969 8.023438 L 12.945312 8.097656 L 12.992188 8.132812 C 13 8.140625 13.003906 8.148438 13 8.15625 L 12.976562 8.25 L 12.980469 8.265625 L 13 8.292969 C 13.003906 8.296875 13.003906 8.304688 13.003906 8.3125 L 12.996094 8.335938 C 12.992188 8.34375 12.988281 8.351562 12.980469 8.355469 L 12.921875 8.367188 L 12.921875 8.371094 C 12.921875 8.378906 12.917969 8.390625 12.910156 8.394531 L 12.886719 8.40625 L 12.886719 8.410156 C 12.886719 8.417969 12.882812 8.425781 12.878906 8.429688 L 12.871094 8.433594 L 12.871094 8.441406 L 12.882812 8.445312 C 12.890625 8.449219 12.894531 8.457031 12.894531 8.46875 C 12.894531 8.476562 12.890625 8.484375 12.878906 8.488281 L 12.875 8.492188 L 12.796875 8.550781 C 12.792969 8.554688 12.789062 8.554688 12.785156 8.554688 L 12.785156 8.5625 C 12.785156 8.566406 12.78125 8.570312 12.78125 8.574219 L 12.761719 8.601562 C 12.753906 8.609375 12.746094 8.617188 12.738281 8.613281 L 12.71875 8.613281 C 12.714844 8.609375 12.707031 8.609375 12.703125 8.601562 L 12.699219 8.597656 C 12.695312 8.601562 12.6875 8.601562 12.683594 8.601562 L 12.679688 8.601562 C 12.683594 8.609375 12.683594 8.617188 12.683594 8.621094 L 12.675781 8.640625 C 12.675781 8.648438 12.664062 8.65625 12.65625 8.65625 L 12.648438 8.65625 C 12.644531 8.660156 12.644531 8.664062 12.640625 8.667969 L 12.628906 8.679688 C 12.621094 8.683594 12.613281 8.6875 12.605469 8.683594 L 12.574219 8.675781 L 12.570312 8.679688 L 12.632812 8.769531 C 12.632812 8.773438 12.636719 8.777344 12.636719 8.785156 L 12.636719 8.828125 L 12.644531 8.839844 C 12.652344 8.835938 12.660156 8.835938 12.664062 8.84375 L 12.6875 8.859375 C 12.691406 8.859375 12.695312 8.863281 12.695312 8.867188 L 12.699219 8.875 L 12.714844 8.878906 C 12.71875 8.882812 12.722656 8.886719 12.726562 8.894531 L 12.738281 8.914062 L 12.789062 8.988281 C 12.789062 8.992188 12.792969 8.996094 12.792969 9.003906 L 12.789062 9.023438 L 12.789062 9.027344 C 12.796875 9.03125 12.800781 9.042969 12.796875 9.050781 L 12.792969 9.0625 L 12.796875 9.070312 C 12.800781 9.082031 12.796875 9.09375 12.785156 9.101562 L 12.773438 9.109375 L 12.769531 9.109375 L 12.769531 9.113281 L 12.785156 9.136719 C 12.792969 9.144531 12.792969 9.15625 12.785156 9.164062 L 12.777344 9.175781 L 12.777344 9.179688 C 12.777344 9.191406 12.773438 9.203125 12.761719 9.207031 L 12.75 9.210938 C 12.746094 9.214844 12.742188 9.214844 12.738281 9.214844 L 12.703125 9.210938 L 12.691406 9.273438 C 12.691406 9.28125 12.6875 9.285156 12.679688 9.289062 L 12.664062 9.300781 L 12.675781 9.332031 L 12.695312 9.359375 C 12.699219 9.359375 12.699219 9.363281 12.699219 9.367188 L 12.710938 9.386719 L 12.734375 9.394531 C 12.742188 9.398438 12.75 9.40625 12.75 9.417969 L 12.753906 9.445312 C 12.753906 9.449219 12.753906 9.457031 12.75 9.460938 L 12.75 9.476562 C 12.75 9.480469 12.75 9.484375 12.75 9.488281 L 12.746094 9.496094 L 12.746094 9.503906 C 12.75 9.511719 12.75 9.519531 12.746094 9.523438 L 12.730469 9.550781 L 12.730469 9.558594 L 12.734375 9.570312 C 12.734375 9.578125 12.734375 9.582031 12.734375 9.589844 L 12.722656 9.621094 L 12.722656 9.632812 C 12.722656 9.636719 12.722656 9.640625 12.722656 9.644531 L 12.707031 9.671875 C 12.707031 9.675781 12.707031 9.675781 12.703125 9.679688 L 12.703125 9.6875 C 12.707031 9.691406 12.703125 9.699219 12.699219 9.703125 L 12.695312 9.710938 L 12.683594 9.765625 C 12.679688 9.765625 12.679688 9.769531 12.679688 9.769531 L 12.710938 9.796875 C 12.722656 9.796875 12.730469 9.804688 12.734375 9.816406 L 12.742188 9.847656 C 12.742188 9.851562 12.742188 9.855469 12.738281 9.863281 L 12.730469 9.886719 C 12.726562 9.890625 12.722656 9.898438 12.714844 9.898438 C 12.710938 9.902344 12.703125 9.902344 12.695312 9.898438 C 12.6875 9.902344 12.683594 9.902344 12.679688 9.902344 L 12.652344 9.902344 L 12.648438 9.910156 C 12.644531 9.917969 12.636719 9.925781 12.628906 9.925781 C 12.617188 9.925781 12.609375 9.921875 12.605469 9.914062 L 12.589844 9.886719 L 12.550781 9.882812 C 12.546875 9.882812 12.539062 9.878906 12.535156 9.871094 L 12.53125 9.863281 L 12.511719 9.84375 L 12.484375 9.839844 C 12.480469 9.839844 12.476562 9.839844 12.472656 9.835938 L 12.457031 9.824219 C 12.457031 9.820312 12.453125 9.816406 12.453125 9.8125 L 12.449219 9.804688 L 12.4375 9.796875 L 12.421875 9.792969 L 12.441406 9.835938 C 12.445312 9.84375 12.445312 9.851562 12.4375 9.859375 L 12.433594 9.867188 L 12.433594 9.871094 C 12.433594 9.875 12.433594 9.875 12.433594 9.875 L 12.429688 9.921875 C 12.429688 9.925781 12.425781 9.933594 12.421875 9.9375 L 12.410156 9.949219 L 12.414062 9.957031 C 12.417969 9.964844 12.417969 9.972656 12.414062 9.976562 L 12.402344 10.003906 C 12.398438 10.007812 12.394531 10.011719 12.386719 10.015625 L 12.363281 10.023438 C 12.359375 10.023438 12.359375 10.023438 12.359375 10.023438 L 12.324219 10.03125 L 12.308594 10.050781 L 12.273438 10.105469 C 12.269531 10.113281 12.261719 10.117188 12.253906 10.117188 L 12.226562 10.117188 C 12.226562 10.117188 12.222656 10.117188 12.222656 10.117188 L 12.210938 10.144531 C 12.210938 10.152344 12.203125 10.160156 12.195312 10.160156 L 12.179688 10.167969 L 12.175781 10.167969 L 12.175781 10.191406 C 12.175781 10.203125 12.171875 10.210938 12.160156 10.214844 L 12.140625 10.222656 L 12.128906 10.238281 C 12.128906 10.242188 12.125 10.242188 12.125 10.246094 L 12.101562 10.257812 C 12.101562 10.265625 12.09375 10.273438 12.085938 10.277344 L 12.082031 10.300781 L 12.082031 10.304688 C 12.085938 10.308594 12.089844 10.3125 12.089844 10.316406 L 12.09375 10.355469 L 12.113281 10.375 L 12.125 10.375 C 12.132812 10.375 12.140625 10.382812 12.144531 10.390625 L 12.148438 10.402344 C 12.148438 10.40625 12.148438 10.410156 12.148438 10.417969 L 12.140625 10.429688 C 12.136719 10.4375 12.128906 10.445312 12.121094 10.445312 L 12.105469 10.445312 L 12.101562 10.460938 C 12.101562 10.464844 12.097656 10.472656 12.09375 10.476562 L 12.070312 10.5 C 12.066406 10.503906 12.058594 10.507812 12.050781 10.507812 L 12.046875 10.507812 L 12.054688 10.53125 C 12.054688 10.535156 12.054688 10.542969 12.050781 10.546875 L 12.035156 10.574219 L 12.035156 10.59375 C 12.035156 10.597656 12.035156 10.601562 12.03125 10.605469 L 12.019531 10.636719 C 12.015625 10.644531 12.007812 10.648438 12.003906 10.652344 C 11.996094 10.652344 11.988281 10.652344 11.984375 10.648438 L 11.964844 10.640625 L 11.949219 10.636719 L 11.949219 10.640625 C 11.945312 10.644531 11.9375 10.648438 11.929688 10.648438 L 11.878906 10.6875 L 11.875 10.6875 C 11.875 10.691406 11.875 10.691406 11.875 10.691406 L 11.890625 10.722656 C 11.894531 10.722656 11.894531 10.726562 11.894531 10.726562 L 11.902344 10.765625 L 11.941406 10.808594 C 11.945312 10.816406 11.945312 10.824219 11.945312 10.832031 L 11.925781 10.882812 C 11.921875 10.894531 11.914062 10.898438 11.90625 10.902344 L 11.855469 10.90625 C 11.851562 10.910156 11.84375 10.90625 11.839844 10.90625 L 11.828125 10.898438 L 11.777344 10.914062 C 11.773438 10.914062 11.769531 10.917969 11.769531 10.914062 L 11.75 10.914062 C 11.746094 10.914062 11.738281 10.910156 11.734375 10.90625 L 11.730469 10.898438 L 11.671875 10.910156 C 11.671875 10.910156 11.671875 10.910156 11.667969 10.910156 L 11.628906 10.914062 L 11.585938 10.941406 L 11.574219 10.953125 C 11.570312 10.960938 11.558594 10.964844 11.550781 10.960938 L 11.53125 10.957031 C 11.523438 10.953125 11.515625 10.945312 11.515625 10.933594 L 11.515625 10.898438 L 11.511719 10.894531 C 11.511719 10.898438 11.507812 10.898438 11.507812 10.894531 L 11.488281 10.890625 L 11.464844 10.917969 L 11.460938 10.925781 C 11.460938 10.933594 11.453125 10.941406 11.445312 10.945312 L 11.382812 10.964844 L 11.371094 10.980469 C 11.363281 10.988281 11.351562 10.992188 11.34375 10.988281 L 11.335938 11.003906 C 11.332031 11.007812 11.324219 11.011719 11.316406 11.011719 L 11.292969 11.015625 L 11.289062 11.019531 C 11.285156 11.023438 11.277344 11.027344 11.273438 11.03125 C 11.265625 11.03125 11.257812 11.027344 11.25 11.023438 C 11.246094 11.015625 11.246094 11.011719 11.246094 11.003906 L 11.238281 11.011719 C 11.230469 11.015625 11.222656 11.019531 11.214844 11.015625 C 11.207031 11.015625 11.199219 11.007812 11.199219 11 L 11.191406 10.984375 L 11.167969 10.972656 C 11.160156 10.96875 11.15625 10.960938 11.15625 10.953125 C 11.152344 10.949219 11.15625 10.941406 11.160156 10.933594 L 11.15625 10.914062 L 11.148438 10.910156 L 11.125 10.890625 L 11.117188 10.890625 L 11.117188 10.894531 C 11.105469 10.894531 11.09375 10.890625 11.089844 10.882812 L 11.085938 10.875 C 11.085938 10.871094 11.082031 10.867188 11.082031 10.867188 L 11.078125 10.828125 L 11.0625 10.816406 C 11.0625 10.816406 11.058594 10.8125 11.058594 10.808594 L 11.050781 10.792969 L 11.039062 10.789062 C 11.03125 10.789062 11.027344 10.785156 11.023438 10.78125 L 10.992188 10.738281 C 10.992188 10.734375 10.988281 10.730469 10.988281 10.726562 L 10.988281 10.722656 L 10.96875 10.707031 L 10.949219 10.707031 C 10.945312 10.710938 10.9375 10.714844 10.929688 10.714844 C 10.917969 10.714844 10.910156 10.707031 10.90625 10.695312 L 10.875 10.683594 L 10.835938 10.707031 C 10.828125 10.710938 10.820312 10.710938 10.8125 10.707031 L 10.796875 10.699219 C 10.792969 10.695312 10.789062 10.6875 10.785156 10.679688 L 10.785156 10.664062 L 10.78125 10.667969 C 10.777344 10.671875 10.769531 10.671875 10.765625 10.671875 L 10.746094 10.671875 L 10.707031 10.699219 C 10.707031 10.707031 10.703125 10.714844 10.695312 10.71875 L 10.667969 10.730469 L 10.65625 10.734375 C 10.648438 10.738281 10.640625 10.734375 10.636719 10.730469 L 10.632812 10.726562 L 10.621094 10.738281 C 10.617188 10.738281 10.613281 10.742188 10.609375 10.742188 L 10.589844 10.746094 L 10.59375 10.757812 C 10.59375 10.757812 10.59375 10.761719 10.59375 10.765625 L 10.589844 10.808594 L 10.59375 10.816406 C 10.597656 10.824219 10.597656 10.828125 10.597656 10.832031 L 10.59375 10.851562 L 10.601562 10.867188 C 10.609375 10.871094 10.617188 10.878906 10.617188 10.886719 L 10.621094 10.902344 C 10.621094 10.910156 10.621094 10.914062 10.617188 10.921875 L 10.628906 10.960938 C 10.628906 10.964844 10.628906 10.972656 10.621094 10.980469 C 10.617188 10.984375 10.609375 10.988281 10.601562 10.988281 L 10.582031 10.988281 L 10.585938 11.007812 L 10.609375 11.023438 C 10.613281 11.027344 10.617188 11.035156 10.617188 11.042969 L 10.621094 11.070312 C 10.621094 11.078125 10.617188 11.085938 10.613281 11.089844 L 10.601562 11.101562 C 10.597656 11.105469 10.59375 11.109375 10.585938 11.109375 L 10.554688 11.113281 C 10.554688 11.117188 10.550781 11.121094 10.546875 11.125 L 10.539062 11.148438 C 10.539062 11.164062 10.523438 11.171875 10.511719 11.167969 L 10.496094 11.164062 L 10.484375 11.175781 C 10.480469 11.179688 10.472656 11.183594 10.464844 11.179688 L 10.460938 11.179688 L 10.460938 11.238281 C 10.460938 11.25 10.453125 11.261719 10.441406 11.261719 L 10.429688 11.265625 L 10.394531 11.273438 C 10.394531 11.277344 10.390625 11.277344 10.386719 11.277344 L 10.367188 11.273438 L 10.339844 11.285156 L 10.34375 11.296875 C 10.34375 11.300781 10.34375 11.308594 10.339844 11.3125 L 10.335938 11.316406 L 10.339844 11.320312 C 10.339844 11.324219 10.339844 11.324219 10.34375 11.324219 L 10.367188 11.351562 C 10.371094 11.359375 10.371094 11.367188 10.371094 11.375 L 10.355469 11.429688 C 10.355469 11.433594 10.347656 11.441406 10.34375 11.445312 C 10.335938 11.445312 10.328125 11.445312 10.324219 11.445312 L 10.320312 11.453125 C 10.320312 11.457031 10.320312 11.460938 10.316406 11.464844 L 10.292969 11.5 C 10.289062 11.503906 10.28125 11.507812 10.277344 11.511719 C 10.269531 11.511719 10.261719 11.511719 10.257812 11.507812 L 10.25 11.5 L 10.246094 11.507812 C 10.242188 11.511719 10.238281 11.515625 10.230469 11.515625 L 10.210938 11.523438 L 10.210938 11.539062 C 10.207031 11.546875 10.203125 11.554688 10.191406 11.554688 L 10.175781 11.5625 L 10.171875 11.566406 C 10.167969 11.574219 10.160156 11.582031 10.148438 11.582031 L 10.070312 11.582031 L 10.054688 11.585938 L 10.046875 11.59375 C 10.042969 11.597656 10.035156 11.601562 10.03125 11.601562 L 10.027344 11.605469 L 10.027344 11.625 C 10.027344 11.628906 10.027344 11.632812 10.023438 11.636719 L 10.03125 11.660156 C 10.03125 11.664062 10.03125 11.667969 10.03125 11.675781 L 10.023438 11.691406 C 10.023438 11.695312 10.019531 11.699219 10.015625 11.703125 L 9.96875 11.742188 L 9.929688 11.773438 L 9.917969 11.789062 L 9.925781 11.808594 C 9.925781 11.816406 9.925781 11.820312 9.921875 11.828125 L 9.921875 11.835938 C 9.925781 11.84375 9.921875 11.847656 9.917969 11.855469 C 9.914062 11.859375 9.90625 11.863281 9.898438 11.863281 L 9.875 11.863281 C 9.871094 11.863281 9.867188 11.863281 9.863281 11.863281 L 9.859375 11.859375 C 9.855469 11.863281 9.851562 11.867188 9.847656 11.867188 L 9.804688 11.878906 C 9.804688 11.882812 9.800781 11.886719 9.796875 11.886719 C 9.796875 11.886719 9.792969 11.890625 9.792969 11.890625 L 9.78125 11.894531 L 9.742188 11.9375 C 9.738281 11.941406 9.730469 11.945312 9.71875 11.945312 L 9.746094 11.996094 C 9.75 12 9.75 12.003906 9.75 12.011719 L 9.742188 12.046875 C 9.742188 12.046875 9.742188 12.050781 9.742188 12.054688 L 9.738281 12.058594 L 9.742188 12.058594 C 9.75 12.0625 9.753906 12.070312 9.753906 12.078125 L 9.757812 12.105469 C 9.757812 12.109375 9.757812 12.113281 9.753906 12.117188 L 9.746094 12.136719 L 9.746094 12.148438 L 9.757812 12.160156 C 9.761719 12.164062 9.761719 12.167969 9.761719 12.167969 L 9.765625 12.167969 C 9.773438 12.167969 9.78125 12.175781 9.785156 12.183594 L 9.796875 12.191406 C 9.804688 12.195312 9.808594 12.203125 9.8125 12.210938 L 9.8125 12.28125 C 9.8125 12.285156 9.8125 12.292969 9.808594 12.296875 L 9.804688 12.300781 C 9.804688 12.300781 9.804688 12.304688 9.808594 12.304688 L 9.8125 12.339844 C 9.8125 12.347656 9.8125 12.355469 9.804688 12.359375 L 9.804688 12.378906 C 9.800781 12.386719 9.792969 12.394531 9.785156 12.398438 L 9.757812 12.40625 C 9.757812 12.40625 9.753906 12.40625 9.75 12.40625 L 9.714844 12.398438 L 9.703125 12.398438 C 9.699219 12.398438 9.695312 12.398438 9.691406 12.398438 L 9.664062 12.386719 L 9.648438 12.398438 C 9.644531 12.402344 9.636719 12.40625 9.628906 12.40625 L 9.578125 12.402344 L 9.574219 12.417969 C 9.574219 12.429688 9.5625 12.4375 9.550781 12.4375 C 9.539062 12.4375 9.527344 12.429688 9.527344 12.414062 L 9.523438 12.359375 L 9.507812 12.339844 C 9.503906 12.335938 9.503906 12.335938 9.5 12.332031 L 9.492188 12.332031 L 9.488281 12.34375 L 9.480469 12.355469 L 9.484375 12.367188 C 9.488281 12.371094 9.488281 12.378906 9.484375 12.382812 L 9.484375 12.390625 C 9.492188 12.398438 9.492188 12.40625 9.484375 12.414062 L 9.457031 12.460938 C 9.457031 12.464844 9.453125 12.46875 9.449219 12.46875 L 9.441406 12.472656 C 9.441406 12.476562 9.441406 12.476562 9.441406 12.480469 C 9.449219 12.480469 9.453125 12.484375 9.453125 12.488281 L 9.464844 12.503906 L 9.488281 12.5 C 9.5 12.496094 9.511719 12.5 9.515625 12.511719 L 9.527344 12.542969 C 9.527344 12.542969 9.527344 12.542969 9.53125 12.546875 L 9.570312 12.578125 C 9.578125 12.589844 9.582031 12.601562 9.574219 12.613281 L 9.550781 12.640625 C 9.546875 12.644531 9.542969 12.648438 9.539062 12.648438 L 9.539062 12.65625 C 9.539062 12.660156 9.539062 12.667969 9.53125 12.675781 L 9.519531 12.691406 L 9.523438 12.699219 C 9.527344 12.707031 9.53125 12.714844 9.523438 12.726562 L 9.46875 12.828125 C 9.460938 12.835938 9.453125 12.839844 9.441406 12.839844 L 9.417969 12.835938 L 9.433594 12.847656 C 9.4375 12.851562 9.441406 12.859375 9.441406 12.867188 L 9.441406 12.878906 C 9.441406 12.882812 9.4375 12.886719 9.4375 12.886719 L 9.429688 12.894531 L 9.433594 12.914062 L 9.4375 12.925781 C 9.441406 12.929688 9.441406 12.9375 9.441406 12.941406 L 9.4375 12.957031 C 9.425781 12.964844 9.414062 12.976562 9.402344 12.984375 L 9.382812 13 C 9.375 13 9.371094 13.003906 9.363281 13 L 9.34375 12.996094 C 9.335938 12.996094 9.328125 12.988281 9.328125 12.984375 L 9.324219 12.980469 L 9.273438 12.949219 L 9.257812 12.945312 C 9.257812 12.953125 9.261719 12.957031 9.257812 12.964844 L 9.25 12.988281 L 9.253906 13.003906 C 9.257812 13.011719 9.257812 13.019531 9.25 13.027344 C 9.242188 13.035156 9.234375 13.035156 9.226562 13.035156 L 9.195312 13.023438 C 9.191406 13.023438 9.191406 13.019531 9.1875 13.019531 L 9.167969 13.035156 L 9.15625 13.054688 L 9.15625 13.066406 C 9.15625 13.070312 9.152344 13.074219 9.152344 13.078125 L 9.136719 13.101562 L 9.140625 13.117188 C 9.140625 13.128906 9.136719 13.140625 9.125 13.144531 L 9.078125 13.160156 C 9.074219 13.160156 9.066406 13.160156 9.0625 13.160156 L 9.058594 13.160156 L 9.042969 13.183594 C 9.039062 13.183594 9.035156 13.1875 9.027344 13.1875 L 9.019531 13.191406 L 9.015625 13.210938 C 9.011719 13.21875 9.007812 13.226562 9 13.226562 L 8.964844 13.238281 C 8.953125 13.242188 8.945312 13.238281 8.9375 13.226562 L 8.925781 13.203125 C 8.921875 13.203125 8.921875 13.199219 8.921875 13.195312 L 8.921875 13.179688 L 8.894531 13.167969 C 8.886719 13.164062 8.882812 13.15625 8.882812 13.152344 L 8.875 13.125 L 8.835938 13.09375 C 8.832031 13.089844 8.832031 13.089844 8.832031 13.089844 C 8.832031 13.089844 8.828125 13.089844 8.828125 13.089844 L 8.824219 13.089844 L 8.808594 13.117188 C 8.804688 13.125 8.800781 13.128906 8.792969 13.128906 L 8.777344 13.132812 L 8.738281 13.144531 C 8.730469 13.148438 8.722656 13.144531 8.71875 13.144531 L 8.691406 13.125 L 8.6875 13.132812 C 8.683594 13.144531 8.675781 13.148438 8.664062 13.148438 C 8.65625 13.144531 8.644531 13.140625 8.644531 13.128906 C 8.636719 13.136719 8.628906 13.136719 8.621094 13.136719 L 8.59375 13.128906 L 8.585938 13.140625 L 8.566406 13.183594 C 8.5625 13.191406 8.554688 13.195312 8.542969 13.195312 L 8.507812 13.195312 L 8.492188 13.203125 C 8.488281 13.207031 8.484375 13.207031 8.476562 13.207031 L 8.464844 13.207031 L 8.445312 13.234375 C 8.441406 13.238281 8.433594 13.242188 8.425781 13.242188 L 8.40625 13.238281 C 8.402344 13.238281 8.398438 13.238281 8.394531 13.234375 L 8.375 13.21875 L 8.328125 13.230469 L 8.328125 13.234375 C 8.328125 13.246094 8.320312 13.257812 8.308594 13.257812 L 8.292969 13.265625 C 8.285156 13.273438 8.273438 13.277344 8.261719 13.269531 L 8.230469 13.253906 L 8.21875 13.25 C 8.210938 13.25 8.203125 13.246094 8.199219 13.238281 L 8.195312 13.234375 L 8.175781 13.230469 C 8.171875 13.230469 8.167969 13.230469 8.167969 13.230469 L 8.136719 13.214844 C 8.125 13.207031 8.121094 13.199219 8.121094 13.191406 L 8.121094 13.183594 L 8.117188 13.183594 L 8.101562 13.191406 C 8.097656 13.195312 8.09375 13.199219 8.089844 13.199219 L 8.078125 13.199219 L 8.066406 13.214844 C 8.066406 13.21875 8.0625 13.21875 8.058594 13.222656 L 8.039062 13.234375 L 8.035156 13.261719 C 8.035156 13.265625 8.035156 13.265625 8.03125 13.269531 L 8.023438 13.285156 C 8.019531 13.292969 8.011719 13.296875 8.003906 13.296875 L 7.988281 13.300781 C 7.984375 13.300781 7.980469 13.296875 7.976562 13.296875 L 7.953125 13.285156 C 7.941406 13.28125 7.933594 13.269531 7.9375 13.261719 L 7.941406 13.238281 L 7.917969 13.253906 C 7.914062 13.257812 7.910156 13.261719 7.902344 13.261719 L 7.855469 13.257812 L 7.847656 13.265625 L 7.847656 13.273438 C 7.847656 13.277344 7.84375 13.285156 7.839844 13.289062 L 7.828125 13.300781 L 7.84375 13.347656 C 7.84375 13.347656 7.84375 13.351562 7.84375 13.351562 L 7.851562 13.40625 C 7.851562 13.414062 7.851562 13.417969 7.847656 13.421875 L 7.835938 13.445312 C 7.832031 13.449219 7.832031 13.449219 7.828125 13.453125 L 7.808594 13.46875 C 7.800781 13.472656 7.789062 13.476562 7.78125 13.472656 L 7.761719 13.460938 L 7.757812 13.460938 C 7.746094 13.46875 7.734375 13.464844 7.726562 13.457031 L 7.699219 13.425781 L 7.636719 13.375 C 7.628906 13.371094 7.628906 13.363281 7.628906 13.355469 C 7.628906 13.347656 7.632812 13.339844 7.636719 13.335938 L 7.679688 13.304688 L 7.679688 13.300781 L 7.675781 13.292969 L 7.640625 13.257812 L 7.636719 13.273438 C 7.632812 13.277344 7.628906 13.285156 7.621094 13.285156 L 7.59375 13.296875 L 7.570312 13.324219 C 7.566406 13.328125 7.5625 13.332031 7.558594 13.332031 L 7.546875 13.332031 C 7.542969 13.335938 7.539062 13.335938 7.535156 13.332031 L 7.535156 13.339844 C 7.535156 13.347656 7.53125 13.359375 7.523438 13.363281 L 7.507812 13.371094 C 7.5 13.375 7.484375 13.375 7.480469 13.363281 L 7.453125 13.335938 L 7.453125 13.339844 C 7.445312 13.34375 7.4375 13.347656 7.429688 13.34375 L 7.417969 13.339844 L 7.414062 13.347656 C 7.410156 13.351562 7.40625 13.351562 7.402344 13.351562 L 7.382812 13.359375 C 7.375 13.359375 7.367188 13.359375 7.363281 13.351562 L 7.359375 13.351562 L 7.328125 13.382812 C 7.324219 13.386719 7.320312 13.386719 7.320312 13.390625 L 7.304688 13.394531 L 7.292969 13.402344 C 7.289062 13.40625 7.285156 13.40625 7.285156 13.40625 L 7.289062 13.410156 C 7.292969 13.410156 7.292969 13.414062 7.292969 13.414062 L 7.296875 13.417969 L 7.304688 13.417969 C 7.308594 13.417969 7.316406 13.421875 7.320312 13.425781 L 7.332031 13.4375 C 7.335938 13.4375 7.335938 13.441406 7.339844 13.445312 L 7.351562 13.488281 C 7.355469 13.496094 7.347656 13.507812 7.339844 13.515625 L 7.332031 13.519531 C 7.328125 13.523438 7.320312 13.523438 7.3125 13.519531 L 7.328125 13.550781 C 7.328125 13.550781 7.332031 13.554688 7.332031 13.554688 L 7.335938 13.574219 C 7.339844 13.582031 7.335938 13.59375 7.328125 13.597656 L 7.324219 13.601562 L 7.324219 13.644531 C 7.324219 13.648438 7.320312 13.65625 7.316406 13.660156 C 7.308594 13.664062 7.304688 13.667969 7.296875 13.667969 L 7.273438 13.664062 C 7.277344 13.667969 7.277344 13.675781 7.273438 13.679688 L 7.269531 13.691406 L 7.273438 13.691406 C 7.277344 13.695312 7.28125 13.703125 7.28125 13.710938 L 7.277344 13.734375 L 7.285156 13.761719 C 7.289062 13.765625 7.289062 13.773438 7.285156 13.777344 L 7.285156 13.78125 L 7.289062 13.78125 C 7.296875 13.785156 7.304688 13.792969 7.304688 13.800781 L 7.308594 13.828125 C 7.308594 13.835938 7.304688 13.84375 7.300781 13.851562 L 7.242188 13.894531 C 7.242188 13.894531 7.238281 13.894531 7.238281 13.894531 L 7.207031 13.910156 L 7.210938 13.933594 C 7.210938 13.941406 7.210938 13.953125 7.203125 13.957031 L 7.1875 13.96875 L 7.191406 13.972656 C 7.199219 13.972656 7.203125 13.976562 7.207031 13.984375 C 7.210938 13.992188 7.210938 14 7.207031 14.003906 L 7.191406 14.042969 C 7.1875 14.054688 7.179688 14.058594 7.171875 14.058594 L 7.160156 14.0625 L 7.15625 14.082031 C 7.15625 14.085938 7.152344 14.09375 7.144531 14.097656 L 7.136719 14.101562 C 7.132812 14.105469 7.128906 14.105469 7.121094 14.101562 L 7.121094 14.105469 L 7.125 14.109375 L 7.160156 14.113281 C 7.167969 14.113281 7.175781 14.117188 7.179688 14.125 C 7.183594 14.128906 7.183594 14.136719 7.183594 14.144531 L 7.171875 14.175781 C 7.171875 14.175781 7.171875 14.179688 7.171875 14.179688 L 7.175781 14.1875 C 7.179688 14.1875 7.183594 14.1875 7.183594 14.1875 L 7.21875 14.179688 C 7.230469 14.175781 7.242188 14.183594 7.246094 14.191406 L 7.277344 14.175781 C 7.289062 14.171875 7.304688 14.175781 7.308594 14.1875 L 7.324219 14.210938 C 7.332031 14.207031 7.339844 14.207031 7.347656 14.210938 L 7.363281 14.222656 L 7.367188 14.222656 L 7.375 14.214844 C 7.378906 14.210938 7.386719 14.210938 7.394531 14.210938 L 7.441406 14.222656 C 7.449219 14.226562 7.457031 14.234375 7.460938 14.242188 L 7.464844 14.273438 C 7.46875 14.277344 7.46875 14.28125 7.464844 14.285156 L 7.464844 14.292969 C 7.46875 14.300781 7.46875 14.308594 7.46875 14.316406 L 7.464844 14.320312 L 7.472656 14.320312 C 7.484375 14.316406 7.496094 14.320312 7.5 14.332031 L 7.519531 14.363281 L 7.527344 14.371094 C 7.53125 14.371094 7.535156 14.375 7.535156 14.378906 L 7.546875 14.398438 C 7.546875 14.402344 7.546875 14.40625 7.546875 14.414062 L 7.546875 14.417969 L 7.550781 14.421875 C 7.554688 14.429688 7.554688 14.441406 7.550781 14.449219 L 7.542969 14.460938 L 7.539062 14.472656 L 7.539062 14.476562 C 7.550781 14.480469 7.554688 14.488281 7.554688 14.496094 L 7.554688 14.511719 C 7.558594 14.511719 7.5625 14.515625 7.5625 14.519531 L 7.578125 14.53125 C 7.585938 14.539062 7.585938 14.554688 7.578125 14.5625 L 7.566406 14.574219 C 7.5625 14.582031 7.554688 14.582031 7.546875 14.582031 L 7.5 14.582031 C 7.5 14.585938 7.5 14.589844 7.496094 14.59375 L 7.488281 14.617188 L 7.484375 14.625 L 7.5 14.644531 L 7.503906 14.632812 C 7.507812 14.625 7.515625 14.617188 7.519531 14.617188 C 7.523438 14.617188 7.527344 14.617188 7.53125 14.617188 L 7.539062 14.605469 C 7.542969 14.597656 7.550781 14.589844 7.558594 14.589844 L 7.585938 14.589844 C 7.59375 14.589844 7.597656 14.59375 7.605469 14.597656 C 7.609375 14.605469 7.609375 14.613281 7.609375 14.621094 L 7.605469 14.640625 L 7.621094 14.660156 C 7.628906 14.667969 7.628906 14.675781 7.625 14.6875 L 7.601562 14.730469 C 7.601562 14.734375 7.601562 14.734375 7.601562 14.734375 C 7.605469 14.734375 7.605469 14.738281 7.605469 14.738281 C 7.609375 14.746094 7.609375 14.757812 7.605469 14.761719 L 7.605469 14.765625 C 7.605469 14.769531 7.605469 14.777344 7.601562 14.78125 L 7.597656 14.785156 C 7.605469 14.789062 7.609375 14.796875 7.609375 14.804688 L 7.609375 14.816406 L 7.640625 14.855469 C 7.648438 14.863281 7.648438 14.875 7.644531 14.882812 L 7.636719 14.898438 C 7.636719 14.898438 7.636719 14.902344 7.636719 14.902344 L 7.632812 14.90625 L 7.609375 14.933594 C 7.605469 14.9375 7.601562 14.941406 7.597656 14.941406 L 7.589844 14.945312 C 7.582031 14.949219 7.574219 14.945312 7.566406 14.941406 L 7.554688 14.929688 L 7.535156 14.933594 L 7.519531 14.96875 C 7.519531 14.972656 7.515625 14.976562 7.511719 14.976562 L 7.5 14.988281 L 7.5 15.007812 L 7.519531 15.011719 C 7.53125 15.015625 7.535156 15.027344 7.535156 15.035156 L 7.535156 15.039062 C 7.542969 15.042969 7.542969 15.050781 7.542969 15.058594 L 7.542969 15.066406 C 7.542969 15.070312 7.542969 15.070312 7.542969 15.074219 L 7.523438 15.113281 C 7.523438 15.117188 7.523438 15.117188 7.519531 15.121094 L 7.484375 15.164062 L 7.480469 15.183594 C 7.480469 15.183594 7.480469 15.183594 7.480469 15.1875 L 7.472656 15.203125 C 7.472656 15.207031 7.464844 15.214844 7.460938 15.214844 C 7.453125 15.21875 7.445312 15.21875 7.4375 15.214844 L 7.429688 15.210938 L 7.433594 15.292969 C 7.433594 15.300781 7.429688 15.308594 7.425781 15.3125 C 7.421875 15.316406 7.414062 15.320312 7.40625 15.320312 L 7.375 15.316406 L 7.359375 15.332031 C 7.355469 15.335938 7.347656 15.339844 7.339844 15.339844 C 7.332031 15.339844 7.324219 15.332031 7.320312 15.328125 L 7.320312 15.324219 L 7.320312 15.339844 C 7.316406 15.34375 7.316406 15.347656 7.3125 15.351562 L 7.289062 15.371094 L 7.273438 15.417969 C 7.269531 15.421875 7.265625 15.429688 7.257812 15.429688 L 7.226562 15.445312 L 7.210938 15.464844 C 7.203125 15.472656 7.191406 15.476562 7.183594 15.472656 C 7.183594 15.472656 7.179688 15.476562 7.179688 15.476562 L 7.183594 15.480469 C 7.1875 15.484375 7.1875 15.488281 7.1875 15.492188 L 7.1875 15.511719 C 7.191406 15.515625 7.1875 15.519531 7.1875 15.523438 L 7.164062 15.558594 L 7.1875 15.582031 C 7.195312 15.589844 7.195312 15.597656 7.191406 15.605469 C 7.1875 15.613281 7.179688 15.621094 7.171875 15.621094 L 7.164062 15.625 L 7.148438 15.636719 C 7.148438 15.636719 7.144531 15.640625 7.144531 15.640625 L 7.097656 15.664062 C 7.089844 15.667969 7.078125 15.664062 7.074219 15.660156 L 7.054688 15.648438 L 7.042969 15.648438 L 7.046875 15.664062 C 7.046875 15.667969 7.046875 15.675781 7.042969 15.679688 L 7.027344 15.707031 C 7.023438 15.714844 7.015625 15.71875 7.007812 15.71875 L 6.980469 15.726562 L 6.972656 15.742188 L 6.972656 15.8125 L 6.976562 15.820312 C 6.980469 15.820312 6.980469 15.824219 6.980469 15.828125 L 6.988281 15.863281 C 6.988281 15.867188 6.988281 15.871094 6.984375 15.878906 L 6.972656 15.90625 C 6.96875 15.917969 6.957031 15.921875 6.945312 15.921875 L 6.933594 15.917969 L 6.914062 15.941406 C 6.910156 15.945312 6.902344 15.945312 6.898438 15.949219 L 6.894531 15.949219 L 6.894531 15.953125 L 6.90625 15.972656 C 6.910156 15.976562 6.910156 15.980469 6.910156 15.984375 L 6.90625 16.007812 L 6.917969 16.046875 C 6.921875 16.050781 6.921875 16.054688 6.917969 16.058594 L 6.902344 16.109375 C 6.902344 16.113281 6.902344 16.113281 6.898438 16.117188 L 6.875 16.152344 C 6.867188 16.160156 6.855469 16.164062 6.84375 16.160156 L 6.832031 16.15625 L 6.824219 16.15625 L 6.796875 16.191406 C 6.796875 16.191406 6.792969 16.195312 6.792969 16.195312 L 6.746094 16.234375 C 6.738281 16.242188 6.726562 16.242188 6.71875 16.238281 L 6.6875 16.222656 L 6.636719 16.242188 C 6.632812 16.242188 6.625 16.242188 6.617188 16.238281 L 6.519531 16.175781 C 6.519531 16.171875 6.515625 16.167969 6.511719 16.164062 L 6.5 16.179688 L 6.492188 16.214844 C 6.492188 16.226562 6.484375 16.234375 6.476562 16.234375 L 6.449219 16.242188 L 6.4375 16.261719 C 6.429688 16.265625 6.421875 16.269531 6.414062 16.269531 Z M 8.324219 13.25 L 8.324219 13.238281 Z M 9.710938 12.828125 C 9.714844 12.832031 9.71875 12.832031 9.722656 12.835938 L 9.726562 12.832031 C 9.730469 12.832031 9.730469 12.832031 9.734375 12.832031 Z M 6.132812 8.550781 L 6.148438 8.554688 L 6.128906 8.539062 Z M 7.710938 14.917969 L 7.71875 14.917969 C 7.722656 14.917969 7.722656 14.917969 7.726562 14.917969 L 7.746094 14.925781 L 7.746094 14.910156 C 7.742188 14.914062 7.734375 14.914062 7.730469 14.910156 L 7.710938 14.902344 L 7.707031 14.914062 Z M 6.261719 11.335938 C 6.269531 11.339844 6.277344 11.339844 6.285156 11.335938 L 6.289062 11.332031 C 6.296875 11.328125 6.300781 11.320312 6.300781 11.3125 C 6.300781 11.308594 6.300781 11.300781 6.296875 11.296875 L 6.277344 11.269531 C 6.269531 11.261719 6.257812 11.257812 6.246094 11.261719 L 6.242188 11.265625 C 6.238281 11.269531 6.234375 11.273438 6.230469 11.277344 L 6.222656 11.300781 C 6.222656 11.304688 6.222656 11.308594 6.222656 11.316406 L 6.222656 11.324219 C 6.226562 11.328125 6.230469 11.335938 6.238281 11.339844 C 6.246094 11.339844 6.253906 11.339844 6.261719 11.335938 Z M 1.292969 6.230469 L 0 6.417969 L 0.933594 7.328125 L 0.714844 8.613281 L 1.867188 8.007812 L 3.023438 8.613281 L 2.804688 7.328125 L 3.738281 6.417969 L 2.445312 6.230469 L 1.867188 5.058594 Z M 3.710938 2.796875 L 2.421875 2.984375 L 3.355469 3.894531 L 3.136719 5.183594 L 4.289062 4.574219 L 5.445312 5.183594 L 5.222656 3.894531 L 6.160156 2.984375 L 4.867188 2.796875 L 4.289062 1.628906 Z M 7.816406 1.171875 L 6.527344 1.359375 L 7.460938 2.269531 L 7.242188 3.554688 L 8.394531 2.945312 L 9.550781 3.554688 L 9.328125 2.269531 L 10.265625 1.359375 L 8.972656 1.171875 L 8.394531 0 Z M 12.035156 2.753906 L 10.742188 2.941406 L 11.675781 3.851562 L 11.457031 5.136719 L 12.613281 4.53125 L 13.765625 5.136719 L 13.546875 3.851562 L 14.480469 2.941406 L 13.1875 2.753906 L 12.613281 1.582031 Z M 14.554688 6.207031 L 13.261719 6.398438 L 14.195312 7.308594 L 13.976562 8.59375 L 15.132812 7.984375 L 16.285156 8.59375 L 16.066406 7.308594 L 17 6.398438 L 15.707031 6.207031 L 15.132812 5.039062 Z M 14.554688 6.207031 "/>
</g>
</g>
</svg>
