<?xml version="1.0" encoding="UTF-8"?>
<svg xmlns="http://www.w3.org/2000/svg" xmlns:xlink="http://www.w3.org/1999/xlink" width="11" height="7.967677" viewBox="0 0 11 7.967677" version="1.1">
<g id="surface1">
<path style=" stroke:none;fill-rule:nonzero;fill:rgb(30%,30%,30%);fill-opacity:1;" d="M 6.539062 6.894531 C 6.539062 7.488281 6.058594 7.96875 5.46875 7.96875 C 4.875 7.96875 4.398438 7.488281 4.398438 6.894531 C 4.398438 6.304688 4.875 5.824219 5.46875 5.824219 C 6.058594 5.824219 6.539062 6.304688 6.539062 6.894531 Z M 6.539062 6.894531 "/>
<path style=" stroke:none;fill-rule:nonzero;fill:rgb(30%,30%,30%);fill-opacity:1;" d="M 3.292969 5.457031 C 4.574219 4.320312 6.507812 4.34375 7.761719 5.503906 L 8.351562 4.917969 C 6.765625 3.425781 4.300781 3.410156 2.695312 4.878906 Z M 3.292969 5.457031 "/>
<path style=" stroke:none;fill-rule:nonzero;fill:rgb(30%,30%,30%);fill-opacity:1;" d="M 9.734375 3.535156 C 7.375 1.269531 3.652344 1.265625 1.285156 3.519531 L 1.945312 4.15625 C 3.957031 2.269531 7.089844 2.28125 9.085938 4.179688 Z M 9.734375 3.535156 "/>
<path style=" stroke:none;fill-rule:nonzero;fill:rgb(30%,30%,30%);fill-opacity:1;" d="M 11 2.269531 C 9.578125 0.890625 7.636719 0.00390625 5.5 0.00390625 C 5.5 0.00390625 2.585938 -0.210938 0 2.25 L 0.667969 2.921875 C 1.921875 1.71875 3.625 0.976562 5.503906 0.976562 C 7.382812 0.976562 9.085938 1.71875 10.339844 2.929688 L 11 2.269531 "/>
</g>
</svg>
