<?xml version="1.0" encoding="UTF-8" standalone="no"?>
<!-- Created with Inkscape (http://www.inkscape.org/) -->

<svg
   xmlns:dc="http://purl.org/dc/elements/1.1/"
   xmlns:cc="http://creativecommons.org/ns#"
   xmlns:rdf="http://www.w3.org/1999/02/22-rdf-syntax-ns#"
   xmlns:svg="http://www.w3.org/2000/svg"
   xmlns="http://www.w3.org/2000/svg"
   xmlns:xlink="http://www.w3.org/1999/xlink"
   xmlns:sodipodi="http://sodipodi.sourceforge.net/DTD/sodipodi-0.dtd"
   xmlns:inkscape="http://www.inkscape.org/namespaces/inkscape"
   width="30px"
   height="30px"
   version="1.1"
   id="svg8"
   inkscape:version="0.92.4 5da689c313, 2019-01-14"
   sodipodi:docname="container.svg">
  <defs
     id="defs2" />
  <sodipodi:namedview
     id="base"
     pagecolor="#ffffff"
     bordercolor="#666666"
     borderopacity="1.0"
     inkscape:pageopacity="0.0"
     inkscape:pageshadow="2"
     inkscape:zoom="13.049334"
     inkscape:cx="18.679046"
     inkscape:cy="12.165829"
     inkscape:document-units="px"
     inkscape:current-layer="layer1"
     showgrid="false"
     inkscape:snap-page="false"
     units="px"
     inkscape:window-width="1884"
     inkscape:window-height="1061"
     inkscape:window-x="0"
     inkscape:window-y="0"
     inkscape:window-maximized="1"
     fit-margin-top="0"
     fit-margin-left="0"
     fit-margin-right="0"
     fit-margin-bottom="0" />
  <metadata
     id="metadata5">
    <rdf:RDF>
      <cc:Work
         rdf:about="">
        <dc:format>image/svg+xml</dc:format>
        <dc:type
           rdf:resource="http://purl.org/dc/dcmitype/StillImage" />
        <dc:title></dc:title>
      </cc:Work>
    </rdf:RDF>
  </metadata>
    <circle
       style="color:#000000;clip-rule:nonzero;display:inline;overflow:visible;visibility:visible;opacity:1;isolation:auto;mix-blend-mode:normal;color-interpolation:sRGB;color-interpolation-filters:linearRGB;solid-color:#000000;solid-opacity:1;vector-effect:none;fill:rgba(255, 255, 255, 1);fill-opacity:1;fill-rule:evenodd;stroke:#ffffff;stroke-width:1;stroke-linecap:butt;stroke-linejoin:miter;stroke-miterlimit:4;stroke-dasharray:none;stroke-dashoffset:0;stroke-opacity:1;marker:none;color-rendering:auto;image-rendering:auto;shape-rendering:auto;text-rendering:auto;enable-background:accumulate"
       id="path815"
       cx="15"
       cy="15"
       r="14.5" />
<g transform="translate(6,6)"><g id="surface1">
<path style=" stroke:none;fill-rule:nonzero;fill:#FFFFFF;fill-opacity:1;" d="M 9.929688 2.386719 C 9.929688 3.164062 9.296875 3.796875 8.519531 3.796875 C 7.742188 3.796875 7.113281 3.164062 7.113281 2.386719 C 7.113281 1.613281 7.742188 0.980469 8.519531 0.980469 C 9.296875 0.980469 9.929688 1.613281 9.929688 2.386719 Z M 16.414062 14.859375 C 16.414062 15.355469 16.074219 15.539062 15.582031 15.597656 C 14.195312 15.757812 12.960938 16.035156 10.785156 16.035156 C 10.785156 16.035156 7.210938 16.035156 5.960938 15.988281 C 4.710938 15.9375 2.679688 15.691406 2.679688 15.691406 C 2.460938 15.644531 1.210938 15.683594 1.210938 14.980469 L 1.210938 14.859375 C 1.210938 14.589844 1.429688 14.371094 1.699219 14.371094 L 3.6875 14.371094 C 3.597656 14.21875 3.566406 14.027344 3.628906 13.84375 L 5.007812 9.746094 L 6.113281 11.03125 L 5.011719 14.3125 C 5.007812 14.332031 4.996094 14.351562 4.988281 14.371094 L 7.398438 14.371094 C 7.386719 14.328125 7.382812 14.285156 7.382812 14.242188 L 7.359375 11.410156 C 7.359375 11.410156 5.777344 9.632812 5.753906 9.609375 C 5.285156 9.191406 5.101562 8.78125 5.222656 8.378906 L 6.3125 5.285156 C 6.46875 4.839844 6.441406 4.34375 7.664062 4.492188 C 7.664062 4.492188 7.761719 4.492188 8.082031 4.589844 C 8.132812 4.605469 8.183594 4.628906 8.238281 4.65625 C 8.277344 4.667969 8.3125 4.6875 8.34375 4.714844 L 8.425781 4.78125 C 8.503906 4.835938 8.570312 4.894531 8.613281 4.933594 L 10.449219 6.417969 C 10.472656 6.4375 10.492188 6.457031 10.507812 6.480469 L 11.875 7.113281 L 12.367188 4.203125 L 10.234375 5.253906 C 10.152344 5.28125 10.066406 5.320312 9.984375 5.351562 L 8.878906 4.367188 C 9.246094 4.183594 10.101562 4.03125 10.308594 3.933594 L 12.792969 2.757812 C 13.070312 2.625 13.402344 2.742188 13.535156 3.015625 C 13.667969 3.292969 13.550781 3.625 13.277344 3.757812 L 13.042969 3.871094 L 12.453125 7.382812 L 12.589844 7.445312 C 12.875 7.578125 13 7.921875 12.867188 8.210938 C 12.757812 8.449219 12.503906 8.574219 12.257812 8.535156 L 11.421875 13.523438 L 11.738281 14.371094 L 15.925781 14.371094 C 16.195312 14.371094 16.414062 14.589844 16.414062 14.859375 Z M 8.746094 14.296875 C 8.746094 14.320312 8.746094 14.347656 8.742188 14.371094 L 10.148438 14.371094 L 10.832031 13.328125 L 11.679688 8.292969 L 9.964844 7.496094 C 9.914062 7.476562 9.738281 7.382812 9.699219 7.347656 L 8.355469 6.261719 L 7.386719 9.09375 L 8.566406 10.566406 C 8.640625 10.652344 8.6875 10.753906 8.710938 10.855469 L 8.71875 10.859375 L 8.71875 10.910156 C 8.722656 10.949219 8.722656 10.984375 8.71875 11.023438 Z M 8.746094 14.296875 "/>
</g>
</g>
</svg>
