<?xml version="1.0" encoding="UTF-8"?>
<svg xmlns="http://www.w3.org/2000/svg" xmlns:xlink="http://www.w3.org/1999/xlink" width="11" height="9.985372" viewBox="0 0 11 9.985372" version="1.1">
<g id="surface1">
<path style=" stroke:none;fill-rule:evenodd;fill:rgb(30%,30%,30%);fill-opacity:1;" d="M 10.960938 7.492188 C 10.914062 7.453125 10.855469 7.480469 10.820312 7.519531 C 10.617188 7.410156 10.472656 7.285156 10.328125 7.082031 C 10.199219 6.664062 10.21875 6.226562 9.980469 5.78125 C 10.164062 5.582031 10.222656 5.261719 10.453125 4.984375 C 10.132812 5.03125 9.976562 5.171875 9.808594 5.25 C 9.871094 5.105469 9.914062 4.953125 9.949219 4.800781 C 9.832031 4.9375 9.644531 5.085938 9.449219 5.1875 C 9.214844 5.019531 8.953125 4.882812 8.671875 4.769531 C 7.722656 4.367188 6.625 4.195312 5.59375 4.113281 C 5.574219 4.070312 5.535156 4.042969 5.46875 4.03125 C 5.375 4.019531 5.277344 4.019531 5.179688 4.023438 C 5.179688 4 5.171875 3.972656 5.121094 3.957031 C 5.046875 3.9375 4.992188 3.96875 4.921875 3.914062 C 4.867188 3.871094 4.832031 3.761719 4.804688 3.683594 C 4.898438 3.648438 4.992188 3.585938 5.054688 3.5 C 5.058594 3.488281 5.066406 3.480469 5.070312 3.46875 C 5.078125 3.460938 5.089844 3.453125 5.097656 3.445312 C 5.308594 3.445312 5.585938 3.304688 5.695312 3.125 C 6.390625 2.726562 6.414062 1.753906 6.183594 1.078125 C 6.214844 1.082031 6.246094 1.085938 6.277344 1.085938 C 6.28125 1.085938 6.289062 1.082031 6.292969 1.078125 C 6.300781 1.070312 6.300781 1.054688 6.289062 1.042969 C 6.285156 1.039062 6.28125 1.03125 6.273438 1.027344 C 6.269531 1.019531 6.265625 1.015625 6.261719 1.011719 C 6.25 1 6.242188 0.988281 6.234375 0.976562 C 6.226562 0.960938 6.21875 0.945312 6.210938 0.929688 C 6.222656 0.921875 6.226562 0.90625 6.222656 0.890625 C 6.214844 0.875 6.207031 0.855469 6.203125 0.839844 C 6.332031 0.859375 6.425781 0.746094 6.355469 0.597656 C 6.417969 0.601562 6.476562 0.59375 6.535156 0.574219 C 6.546875 0.570312 6.5625 0.566406 6.570312 0.558594 C 6.578125 0.542969 6.5625 0.515625 6.554688 0.5 C 6.539062 0.472656 6.5 0.433594 6.464844 0.421875 C 6.46875 0.414062 6.46875 0.40625 6.46875 0.398438 C 6.480469 0.308594 6.414062 0.265625 6.367188 0.21875 C 6.351562 0.199219 6.355469 0.175781 6.351562 0.148438 C 6.351562 0.144531 6.347656 0.144531 6.347656 0.144531 C 6.34375 0.144531 6.339844 0.144531 6.339844 0.148438 C 6.335938 0.15625 6.332031 0.167969 6.328125 0.179688 C 6.328125 0.179688 6.324219 0.183594 6.324219 0.179688 C 6.320312 0.179688 6.320312 0.179688 6.316406 0.175781 C 6.316406 0.152344 6.3125 0.128906 6.308594 0.105469 C 6.304688 0.101562 6.304688 0.101562 6.300781 0.101562 C 6.300781 0.101562 6.296875 0.101562 6.296875 0.101562 C 6.289062 0.121094 6.277344 0.136719 6.261719 0.148438 C 6.261719 0.148438 6.257812 0.152344 6.257812 0.148438 C 6.253906 0.148438 6.253906 0.148438 6.253906 0.144531 C 6.257812 0.125 6.246094 0.0273438 6.226562 0.0273438 C 6.222656 0.0273438 6.222656 0.0273438 6.222656 0.03125 C 6.21875 0.0390625 6.191406 0.09375 6.179688 0.09375 C 6.179688 0.09375 6.175781 0.09375 6.175781 0.0898438 C 6.171875 0.078125 6.164062 0.0546875 6.15625 0.0390625 C 6.152344 0.0390625 6.152344 0.0507812 6.148438 0.0507812 C 6.148438 0.0507812 6.144531 0.0390625 6.144531 0.0390625 C 6.140625 0.046875 6.136719 0.0546875 6.132812 0.0625 C 6.132812 0.0664062 6.128906 0.0664062 6.128906 0.0664062 C 6.125 0.0664062 6.125 0.0664062 6.121094 0.0625 C 6.117188 0.0507812 6.113281 0.0390625 6.105469 0.0273438 C 6.105469 0.0273438 6.105469 0.0234375 6.101562 0.0234375 C 6.101562 0.0234375 6.097656 0.0273438 6.097656 0.0273438 C 6.089844 0.0351562 6.085938 0.046875 6.082031 0.0546875 C 6.082031 0.0585938 6.078125 0.0585938 6.078125 0.0585938 C 6.074219 0.0585938 6.074219 0.0585938 6.070312 0.0546875 C 6.003906 -0.109375 5.894531 0.132812 5.996094 0.253906 C 5.589844 0.355469 5.410156 0.917969 5.191406 1.265625 C 5.019531 1.320312 4.851562 1.394531 4.695312 1.484375 C 4.546875 1.492188 4.355469 1.484375 4.230469 1.402344 C 4.21875 1.394531 4.207031 1.386719 4.195312 1.378906 C 4.1875 1.375 4.175781 1.371094 4.167969 1.375 C 4.160156 1.378906 4.152344 1.382812 4.144531 1.390625 C 4.046875 1.34375 3.960938 1.28125 3.871094 1.214844 C 3.792969 1.027344 3.707031 0.628906 3.757812 0.402344 C 3.761719 0.367188 3.765625 0.335938 3.773438 0.300781 C 3.785156 0.234375 3.789062 0.15625 3.695312 0.144531 C 3.675781 0.140625 3.65625 0.140625 3.636719 0.148438 C 3.523438 0.171875 3.429688 0.269531 3.386719 0.378906 C 3.386719 0.378906 3.386719 0.375 3.386719 0.375 C 3.359375 0.269531 3.277344 0.253906 3.1875 0.308594 C 3.097656 0.371094 3.050781 0.484375 3.046875 0.589844 C 3.042969 0.585938 3.039062 0.585938 3.039062 0.582031 C 3.023438 0.578125 3.007812 0.574219 2.992188 0.574219 C 2.835938 0.585938 2.789062 0.839844 2.8125 0.960938 C 2.734375 0.929688 2.683594 1.011719 2.664062 1.078125 C 2.628906 1.195312 2.65625 1.308594 2.714844 1.414062 C 2.707031 1.414062 2.699219 1.414062 2.6875 1.417969 C 2.609375 1.445312 2.589844 1.554688 2.601562 1.621094 C 2.617188 1.71875 2.667969 1.792969 2.734375 1.859375 C 2.660156 1.878906 2.648438 1.957031 2.65625 2.023438 C 2.675781 2.136719 2.757812 2.222656 2.855469 2.277344 C 2.785156 2.316406 2.777344 2.40625 2.804688 2.472656 C 2.84375 2.554688 2.914062 2.605469 2.996094 2.640625 C 3.054688 2.664062 3.113281 2.6875 3.175781 2.707031 C 3.175781 2.707031 3.179688 2.707031 3.179688 2.707031 C 3.347656 3.097656 3.683594 3.351562 4.089844 3.445312 C 4.167969 3.601562 4.339844 3.691406 4.511719 3.714844 C 4.550781 3.796875 4.578125 3.882812 4.589844 3.972656 C 4.574219 4.003906 4.542969 4.03125 4.5 4.046875 C 4.496094 4.050781 4.488281 4.054688 4.480469 4.058594 C 4.222656 4.054688 3.964844 4.054688 3.710938 4.0625 C 3.492188 4.070312 3.296875 4.082031 3.109375 4.097656 C 2.648438 4.144531 2.273438 4.226562 1.953125 4.355469 C 1.460938 4.542969 0.957031 4.9375 0.710938 5.390625 C 0.703125 5.398438 0.699219 5.40625 0.695312 5.414062 C 0.6875 5.394531 0.675781 5.375 0.664062 5.355469 C 0.664062 5.355469 0.664062 5.351562 0.664062 5.351562 C 0.679688 5.300781 0.6875 5.25 0.683594 5.195312 C 0.679688 5.140625 0.664062 5.085938 0.644531 5.035156 C 0.601562 4.945312 0.535156 4.875 0.449219 4.847656 C 0.351562 4.820312 0.394531 4.867188 0.433594 4.898438 C 0.519531 4.96875 0.597656 5.121094 0.574219 5.214844 C 0.503906 5.125 0.394531 5.054688 0.273438 5.058594 C 0.0585938 5.0625 -0.078125 5.300781 0.0507812 5.507812 C 0.160156 5.6875 0.445312 5.683594 0.574219 5.503906 C 0.585938 5.527344 0.605469 5.570312 0.613281 5.597656 C 0.476562 5.945312 0.449219 6.3125 0.511719 6.683594 C 0.554688 6.921875 0.636719 7.113281 0.703125 7.265625 C 0.753906 7.390625 0.8125 7.535156 0.832031 7.667969 C 0.835938 7.691406 0.839844 7.714844 0.839844 7.738281 C 0.828125 7.769531 0.8125 7.796875 0.796875 7.820312 C 0.707031 7.964844 0.621094 8.070312 0.578125 8.238281 C 0.53125 8.414062 0.546875 8.582031 0.609375 8.765625 C 0.632812 8.84375 0.65625 8.914062 0.664062 8.988281 C 0.683594 9.121094 0.648438 9.273438 0.65625 9.414062 C 0.660156 9.484375 0.675781 9.550781 0.707031 9.613281 C 0.726562 9.652344 0.75 9.683594 0.785156 9.703125 C 0.804688 9.71875 0.832031 9.71875 0.855469 9.707031 C 0.855469 9.707031 0.855469 9.703125 0.855469 9.703125 C 0.882812 9.78125 0.925781 9.855469 0.996094 9.902344 C 1.085938 9.96875 1.226562 9.988281 1.355469 9.984375 C 1.40625 9.984375 1.457031 9.976562 1.507812 9.964844 C 1.636719 9.933594 1.652344 9.867188 1.59375 9.757812 C 1.582031 9.738281 1.566406 9.714844 1.550781 9.699219 C 1.496094 9.632812 1.425781 9.582031 1.34375 9.550781 C 1.234375 9.21875 1.203125 9.03125 1.234375 8.679688 C 1.316406 8.542969 1.421875 8.433594 1.554688 8.3125 C 1.648438 8.496094 1.722656 8.6875 1.773438 8.886719 C 1.808594 9.007812 1.808594 9.128906 1.824219 9.242188 C 1.835938 9.320312 1.867188 9.371094 1.90625 9.40625 C 1.957031 9.453125 2.019531 9.453125 2.066406 9.507812 C 2.097656 9.542969 2.117188 9.585938 2.128906 9.628906 C 2.15625 9.738281 2.273438 9.789062 2.425781 9.808594 C 2.511719 9.820312 2.773438 9.847656 2.796875 9.742188 C 2.808594 9.683594 2.761719 9.621094 2.726562 9.578125 C 2.675781 9.523438 2.621094 9.472656 2.554688 9.429688 C 2.402344 9.203125 2.300781 8.902344 2.25 8.628906 C 2.246094 8.441406 2.273438 8.257812 2.332031 8.078125 C 3.527344 8.421875 4.875 8.382812 6.066406 8.078125 C 6.152344 8.09375 6.242188 8.105469 6.328125 8.105469 C 6.464844 8.503906 6.589844 8.835938 6.527344 9.257812 C 6.5 9.449219 6.527344 9.5625 6.613281 9.589844 C 6.679688 9.765625 6.800781 9.832031 6.949219 9.847656 C 7.183594 9.878906 7.238281 9.839844 7.207031 9.738281 C 7.175781 9.640625 7.074219 9.488281 7.011719 9.40625 C 6.996094 9.183594 7.007812 8.925781 7.042969 8.722656 C 7.058594 8.757812 7.078125 8.792969 7.097656 8.824219 C 7.132812 8.886719 7.164062 8.953125 7.191406 9.019531 C 7.21875 9.101562 7.238281 9.1875 7.246094 9.273438 C 7.253906 9.363281 7.242188 9.457031 7.246094 9.546875 C 7.246094 9.59375 7.257812 9.652344 7.296875 9.683594 C 7.316406 9.699219 7.339844 9.703125 7.363281 9.691406 C 7.371094 9.714844 7.378906 9.738281 7.390625 9.757812 C 7.410156 9.792969 7.433594 9.820312 7.464844 9.84375 C 7.5625 9.917969 7.792969 9.945312 7.902344 9.894531 C 7.933594 9.878906 7.957031 9.855469 7.96875 9.820312 C 7.976562 9.792969 7.976562 9.761719 7.964844 9.734375 C 7.941406 9.65625 7.855469 9.558594 7.796875 9.507812 C 7.785156 9.5 7.777344 9.492188 7.769531 9.484375 L 7.757812 9.410156 C 7.6875 8.972656 7.683594 8.519531 7.808594 8.089844 C 8.398438 8.28125 9.019531 8.292969 9.839844 8.089844 C 9.894531 8.113281 9.953125 8.136719 10.011719 8.152344 C 10.089844 8.171875 10.171875 8.183594 10.25 8.179688 C 10.308594 8.175781 10.359375 8.171875 10.414062 8.164062 C 10.464844 8.160156 10.519531 8.152344 10.566406 8.152344 C 10.59375 8.148438 10.625 8.148438 10.652344 8.148438 C 10.703125 8.140625 10.75 8.113281 10.789062 8.078125 C 10.890625 7.988281 10.953125 7.84375 10.984375 7.714844 C 11 7.648438 11.019531 7.546875 10.960938 7.492188 Z M 0.355469 5.496094 C 0.285156 5.511719 0.214844 5.480469 0.171875 5.421875 C 0.109375 5.328125 0.148438 5.207031 0.273438 5.207031 C 0.375 5.210938 0.484375 5.300781 0.515625 5.382812 C 0.484375 5.425781 0.425781 5.480469 0.355469 5.496094 Z M 5.445312 4.101562 C 5.460938 4.101562 5.472656 4.097656 5.480469 4.089844 C 5.519531 4.082031 5.558594 4.09375 5.59375 4.113281 C 5.570312 4.113281 5.546875 4.109375 5.523438 4.109375 C 5.496094 4.105469 5.472656 4.105469 5.445312 4.101562 Z M 5.445312 4.101562 "/>
</g>
</svg>
