<?xml version="1.0" encoding="UTF-8"?>
<svg xmlns="http://www.w3.org/2000/svg" xmlns:xlink="http://www.w3.org/1999/xlink" width="11" height="9.872495" viewBox="0 0 11 9.872495" version="1.1">
<g id="surface1">
<path style=" stroke:none;fill-rule:nonzero;fill:rgb(30%,30%,30%);fill-opacity:1;" d="M 3.464844 4.144531 C 3.507812 4.085938 3.582031 4.058594 3.652344 4.074219 C 3.722656 4.089844 3.78125 4.140625 3.800781 4.210938 L 4.425781 6.480469 L 5.351562 2.609375 C 5.371094 2.523438 5.453125 2.460938 5.542969 2.464844 C 5.632812 2.464844 5.707031 2.53125 5.726562 2.621094 L 6.402344 6.140625 L 7.0625 4.828125 C 7.09375 4.765625 7.160156 4.722656 7.234375 4.722656 L 10.167969 4.730469 C 10.65625 4.203125 11 3.628906 11 2.835938 C 11 1.269531 9.730469 0 8.164062 0 C 6.941406 0 5.894531 0.777344 5.5 1.867188 C 5.105469 0.777344 4.058594 0 2.835938 0 C 1.269531 0 0 1.269531 0 2.835938 C 0 3.582031 0.332031 4.183594 0.78125 4.707031 L 3.019531 4.710938 Z M 3.464844 4.144531 "/>
<path style=" stroke:none;fill-rule:nonzero;fill:rgb(30%,30%,30%);fill-opacity:1;" d="M 6.511719 6.65625 C 6.476562 6.726562 6.398438 6.769531 6.316406 6.757812 C 6.234375 6.746094 6.167969 6.683594 6.152344 6.605469 L 5.523438 3.316406 L 4.621094 7.085938 C 4.601562 7.171875 4.523438 7.230469 4.4375 7.234375 C 4.4375 7.234375 4.433594 7.234375 4.433594 7.234375 C 4.347656 7.234375 4.273438 7.175781 4.25 7.09375 L 3.554688 4.566406 L 3.238281 4.96875 C 3.203125 5.011719 3.148438 5.039062 3.089844 5.039062 L 3.085938 5.039062 L 1.085938 5.035156 C 1.507812 5.46875 1.984375 5.851562 2.355469 6.234375 C 3.203125 7.105469 3.332031 7.46875 5.453125 9.871094 C 7.210938 7.726562 7.316406 7.542969 8.515625 6.300781 C 8.960938 5.84375 9.433594 5.453125 9.84375 5.0625 L 7.320312 5.054688 Z M 6.511719 6.65625 "/>
</g>
</svg>
