<?xml version="1.0" encoding="UTF-8"?>
<svg xmlns="http://www.w3.org/2000/svg" xmlns:xlink="http://www.w3.org/1999/xlink" width="11" height="10.996076" viewBox="0 0 11 10.996076" version="1.1">
<g id="surface1">
<path style=" stroke:none;fill-rule:nonzero;fill:rgb(30%,30%,30%);fill-opacity:1;" d="M 10.339844 3.261719 C 10.273438 3.261719 10.203125 3.273438 10.136719 3.289062 C 10.1875 3.226562 10.214844 3.148438 10.214844 3.070312 C 10.214844 2.808594 9.925781 2.597656 9.570312 2.597656 C 9.445312 2.597656 9.328125 2.617188 9.230469 2.664062 C 9.152344 2.46875 8.898438 2.324219 8.605469 2.324219 C 8.5 2.324219 8.398438 2.34375 8.304688 2.378906 C 8.273438 2.230469 8.097656 2.117188 7.878906 2.117188 C 7.648438 2.117188 7.46875 2.242188 7.453125 2.40625 C 7.339844 2.351562 7.214844 2.324219 7.085938 2.324219 C 6.75 2.324219 6.46875 2.515625 6.441406 2.757812 C 6.273438 2.789062 6.132812 2.859375 6.039062 2.960938 C 5.964844 2.925781 5.878906 2.910156 5.792969 2.910156 C 5.519531 2.910156 5.296875 3.074219 5.296875 3.273438 C 5.296875 3.355469 5.332031 3.425781 5.394531 3.488281 C 5.246094 3.574219 5.148438 3.710938 5.148438 3.863281 C 5.148438 4.125 5.4375 4.332031 5.792969 4.332031 C 5.851562 4.332031 5.890625 4.332031 5.941406 4.320312 L 5.941406 4.332031 C 5.941406 4.539062 6.128906 4.714844 6.382812 4.777344 C 6.328125 4.851562 6.28125 4.910156 6.238281 4.953125 C 5.6875 5.46875 5.457031 5.519531 5.457031 5.519531 C 5.457031 5.519531 5.332031 5.066406 5.148438 4.546875 C 5.035156 4.238281 4.863281 3.976562 4.695312 3.550781 C 4.589844 3.289062 4.523438 2.921875 4.488281 2.648438 C 4.574219 2.675781 4.664062 2.6875 4.75 2.6875 C 5.109375 2.6875 5.398438 2.480469 5.398438 2.207031 C 5.398438 2.179688 5.398438 2.152344 5.390625 2.128906 C 5.5 2.179688 5.621094 2.207031 5.742188 2.207031 C 6.101562 2.207031 6.390625 2 6.390625 1.738281 C 6.390625 1.472656 6.101562 1.265625 5.742188 1.265625 L 5.726562 1.265625 C 5.734375 1.234375 5.742188 1.203125 5.742188 1.167969 C 5.742188 0.90625 5.453125 0.699219 5.097656 0.699219 C 5.046875 0.695312 4.996094 0.703125 4.945312 0.714844 C 4.910156 0.53125 4.699219 0.394531 4.441406 0.394531 C 4.402344 0.398438 4.363281 0.402344 4.324219 0.40625 C 4.28125 0.179688 4.011719 0 3.675781 0 C 3.34375 0 3.074219 0.179688 3.03125 0.40625 C 2.996094 0.40625 2.960938 0.402344 2.925781 0.402344 C 2.566406 0.402344 2.277344 0.613281 2.277344 0.875 C 2.277344 0.914062 2.28125 0.953125 2.296875 0.992188 L 2.277344 0.992188 C 1.921875 0.992188 1.628906 1.199219 1.628906 1.460938 C 1.632812 1.519531 1.644531 1.578125 1.675781 1.628906 C 1.386719 1.683594 1.175781 1.867188 1.175781 2.089844 C 1.175781 2.351562 1.464844 2.558594 1.824219 2.558594 C 1.863281 2.558594 1.902344 2.554688 1.941406 2.546875 L 1.941406 2.558594 C 1.941406 2.796875 2.210938 2.992188 2.53125 2.992188 C 2.746094 2.992188 2.933594 2.914062 3.039062 2.785156 C 3.15625 2.910156 3.355469 2.992188 3.578125 2.992188 C 3.703125 2.992188 3.824219 2.964844 3.9375 2.914062 C 3.972656 3.164062 4.023438 3.449219 4.105469 3.6875 C 4.203125 3.988281 4.363281 4.300781 4.449219 4.605469 C 4.652344 5.3125 4.898438 6.398438 4.738281 6.25 C 4.652344 6.167969 4.375 5.9375 4.132812 5.738281 C 4.226562 5.65625 4.28125 5.550781 4.28125 5.4375 C 4.28125 5.234375 4.097656 5.058594 3.863281 4.988281 C 3.910156 4.921875 3.941406 4.84375 3.941406 4.761719 C 3.941406 4.5 3.648438 4.292969 3.292969 4.292969 C 3.183594 4.292969 3.074219 4.3125 2.972656 4.355469 C 2.886719 4.164062 2.636719 4.019531 2.34375 4.019531 C 2.054688 4.019531 1.8125 4.152344 1.726562 4.339844 C 1.609375 4.265625 1.460938 4.226562 1.300781 4.226562 C 0.984375 4.226562 0.71875 4.390625 0.664062 4.605469 L 0.648438 4.605469 C 0.289062 4.605469 0 4.8125 0 5.078125 C 0 5.234375 0.113281 5.378906 0.28125 5.464844 C 0.25 5.519531 0.230469 5.582031 0.230469 5.644531 C 0.230469 5.90625 0.519531 6.117188 0.878906 6.117188 C 0.980469 6.117188 1.082031 6.097656 1.179688 6.0625 C 1.207031 6.304688 1.488281 6.492188 1.828125 6.492188 C 2.015625 6.492188 2.179688 6.4375 2.296875 6.347656 C 2.414062 6.4375 2.582031 6.492188 2.769531 6.492188 C 3.125 6.492188 3.414062 6.285156 3.414062 6.019531 C 3.414062 5.96875 3.402344 5.917969 3.378906 5.871094 C 3.417969 5.882812 3.460938 5.890625 3.503906 5.898438 C 3.71875 6.085938 4.035156 6.375 4.183594 6.578125 C 4.421875 6.902344 4.773438 7.414062 4.808594 7.78125 C 4.878906 8.609375 4.683594 9.761719 4.632812 10.152344 C 4.605469 10.40625 4.457031 10.714844 4.457031 10.714844 C 4.457031 10.714844 4.226562 10.996094 4.492188 10.996094 C 4.738281 10.992188 5.910156 10.996094 6.167969 10.996094 C 6.449219 10.996094 6.125 10.707031 6.0625 10.335938 C 5.992188 9.96875 5.894531 8.542969 5.875 8.082031 C 5.855469 7.625 5.792969 6.96875 5.742188 6.585938 C 5.695312 6.203125 6.523438 5.648438 6.875 5.179688 C 6.980469 5.03125 7.078125 4.882812 7.167969 4.726562 C 7.28125 4.777344 7.402344 4.804688 7.523438 4.800781 C 7.671875 4.804688 7.820312 4.761719 7.949219 4.683594 C 8.054688 4.84375 8.285156 4.960938 8.542969 4.960938 C 8.816406 4.960938 9.046875 4.832031 9.144531 4.660156 C 9.253906 4.722656 9.390625 4.757812 9.539062 4.757812 C 9.894531 4.757812 10.183594 4.550781 10.183594 4.289062 C 10.183594 4.257812 10.175781 4.226562 10.167969 4.199219 C 10.230469 4.214844 10.292969 4.21875 10.351562 4.21875 C 10.710938 4.21875 11 4.011719 11 3.746094 C 11 3.488281 10.710938 3.277344 10.339844 3.261719 Z M 10.339844 3.261719 "/>
</g>
</svg>
