<?xml version="1.0" encoding="UTF-8"?>
<svg xmlns="http://www.w3.org/2000/svg" xmlns:xlink="http://www.w3.org/1999/xlink" width="9.092631" height="11" viewBox="0 0 9.092631 11" version="1.1">
<g id="surface1">
<path style=" stroke:none;fill-rule:nonzero;fill:rgb(30%,30%,30%);fill-opacity:1;" d="M 0.03125 2.613281 C 0.03125 2.613281 0.910156 4.246094 2.378906 4.859375 L 3.597656 3.554688 C 3.597656 3.554688 3.539062 2.878906 3.539062 2.347656 C 3.539062 1.820312 3.878906 0.867188 3.878906 0.867188 C 3.878906 0.867188 2.746094 3.082031 0.03125 2.613281 "/>
<path style=" stroke:none;fill-rule:nonzero;fill:rgb(30%,30%,30%);fill-opacity:1;" d="M 4.640625 0 C 4.640625 0 3.820312 1.203125 3.949219 3.390625 L 5.800781 3.820312 C 5.800781 3.820312 6.609375 2.992188 8.0625 2.703125 C 8.0625 2.703125 5.285156 2.378906 4.640625 0 "/>
<path style=" stroke:none;fill-rule:nonzero;fill:rgb(30%,30%,30%);fill-opacity:1;" d="M 6.066406 4.066406 L 6.609375 5.785156 C 6.609375 5.785156 7.875 6.316406 8.695312 7.34375 C 8.695312 7.34375 8.34375 6.183594 8.34375 5.195312 C 8.34375 4.214844 9.09375 3.027344 9.09375 3.027344 C 9.09375 3.027344 7.8125 2.832031 6.066406 4.066406 "/>
<path style=" stroke:none;fill-rule:nonzero;fill:rgb(30%,30%,30%);fill-opacity:1;" d="M 6.582031 6.183594 C 6.582031 6.183594 8.402344 6.976562 8.988281 8.488281 C 8.988281 8.488281 6.464844 8.195312 5.230469 10.222656 C 5.230469 10.222656 5.597656 9.207031 5.480469 7.519531 C 5.480469 7.519531 6.257812 6.652344 6.582031 6.183594 "/>
<path style=" stroke:none;fill-rule:nonzero;fill:rgb(30%,30%,30%);fill-opacity:1;" d="M 3.214844 7.34375 L 5.113281 7.679688 C 5.113281 7.679688 5.375 9.664062 4.421875 11 C 4.421875 11 3.421875 8.738281 1.027344 8.472656 C 1.027344 8.472656 2.425781 8.125 3.214844 7.34375 "/>
<path style=" stroke:none;fill-rule:nonzero;fill:rgb(30%,30%,30%);fill-opacity:1;" d="M 2.410156 5.285156 L 2.96875 7.078125 C 2.96875 7.078125 1.910156 8.125 0 8.125 C 0 8.125 1.496094 6.503906 0.351562 3.730469 C 0.351562 3.730469 1.410156 4.992188 2.410156 5.285156 "/>
<path style=" stroke:none;fill-rule:nonzero;fill:rgb(30%,30%,30%);fill-opacity:1;" d="M 2.734375 5.039062 C 2.753906 4.945312 3.65625 3.804688 3.9375 3.773438 C 4.214844 3.742188 5.492188 4.035156 5.683594 4.171875 C 5.875 4.300781 6.257812 5.523438 6.289062 5.773438 C 6.316406 6.019531 5.417969 7.167969 5.257812 7.242188 C 5.097656 7.3125 3.585938 7.0625 3.347656 6.960938 C 3.113281 6.859375 2.6875 5.226562 2.734375 5.039062 "/>
</g>
</svg>
