<?xml version="1.0" encoding="UTF-8" standalone="no"?>
<!-- Created with Inkscape (http://www.inkscape.org/) -->

<svg
   xmlns:dc="http://purl.org/dc/elements/1.1/"
   xmlns:cc="http://creativecommons.org/ns#"
   xmlns:rdf="http://www.w3.org/1999/02/22-rdf-syntax-ns#"
   xmlns:svg="http://www.w3.org/2000/svg"
   xmlns="http://www.w3.org/2000/svg"
   xmlns:xlink="http://www.w3.org/1999/xlink"
   xmlns:sodipodi="http://sodipodi.sourceforge.net/DTD/sodipodi-0.dtd"
   xmlns:inkscape="http://www.inkscape.org/namespaces/inkscape"
   width="30px"
   height="30px"
   version="1.1"
   id="svg8"
   inkscape:version="0.92.4 5da689c313, 2019-01-14"
   sodipodi:docname="container.svg">
  <defs
     id="defs2" />
  <sodipodi:namedview
     id="base"
     pagecolor="#ffffff"
     bordercolor="#666666"
     borderopacity="1.0"
     inkscape:pageopacity="0.0"
     inkscape:pageshadow="2"
     inkscape:zoom="13.049334"
     inkscape:cx="18.679046"
     inkscape:cy="12.165829"
     inkscape:document-units="px"
     inkscape:current-layer="layer1"
     showgrid="false"
     inkscape:snap-page="false"
     units="px"
     inkscape:window-width="1884"
     inkscape:window-height="1061"
     inkscape:window-x="0"
     inkscape:window-y="0"
     inkscape:window-maximized="1"
     fit-margin-top="0"
     fit-margin-left="0"
     fit-margin-right="0"
     fit-margin-bottom="0" />
  <metadata
     id="metadata5">
    <rdf:RDF>
      <cc:Work
         rdf:about="">
        <dc:format>image/svg+xml</dc:format>
        <dc:type
           rdf:resource="http://purl.org/dc/dcmitype/StillImage" />
        <dc:title></dc:title>
      </cc:Work>
    </rdf:RDF>
  </metadata>
    <circle
       style="color:#000000;clip-rule:nonzero;display:inline;overflow:visible;visibility:visible;opacity:1;isolation:auto;mix-blend-mode:normal;color-interpolation:sRGB;color-interpolation-filters:linearRGB;solid-color:#000000;solid-opacity:1;vector-effect:none;fill:#ffffff;fill-opacity:1;fill-rule:evenodd;stroke:rgba(255, 255, 255, 1);stroke-width:1;stroke-linecap:butt;stroke-linejoin:miter;stroke-miterlimit:4;stroke-dasharray:none;stroke-dashoffset:0;stroke-opacity:1;marker:none;color-rendering:auto;image-rendering:auto;shape-rendering:auto;text-rendering:auto;enable-background:accumulate"
       id="path815"
       cx="15"
       cy="15"
       r="14.5" />
<g transform="translate(6,6)"><g id="surface1">
<path style=" stroke:none;fill-rule:nonzero;fill:rgb(30%,30%,30%);fill-opacity:1;" d="M 15.980469 5.039062 C 15.875 5.042969 15.769531 5.054688 15.667969 5.082031 C 15.746094 4.988281 15.789062 4.867188 15.789062 4.742188 C 15.789062 4.335938 15.339844 4.015625 14.789062 4.015625 C 14.59375 4.015625 14.417969 4.046875 14.269531 4.121094 C 14.144531 3.816406 13.753906 3.59375 13.296875 3.59375 C 13.140625 3.59375 12.980469 3.621094 12.832031 3.675781 C 12.785156 3.445312 12.515625 3.273438 12.175781 3.273438 C 11.820312 3.273438 11.542969 3.464844 11.515625 3.71875 C 11.339844 3.636719 11.148438 3.59375 10.953125 3.59375 C 10.433594 3.59375 9.996094 3.890625 9.953125 4.257812 C 9.695312 4.308594 9.476562 4.417969 9.335938 4.574219 C 9.214844 4.523438 9.085938 4.496094 8.953125 4.496094 C 8.53125 4.496094 8.183594 4.75 8.183594 5.058594 C 8.183594 5.1875 8.238281 5.296875 8.335938 5.390625 C 8.105469 5.523438 7.953125 5.738281 7.953125 5.96875 C 7.953125 6.375 8.402344 6.695312 8.953125 6.695312 C 9.046875 6.695312 9.105469 6.695312 9.183594 6.675781 L 9.183594 6.695312 C 9.183594 7.019531 9.46875 7.285156 9.863281 7.382812 C 9.78125 7.496094 9.703125 7.589844 9.640625 7.652344 C 8.789062 8.453125 8.433594 8.53125 8.433594 8.53125 C 8.433594 8.53125 8.238281 7.828125 7.953125 7.027344 C 7.777344 6.550781 7.519531 6.144531 7.257812 5.488281 C 7.09375 5.082031 6.992188 4.515625 6.9375 4.09375 C 7.066406 4.136719 7.207031 4.15625 7.34375 4.15625 C 7.894531 4.15625 8.34375 3.835938 8.34375 3.410156 C 8.34375 3.371094 8.339844 3.328125 8.332031 3.289062 C 8.5 3.371094 8.6875 3.410156 8.875 3.410156 C 9.425781 3.410156 9.875 3.089844 9.875 2.683594 C 9.875 2.277344 9.425781 1.957031 8.875 1.957031 L 8.851562 1.957031 C 8.863281 1.90625 8.871094 1.855469 8.875 1.804688 C 8.875 1.398438 8.425781 1.078125 7.875 1.078125 C 7.796875 1.078125 7.722656 1.085938 7.644531 1.101562 C 7.589844 0.824219 7.265625 0.613281 6.863281 0.613281 C 6.804688 0.613281 6.742188 0.621094 6.683594 0.628906 C 6.617188 0.277344 6.199219 0 5.683594 0 C 5.167969 0 4.75 0.277344 4.683594 0.628906 C 4.628906 0.625 4.574219 0.621094 4.519531 0.625 C 3.96875 0.625 3.519531 0.945312 3.519531 1.351562 C 3.519531 1.414062 3.527344 1.476562 3.550781 1.53125 L 3.519531 1.53125 C 2.96875 1.53125 2.519531 1.855469 2.519531 2.261719 C 2.523438 2.351562 2.542969 2.441406 2.585938 2.519531 C 2.144531 2.597656 1.816406 2.882812 1.816406 3.230469 C 1.816406 3.636719 2.265625 3.957031 2.816406 3.957031 C 2.878906 3.953125 2.9375 3.949219 3 3.9375 L 3 3.957031 C 3 4.320312 3.417969 4.621094 3.914062 4.621094 C 4.246094 4.621094 4.53125 4.5 4.695312 4.300781 C 4.878906 4.496094 5.1875 4.621094 5.53125 4.621094 C 5.722656 4.625 5.910156 4.582031 6.082031 4.503906 C 6.136719 4.886719 6.222656 5.328125 6.34375 5.699219 C 6.496094 6.160156 6.742188 6.644531 6.875 7.117188 C 7.191406 8.210938 7.574219 9.886719 7.324219 9.65625 C 7.1875 9.535156 6.761719 9.175781 6.390625 8.867188 C 6.53125 8.742188 6.617188 8.578125 6.617188 8.402344 C 6.617188 8.089844 6.332031 7.816406 5.96875 7.707031 C 6.046875 7.609375 6.089844 7.488281 6.089844 7.359375 C 6.089844 6.957031 5.640625 6.632812 5.089844 6.632812 C 4.917969 6.632812 4.75 6.667969 4.59375 6.730469 C 4.460938 6.433594 4.078125 6.210938 3.621094 6.210938 C 3.175781 6.210938 2.800781 6.414062 2.664062 6.707031 C 2.488281 6.589844 2.261719 6.53125 2.011719 6.53125 C 1.519531 6.53125 1.109375 6.785156 1.023438 7.117188 L 1 7.117188 C 0.449219 7.117188 0 7.441406 0 7.84375 C 0 8.089844 0.175781 8.3125 0.4375 8.445312 C 0.382812 8.527344 0.355469 8.625 0.359375 8.722656 C 0.359375 9.128906 0.804688 9.453125 1.355469 9.453125 C 1.515625 9.453125 1.675781 9.425781 1.824219 9.367188 C 1.867188 9.742188 2.300781 10.03125 2.824219 10.03125 C 3.113281 10.03125 3.367188 9.949219 3.550781 9.808594 C 3.730469 9.949219 3.992188 10.03125 4.277344 10.03125 C 4.828125 10.03125 5.277344 9.710938 5.277344 9.304688 C 5.273438 9.226562 5.253906 9.148438 5.222656 9.074219 C 5.285156 9.089844 5.347656 9.105469 5.414062 9.113281 C 5.746094 9.40625 6.234375 9.851562 6.464844 10.167969 C 6.832031 10.667969 7.378906 11.457031 7.433594 12.027344 C 7.542969 13.304688 7.238281 15.085938 7.160156 15.691406 C 7.117188 16.085938 6.886719 16.558594 6.886719 16.558594 C 6.886719 16.558594 6.53125 16.992188 6.941406 16.992188 C 7.324219 16.988281 9.136719 16.992188 9.53125 16.992188 C 9.964844 16.992188 9.464844 16.546875 9.367188 15.976562 C 9.261719 15.40625 9.113281 13.203125 9.082031 12.492188 C 9.050781 11.785156 8.953125 10.773438 8.875 10.179688 C 8.804688 9.585938 10.082031 8.730469 10.625 8.003906 C 10.789062 7.777344 10.941406 7.542969 11.078125 7.300781 C 11.25 7.382812 11.4375 7.421875 11.625 7.421875 C 11.859375 7.425781 12.085938 7.359375 12.285156 7.238281 C 12.449219 7.488281 12.800781 7.664062 13.203125 7.664062 C 13.625 7.664062 13.984375 7.46875 14.132812 7.203125 C 14.304688 7.300781 14.511719 7.355469 14.738281 7.355469 C 15.292969 7.355469 15.738281 7.035156 15.738281 6.628906 C 15.738281 6.582031 15.730469 6.535156 15.714844 6.488281 C 15.808594 6.511719 15.90625 6.519531 16 6.519531 C 16.550781 6.519531 17 6.199219 17 5.792969 C 17 5.390625 16.550781 5.066406 15.980469 5.039062 Z M 15.980469 5.039062 "/>
</g>
</g>
</svg>
