<?xml version="1.0" encoding="UTF-8"?>
<svg xmlns="http://www.w3.org/2000/svg" xmlns:xlink="http://www.w3.org/1999/xlink" width="11" height="9.878287" viewBox="0 0 11 9.878287" version="1.1">
<g id="surface1">
<path style=" stroke:none;fill-rule:nonzero;fill:rgb(30%,30%,30%);fill-opacity:1;" d="M 9.683594 6.738281 L 1.25 6.738281 C 1.90625 7.761719 2.914062 8.511719 4.082031 8.847656 C 3.394531 9.054688 2.753906 9.40625 2.214844 9.878906 L 8.796875 9.878906 C 8.246094 9.394531 7.59375 9.039062 6.890625 8.835938 C 8.042969 8.496094 9.03125 7.75 9.683594 6.738281 Z M 9.683594 6.738281 "/>
<path style=" stroke:none;fill-rule:nonzero;fill:rgb(30%,30%,30%);fill-opacity:1;" d="M 5.953125 2.214844 C 5.953125 2.464844 5.75 2.664062 5.5 2.664062 C 5.253906 2.664062 5.050781 2.464844 5.050781 2.214844 C 5.050781 1.96875 5.253906 1.765625 5.5 1.765625 C 5.75 1.765625 5.953125 1.96875 5.953125 2.214844 Z M 5.953125 2.214844 "/>
<path style=" stroke:none;fill-rule:nonzero;fill:rgb(30%,30%,30%);fill-opacity:1;" d="M 5.953125 3.445312 C 5.953125 3.695312 5.75 3.894531 5.5 3.894531 C 5.253906 3.894531 5.050781 3.695312 5.050781 3.445312 C 5.050781 3.199219 5.253906 2.996094 5.5 2.996094 C 5.75 2.996094 5.953125 3.199219 5.953125 3.445312 Z M 5.953125 3.445312 "/>
<path style=" stroke:none;fill-rule:nonzero;fill:rgb(30%,30%,30%);fill-opacity:1;" d="M 5.953125 4.816406 C 5.953125 5.066406 5.75 5.269531 5.5 5.269531 C 5.253906 5.269531 5.050781 5.066406 5.050781 4.816406 C 5.050781 4.570312 5.253906 4.367188 5.5 4.367188 C 5.75 4.367188 5.953125 4.570312 5.953125 4.816406 Z M 5.953125 4.816406 "/>
<path style=" stroke:none;fill-rule:nonzero;fill:rgb(30%,30%,30%);fill-opacity:1;" d="M 6.957031 5.824219 C 6.957031 6.070312 6.753906 6.273438 6.507812 6.273438 C 6.257812 6.273438 6.058594 6.070312 6.058594 5.824219 C 6.058594 5.574219 6.257812 5.375 6.507812 5.375 C 6.753906 5.375 6.957031 5.574219 6.957031 5.824219 Z M 6.957031 5.824219 "/>
<path style=" stroke:none;fill-rule:nonzero;fill:rgb(30%,30%,30%);fill-opacity:1;" d="M 4.933594 5.824219 C 4.933594 6.070312 4.734375 6.273438 4.484375 6.273438 C 4.234375 6.273438 4.035156 6.070312 4.035156 5.824219 C 4.035156 5.574219 4.234375 5.375 4.484375 5.375 C 4.734375 5.375 4.933594 5.574219 4.933594 5.824219 Z M 4.933594 5.824219 "/>
<path style=" stroke:none;fill-rule:nonzero;fill:rgb(30%,30%,30%);fill-opacity:1;" d="M 2.53125 4.652344 C 2.53125 4.902344 2.332031 5.101562 2.082031 5.101562 C 1.832031 5.101562 1.632812 4.902344 1.632812 4.652344 C 1.632812 4.402344 1.832031 4.203125 2.082031 4.203125 C 2.332031 4.203125 2.53125 4.402344 2.53125 4.652344 Z M 2.53125 4.652344 "/>
<path style=" stroke:none;fill-rule:nonzero;fill:rgb(30%,30%,30%);fill-opacity:1;" d="M 9.464844 4.652344 C 9.464844 4.902344 9.261719 5.101562 9.015625 5.101562 C 8.765625 5.101562 8.566406 4.902344 8.566406 4.652344 C 8.566406 4.402344 8.765625 4.203125 9.015625 4.203125 C 9.261719 4.203125 9.464844 4.402344 9.464844 4.652344 Z M 9.464844 4.652344 "/>
<path style=" stroke:none;fill-rule:nonzero;fill:rgb(30%,30%,30%);fill-opacity:1;" d="M 7.523438 4.652344 C 7.523438 4.902344 7.324219 5.101562 7.074219 5.101562 C 6.828125 5.101562 6.625 4.902344 6.625 4.652344 C 6.625 4.402344 6.828125 4.203125 7.074219 4.203125 C 7.324219 4.203125 7.523438 4.402344 7.523438 4.652344 Z M 7.523438 4.652344 "/>
<path style=" stroke:none;fill-rule:nonzero;fill:rgb(30%,30%,30%);fill-opacity:1;" d="M 4.378906 4.652344 C 4.378906 4.902344 4.175781 5.101562 3.929688 5.101562 C 3.679688 5.101562 3.480469 4.902344 3.480469 4.652344 C 3.480469 4.402344 3.679688 4.203125 3.929688 4.203125 C 4.175781 4.203125 4.378906 4.402344 4.378906 4.652344 Z M 4.378906 4.652344 "/>
<path style=" stroke:none;fill-rule:nonzero;fill:rgb(30%,30%,30%);fill-opacity:1;" d="M 3.433594 3.988281 C 3.433594 4.238281 3.230469 4.441406 2.980469 4.441406 C 2.734375 4.441406 2.53125 4.238281 2.53125 3.988281 C 2.53125 3.742188 2.734375 3.539062 2.980469 3.539062 C 3.230469 3.539062 3.433594 3.742188 3.433594 3.988281 Z M 3.433594 3.988281 "/>
<path style=" stroke:none;fill-rule:nonzero;fill:rgb(30%,30%,30%);fill-opacity:1;" d="M 8.460938 3.988281 C 8.460938 4.238281 8.257812 4.441406 8.007812 4.441406 C 7.761719 4.441406 7.558594 4.238281 7.558594 3.988281 C 7.558594 3.742188 7.761719 3.539062 8.007812 3.539062 C 8.257812 3.539062 8.460938 3.742188 8.460938 3.988281 Z M 8.460938 3.988281 "/>
<path style=" stroke:none;fill-rule:nonzero;fill:rgb(30%,30%,30%);fill-opacity:1;" d="M 5.882812 1.1875 L 5.484375 0.996094 L 5.101562 1.21875 L 5.160156 0.777344 L 4.832031 0.484375 L 5.269531 0.402344 L 5.449219 0 L 5.660156 0.390625 L 6.097656 0.4375 L 5.792969 0.757812 Z M 5.882812 1.1875 "/>
<path style=" stroke:none;fill-rule:nonzero;fill:rgb(30%,30%,30%);fill-opacity:1;" d="M 1.050781 4.628906 L 0.652344 4.441406 L 0.269531 4.660156 L 0.328125 4.222656 L 0 3.925781 L 0.433594 3.84375 L 0.617188 3.441406 L 0.824219 3.832031 L 1.265625 3.878906 L 0.960938 4.199219 Z M 1.050781 4.628906 "/>
<path style=" stroke:none;fill-rule:nonzero;fill:rgb(30%,30%,30%);fill-opacity:1;" d="M 10.785156 4.394531 L 10.386719 4.203125 L 10.003906 4.421875 L 10.0625 3.984375 L 9.734375 3.6875 L 10.167969 3.609375 L 10.351562 3.207031 L 10.5625 3.59375 L 11 3.640625 L 10.695312 3.960938 Z M 10.785156 4.394531 "/>
</g>
</svg>
