<?xml version="1.0" encoding="UTF-8" standalone="no"?>
<!-- Created with Inkscape (http://www.inkscape.org/) -->

<svg
   xmlns:dc="http://purl.org/dc/elements/1.1/"
   xmlns:cc="http://creativecommons.org/ns#"
   xmlns:rdf="http://www.w3.org/1999/02/22-rdf-syntax-ns#"
   xmlns:svg="http://www.w3.org/2000/svg"
   xmlns="http://www.w3.org/2000/svg"
   xmlns:xlink="http://www.w3.org/1999/xlink"
   xmlns:sodipodi="http://sodipodi.sourceforge.net/DTD/sodipodi-0.dtd"
   xmlns:inkscape="http://www.inkscape.org/namespaces/inkscape"
   width="30px"
   height="30px"
   version="1.1"
   id="svg8"
   inkscape:version="0.92.4 5da689c313, 2019-01-14"
   sodipodi:docname="container.svg">
  <defs
     id="defs2" />
  <sodipodi:namedview
     id="base"
     pagecolor="#ffffff"
     bordercolor="#666666"
     borderopacity="1.0"
     inkscape:pageopacity="0.0"
     inkscape:pageshadow="2"
     inkscape:zoom="13.049334"
     inkscape:cx="18.679046"
     inkscape:cy="12.165829"
     inkscape:document-units="px"
     inkscape:current-layer="layer1"
     showgrid="false"
     inkscape:snap-page="false"
     units="px"
     inkscape:window-width="1884"
     inkscape:window-height="1061"
     inkscape:window-x="0"
     inkscape:window-y="0"
     inkscape:window-maximized="1"
     fit-margin-top="0"
     fit-margin-left="0"
     fit-margin-right="0"
     fit-margin-bottom="0" />
  <metadata
     id="metadata5">
    <rdf:RDF>
      <cc:Work
         rdf:about="">
        <dc:format>image/svg+xml</dc:format>
        <dc:type
           rdf:resource="http://purl.org/dc/dcmitype/StillImage" />
        <dc:title></dc:title>
      </cc:Work>
    </rdf:RDF>
  </metadata>
    <circle
       style="color:#000000;clip-rule:nonzero;display:inline;overflow:visible;visibility:visible;opacity:1;isolation:auto;mix-blend-mode:normal;color-interpolation:sRGB;color-interpolation-filters:linearRGB;solid-color:#000000;solid-opacity:1;vector-effect:none;fill:#ffffff;fill-opacity:1;fill-rule:evenodd;stroke:rgba(255, 255, 255, 1);stroke-width:1;stroke-linecap:butt;stroke-linejoin:miter;stroke-miterlimit:4;stroke-dasharray:none;stroke-dashoffset:0;stroke-opacity:1;marker:none;color-rendering:auto;image-rendering:auto;shape-rendering:auto;text-rendering:auto;enable-background:accumulate"
       id="path815"
       cx="15"
       cy="15"
       r="14.5" />
<g transform="translate(6,6)"><g id="surface1">
<path style=" stroke:none;fill-rule:nonzero;fill:rgb(30%,30%,30%);fill-opacity:1;" d="M 11.871094 2.777344 L 16.023438 2.777344 C 16.152344 2.800781 16.8125 3.675781 16.207031 5.308594 C 15.917969 6.082031 15.324219 6.519531 15.066406 6.519531 C 14.917969 6.519531 12.589844 4.136719 11.691406 3.199219 C 11.558594 3.058594 11.503906 2.777344 11.871094 2.777344 Z M 9.5625 3.777344 L 9.75 3.445312 C 9.824219 3.316406 9.964844 3.238281 10.113281 3.242188 L 11.304688 3.234375 C 11.113281 2.597656 10.605469 2.132812 9.90625 2.132812 C 9.054688 2.132812 8.367188 2.824219 8.367188 3.675781 C 8.367188 3.789062 8.417969 3.898438 8.4375 4.003906 L 9.246094 4.003906 C 9.410156 4.003906 9.480469 3.917969 9.5625 3.777344 Z M 10.019531 3.527344 C 9.945312 3.527344 9.921875 3.769531 9.871094 3.859375 L 9.761719 4.042969 C 9.707031 4.140625 9.511719 4.257812 9.398438 4.257812 L 8.917969 4.261719 C 8.917969 4.519531 9.578125 4.8125 9.914062 4.800781 C 10.503906 4.785156 11.007812 4.226562 11.042969 3.75 C 11.054688 3.644531 11.042969 3.636719 11.042969 3.527344 Z M 4.75 6.613281 L 7.277344 4.5625 C 7.464844 4.410156 7.492188 4.132812 7.339844 3.945312 L 6.714844 3.179688 C 6.566406 2.992188 6.289062 2.964844 6.101562 3.117188 L 3.574219 5.167969 C 3.386719 5.320312 3.359375 5.597656 3.511719 5.785156 L 4.136719 6.550781 C 4.289062 6.738281 4.566406 6.765625 4.75 6.613281 Z M 11.523438 9.480469 L 9.902344 8.195312 L 9.121094 5.824219 C 8.570312 4.980469 7.726562 4.796875 7.027344 5.3125 L 4.199219 7.585938 C 4.078125 7.683594 3.992188 7.8125 3.953125 7.960938 C 3.621094 9.226562 3.277344 10.765625 3.117188 11.539062 C 3.097656 11.554688 3.082031 11.570312 3.066406 11.582031 L 0.894531 13.753906 C 0.5625 14.085938 0.5625 14.625 0.894531 14.957031 C 1.222656 15.285156 1.765625 15.285156 2.097656 14.957031 L 4.273438 12.800781 C 4.785156 12.433594 4.976562 10.242188 5.117188 10.230469 L 6.695312 11.917969 L 6.695312 14.5625 C 6.695312 14.988281 7.042969 15.335938 7.46875 15.335938 C 7.890625 15.335938 8.238281 14.988281 8.238281 14.5625 L 8.3125 11.847656 C 8.277344 11.554688 8.277344 11.15625 8.078125 10.953125 L 6.34375 9.222656 L 8.316406 7.660156 C 8.316406 7.660156 8.773438 8.898438 8.902344 8.945312 L 10.703125 10.515625 C 10.988281 10.742188 11.402344 10.691406 11.625 10.410156 L 11.632812 10.402344 C 11.851562 10.117188 11.804688 9.703125 11.523438 9.480469 Z M 11.523438 9.480469 "/>
</g>
</g>
</svg>
