<?xml version="1.0" encoding="UTF-8"?>
<svg xmlns="http://www.w3.org/2000/svg" xmlns:xlink="http://www.w3.org/1999/xlink" width="11" height="11" viewBox="0 0 11 11" version="1.1">
<g id="surface1">
<path style=" stroke:none;fill-rule:nonzero;fill:rgb(30%,30%,30%);fill-opacity:1;" d="M 7.683594 1.796875 L 10.367188 1.796875 C 10.449219 1.8125 10.878906 2.378906 10.484375 3.433594 C 10.300781 3.9375 9.917969 4.21875 9.75 4.21875 C 9.652344 4.21875 8.144531 2.675781 7.566406 2.070312 C 7.480469 1.980469 7.445312 1.796875 7.683594 1.796875 Z M 6.1875 2.441406 L 6.308594 2.230469 C 6.359375 2.144531 6.449219 2.09375 6.542969 2.097656 L 7.3125 2.09375 C 7.191406 1.679688 6.863281 1.378906 6.410156 1.378906 C 5.859375 1.378906 5.414062 1.828125 5.414062 2.378906 C 5.414062 2.453125 5.445312 2.523438 5.460938 2.589844 L 5.984375 2.589844 C 6.089844 2.589844 6.132812 2.535156 6.1875 2.441406 Z M 6.480469 2.285156 C 6.433594 2.285156 6.421875 2.441406 6.386719 2.496094 L 6.316406 2.617188 C 6.28125 2.679688 6.15625 2.753906 6.082031 2.753906 L 5.769531 2.757812 C 5.769531 2.921875 6.199219 3.113281 6.414062 3.109375 C 6.796875 3.09375 7.125 2.734375 7.148438 2.425781 C 7.152344 2.355469 7.148438 2.355469 7.148438 2.28125 L 6.480469 2.28125 Z M 3.074219 4.277344 L 4.707031 2.953125 C 4.828125 2.851562 4.847656 2.675781 4.75 2.554688 L 4.347656 2.058594 C 4.25 1.9375 4.070312 1.917969 3.949219 2.015625 L 2.3125 3.34375 C 2.191406 3.441406 2.171875 3.621094 2.273438 3.742188 L 2.675781 4.238281 C 2.773438 4.359375 2.953125 4.375 3.074219 4.277344 Z M 7.457031 6.132812 L 6.40625 5.300781 L 5.902344 3.769531 C 5.546875 3.222656 5 3.101562 4.546875 3.4375 L 2.71875 4.90625 C 2.640625 4.972656 2.582031 5.054688 2.558594 5.152344 C 2.34375 5.972656 2.121094 6.964844 2.015625 7.464844 C 2.003906 7.476562 1.996094 7.484375 1.984375 7.496094 L 0.578125 8.898438 C 0.363281 9.113281 0.363281 9.464844 0.578125 9.679688 C 0.792969 9.890625 1.140625 9.890625 1.355469 9.679688 L 2.765625 8.28125 C 3.097656 8.046875 3.21875 6.625 3.3125 6.621094 L 4.332031 7.710938 L 4.332031 9.421875 C 4.332031 9.699219 4.558594 9.921875 4.832031 9.921875 C 5.105469 9.921875 5.332031 9.699219 5.332031 9.421875 L 5.378906 7.664062 C 5.355469 7.476562 5.355469 7.21875 5.226562 7.089844 L 4.105469 5.964844 L 5.382812 4.957031 C 5.382812 4.957031 5.675781 5.757812 5.757812 5.789062 L 6.925781 6.804688 C 7.109375 6.949219 7.378906 6.917969 7.523438 6.734375 L 7.527344 6.730469 C 7.667969 6.546875 7.636719 6.277344 7.457031 6.132812 Z M 7.457031 6.132812 "/>
</g>
</svg>
