<?xml version="1.0" encoding="UTF-8" standalone="no"?>
<!-- Created with Inkscape (http://www.inkscape.org/) -->

<svg
   xmlns:dc="http://purl.org/dc/elements/1.1/"
   xmlns:cc="http://creativecommons.org/ns#"
   xmlns:rdf="http://www.w3.org/1999/02/22-rdf-syntax-ns#"
   xmlns:svg="http://www.w3.org/2000/svg"
   xmlns="http://www.w3.org/2000/svg"
   xmlns:xlink="http://www.w3.org/1999/xlink"
   xmlns:sodipodi="http://sodipodi.sourceforge.net/DTD/sodipodi-0.dtd"
   xmlns:inkscape="http://www.inkscape.org/namespaces/inkscape"
   width="30px"
   height="30px"
   version="1.1"
   id="svg8"
   inkscape:version="0.92.4 5da689c313, 2019-01-14"
   sodipodi:docname="container.svg">
  <defs
     id="defs2" />
  <sodipodi:namedview
     id="base"
     pagecolor="#ffffff"
     bordercolor="#666666"
     borderopacity="1.0"
     inkscape:pageopacity="0.0"
     inkscape:pageshadow="2"
     inkscape:zoom="13.049334"
     inkscape:cx="18.679046"
     inkscape:cy="12.165829"
     inkscape:document-units="px"
     inkscape:current-layer="layer1"
     showgrid="false"
     inkscape:snap-page="false"
     units="px"
     inkscape:window-width="1884"
     inkscape:window-height="1061"
     inkscape:window-x="0"
     inkscape:window-y="0"
     inkscape:window-maximized="1"
     fit-margin-top="0"
     fit-margin-left="0"
     fit-margin-right="0"
     fit-margin-bottom="0" />
  <metadata
     id="metadata5">
    <rdf:RDF>
      <cc:Work
         rdf:about="">
        <dc:format>image/svg+xml</dc:format>
        <dc:type
           rdf:resource="http://purl.org/dc/dcmitype/StillImage" />
        <dc:title></dc:title>
      </cc:Work>
    </rdf:RDF>
  </metadata>
    <circle
       style="color:#000000;clip-rule:nonzero;display:inline;overflow:visible;visibility:visible;opacity:1;isolation:auto;mix-blend-mode:normal;color-interpolation:sRGB;color-interpolation-filters:linearRGB;solid-color:#000000;solid-opacity:1;vector-effect:none;fill:#008a1e;fill-opacity:1;fill-rule:evenodd;stroke:#ffffff;stroke-width:1;stroke-linecap:butt;stroke-linejoin:miter;stroke-miterlimit:4;stroke-dasharray:none;stroke-dashoffset:0;stroke-opacity:1;marker:none;color-rendering:auto;image-rendering:auto;shape-rendering:auto;text-rendering:auto;enable-background:accumulate"
       id="path815"
       cx="15"
       cy="15"
       r="14.5" />
<g transform="translate(6.5,6.5)"><path fill-rule="nonzero" fill="#FFFFFF" fill-opacity="1" d="M 11.644531 6.707031 C 11.644531 8.582031 10.128906 10.101562 8.253906 10.101562 C 6.382812 10.101562 4.863281 8.582031 4.863281 6.707031 C 4.863281 4.835938 6.382812 3.316406 8.253906 3.316406 C 10.128906 3.316406 11.644531 4.835938 11.644531 6.707031 Z M 11.644531 6.707031 "/>
<path fill-rule="nonzero" fill="#FFFFFF" fill-opacity="1" d="M 8.253906 2.453125 C 8.4375 2.25 8.527344 2.042969 8.597656 1.839844 C 8.660156 1.636719 8.691406 1.429688 8.6875 1.226562 C 8.6875 1.023438 8.660156 0.816406 8.597656 0.613281 C 8.527344 0.410156 8.4375 0.203125 8.253906 0 C 8.074219 0.203125 7.984375 0.410156 7.914062 0.613281 C 7.847656 0.816406 7.820312 1.023438 7.820312 1.226562 C 7.820312 1.429688 7.847656 1.636719 7.914062 1.839844 C 7.980469 2.042969 8.070312 2.25 8.253906 2.453125 Z M 8.253906 2.453125 "/>
<path fill-rule="nonzero" fill="#FFFFFF" fill-opacity="1" d="M 2.773438 7.144531 C 2.976562 7.144531 3.179688 7.117188 3.386719 7.050781 C 3.589844 6.980469 3.792969 6.890625 4 6.707031 C 3.792969 6.527344 3.589844 6.433594 3.386719 6.367188 C 3.179688 6.300781 2.976562 6.273438 2.773438 6.273438 C 2.566406 6.273438 2.363281 6.300781 2.160156 6.367188 C 1.953125 6.4375 1.75 6.527344 1.546875 6.707031 C 1.75 6.890625 1.953125 6.980469 2.160156 7.050781 C 2.363281 7.113281 2.566406 7.140625 2.773438 7.144531 Z M 2.773438 7.144531 "/>
<path fill-rule="nonzero" fill="#FFFFFF" fill-opacity="1" d="M 13.125 7.050781 C 13.328125 7.117188 13.53125 7.144531 13.738281 7.144531 C 13.941406 7.140625 14.144531 7.113281 14.351562 7.050781 C 14.554688 6.980469 14.757812 6.890625 14.964844 6.707031 C 14.757812 6.527344 14.554688 6.4375 14.351562 6.367188 C 14.144531 6.300781 13.941406 6.273438 13.738281 6.273438 C 13.53125 6.273438 13.328125 6.300781 13.125 6.367188 C 12.917969 6.433594 12.714844 6.527344 12.511719 6.707031 C 12.714844 6.890625 12.917969 6.980469 13.125 7.050781 Z M 13.125 7.050781 "/>
<path fill-rule="nonzero" fill="#FFFFFF" fill-opacity="1" d="M 4.070312 3.140625 C 4.214844 3.285156 4.378906 3.410156 4.570312 3.507812 C 4.761719 3.601562 4.972656 3.683594 5.246094 3.699219 C 5.230469 3.425781 5.148438 3.214844 5.054688 3.023438 C 4.953125 2.832031 4.828125 2.667969 4.683594 2.523438 C 4.539062 2.378906 4.375 2.253906 4.1875 2.15625 C 3.992188 2.0625 3.785156 1.980469 3.511719 1.964844 C 3.527344 2.238281 3.609375 2.445312 3.703125 2.640625 C 3.800781 2.828125 3.925781 2.992188 4.070312 3.140625 Z M 4.070312 3.140625 "/>
<path fill-rule="nonzero" fill="#FFFFFF" fill-opacity="1" d="M 12.4375 3.140625 C 12.582031 2.992188 12.707031 2.828125 12.804688 2.640625 C 12.902344 2.445312 12.984375 2.238281 13 1.964844 C 12.726562 1.980469 12.515625 2.0625 12.324219 2.15625 C 12.132812 2.257812 11.96875 2.378906 11.824219 2.523438 C 11.679688 2.667969 11.554688 2.832031 11.457031 3.023438 C 11.359375 3.214844 11.28125 3.425781 11.265625 3.699219 C 11.539062 3.683594 11.746094 3.601562 11.941406 3.507812 C 12.128906 3.410156 12.292969 3.285156 12.4375 3.140625 Z M 12.4375 3.140625 "/>
<path fill-rule="nonzero" fill="#FFFFFF" fill-opacity="1" d="M 8.15625 17 L 11.433594 17 C 6.96875 10.070312 0.0117188 8.347656 0.0117188 8.347656 L 0.0117188 10.476562 C 5.417969 12.480469 8.15625 17 8.15625 17 Z M 8.15625 17 "/>
<path fill-rule="nonzero" fill="#FFFFFF" fill-opacity="1" d="M 3.039062 17 L 6.328125 17 C 3.269531 13.0625 0.0117188 12.082031 0.0117188 12.082031 L 0 17 Z M 3.039062 17 "/>
<path fill-rule="nonzero" fill="#FFFFFF" fill-opacity="1" d="M 11.203125 13.925781 C 12.570312 12.621094 14.285156 11.441406 16.667969 10.585938 L 16.667969 8.347656 C 16.667969 8.347656 13.1875 9.199219 9.578125 12.140625 C 10.089844 12.667969 10.554688 13.179688 11.203125 13.925781 Z M 11.203125 13.925781 "/>
<path fill-rule="nonzero" fill="#FFFFFF" fill-opacity="1" d="M 16.667969 17 C 16.699219 17.03125 16.667969 12.082031 16.667969 12.082031 C 16.667969 12.082031 14.550781 12.710938 12.132812 15.003906 C 12.648438 15.632812 13.160156 16.316406 13.632812 17 C 13.632812 17 16.636719 16.96875 16.667969 17 Z M 16.667969 17 "/>
</g>
</svg>
