<?xml version="1.0" encoding="UTF-8"?>
<svg xmlns="http://www.w3.org/2000/svg" xmlns:xlink="http://www.w3.org/1999/xlink" width="10.79419" height="11" viewBox="0 0 10.79419 11">
<path fill-rule="nonzero" fill="rgb(30%,30%,30%)" fill-opacity="1" d="M 7.535156 4.339844 C 7.535156 5.554688 6.554688 6.535156 5.339844 6.535156 C 4.128906 6.535156 3.148438 5.554688 3.148438 4.339844 C 3.148438 3.128906 4.128906 2.144531 5.339844 2.144531 C 6.554688 2.144531 7.535156 3.128906 7.535156 4.339844 Z M 7.535156 4.339844 "/>
<path fill-rule="nonzero" fill="rgb(30%,30%,30%)" fill-opacity="1" d="M 5.339844 1.585938 C 5.460938 1.453125 5.519531 1.324219 5.5625 1.191406 C 5.605469 1.058594 5.621094 0.925781 5.621094 0.792969 C 5.621094 0.660156 5.605469 0.527344 5.5625 0.398438 C 5.515625 0.265625 5.460938 0.132812 5.339844 0 C 5.222656 0.132812 5.164062 0.265625 5.121094 0.398438 C 5.078125 0.527344 5.0625 0.660156 5.058594 0.792969 C 5.058594 0.925781 5.078125 1.058594 5.121094 1.191406 C 5.164062 1.324219 5.222656 1.453125 5.339844 1.585938 Z M 5.339844 1.585938 "/>
<path fill-rule="nonzero" fill="rgb(30%,30%,30%)" fill-opacity="1" d="M 1.792969 4.621094 C 1.925781 4.621094 2.058594 4.605469 2.191406 4.5625 C 2.324219 4.519531 2.453125 4.460938 2.585938 4.339844 C 2.453125 4.222656 2.324219 4.164062 2.191406 4.121094 C 2.058594 4.078125 1.925781 4.058594 1.792969 4.058594 C 1.660156 4.058594 1.527344 4.078125 1.398438 4.121094 C 1.265625 4.164062 1.132812 4.222656 1 4.339844 C 1.132812 4.457031 1.265625 4.515625 1.398438 4.5625 C 1.527344 4.601562 1.660156 4.621094 1.792969 4.621094 Z M 1.792969 4.621094 "/>
<path fill-rule="nonzero" fill="rgb(30%,30%,30%)" fill-opacity="1" d="M 8.492188 4.5625 C 8.625 4.605469 8.757812 4.621094 8.890625 4.621094 C 9.019531 4.621094 9.152344 4.605469 9.285156 4.5625 C 9.417969 4.515625 9.550781 4.457031 9.683594 4.339844 C 9.550781 4.222656 9.417969 4.164062 9.285156 4.121094 C 9.152344 4.078125 9.019531 4.058594 8.890625 4.058594 C 8.757812 4.058594 8.625 4.078125 8.492188 4.121094 C 8.359375 4.164062 8.226562 4.222656 8.09375 4.339844 C 8.226562 4.460938 8.359375 4.519531 8.492188 4.5625 Z M 8.492188 4.5625 "/>
<path fill-rule="nonzero" fill="rgb(30%,30%,30%)" fill-opacity="1" d="M 2.632812 2.03125 C 2.726562 2.125 2.832031 2.207031 2.957031 2.269531 C 3.082031 2.332031 3.214844 2.382812 3.394531 2.394531 C 3.382812 2.214844 3.332031 2.082031 3.269531 1.957031 C 3.207031 1.832031 3.125 1.726562 3.03125 1.632812 C 2.9375 1.539062 2.832031 1.460938 2.707031 1.394531 C 2.582031 1.332031 2.449219 1.28125 2.273438 1.269531 C 2.28125 1.449219 2.335938 1.582031 2.394531 1.707031 C 2.460938 1.832031 2.539062 1.9375 2.632812 2.03125 Z M 2.632812 2.03125 "/>
<path fill-rule="nonzero" fill="rgb(30%,30%,30%)" fill-opacity="1" d="M 8.046875 2.03125 C 8.140625 1.9375 8.222656 1.832031 8.285156 1.707031 C 8.347656 1.582031 8.402344 1.449219 8.410156 1.269531 C 8.234375 1.28125 8.097656 1.332031 7.972656 1.394531 C 7.851562 1.460938 7.746094 1.539062 7.652344 1.632812 C 7.558594 1.726562 7.476562 1.832031 7.414062 1.957031 C 7.351562 2.082031 7.296875 2.214844 7.289062 2.394531 C 7.464844 2.382812 7.601562 2.332031 7.726562 2.269531 C 7.847656 2.207031 7.957031 2.125 8.046875 2.03125 Z M 8.046875 2.03125 "/>
<path fill-rule="nonzero" fill="rgb(30%,30%,30%)" fill-opacity="1" d="M 5.277344 11 L 7.398438 11 C 4.507812 6.515625 0.0078125 5.402344 0.0078125 5.402344 L 0.0078125 6.777344 C 3.503906 8.078125 5.277344 11 5.277344 11 Z M 5.277344 11 "/>
<path fill-rule="nonzero" fill="rgb(30%,30%,30%)" fill-opacity="1" d="M 1.964844 11 L 4.09375 11 C 2.113281 8.453125 0.0078125 7.816406 0.0078125 7.816406 L 0 11 Z M 1.964844 11 "/>
<path fill-rule="nonzero" fill="rgb(30%,30%,30%)" fill-opacity="1" d="M 7.25 9.011719 C 8.132812 8.167969 9.246094 7.402344 10.785156 6.847656 L 10.785156 5.402344 C 10.785156 5.402344 8.535156 5.953125 6.195312 7.855469 C 6.527344 8.199219 6.832031 8.527344 7.25 9.011719 Z M 7.25 9.011719 "/>
<path fill-rule="nonzero" fill="rgb(30%,30%,30%)" fill-opacity="1" d="M 10.785156 11 C 10.804688 11.019531 10.785156 7.816406 10.785156 7.816406 C 10.785156 7.816406 9.414062 8.222656 7.851562 9.707031 C 8.183594 10.117188 8.515625 10.558594 8.820312 11 C 8.820312 11 10.765625 10.980469 10.785156 11 Z M 10.785156 11 "/>
</svg>
