<?xml version="1.0" encoding="UTF-8"?>
<svg xmlns="http://www.w3.org/2000/svg" xmlns:xlink="http://www.w3.org/1999/xlink" width="6.826897" height="11" viewBox="0 0 6.826897 11">
<path fill-rule="nonzero" fill="rgb(30%,30%,30%)" fill-opacity="1" d="M 5.742188 11 L 1.085938 11 C 0.953125 11 0.828125 10.929688 0.761719 10.8125 C 0.492188 10.335938 -0.0078125 9.546875 0 8.570312 C -0.0078125 8.082031 0.527344 4.867188 0.953125 4.867188 L 5.925781 4.867188 C 6.1875 4.867188 6.828125 7.355469 6.828125 8.570312 C 6.828125 8.746094 6.523438 11 5.742188 11 Z M 5.484375 5.660156 C 5.085938 5.542969 1.546875 5.460938 1.332031 5.660156 C 1.113281 5.855469 0.578125 8.355469 0.578125 8.355469 L 6.347656 8.355469 C 6.347656 8.355469 5.882812 5.773438 5.484375 5.660156 Z M 5.484375 5.660156 "/>
<path fill-rule="nonzero" fill="rgb(30%,30%,30%)" fill-opacity="1" d="M 2.878906 3.929688 L 4.0625 3.929688 C 4.429688 3.929688 4.730469 4.230469 4.730469 4.597656 L 2.210938 4.597656 C 2.210938 4.230469 2.511719 3.929688 2.878906 3.929688 Z M 2.878906 3.929688 "/>
<path fill-rule="nonzero" fill="rgb(30%,30%,30%)" fill-opacity="1" d="M 5.605469 2.316406 L 0.511719 0.015625 C 0.421875 -0.0234375 0.316406 0.015625 0.273438 0.105469 C 0.234375 0.195312 0.273438 0.304688 0.363281 0.34375 L 2.414062 1.273438 C 2.347656 3.082031 2.5625 3.40625 3.1875 3.851562 C 3.21875 3.875 3.253906 3.886719 3.292969 3.886719 C 3.347656 3.886719 3.402344 3.859375 3.4375 3.8125 C 3.496094 3.730469 3.476562 3.617188 3.398438 3.558594 C 2.941406 3.230469 2.722656 3.074219 2.769531 1.433594 L 5.457031 2.644531 C 5.480469 2.65625 5.503906 2.660156 5.53125 2.660156 C 5.597656 2.660156 5.664062 2.621094 5.695312 2.554688 C 5.734375 2.464844 5.695312 2.359375 5.605469 2.316406 Z M 5.605469 2.316406 "/>
</svg>
