<?xml version="1.0" encoding="UTF-8" standalone="no"?>
<!-- Created with Inkscape (http://www.inkscape.org/) -->

<svg
   xmlns:dc="http://purl.org/dc/elements/1.1/"
   xmlns:cc="http://creativecommons.org/ns#"
   xmlns:rdf="http://www.w3.org/1999/02/22-rdf-syntax-ns#"
   xmlns:svg="http://www.w3.org/2000/svg"
   xmlns="http://www.w3.org/2000/svg"
   xmlns:xlink="http://www.w3.org/1999/xlink"
   xmlns:sodipodi="http://sodipodi.sourceforge.net/DTD/sodipodi-0.dtd"
   xmlns:inkscape="http://www.inkscape.org/namespaces/inkscape"
   width="30px"
   height="30px"
   version="1.1"
   id="svg8"
   inkscape:version="0.92.4 5da689c313, 2019-01-14"
   sodipodi:docname="container.svg">
  <defs
     id="defs2" />
  <sodipodi:namedview
     id="base"
     pagecolor="#ffffff"
     bordercolor="#666666"
     borderopacity="1.0"
     inkscape:pageopacity="0.0"
     inkscape:pageshadow="2"
     inkscape:zoom="13.049334"
     inkscape:cx="18.679046"
     inkscape:cy="12.165829"
     inkscape:document-units="px"
     inkscape:current-layer="layer1"
     showgrid="false"
     inkscape:snap-page="false"
     units="px"
     inkscape:window-width="1884"
     inkscape:window-height="1061"
     inkscape:window-x="0"
     inkscape:window-y="0"
     inkscape:window-maximized="1"
     fit-margin-top="0"
     fit-margin-left="0"
     fit-margin-right="0"
     fit-margin-bottom="0" />
  <metadata
     id="metadata5">
    <rdf:RDF>
      <cc:Work
         rdf:about="">
        <dc:format>image/svg+xml</dc:format>
        <dc:type
           rdf:resource="http://purl.org/dc/dcmitype/StillImage" />
        <dc:title></dc:title>
      </cc:Work>
    </rdf:RDF>
  </metadata>
    <circle
       style="color:#000000;clip-rule:nonzero;display:inline;overflow:visible;visibility:visible;opacity:1;isolation:auto;mix-blend-mode:normal;color-interpolation:sRGB;color-interpolation-filters:linearRGB;solid-color:#000000;solid-opacity:1;vector-effect:none;fill:#008ecf;fill-opacity:1;fill-rule:evenodd;stroke:#ffffff;stroke-width:1;stroke-linecap:butt;stroke-linejoin:miter;stroke-miterlimit:4;stroke-dasharray:none;stroke-dashoffset:0;stroke-opacity:1;marker:none;color-rendering:auto;image-rendering:auto;shape-rendering:auto;text-rendering:auto;enable-background:accumulate"
       id="path815"
       cx="15"
       cy="15"
       r="14.5" />
<g transform="translate(6,9)"><path fill-rule="nonzero" fill="rgb(11.372549%, 11.372549%, 10.588235%)" fill-opacity="1" d="M 16.308594 4.128906 L 15.222656 4.117188 C 15.089844 4.113281 14.976562 4.007812 14.96875 3.875 C 14.882812 2.796875 14.335938 1.816406 13.503906 1.132812 C 13.011719 0.726562 12.464844 0.433594 11.835938 0.3125 C 11.375 0.222656 10.917969 0.117188 10.453125 0.0898438 C 8.976562 -0.0078125 7.53125 -0.046875 6.082031 0.0859375 C 5.789062 0.109375 5.496094 0.144531 5.203125 0.179688 C 4.816406 0.230469 4.445312 0.367188 4.097656 0.535156 C 3.765625 0.699219 3.429688 0.882812 3.171875 1.148438 C 2.367188 1.960938 1.902344 2.925781 1.835938 3.890625 C 1.828125 4.027344 1.710938 4.132812 1.574219 4.132812 L 0.691406 4.128906 C 0.3125 4.128906 0 4.4375 0 4.820312 C 0 5.132812 0.0429688 5.488281 0.824219 5.636719 C 0.996094 5.671875 1.085938 5.863281 1.003906 6.019531 C 0.792969 6.410156 0.773438 6.835938 0.773438 7.273438 C 0.773438 7.835938 0.964844 8.671875 1.390625 9.257812 C 1.429688 9.3125 1.445312 9.378906 1.4375 9.445312 C 1.429688 9.484375 1.429688 9.527344 1.429688 9.566406 L 1.429688 10.960938 C 1.429688 11.664062 2.003906 12.238281 2.707031 12.238281 L 2.789062 12.238281 C 3.488281 12.238281 4.0625 11.664062 4.0625 10.960938 L 4.0625 10.414062 C 4.070312 10.414062 4.074219 10.414062 4.078125 10.414062 C 5.195312 10.507812 10.835938 10.511719 12.691406 10.40625 C 12.839844 10.398438 12.964844 10.519531 12.964844 10.667969 L 12.964844 10.960938 C 12.964844 11.664062 13.539062 12.238281 14.242188 12.238281 L 14.324219 12.238281 C 15.027344 12.238281 15.601562 11.664062 15.601562 10.960938 L 15.601562 9.566406 C 15.601562 9.542969 15.601562 9.519531 15.597656 9.496094 C 15.59375 9.429688 15.609375 9.363281 15.648438 9.3125 C 16.042969 8.761719 16.199219 7.8125 16.199219 7.273438 C 16.199219 6.851562 16.171875 6.386719 15.957031 5.984375 C 15.882812 5.835938 15.957031 5.65625 16.117188 5.609375 C 16.140625 5.601562 16.164062 5.597656 16.1875 5.589844 C 16.773438 5.410156 17 5.199219 17 4.820312 C 17 4.4375 16.6875 4.128906 16.308594 4.128906 Z M 3.96875 9.1875 C 3.371094 9.1875 2.882812 8.699219 2.882812 8.097656 C 2.882812 7.5 3.371094 7.011719 3.96875 7.011719 C 4.570312 7.011719 5.058594 7.5 5.058594 8.097656 C 5.058594 8.699219 4.570312 9.1875 3.96875 9.1875 Z M 2.46875 4.511719 C 2.710938 0.871094 4.691406 0.667969 7.527344 0.65625 L 8.339844 0.65625 C 11.605469 0.65625 14.226562 0.898438 14.300781 4.511719 C 14.332031 6.015625 11.558594 6.390625 8.289062 6.390625 C 5.023438 6.390625 2.367188 6.011719 2.46875 4.511719 Z M 13.242188 9.1875 C 12.640625 9.1875 12.152344 8.699219 12.152344 8.097656 C 12.152344 7.5 12.640625 7.011719 13.242188 7.011719 C 13.84375 7.011719 14.328125 7.5 14.328125 8.097656 C 14.328125 8.699219 13.84375 9.1875 13.242188 9.1875 Z M 13.242188 9.1875 "/>
</g>
</svg>
