<?xml version="1.0" encoding="UTF-8"?>
<svg xmlns="http://www.w3.org/2000/svg" xmlns:xlink="http://www.w3.org/1999/xlink" width="11" height="7.919422" viewBox="0 0 11 7.919422">
<path fill-rule="nonzero" fill="rgb(11.372549%, 11.372549%, 10.588235%)" fill-opacity="1" d="M 10.550781 2.671875 L 9.851562 2.664062 C 9.761719 2.660156 9.691406 2.59375 9.683594 2.507812 C 9.632812 1.808594 9.273438 1.175781 8.738281 0.734375 C 8.417969 0.46875 8.066406 0.28125 7.660156 0.203125 C 7.359375 0.144531 7.066406 0.078125 6.761719 0.0585938 C 5.808594 -0.00390625 4.875 -0.03125 3.933594 0.0546875 C 3.746094 0.0703125 3.554688 0.09375 3.367188 0.117188 C 3.117188 0.148438 2.875 0.238281 2.652344 0.347656 C 2.4375 0.453125 2.21875 0.570312 2.050781 0.742188 C 1.53125 1.269531 1.230469 1.894531 1.1875 2.515625 C 1.183594 2.605469 1.109375 2.675781 1.019531 2.675781 L 0.449219 2.671875 C 0.203125 2.671875 0 2.871094 0 3.117188 C 0 3.320312 0.0273438 3.550781 0.53125 3.648438 C 0.644531 3.667969 0.703125 3.792969 0.648438 3.894531 C 0.511719 4.148438 0.5 4.421875 0.5 4.707031 C 0.5 5.070312 0.625 5.609375 0.898438 5.992188 C 0.925781 6.027344 0.933594 6.070312 0.929688 6.109375 C 0.925781 6.136719 0.925781 6.164062 0.925781 6.191406 L 0.925781 7.09375 C 0.925781 7.546875 1.296875 7.917969 1.75 7.917969 L 1.804688 7.917969 C 2.257812 7.917969 2.628906 7.546875 2.628906 7.09375 L 2.628906 6.738281 C 2.632812 6.738281 2.636719 6.738281 2.640625 6.738281 C 3.363281 6.796875 7.011719 6.804688 8.210938 6.734375 C 8.308594 6.730469 8.390625 6.804688 8.390625 6.902344 L 8.390625 7.09375 C 8.390625 7.546875 8.761719 7.917969 9.214844 7.917969 L 9.269531 7.917969 C 9.722656 7.917969 10.09375 7.546875 10.09375 7.09375 L 10.09375 6.191406 C 10.09375 6.175781 10.09375 6.160156 10.09375 6.144531 C 10.089844 6.101562 10.101562 6.058594 10.125 6.023438 C 10.382812 5.667969 10.480469 5.054688 10.480469 4.707031 C 10.480469 4.433594 10.464844 4.132812 10.328125 3.871094 C 10.277344 3.777344 10.324219 3.660156 10.425781 3.628906 C 10.445312 3.625 10.460938 3.621094 10.476562 3.617188 C 10.851562 3.5 11 3.363281 11 3.117188 C 11 2.871094 10.796875 2.671875 10.550781 2.671875 Z M 2.570312 5.945312 C 2.179688 5.945312 1.863281 5.628906 1.863281 5.242188 C 1.863281 4.851562 2.179688 4.535156 2.570312 4.535156 C 2.957031 4.535156 3.273438 4.851562 3.273438 5.242188 C 3.273438 5.628906 2.957031 5.945312 2.570312 5.945312 Z M 1.597656 2.917969 C 1.753906 0.566406 3.035156 0.429688 4.871094 0.425781 L 5.394531 0.425781 C 7.511719 0.425781 9.207031 0.582031 9.253906 2.917969 C 9.273438 3.890625 7.480469 4.136719 5.363281 4.136719 C 3.25 4.136719 1.53125 3.890625 1.597656 2.917969 Z M 8.566406 5.945312 C 8.179688 5.945312 7.863281 5.628906 7.863281 5.242188 C 7.863281 4.851562 8.179688 4.535156 8.566406 4.535156 C 8.957031 4.535156 9.273438 4.851562 9.273438 5.242188 C 9.273438 5.628906 8.957031 5.945312 8.566406 5.945312 Z M 8.566406 5.945312 "/>
</svg>
