<?xml version="1.0" encoding="UTF-8" standalone="no"?>
<!-- Created with Inkscape (http://www.inkscape.org/) -->

<svg
   xmlns:dc="http://purl.org/dc/elements/1.1/"
   xmlns:cc="http://creativecommons.org/ns#"
   xmlns:rdf="http://www.w3.org/1999/02/22-rdf-syntax-ns#"
   xmlns:svg="http://www.w3.org/2000/svg"
   xmlns="http://www.w3.org/2000/svg"
   xmlns:xlink="http://www.w3.org/1999/xlink"
   xmlns:sodipodi="http://sodipodi.sourceforge.net/DTD/sodipodi-0.dtd"
   xmlns:inkscape="http://www.inkscape.org/namespaces/inkscape"
   width="30px"
   height="30px"
   version="1.1"
   id="svg8"
   inkscape:version="0.92.4 5da689c313, 2019-01-14"
   sodipodi:docname="container.svg">
  <defs
     id="defs2" />
  <sodipodi:namedview
     id="base"
     pagecolor="#ffffff"
     bordercolor="#666666"
     borderopacity="1.0"
     inkscape:pageopacity="0.0"
     inkscape:pageshadow="2"
     inkscape:zoom="13.049334"
     inkscape:cx="18.679046"
     inkscape:cy="12.165829"
     inkscape:document-units="px"
     inkscape:current-layer="layer1"
     showgrid="false"
     inkscape:snap-page="false"
     units="px"
     inkscape:window-width="1884"
     inkscape:window-height="1061"
     inkscape:window-x="0"
     inkscape:window-y="0"
     inkscape:window-maximized="1"
     fit-margin-top="0"
     fit-margin-left="0"
     fit-margin-right="0"
     fit-margin-bottom="0" />
  <metadata
     id="metadata5">
    <rdf:RDF>
      <cc:Work
         rdf:about="">
        <dc:format>image/svg+xml</dc:format>
        <dc:type
           rdf:resource="http://purl.org/dc/dcmitype/StillImage" />
        <dc:title></dc:title>
      </cc:Work>
    </rdf:RDF>
  </metadata>
    <circle
       style="color:#000000;clip-rule:nonzero;display:inline;overflow:visible;visibility:visible;opacity:1;isolation:auto;mix-blend-mode:normal;color-interpolation:sRGB;color-interpolation-filters:linearRGB;solid-color:#000000;solid-opacity:1;vector-effect:none;fill:#ffffff;fill-opacity:1;fill-rule:evenodd;stroke:#F25C05;stroke-width:1;stroke-linecap:butt;stroke-linejoin:miter;stroke-miterlimit:4;stroke-dasharray:none;stroke-dashoffset:0;stroke-opacity:1;marker:none;color-rendering:auto;image-rendering:auto;shape-rendering:auto;text-rendering:auto;enable-background:accumulate"
       id="path815"
       cx="15"
       cy="15"
       r="14.5" />
<g transform="translate(6,9)"><path fill-rule="nonzero" fill="rgb(0%, 0%, 0%)" fill-opacity="1" d="M 16.828125 6.238281 C 16.21875 5.808594 14.539062 7.457031 14.539062 7.457031 C 14.539062 7.457031 15.359375 5.828125 15.90625 4.417969 C 16.417969 3.09375 16.800781 2.296875 16.015625 2.023438 C 15.695312 1.910156 15.417969 2.417969 15.058594 3.136719 C 14.699219 3.859375 14.371094 4.828125 14.136719 5.195312 C 14.039062 5.347656 13.734375 5.316406 13.878906 4.898438 C 13.976562 4.617188 14.125 4.242188 14.582031 3.023438 C 15.269531 1.195312 15.601562 0.25 14.945312 0.046875 C 14.152344 -0.199219 13.640625 1.714844 13.402344 2.40625 C 12.96875 3.652344 12.617188 4.425781 12.554688 4.542969 C 12.410156 4.804688 11.996094 4.660156 12.125 4.289062 C 12.238281 3.964844 12.425781 3.476562 12.476562 3.273438 C 12.609375 2.75 13.949219 0.527344 13.074219 0.222656 C 11.78125 -0.226562 11.257812 4.402344 10.519531 4.144531 C 9.976562 3.957031 11.042969 2.277344 11.140625 1.464844 C 11.167969 1.242188 11.074219 1.128906 10.914062 1.074219 C 10.222656 0.835938 8.949219 3.753906 8.539062 5.523438 C 8.527344 5.582031 8.511719 5.636719 8.5 5.691406 C 8.492188 5.644531 8.480469 5.59375 8.46875 5.546875 C 8.074219 3.773438 6.820312 0.84375 6.125 1.078125 C 5.96875 1.132812 5.871094 1.246094 5.898438 1.464844 C 5.992188 2.28125 7.042969 3.964844 6.5 4.152344 C 5.757812 4.402344 5.269531 -0.230469 3.972656 0.210938 C 3.09375 0.507812 4.421875 2.742188 4.546875 3.265625 C 4.597656 3.46875 4.78125 3.957031 4.894531 4.285156 C 5.019531 4.65625 4.601562 4.796875 4.460938 4.535156 C 4.398438 4.417969 4.054688 3.640625 3.628906 2.390625 C 3.394531 1.695312 2.898438 -0.21875 2.101562 0.0195312 C 1.449219 0.21875 1.769531 1.164062 2.445312 3 C 2.894531 4.222656 3.039062 4.601562 3.136719 4.882812 C 3.277344 5.296875 2.96875 5.328125 2.875 5.175781 C 2.640625 4.804688 2.320312 3.832031 1.964844 3.113281 C 1.613281 2.390625 1.339844 1.878906 1.015625 1.988281 C 0.230469 2.257812 0.605469 3.058594 1.109375 4.382812 C 1.644531 5.800781 2.453125 7.433594 2.453125 7.433594 C 2.453125 7.433594 0.789062 5.773438 0.175781 6.195312 C -0.117188 6.398438 -0.03125 6.980469 0.339844 7.429688 C 1.660156 9.046875 3.351562 10.820312 4.46875 11.238281 C 5.664062 11.6875 7.734375 11.359375 8.492188 9.871094 C 9.253906 11.347656 11.300781 11.683594 12.496094 11.246094 C 13.617188 10.835938 15.320312 9.074219 16.65625 7.46875 C 17.03125 7.019531 17.117188 6.441406 16.828125 6.238281 Z M 16.828125 6.238281 "/>
</g>
</svg>
