<?xml version="1.0" encoding="UTF-8"?>
<svg xmlns="http://www.w3.org/2000/svg" xmlns:xlink="http://www.w3.org/1999/xlink" width="11" height="7.392554" viewBox="0 0 11 7.392554">
<path fill-rule="nonzero" fill="rgb(0%, 0%, 0%)" fill-opacity="1" d="M 10.886719 4.035156 C 10.492188 3.757812 9.40625 4.824219 9.40625 4.824219 C 9.40625 4.824219 9.9375 3.773438 10.292969 2.859375 C 10.625 2.003906 10.871094 1.484375 10.363281 1.308594 C 10.15625 1.234375 9.976562 1.566406 9.746094 2.03125 C 9.511719 2.496094 9.300781 3.125 9.148438 3.363281 C 9.085938 3.460938 8.886719 3.4375 8.980469 3.171875 C 9.042969 2.988281 9.140625 2.746094 9.433594 1.957031 C 9.882812 0.773438 10.09375 0.160156 9.671875 0.03125 C 9.15625 -0.128906 8.828125 1.109375 8.671875 1.554688 C 8.390625 2.363281 8.164062 2.863281 8.121094 2.9375 C 8.03125 3.109375 7.761719 3.015625 7.84375 2.777344 C 7.917969 2.5625 8.039062 2.25 8.074219 2.117188 C 8.15625 1.78125 9.027344 0.339844 8.460938 0.144531 C 7.625 -0.148438 7.285156 2.847656 6.804688 2.683594 C 6.453125 2.558594 7.144531 1.472656 7.210938 0.949219 C 7.226562 0.804688 7.164062 0.730469 7.0625 0.695312 C 6.613281 0.539062 5.789062 2.429688 5.523438 3.574219 C 5.515625 3.609375 5.507812 3.648438 5.5 3.683594 C 5.492188 3.652344 5.488281 3.621094 5.480469 3.589844 C 5.222656 2.441406 4.414062 0.546875 3.964844 0.699219 C 3.863281 0.734375 3.800781 0.804688 3.816406 0.949219 C 3.875 1.476562 4.558594 2.566406 4.207031 2.6875 C 3.726562 2.847656 3.410156 -0.148438 2.570312 0.136719 C 2.003906 0.328125 2.859375 1.773438 2.941406 2.113281 C 2.972656 2.246094 3.09375 2.558594 3.167969 2.773438 C 3.246094 3.011719 2.976562 3.101562 2.886719 2.933594 C 2.847656 2.859375 2.625 2.355469 2.347656 1.546875 C 2.195312 1.097656 1.875 -0.140625 1.359375 0.0117188 C 0.9375 0.140625 1.144531 0.753906 1.582031 1.941406 C 1.871094 2.730469 1.96875 2.976562 2.027344 3.160156 C 2.121094 3.429688 1.921875 3.449219 1.859375 3.347656 C 1.710938 3.109375 1.5 2.480469 1.273438 2.011719 C 1.042969 1.546875 0.867188 1.214844 0.660156 1.285156 C 0.148438 1.460938 0.390625 1.976562 0.71875 2.835938 C 1.0625 3.753906 1.589844 4.8125 1.589844 4.8125 C 1.589844 4.8125 0.511719 3.734375 0.113281 4.007812 C -0.0742188 4.140625 -0.0195312 4.515625 0.21875 4.808594 C 1.074219 5.851562 2.167969 7.003906 2.890625 7.273438 C 3.667969 7.5625 5.003906 7.351562 5.496094 6.386719 C 5.988281 7.339844 7.3125 7.558594 8.085938 7.277344 C 8.808594 7.011719 9.914062 5.871094 10.777344 4.832031 C 11.019531 4.542969 11.074219 4.167969 10.886719 4.035156 Z M 10.886719 4.035156 "/>
</svg>
