<?xml version="1.0" encoding="UTF-8"?>
<svg xmlns="http://www.w3.org/2000/svg" xmlns:xlink="http://www.w3.org/1999/xlink" width="11" height="9.508351" viewBox="0 0 11 9.508351">
<path fill-rule="nonzero" fill="rgb(11.372549%, 11.372549%, 10.588235%)" fill-opacity="1" d="M 5.570312 9.507812 L 4.582031 9.507812 L 0 8.023438 L 0.0546875 0.839844 L 0.867188 1.148438 L 0.839844 7.175781 C 3.035156 7.246094 4.707031 8.667969 4.707031 8.667969 L 5.183594 8.667969 L 10.183594 7.410156 L 10.183594 1.144531 L 11 0.839844 L 11 8.039062 Z M 5.570312 9.507812 "/>
<path fill-rule="nonzero" fill="rgb(11.372549%, 11.372549%, 10.588235%)" fill-opacity="1" d="M 9.464844 0.113281 C 9.464844 0.113281 7.324219 -0.222656 5.128906 1.738281 C 5.074219 1.792969 5.15625 8.320312 5.183594 8.34375 C 6.652344 6.746094 9.464844 6.488281 9.464844 6.488281 Z M 9.464844 0.113281 "/>
<path fill-rule="nonzero" fill="rgb(11.372549%, 11.372549%, 10.588235%)" fill-opacity="1" d="M 1.492188 0.0117188 L 1.492188 6.410156 C 3.761719 6.015625 4.648438 8.433594 4.648438 8.433594 L 4.640625 1.894531 C 4.640625 1.894531 3.375 -0.167969 1.492188 0.0117188 Z M 1.492188 0.0117188 "/>
</svg>
