<?xml version="1.0" encoding="UTF-8"?>
<svg xmlns="http://www.w3.org/2000/svg" xmlns:xlink="http://www.w3.org/1999/xlink" width="6.142233" height="11" viewBox="0 0 6.142233 11">
<path fill-rule="nonzero" fill="rgb(30%,30%,30%)" fill-opacity="1" d="M 5.957031 8.96875 C 5.90625 8.921875 5.808594 8.875 5.527344 8.917969 C 5.371094 8.941406 5.195312 8.992188 5.050781 9.050781 C 5.039062 9.054688 5.027344 9.058594 5.019531 9.0625 C 5.019531 9.058594 5.019531 9.054688 5.019531 9.050781 C 5.019531 8.878906 4.945312 8.703125 4.832031 8.605469 C 4.753906 8.535156 4.660156 8.503906 4.570312 8.515625 C 4.507812 8.523438 4.445312 8.523438 4.367188 8.523438 C 4.238281 8.527344 4.0625 8.527344 3.789062 8.5625 C 3.371094 8.617188 2.695312 8.589844 2.101562 8.5 C 2.046875 8.492188 1.976562 8.480469 1.910156 8.46875 C 1.847656 8.460938 1.789062 8.449219 1.746094 8.445312 C 1.597656 8.421875 1.4375 8.46875 1.3125 8.578125 C 1.195312 8.679688 1.125 8.8125 1.125 8.941406 C 1.125 8.980469 1.125 9.035156 1.125 9.078125 C 1.09375 9.070312 1.0625 9.058594 1.03125 9.046875 C 1.007812 9.039062 0.980469 9.03125 0.953125 9.019531 C 0.554688 8.886719 0.296875 8.839844 0.152344 8.984375 C 0.0351562 9.101562 -0.0195312 9.277344 0.0078125 9.460938 C 0.0390625 9.703125 0.191406 9.921875 0.414062 10.046875 C 0.644531 10.175781 0.925781 10.175781 1.097656 10.175781 C 1.097656 10.46875 1.222656 10.945312 2.015625 10.992188 L 2.023438 10.996094 C 2.03125 10.996094 2.042969 10.996094 2.058594 10.996094 L 3.992188 10.996094 C 4.027344 11 4.066406 11 4.101562 11 C 4.375 11 4.613281 10.917969 4.78125 10.761719 C 4.921875 10.628906 5.003906 10.453125 5.003906 10.277344 C 5.003906 10.242188 5 10.210938 4.996094 10.183594 C 5.027344 10.179688 5.078125 10.175781 5.152344 10.175781 C 5.289062 10.175781 5.605469 10.125 5.742188 10.058594 C 5.957031 9.957031 6.101562 9.75 6.136719 9.511719 C 6.164062 9.296875 6.097656 9.09375 5.957031 8.96875 Z M 1.097656 10.148438 Z M 1.128906 10.175781 Z M 4.453125 10.097656 C 4.453125 10.191406 4.382812 10.261719 4.289062 10.261719 C 4.199219 10.261719 4.125 10.191406 4.125 10.097656 L 4.125 9.113281 C 4.125 9.019531 4.199219 8.949219 4.289062 8.949219 C 4.382812 8.949219 4.453125 9.019531 4.453125 9.113281 Z M 5.023438 9.117188 Z M 5.023438 9.117188 "/>
<path fill-rule="nonzero" fill="rgb(30%,30%,30%)" fill-opacity="1" d="M 5.636719 6.433594 C 5.585938 6.386719 5.496094 6.34375 5.242188 6.382812 C 5.105469 6.402344 4.949219 6.445312 4.820312 6.496094 C 4.816406 6.347656 4.75 6.203125 4.648438 6.113281 C 4.578125 6.046875 4.492188 6.019531 4.40625 6.03125 C 4.355469 6.035156 4.300781 6.039062 4.230469 6.039062 C 4.117188 6.039062 3.960938 6.042969 3.722656 6.070312 C 3.359375 6.117188 2.765625 6.097656 2.25 6.019531 C 2.203125 6.011719 2.144531 6 2.085938 5.992188 C 2.03125 5.980469 1.980469 5.972656 1.9375 5.96875 C 1.804688 5.945312 1.660156 5.992188 1.542969 6.089844 C 1.433594 6.183594 1.375 6.304688 1.375 6.425781 C 1.375 6.449219 1.375 6.484375 1.371094 6.515625 C 1.355469 6.507812 1.335938 6.503906 1.316406 6.496094 C 1.296875 6.488281 1.273438 6.480469 1.25 6.472656 C 0.894531 6.355469 0.664062 6.3125 0.527344 6.445312 C 0.417969 6.554688 0.371094 6.714844 0.394531 6.882812 C 0.421875 7.097656 0.5625 7.296875 0.761719 7.410156 C 0.957031 7.519531 1.195312 7.523438 1.347656 7.523438 L 1.351562 7.523438 C 1.351562 7.6875 1.398438 7.824219 1.480469 7.9375 C 1.617188 8.117188 1.851562 8.222656 2.171875 8.238281 L 2.175781 8.238281 C 2.1875 8.242188 2.195312 8.242188 2.210938 8.242188 L 3.902344 8.242188 C 3.933594 8.242188 3.964844 8.246094 3.996094 8.246094 C 4.242188 8.246094 4.453125 8.171875 4.605469 8.03125 C 4.734375 7.914062 4.808594 7.753906 4.808594 7.59375 C 4.808594 7.570312 4.808594 7.546875 4.804688 7.527344 C 4.832031 7.527344 4.867188 7.523438 4.917969 7.523438 C 5.039062 7.523438 5.320312 7.476562 5.445312 7.417969 C 5.636719 7.324219 5.769531 7.140625 5.796875 6.925781 C 5.824219 6.730469 5.765625 6.546875 5.636719 6.433594 Z M 4.195312 7.199219 C 4.195312 7.289062 4.121094 7.363281 4.03125 7.363281 C 3.941406 7.363281 3.867188 7.289062 3.867188 7.199219 L 3.867188 6.710938 C 3.867188 6.621094 3.941406 6.546875 4.03125 6.546875 C 4.121094 6.546875 4.195312 6.621094 4.195312 6.710938 Z M 4.195312 7.199219 "/>
<path fill-rule="nonzero" fill="rgb(30%,30%,30%)" fill-opacity="1" d="M 5.28125 4.160156 C 5.214844 4.101562 5.105469 4.085938 4.929688 4.113281 C 4.816406 4.128906 4.695312 4.164062 4.589844 4.203125 C 4.578125 4.078125 4.523438 3.960938 4.4375 3.886719 C 4.371094 3.828125 4.289062 3.800781 4.210938 3.8125 C 4.167969 3.816406 4.121094 3.816406 4.0625 3.816406 C 3.964844 3.820312 3.832031 3.820312 3.625 3.847656 C 3.316406 3.886719 2.8125 3.867188 2.371094 3.800781 C 2.328125 3.796875 2.277344 3.785156 2.226562 3.777344 C 2.179688 3.769531 2.136719 3.761719 2.101562 3.757812 C 1.980469 3.738281 1.847656 3.78125 1.746094 3.871094 C 1.648438 3.953125 1.589844 4.0625 1.589844 4.171875 C 1.589844 4.1875 1.589844 4.203125 1.589844 4.21875 C 1.585938 4.214844 1.578125 4.214844 1.574219 4.210938 C 1.554688 4.207031 1.535156 4.199219 1.515625 4.191406 C 1.203125 4.085938 0.996094 4.050781 0.871094 4.175781 C 0.773438 4.273438 0.730469 4.417969 0.75 4.570312 C 0.777344 4.761719 0.898438 4.9375 1.078125 5.035156 C 1.242188 5.128906 1.4375 5.136719 1.570312 5.136719 C 1.578125 5.273438 1.617188 5.390625 1.6875 5.484375 C 1.808594 5.644531 2.015625 5.734375 2.296875 5.753906 L 2.300781 5.753906 C 2.308594 5.753906 2.320312 5.753906 2.332031 5.753906 L 3.777344 5.753906 C 3.808594 5.757812 3.835938 5.757812 3.863281 5.757812 C 4.078125 5.757812 4.265625 5.691406 4.398438 5.566406 C 4.515625 5.460938 4.582031 5.316406 4.582031 5.175781 C 4.582031 5.164062 4.582031 5.152344 4.582031 5.140625 C 4.601562 5.140625 4.625 5.140625 4.652344 5.140625 C 4.757812 5.140625 5 5.097656 5.113281 5.046875 C 5.285156 4.964844 5.402344 4.796875 5.429688 4.605469 C 5.453125 4.429688 5.398438 4.265625 5.28125 4.160156 Z M 4.085938 4.910156 C 4.085938 5 4.011719 5.074219 3.921875 5.074219 C 3.828125 5.074219 3.753906 5 3.753906 4.910156 L 3.753906 4.453125 C 3.753906 4.363281 3.828125 4.289062 3.921875 4.289062 C 4.011719 4.289062 4.085938 4.363281 4.085938 4.453125 Z M 4.085938 4.910156 "/>
<path fill-rule="nonzero" fill="rgb(30%,30%,30%)" fill-opacity="1" d="M 1.40625 2.835938 C 1.539062 2.910156 1.691406 2.921875 1.804688 2.921875 C 1.828125 3.226562 2.054688 3.410156 2.433594 3.433594 L 2.4375 3.433594 C 2.441406 3.433594 2.453125 3.433594 2.460938 3.433594 L 3.667969 3.433594 C 3.691406 3.4375 3.714844 3.4375 3.738281 3.4375 C 3.925781 3.4375 4.089844 3.378906 4.207031 3.273438 C 4.308594 3.179688 4.367188 3.050781 4.367188 2.925781 L 4.367188 2.921875 C 4.375 2.921875 4.386719 2.921875 4.398438 2.921875 C 4.488281 2.921875 4.695312 2.890625 4.792969 2.84375 C 4.945312 2.769531 5.046875 2.625 5.074219 2.453125 C 5.09375 2.300781 5.042969 2.152344 4.941406 2.058594 C 4.875 2.003906 4.777344 1.988281 4.621094 2.011719 C 4.539062 2.027344 4.449219 2.050781 4.367188 2.078125 C 4.351562 1.980469 4.304688 1.890625 4.238281 1.832031 C 4.175781 1.777344 4.101562 1.753906 4.027344 1.761719 C 3.992188 1.765625 3.953125 1.765625 3.90625 1.765625 C 3.824219 1.769531 3.710938 1.769531 3.539062 1.792969 C 3.28125 1.824219 2.863281 1.808594 2.5 1.753906 C 2.464844 1.75 2.421875 1.742188 2.382812 1.734375 C 2.34375 1.726562 2.304688 1.722656 2.277344 1.71875 C 2.167969 1.699219 2.050781 1.738281 1.957031 1.816406 C 1.867188 1.890625 1.820312 1.992188 1.820312 2.089844 C 1.808594 2.085938 1.800781 2.082031 1.792969 2.082031 C 1.519531 1.988281 1.34375 1.957031 1.230469 2.070312 C 1.140625 2.160156 1.101562 2.289062 1.121094 2.421875 C 1.144531 2.59375 1.25 2.746094 1.40625 2.835938 Z M 3.621094 2.382812 C 3.621094 2.292969 3.695312 2.21875 3.785156 2.21875 C 3.875 2.21875 3.949219 2.292969 3.949219 2.382812 L 3.949219 2.691406 C 3.949219 2.78125 3.875 2.855469 3.785156 2.855469 C 3.695312 2.855469 3.621094 2.78125 3.621094 2.691406 Z M 3.621094 2.382812 "/>
<path fill-rule="nonzero" fill="rgb(30%,30%,30%)" fill-opacity="1" d="M 1.726562 0.957031 C 1.828125 1.015625 1.945312 1.027344 2.03125 1.03125 C 2.042969 1.113281 2.070312 1.179688 2.117188 1.242188 C 2.207031 1.363281 2.359375 1.429688 2.5625 1.441406 L 2.566406 1.441406 C 2.570312 1.441406 2.578125 1.445312 2.589844 1.445312 L 3.554688 1.445312 C 3.574219 1.445312 3.59375 1.445312 3.609375 1.445312 C 3.769531 1.445312 3.90625 1.398438 4.007812 1.304688 C 4.085938 1.230469 4.136719 1.132812 4.144531 1.035156 C 4.222656 1.03125 4.386719 1.003906 4.46875 0.964844 C 4.597656 0.902344 4.6875 0.777344 4.710938 0.628906 C 4.726562 0.496094 4.683594 0.367188 4.59375 0.285156 C 4.535156 0.234375 4.449219 0.21875 4.3125 0.242188 C 4.253906 0.25 4.195312 0.265625 4.136719 0.28125 C 4.117188 0.210938 4.082031 0.148438 4.03125 0.101562 C 3.972656 0.0546875 3.90625 0.03125 3.835938 0.0390625 C 3.808594 0.0429688 3.78125 0.0429688 3.742188 0.0429688 C 3.675781 0.0429688 3.585938 0.046875 3.445312 0.0625 C 3.242188 0.0898438 2.914062 0.078125 2.625 0.03125 C 2.597656 0.0273438 2.5625 0.0234375 2.53125 0.015625 C 2.5 0.0117188 2.46875 0.0078125 2.445312 0.00390625 C 2.347656 -0.0117188 2.246094 0.0195312 2.164062 0.0898438 C 2.097656 0.144531 2.058594 0.214844 2.046875 0.289062 C 1.863281 0.226562 1.6875 0.1875 1.578125 0.296875 C 1.5 0.375 1.464844 0.488281 1.480469 0.605469 C 1.503906 0.75 1.59375 0.882812 1.726562 0.957031 Z M 3.515625 0.554688 C 3.515625 0.464844 3.589844 0.390625 3.679688 0.390625 C 3.769531 0.390625 3.84375 0.464844 3.84375 0.554688 L 3.84375 0.800781 C 3.84375 0.894531 3.769531 0.96875 3.679688 0.96875 C 3.589844 0.96875 3.515625 0.894531 3.515625 0.800781 Z M 3.515625 0.554688 "/>
</svg>
