<?xml version="1.0" encoding="UTF-8" standalone="no"?>
<!-- Created with Inkscape (http://www.inkscape.org/) -->

<svg
   xmlns:dc="http://purl.org/dc/elements/1.1/"
   xmlns:cc="http://creativecommons.org/ns#"
   xmlns:rdf="http://www.w3.org/1999/02/22-rdf-syntax-ns#"
   xmlns:svg="http://www.w3.org/2000/svg"
   xmlns="http://www.w3.org/2000/svg"
   xmlns:xlink="http://www.w3.org/1999/xlink"
   xmlns:sodipodi="http://sodipodi.sourceforge.net/DTD/sodipodi-0.dtd"
   xmlns:inkscape="http://www.inkscape.org/namespaces/inkscape"
   width="30px"
   height="30px"
   version="1.1"
   id="svg8"
   inkscape:version="0.92.4 5da689c313, 2019-01-14"
   sodipodi:docname="container.svg">
  <defs
     id="defs2" />
  <sodipodi:namedview
     id="base"
     pagecolor="#ffffff"
     bordercolor="#666666"
     borderopacity="1.0"
     inkscape:pageopacity="0.0"
     inkscape:pageshadow="2"
     inkscape:zoom="13.049334"
     inkscape:cx="18.679046"
     inkscape:cy="12.165829"
     inkscape:document-units="px"
     inkscape:current-layer="layer1"
     showgrid="false"
     inkscape:snap-page="false"
     units="px"
     inkscape:window-width="1884"
     inkscape:window-height="1061"
     inkscape:window-x="0"
     inkscape:window-y="0"
     inkscape:window-maximized="1"
     fit-margin-top="0"
     fit-margin-left="0"
     fit-margin-right="0"
     fit-margin-bottom="0" />
  <metadata
     id="metadata5">
    <rdf:RDF>
      <cc:Work
         rdf:about="">
        <dc:format>image/svg+xml</dc:format>
        <dc:type
           rdf:resource="http://purl.org/dc/dcmitype/StillImage" />
        <dc:title></dc:title>
      </cc:Work>
    </rdf:RDF>
  </metadata>
    <circle
       style="color:#000000;clip-rule:nonzero;display:inline;overflow:visible;visibility:visible;opacity:1;isolation:auto;mix-blend-mode:normal;color-interpolation:sRGB;color-interpolation-filters:linearRGB;solid-color:#000000;solid-opacity:1;vector-effect:none;fill:#e42224;fill-opacity:1;fill-rule:evenodd;stroke:#ffffff;stroke-width:1;stroke-linecap:butt;stroke-linejoin:miter;stroke-miterlimit:4;stroke-dasharray:none;stroke-dashoffset:0;stroke-opacity:1;marker:none;color-rendering:auto;image-rendering:auto;shape-rendering:auto;text-rendering:auto;enable-background:accumulate"
       id="path815"
       cx="15"
       cy="15"
       r="14.5" />
<g transform="translate(6.5,6.5)"><path fill-rule="nonzero" fill="#FFFFFF" fill-opacity="1" d="M 15.878906 0 L 1.121094 0 C 0.503906 0 0 0.503906 0 1.121094 L 0 15.878906 C 0 16.496094 0.503906 17 1.121094 17 L 15.878906 17 C 16.496094 17 17 16.496094 17 15.878906 L 17 1.121094 C 17 0.503906 16.496094 0 15.878906 0 Z M 5.507812 16.023438 L 1.03125 16.023438 L 1.03125 15.449219 L 5.507812 15.449219 Z M 5.429688 14.878906 L 0.957031 14.878906 L 0.957031 14.304688 L 5.429688 14.304688 Z M 11.25 14.085938 C 11.199219 15.328125 10.347656 15.910156 9.175781 15.449219 C 8.867188 15.328125 8.585938 15.050781 8.230469 14.960938 C 7.648438 14.8125 6.929688 15.140625 6.710938 14.277344 C 6.511719 13.484375 7.472656 12.992188 7.910156 12.589844 C 8.613281 11.945312 8.570312 10.546875 9.199219 9.824219 L 9.363281 10.132812 L 10.125 9.523438 L 10.472656 9.898438 L 11.035156 9.441406 C 11.089844 9.574219 11.164062 9.695312 11.160156 9.839844 C 11.152344 10.105469 10.84375 10.917969 10.785156 11.28125 C 10.714844 11.714844 10.621094 12.167969 10.753906 12.601562 C 10.949219 13.214844 11.277344 13.355469 11.25 14.085938 Z M 11.273438 8.742188 C 11.132812 8.871094 11.03125 8.617188 10.964844 8.640625 L 10.335938 9.203125 L 10.019531 8.808594 L 9.484375 9.398438 L 9.203125 9.183594 L 9.890625 5.027344 L 10.027344 5.339844 L 10.429688 5.328125 C 10.53125 5.414062 10.730469 5.894531 10.796875 5.921875 C 10.847656 5.941406 11.109375 5.800781 11.199219 5.855469 C 11.226562 5.875 11.570312 6.355469 11.582031 6.394531 C 11.621094 6.519531 11.3125 8.105469 11.265625 8.394531 C 11.25 8.507812 11.242188 8.628906 11.273438 8.742188 Z M 13.300781 3.859375 C 12.875 4.351562 12.722656 5.089844 12.402344 5.644531 L 12.269531 5.324219 L 11.65625 5.648438 C 11.605469 5.628906 11.398438 5.128906 11.292969 5.050781 C 11.144531 4.9375 10.90625 5.175781 10.761719 4.78125 C 10.683594 4.570312 10.914062 3.742188 10.933594 3.410156 C 10.972656 2.679688 10.503906 1.121094 11.488281 0.867188 C 11.972656 0.742188 12.296875 1.09375 12.664062 1.117188 C 13.421875 1.160156 14.511719 0.359375 14.859375 1.582031 C 15.257812 2.976562 13.925781 3.132812 13.300781 3.859375 Z M 13.300781 3.859375 "/>
</g>
</svg>
