<?xml version="1.0" encoding="UTF-8" standalone="no"?>
<!-- Created with Inkscape (http://www.inkscape.org/) -->

<svg
   xmlns:dc="http://purl.org/dc/elements/1.1/"
   xmlns:cc="http://creativecommons.org/ns#"
   xmlns:rdf="http://www.w3.org/1999/02/22-rdf-syntax-ns#"
   xmlns:svg="http://www.w3.org/2000/svg"
   xmlns="http://www.w3.org/2000/svg"
   xmlns:xlink="http://www.w3.org/1999/xlink"
   xmlns:sodipodi="http://sodipodi.sourceforge.net/DTD/sodipodi-0.dtd"
   xmlns:inkscape="http://www.inkscape.org/namespaces/inkscape"
   width="30px"
   height="30px"
   version="1.1"
   id="svg8"
   inkscape:version="0.92.4 5da689c313, 2019-01-14"
   sodipodi:docname="container.svg">
  <defs
     id="defs2" />
  <sodipodi:namedview
     id="base"
     pagecolor="#ffffff"
     bordercolor="#666666"
     borderopacity="1.0"
     inkscape:pageopacity="0.0"
     inkscape:pageshadow="2"
     inkscape:zoom="13.049334"
     inkscape:cx="18.679046"
     inkscape:cy="12.165829"
     inkscape:document-units="px"
     inkscape:current-layer="layer1"
     showgrid="false"
     inkscape:snap-page="false"
     units="px"
     inkscape:window-width="1884"
     inkscape:window-height="1061"
     inkscape:window-x="0"
     inkscape:window-y="0"
     inkscape:window-maximized="1"
     fit-margin-top="0"
     fit-margin-left="0"
     fit-margin-right="0"
     fit-margin-bottom="0" />
  <metadata
     id="metadata5">
    <rdf:RDF>
      <cc:Work
         rdf:about="">
        <dc:format>image/svg+xml</dc:format>
        <dc:type
           rdf:resource="http://purl.org/dc/dcmitype/StillImage" />
        <dc:title></dc:title>
      </cc:Work>
    </rdf:RDF>
  </metadata>
    <circle
       style="color:#000000;clip-rule:nonzero;display:inline;overflow:visible;visibility:visible;opacity:1;isolation:auto;mix-blend-mode:normal;color-interpolation:sRGB;color-interpolation-filters:linearRGB;solid-color:#000000;solid-opacity:1;vector-effect:none;fill:#ffffff;fill-opacity:1;fill-rule:evenodd;stroke:#e42224;stroke-width:1;stroke-linecap:butt;stroke-linejoin:miter;stroke-miterlimit:4;stroke-dasharray:none;stroke-dashoffset:0;stroke-opacity:1;marker:none;color-rendering:auto;image-rendering:auto;shape-rendering:auto;text-rendering:auto;enable-background:accumulate"
       id="path815"
       cx="15"
       cy="15"
       r="14.5" />
<g transform="translate(10.5,6.5)"><path fill-rule="nonzero" fill="rgb(30%,30%,30%)" fill-opacity="1" d="M 9.207031 13.863281 C 9.125 13.789062 8.976562 13.714844 8.542969 13.78125 C 8.300781 13.820312 8.027344 13.894531 7.804688 13.984375 C 7.785156 13.992188 7.769531 14 7.757812 14.003906 C 7.757812 13.996094 7.757812 13.992188 7.757812 13.988281 C 7.757812 13.722656 7.640625 13.453125 7.464844 13.296875 C 7.347656 13.191406 7.203125 13.144531 7.0625 13.160156 C 6.96875 13.171875 6.871094 13.171875 6.75 13.175781 C 6.550781 13.175781 6.277344 13.179688 5.855469 13.234375 C 5.210938 13.316406 4.164062 13.277344 3.246094 13.136719 C 3.164062 13.125 3.058594 13.109375 2.953125 13.089844 C 2.859375 13.074219 2.765625 13.058594 2.695312 13.050781 C 2.46875 13.015625 2.222656 13.089844 2.027344 13.257812 C 1.84375 13.417969 1.738281 13.621094 1.738281 13.820312 C 1.738281 13.878906 1.738281 13.960938 1.738281 14.03125 C 1.691406 14.015625 1.640625 14 1.59375 13.984375 C 1.554688 13.96875 1.515625 13.957031 1.472656 13.941406 C 0.859375 13.734375 0.460938 13.660156 0.234375 13.882812 C 0.0546875 14.066406 -0.03125 14.335938 0.0078125 14.625 C 0.0625 14.996094 0.296875 15.332031 0.640625 15.527344 C 0.992188 15.726562 1.433594 15.726562 1.699219 15.726562 C 1.699219 16.179688 1.886719 16.917969 3.113281 16.992188 L 3.125 16.992188 C 3.140625 16.992188 3.160156 16.992188 3.179688 16.992188 L 6.167969 16.992188 C 6.226562 16.996094 6.28125 17 6.335938 17 C 6.757812 17 7.128906 16.871094 7.386719 16.632812 C 7.609375 16.429688 7.734375 16.15625 7.734375 15.886719 C 7.734375 15.828125 7.730469 15.78125 7.722656 15.738281 C 7.769531 15.734375 7.847656 15.726562 7.964844 15.726562 C 8.171875 15.726562 8.664062 15.644531 8.875 15.542969 C 9.203125 15.386719 9.429688 15.070312 9.480469 14.699219 C 9.527344 14.367188 9.425781 14.054688 9.207031 13.863281 Z M 1.699219 15.6875 Z M 1.742188 15.726562 Z M 6.886719 15.605469 C 6.886719 15.746094 6.769531 15.863281 6.628906 15.863281 C 6.488281 15.863281 6.375 15.746094 6.375 15.605469 L 6.375 14.082031 C 6.375 13.941406 6.488281 13.828125 6.628906 13.828125 C 6.769531 13.828125 6.886719 13.941406 6.886719 14.082031 Z M 7.765625 14.09375 Z M 7.765625 14.09375 "/>
<path fill-rule="nonzero" fill="rgb(30%,30%,30%)" fill-opacity="1" d="M 8.710938 9.941406 C 8.632812 9.871094 8.496094 9.800781 8.105469 9.863281 C 7.886719 9.898438 7.648438 9.960938 7.449219 10.042969 C 7.441406 9.808594 7.34375 9.582031 7.1875 9.445312 C 7.074219 9.347656 6.941406 9.304688 6.808594 9.320312 C 6.726562 9.328125 6.644531 9.332031 6.535156 9.332031 C 6.363281 9.332031 6.125 9.335938 5.753906 9.382812 C 5.191406 9.453125 4.277344 9.421875 3.476562 9.300781 C 3.40625 9.289062 3.3125 9.273438 3.222656 9.257812 C 3.136719 9.246094 3.058594 9.230469 2.996094 9.222656 C 2.785156 9.191406 2.566406 9.261719 2.386719 9.414062 C 2.21875 9.558594 2.121094 9.746094 2.121094 9.929688 C 2.121094 9.96875 2.121094 10.019531 2.121094 10.070312 C 2.09375 10.058594 2.0625 10.050781 2.035156 10.039062 C 2.003906 10.027344 1.96875 10.015625 1.929688 10.003906 C 1.382812 9.820312 1.023438 9.753906 0.816406 9.960938 C 0.648438 10.128906 0.574219 10.375 0.609375 10.636719 C 0.65625 10.972656 0.867188 11.273438 1.179688 11.449219 C 1.480469 11.617188 1.847656 11.625 2.085938 11.625 C 2.089844 11.878906 2.160156 12.09375 2.289062 12.265625 C 2.5 12.546875 2.859375 12.703125 3.355469 12.734375 L 3.363281 12.734375 C 3.378906 12.734375 3.394531 12.738281 3.414062 12.738281 L 6.027344 12.738281 C 6.078125 12.742188 6.128906 12.742188 6.175781 12.742188 C 6.554688 12.742188 6.882812 12.628906 7.117188 12.414062 C 7.316406 12.230469 7.433594 11.980469 7.433594 11.734375 C 7.433594 11.699219 7.429688 11.664062 7.425781 11.636719 C 7.464844 11.632812 7.523438 11.628906 7.601562 11.628906 C 7.785156 11.628906 8.222656 11.554688 8.414062 11.464844 C 8.710938 11.320312 8.914062 11.035156 8.960938 10.703125 C 9 10.402344 8.90625 10.117188 8.710938 9.941406 Z M 6.484375 11.125 C 6.484375 11.265625 6.371094 11.378906 6.230469 11.378906 C 6.089844 11.378906 5.976562 11.265625 5.976562 11.125 L 5.976562 10.371094 C 5.976562 10.230469 6.089844 10.117188 6.230469 10.117188 C 6.371094 10.117188 6.484375 10.230469 6.484375 10.371094 Z M 6.484375 11.125 "/>
<path fill-rule="nonzero" fill="rgb(30%,30%,30%)" fill-opacity="1" d="M 8.164062 6.433594 C 8.058594 6.335938 7.886719 6.316406 7.617188 6.355469 C 7.445312 6.382812 7.257812 6.433594 7.09375 6.496094 C 7.074219 6.304688 6.988281 6.121094 6.859375 6.007812 C 6.753906 5.917969 6.628906 5.875 6.507812 5.890625 C 6.441406 5.898438 6.367188 5.898438 6.277344 5.902344 C 6.128906 5.902344 5.921875 5.90625 5.601562 5.945312 C 5.125 6.007812 4.34375 5.976562 3.660156 5.875 C 3.601562 5.863281 3.519531 5.851562 3.441406 5.839844 C 3.371094 5.828125 3.300781 5.816406 3.25 5.808594 C 3.058594 5.777344 2.859375 5.839844 2.695312 5.980469 C 2.546875 6.109375 2.457031 6.28125 2.457031 6.449219 C 2.457031 6.46875 2.457031 6.492188 2.457031 6.519531 C 2.449219 6.515625 2.441406 6.511719 2.433594 6.511719 C 2.402344 6.5 2.375 6.492188 2.339844 6.480469 C 1.859375 6.316406 1.542969 6.257812 1.347656 6.453125 C 1.199219 6.601562 1.128906 6.824219 1.160156 7.0625 C 1.203125 7.359375 1.390625 7.628906 1.667969 7.785156 C 1.917969 7.925781 2.222656 7.941406 2.429688 7.941406 C 2.4375 8.148438 2.5 8.328125 2.609375 8.472656 C 2.796875 8.722656 3.113281 8.863281 3.550781 8.890625 L 3.558594 8.890625 C 3.570312 8.890625 3.582031 8.890625 3.601562 8.890625 L 5.839844 8.890625 C 5.882812 8.894531 5.925781 8.898438 5.96875 8.898438 C 6.300781 8.898438 6.59375 8.796875 6.800781 8.605469 C 6.980469 8.441406 7.082031 8.21875 7.082031 7.996094 C 7.082031 7.980469 7.082031 7.960938 7.078125 7.945312 C 7.109375 7.945312 7.144531 7.941406 7.191406 7.941406 C 7.351562 7.941406 7.730469 7.882812 7.902344 7.796875 C 8.167969 7.671875 8.351562 7.417969 8.390625 7.117188 C 8.429688 6.847656 8.34375 6.589844 8.164062 6.433594 Z M 6.3125 7.589844 C 6.3125 7.730469 6.199219 7.84375 6.058594 7.84375 C 5.917969 7.84375 5.804688 7.730469 5.804688 7.589844 L 5.804688 6.882812 C 5.804688 6.742188 5.917969 6.628906 6.058594 6.628906 C 6.199219 6.628906 6.3125 6.742188 6.3125 6.882812 Z M 6.3125 7.589844 "/>
<path fill-rule="nonzero" fill="rgb(30%,30%,30%)" fill-opacity="1" d="M 2.171875 4.378906 C 2.375 4.496094 2.613281 4.511719 2.789062 4.515625 C 2.828125 4.988281 3.175781 5.273438 3.757812 5.308594 L 3.765625 5.308594 C 3.777344 5.308594 3.789062 5.308594 3.804688 5.308594 L 5.671875 5.308594 C 5.707031 5.3125 5.742188 5.3125 5.777344 5.3125 C 6.066406 5.3125 6.320312 5.222656 6.5 5.058594 C 6.65625 4.914062 6.75 4.71875 6.75 4.519531 C 6.761719 4.519531 6.777344 4.519531 6.796875 4.519531 C 6.9375 4.519531 7.257812 4.464844 7.40625 4.394531 C 7.640625 4.28125 7.800781 4.054688 7.839844 3.792969 C 7.871094 3.554688 7.796875 3.324219 7.636719 3.183594 C 7.535156 3.097656 7.386719 3.074219 7.144531 3.113281 C 7.015625 3.132812 6.875 3.167969 6.75 3.210938 C 6.722656 3.0625 6.652344 2.921875 6.546875 2.832031 C 6.453125 2.746094 6.335938 2.707031 6.222656 2.722656 C 6.167969 2.730469 6.109375 2.730469 6.035156 2.730469 C 5.910156 2.734375 5.734375 2.734375 5.46875 2.769531 C 5.070312 2.820312 4.425781 2.796875 3.863281 2.710938 C 3.8125 2.703125 3.746094 2.691406 3.679688 2.679688 C 3.621094 2.671875 3.5625 2.660156 3.519531 2.652344 C 3.347656 2.628906 3.167969 2.683594 3.023438 2.808594 C 2.886719 2.921875 2.8125 3.078125 2.8125 3.230469 C 2.796875 3.226562 2.785156 3.21875 2.769531 3.214844 C 2.351562 3.074219 2.074219 3.027344 1.898438 3.203125 C 1.761719 3.339844 1.703125 3.535156 1.730469 3.746094 C 1.765625 4.007812 1.929688 4.246094 2.171875 4.378906 Z M 5.59375 3.683594 C 5.59375 3.542969 5.707031 3.425781 5.847656 3.425781 C 5.988281 3.425781 6.105469 3.542969 6.105469 3.683594 L 6.105469 4.160156 C 6.105469 4.300781 5.988281 4.414062 5.847656 4.414062 C 5.707031 4.414062 5.59375 4.300781 5.59375 4.160156 Z M 5.59375 3.683594 "/>
<path fill-rule="nonzero" fill="rgb(30%,30%,30%)" fill-opacity="1" d="M 2.671875 1.480469 C 2.824219 1.566406 3.003906 1.589844 3.140625 1.59375 C 3.160156 1.71875 3.203125 1.824219 3.273438 1.917969 C 3.414062 2.105469 3.644531 2.210938 3.960938 2.230469 L 3.964844 2.230469 C 3.972656 2.230469 3.988281 2.230469 4 2.230469 L 5.492188 2.230469 C 5.519531 2.234375 5.550781 2.234375 5.582031 2.234375 C 5.824219 2.234375 6.039062 2.160156 6.191406 2.015625 C 6.316406 1.902344 6.390625 1.753906 6.40625 1.597656 C 6.527344 1.59375 6.78125 1.550781 6.90625 1.492188 C 7.109375 1.394531 7.246094 1.203125 7.277344 0.972656 C 7.308594 0.765625 7.242188 0.566406 7.101562 0.441406 C 7.007812 0.359375 6.875 0.339844 6.664062 0.371094 C 6.578125 0.386719 6.484375 0.40625 6.394531 0.4375 C 6.363281 0.328125 6.308594 0.226562 6.230469 0.160156 C 6.140625 0.0820312 6.035156 0.046875 5.929688 0.0625 C 5.886719 0.0664062 5.84375 0.0664062 5.785156 0.0664062 C 5.683594 0.0664062 5.542969 0.0703125 5.324219 0.0976562 C 5.011719 0.136719 4.503906 0.117188 4.054688 0.0507812 C 4.011719 0.0429688 3.960938 0.0351562 3.910156 0.0273438 C 3.863281 0.0195312 3.816406 0.0117188 3.777344 0.00390625 C 3.628906 -0.015625 3.46875 0.03125 3.34375 0.140625 C 3.242188 0.226562 3.179688 0.335938 3.160156 0.449219 C 2.875 0.351562 2.609375 0.289062 2.441406 0.457031 C 2.320312 0.578125 2.265625 0.753906 2.289062 0.9375 C 2.320312 1.160156 2.464844 1.363281 2.671875 1.480469 Z M 5.433594 0.859375 C 5.433594 0.71875 5.546875 0.605469 5.6875 0.605469 C 5.828125 0.605469 5.941406 0.71875 5.941406 0.859375 L 5.941406 1.238281 C 5.941406 1.378906 5.828125 1.496094 5.6875 1.496094 C 5.546875 1.496094 5.433594 1.378906 5.433594 1.238281 Z M 5.433594 0.859375 "/>
</g>
</svg>
