<?xml version="1.0" encoding="UTF-8"?>
<svg xmlns="http://www.w3.org/2000/svg" xmlns:xlink="http://www.w3.org/1999/xlink" width="11" height="10.999999" viewBox="0 0 11 10.999999">
<path fill-rule="nonzero" fill="rgb(30%,30%,30%)" fill-opacity="1" d="M 10.273438 0 L 0.726562 0 C 0.324219 0 0 0.324219 0 0.726562 L 0 10.273438 C 0 10.675781 0.324219 11 0.726562 11 L 10.273438 11 C 10.675781 11 11 10.675781 11 10.273438 L 11 0.726562 C 11 0.324219 10.675781 0 10.273438 0 Z M 3.5625 10.367188 L 0.667969 10.367188 L 0.667969 9.996094 L 3.5625 9.996094 Z M 3.515625 9.625 L 0.617188 9.625 L 0.617188 9.253906 L 3.515625 9.253906 Z M 7.277344 9.113281 C 7.246094 9.917969 6.695312 10.296875 5.9375 9.996094 C 5.738281 9.917969 5.554688 9.738281 5.328125 9.679688 C 4.949219 9.582031 4.484375 9.796875 4.34375 9.238281 C 4.214844 8.722656 4.835938 8.40625 5.121094 8.148438 C 5.570312 7.730469 5.546875 6.824219 5.953125 6.355469 L 6.058594 6.554688 L 6.550781 6.164062 L 6.777344 6.40625 L 7.140625 6.109375 C 7.175781 6.195312 7.226562 6.273438 7.222656 6.367188 C 7.214844 6.539062 7.019531 7.0625 6.980469 7.300781 C 6.933594 7.582031 6.871094 7.875 6.960938 8.152344 C 7.082031 8.550781 7.296875 8.640625 7.277344 9.113281 Z M 7.292969 5.65625 C 7.203125 5.738281 7.136719 5.578125 7.09375 5.589844 L 6.6875 5.957031 L 6.484375 5.699219 L 6.136719 6.082031 L 5.953125 5.941406 L 6.398438 3.253906 L 6.488281 3.453125 L 6.75 3.449219 C 6.8125 3.503906 6.941406 3.8125 6.988281 3.832031 C 7.019531 3.84375 7.1875 3.753906 7.246094 3.789062 C 7.261719 3.800781 7.488281 4.113281 7.496094 4.136719 C 7.519531 4.21875 7.320312 5.246094 7.289062 5.429688 C 7.277344 5.503906 7.273438 5.585938 7.292969 5.65625 Z M 8.605469 2.5 C 8.332031 2.816406 8.234375 3.292969 8.027344 3.652344 L 7.941406 3.445312 L 7.542969 3.65625 C 7.507812 3.640625 7.375 3.320312 7.308594 3.265625 C 7.210938 3.195312 7.058594 3.347656 6.964844 3.09375 C 6.914062 2.957031 7.0625 2.421875 7.074219 2.207031 C 7.101562 1.734375 6.796875 0.726562 7.433594 0.558594 C 7.746094 0.480469 7.957031 0.707031 8.195312 0.722656 C 8.683594 0.75 9.390625 0.230469 9.613281 1.023438 C 9.875 1.925781 9.011719 2.027344 8.605469 2.5 Z M 8.605469 2.5 "/>
</svg>
