<?xml version="1.0" encoding="UTF-8" standalone="no"?>
<!-- Created with Inkscape (http://www.inkscape.org/) -->

<svg
   xmlns:dc="http://purl.org/dc/elements/1.1/"
   xmlns:cc="http://creativecommons.org/ns#"
   xmlns:rdf="http://www.w3.org/1999/02/22-rdf-syntax-ns#"
   xmlns:svg="http://www.w3.org/2000/svg"
   xmlns="http://www.w3.org/2000/svg"
   xmlns:xlink="http://www.w3.org/1999/xlink"
   xmlns:sodipodi="http://sodipodi.sourceforge.net/DTD/sodipodi-0.dtd"
   xmlns:inkscape="http://www.inkscape.org/namespaces/inkscape"
   width="30px"
   height="30px"
   version="1.1"
   id="svg8"
   inkscape:version="0.92.4 5da689c313, 2019-01-14"
   sodipodi:docname="container.svg">
  <defs
     id="defs2" />
  <sodipodi:namedview
     id="base"
     pagecolor="#ffffff"
     bordercolor="#666666"
     borderopacity="1.0"
     inkscape:pageopacity="0.0"
     inkscape:pageshadow="2"
     inkscape:zoom="13.049334"
     inkscape:cx="18.679046"
     inkscape:cy="12.165829"
     inkscape:document-units="px"
     inkscape:current-layer="layer1"
     showgrid="false"
     inkscape:snap-page="false"
     units="px"
     inkscape:window-width="1884"
     inkscape:window-height="1061"
     inkscape:window-x="0"
     inkscape:window-y="0"
     inkscape:window-maximized="1"
     fit-margin-top="0"
     fit-margin-left="0"
     fit-margin-right="0"
     fit-margin-bottom="0" />
  <metadata
     id="metadata5">
    <rdf:RDF>
      <cc:Work
         rdf:about="">
        <dc:format>image/svg+xml</dc:format>
        <dc:type
           rdf:resource="http://purl.org/dc/dcmitype/StillImage" />
        <dc:title></dc:title>
      </cc:Work>
    </rdf:RDF>
  </metadata>
    <circle
       style="color:#000000;clip-rule:nonzero;display:inline;overflow:visible;visibility:visible;opacity:1;isolation:auto;mix-blend-mode:normal;color-interpolation:sRGB;color-interpolation-filters:linearRGB;solid-color:#000000;solid-opacity:1;vector-effect:none;fill:#ffffff;fill-opacity:1;fill-rule:evenodd;stroke:#2a62ac;stroke-width:1;stroke-linecap:butt;stroke-linejoin:miter;stroke-miterlimit:4;stroke-dasharray:none;stroke-dashoffset:0;stroke-opacity:1;marker:none;color-rendering:auto;image-rendering:auto;shape-rendering:auto;text-rendering:auto;enable-background:accumulate"
       id="path815"
       cx="15"
       cy="15"
       r="14.5" />
<g transform="translate(6,6)"><g id="surface1">
<path style=" stroke:none;fill-rule:nonzero;fill:rgb(30%,30%,30%);fill-opacity:1;" d="M 11.816406 15.917969 C 12.996094 17.082031 14.890625 17.082031 16.070312 15.917969 C 17.238281 14.757812 17.238281 12.863281 16.070312 11.703125 C 15.503906 11.140625 14.742188 10.824219 13.945312 10.828125 C 13.605469 10.828125 13.265625 10.886719 12.945312 10.996094 L 10.25 8.324219 L 9.167969 9.398438 L 9.519531 9.742188 C 9.710938 9.933594 9.820312 10.191406 9.820312 10.449219 C 9.820312 10.6875 9.726562 10.917969 9.554688 11.085938 L 9.457031 11.1875 L 11.105469 12.824219 C 10.722656 13.90625 11 15.109375 11.816406 15.917969 Z M 12.492188 13.8125 C 12.492188 13.429688 12.644531 13.0625 12.917969 12.792969 C 13.484375 12.238281 14.394531 12.238281 14.960938 12.792969 C 15.417969 13.257812 15.503906 13.96875 15.175781 14.527344 C 14.851562 15.089844 14.1875 15.363281 13.5625 15.195312 C 12.933594 15.027344 12.496094 14.460938 12.492188 13.8125 Z M 7.484375 11.53125 C 7.304688 11.75 7.386719 12.117188 7.386719 12.121094 L 7.390625 12.136719 C 7.421875 12.480469 7.261719 12.640625 7.175781 12.726562 L 3.242188 16.628906 C 3.179688 16.6875 3.101562 16.726562 3.019531 16.738281 C 2.921875 16.773438 2.816406 16.792969 2.710938 16.792969 C 2.210938 16.792969 1.539062 16.433594 0.960938 15.863281 C 0.21875 15.121094 -0.148438 14.277344 0.0546875 13.800781 C 0.0703125 13.714844 0.109375 13.636719 0.167969 13.574219 L 4.101562 9.675781 C 4.210938 9.566406 4.347656 9.464844 4.597656 9.464844 C 4.625 9.464844 4.65625 9.464844 4.683594 9.46875 C 4.695312 9.46875 4.699219 9.46875 4.714844 9.46875 C 4.777344 9.480469 4.839844 9.484375 4.902344 9.484375 C 5.023438 9.484375 5.1875 9.46875 5.304688 9.371094 C 5.5 9.21875 5.464844 8.921875 5.429688 8.757812 C 5.390625 8.585938 5.378906 8.410156 5.515625 8.273438 L 6.113281 7.675781 C 6.191406 7.605469 6.292969 7.566406 6.394531 7.566406 C 6.527344 7.570312 6.648438 7.621094 6.742188 7.714844 L 9.15625 10.105469 C 9.335938 10.285156 9.355469 10.566406 9.1875 10.730469 L 8.589844 11.324219 C 8.515625 11.398438 8.421875 11.433594 8.308594 11.433594 C 8.238281 11.433594 8.167969 11.421875 8.101562 11.40625 C 8.023438 11.390625 7.945312 11.378906 7.863281 11.378906 C 7.691406 11.378906 7.5625 11.429688 7.484375 11.53125 Z M 17 0.875 L 15.722656 3.035156 L 15.664062 3.039062 C 15.609375 3.046875 15.433594 3.117188 15.242188 3.1875 C 15 3.285156 14.691406 3.40625 14.398438 3.488281 L 8.90625 8.933594 L 8.40625 8.445312 C 8.371094 8.40625 8.175781 8.214844 8.042969 8.082031 L 7.96875 8.011719 L 13.511719 2.507812 L 13.519531 2.484375 C 13.707031 1.824219 13.855469 1.339844 14.050781 1.1875 L 14.070312 1.179688 L 16.320312 0 Z M 3.390625 3.347656 C 4.015625 2.726562 4.105469 2.308594 3.703125 1.910156 L 1.976562 0.199219 L 2.144531 0.152344 C 2.433594 0.0625 2.738281 0.015625 3.039062 0.015625 C 3.835938 0.015625 4.601562 0.328125 5.164062 0.890625 C 5.980469 1.699219 6.257812 2.902344 5.875 3.984375 L 8.585938 6.671875 L 7.503906 7.746094 L 7.105469 7.347656 C 6.914062 7.164062 6.660156 7.058594 6.394531 7.054688 C 6.15625 7.050781 5.921875 7.144531 5.75 7.316406 L 5.652344 7.414062 L 4.035156 5.808594 C 2.945312 6.1875 1.734375 5.914062 0.914062 5.105469 C 0.121094 4.328125 -0.164062 3.171875 0.167969 2.113281 L 0.21875 1.949219 L 1.945312 3.660156 C 2.105469 3.816406 2.273438 3.894531 2.445312 3.894531 C 2.710938 3.894531 3.011719 3.71875 3.390625 3.347656 Z M 3.390625 3.347656 "/>
</g>
</g>
</svg>
