<?xml version="1.0" encoding="UTF-8" standalone="no"?>
<!-- Created with Inkscape (http://www.inkscape.org/) -->

<svg
   xmlns:dc="http://purl.org/dc/elements/1.1/"
   xmlns:cc="http://creativecommons.org/ns#"
   xmlns:rdf="http://www.w3.org/1999/02/22-rdf-syntax-ns#"
   xmlns:svg="http://www.w3.org/2000/svg"
   xmlns="http://www.w3.org/2000/svg"
   xmlns:xlink="http://www.w3.org/1999/xlink"
   xmlns:sodipodi="http://sodipodi.sourceforge.net/DTD/sodipodi-0.dtd"
   xmlns:inkscape="http://www.inkscape.org/namespaces/inkscape"
   width="30px"
   height="30px"
   version="1.1"
   id="svg8"
   inkscape:version="0.92.4 5da689c313, 2019-01-14"
   sodipodi:docname="container.svg">
  <defs
     id="defs2" />
  <sodipodi:namedview
     id="base"
     pagecolor="#ffffff"
     bordercolor="#666666"
     borderopacity="1.0"
     inkscape:pageopacity="0.0"
     inkscape:pageshadow="2"
     inkscape:zoom="13.049334"
     inkscape:cx="18.679046"
     inkscape:cy="12.165829"
     inkscape:document-units="px"
     inkscape:current-layer="layer1"
     showgrid="false"
     inkscape:snap-page="false"
     units="px"
     inkscape:window-width="1884"
     inkscape:window-height="1061"
     inkscape:window-x="0"
     inkscape:window-y="0"
     inkscape:window-maximized="1"
     fit-margin-top="0"
     fit-margin-left="0"
     fit-margin-right="0"
     fit-margin-bottom="0" />
  <metadata
     id="metadata5">
    <rdf:RDF>
      <cc:Work
         rdf:about="">
        <dc:format>image/svg+xml</dc:format>
        <dc:type
           rdf:resource="http://purl.org/dc/dcmitype/StillImage" />
        <dc:title></dc:title>
      </cc:Work>
    </rdf:RDF>
  </metadata>
    <circle
       style="color:#000000;clip-rule:nonzero;display:inline;overflow:visible;visibility:visible;opacity:1;isolation:auto;mix-blend-mode:normal;color-interpolation:sRGB;color-interpolation-filters:linearRGB;solid-color:#000000;solid-opacity:1;vector-effect:none;fill:#2a62ac;fill-opacity:1;fill-rule:evenodd;stroke:#ffffff;stroke-width:1;stroke-linecap:butt;stroke-linejoin:miter;stroke-miterlimit:4;stroke-dasharray:none;stroke-dashoffset:0;stroke-opacity:1;marker:none;color-rendering:auto;image-rendering:auto;shape-rendering:auto;text-rendering:auto;enable-background:accumulate"
       id="path815"
       cx="15"
       cy="15"
       r="14.5" />
<g transform="translate(6.5,8.0)"><path fill-rule="nonzero" fill="#FFFFFF" fill-opacity="1" d="M 12.046875 6.164062 L 12.054688 5.25 L 12.695312 5.25 L 12.695312 4.578125 L 8.554688 2.261719 L 8.554688 1.507812 L 10.328125 1.507812 L 10.277344 0.0117188 C 9.65625 0.0078125 9.035156 0.00390625 8.414062 0 L 8.414062 2.261719 L 4.273438 4.578125 L 4.273438 5.25 L 4.933594 5.25 L 4.9375 6.125 L 0.839844 6.125 L 0.839844 12.921875 L 16.175781 12.921875 L 16.175781 6.164062 Z M 11.242188 6.222656 L 11.242188 11.773438 L 9.945312 11.773438 L 10.003906 6.222656 Z M 9.058594 6.222656 L 9.058594 11.773438 L 7.761719 11.773438 L 7.820312 6.222656 Z M 5.679688 6.222656 L 6.914062 6.222656 L 6.914062 11.773438 L 5.621094 11.773438 Z M 3.183594 7.476562 L 4.101562 7.476562 L 4.101562 8.398438 L 3.183594 8.398438 Z M 3.183594 10.039062 L 3.183594 9.117188 L 4.101562 9.117188 L 4.101562 10.039062 Z M 1.773438 7.476562 L 2.691406 7.476562 L 2.691406 8.398438 L 1.773438 8.398438 Z M 1.773438 10.039062 L 1.773438 9.117188 L 2.691406 9.117188 L 2.691406 10.039062 Z M 3.183594 11.773438 L 3.183594 10.851562 L 4.101562 10.851562 L 4.101562 11.773438 Z M 1.773438 11.773438 L 1.773438 10.851562 L 2.691406 10.851562 L 2.691406 11.773438 Z M 14.191406 7.476562 L 15.109375 7.476562 L 15.109375 8.398438 L 14.191406 8.398438 Z M 14.191406 10.039062 L 14.191406 9.117188 L 15.109375 9.117188 L 15.109375 10.039062 Z M 12.78125 7.476562 L 13.703125 7.476562 L 13.703125 8.398438 L 12.78125 8.398438 Z M 12.78125 10.039062 L 12.78125 9.117188 L 13.703125 9.117188 L 13.703125 10.039062 Z M 14.191406 11.773438 L 14.191406 10.851562 L 15.109375 10.851562 L 15.109375 11.773438 Z M 12.78125 11.773438 L 12.78125 10.851562 L 13.703125 10.851562 L 13.703125 11.773438 Z M 12.78125 11.773438 "/>
<path fill-rule="nonzero" fill="#FFFFFF" fill-opacity="1" d="M 0 13.414062 L 17 13.414062 L 17 14.324219 L 0 14.324219 Z M 0 13.414062 "/>
</g>
</svg>
