<?xml version="1.0" encoding="UTF-8"?>
<svg xmlns="http://www.w3.org/2000/svg" xmlns:xlink="http://www.w3.org/1999/xlink" width="11" height="10.864994" viewBox="0 0 11 10.864994" version="1.1">
<g id="surface1">
<path style=" stroke:none;fill-rule:nonzero;fill:rgb(30%,30%,30%);fill-opacity:1;" d="M 7.644531 10.300781 C 8.410156 11.054688 9.636719 11.054688 10.398438 10.300781 C 11.15625 9.550781 11.15625 8.324219 10.398438 7.574219 C 10.03125 7.207031 9.539062 7.003906 9.023438 7.007812 C 8.800781 7.007812 8.585938 7.042969 8.375 7.113281 L 6.632812 5.386719 L 5.933594 6.082031 L 6.160156 6.304688 C 6.28125 6.429688 6.355469 6.59375 6.355469 6.761719 C 6.355469 6.917969 6.292969 7.066406 6.183594 7.175781 L 6.117188 7.238281 L 7.1875 8.296875 C 6.9375 8.996094 7.117188 9.777344 7.644531 10.300781 Z M 8.082031 8.9375 C 8.082031 8.691406 8.183594 8.453125 8.359375 8.277344 C 8.726562 7.917969 9.3125 7.917969 9.679688 8.277344 C 9.976562 8.578125 10.03125 9.039062 9.820312 9.402344 C 9.609375 9.765625 9.179688 9.941406 8.773438 9.832031 C 8.371094 9.722656 8.085938 9.355469 8.082031 8.9375 Z M 4.84375 7.460938 C 4.726562 7.601562 4.78125 7.839844 4.78125 7.84375 L 4.78125 7.851562 C 4.800781 8.074219 4.699219 8.179688 4.644531 8.234375 L 2.097656 10.757812 C 2.058594 10.796875 2.007812 10.824219 1.953125 10.828125 C 1.890625 10.855469 1.824219 10.867188 1.753906 10.863281 C 1.429688 10.863281 0.996094 10.632812 0.621094 10.265625 C 0.140625 9.785156 -0.0976562 9.238281 0.0351562 8.929688 C 0.0429688 8.875 0.0703125 8.824219 0.109375 8.785156 L 2.652344 6.261719 C 2.726562 6.191406 2.8125 6.125 2.972656 6.125 C 2.992188 6.125 3.011719 6.125 3.03125 6.125 C 3.039062 6.125 3.042969 6.128906 3.050781 6.128906 C 3.089844 6.132812 3.132812 6.136719 3.171875 6.136719 C 3.25 6.136719 3.355469 6.125 3.433594 6.0625 C 3.558594 5.964844 3.535156 5.773438 3.511719 5.667969 C 3.488281 5.554688 3.480469 5.441406 3.566406 5.355469 L 3.957031 4.96875 C 4.003906 4.921875 4.070312 4.894531 4.136719 4.894531 C 4.222656 4.898438 4.300781 4.929688 4.363281 4.992188 L 5.925781 6.539062 C 6.039062 6.65625 6.054688 6.835938 5.945312 6.941406 L 5.558594 7.328125 C 5.511719 7.375 5.449219 7.398438 5.375 7.398438 C 5.332031 7.398438 5.285156 7.390625 5.242188 7.378906 C 5.191406 7.371094 5.140625 7.363281 5.089844 7.363281 C 4.976562 7.363281 4.894531 7.394531 4.84375 7.460938 Z M 11 0.566406 L 10.171875 1.964844 L 10.136719 1.96875 C 10.101562 1.972656 9.988281 2.015625 9.863281 2.0625 C 9.707031 2.125 9.507812 2.203125 9.316406 2.257812 L 5.761719 5.78125 L 5.4375 5.464844 C 5.417969 5.441406 5.289062 5.316406 5.203125 5.230469 L 5.15625 5.183594 L 8.742188 1.625 L 8.75 1.609375 C 8.871094 1.179688 8.964844 0.867188 9.089844 0.769531 L 9.101562 0.761719 L 10.558594 0 Z M 2.195312 2.164062 C 2.597656 1.761719 2.65625 1.492188 2.394531 1.238281 L 1.28125 0.128906 L 1.390625 0.0976562 C 1.574219 0.0390625 1.769531 0.0078125 1.96875 0.0117188 C 2.480469 0.0078125 2.976562 0.210938 3.34375 0.574219 C 3.871094 1.097656 4.046875 1.878906 3.800781 2.578125 L 5.554688 4.316406 L 4.855469 5.011719 L 4.597656 4.753906 C 4.476562 4.632812 4.308594 4.566406 4.136719 4.566406 C 3.980469 4.5625 3.832031 4.625 3.71875 4.734375 L 3.65625 4.796875 L 2.609375 3.757812 C 1.90625 4.003906 1.121094 3.828125 0.589844 3.304688 C 0.078125 2.800781 -0.105469 2.050781 0.109375 1.367188 L 0.140625 1.261719 L 1.257812 2.367188 C 1.363281 2.46875 1.46875 2.519531 1.582031 2.519531 C 1.753906 2.519531 1.949219 2.40625 2.195312 2.164062 Z M 2.195312 2.164062 "/>
</g>
</svg>
