<?xml version="1.0" encoding="UTF-8"?>
<svg xmlns="http://www.w3.org/2000/svg" xmlns:xlink="http://www.w3.org/1999/xlink" width="11" height="9.26745" viewBox="0 0 11 9.26745">
<path fill-rule="nonzero" fill="rgb(30%,30%,30%)" fill-opacity="1" d="M 7.792969 3.988281 L 7.800781 3.394531 L 8.214844 3.394531 L 8.214844 2.960938 L 5.535156 1.460938 L 5.535156 0.976562 L 6.683594 0.976562 L 6.652344 0.0078125 C 6.25 0.00390625 5.847656 0.00390625 5.445312 0 L 5.445312 1.460938 L 2.765625 2.960938 L 2.765625 3.394531 L 3.191406 3.394531 L 3.195312 3.960938 L 0.542969 3.960938 L 0.542969 8.363281 L 10.464844 8.363281 L 10.464844 3.988281 Z M 7.273438 4.027344 L 7.273438 7.617188 L 6.4375 7.617188 L 6.472656 4.027344 Z M 5.859375 4.027344 L 5.859375 7.617188 L 5.023438 7.617188 L 5.0625 4.027344 Z M 3.675781 4.027344 L 4.476562 4.027344 L 4.476562 7.617188 L 3.636719 7.617188 Z M 2.058594 4.839844 L 2.652344 4.839844 L 2.652344 5.433594 L 2.058594 5.433594 Z M 2.058594 6.496094 L 2.058594 5.898438 L 2.652344 5.898438 L 2.652344 6.496094 Z M 1.148438 4.839844 L 1.742188 4.839844 L 1.742188 5.433594 L 1.148438 5.433594 Z M 1.148438 6.496094 L 1.148438 5.898438 L 1.742188 5.898438 L 1.742188 6.496094 Z M 2.058594 7.617188 L 2.058594 7.023438 L 2.652344 7.023438 L 2.652344 7.617188 Z M 1.148438 7.617188 L 1.148438 7.023438 L 1.742188 7.023438 L 1.742188 7.617188 Z M 9.183594 4.839844 L 9.777344 4.839844 L 9.777344 5.433594 L 9.183594 5.433594 Z M 9.183594 6.496094 L 9.183594 5.898438 L 9.777344 5.898438 L 9.777344 6.496094 Z M 8.269531 4.839844 L 8.867188 4.839844 L 8.867188 5.433594 L 8.269531 5.433594 Z M 8.269531 6.496094 L 8.269531 5.898438 L 8.867188 5.898438 L 8.867188 6.496094 Z M 9.183594 7.617188 L 9.183594 7.023438 L 9.777344 7.023438 L 9.777344 7.617188 Z M 8.269531 7.617188 L 8.269531 7.023438 L 8.867188 7.023438 L 8.867188 7.617188 Z M 8.269531 7.617188 "/>
<path fill-rule="nonzero" fill="rgb(30%,30%,30%)" fill-opacity="1" d="M 0 8.679688 L 11 8.679688 L 11 9.265625 L 0 9.265625 Z M 0 8.679688 "/>
</svg>
