<?xml version="1.0" encoding="UTF-8" standalone="no"?>
<!-- Created with Inkscape (http://www.inkscape.org/) -->

<svg
   xmlns:dc="http://purl.org/dc/elements/1.1/"
   xmlns:cc="http://creativecommons.org/ns#"
   xmlns:rdf="http://www.w3.org/1999/02/22-rdf-syntax-ns#"
   xmlns:svg="http://www.w3.org/2000/svg"
   xmlns="http://www.w3.org/2000/svg"
   xmlns:xlink="http://www.w3.org/1999/xlink"
   xmlns:sodipodi="http://sodipodi.sourceforge.net/DTD/sodipodi-0.dtd"
   xmlns:inkscape="http://www.inkscape.org/namespaces/inkscape"
   width="30px"
   height="30px"
   version="1.1"
   id="svg8"
   inkscape:version="0.92.4 5da689c313, 2019-01-14"
   sodipodi:docname="container.svg">
  <defs
     id="defs2" />
  <sodipodi:namedview
     id="base"
     pagecolor="#ffffff"
     bordercolor="#666666"
     borderopacity="1.0"
     inkscape:pageopacity="0.0"
     inkscape:pageshadow="2"
     inkscape:zoom="13.049334"
     inkscape:cx="18.679046"
     inkscape:cy="12.165829"
     inkscape:document-units="px"
     inkscape:current-layer="layer1"
     showgrid="false"
     inkscape:snap-page="false"
     units="px"
     inkscape:window-width="1884"
     inkscape:window-height="1061"
     inkscape:window-x="0"
     inkscape:window-y="0"
     inkscape:window-maximized="1"
     fit-margin-top="0"
     fit-margin-left="0"
     fit-margin-right="0"
     fit-margin-bottom="0" />
  <metadata
     id="metadata5">
    <rdf:RDF>
      <cc:Work
         rdf:about="">
        <dc:format>image/svg+xml</dc:format>
        <dc:type
           rdf:resource="http://purl.org/dc/dcmitype/StillImage" />
        <dc:title></dc:title>
      </cc:Work>
    </rdf:RDF>
  </metadata>
    <circle
       style="color:#000000;clip-rule:nonzero;display:inline;overflow:visible;visibility:visible;opacity:1;isolation:auto;mix-blend-mode:normal;color-interpolation:sRGB;color-interpolation-filters:linearRGB;solid-color:#000000;solid-opacity:1;vector-effect:none;fill:#2a62ac;fill-opacity:1;fill-rule:evenodd;stroke:#ffffff;stroke-width:1;stroke-linecap:butt;stroke-linejoin:miter;stroke-miterlimit:4;stroke-dasharray:none;stroke-dashoffset:0;stroke-opacity:1;marker:none;color-rendering:auto;image-rendering:auto;shape-rendering:auto;text-rendering:auto;enable-background:accumulate"
       id="path815"
       cx="15"
       cy="15"
       r="14.5" />
<g transform="translate(8,6)"><g id="surface1">
<path style=" stroke:none;fill-rule:nonzero;fill:#FFFFFF;fill-opacity:1;" d="M 7.605469 10.25 C 6.375 9.5625 6.386719 10.375 5.675781 10.277344 C 5.089844 10.199219 4.949219 9.824219 4.425781 10.003906 C 3.886719 10.1875 3.625 10.359375 3.617188 10.382812 C 3.5625 10.566406 3.578125 10.71875 3.578125 10.894531 C 3.578125 12.695312 5.042969 14.164062 6.847656 14.164062 C 8.578125 14.164062 10.117188 12.625 10.117188 10.894531 C 10.117188 10.707031 10.085938 10.359375 10.070312 10.351562 C 9.65625 10.132812 9.359375 9.988281 9.101562 9.976562 C 8.59375 9.949219 8.074219 10.511719 7.605469 10.25 Z M 7.605469 10.25 "/>
<path style=" stroke:none;fill-rule:nonzero;fill:#FFFFFF;fill-opacity:1;" d="M 0 4.742188 L 0 16.101562 C 0 16.597656 0.402344 17 0.898438 17 L 12.710938 17 C 13.207031 17 13.609375 16.597656 13.609375 16.101562 L 13.609375 4.742188 Z M 6.847656 15.292969 C 4.421875 15.292969 2.449219 13.316406 2.449219 10.894531 C 2.449219 8.46875 4.421875 6.496094 6.847656 6.496094 C 9.269531 6.496094 11.246094 8.46875 11.246094 10.894531 C 11.246094 13.316406 9.269531 15.292969 6.847656 15.292969 Z M 6.847656 15.292969 "/>
<path style=" stroke:none;fill-rule:nonzero;fill:#FFFFFF;fill-opacity:1;" d="M 6.847656 14.882812 C 4.648438 14.882812 2.859375 13.09375 2.859375 10.894531 C 2.859375 8.695312 4.648438 6.90625 6.847656 6.90625 C 9.046875 6.90625 10.835938 8.695312 10.835938 10.894531 C 10.835938 13.09375 9.046875 14.882812 6.847656 14.882812 Z M 6.847656 7.398438 C 4.917969 7.398438 3.351562 8.964844 3.351562 10.894531 C 3.351562 12.820312 4.917969 14.386719 6.847656 14.386719 C 8.773438 14.386719 10.339844 12.820312 10.339844 10.894531 C 10.339844 8.964844 8.773438 7.398438 6.847656 7.398438 Z M 6.847656 7.398438 "/>
<path style=" stroke:none;fill-rule:nonzero;fill:#FFFFFF;fill-opacity:1;" d="M 13.609375 4.273438 L 0 4.273438 L 0 0.898438 C 0 0.402344 0.402344 0 0.898438 0 L 12.710938 0 C 13.207031 0 13.609375 0.402344 13.609375 0.898438 Z M 1.335938 1.433594 C 1.035156 1.433594 0.789062 1.675781 0.789062 1.980469 C 0.789062 2.28125 1.035156 2.527344 1.335938 2.527344 C 1.640625 2.527344 1.886719 2.28125 1.886719 1.980469 C 1.886719 1.675781 1.640625 1.433594 1.335938 1.433594 Z M 2.921875 1.433594 C 2.617188 1.433594 2.371094 1.675781 2.371094 1.980469 C 2.371094 2.28125 2.617188 2.527344 2.921875 2.527344 C 3.222656 2.527344 3.46875 2.28125 3.46875 1.980469 C 3.46875 1.675781 3.222656 1.433594 2.921875 1.433594 Z M 4.507812 1.433594 C 4.207031 1.433594 3.960938 1.675781 3.960938 1.980469 C 3.960938 2.28125 4.207031 2.527344 4.507812 2.527344 C 4.8125 2.527344 5.058594 2.28125 5.058594 1.980469 C 5.058594 1.675781 4.8125 1.433594 4.507812 1.433594 Z M 11.886719 1.136719 C 11.417969 1.136719 11.042969 1.515625 11.042969 1.980469 C 11.042969 2.445312 11.417969 2.824219 11.886719 2.824219 C 12.351562 2.824219 12.726562 2.445312 12.726562 1.980469 C 12.726562 1.515625 12.351562 1.136719 11.886719 1.136719 Z M 9.96875 2.144531 L 9.96875 1.785156 C 9.96875 1.574219 9.800781 1.40625 9.59375 1.40625 L 7.199219 1.40625 C 6.992188 1.40625 6.824219 1.574219 6.824219 1.785156 L 6.824219 2.144531 C 6.824219 2.351562 6.992188 2.519531 7.199219 2.519531 L 9.59375 2.519531 C 9.800781 2.519531 9.96875 2.351562 9.96875 2.144531 Z M 9.96875 2.144531 "/>
</g>
</g>
</svg>
