<?xml version="1.0" encoding="UTF-8" standalone="no"?>
<!-- Created with Inkscape (http://www.inkscape.org/) -->

<svg
   xmlns:dc="http://purl.org/dc/elements/1.1/"
   xmlns:cc="http://creativecommons.org/ns#"
   xmlns:rdf="http://www.w3.org/1999/02/22-rdf-syntax-ns#"
   xmlns:svg="http://www.w3.org/2000/svg"
   xmlns="http://www.w3.org/2000/svg"
   xmlns:xlink="http://www.w3.org/1999/xlink"
   xmlns:sodipodi="http://sodipodi.sourceforge.net/DTD/sodipodi-0.dtd"
   xmlns:inkscape="http://www.inkscape.org/namespaces/inkscape"
   width="30px"
   height="30px"
   version="1.1"
   id="svg8"
   inkscape:version="0.92.4 5da689c313, 2019-01-14"
   sodipodi:docname="container.svg">
  <defs
     id="defs2" />
  <sodipodi:namedview
     id="base"
     pagecolor="#ffffff"
     bordercolor="#666666"
     borderopacity="1.0"
     inkscape:pageopacity="0.0"
     inkscape:pageshadow="2"
     inkscape:zoom="13.049334"
     inkscape:cx="18.679046"
     inkscape:cy="12.165829"
     inkscape:document-units="px"
     inkscape:current-layer="layer1"
     showgrid="false"
     inkscape:snap-page="false"
     units="px"
     inkscape:window-width="1884"
     inkscape:window-height="1061"
     inkscape:window-x="0"
     inkscape:window-y="0"
     inkscape:window-maximized="1"
     fit-margin-top="0"
     fit-margin-left="0"
     fit-margin-right="0"
     fit-margin-bottom="0" />
  <metadata
     id="metadata5">
    <rdf:RDF>
      <cc:Work
         rdf:about="">
        <dc:format>image/svg+xml</dc:format>
        <dc:type
           rdf:resource="http://purl.org/dc/dcmitype/StillImage" />
        <dc:title></dc:title>
      </cc:Work>
    </rdf:RDF>
  </metadata>
    <circle
       style="color:#000000;clip-rule:nonzero;display:inline;overflow:visible;visibility:visible;opacity:1;isolation:auto;mix-blend-mode:normal;color-interpolation:sRGB;color-interpolation-filters:linearRGB;solid-color:#000000;solid-opacity:1;vector-effect:none;fill:#767676;fill-opacity:1;fill-rule:evenodd;stroke:#ffffff;stroke-width:1;stroke-linecap:butt;stroke-linejoin:miter;stroke-miterlimit:4;stroke-dasharray:none;stroke-dashoffset:0;stroke-opacity:1;marker:none;color-rendering:auto;image-rendering:auto;shape-rendering:auto;text-rendering:auto;enable-background:accumulate"
       id="path815"
       cx="15"
       cy="15"
       r="14.5" />
<g transform="translate(6.5,6.5)"><path fill-rule="nonzero" fill="#FFFFFF" fill-opacity="1" d="M 7.808594 15.03125 L 9.148438 15.03125 C 9.496094 15.03125 9.773438 15.3125 9.773438 15.65625 L 9.773438 16.375 C 9.773438 16.71875 9.496094 17 9.148438 17 L 7.808594 17 C 7.460938 17 7.179688 16.71875 7.179688 16.375 L 7.179688 15.65625 C 7.179688 15.3125 7.460938 15.03125 7.808594 15.03125 Z M 7.808594 15.03125 "/>
<path fill-rule="nonzero" fill="#FFFFFF" fill-opacity="1" d="M 11.769531 0 L 10.429688 0 C 10.429688 0 9.632812 1.125 8.378906 1.070312 C 7.125 1.011719 6.597656 0 6.597656 0 L 5.144531 0 L 0 3.007812 L 1.679688 6.140625 L 3.820312 5.714844 L 3.789062 14.066406 L 6.214844 16.371094 L 6.554688 16.371094 L 6.554688 14.957031 C 6.554688 14.605469 6.839844 14.324219 7.1875 14.324219 L 9.738281 14.324219 C 10.089844 14.324219 10.375 14.605469 10.375 14.957031 L 10.375 16.371094 L 10.828125 16.371094 L 13.136719 14.066406 L 13.222656 5.714844 L 15.246094 6.113281 L 16.984375 3.007812 Z M 10.425781 6.371094 C 10.425781 7.558594 8.492188 8.816406 8.492188 8.816406 C 8.492188 8.816406 6.558594 7.558594 6.558594 6.371094 C 6.558594 5.773438 6.992188 5.292969 7.527344 5.292969 C 8.058594 5.292969 8.492188 5.773438 8.492188 6.371094 C 8.492188 5.773438 8.925781 5.292969 9.460938 5.292969 C 9.996094 5.292969 10.429688 5.773438 10.429688 6.371094 Z M 10.425781 6.371094 "/>
</g>
</svg>
