<?xml version="1.0" encoding="UTF-8"?>
<svg xmlns="http://www.w3.org/2000/svg" xmlns:xlink="http://www.w3.org/1999/xlink" width="10.990779" height="11" viewBox="0 0 10.990779 11">
<path fill-rule="nonzero" fill="rgb(30%,30%,30%)" fill-opacity="1" d="M 5.050781 9.726562 L 5.921875 9.726562 C 6.144531 9.726562 6.324219 9.90625 6.324219 10.132812 L 6.324219 10.59375 C 6.324219 10.820312 6.144531 11 5.921875 11 L 5.050781 11 C 4.828125 11 4.648438 10.820312 4.648438 10.59375 L 4.648438 10.132812 C 4.648438 9.90625 4.828125 9.726562 5.050781 9.726562 Z M 5.050781 9.726562 "/>
<path fill-rule="nonzero" fill="rgb(30%,30%,30%)" fill-opacity="1" d="M 7.617188 0 L 6.75 0 C 6.75 0 6.234375 0.726562 5.421875 0.691406 C 4.609375 0.65625 4.269531 0 4.269531 0 L 3.328125 0 L 0 1.945312 L 1.089844 3.972656 L 2.472656 3.699219 L 2.453125 9.101562 L 4.019531 10.59375 L 4.242188 10.59375 L 4.242188 9.679688 C 4.242188 9.453125 4.425781 9.265625 4.652344 9.265625 L 6.300781 9.265625 C 6.527344 9.265625 6.710938 9.453125 6.710938 9.679688 L 6.710938 10.59375 L 7.007812 10.59375 L 8.5 9.101562 L 8.554688 3.699219 L 9.867188 3.957031 L 10.992188 1.945312 Z M 6.746094 4.121094 C 6.746094 4.890625 5.496094 5.707031 5.496094 5.707031 C 5.496094 5.707031 4.242188 4.890625 4.242188 4.121094 C 4.242188 3.738281 4.523438 3.425781 4.871094 3.425781 C 5.214844 3.425781 5.496094 3.738281 5.496094 4.121094 C 5.496094 3.738281 5.777344 3.425781 6.121094 3.425781 C 6.46875 3.425781 6.746094 3.738281 6.746094 4.121094 Z M 6.746094 4.121094 "/>
</svg>
